<?xml version="1.0" encoding="UTF-8" standalone="no"?>
<!-- Created with Inkscape (http://www.inkscape.org/) -->
<svg xmlns:dc="http://purl.org/dc/elements/1.1/" xmlns:cc="http://web.resource.org/cc/" xmlns:rdf="http://www.w3.org/1999/02/22-rdf-syntax-ns#" xmlns:svg="http://www.w3.org/2000/svg" xmlns="http://www.w3.org/2000/svg" xmlns:sodipodi="http://sodipodi.sourceforge.net/DTD/sodipodi-0.dtd" xmlns:inkscape="http://www.inkscape.org/namespaces/inkscape" id="svg1941" sodipodi:version="0.32" inkscape:version="0.44.1" width="414" height="896" version="1.0" sodipodi:docname="carte_Alsace_dialectes.svg" sodipodi:docbase="K:\Data\Document\carteAlsace" inkscape:export-filename="K:\Data\Document\carteAlsace\carte_Alsace_dialectes.png" inkscape:export-xdpi="60.05769" inkscape:export-ydpi="60.05769">
  <defs id="defs34"/>
  <metadata id="metadata1946">
    <rdf:RDF>
      <cc:Work rdf:about="">
        <dc:format>image/svg+xml</dc:format>
        <dc:type rdf:resource="http://purl.org/dc/dcmitype/StillImage"/>
      </cc:Work>
    </rdf:RDF>
  </metadata>
  <rect style="opacity:1;fill:white;fill-opacity:1" id="rectFondBlanc" width="419.59656" height="899.87323" x="-1.2910663" y="-1.2910911"/>
  <sodipodi:namedview inkscape:window-height="998" inkscape:window-width="954" inkscape:pageshadow="2" inkscape:pageopacity="0.0" guidetolerance="10.0" gridtolerance="10.0" objecttolerance="10.0" borderopacity="1.0" bordercolor="#ffffff" pagecolor="#ffffff" id="base" inkscape:zoom="1" inkscape:cx="186.01872" inkscape:cy="835.31183" inkscape:window-x="606" inkscape:window-y="19" inkscape:current-layer="svg1941" showguides="true" inkscape:guide-bbox="true"/>
<!-- contour des aires dialectales -->  <path sodipodi:nodetypes="csssscssssssssssssssscsssscssssssscsssssccccccsscssssssssssssssssssssssssssssssssssssscsssssssscsssssssssssscssssssssssscssssssssssssssscssscsssssssscsssssssssscsssssssssc" id="pathFrancique" d="M 235.21704,88.320434 C 236.65229,88.679247 239.18617,88.993614 240.63661,89.718832 C 242.25211,90.526582 244.94439,91.72409 247.76658,90.312996 C 249.31428,89.539144 251.94332,87.342174 253.70822,87.342174 C 256.50773,87.342174 260.1086,86.977375 262.02653,87.936339 C 263.04416,88.445154 266.73948,91.808498 267.96817,91.501325 C 268.20184,91.442909 272.53355,91.877202 273.31565,90.312996 C 273.54987,89.844559 275.4592,84.635672 275.69231,83.777187 C 276.09008,82.312296 279.43877,81.354828 281.35489,81.472614 C 283.61901,81.611793 284.5769,81.980758 286.98143,83.183023 C 289.01034,84.197478 289.77584,85.842828 292.18037,87.045092 C 293.3511,87.630461 297.64608,89.481551 298.96975,90.805219 C 299.34335,91.178815 302.6308,94.271061 304.80637,92.09549 C 305.74719,91.154664 307.59283,88.028518 308.96552,87.342174 C 311.92921,85.860327 311.48983,86.547605 313.9979,89.055675 C 316.48756,91.545341 317.30769,90.607465 318.92524,88.005331 C 319.96736,86.328893 320.79064,83.50919 322.6313,82.588859 C 323.73828,82.035368 327.20839,81.048077 328.57294,83.777187 C 329.59852,85.82834 330.31638,87.303115 332.13793,89.124668 C 332.30671,89.293451 336.66037,93.514694 337.48541,92.689654 C 337.59681,92.578257 340.73299,89.342397 342.23873,89.718832 C 344.68021,90.329203 346.6444,91.03042 348.77454,92.09549 C 350.61683,93.016636 351.97773,94.588335 354.12202,95.660477 C 356.16165,96.680295 357.84125,97.520094 360.06366,98.631299 C 362.12011,99.659521 362.99243,100.9659 364.81698,102.79045 C 366.26514,104.23861 367.86742,105.78118 370.16446,106.35544 C 371.85296,106.77756 375.61504,107.71808 377.29443,108.13793 C 379.72649,108.74594 380.86045,110.51485 383.23607,111.10875 C 385.46932,111.66706 388.51843,111.70292 391.55438,111.70292 C 394.44628,111.70292 397.66633,110.86966 399.87268,112.29708 C 401.46028,113.32419 404.45999,112.95732 405.81432,112.89125 C 409.66642,112.70334 410.15497,116.89438 411.36131,114.84776 C 409.76632,112.525 409.56746,116.5225 408.77459,117.14797 C 406.77682,118.72391 406.14375,118.71353 404.58995,120.26733 C 402.56521,122.29208 402.26624,121.76991 401.06101,124.18037 C 399.74348,126.81543 398.37146,127.36358 397.49602,129.52785 C 396.35451,132.34991 395.95964,133.78582 395.11936,136.06366 C 394.47758,137.8034 392.67161,139.91304 392.14854,142.0053 C 391.51637,144.53399 390.10684,146.08871 389.17772,147.94695 C 387.85249,150.5974 387.28741,151.72757 386.2069,153.88859 C 385.16085,155.98068 383.96823,162.85147 383.96823,165.14826 C 377.13266,165.68467 374.69945,161.20779 364.83983,157.03441 C 351.47956,150.80427 343.66068,147.94585 318.92878,139.0833 C 303.7353,133.20692 290.37838,134.22637 275.94118,132.06531 C 257.03626,135.74634 247.25391,143.25037 236.55912,149.2971 C 218.40585,169.97888 188.84821,195.09091 165.52019,223.33888 C 157.77842,223.65603 147.46834,226.17169 147.46834,223.02659 C 147.46834,221.78501 144.82921,218.67884 144.10724,218.31785 C 143.35002,217.93924 142.68984,217.7509 142.00655,217.47758 C 140.44434,216.69648 140.27915,212.38908 139.48572,211.59565 C 138.042,210.15193 137.40761,209.96025 136.54476,208.23455 C 135.43443,206.01389 134.38623,206.61184 133.18366,207.81441 C 132.35144,208.64663 127.73896,207.50358 127.30173,207.39427 C 125.03647,206.82796 127.36353,203.55123 127.72187,203.1929 C 129.59236,201.32241 130.65497,204.06461 131.50311,200.67207 C 131.94599,198.90052 128.88934,198.44311 127.72187,198.15124 C 125.87947,197.69064 123.21649,198.07524 121.83994,197.73111 C 119.94104,197.25638 117.83099,198.20817 116.37815,198.57138 C 114.15795,199.12643 114.646,198.75565 112.59691,197.73111 C 110.96758,196.91644 109.8514,196.24601 108.81567,195.21028 C 107.60698,194.00159 108.39553,191.72145 108.39553,189.74849 C 108.39553,187.78964 104.67413,189.26852 104.19416,189.74849 C 102.71894,191.2237 101.60069,191.42904 99.152502,191.42904 C 98.872411,191.42904 98.592319,191.42904 98.312227,191.42904 C 95.573715,191.42904 96.211538,192.01124 96.211538,195.63042 C 96.211538,197.73111 96.211538,199.83179 96.211538,201.93248 C 96.211538,203.18856 93.379864,204.03317 92.010161,204.03317 C 90.064572,204.03317 89.909473,206.23797 89.909473,208.23455 C 89.909473,210.93989 89.925691,211.99957 88.649059,213.2762 C 87.596804,214.32846 85.292943,214.11648 83.187269,214.11648 C 80.64808,214.11648 80.078304,216.13303 79.406029,217.47758 C 78.37389,219.54186 76.544746,218.39753 75.62479,217.47758 C 74.216211,216.069 73.29091,216.54481 72.683826,214.11648 C 72.531621,213.50766 75.334233,211.04593 75.62479,210.75538 C 77.068255,209.31191 78.052409,209.40175 76.044928,207.39427 C 74.828918,206.17826 72.590905,206.53077 71.003275,206.13386 C 69.200637,205.6832 68.074874,204.04573 67.222036,203.1929 C 66.08036,202.05122 67.869617,198.08174 68.062311,197.31097 C 68.531175,195.43551 69.164639,194.10795 70.163,193.10959 C 70.790849,192.48174 75.466782,193.10959 76.465065,193.10959 C 79.569185,193.10959 79.279044,192.52329 80.246305,190.58876 C 81.019831,189.04171 81.126452,187.38715 80.666443,185.54711 C 80.206415,183.707 78.727527,183.44642 76.465065,183.44642 C 74.080939,183.44642 72.937024,182.01349 72.263688,184.70684 C 71.804759,186.54255 70.123217,186.80753 68.062311,186.80753 C 66.858651,186.80753 65.692012,184.01709 65.121347,183.44642 C 64.870551,183.19563 64.438891,182.08151 64.281071,181.76587 C 62.123812,179.60861 61.337693,180.29297 59.659557,178.61484 C 58.842229,177.79751 56.232189,177.23282 55.038042,176.93429 C 53.261462,176.49014 51.569008,174.59655 49.996389,174.20339 C 47.947252,173.69111 46.554515,174.65585 44.744667,174.20339 C 42.967646,173.75914 39.979553,174.64428 38.862739,173.78325 C 38.152759,173.23588 39.913084,168.47386 39.913084,167.48119 C 39.913084,165.32475 38.964498,164.32361 38.232533,162.85968 C 37.638025,161.67066 35.364325,160.79536 34.451293,160.33885 C 33.322218,159.77431 33.403528,159.29108 32.770742,158.6583 C 31.392872,157.96937 36.092887,156.30859 37.182188,157.39789 C 38.851138,159.06684 42.085447,157.67467 42.43391,156.97775 C 43.329873,155.18582 43.863656,153.69812 44.534599,152.35623 C 45.212688,151.00005 44.954736,148.45385 44.954736,146.4743 C 44.954736,146.05417 44.954736,145.63403 44.954736,145.21389 C 44.954736,144.83646 51.318153,145.63403 51.67694,145.63403 C 53.777628,145.63403 55.878317,145.63403 57.979006,145.63403 C 58.728578,145.63403 58.399143,140.44514 58.399143,139.7521 C 58.399143,137.76828 59.047092,135.93538 59.659557,134.71045 C 60.387142,133.25528 61.097878,132.48112 60.499832,130.08893 C 60.030627,128.21211 58.869718,127.76985 58.399143,125.88756 C 58.035335,124.43232 60.247337,122.77895 60.91997,122.10632 C 61.473167,121.55312 61.73128,121.56544 62.180383,121.26604 C 64.059327,119.3871 63.440796,116.1413 63.440796,113.70356 C 63.440796,110.65449 64.149589,110.60542 65.121347,108.66191 C 65.776149,107.3523 67.626538,106.57686 68.482449,105.72094 C 69.635119,104.56827 69.742862,103.04698 69.742862,100.67929 C 69.742862,99.101143 68.448498,97.602525 68.062311,96.057777 C 67.581015,94.132593 66.659438,93.686651 67.222036,91.436262 C 67.854782,88.905278 70.474117,90.907104 71.003275,91.436262 C 72.89732,93.330308 74.637811,89.502249 74.784515,88.915436 C 75.396062,86.469244 78.234475,89.424433 78.565754,89.755712 C 80.509839,91.699797 81.983985,88.723815 82.767131,91.8564 C 83.250441,93.78964 82.335958,93.116813 79.406029,93.116813 C 78.708693,93.116813 77.974391,93.789826 77.305341,93.957089 C 77.725479,94.657318 78.145616,95.357548 78.565754,96.057777 C 79.151396,97.033846 79.254017,100.91152 79.406029,101.51957 C 79.983923,103.83114 80.533216,103.90205 82.767131,104.46053 C 84.147331,104.80558 82.864701,108.54886 82.864701,109.92232 C 82.864701,112.67856 83.572141,113.6683 84.86782,114.96397 C 85.778829,115.87498 86.156525,118.8018 86.548371,119.58549 C 86.750683,119.99011 91.873581,118.69424 92.553355,118.69424 C 94.654043,118.69424 97.051814,118.69424 99.152502,119.58549 C 101.31059,120.50109 102.63671,120.54887 103.77402,121.68618 C 105.17028,123.08244 104.83098,124.52541 106.71498,125.46742 C 108.35511,126.28748 109.03428,127.36658 110.07608,128.40838 C 111.09257,129.42487 114.08255,128.19831 115.53787,128.19831 C 117.09414,128.19831 118.32183,127.14797 120.99966,127.14797 C 123.06454,127.14797 125.42943,127.20507 126.88159,127.56811 C 128.77081,128.04041 129.922,128.40838 132.34338,128.40838 C 132.4537,128.40838 134.19068,129.96224 134.44407,130.08893 C 136.32055,130.08893 135.70448,136.08752 135.70448,137.23127 C 135.70448,139.49458 137.72001,139.36047 139.06559,140.17224 C 141.18369,141.45006 136.7557,140.18822 142.42668,142.27293 C 143.88163,142.80778 144.59356,143.73264 144.84995,144.37362 C 146.74057,144.56925 149.13735,142.80098 149.56903,142.69306 C 151.25472,142.27164 152.297,141.43738 153.37575,140.64335 C 154.78604,139.60528 157.38971,140.78493 157.55165,141.43265 C 157.85692,142.65377 161.15666,140.85068 162.83941,140.39286 C 163.97957,140.08266 166.2414,138.91468 167.18933,138.44071 C 168.54381,137.76347 169.90966,137.05725 170.99605,135.97086 C 172.39662,134.57029 173.63263,134.17456 174.77729,133.0299 C 175.57345,132.23374 177.66681,132.32413 178.9277,132.09206 C 180.33812,131.83247 181.93169,132.05889 182.59026,131.6974 C 183.98924,132.11196 183.71091,132.18962 186.12101,132.18962 C 188.02369,132.18962 189.56385,133.05033 191.16266,133.45003 C 192.68167,133.82979 192.15619,136.54425 193.26335,137.65141 C 194.38582,138.77388 196.76732,139.30725 198.15646,139.65453 C 199.2571,139.92969 200.88705,141.07373 201.66611,141.85279 C 202.75622,142.9429 205.86513,141.85043 207.1279,143.1132 C 208.71522,144.70053 208.9884,144.95883 211.32927,144.37362 C 211.33451,144.37231 213.62974,140.61295 213.8501,140.17224 C 214.54966,138.77312 216.06145,138.27036 216.79106,136.81114 C 217.52857,135.33613 218.99193,134.93022 219.73203,133.45003 C 220.21066,132.49278 220.15217,131.67301 220.15217,130.50907 C 220.51736,129.77868 220.99244,129.10861 221.41258,128.40838 C 222.28346,126.95692 221.55983,123.9125 222.25285,122.52645 C 223.27873,120.47471 224.39738,121.35372 223.09313,118.74521 C 222.24823,117.05542 224.1877,114.87553 224.77368,113.70356 C 225.60473,112.04147 226.49072,111.5299 227.29451,109.92232 C 228.08584,108.33966 227.71465,105.92029 227.71465,104.04039 C 227.71465,102.22963 229.90062,102.18928 230.65561,100.67929 C 231.65988,98.67076 232.24414,97.922364 233.17644,96.057777 C 234.15685,94.096947 234.69777,94.173817 235.27712,91.8564 C 235.38593,91.421183 235.48719,88.346849 235.48719,87.865092" style="fill:blue;fill-rule:evenodd;stroke:black;stroke-width:1px;stroke-linecap:butt;stroke-linejoin:miter;stroke-opacity:0;fill-opacity:1;opacity:1" inkscape:label="#pathFrancique"/>
  <path style="fill:purple;fill-rule:evenodd;stroke:black;stroke-width:1px;stroke-linecap:butt;stroke-linejoin:miter;stroke-opacity:0;fill-opacity:1;opacity:1" d="M 302.64574,255.32374 C 307.7655,259.78904 312.73448,260.57844 310.9383,265.36563 C 310.17565,267.39826 306.58886,271.15966 306.58886,273.90981 C 306.58886,278.17733 306.1829,278.47493 304.2122,280.44562 C 302.72878,281.92905 302.56216,285.52819 301.83554,286.98143 C 301.6785,287.29553 300.7383,288.07868 300.64722,288.16976 C 298.92116,291.62188 298.27056,292.17696 298.27056,297.08223 C 298.27056,300.35646 298.78066,302.09344 299.45889,304.80637 C 285.66154,303.21001 277.03537,297.87212 266.4067,294.6385 C 257.08358,282.63839 258.82516,277.22836 258.16712,269.72658 C 259.37431,257.93476 271.14808,245.11655 288.19854,248.7497" id="pathBasAlStrasbourg" sodipodi:nodetypes="csssssscccc"/>
  <path sodipodi:nodetypes="csscssssssssssssssscssscsssssssscsssssssssscsssssssssccsscsscssssccs" id="pathHautAlem" d="M 192.18975,738.91611 C 197.66419,729.34766 204.60514,726.71061 213.42808,716.55216 C 225.1988,702.99973 237.82814,707.9622 240.73891,712.24602 C 241.65633,713.59619 243.24117,715.33149 244.94029,716.18105 C 246.09843,716.76012 247.54341,718.72246 249.14167,719.12202 C 251.32232,719.66718 251.62616,720.34609 253.34305,722.06298 C 254.48771,723.20765 254.4633,724.86379 255.86387,726.26436 C 257.00853,727.40902 256.98413,729.06517 258.3847,730.46574 C 259.43504,731.51608 260.27532,732.7765 261.32566,733.82684 C 262.225,734.72618 263.84649,735.91088 263.84649,737.60808 C 263.84649,739.70877 263.84649,741.80946 263.84649,743.91014 C 263.84649,746.15088 263.34658,748.20499 263.84649,751.37506 C 261.58686,751.97272 259.86625,754.17572 258.04102,754.90581 C 257.34079,755.1859 255.30369,756.65432 254.60346,756.93441 C 253.91391,757.62396 252.32859,759.44089 251.24236,759.87538 C 250.54213,760.15547 249.89584,760.71565 249.14167,760.71565 C 248.23709,761.16794 246.71004,762.81634 245.36043,762.81634 C 243.3824,762.81634 241.50329,762.96815 240.73891,764.49689 C 240.19558,765.58355 239.50818,767.82832 238.63823,768.69827 C 237.46228,769.87422 236.42227,770.3379 236.95768,772.47951 C 237.33113,773.97334 237.78153,775.19398 238.63822,776.68089 C 239.16649,777.59777 239.56319,779.43543 240.94898,780.46213 C 242.12594,781.3341 244.04511,784.35317 242.8396,786.76419 C 242.51147,787.09233 241.45239,787.85807 241.15905,788.44474 C 240.85482,789.0532 238.8092,790.95217 238.34115,791.18619 C 236.77192,791.97081 236.73127,794.32667 234.43685,794.32667 C 232.22786,794.32667 230.25956,794.33269 228.55492,793.90653 C 227.01973,793.52274 226.17453,791.94628 225.19382,790.96557 C 225.04851,790.82026 221.72547,786.87144 220.5723,788.02461 C 219.69198,788.24469 218.42053,788.49583 217.63134,789.28502 C 217.48691,789.42945 215.1008,792.85133 215.74072,793.17129 C 216.83818,793.72002 217.70753,795.16695 219.31189,795.16695 C 221.15658,795.16695 223.19026,795.26407 224.35354,796.42736 C 225.39395,797.46776 226.45423,798.55461 226.45423,800.62874 C 226.45423,803.30913 225.94185,803.40576 223.93341,804.40998 C 223.35838,804.69749 220.2099,805.71421 219.73203,806.51067 C 219.31189,807.21089 218.66967,807.81913 218.47162,808.61135 C 218.21925,809.24228 217.95746,809.40756 217.63134,810.71204 C 217.02774,813.12645 216.80445,812.90437 215.32058,814.38825 C 214.22254,815.48629 213.17443,816.56419 211.43431,817.43424 C 210.02323,818.13978 208.7347,818.69466 206.28762,818.69466 C 203.90684,818.69466 201.52606,818.69466 199.14528,818.69466 C 198.19378,818.50436 197.84297,818.27452 197.04459,818.27452 C 194.15637,818.27452 193.59693,816.59397 190.32239,816.59397 C 189.33706,816.8403 188.47355,817.22418 186.75122,817.22418 C 184.65053,817.22418 182.75991,818.27452 180.65922,818.27452 C 177.61026,818.27452 176.90658,818.66606 174.77729,820.79535 C 174.00704,821.5656 173.86699,822.96606 173.09674,823.73631 C 171.70981,825.12325 171.4753,825.41686 168.47523,825.41686 C 166.30775,825.41686 164.9634,825.04005 164.27385,823.31617 C 163.99376,822.61595 163.43357,821.96966 163.43357,821.21549 C 163.29353,821.07544 163.3592,819.46913 163.22351,819.32487 C 161.75303,817.76147 162.77107,817.43425 160.07247,817.43425 C 157.44207,817.43425 156.91046,817.65529 155.45096,819.1148 C 154.89077,819.67498 154.33059,820.23517 153.77041,820.79535 C 153.38489,820.89173 151.41167,821.71667 150.4093,821.21549 C 149.00216,820.51192 148.26709,819.51417 146.62806,818.69466 C 146.11609,818.43867 141.16195,817.02277 142.00655,815.33356 C 142.00655,814.12267 141.48082,811.34336 142.00655,810.2919 C 142.75341,808.79819 143.38932,807.88533 144.10724,806.09053 C 144.38733,805.3903 143.82714,804.1649 144.10723,803.46467 C 144.39326,802.32058 146.02912,801.76412 146.20793,801.04887 C 146.60011,799.48016 146.89171,797.42413 147.88848,796.42736 C 148.99433,795.32151 151.13795,794.32667 148.72875,794.32667 C 146.22886,794.32667 146.58869,796.42736 144.52738,796.42736 C 142.42669,796.42736 141.38666,798.19513 139.28597,798.19513 C 141.80113,788.52125 153.8481,782.0192 162.3701,775.6296 C 172.0449,769.09257 174.57235,753.40361 174.30818,753.13944" style="fill:brown;fill-rule:evenodd;stroke:black;stroke-width:1px;stroke-linecap:butt;stroke-linejoin:miter;stroke-opacity:0;fill-opacity:1;opacity:1" inkscape:label="#pathHautAlem"/>
  <path style="fill:red;fill-rule:evenodd;stroke:black;stroke-width:1px;stroke-linecap:butt;stroke-linejoin:miter;stroke-opacity:0;fill-opacity:1;opacity:1" d="M 201.31565,469.33422 C 236.31565,458.17249 273.20627,440.7134 272.72149,442.65252 C 272.17113,444.85393 272.12732,447.95913 272.12732,450.97082 C 272.12732,452.30729 270.67702,456.77201 270.34483,458.1008 C 269.55999,461.24014 269.00458,462.48445 266.77985,463.59682 C 264.35758,464.80795 264.4061,466.34337 262.62069,468.20159 C 262.51243,468.31427 261.48237,475.72569 261.43236,475.92573 C 261.233,476.72317 257.88783,480.20859 257.34529,480.75113 C 255.14681,482.9496 254.83172,481.73539 253.11406,485.43236 C 252.07427,487.67032 251.08545,490.05745 251.08545,493.1565 C 251.08545,494.93899 251.92573,496.72148 251.92573,498.50398 C 251.92573,501.31887 247.26096,502.30895 246.57825,505.03979 C 246.29674,506.16584 245.19081,508.25124 244.63666,508.52831 C 245.56485,506.62671 245.33149,508.93741 245.78057,510.73371 C 246.19674,512.39841 245.55364,514.78683 245.06335,517.28189 C 243.66767,518.67757 243.82842,520.06829 243.67988,522.49757 C 243.53837,524.81192 244.01475,525.93774 244.52015,527.95936 C 244.85619,529.30349 244.88339,531.02161 245.36043,533.42115 C 245.73345,535.29746 245.77219,537.46089 245.83154,539.30307 C 245.84605,539.75353 245.47042,544.20424 245.4114,545.185 C 245.35072,546.19312 246.23943,548.56547 247.04098,548.96624 C 248.43372,549.66261 249.56475,550.84925 250.49965,551.78415 C 251.56033,552.84483 252.4689,553.90194 253.86075,555.29379 C 254.55269,555.98573 256.21686,556.96995 256.65317,558.06073 C 256.93327,558.76096 257.51045,559.46119 258.3847,560.30996 C 258.52474,560.87014 258.99222,562.06821 259.25046,562.58467 C 259.96778,564.01933 260.0554,564.49163 260.90553,566.19189 C 261.50819,567.39722 263.00621,568.9115 263.00621,570.39327 C 263.00621,571.91271 263.66828,575.3712 263.00621,576.69533 C 262.49551,577.71675 261.95097,579.85126 260.90553,580.89671 C 260.54091,581.26132 256.70415,584.73197 256.70415,585.93836 C 256.24672,587.76809 254.96375,588.15875 254.18332,589.7196 C 253.58283,590.92059 252.02112,592.48647 251.6625,593.92098 C 251.3197,595.29214 251.24236,597.79594 251.24236,599.80291 C 251.24236,601.90359 251.24236,604.00428 251.24236,606.10497 C 251.24236,608.70834 251.43126,609.69731 249.98194,611.14662 C 248.9316,612.19697 248.51146,613.87752 247.46112,614.92786 C 246.88448,615.5045 243.74975,617.58843 244.94029,619.96952 C 245.08034,620.24961 245.22038,620.5297 245.36043,620.80979 C 246.07776,622.24445 246.61099,623.31091 247.46112,625.01117 C 248.07801,626.24495 247.95846,627.60907 247.97882,630.05282 C 247.99548,632.05208 248.44143,633.55398 247.46112,635.51461 C 246.63861,637.15962 246.3463,637.8732 245.78057,640.13613 C 245.4083,641.6252 245.25893,643.70023 244.52015,645.17778 C 243.8516,646.51489 243.61427,648.24996 242.8396,649.79929 C 242.60561,650.26729 240.73891,653.52693 240.73891,654.00067 C 240.73891,655.91183 239.62648,660.05438 239.89864,661.14301 C 239.89864,661.56315 239.79674,661.99583 239.89864,662.40343 C 240.47328,664.702 240.54026,665.36722 241.57919,667.44508 C 242.36894,669.02459 243.06295,669.99246 244.10002,672.06659 C 244.83803,673.54262 244.90991,674.9468 245.78057,676.68811 C 246.37124,677.86946 247.97516,679.67358 247.46112,681.72976 C 246.92607,683.86995 246.4167,684.0346 244.94029,685.511 C 243.85833,686.59296 243.28296,687.58847 241.99933,688.8721 C 240.91737,689.95406 240.342,690.94957 239.05836,692.2332 C 237.34513,693.94644 237.4044,694.86038 238.21809,698.11513 C 238.59955,699.64097 239.60919,701.57884 239.89864,702.73665 C 240.42334,704.83547 239.89864,705.70199 239.89864,707.7783 C 239.89864,709.43193 244.1921,709.72997 243.21378,715.428 C 217.97634,726.44803 207.39873,731.28368 202.45845,738.07221 C 196.59884,745.70359 192.83049,761.27892 186.47869,776.9313 C 180.6936,780.25044 158.77138,791.75262 164.88848,788.92736 C 169.98873,786.57175 151.13795,794.32667 148.72875,794.32667 C 146.22886,794.32667 146.58869,796.42736 144.52738,796.42736 C 142.42669,796.42736 140.326,796.42736 138.22531,796.42736 C 135.91586,796.42736 134.99,794.32667 134.02393,794.32667 C 131.83606,794.32667 129.06378,790.96665 127.72187,790.12529 C 128.20428,788.538 130.32022,783.7457 131.50311,782.56282 C 132.53823,781.5277 129.24645,779.04575 128.98228,778.78158 C 128.172,777.9713 127.37302,775.56306 126.88159,774.5802 C 126.09063,772.99828 124.68138,772.45463 123.10035,772.05937 C 121.46021,771.64934 120.68142,770.2197 119.31911,769.53855 C 118.97208,769.36503 119.31911,764.66626 119.31911,764.07676 C 117.07667,762.95554 115.4345,760.80894 115.0127,759.14013 C 114.54425,757.28674 113.08571,757.76 112.38684,755.88407 C 111.79688,754.30047 111.61252,752.44481 110.91636,751.05249 C 105.19443,739.79613 101.52631,733.42779 94.530987,724.58381 C 94.530987,722.74794 95.99481,721.65617 96.631676,720.38243 C 96.656303,720.33318 96.460514,716.75682 96.211538,715.76092 C 95.894587,714.49311 96.963052,713.72532 96.631676,712.39982 C 95.912469,709.52299 94.915036,708.29445 92.850437,707.7783 C 92.124074,707.59671 92.229028,703.54173 92.430299,702.73665 C 92.825896,701.15426 93.051656,701.0738 93.690712,699.79568 C 92.995958,697.51727 93.781197,695.53611 93.270574,693.49362 C 93.193379,693.18484 89.559932,690.62325 89.069197,690.13252 C 87.78556,688.84888 87.630329,687.43324 86.548371,686.35128 C 85.310251,685.11316 83.129765,685.511 81.08658,685.511 C 78.549415,685.511 77.338941,685.09926 75.62479,684.67073 C 74.415192,684.36833 72.835119,682.64568 71.84355,682.1499 C 70.2425,681.34937 68.665357,681.19101 67.222036,680.46935 C 65.597179,679.65692 64.474015,678.98174 63.440796,677.94852 C 62.103723,676.61145 60.519429,676.27287 58.819281,675.84783 C 56.03102,675.15077 55.889571,675.22325 53.777628,674.16728 C 51.882203,673.21957 51.982329,672.48673 49.156113,672.48673 C 46.942371,672.48673 46.306208,671.64646 43.694323,671.64646 C 40.64651,671.64646 40.47776,671.5154 39.492946,669.54577 C 38.812125,668.18413 37.669089,667.99874 36.97212,666.6048 C 36.255889,663.73988 34.846338,662.35324 34.031155,660.72288 C 33.089321,658.83921 32.551812,658.42098 34.031155,656.94164 C 35.314792,655.658 35.470023,654.24236 36.551982,653.1604 C 37.818159,651.89422 39.059275,651.48323 40.753359,651.05971 C 41.861151,650.78276 41.749569,648.95902 44.954736,648.95902 C 47.253713,648.95902 47.191285,647.14261 48.315838,646.01806 C 49.764049,644.56984 49.916772,643.91737 52.517215,643.91737 C 53.641288,643.91737 55.039574,642.65619 55.878317,642.23682 C 56.300439,642.23682 54.221557,636.02991 54.197766,635.93475 C 53.677713,633.85454 51.842187,633.65478 51.256802,631.31324 C 50.674384,628.98356 49.996389,628.73828 49.996389,625.85144 C 49.996389,623.78657 51.103831,622.05189 51.466871,620.59973 C 51.685139,619.72665 53.249077,617.5571 53.777628,617.02855 C 54.134677,616.6715 54.617904,616.46837 55.038042,616.18828 C 57.100654,614.12567 58.233442,611.72321 55.878317,610.72649 C 54.089359,609.96938 53.45506,608.86964 54.197766,606.10497 C 54.620845,604.53009 53.777628,602.13898 53.777628,600.22304 C 53.777628,598.32513 52.837065,596.84296 53.357491,594.76125 C 53.905775,592.56812 53.369687,590.53548 54.197766,588.87933 C 55.08968,587.0955 55.561314,586.15223 56.298455,584.67795 C 56.387028,584.5008 56.578547,584.39786 56.718592,584.25781 C 58.272253,581.15049 59.239419,582.54621 59.239419,578.37588 C 59.239419,575.73781 58.429613,574.1745 61.340107,574.1745 C 63.722507,574.1745 64.200748,572.99441 65.541485,571.65368 C 66.825122,570.37004 67.820628,569.79467 68.902586,568.71271 C 70.318076,567.29722 70.58792,566.60963 72.263688,565.77175 C 73.573293,565.11695 74.348741,563.26656 75.204652,562.41065 C 76.416644,561.19866 77.134851,560.48045 78.145616,559.46968 C 80.041636,557.57366 79.826167,556.93909 79.826167,553.58776 C 79.826167,551.46027 80.246305,550.10755 80.246305,547.70583 C 80.246305,545.29506 80.428398,543.5604 81.08658,542.24404 C 82.261386,539.89443 81.329,538.7173 84.027544,538.04266 C 86.051157,537.53676 86.835931,536.81539 88.649059,536.36211 C 96.128657,535.02239 100.81948,537.61187 105.35205,537.21509 C 109.4184,538.60722 116.53704,541.62853 123.14226,538.84642 C 126.15842,536.82759 128.81174,524.41545 131.60814,519.76292 C 133.35404,512.36675 127.34078,503.39856 127.50029,490.34223" id="pathBasAlemaniqueSud" sodipodi:nodetypes="csssssssssssssssssssssssscsssssssscsssssssssssscsssssssssscccssssscssssscssccssssscssssssssssssscssssssscssssscsssssscsssssssssssccccc"/>
  <path sodipodi:nodetypes="cscscsssssssssssssssscssssssssscssssscsssssssssssssscccccccsscssscscsssscccsssssssssscssssssssscssssscsscccsssssscssss" id="pathBasAlemaniqueNord" d="M 295.13661,106.21883 C 310.82288,115.29689 315.11737,120.09763 326.65742,126.88599 C 336.64412,132.7606 344.9018,137.37928 352.32848,141.84035 C 360.00325,145.35476 367.67287,148.68447 372.7069,151.88859 C 379.15137,155.99044 383.96823,159.31594 383.96823,161.61273 C 383.96823,165.03834 383.23607,164.9477 383.23607,168.7427 C 383.23607,172.20339 383.04553,174.47127 382.04775,176.46684 C 380.84238,178.87757 380.26525,179.64431 380.26525,183.59682 C 380.26525,184.75487 380.58345,186.06683 378.48276,189.04624 C 377.64174,190.23905 372.33899,196.20431 371.9109,196.63239 C 370.14223,198.40107 367.75345,198.45093 364.81698,198.45093 C 361.13855,198.45093 359.43723,198.48319 357.687,200.23342 C 357.24968,200.67075 356.57737,207.80017 356.49867,207.95756 C 355.22278,210.50935 354.04672,211.55859 350.66206,211.55859 C 346.53378,211.55859 345.93981,211.38645 344.02122,213.30504 C 343.12283,214.20343 343.71488,220.47205 343.42706,221.62334 C 342.72657,224.42527 342.80879,227.06722 342.23873,229.34748 C 341.7281,231.38997 338.5902,232.0583 338.07958,234.1008 C 337.70535,235.59771 336.36145,236.34871 335.70292,237.66578 C 332.10384,238.56555 331.57405,242.29795 330.9496,244.79576 C 330.29186,247.42673 328.70605,247.82831 327.97878,250.7374 C 327.60965,252.21391 324.08628,254.03574 323.22546,254.89655 C 321.40766,256.71436 320.27384,257.79059 319.66048,260.24403 C 319.25138,261.88043 315.74017,263.45223 314.313,263.80902 C 312.00814,264.38523 309.88527,268.48031 308.81698,266.77984 C 299.37518,251.75074 287.58576,250.5262 284.83886,250.65981 C 279.33886,250.92733 272.92211,253.24483 268.2122,256.94562 C 263.74785,260.45346 260.18098,266.04819 261.08554,272.48143 C 261.81951,277.70144 265.95452,287.85451 271.39722,291.41976 C 276.80075,294.95935 284.27056,297.92696 298.27056,297.08223 C 301.53885,296.88503 298.78066,302.09344 299.45889,304.80637 C 300.15177,307.57788 300.05305,309.90566 300.05305,313.12467 C 300.05305,316.76125 300.56024,318.12423 301.24138,320.84881 C 301.8885,323.43729 301.80076,326.33543 301.24138,328.57294 C 300.81624,330.27352 298.04806,332.36043 297.08223,333.32626 C 295.26689,335.1416 293.85903,335.95529 292.32891,337.48541 C 291.441,338.37332 292.32891,344.98609 292.32891,346.39788 C 292.32891,349.3687 291.28912,352.33952 291.28912,355.31034 C 291.28912,357.07524 290.13194,359.70428 289.35809,361.25199 C 288.28064,363.4069 288.19132,365.91908 287.5756,368.38196 C 287.24076,369.72132 285.3028,371.24892 284.60477,371.94695 C 284.35984,372.92668 284.20866,373.9275 284.01061,374.91777 C 283.4989,377.47632 283.41645,380.33728 283.41645,383.23607 C 283.41645,386.2069 283.71353,389.17772 284.15916,392.14854 C 284.33094,393.29378 286.09019,396.2991 286.09019,399.27851 C 286.09019,400.60734 287.09727,403.90102 287.5756,405.81432 C 288.37556,409.01418 288.76393,410.37389 288.76393,413.53846 C 288.76393,415.04189 284.74311,416.96511 284.01061,417.69761 C 282.72111,418.98712 278.43658,419.96473 277.32626,420.5199 C 275.68633,421.33986 275.24868,422.89456 274.2069,423.93634 C 273.63517,424.22221 273.31565,433.08642 273.31565,434.33422 C 273.31565,437.17249 273.20627,440.7134 272.72149,442.65252 C 272.17113,444.85393 272.12732,447.95913 272.12732,450.97082 C 266.71452,452.84711 261.21293,454.13789 253.4562,456.00239 C 246.04821,458.11684 238.43236,460.21926 233.58532,462.024 C 223.72375,464.63685 213.76357,471.73702 202.77756,476.24235 C 195.0097,479.08108 181.85714,473.51163 172.67507,479.1788 C 163.27571,483.20855 144.61377,488.6904 127.91594,498.10139 C 126.08298,490.67038 123.52889,491.00406 120.14532,487.55955 C 111.48352,483.13988 100.30451,484.10916 102.5136,483.00462 C 103.01295,482.75494 104.31215,479.40753 104.61429,478.80324 C 104.9562,478.11942 105.60063,477.48813 105.87471,477.12269 C 106.78297,475.30616 106.34312,471.46781 106.71498,469.98035 C 107.10554,468.41813 107.26093,465.69587 107.55526,464.51856 C 107.96524,462.87864 108.49518,460.33874 108.81567,459.05677 C 109.01913,458.24294 109.87779,456.72245 110.18111,456.1158 C 110.73405,453.90405 112.4942,452.43727 113.43718,451.49429 C 114.45477,450.47671 114.82547,450.38001 115.95801,449.81374 C 116.45315,449.3186 116.79829,448.69337 117.21842,448.13319 C 118.15587,446.88327 117.21052,443.94761 117.63856,443.09154 C 118.2787,441.81125 120.58038,441.41013 121.4198,440.57071 C 122.03274,439.95777 120.8511,436.12331 120.99966,435.52906 C 121.30857,434.29344 121.88134,435.08822 122.68021,434.68878 C 122.78862,434.25515 125.62118,435.21129 125.62118,431.32768 C 123.27126,422.90312 137.94873,421.20855 139.22452,412.89645 C 140.79278,406.03267 131.69276,393.00766 131.10067,385.27939 C 130.4372,376.6194 136.31402,369.06507 137.01352,363.98774 C 137.68117,359.14162 137.33316,346.31365 138.12803,342.37275 C 139.17997,337.15734 139.73534,327.88326 140.38504,322.76554 C 141.07244,317.3508 140.99343,309.35986 140.79476,303.80375 C 140.65443,299.87906 137.74885,294.58806 138.22531,292.68223 C 138.86571,290.12063 139.69608,289.74184 138.64545,287.64058 C 137.91058,286.17084 136.7915,284.77296 136.54476,284.27948 C 136.03837,283.2667 140.6315,282.31248 141.16627,282.17879 C 143.27453,281.65172 143.79482,279.93447 144.94751,278.39755 C 145.66404,277.44218 144.5056,275.9203 144.73745,274.19618 C 143.67089,272.95198 143.51489,271.25521 142.00655,271.25521 C 139.58405,271.25521 137.91835,271.10173 136.54476,270.41493 C 135.50125,269.89318 133.78818,266.81807 133.18366,266.21355 C 132.03209,265.06198 131.1315,263.19725 130.24269,262.01218 C 128.98752,260.33862 128.90632,259.22314 129.82256,257.39066 C 130.09406,256.84765 134.10988,255.87721 134.44407,255.71011 C 136.80437,254.52996 135.49703,253.59896 136.12462,251.0886 C 136.51668,249.52037 135.76177,246.65808 136.12462,245.20667 C 136.56505,243.44496 137.80158,242.47757 139.06559,241.84557 C 139.70574,241.52549 139.91212,241.28121 140.326,241.00529 C 141.29173,240.52243 140.74614,234.572 140.74614,233.44281 C 140.74614,230.74099 141.55347,230.21349 142.00655,228.40116 C 142.22958,227.50906 144.83018,225.99766 145.36765,225.4602 C 146.81826,224.00958 147.46834,224.40392 147.46834,221.25882 C 147.46834,220.01724 144.82921,218.67884 144.10724,218.31785 C 143.35002,217.93924 142.68984,217.7509 142.00655,217.47758 C 140.44434,216.69648 140.27915,212.38908 139.48572,211.59565 C 138.042,210.15193 137.40761,209.96025 136.54476,208.23455 C 135.43443,206.01389 134.38623,206.61184 133.18366,207.81441 C 139.66586,197.2426 141.07388,184.74409 145.97187,178.90124 C 150.26165,175.44478 161.94745,164.94955 168.65646,163.15453 C 171.78982,160.10346 182.06292,153.5991 185.41611,151.35279 C 190.46562,147.97011 205.36513,142.35043 207.1279,143.1132 C 209.18811,144.00468 208.9884,144.95883 211.32927,144.37362 C 211.33451,144.37231 213.62974,140.61295 213.8501,140.17224 C 214.54966,138.77312 216.06145,138.27036 216.79106,136.81114 C 217.52857,135.33613 218.99193,134.93022 219.73203,133.45003 C 220.21066,132.49278 220.15217,131.67301 220.15217,130.50907 C 220.51736,129.77868 220.99244,129.10861 221.41258,128.40838 C 222.28346,126.95692 221.55983,123.9125 222.25285,122.52645 C 223.27873,120.47471 224.39738,121.35372 223.09313,118.74521 C 222.24823,117.05542 259.74414,100.42236 271.17644,101.05778" style="fill:#ff6347;fill-rule:evenodd;stroke:black;stroke-width:1px;stroke-linecap:butt;stroke-linejoin:miter;stroke-opacity:0;fill-opacity:1;opacity:1"/>
<!-- frontieres partielles -->  <path style="fill:none;fill-rule:evenodd;stroke:black;stroke-width:5px;stroke-linecap:butt;stroke-linejoin:miter;stroke-opacity:1" d="M 235.21704,88.320434 C 236.65229,88.679247 239.18617,88.993614 240.63661,89.718832 C 242.25211,90.526582 244.94439,91.72409 247.76658,90.312996 C 249.31428,89.539144 251.94332,87.342174 253.70822,87.342174 C 256.50773,87.342174 260.1086,86.977375 262.02653,87.936339 C 263.04416,88.445154 266.73948,91.808498 267.96817,91.501325 C 268.20184,91.442909 272.53355,91.877202 273.31565,90.312996 C 273.54987,89.844559 275.4592,84.635672 275.69231,83.777187 C 276.09008,82.312296 279.43877,81.354828 281.35489,81.472614 C 283.61901,81.611793 284.5769,81.980758 286.98143,83.183023 C 289.01034,84.197478 289.77584,85.842828 292.18037,87.045092 C 293.3511,87.630461 297.64608,89.481551 298.96975,90.805219 C 299.34335,91.178815 302.6308,94.271061 304.80637,92.09549 C 305.74719,91.154664 307.59283,88.028518 308.96552,87.342174 C 311.92921,85.860327 311.48983,86.547605 313.9979,89.055675 C 316.48756,91.545341 317.30769,90.607465 318.92524,88.005331 C 319.96736,86.328893 320.79064,83.50919 322.6313,82.588859 C 323.73828,82.035368 327.20839,81.048077 328.57294,83.777187 C 329.59852,85.82834 330.31638,87.303115 332.13793,89.124668 C 332.30671,89.293451 336.66037,93.514694 337.48541,92.689654 C 337.59681,92.578257 340.73299,89.342397 342.23873,89.718832 C 344.68021,90.329203 346.6444,91.03042 348.77454,92.09549 C 350.61683,93.016636 351.97773,94.588335 354.12202,95.660477 C 356.16165,96.680295 357.84125,97.520094 360.06366,98.631299 C 362.12011,99.659521 362.99243,100.9659 364.81698,102.79045 C 366.26514,104.23861 367.86742,105.78118 370.16446,106.35544 C 371.85296,106.77756 375.61504,107.71808 377.29443,108.13793 C 379.72649,108.74594 380.86045,110.51485 383.23607,111.10875 C 385.46932,111.66706 388.51843,111.70292 391.55438,111.70292 C 394.44628,111.70292 397.66633,110.86966 399.87268,112.29708 C 401.46028,113.32419 404.45999,112.95732 405.81432,112.89125 C 409.66642,112.70334 410.15497,116.89438 411.36131,114.84776 C 409.76632,112.525 409.56746,116.5225 408.77459,117.14797 C 406.77682,118.72391 406.14375,118.71353 404.58995,120.26733 C 402.56521,122.29208 402.26624,121.76991 401.06101,124.18037 C 399.74348,126.81543 398.37146,127.36358 397.49602,129.52785 C 396.35451,132.34991 395.95964,133.78582 395.11936,136.06366 C 394.47758,137.8034 392.67161,139.91304 392.14854,142.0053 C 391.51637,144.53399 390.10684,146.08871 389.17772,147.94695 C 387.85249,150.5974 387.28741,151.72757 386.2069,153.88859 C 385.16085,155.98068 383.96823,159.31594 383.96823,161.61273 C 383.96823,165.03834 383.23607,164.9477 383.23607,168.7427 C 383.23607,172.20339 383.04553,174.47127 382.04775,176.46684 C 380.84238,178.87757 380.26525,179.64431 380.26525,183.59682 C 380.26525,184.75487 380.58345,186.06683 378.48276,189.04624 C 377.64174,190.23905 372.33899,196.20431 371.9109,196.63239 C 370.14223,198.40107 367.75345,198.45093 364.81698,198.45093 C 361.13855,198.45093 359.43723,198.48319 357.687,200.23342 C 357.24968,200.67075 356.57737,207.80017 356.49867,207.95756 C 355.22278,210.50935 354.04672,211.55859 350.66206,211.55859 C 346.53378,211.55859 345.93981,211.38645 344.02122,213.30504 C 343.12283,214.20343 343.71488,220.47205 343.42706,221.62334 C 342.72657,224.42527 342.80879,227.06722 342.23873,229.34748 C 341.7281,231.38997 338.5902,232.0583 338.07958,234.1008 C 337.70535,235.59771 336.36145,236.34871 335.70292,237.66578 C 332.10384,238.56555 331.57405,242.29795 330.9496,244.79576 C 330.29186,247.42673 328.70605,247.82831 327.97878,250.7374 C 327.60965,252.21391 324.08628,254.03574 323.22546,254.89655 C 321.40766,256.71436 320.27384,257.79059 319.66048,260.24403 C 319.25138,261.88043 315.74017,263.45223 314.313,263.80902 C 312.00814,264.38523 310.61316,265.88174 308.81698,266.77984 C 306.87518,267.75074 306.58886,271.15966 306.58886,273.90981 C 306.58886,278.17733 306.1829,278.47493 304.2122,280.44562 C 302.72878,281.92905 302.56216,285.52819 301.83554,286.98143 C 301.6785,287.29553 300.7383,288.07868 300.64722,288.16976 C 298.92116,291.62188 298.27056,292.17696 298.27056,297.08223 C 298.27056,300.35646 298.78066,302.09344 299.45889,304.80637 C 300.15177,307.57788 300.05305,309.90566 300.05305,313.12467 C 300.05305,316.76125 300.56024,318.12423 301.24138,320.84881 C 301.8885,323.43729 301.80076,326.33543 301.24138,328.57294 C 300.81624,330.27352 298.04806,332.36043 297.08223,333.32626 C 295.26689,335.1416 293.85903,335.95529 292.32891,337.48541 C 291.441,338.37332 292.32891,344.98609 292.32891,346.39788 C 292.32891,349.3687 291.28912,352.33952 291.28912,355.31034 C 291.28912,357.07524 290.13194,359.70428 289.35809,361.25199 C 288.28064,363.4069 288.19132,365.91908 287.5756,368.38196 C 287.24076,369.72132 285.3028,371.24892 284.60477,371.94695 C 284.35984,372.92668 284.20866,373.9275 284.01061,374.91777 C 283.4989,377.47632 283.41645,380.33728 283.41645,383.23607 C 283.41645,386.2069 283.71353,389.17772 284.15916,392.14854 C 284.33094,393.29378 286.09019,396.2991 286.09019,399.27851 C 286.09019,400.60734 287.09727,403.90102 287.5756,405.81432 C 288.37556,409.01418 288.76393,410.37389 288.76393,413.53846 C 288.76393,415.04189 284.74311,416.96511 284.01061,417.69761 C 282.72111,418.98712 278.43658,419.96473 277.32626,420.5199 C 275.68633,421.33986 275.24868,422.89456 274.2069,423.93634 C 273.63517,424.22221 273.31565,433.08642 273.31565,434.33422 C 273.31565,437.17249 273.20627,440.7134 272.72149,442.65252 C 272.17113,444.85393 272.12732,447.95913 272.12732,450.97082 C 272.12732,452.30729 270.67702,456.77201 270.34483,458.1008 C 269.55999,461.24014 269.00458,462.48445 266.77985,463.59682 C 264.35758,464.80795 264.4061,466.34337 262.62069,468.20159 C 262.51243,468.31427 261.48237,475.72569 261.43236,475.92573 C 261.233,476.72317 257.88783,480.20859 257.34529,480.75113 C 255.14681,482.9496 254.83172,481.73539 253.11406,485.43236 C 252.07427,487.67032 251.08545,490.05745 251.08545,493.1565 C 251.08545,494.93899 251.92573,496.72148 251.92573,498.50398 C 251.92573,501.31887 247.26096,502.30895 246.57825,505.03979 C 246.29674,506.16584 245.19081,508.25124 244.63666,508.52831" id="pathFrontiere67_D" sodipodi:nodetypes="csssssssssssssssssssssssssssssscsssssssssssssssssssssscssssssssscssssssssssscsssssssscssssssssssssc"/>
  <path style="fill:none;fill-rule:evenodd;stroke:black;stroke-width:5px;stroke-linecap:butt;stroke-linejoin:miter;stroke-opacity:1" d="M 244.96577,505.7281 C 245.56485,506.62671 245.33149,508.93741 245.78057,510.73371 C 246.19674,512.39841 245.55364,514.78683 245.06335,517.28189 C 243.66767,518.67757 243.82842,520.06829 243.67988,522.49757 C 243.53837,524.81192 244.01475,525.93774 244.52015,527.95936 C 244.85619,529.30349 244.88339,531.02161 245.36043,533.42115 C 245.73345,535.29746 245.77219,537.46089 245.83154,539.30307 C 245.84605,539.75353 245.47042,544.20424 245.4114,545.185 C 245.35072,546.19312 246.23943,548.56547 247.04098,548.96624 C 248.43372,549.66261 249.56475,550.84925 250.49965,551.78415 C 251.56033,552.84483 252.4689,553.90194 253.86075,555.29379 C 254.55269,555.98573 256.21686,556.96995 256.65317,558.06073 C 256.93327,558.76096 257.51045,559.46119 258.3847,560.30996 C 258.52474,560.87014 258.99222,562.06821 259.25046,562.58467 C 259.96778,564.01933 260.0554,564.49163 260.90553,566.19189 C 261.50819,567.39722 263.00621,568.9115 263.00621,570.39327 C 263.00621,571.91271 263.66828,575.3712 263.00621,576.69533 C 262.49551,577.71675 261.95097,579.85126 260.90553,580.89671 C 260.54091,581.26132 256.70415,584.73197 256.70415,585.93836 C 256.24672,587.76809 254.96375,588.15875 254.18332,589.7196 C 253.58283,590.92059 252.02112,592.48647 251.6625,593.92098 C 251.3197,595.29214 251.24236,597.79594 251.24236,599.80291 C 251.24236,601.90359 251.24236,604.00428 251.24236,606.10497 C 251.24236,608.70834 251.43126,609.69731 249.98194,611.14662 C 248.9316,612.19697 248.51146,613.87752 247.46112,614.92786 C 246.88448,615.5045 243.74975,617.58843 244.94029,619.96952 C 245.08034,620.24961 245.22038,620.5297 245.36043,620.80979 C 246.07776,622.24445 246.61099,623.31091 247.46112,625.01117 C 248.07801,626.24495 247.95846,627.60907 247.97882,630.05282 C 247.99548,632.05208 248.44143,633.55398 247.46112,635.51461 C 246.63861,637.15962 246.3463,637.8732 245.78057,640.13613 C 245.4083,641.6252 245.25893,643.70023 244.52015,645.17778 C 243.8516,646.51489 243.61427,648.24996 242.8396,649.79929 C 242.60561,650.26729 240.73891,653.52693 240.73891,654.00067 C 240.73891,655.91183 239.62648,660.05438 239.89864,661.14301 C 239.89864,661.56315 239.79674,661.99583 239.89864,662.40343 C 240.47328,664.702 240.54026,665.36722 241.57919,667.44508 C 242.36894,669.02459 243.06295,669.99246 244.10002,672.06659 C 244.83803,673.54262 244.90991,674.9468 245.78057,676.68811 C 246.37124,677.86946 247.97516,679.67358 247.46112,681.72976 C 246.92607,683.86995 246.4167,684.0346 244.94029,685.511 C 243.85833,686.59296 243.28296,687.58847 241.99933,688.8721 C 240.91737,689.95406 240.342,690.94957 239.05836,692.2332 C 237.34513,693.94644 237.4044,694.86038 238.21809,698.11513 C 238.59955,699.64097 239.60919,701.57884 239.89864,702.73665 C 240.42334,704.83547 239.89864,705.70199 239.89864,707.7783 C 239.89864,709.43193 239.24235,712.91195 240.73891,713.66023 C 242.19895,714.39024 243.24117,715.33149 244.94029,716.18105 C 246.09843,716.76012 247.54341,718.72246 249.14167,719.12202 C 251.32232,719.66718 251.62616,720.34609 253.34305,722.06298 C 254.48771,723.20765 254.4633,724.86379 255.86387,726.26436 C 257.00853,727.40902 256.98413,729.06517 258.3847,730.46574 C 259.43504,731.51608 260.27532,732.7765 261.32566,733.82684 C 262.225,734.72618 263.84649,735.91088 263.84649,737.60808 C 263.84649,739.70877 263.84649,741.80946 263.84649,743.91014 C 263.84649,746.15088 263.34658,748.20499 263.84649,751.37506" id="pathFrontiere68_D" sodipodi:nodetypes="csssssssssssssssssssscssssssssssssssscssssscssssssssscsc"/>
  <path style="fill:none;fill-rule:evenodd;stroke:black;stroke-width:5px;stroke-linecap:butt;stroke-linejoin:miter;stroke-opacity:1" d="M 263.60475,751.46825 C 261.58686,751.97272 259.86625,754.17572 258.04102,754.90581 C 257.34079,755.1859 255.30369,756.65432 254.60346,756.93441 C 253.91391,757.62396 252.32859,759.44089 251.24236,759.87538 C 250.54213,760.15547 249.89584,760.71565 249.14167,760.71565 C 248.23709,761.16794 246.71004,762.81634 245.36043,762.81634 C 243.3824,762.81634 241.50329,762.96815 240.73891,764.49689 C 240.19558,765.58355 239.50818,767.82832 238.63823,768.69827 C 237.46228,769.87422 236.42227,770.3379 236.95768,772.47951 C 237.33113,773.97334 237.78153,775.19398 238.63822,776.68089 C 239.16649,777.59777 239.56319,779.43543 240.94898,780.46213 C 242.12594,781.3341 244.04511,784.35317 242.8396,786.76419 C 242.51147,787.09233 241.45239,787.85807 241.15905,788.44474 C 240.85482,789.0532 238.8092,790.95217 238.34115,791.18619 C 236.77192,791.97081 236.73127,794.32667 234.43685,794.32667 C 232.22786,794.32667 230.25956,794.33269 228.55492,793.90653 C 227.01973,793.52274 226.17453,791.94628 225.19382,790.96557 C 225.04851,790.82026 221.72547,786.87144 220.5723,788.02461 C 219.69198,788.24469 218.42053,788.49583 217.63134,789.28502 C 217.48691,789.42945 215.1008,792.85133 215.74072,793.17129 C 216.83818,793.72002 217.70753,795.16695 219.31189,795.16695 C 221.15658,795.16695 223.19026,795.26407 224.35354,796.42736 C 225.39395,797.46776 226.45423,798.55461 226.45423,800.62874 C 226.45423,803.30913 225.94185,803.40576 223.93341,804.40998 C 223.35838,804.69749 220.2099,805.71421 219.73203,806.51067 C 219.31189,807.21089 218.66967,807.81913 218.47162,808.61135 C 218.21925,809.24228 217.95746,809.40756 217.63134,810.71204 C 217.02774,813.12645 216.80445,812.90437 215.32058,814.38825 C 214.22254,815.48629 213.17443,816.56419 211.43431,817.43424 C 210.02323,818.13978 208.7347,818.69466 206.28762,818.69466 C 203.90684,818.69466 201.52606,818.69466 199.14528,818.69466 C 198.19378,818.50436 197.84297,818.27452 197.04459,818.27452 C 194.15637,818.27452 193.59693,816.59397 190.32239,816.59397 C 189.33706,816.8403 188.47355,817.22418 186.75122,817.22418 C 184.65053,817.22418 182.75991,818.27452 180.65922,818.27452 C 177.61026,818.27452 176.90658,818.66606 174.77729,820.79535 C 174.00704,821.5656 173.86699,822.96606 173.09674,823.73631 C 171.70981,825.12325 171.4753,825.41686 168.47523,825.41686 C 166.30775,825.41686 164.9634,825.04005 164.27385,823.31617 C 163.99376,822.61595 163.43357,821.96966 163.43357,821.21549 C 163.29353,821.07544 163.3592,819.46913 163.22351,819.32487 C 161.75303,817.76147 162.77107,817.43425 160.07247,817.43425 C 157.44207,817.43425 156.91046,817.65529 155.45096,819.1148 C 154.89077,819.67498 154.33059,820.23517 153.77041,820.79535 C 153.38489,820.89173 151.41167,821.71667 150.4093,821.21549 C 149.00216,820.51192 148.26709,819.51417 146.62806,818.69466 C 146.11609,818.43867 141.16195,817.02277 142.00655,815.33356 C 142.00655,814.12267 141.48082,811.34336 142.00655,810.2919 C 142.75341,808.79819 143.38932,807.88533 144.10724,806.09053 C 144.38733,805.3903 143.82714,804.1649 144.10723,803.46467 C 144.39326,802.32058 146.02912,801.76412 146.20793,801.04887 C 146.60011,799.48016 146.89171,797.42413 147.88848,796.42736 C 148.99433,795.32151 151.13795,794.32667 148.72875,794.32667 C 146.22886,794.32667 146.58869,796.42736 144.52738,796.42736 C 142.42669,796.42736 140.326,796.42736 138.22531,796.42736 C 135.91586,796.42736 134.99,794.32667 134.02393,794.32667 C 131.83606,794.32667 129.06378,790.96665 127.72187,790.12529" id="pathFrontiere68_CH" sodipodi:nodetypes="csssssscsscsscssscsssssscscsssscssssssscssssscsssssscscsc"/>
  <path style="fill:none;fill-rule:evenodd;stroke:black;stroke-width:2px;stroke-linecap:butt;stroke-linejoin:miter;stroke-opacity:1" d="M 128.14201,790.1253 C 128.20428,788.538 130.32022,783.7457 131.50311,782.56282 C 132.53823,781.5277 129.24645,779.04575 128.98228,778.78158 C 128.172,777.9713 127.37302,775.56306 126.88159,774.5802 C 126.09063,772.99828 124.68138,772.45463 123.10035,772.05937 C 121.46021,771.64934 120.68142,770.2197 119.31911,769.53855 C 118.97208,769.36503 119.31911,764.66626 119.31911,764.07676 C 117.07667,762.95554 115.4345,760.80894 115.0127,759.14013 C 114.54425,757.28674 113.08571,757.76 112.38684,755.88407 C 111.79688,754.30047 111.61252,752.44481 110.91636,751.05249 C 110.4185,750.05677 106.10082,750.63235 105.03443,750.63235 C 102.57913,750.63235 101.15981,750.18886 99.57264,749.79207 C 97.15047,749.18653 95.352538,752.89805 94.530987,753.99345 C 93.026062,756.00002 90.417158,752.06786 90.32961,751.89276 C 89.602629,750.4388 89.005907,748.69864 88.649059,747.27125 C 88.168908,745.35064 87.38503,744.31582 86.968508,742.64973 C 86.588916,741.13136 86.548371,740.16128 86.548371,739.28863 C 87.108555,738.72845 87.668738,738.16826 88.228922,737.60808 C 90.142595,735.6944 88.760087,736.9539 89.699404,733.19663 C 90.120482,731.51231 92.010161,730.87118 92.010161,728.36505 C 92.010161,728.08743 94.530987,727.15137 94.530987,724.58381 C 94.530987,722.74794 95.99481,721.65617 96.631676,720.38243 C 96.656303,720.33318 96.460514,716.75682 96.211538,715.76092 C 95.894587,714.49311 96.963052,713.72532 96.631676,712.39982 C 95.912469,709.52299 94.915036,708.29445 92.850437,707.7783 C 92.124074,707.59671 92.229028,703.54173 92.430299,702.73665 C 92.825896,701.15426 93.051656,701.0738 93.690712,699.79568 C 92.995958,697.51727 93.781197,695.53611 93.270574,693.49362 C 93.193379,693.18484 89.559932,690.62325 89.069197,690.13252 C 87.78556,688.84888 87.630329,687.43324 86.548371,686.35128 C 85.310251,685.11316 83.129765,685.511 81.08658,685.511 C 78.549415,685.511 77.338941,685.09926 75.62479,684.67073 C 74.415192,684.36833 72.835119,682.64568 71.84355,682.1499 C 70.2425,681.34937 68.665357,681.19101 67.222036,680.46935 C 65.597179,679.65692 64.474015,678.98174 63.440796,677.94852 C 62.103723,676.61145 60.519429,676.27287 58.819281,675.84783 C 56.03102,675.15077 55.889571,675.22325 53.777628,674.16728 C 51.882203,673.21957 51.982329,672.48673 49.156113,672.48673 C 46.942371,672.48673 46.306208,671.64646 43.694323,671.64646 C 40.64651,671.64646 40.47776,671.5154 39.492946,669.54577 C 38.812125,668.18413 37.669089,667.99874 36.97212,666.6048 C 36.255889,663.73988 34.846338,662.35324 34.031155,660.72288 C 33.089321,658.83921 32.551812,658.42098 34.031155,656.94164 C 35.314792,655.658 35.470023,654.24236 36.551982,653.1604 C 37.818159,651.89422 39.059275,651.48323 40.753359,651.05971 C 41.861151,650.78276 41.749569,648.95902 44.954736,648.95902 C 47.253713,648.95902 47.191285,647.14261 48.315838,646.01806 C 49.764049,644.56984 49.916772,643.91737 52.517215,643.91737 C 53.641288,643.91737 55.039574,642.65619 55.878317,642.23682 C 56.300439,642.23682 54.221557,636.02991 54.197766,635.93475 C 53.677713,633.85454 51.842187,633.65478 51.256802,631.31324 C 50.674384,628.98356 49.996389,628.73828 49.996389,625.85144 C 49.996389,623.78657 51.103831,622.05189 51.466871,620.59973 C 51.685139,619.72665 53.249077,617.5571 53.777628,617.02855 C 54.134677,616.6715 54.617904,616.46837 55.038042,616.18828 C 57.100654,614.12567 58.233442,611.72321 55.878317,610.72649 C 54.089359,609.96938 53.45506,608.86964 54.197766,606.10497 C 54.620845,604.53009 53.777628,602.13898 53.777628,600.22304 C 53.777628,598.32513 52.837065,596.84296 53.357491,594.76125 C 53.905775,592.56812 53.369687,590.53548 54.197766,588.87933 C 55.08968,587.0955 55.561314,586.15223 56.298455,584.67795 C 56.387028,584.5008 56.578547,584.39786 56.718592,584.25781 C 58.272253,581.15049 59.239419,582.54621 59.239419,578.37588 C 59.239419,575.73781 58.429613,574.1745 61.340107,574.1745 C 63.722507,574.1745 64.200748,572.99441 65.541485,571.65368 C 66.825122,570.37004 67.820628,569.79467 68.902586,568.71271 C 70.318076,567.29722 70.58792,566.60963 72.263688,565.77175 C 73.573293,565.11695 74.348741,563.26656 75.204652,562.41065 C 76.416644,561.19866 77.134851,560.48045 78.145616,559.46968 C 80.041636,557.57366 79.826167,556.93909 79.826167,553.58776 C 79.826167,551.46027 80.246305,550.10755 80.246305,547.70583 C 80.246305,545.29506 80.428398,543.5604 81.08658,542.24404 C 82.261386,539.89443 81.329,538.7173 84.027544,538.04266 C 86.051157,537.53676 86.835931,536.81539 88.649059,536.36211 C 90.268921,535.95714 90.45887,532.48397 90.749748,531.32046 C 91.169715,529.64059 91.617027,527.4312 92.010161,525.85867 C 92.352063,524.49106 92.693612,523.65149 93.270574,522.49757 C 93.549473,521.38198 96.054115,518.03347 96.631676,517.45591 C 98.097752,515.98984 97.161432,514.20443 96.211538,513.25454 C 95.161194,512.20419 92.640368,512.62433 91.590023,511.57398 C 90.743547,510.72751 90.139096,510.54319 89.489335,509.89343 C 88.602497,509.00659 89.740791,503.42582 89.909473,502.75109 C 90.239785,501.42984 91.500541,499.56895 92.010161,498.54972 C 93.093734,496.38257 92.630113,495.82907 94.11085,494.34834 C 95.273648,493.18554 95.449882,493.19359 95.791401,491.82751 C 97.865835,489.75308 98.574441,488.62433 99.992778,487.206 C 101.58403,485.61475 100.30451,484.10916 102.5136,483.00462 C 103.01295,482.75494 104.31215,479.40753 104.61429,478.80324 C 104.9562,478.11942 105.60063,477.48813 105.87471,477.12269 C 106.78297,475.30616 106.34312,471.46781 106.71498,469.98035 C 107.10554,468.41813 107.26093,465.69587 107.55526,464.51856 C 107.96524,462.87864 108.49518,460.33874 108.81567,459.05677 C 109.01913,458.24294 109.87779,456.72245 110.18111,456.1158 C 110.73405,453.90405 112.4942,452.43727 113.43718,451.49429 C 114.45477,450.47671 114.82547,450.38001 115.95801,449.81374 C 116.45315,449.3186 116.79829,448.69337 117.21842,448.13319 C 118.15587,446.88327 117.21052,443.94761 117.63856,443.09154 C 118.2787,441.81125 120.58038,441.41013 121.4198,440.57071 C 122.03274,439.95777 120.8511,436.12331 120.99966,435.52906 C 121.30857,434.29344 121.88134,435.08822 122.68021,434.68878 C 122.78862,434.25515 125.62118,435.21129 125.62118,431.32768 C 125.62118,431.12962 126.74155,429.78718 126.8816,429.64713" id="pathLimite68_F" sodipodi:nodetypes="cssssscssssssssscssssssssscssssssssssssscssssssscssssscsssssscsssssssssssssscssssssscssscssscscsssscsc"/>
  <path style="fill:none;fill-rule:evenodd;stroke:black;stroke-width:2px;stroke-linecap:butt;stroke-linejoin:miter;stroke-opacity:1" d="M 126.67153,429.64713 C 124.94946,428.87923 121.769,425.30386 120.7896,423.34506 C 119.83093,421.42773 119.20088,419.26191 120.57953,417.88327 C 121.57474,416.88806 117.63701,416.83371 116.37815,417.46313 C 115.0972,418.10361 115.11726,419.98444 114.27746,420.82424 C 112.88404,422.21766 112.5849,421.47848 111.12643,422.08465 C 108.55718,423.18341 107.3832,422.08465 105.87471,422.08465 C 103.25978,422.08465 102.27044,421.70876 100.41292,421.24437 C 99.636851,421.05036 98.324685,418.31587 97.471952,417.46313 C 96.040324,416.03151 95.735877,415.4536 93.690712,414.94231 C 92.00743,414.52149 89.993456,415.12085 88.43899,414.73224 C 86.848737,414.33467 89.59654,410.52652 90.32961,409.06038 C 90.840309,408.03898 92.57676,406.39309 93.270574,405.69928 C 94.662428,404.30742 95.150861,402.97872 96.211538,401.91804 C 98.530842,399.59874 96.22933,397.31432 95.371263,396.45625 C 93.963804,395.04879 93.020994,395.53695 92.010161,393.51528 C 91.123308,391.74158 91.658551,389.59699 92.430299,388.05349 C 93.092366,386.72936 92.430299,383.27087 92.430299,381.75143 C 92.430299,380.63106 92.430299,379.51069 92.430299,378.39033 C 92.430299,375.41789 93.929,375.84982 94.480016,373.64575 C 94.875452,372.06401 93.694388,370.84255 93.270574,369.1473 C 93.160069,368.70527 94.440762,366.1471 94.530987,365.78619 C 94.371282,365.14737 97.313881,360.06234 97.471952,359.90427 C 98.868219,358.508 97.44626,355.65151 97.051814,354.86261 C 96.563462,353.88591 94.170898,353.09204 92.850437,352.76193 C 90.786902,352.24604 90.319245,351.48078 89.489335,349.82096 C 89.046341,348.93497 88.848616,347.25809 88.649059,346.45986 C 87.645017,344.45178 93.126156,346.88 95.371263,346.88 C 98.3438,346.88 98.616149,346.57608 99.992778,345.19945 C 101.60002,343.59221 98.576399,340.8421 98.312227,340.57793 C 97.684377,339.95008 93.008445,340.57793 92.010161,340.57793 C 89.863422,340.57793 87.707376,340.55258 86.128233,340.15779 C 84.197812,339.67519 83.371116,338.66109 82.346994,337.63697 C 81.064001,336.35398 83.808531,333.45348 84.027544,333.01545 C 84.479179,332.11218 85.893857,333.44467 87.178578,334.27586 C 89.152235,333.66854 90.630869,333.97461 92.010161,332.59531 C 93.060505,331.54497 95.581332,331.96511 96.631676,330.91476 C 97.684352,329.86209 98.504069,333.85573 99.992778,333.85573 C 100.81172,333.85573 102.52454,333.77927 104.58881,333.77927 C 106.50594,333.77927 105.76323,332.35738 108.39553,333.01545 C 108.54067,333.05174 110.95062,332.22089 111.11587,332.34484 C 112.13685,332.60009 114.17289,331.88743 115.36385,331.01233 C 116.67683,330.04757 117.3926,327.04134 117.63856,326.71339 C 118.9996,324.89868 118.43073,324.42668 120.57953,323.35228 C 121.53412,322.87499 123.2545,322.43493 123.94063,322.09187 C 124.67102,321.72668 125.34109,321.2516 126.04132,320.83146 C 126.96987,320.27433 128.07981,318.5518 129.40242,317.89049 C 130.40059,317.39141 130.63278,315.97886 131.60067,314.52939 C 131.98136,313.9593 132.63757,309.99155 132.76352,309.48774 C 133.06755,308.27162 134.77912,306.99628 135.62803,306.37275 C 136.93095,305.41572 137.6993,303.39406 137.38504,302.76554 C 136.56183,301.11914 136.54476,299.6531 136.54476,297.30375 C 136.54476,295.44883 137.74885,294.58806 138.22531,292.68223 C 138.86571,290.12063 139.69608,289.74184 138.64545,287.64058 C 137.91058,286.17084 136.7915,284.77296 136.54476,284.27948 C 136.03837,283.2667 140.6315,282.31248 141.16627,282.17879 C 143.27453,281.65172 143.79482,279.93447 144.94751,278.39755 C 145.66404,277.44218 144.5056,275.9203 144.73745,274.19618 C 143.67089,272.95198 143.51489,271.25521 142.00655,271.25521 C 139.58405,271.25521 137.91835,271.10173 136.54476,270.41493 C 135.50125,269.89318 133.78818,266.81807 133.18366,266.21355 C 132.03209,265.06198 131.1315,263.19725 130.24269,262.01218 C 128.98752,260.33862 128.90632,259.22314 129.82256,257.39066 C 130.09406,256.84765 134.10988,255.87721 134.44407,255.71011 C 136.80437,254.52996 135.49703,253.59896 136.12462,251.0886 C 136.51668,249.52037 135.76177,246.65808 136.12462,245.20667 C 136.56505,243.44496 137.80158,242.47757 139.06559,241.84557 C 139.70574,241.52549 139.91212,241.28121 140.326,241.00529 C 141.29173,240.52243 140.74614,234.572 140.74614,233.44281 C 140.74614,230.74099 141.55347,230.21349 142.00655,228.40116 C 142.22958,227.50906 144.83018,225.99766 145.36765,225.4602 C 146.81826,224.00958 147.46834,224.40392 147.46834,221.25882 C 147.46834,220.01724 144.82921,218.67884 144.10724,218.31785 C 143.35002,217.93924 142.68984,217.7509 142.00655,217.47758 C 140.44434,216.69648 140.27915,212.38908 139.48572,211.59565 C 138.042,210.15193 137.40761,209.96025 136.54476,208.23455 C 135.43443,206.01389 134.38623,206.61184 133.18366,207.81441 C 132.35144,208.64663 127.73896,207.50358 127.30173,207.39427 C 125.03647,206.82796 127.36353,203.55123 127.72187,203.1929 C 129.59236,201.32241 130.65497,204.06461 131.50311,200.67207 C 131.94599,198.90052 128.88934,198.44311 127.72187,198.15124 C 125.87947,197.69064 123.21649,198.07524 121.83994,197.73111 C 119.94104,197.25638 117.83099,198.20817 116.37815,198.57138 C 114.15795,199.12643 114.646,198.75565 112.59691,197.73111 C 110.96758,196.91644 109.8514,196.24601 108.81567,195.21028 C 107.60698,194.00159 108.39553,191.72145 108.39553,189.74849 C 108.39553,187.78964 104.67413,189.26852 104.19416,189.74849 C 102.71894,191.2237 101.60069,191.42904 99.152502,191.42904 C 98.872411,191.42904 98.592319,191.42904 98.312227,191.42904 C 95.573715,191.42904 96.211538,192.01124 96.211538,195.63042 C 96.211538,197.73111 96.211538,199.83179 96.211538,201.93248 C 96.211538,203.18856 93.379864,204.03317 92.010161,204.03317 C 90.064572,204.03317 89.909473,206.23797 89.909473,208.23455 C 89.909473,210.93989 89.925691,211.99957 88.649059,213.2762 C 87.596804,214.32846 85.292943,214.11648 83.187269,214.11648 C 80.64808,214.11648 80.078304,216.13303 79.406029,217.47758 C 78.37389,219.54186 76.544746,218.39753 75.62479,217.47758 C 74.216211,216.069 73.29091,216.54481 72.683826,214.11648 C 72.531621,213.50766 75.334233,211.04593 75.62479,210.75538 C 77.068255,209.31191 78.052409,209.40175 76.044928,207.39427 C 74.828918,206.17826 72.590905,206.53077 71.003275,206.13386 C 69.200637,205.6832 68.074874,204.04573 67.222036,203.1929 C 66.08036,202.05122 67.869617,198.08174 68.062311,197.31097 C 68.531175,195.43551 69.164639,194.10795 70.163,193.10959 C 70.790849,192.48174 75.466782,193.10959 76.465065,193.10959 C 79.569185,193.10959 79.279044,192.52329 80.246305,190.58876 C 81.019831,189.04171 81.126452,187.38715 80.666443,185.54711 C 80.206415,183.707 78.727527,183.44642 76.465065,183.44642 C 74.080939,183.44642 72.937024,182.01349 72.263688,184.70684 C 71.804759,186.54255 70.123217,186.80753 68.062311,186.80753 C 66.858651,186.80753 65.692012,184.01709 65.121347,183.44642 C 64.870551,183.19563 64.438891,182.08151 64.281071,181.76587 C 62.123812,179.60861 61.337693,180.29297 59.659557,178.61484 C 58.842229,177.79751 56.232189,177.23282 55.038042,176.93429 C 53.261462,176.49014 51.569008,174.59655 49.996389,174.20339 C 47.947252,173.69111 46.554515,174.65585 44.744667,174.20339 C 42.967646,173.75914 39.979553,174.64428 38.862739,173.78325 C 38.152759,173.23588 39.913084,168.47386 39.913084,167.48119 C 39.913084,165.32475 38.964498,164.32361 38.232533,162.85968 C 37.638025,161.67066 35.364325,160.79536 34.451293,160.33885 C 33.322218,159.77431 33.403528,159.29108 32.770742,158.6583 C 31.392872,157.96937 36.092887,156.30859 37.182188,157.39789 C 38.851138,159.06684 42.085447,157.67467 42.43391,156.97775 C 43.329873,155.18582 43.863656,153.69812 44.534599,152.35623 C 45.212688,151.00005 44.954736,148.45385 44.954736,146.4743 C 44.954736,146.05417 44.954736,145.63403 44.954736,145.21389 C 44.954736,144.83646 51.318153,145.63403 51.67694,145.63403 C 53.777628,145.63403 55.878317,145.63403 57.979006,145.63403 C 58.728578,145.63403 58.399143,140.44514 58.399143,139.7521 C 58.399143,137.76828 59.047092,135.93538 59.659557,134.71045 C 60.387142,133.25528 61.097878,132.48112 60.499832,130.08893 C 60.030627,128.21211 58.869718,127.76985 58.399143,125.88756 C 58.035335,124.43232 60.247337,122.77895 60.91997,122.10632 C 61.473167,121.55312 61.73128,121.56544 62.180383,121.26604 C 64.059327,119.3871 63.440796,116.1413 63.440796,113.70356 C 63.440796,110.65449 64.149589,110.60542 65.121347,108.66191 C 65.776149,107.3523 67.626538,106.57686 68.482449,105.72094 C 69.635119,104.56827 69.742862,103.04698 69.742862,100.67929 C 69.742862,99.101143 68.448498,97.602525 68.062311,96.057777 C 67.581015,94.132593 66.659438,93.686651 67.222036,91.436262 C 67.854782,88.905278 70.474117,90.907104 71.003275,91.436262 C 72.89732,93.330308 74.637811,89.502249 74.784515,88.915436 C 75.396062,86.469244 78.234475,89.424433 78.565754,89.755712 C 80.509839,91.699797 81.983985,88.723815 82.767131,91.8564 C 83.250441,93.78964 82.335958,93.116813 79.406029,93.116813 C 78.708693,93.116813 77.974391,93.789826 77.305341,93.957089 C 77.725479,94.657318 78.145616,95.357548 78.565754,96.057777 C 79.151396,97.033846 79.254017,100.91152 79.406029,101.51957 C 79.983923,103.83114 80.533216,103.90205 82.767131,104.46053 C 84.147331,104.80558 82.864701,108.54886 82.864701,109.92232 C 82.864701,112.67856 83.572141,113.6683 84.86782,114.96397 C 85.778829,115.87498 86.156525,118.8018 86.548371,119.58549 C 86.750683,119.99011 91.873581,118.69424 92.553355,118.69424 C 94.654043,118.69424 97.051814,118.69424 99.152502,119.58549 C 101.31059,120.50109 102.63671,120.54887 103.77402,121.68618 C 105.17028,123.08244 104.83098,124.52541 106.71498,125.46742 C 108.35511,126.28748 109.03428,127.36658 110.07608,128.40838 C 111.09257,129.42487 114.08255,128.19831 115.53787,128.19831 C 117.09414,128.19831 118.32183,127.14797 120.99966,127.14797 C 123.06454,127.14797 125.42943,127.20507 126.88159,127.56811 C 128.77081,128.04041 129.922,128.40838 132.34338,128.40838 C 132.4537,128.40838 134.19068,129.96224 134.44407,130.08893 C 136.32055,130.08893 135.70448,136.08752 135.70448,137.23127 C 135.70448,139.49458 137.72001,139.36047 139.06559,140.17224 C 141.18369,141.45006 136.7557,140.18822 142.42668,142.27293 C 143.88163,142.80778 144.59356,143.73264 144.84995,144.37362 C 146.74057,144.56925 149.13735,142.80098 149.56903,142.69306 C 151.25472,142.27164 152.297,141.43738 153.37575,140.64335 C 154.78604,139.60528 157.38971,140.78493 157.55165,141.43265 C 157.85692,142.65377 161.15666,140.85068 162.83941,140.39286 C 163.97957,140.08266 166.2414,138.91468 167.18933,138.44071 C 168.54381,137.76347 169.90966,137.05725 170.99605,135.97086 C 172.39662,134.57029 173.63263,134.17456 174.77729,133.0299 C 175.57345,132.23374 177.66681,132.32413 178.9277,132.09206 C 180.33812,131.83247 181.93169,132.05889 182.59026,131.6974 C 183.98924,132.11196 183.71091,132.18962 186.12101,132.18962 C 188.02369,132.18962 189.56385,133.05033 191.16266,133.45003 C 192.68167,133.82979 192.15619,136.54425 193.26335,137.65141 C 194.38582,138.77388 196.76732,139.30725 198.15646,139.65453 C 199.2571,139.92969 200.88705,141.07373 201.66611,141.85279 C 202.75622,142.9429 205.86513,141.85043 207.1279,143.1132 C 208.71522,144.70053 208.9884,144.95883 211.32927,144.37362 C 211.33451,144.37231 213.62974,140.61295 213.8501,140.17224 C 214.54966,138.77312 216.06145,138.27036 216.79106,136.81114 C 217.52857,135.33613 218.99193,134.93022 219.73203,133.45003 C 220.21066,132.49278 220.15217,131.67301 220.15217,130.50907 C 220.51736,129.77868 220.99244,129.10861 221.41258,128.40838 C 222.28346,126.95692 221.55983,123.9125 222.25285,122.52645 C 223.27873,120.47471 224.39738,121.35372 223.09313,118.74521 C 222.24823,117.05542 224.1877,114.87553 224.77368,113.70356 C 225.60473,112.04147 226.49072,111.5299 227.29451,109.92232 C 228.08584,108.33966 227.71465,105.92029 227.71465,104.04039 C 227.71465,102.22963 229.90062,102.18928 230.65561,100.67929 C 231.65988,98.67076 232.24414,97.922364 233.17644,96.057777 C 234.15685,94.096947 234.69777,94.173817 235.27712,91.8564 C 235.38593,91.421183 235.48719,88.346849 235.48719,87.865092" id="pathLimite67_F" sodipodi:nodetypes="csssscssssssssssssssscsssscssssssscssssscsssssssssssssssscssssssssscssssscssssssssssssssssssssssssssssssssssssscsssssssscsssssssssssscssssssssssscssssssssssssssscssscsssssssscsssssssssscsssssssssc"/>
<!-- frontieres hors Alsace -->  <path style="fill:none;fill-rule:evenodd;stroke:black;stroke-width:5px;stroke-linecap:butt;stroke-linejoin:miter;stroke-opacity:1" d="M 236.44434,88.126132 C 234.49905,88.612453 232.81275,83.14642 231.91602,81.352957 C 231.26698,80.054862 229.32456,79.304324 228.13478,78.411993 C 226.80742,77.416472 225.78195,76.731442 223.51327,76.731442 C 221.09076,76.731442 219.42507,76.884921 218.05148,77.571718 C 216.46353,78.365693 214.27655,78.51545 213.00983,78.832131 C 211.34432,79.248506 209.5401,77.463094 208.80845,76.731442 C 207.52481,75.447805 206.5293,74.872437 205.44735,73.790478 C 204.397,72.740134 203.13659,71.899858 202.08624,70.849514 C 201.0359,69.79917 200.61576,68.118619 199.56542,67.068275 C 198.32415,65.827007 197.77195,64.434527 196.62445,63.287035 C 195.30264,61.965226 194.97513,60.797432 193.68349,59.505796 C 192.27634,58.098644 192.40355,56.975205 190.74253,56.144694 C 189.34272,55.44479 188.65589,54.261098 187.38142,53.623867 C 185.69621,52.78126 190.74019,51.527841 191.5828,49.842628 C 192.6377,47.732833 192.03122,47.378367 191.16266,45.641251 C 190.14632,43.608554 189.53897,44.993672 190.32239,41.860011 C 190.93777,39.398481 188.06778,39.759323 186.12101,39.759323 C 183.76153,39.759323 183.06683,40.712815 181.91963,41.860011 C 180.38545,43.394196 180.52828,42.772587 178.55853,42.280149 C 176.98817,43.850509 173.51688,41.921645 173.51688,41.019736 C 173.51688,39.356465 173.09674,37.315835 173.09674,35.137808 C 173.09674,33.152526 172.82063,34.723642 172.25647,33.877394 C 172.25647,33.701173 167.11814,35.47708 166.79468,35.557945 C 165.00944,36.004255 163.09679,36.146475 161.75302,36.818359 C 160.20652,37.591611 158.94307,38.643471 157.55165,39.339185 C 155.89723,40.166392 153.65612,40.026534 152.50999,40.599598 C 150.29623,41.706481 150.4093,42.278264 150.4093,45.221113 C 150.4093,45.501205 150.4093,45.781297 150.4093,46.061388 C 150.57879,46.551973 150.74828,47.042559 150.91777,47.533144 C 151.43396,49.027216 150.02653,50.462209 150.02653,52.28646 C 150.02653,53.087858 149.89079,52.337687 150.02653,52.880625 C 149.47859,52.548516 146.08952,53.623867 145.36765,53.623867 C 144.66742,53.763913 143.96719,53.903959 143.26696,54.044005 C 142.07798,54.281803 140.33773,55.292692 139.48572,56.144694 C 137.45812,56.550214 138.00688,60.144362 136.54476,61.606484 C 134.78613,61.958212 134.25974,64.373091 133.18366,65.807861 C 132.61745,65.921103 132.90357,66.928228 132.76352,67.488412 C 132.62347,68.048596 133.04361,66.368045 133.18366,65.807861 C 132.52859,68.428132 129.88081,67.216995 128.98228,66.648137 C 127.33234,67.996146 125.13945,64.967586 123.10035,64.967586 C 121.27919,66.160191 119.38729,63.775351 118.0587,62.44676 C 116.62707,64.07694 114.01477,63.549729 112.59691,64.967586 C 112.57611,65.050766 108.86108,64.967586 108.39553,64.967586 C 107.80369,67.334938 106.27306,66.786847 105.45457,67.488412 C 105.31452,68.048596 104.85938,68.608779 104.71933,69.168963 C 104.44045,70.284471 103.93951,68.013584 102.5136,67.488412 C 102.09803,67.335355 102.23351,66.648137 102.09347,66.227999 C 101.07392,66.227999 100.13282,65.667815 99.152502,65.387724 C 95.179356,65.387724 96.304468,64.034381 93.690712,66.648137 C 92.990482,66.648137 92.290253,66.648137 91.590023,66.648137 C 88.99277,66.648137 88.672542,65.498629 86.548371,64.967586 C 85.252957,64.967586 84.361158,62.588816 84.132578,60.871243 C 83.322604,59.820899 82.203713,59.115668 80.814984,59.679822 C 79.418627,59.994926 79.441281,65.141682 79.406029,65.282689 C 78.467214,66.858206 76.116792,67.836686 74.784515,69.168963 C 72.678521,72.112119 75.603542,74.139102 71.738516,74.945857 C 68.822783,73.238726 69.814288,70.701219 70.162999,68.328687 C 69.472951,65.042098 70.50606,64.039427 68.482449,59.925933 C 68.202357,59.785887 68.202357,59.36575 68.062311,59.085658 C 65.954672,58.031838 68.211362,56.984969 65.121347,56.984969 C 64.433719,56.641155 61.837389,56.984969 60.91997,56.984969 C 56.818864,60.056146 58.433503,55.17156 54.197766,54.464143 C 53.164838,53.947679 53.637582,52.223408 53.357491,51.103041" id="pathFrontiereD_F" sodipodi:nodetypes="csssssssssssssssssscsscssssssssssssssssssc"/>
  <path style="fill:none;fill-rule:evenodd;stroke:black;stroke-width:5px;stroke-linecap:butt;stroke-linejoin:miter;stroke-opacity:1" d="M 263.49406,751.37506 C 264.52539,751.10755 269.11267,750.45207 271.15849,749.94061 C 273.29335,749.4069 276.21296,748.86056 277.71103,748.11152 C 279.42455,747.25476 279.78883,745.21634 280.652,743.49001 C 280.77707,743.23987 281.89284,742.66278 281.91241,742.64973 C 281.94267,742.58922 286.94062,742.24304 287.3742,741.80946 C 288.65784,740.52582 289.23321,739.53031 290.31517,738.44835 C 292.1296,736.63392 293.49736,737.84931 294.51654,738.86849 C 296.43063,740.78257 293.19329,742.87551 292.41585,743.06987 C 292.02371,743.16791 291.64581,744.60995 291.57558,744.75042 C 291.71563,745.3106 291.85567,745.87079 291.99572,746.43097 C 292.26093,747.49182 294.59637,748.61149 295.35682,749.37194 C 296.85358,750.8687 292.03075,751.77897 291.57558,751.89276 C 290.35451,752.19803 288.43641,753.20272 286.95406,753.57331 C 286.20557,753.76044 283.92376,755.71867 283.17282,756.09414 C 282.44062,756.46024 282.75269,757.92959 282.75269,758.61496 C 279.44092,760.27084 283.80915,762.81634 285.27351,762.81634 C 286.41342,762.81634 287.45568,765.16784 288.63462,765.75731 C 290.29848,766.58924 290.83183,767.01772 293.67627,767.01772 C 295.33954,767.01772 297.38017,766.59758 299.5582,766.59758 C 301.95423,766.59758 302.01496,766.43371 302.49916,764.49689" id="pathFrontiereCH_D" sodipodi:nodetypes="csssssssscssssscssssc"/>
  <path style="fill:none;fill-rule:evenodd;stroke:black;stroke-width:5px;stroke-linecap:butt;stroke-linejoin:miter;stroke-opacity:1" d="M 129.45339,789.70515 C 128.56299,791.44899 126.19331,794.32667 123.10035,794.32667 C 121.09339,794.32667 118.58959,794.40402 117.21842,794.74681 C 116.0305,795.04379 114.95358,797.43179 114.27746,798.10791 C 112.51192,799.87345 111.9813,798.85045 110.49622,798.10791 C 108.45457,797.08709 109.34031,796.00722 106.29484,796.00722 C 103.69435,796.00722 102.76255,795.50149 101.25319,794.74681 C 99.7871,794.01376 98.16014,793.44837 96.631676,793.06626 C 94.521271,792.53866 94.575202,790.92136 92.430299,793.06626 C 91.045628,794.45093 90.660828,795.16695 88.228922,795.16695 C 85.915828,795.16695 84.61832,796.25672 83.607407,797.26764 C 82.624582,798.25046 82.767131,799.48906 82.767131,801.04887 C 84.573199,801.50039 84.616954,806.34748 84.86782,807.35094 C 85.033015,808.01172 89.272222,808.53851 89.489335,809.03149 C 90.537991,811.41258 90.42718,810.6509 90.42718,813.65301 C 90.42718,814.6111 88.786731,815.89849 88.228922,817.01411 C 87.179393,819.11317 85.587023,818.69466 83.187269,818.69466 C 80.637427,818.69466 80.246305,819.51466 80.246305,822.05576 C 80.246305,825.03137 80.392148,825.837 77.305341,825.837 C 75.62479,825.837 75.281109,825.53992 73.600558,825.53992 C 71.219777,825.53992 72.263688,830.59856 72.263688,832.97934 C 72.263688,835.73558 72.824126,836.72532 71.528447,838.02099 C 70.126547,839.42289 68.439229,839.28141 65.961622,839.28141 C 65.458963,839.28141 65.234841,844.59586 65.121347,845.16334 C 65.066416,845.43799 65.121347,845.72352 65.121347,846.00361 C 64.563187,848.79441 62.508152,848.99076 60.91997,849.78485 C 59.098924,850.69537 58.70243,851.58225 57.558868,852.72581 C 56.604777,853.67991 56.668362,856.28784 56.298455,857.76747 C 55.855505,859.53926 56.43672,862.5219 56.718592,863.6494 C 57.28019,865.89579 60.881581,862.42737 60.91997,862.38898 C 62.03199,861.27696 63.754379,860.63004 65.121347,860.28829 C 67.439038,859.70887 69.143159,861.12857 71.84355,861.12857 C 73.273751,861.12857 75.326795,860.25776 76.885203,859.86816 C 78.95162,859.35155 80.446522,859.503 82.346994,859.02788 C 83.844928,858.6534 85.452031,859.02788 87.808784,859.02788 C 90.423279,859.02788 90.752303,858.1825 91.590023,856.50705 C 92.073358,855.54038 93.742601,854.35448 94.951125,853.14595 C 95.967025,852.13005 95.532315,852.26541 97.051814,851.88554 C 98.512371,850.42498 102.04416,853.3437 102.93374,853.56609 C 104.77724,854.02697 103.27193,855.66678 106.71498,855.66678 C 107.45847,855.66678 106.83804,860.8282 106.83804,861.45114 C 107.71597,861.45114 110.91636,864.43454 110.91636,865.32995 C 110.91636,868.06842 110.04314,868.3368 109.23581,869.95146 C 108.43185,871.55939 106.22336,871.21187 104.19416,871.21187 C 102.09347,871.21187 100.20285,871.0018 98.102158,871.0018 C 97.405657,871.0018 96.858116,872.24585 96.631676,872.47229 C 95.931446,872.47229 94.743965,871.90994 94.530987,872.47229 C 94.160416,873.45076 94.972193,874.0477 95.371263,875.41326 C 95.79056,876.84802 97.583639,877.12041 97.892089,878.35422 C 98.426523,880.49195 97.612858,882.69392 97.051814,883.81601 C 96.19892,885.52179 95.189587,886.09837 94.11085,887.17711 C 93.800836,887.48712 89.209954,887.03688 88.649059,887.17711 C 86.812044,887.63636 87.851292,889.2778 84.447682,889.2778 C 82.012342,889.2778 80.339745,889.44115 78.985892,890.11807 C 78.24402,890.48901 78.750119,890.82539 78.565754,891.37849" id="pathFrontiereCH_F" sodipodi:nodetypes="csssssssssscsssssssssssscsssssssssssscsscsssscssssssssc"/>
<!-- separation departements 67 68 -->  <path style="fill:none;fill-rule:evenodd;stroke:black;stroke-width:1px;stroke-linecap:butt;stroke-linejoin:miter;stroke-opacity:1" d="M 244.94029,506.53233 C 243.99757,506.53233 236.65505,506.53233 234.43685,506.53233 C 232.99169,506.53233 230.0441,505.95932 228.97506,505.69206 C 227.51978,505.32824 226.54853,503.35982 226.03409,502.33095 C 225.30043,500.86362 225.94354,497.76736 225.61396,496.44903 C 224.46156,494.14424 221.5535,494.38357 219.73203,493.9282 C 217.9336,493.47859 216.63614,492.933 215.53065,491.82751 C 215.06006,491.35692 214.22127,491.56564 213.42996,491.40737 C 211.9271,489.90451 212.58969,485.82435 212.58969,483.84489 C 212.58969,481.74421 212.58969,479.64352 212.58969,477.54283 C 212.58969,476.49954 212.16955,474.92089 212.16955,473.34145 C 212.16955,472.17594 207.53167,469.96399 207.1279,469.56021 C 206.05026,468.48258 204.54403,467.45952 202.92652,467.45952 C 200.70202,467.45952 198.76711,467.47002 197.04459,467.03939 C 195.35607,466.61725 194.67162,465.3958 192.84321,464.9387 C 191.68291,464.64862 189.72515,463.08104 189.06197,462.41787 C 187.77834,461.13423 186.78283,460.55887 185.70087,459.47691 C 184.87761,458.65364 182.50494,457.87894 181.4995,457.37622 C 179.72792,456.49043 178.52965,456.66001 176.77295,456.22084 C 175.13456,455.81124 173.96908,454.44327 172.25647,454.01512 C 171.23041,453.7586 171.55084,453.83871 170.57592,453.59498 C 169.05715,453.21529 167.24209,455.69567 165.9544,455.69567 C 164.26304,455.69567 163.07032,454.072 162.17316,453.17484 C 161.86702,452.8687 161.36466,447.84013 161.33289,447.71305 C 160.91845,446.05531 158.00083,446.35487 156.71137,446.0325 C 154.85482,445.56836 155.61224,442.02628 155.87109,440.99085 C 156.49858,438.48089 155.47008,438.48914 154.19054,437.20961 C 153.1402,436.15926 152.72006,434.47871 151.66972,433.42837 C 150.21296,431.97161 150.51158,430.90754 147.88848,430.90754 C 147.60839,430.90754 147.32829,430.90754 147.0482,430.90754 C 144.1979,430.90754 142.78915,431.32768 139.90586,431.32768 C 137.84826,431.32768 137.77592,432.52959 136.54476,430.06727 C 136.0469,429.07155 131.72922,429.64713 130.66283,429.64713 C 129.41769,429.64713 127.49288,429.38927 126.46145,429.64713" id="pathLimite67_68" sodipodi:nodetypes="cssscsscsssssssssssssssssssssssssc"/>
  <text xml:space="preserve" style="font-size:12px;font-style:normal;font-weight:normal;fill:purple;fill-opacity:1;stroke:none;stroke-width:1px;stroke-linecap:butt;stroke-linejoin:miter;stroke-opacity:1;font-family:Bitstream Vera Sans" x="327.74399" y="286.47394" id="textStrossburisch"><tspan sodipodi:role="line" id="tspan1948" x="327.74399" y="286.47394">Strossburisch</tspan></text>
  <text xml:space="preserve" style="font-size:12px;font-style:normal;font-weight:normal;fill:maroon;fill-opacity:1;stroke:none;stroke-width:1px;stroke-linecap:butt;stroke-linejoin:miter;stroke-opacity:1;font-family:Bitstream Vera Sans" x="240.76987" y="807.25812" id="text1954"><tspan sodipodi:role="line" id="tspan1956" x="240.76987" y="807.25812">Hochalemannisch</tspan></text>
  <text xml:space="preserve" style="font-size:12px;font-style:normal;font-weight:normal;fill:tomato;fill-opacity:1;stroke:none;stroke-width:1px;stroke-linecap:butt;stroke-linejoin:miter;stroke-opacity:1;font-family:Bitstream Vera Sans" x="295.0" y="361.5" id="textNordNieder"><tspan sodipodi:role="line" id="tspan1893" x="295" y="361.5">  Nord -</tspan><tspan sodipodi:role="line" x="295" y="376.5" id="tspan1895">Niederalemannisch</tspan></text>
  <text xml:space="preserve" style="font-size:12px;font-style:normal;font-weight:normal;fill:red;fill-opacity:1;stroke:none;stroke-width:1px;stroke-linecap:butt;stroke-linejoin:miter;stroke-opacity:1;font-family:Bitstream Vera Sans" x="264" y="622" id="textSudNieder"><tspan sodipodi:role="line" id="tspan1899" x="264" y="622"> Sud -</tspan><tspan sodipodi:role="line" x="264" y="637" id="tspan1901">Niederalemannisch</tspan></text>
  <text xml:space="preserve" style="font-size:12px;font-style:normal;font-weight:normal;fill:blue;fill-opacity:1;stroke:none;stroke-width:1px;stroke-linecap:butt;stroke-linejoin:miter;stroke-opacity:1;font-family:Bitstream Vera Sans" x="132" y="94.5" id="textFrankisch"><tspan sodipodi:role="line" id="tspan1900" x="132" y="94.5">Frankisch</tspan></text>
</svg>