<?xml version="1.0" encoding="iso-8859-1"?>
<!-- Generator: Adobe Illustrator 19.0.0, SVG Export Plug-In . SVG Version: 6.00 Build 0)  -->
<svg version="1.1" id="Layer_1" xmlns="http://www.w3.org/2000/svg" xmlns:xlink="http://www.w3.org/1999/xlink" x="0px" y="0px"
	 viewBox="0 0 512 512" style="enable-background:new 0 0 512 512;" xml:space="preserve">
<circle style="fill:#B9EAFF;" cx="256" cy="256" r="256"/>
<path style="fill:#35CCFF;" d="M133.39,262l227.561,227.562C450,449.485,512,359.985,512,256c0-1.929-0.031-3.85-0.073-5.768
	L331.522,85.841L133.39,262z"/>
<path style="fill:#93562A;" d="M460.799,409.616l-8.525-17.542l-152.978-37.523v-30.788h-86.591v30.788L59.726,392.075
	l-8.525,17.542C97.907,471.784,172.255,512,256,512S414.093,471.785,460.799,409.616z"/>
<path style="fill:#7F4620;" d="M452.274,392.075l-152.978-37.523v-30.788H256v188.234c-0.222,0-0.111,0.002,0,0.002
	c83.745,0,158.093-40.215,204.799-102.384L452.274,392.075z"/>
<circle style="fill:#93562A;" cx="155.86" cy="243.98" r="28.808"/>
<circle style="fill:#7F4620;" cx="356.14" cy="243.98" r="28.808"/>
<path style="fill:#A06738;" d="M258.861,336.634h-5.722c-53.727,0-97.282-43.555-97.282-97.282v-71.468
	c0-53.727,43.555-97.282,97.282-97.282h5.722c53.727,0,97.282,43.555,97.282,97.282v71.468
	C356.143,293.079,312.588,336.634,258.861,336.634z"/>
<path style="fill:#93562A;" d="M256,77L256,77c-0.112,0-0.222,0.004-0.333,0.004l0.325,259.63h2.869
	c53.727,0,97.282-43.555,97.282-97.282v-67.848C356.143,119.311,311.308,77,256,77z"/>
<circle style="fill:#1A1A1A;" cx="313.02" cy="229.85" r="10.803"/>
<circle style="fill:#333333;" cx="198.98" cy="229.85" r="10.803"/>
<path style="fill:#93562A;" d="M256.354,257.642h-0.708c-6.156,0-11.146-4.99-11.146-11.146v-6.068h23v6.068
	C267.5,252.651,262.51,257.642,256.354,257.642z"/>
<path style="fill:#7F4620;" d="M256,240.386V257.6l0.354,0.042c6.156,0,11.146-4.99,11.146-11.146v-6.068L256,240.386z"/>
<path style="fill:#333333;" d="M371.2,177.969c0-4.037-1.793-7.672-4.657-10.259c2.865-2.587,4.657-6.222,4.657-10.259
	c0-5.692-3.555-10.588-8.676-12.856c1.424-2.17,2.26-4.72,2.26-7.46c0-5.273-3.051-9.865-7.57-12.317
	c0.868-1.795,1.364-3.783,1.364-5.884c0-6.93-5.259-12.693-12.214-13.948c0.002-0.088,0.014-0.173,0.014-0.261
	c0-6.941-5.277-12.711-12.251-13.953c-1.74-6.032-7.57-10.473-14.513-10.473c-2.399,0-4.658,0.543-6.671,1.485
	c-0.745-7.19-7.167-12.809-14.982-12.809c-2.142,0-4.176,0.429-6.021,1.189c-2.69-3.872-7.322-6.433-12.594-6.433
	c-3.93,0-7.496,1.433-10.178,3.759c-2.569-4.365-7.5-7.323-13.167-7.323s-10.597,2.958-13.167,7.323
	c-2.681-2.326-6.248-3.759-10.178-3.759c-5.272,0-9.904,2.562-12.594,6.433c-1.845-0.761-3.879-1.189-6.021-1.189
	c-7.815,0-14.237,5.619-14.982,12.809c-2.013-0.942-4.272-1.485-6.671-1.485c-6.943,0-12.773,4.441-14.513,10.473
	c-6.973,1.242-12.251,7.012-12.251,13.953c0,0.088,0.012,0.173,0.014,0.261c-6.955,1.255-12.214,7.018-12.214,13.948
	c0,2.101,0.496,4.089,1.364,5.884c-4.52,2.452-7.571,7.044-7.571,12.317c0,2.74,0.836,5.29,2.26,7.46
	c-5.121,2.268-8.676,7.164-8.676,12.856c0,4.037,1.793,7.672,4.657,10.259c-2.865,2.587-4.657,6.222-4.657,10.259
	c0,4,1.757,7.607,4.576,10.189c-0.875,1.801-1.375,3.797-1.375,5.907c0,2.965,0.965,5.716,2.611,7.994
	c-0.462,1.365-0.717,2.818-0.717,4.328c0,6.157,4.158,11.384,9.963,13.357v22.386c0,12.483,2.57,24.397,7.229,35.306v-45.731
	c0-48.425,41.599-87.681,92.914-87.681s92.914,39.256,92.914,87.681v45.731c4.659-10.909,7.229-22.823,7.229-35.306v-22.386
	c5.805-1.973,9.963-7.2,9.963-13.357c0-1.51-0.254-2.963-0.717-4.328c1.646-2.278,2.611-5.029,2.611-7.994
	c0-2.111-0.501-4.106-1.375-5.907C369.443,185.576,371.2,181.969,371.2,177.969z"/>
<path style="fill:#1A1A1A;" d="M366.543,167.71c2.865-2.587,4.657-6.222,4.657-10.259c0-5.692-3.555-10.588-8.676-12.856
	c1.424-2.17,2.26-4.72,2.26-7.46c0-5.273-3.051-9.865-7.571-12.317c0.868-1.795,1.364-3.783,1.364-5.884
	c0-6.93-5.259-12.693-12.214-13.948c0.002-0.088,0.014-0.173,0.014-0.261c0-6.941-5.277-12.711-12.251-13.953
	c-1.74-6.032-7.57-10.473-14.513-10.473c-2.399,0-4.658,0.543-6.671,1.485c-0.745-7.19-7.167-12.809-14.982-12.809
	c-2.142,0-4.176,0.429-6.021,1.189c-2.69-3.872-7.322-6.433-12.594-6.433c-3.93,0-7.496,1.433-10.178,3.759
	c-2.569-4.365-7.5-7.323-13.167-7.323c-0.112,0-0.222,0.009-0.333,0.011v83.852c0.111,0,0.222-0.004,0.333-0.004
	c51.315,0,92.914,39.256,92.914,87.681v45.731c4.659-10.909,7.229-22.823,7.229-35.306v-22.386c5.805-1.973,9.963-7.2,9.963-13.357
	c0-1.51-0.254-2.963-0.717-4.328c1.646-2.278,2.611-5.029,2.611-7.994c0-2.111-0.501-4.106-1.375-5.907
	c2.818-2.582,4.576-6.19,4.576-10.189C371.2,173.932,369.408,170.297,366.543,167.71z"/>
<path style="fill:#FFDC00;" d="M390.945,377.032l-21.237-5.209C354.703,420.365,256,455.634,256,455.634
	s-98.703-35.269-113.709-83.811l-21.236,5.209v96.546C160.234,497.932,206.473,512,256,512s95.766-14.068,134.945-38.422V377.032z"
	/>
<path style="fill:#FFC000;" d="M256,512c49.527,0,95.766-14.068,134.945-38.422v-96.546l-21.237-5.209
	C354.703,420.365,256,455.634,256,455.634V512z"/>
<path style="fill:#753E19;" d="M255.667,303c-16.818,0-30.5-13.682-30.5-30.5h12c0,10.201,8.299,18.5,18.5,18.5
	s18.5-8.299,18.5-18.5h12C286.167,289.318,272.485,303,255.667,303z"/>
<path style="fill:#5E3112;" d="M255.667,291c10.201,0,18.5-8.299,18.5-18.5h12c0,16.818-13.682,30.5-30.5,30.5L255.667,291
	L255.667,291z"/>
<g>
</g>
<g>
</g>
<g>
</g>
<g>
</g>
<g>
</g>
<g>
</g>
<g>
</g>
<g>
</g>
<g>
</g>
<g>
</g>
<g>
</g>
<g>
</g>
<g>
</g>
<g>
</g>
<g>
</g>
</svg>
