<?xml version="1.0" encoding="iso-8859-1"?>
<!-- Generator: Adobe Illustrator 19.0.0, SVG Export Plug-In . SVG Version: 6.00 Build 0)  -->
<svg version="1.1" id="Layer_1" xmlns="http://www.w3.org/2000/svg" xmlns:xlink="http://www.w3.org/1999/xlink" x="0px" y="0px"
	 viewBox="0 0 512 512" style="enable-background:new 0 0 512 512;" xml:space="preserve">
<path style="fill:#8F5240;" d="M89.043,233.739c-27.662,0-50.087,22.424-50.087,50.087c0,27.662,22.424,50.087,50.087,50.087
	c2.001,0,39.306-0.345,39.306-0.345v-99.829H89.043z"/>
<path style="fill:#794334;" d="M422.957,233.739H383.65v99.829c0,0,37.305,0.345,39.306,0.345c27.662,0,50.087-22.424,50.087-50.087
	C473.043,256.164,450.619,233.739,422.957,233.739z"/>
<path style="fill:#8F5240;" d="M361.539,88.465l-138.93,40.314v227.395l200.348-22.261v-93.83
	C422.957,187.915,399.026,119.085,361.539,88.465z"/>
<path style="fill:#A15F4C;" d="M150.461,88.465c-37.487,30.62-61.418,99.45-61.418,151.619v93.83L256,367.304V162.17L150.461,88.465
	z"/>
<path d="M422.957,99.595c0.011-12.177-3.962-24.442-12.143-34.705c-10.808-13.546-26.646-20.714-42.73-20.947
	c-5.309-10.641-14.058-19.679-25.611-25.233c-15.004-7.235-31.644-7.112-45.857-1.091C286.453,6.778,272.028,0,256,0l-33.391,81.085
	L256,162.17c41.149,0,83.345-20.302,105.539-51.445c37.487,30.62,61.418,77.19,61.418,129.358
	C422.957,240.083,422.945,115.935,422.957,99.595z"/>
<path style="fill:#44261D;" d="M215.385,17.619c-14.214-6.022-30.854-6.144-45.857,1.091c-11.553,5.554-20.302,14.592-25.611,25.233
	c-16.083,0.234-31.922,7.402-42.73,20.947c-8.181,10.262-12.154,22.528-12.143,34.705c0.011,16.339,0,140.488,0,140.488
	c0-52.168,23.93-98.738,61.418-129.358c22.194,31.143,64.39,51.445,105.539,51.445V0C239.972,0,225.547,6.778,215.385,17.619z"/>
<path d="M422.957,333.913v11.13C422.957,437.248,348.204,512,256,512l-33.391-89.043L256,333.913H422.957z"/>
<path style="fill:#44261D;" d="M256,333.913V512c-92.205,0-166.957-74.752-166.957-166.957v-11.13H256z"/>
<polygon style="fill:#331D17;" points="217.043,283.826 183.652,283.826 183.652,267.13 144.696,267.13 144.696,233.739 
	217.043,233.739 "/>
<polygon points="328.348,283.826 294.957,283.826 294.957,233.739 367.304,233.739 367.304,267.13 328.348,267.13 "/>
<path style="fill:#8F5240;" d="M239.304,367.304h-33.391c0,27.618,22.469,50.087,50.087,50.087l11.13-16.696L256,384
	C246.794,384,239.304,376.51,239.304,367.304z"/>
<path style="fill:#794334;" d="M272.696,367.304c0,9.206-7.49,16.696-16.696,16.696v33.391c27.618,0,50.087-22.469,50.087-50.087
	H272.696z"/>
<g>
</g>
<g>
</g>
<g>
</g>
<g>
</g>
<g>
</g>
<g>
</g>
<g>
</g>
<g>
</g>
<g>
</g>
<g>
</g>
<g>
</g>
<g>
</g>
<g>
</g>
<g>
</g>
<g>
</g>
</svg>
