<?xml version="1.0" encoding="iso-8859-1"?>
<!-- Generator: Adobe Illustrator 19.0.0, SVG Export Plug-In . SVG Version: 6.00 Build 0)  -->
<svg version="1.1" id="Layer_1" xmlns="http://www.w3.org/2000/svg" xmlns:xlink="http://www.w3.org/1999/xlink" x="0px" y="0px"
	 viewBox="0 0 512.001 512.001" style="enable-background:new 0 0 512.001 512.001;" xml:space="preserve">
<path style="fill:#FDCDBF;" d="M256.001,0l33.391,210.367l-33.391,116.6H89.045c-42.986-3.406-76.8-39.357-76.8-83.211
	c0-22.951,9.26-43.731,24.253-58.824c-5.432-20.558-3.072-43.186,8.403-63.054c11.475-19.879,29.885-33.235,50.41-38.812
	c5.576-20.524,18.944-38.934,38.812-50.41s42.496-13.846,63.065-8.415C212.269,9.26,233.05,0,256.001,0z"/>
<path style="fill:#E7B0A0;" d="M475.503,184.931c14.993,15.093,24.253,35.873,24.253,58.824c0,43.854-33.814,79.805-76.8,83.211
	H256.001V0c22.951,0,43.731,9.26,58.813,24.242c20.569-5.432,43.197-3.061,63.065,8.415c19.868,11.475,33.235,29.885,38.812,50.41
	c20.524,5.576,38.934,18.933,50.41,38.812C478.575,141.745,480.935,164.374,475.503,184.931z"/>
<path style="fill:#794334;" d="M422.956,267.132h-45.993v122.434h45.993c27.662,0,50.087-22.424,50.087-50.087v-22.261
	C473.043,289.557,450.619,267.132,422.956,267.132z"/>
<path style="fill:#8F5240;" d="M89.045,267.132c-27.662,0-50.087,22.424-50.087,50.087v22.261c0,27.662,22.424,50.087,50.087,50.087
	h34.863V267.132L89.045,267.132L89.045,267.132z"/>
<path style="fill:#FC9C3A;" d="M94.961,461.565c-27.618,0-50.087-22.469-50.087-50.087c0-27.618,22.469-50.087,50.087-50.087
	s50.087,22.469,50.087,50.087C145.047,439.096,122.578,461.565,94.961,461.565z"/>
<path style="fill:#FC8914;" d="M417.042,461.565c-27.618,0-50.087-22.469-50.087-50.087c0-27.618,22.469-50.087,50.087-50.087
	c27.618,0,50.087,22.469,50.087,50.087C467.128,439.096,444.66,461.565,417.042,461.565z"/>
<path style="fill:#8F5240;" d="M361.777,137.977c0,27.662-22.462,50.13-50.123,50.13c-4.469,0-8.797-0.593-12.921-1.692
	c-8.805,14.366-24.647,23.953-42.731,23.953l-77.913,150.817l77.913,150.817c92.207,0,166.956-51.485,166.956-114.995V267.132
	C422.956,215.074,399.118,168.595,361.777,137.977z"/>
<path style="fill:#A15F4C;" d="M213.27,186.415c-4.123,1.097-8.452,1.692-12.921,1.692c-27.662,0-50.13-22.448-50.13-50.11
	c-37.335,30.619-61.174,77.083-61.174,129.136v129.874c0,63.51,74.748,114.995,166.956,114.995V210.368
	C237.917,210.367,222.075,200.781,213.27,186.415z"/>
<polygon style="fill:#331D17;" points="217.044,333.915 183.653,333.915 183.653,317.219 144.697,317.219 144.697,283.828 
	217.044,283.828 "/>
<polygon points="328.348,333.915 294.957,333.915 294.957,283.828 367.304,283.828 367.304,317.219 328.348,317.219 "/>
<polygon style="fill:#331D17;" points="294.957,378.435 294.957,411.827 256.001,411.827 244.87,395.131 256.001,378.435 "/>
<rect x="217.043" y="378.433" style="fill:#691E17;" width="38.956" height="33.391"/>
<g>
</g>
<g>
</g>
<g>
</g>
<g>
</g>
<g>
</g>
<g>
</g>
<g>
</g>
<g>
</g>
<g>
</g>
<g>
</g>
<g>
</g>
<g>
</g>
<g>
</g>
<g>
</g>
<g>
</g>
</svg>
