<?xml version="1.0" encoding="iso-8859-1"?>
<!-- Generator: Adobe Illustrator 19.0.0, SVG Export Plug-In . SVG Version: 6.00 Build 0)  -->
<svg version="1.1" id="Layer_1" xmlns="http://www.w3.org/2000/svg" xmlns:xlink="http://www.w3.org/1999/xlink" x="0px" y="0px"
	 viewBox="0 0 512 512" style="enable-background:new 0 0 512 512;" xml:space="preserve">
<path style="fill:#FDCDBF;" d="M56.195,174.829C25.159,174.829,0,199.988,0,231.024v64.115c0,29.429,22.622,53.574,51.424,55.995
	h67.211V174.829H56.195z"/>
<path style="fill:#E7B0A0;" d="M455.805,174.829c31.036,0,56.195,25.159,56.195,56.195v64.115c0,29.429-22.622,53.574-51.424,55.995
	h-67.211V174.829H455.805z"/>
<path style="fill:#5B3227;" d="M443.317,301.381c11.913,20.642,18.732,44.594,18.732,70.132
	c0,77.587-62.901,140.488-140.488,140.488H256l-74.927-259.75L256,0c103.449,0,187.317,83.868,187.317,187.317V301.381z"/>
<path style="fill:#794334;" d="M256,0v512h-65.561c-77.587,0-140.488-62.901-140.488-140.488c0-25.538,6.818-49.489,18.732-70.132
	V187.317C68.683,83.868,152.551,0,256,0z"/>
<polygon style="fill:#331D17;" points="324.683,81.171 324.683,118.634 256,118.634 236.377,99.902 256,81.171 "/>
<rect x="187.317" y="81.171" style="fill:#44261D;" width="68.683" height="37.463"/>
<polygon style="fill:#331D17;" points="362.146,156.098 362.146,193.561 256,193.561 225.672,174.829 256,156.098 "/>
<g>
	<rect x="149.854" y="156.098" style="fill:#44261D;" width="106.146" height="37.463"/>
	<path style="fill:#44261D;" d="M237.268,380.878h-37.463c0,30.986,25.209,56.195,56.195,56.195l12.488-18.732L256,399.61
		C245.671,399.61,237.268,391.207,237.268,380.878z"/>
</g>
<path style="fill:#331D17;" d="M274.732,380.878c0,10.329-8.403,18.732-18.732,18.732v37.463c30.986,0,56.195-25.209,56.195-56.195
	H274.732z"/>
<rect x="224.78" y="268.488" style="fill:#C48776;" width="62.439" height="37.463"/>
<path style="fill:#FDCDBF;" d="M181.073,231.024l-24.976,56.195l24.976,56.195c30.986,0,56.195-25.209,56.195-56.195
	S212.059,231.024,181.073,231.024z"/>
<path style="fill:#FFFFFF;" d="M124.878,287.22c0,30.986,25.209,56.195,56.195,56.195v-112.39
	C150.087,231.024,124.878,256.234,124.878,287.22z"/>
<path style="fill:#E7B0A0;" d="M330.927,231.024l-24.976,56.195l24.976,56.195c30.986,0,56.195-25.209,56.195-56.195
	S361.913,231.024,330.927,231.024z"/>
<path style="fill:#FDCDBF;" d="M274.732,287.22c0,30.986,25.209,56.195,56.195,56.195v-112.39
	C299.941,231.024,274.732,256.234,274.732,287.22z"/>
<g>
</g>
<g>
</g>
<g>
</g>
<g>
</g>
<g>
</g>
<g>
</g>
<g>
</g>
<g>
</g>
<g>
</g>
<g>
</g>
<g>
</g>
<g>
</g>
<g>
</g>
<g>
</g>
<g>
</g>
</svg>
