<?xml version="1.0" encoding="iso-8859-1"?>
<!-- Generator: Adobe Illustrator 19.0.0, SVG Export Plug-In . SVG Version: 6.00 Build 0)  -->
<svg version="1.1" id="Layer_1" xmlns="http://www.w3.org/2000/svg" xmlns:xlink="http://www.w3.org/1999/xlink" x="0px" y="0px"
	 viewBox="0 0 512 512" style="enable-background:new 0 0 512 512;" xml:space="preserve">
<path style="fill:#A34124;" d="M422.957,267.13h-45.993v122.435h45.993c27.662,0,50.087-22.424,50.087-50.087v-22.261
	C473.043,289.555,450.619,267.13,422.957,267.13z"/>
<path style="fill:#BF4E2E;" d="M89.043,267.13c-27.662,0-50.087,22.424-50.087,50.087v22.261c0,27.662,22.424,50.087,50.087,50.087
	h34.863V267.13H89.043z"/>
<path style="fill:#FCAF60;" d="M1.463,434.923c0,39.279,31.955,71.235,71.235,71.235s71.235-31.955,71.235-71.235
	s-31.955-71.235-71.235-71.235S1.463,395.644,1.463,434.923z M34.854,434.922c0-20.867,16.976-37.843,37.843-37.843
	s37.843,16.976,37.843,37.843c0,20.867-16.976,37.843-37.843,37.843S34.854,455.79,34.854,434.922z"/>
<path style="fill:#FC9C3A;" d="M439.303,363.688c-39.279,0-71.235,31.955-71.235,71.235s31.955,71.235,71.235,71.235
	s71.235-31.955,71.235-71.235S478.582,363.688,439.303,363.688z M439.303,472.765c-20.867,0-37.843-16.976-37.843-37.843
	c0-20.867,16.976-37.843,37.843-37.843c20.867,0,37.843,16.976,37.843,37.843C477.146,455.789,460.17,472.765,439.303,472.765z"/>
<path d="M422.957,99.595c-0.011,16.339,0,167.535,0,167.535H200.348L256,0c16.028,0,30.453,6.778,40.615,17.619
	c14.214-6.022,30.854-6.144,45.857,1.091c11.553,5.554,20.302,14.592,25.611,25.233c16.083,0.234,31.922,7.402,42.73,20.947
	C418.994,75.153,422.968,87.418,422.957,99.595z"/>
<path style="fill:#691E17;" d="M256,0v267.13H89.043c0,0,0.011-151.196,0-167.535c-0.011-12.177,3.962-24.442,12.143-34.705
	c10.808-13.546,26.646-20.714,42.73-20.947c5.309-10.641,14.058-19.679,25.611-25.233c15.004-7.235,31.644-7.112,45.857-1.091
	C225.547,6.778,239.972,0,256,0z"/>
<path style="fill:#BF4E2E;" d="M422.957,267.13v89.043C422.957,473.611,256,512,256,512l-55.652-162.337L256,187.325
	c16.028,0,30.453-6.778,40.615-17.619c14.214,6.022,30.854,6.144,45.857-1.091c11.553-5.554,20.291-14.592,25.611-25.233
	C401.786,173.935,422.957,218.056,422.957,267.13z"/>
<path style="fill:#CF6446;" d="M256,187.325V512c0,0-166.957-38.389-166.957-155.826V267.13c0-49.074,21.17-93.195,54.873-123.748
	c5.32,10.652,14.058,19.679,25.611,25.233c15.004,7.235,31.644,7.112,45.857,1.091C225.547,180.547,239.972,187.325,256,187.325z"/>
<polygon style="fill:#691E17;" points="217.043,322.783 183.652,322.783 183.652,306.087 144.696,306.087 144.696,272.696 
	217.043,272.696 "/>
<polygon points="328.348,322.783 294.957,322.783 294.957,272.696 367.304,272.696 367.304,306.087 328.348,306.087 "/>
<path style="fill:#A34124;" d="M239.304,356.174h-33.391c0,27.618,22.469,50.087,50.087,50.087l11.13-16.696L256,372.87
	C246.794,372.87,239.304,365.38,239.304,356.174z"/>
<path style="fill:#691E17;" d="M272.696,356.174c0,9.206-7.49,16.696-16.696,16.696v33.391c27.618,0,50.087-22.469,50.087-50.087
	H272.696z"/>
<g>
</g>
<g>
</g>
<g>
</g>
<g>
</g>
<g>
</g>
<g>
</g>
<g>
</g>
<g>
</g>
<g>
</g>
<g>
</g>
<g>
</g>
<g>
</g>
<g>
</g>
<g>
</g>
<g>
</g>
</svg>
