<?xml version="1.0" encoding="iso-8859-1"?>
<!-- Generator: Adobe Illustrator 19.0.0, SVG Export Plug-In . SVG Version: 6.00 Build 0)  -->
<svg version="1.1" id="Layer_1" xmlns="http://www.w3.org/2000/svg" xmlns:xlink="http://www.w3.org/1999/xlink" x="0px" y="0px"
	 viewBox="0 0 512 512" style="enable-background:new 0 0 512 512;" xml:space="preserve">
<path style="fill:#FCAF60;" d="M73.143,207.238c-30.297,0-54.857,24.56-54.857,54.857s24.56,54.857,54.857,54.857
	c2.192,0,43.049-0.378,43.049-0.378V207.238H73.143z"/>
<path style="fill:#FC9C3A;" d="M438.857,207.238h-43.049v109.336c0,0,40.858,0.378,43.049,0.378
	c30.297,0,54.857-24.56,54.857-54.857S469.154,207.238,438.857,207.238z"/>
<path style="fill:#FCAF60;" d="M256,0l-36.571,395.093l219.429-36.571V182.857C438.857,81.871,356.986,0,256,0z"/>
<path style="fill:#FCC286;" d="M73.143,182.857v175.665L256,395.093V0C155.014,0,73.143,81.871,73.143,182.857z"/>
<polygon style="fill:#331D17;" points="213.333,280.381 176.762,280.381 176.762,262.095 134.095,262.095 134.095,225.524 
	213.333,225.524 "/>
<polygon points="335.238,280.381 298.667,280.381 298.667,225.524 377.905,225.524 377.905,262.095 335.238,262.095 "/>
<rect x="286.476" y="152.381" style="fill:#44261D;" width="79.238" height="36.571"/>
<rect x="146.286" y="152.381" style="fill:#5B3227;" width="79.238" height="36.571"/>
<path style="fill:#44261D;" d="M438.857,358.522v7.192c0,59.819-28.721,112.92-73.131,146.286H256l-48.762-91.855L256,328.29
	c37.218,0,71.838,11.13,100.718,30.232L438.857,358.522L438.857,358.522z"/>
<path style="fill:#5B3227;" d="M256,328.29V512H146.274c-44.41-33.365-73.131-86.467-73.131-146.286v-7.192h82.139
	C184.162,339.419,218.782,328.29,256,328.29z"/>
<polygon style="fill:#FC9C3A;" points="286.476,383.148 286.476,419.719 256,419.719 247.292,401.434 256,383.148 "/>
<rect x="225.524" y="383.147" style="fill:#FCAF60;" width="30.476" height="36.571"/>
<g>
</g>
<g>
</g>
<g>
</g>
<g>
</g>
<g>
</g>
<g>
</g>
<g>
</g>
<g>
</g>
<g>
</g>
<g>
</g>
<g>
</g>
<g>
</g>
<g>
</g>
<g>
</g>
<g>
</g>
</svg>
