<?xml version="1.0" encoding="iso-8859-1"?>
<!-- Generator: Adobe Illustrator 19.0.0, SVG Export Plug-In . SVG Version: 6.00 Build 0)  -->
<svg version="1.1" id="Layer_1" xmlns="http://www.w3.org/2000/svg" xmlns:xlink="http://www.w3.org/1999/xlink" x="0px" y="0px"
	 viewBox="0 0 512 512" style="enable-background:new 0 0 512 512;" xml:space="preserve">
<path style="fill:#331D17;" d="M470.817,512H256l-33.391-177.553h231.135C462.481,386.771,470.817,429.802,470.817,512z"/>
<g>
	<path style="fill:#5C3419;" d="M256,334.447V512H41.183c0-82.198,8.337-125.229,17.074-177.553L256,334.447L256,334.447z"/>
	<path style="fill:#5C3419;" d="M189.217,66.783c0,36.883,29.9,66.783,66.783,66.783l22.261-66.783L256,0
		C219.117,0,189.217,29.9,189.217,66.783z"/>
</g>
<path style="fill:#331D17;" d="M256,0v133.565c36.883,0,66.783-29.9,66.783-66.783S292.883,0,256,0z"/>
<path style="fill:#91552D;" d="M89.043,256c-27.662,0-50.087,22.424-50.087,50.087s22.424,50.087,50.087,50.087
	c2.001,0,39.306-0.345,39.306-0.345V256H89.043z"/>
<path style="fill:#854820;" d="M422.957,256H383.65v99.829c0,0,37.305,0.345,39.306,0.345c27.662,0,50.087-22.424,50.087-50.087
	S450.619,256,422.957,256z"/>
<path style="fill:#91552D;" d="M422.957,256v77.913C422.957,426.118,330.574,512,256,512l-33.391-345.867l116.313-17.152
	L422.957,256z"/>
<path style="fill:#A26745;" d="M256,166.133V512c-74.574,0-166.957-85.882-166.957-178.087V256l84.035-107.019L256,166.133z"/>
<path d="M256,89.043c92.205,0,166.957,74.752,166.957,166.957c-41.227-15.416-84.035-73.628-84.035-73.628
	S304.974,199.524,256,199.524l-33.391-55.942L256,89.043z"/>
<polygon style="fill:#331D17;" points="217.043,345.043 183.652,345.043 183.652,328.348 144.696,328.348 144.696,294.957 
	217.043,294.957 "/>
<polygon points="328.348,345.043 294.957,345.043 294.957,294.957 367.304,294.957 367.304,328.348 328.348,328.348 "/>
<path style="fill:#854820;" d="M239.304,389.565h-33.391c0,27.618,22.469,50.087,50.087,50.087l11.13-16.696L256,406.261
	C246.794,406.261,239.304,398.771,239.304,389.565z"/>
<path style="fill:#44261D;" d="M272.696,389.565c0,9.206-7.49,16.696-16.696,16.696v33.391c27.618,0,50.087-22.469,50.087-50.087
	H272.696z"/>
<path style="fill:#331D17;" d="M256,89.043v110.481c-48.974,0-82.922-17.152-82.922-17.152S130.271,240.584,89.043,256
	C89.043,163.795,163.795,89.043,256,89.043z"/>
<g>
</g>
<g>
</g>
<g>
</g>
<g>
</g>
<g>
</g>
<g>
</g>
<g>
</g>
<g>
</g>
<g>
</g>
<g>
</g>
<g>
</g>
<g>
</g>
<g>
</g>
<g>
</g>
<g>
</g>
</svg>
