<?xml version="1.0" encoding="iso-8859-1"?>
<!-- Generator: Adobe Illustrator 19.0.0, SVG Export Plug-In . SVG Version: 6.00 Build 0)  -->
<svg version="1.1" id="Layer_1" xmlns="http://www.w3.org/2000/svg" xmlns:xlink="http://www.w3.org/1999/xlink" x="0px" y="0px"
	 viewBox="0 0 512 512" style="enable-background:new 0 0 512 512;" xml:space="preserve">
<path style="fill:#331D17;" d="M456.348,200.348v44.522H222.609L256,0C366.472,0,456.348,89.876,456.348,200.348z"/>
<path style="fill:#44261D;" d="M55.652,200.348v44.522H256V0C145.528,0,55.652,89.876,55.652,200.348z"/>
<path style="fill:#331D17;" d="M483.784,399.238C500.747,410.112,512,429.134,512,450.783C512,484.597,484.597,512,450.783,512H256
	l-33.391-260.73l238.069,0.401c11.075,11.075,17.931,26.379,17.931,43.286c0,11.876-3.395,22.94-9.238,32.334
	c12.499,11.197,20.369,27.47,20.369,45.579C489.739,382.308,487.602,391.246,483.784,399.238z"/>
<path style="fill:#44261D;" d="M256,251.27V512H61.217C27.403,512,0,484.597,0,450.783c0-21.649,11.253-40.671,28.216-51.545
	c-3.818-7.992-5.955-16.929-5.955-26.368c0-18.109,7.869-34.382,20.369-45.579c-5.843-9.394-9.238-20.458-9.238-32.334
	c0-17.308,7.179-32.935,18.733-44.077L256,251.27z"/>
<path style="fill:#8F5240;" d="M89.043,211.478c-27.662,0-50.087,22.424-50.087,50.087c0,27.662,22.424,50.087,50.087,50.087
	c2.001,0,39.306-0.345,39.306-0.345v-99.829H89.043z"/>
<path style="fill:#794334;" d="M422.957,211.478H383.65v99.829c0,0,37.305,0.345,39.306,0.345c27.662,0,50.087-22.424,50.087-50.087
	C473.043,233.903,450.619,211.478,422.957,211.478z"/>
<path style="fill:#A15F4C;" d="M311.652,155.826L256,467.478c-92.205,0-166.957-74.752-166.957-166.957V200.348
	c0-7.546,0.501-14.982,1.48-22.261L311.652,155.826z"/>
<path style="fill:#8F5240;" d="M422.957,200.348v100.174c0,92.204-74.752,166.957-166.957,166.957V155.826l165.476,22.261
	C422.456,185.366,422.957,192.801,422.957,200.348z"/>
<polygon style="fill:#331D17;" points="217.043,294.957 183.652,294.957 183.652,278.261 144.696,278.261 144.696,244.87 
	217.043,244.87 "/>
<polygon points="328.348,294.957 294.957,294.957 294.957,244.87 367.304,244.87 367.304,278.261 328.348,278.261 "/>
<path style="fill:#5B3227;" d="M239.304,333.913h-33.391C205.913,361.531,228.382,384,256,384l11.13-16.696L256,350.609
	C246.794,350.609,239.304,343.119,239.304,333.913z"/>
<g>
	<path style="fill:#331D17;" d="M272.696,333.913c0,9.206-7.49,16.696-16.696,16.696V384c27.618,0,50.087-22.469,50.087-50.087
		H272.696z"/>
	<path style="fill:#331D17;" d="M421.476,178.087H256l-22.261-66.56L256,33.391C340.658,33.391,410.602,96.401,421.476,178.087z"/>
</g>
<path style="fill:#44261D;" d="M256,33.391v144.696H90.524C101.398,96.401,171.342,33.391,256,33.391z"/>
<g>
</g>
<g>
</g>
<g>
</g>
<g>
</g>
<g>
</g>
<g>
</g>
<g>
</g>
<g>
</g>
<g>
</g>
<g>
</g>
<g>
</g>
<g>
</g>
<g>
</g>
<g>
</g>
<g>
</g>
</svg>
