<?xml version="1.0" encoding="iso-8859-1"?>
<!-- Generator: Adobe Illustrator 19.0.0, SVG Export Plug-In . SVG Version: 6.00 Build 0)  -->
<svg version="1.1" id="Layer_1" xmlns="http://www.w3.org/2000/svg" xmlns:xlink="http://www.w3.org/1999/xlink" x="0px" y="0px"
	 viewBox="0 0 512 512" style="enable-background:new 0 0 512 512;" xml:space="preserve">
<path style="fill:#44261D;" d="M484.942,341.326c9.617,27.882,10.351,61.696-3.484,88.12c11.642,27.091,10.351,56.131-3.495,82.554
	H256l-89.043-256L256,0c110.47,0,200.348,89.878,200.348,200.348v57.578C456.348,257.926,476.883,317.941,484.942,341.326z"/>
<path style="fill:#794334;" d="M256,0v512H34.037c-13.846-26.424-15.137-55.463-3.495-82.554
	c-13.835-26.424-13.101-60.238-3.484-88.12c8.058-23.385,28.594-83.4,28.594-83.4v-57.578C55.652,89.878,145.53,0,256,0z"/>
<path style="fill:#FCAF60;" d="M439.303,263.512c-39.279,0-71.235,31.955-71.235,71.235s31.955,71.235,71.235,71.235
	s71.235-31.955,71.235-71.235S478.582,263.512,439.303,263.512z M439.303,372.589c-20.867,0-37.843-16.976-37.843-37.843
	c0-20.867,16.976-37.843,37.843-37.843c20.867,0,37.843,16.976,37.843,37.843C477.146,355.613,460.17,372.589,439.303,372.589z"/>
<path style="fill:#A15F4C;" d="M422.957,166.954h-45.993v122.435h45.993c27.662,0,50.087-22.424,50.087-50.087v-22.261
	C473.043,189.379,450.619,166.954,422.957,166.954z"/>
<path style="fill:#B27361;" d="M89.043,166.954c-27.662,0-50.087,22.424-50.087,50.087v22.261c0,27.662,22.424,50.087,50.087,50.087
	h34.863V166.954L89.043,166.954L89.043,166.954z"/>
<path style="fill:#FCAF60;" d="M1.463,334.747c0,39.279,31.955,71.235,71.235,71.235s71.235-31.955,71.235-71.235
	s-31.955-71.235-71.235-71.235S1.463,295.467,1.463,334.747z M34.854,334.746c0-20.867,16.976-37.843,37.843-37.843
	s37.843,16.976,37.843,37.843c0,20.867-16.976,37.843-37.843,37.843S34.854,355.613,34.854,334.746z"/>
<path style="fill:#B27361;" d="M422.957,166.957v163.261c0,63.51-74.752,115-166.957,115l-66.783-182.895L256,79.427h134.088
	C410.735,100.719,422.957,129.681,422.957,166.957z"/>
<path style="fill:#C48776;" d="M256,79.427v365.791c-92.205,0-166.957-51.489-166.957-115V166.957
	c0-37.276,12.221-66.237,32.868-87.53H256z"/>
<path style="fill:#44261D;" d="M390.088,79.427c-27.147,45.735-77.034,76.399-134.088,76.399l-66.783-61.217L256,33.391
	C310.929,33.391,359.658,48.061,390.088,79.427z"/>
<path style="fill:#794334;" d="M256,33.391v122.435c-57.055,0-106.941-30.664-134.088-76.399
	C152.342,48.061,201.071,33.391,256,33.391z"/>
<polygon style="fill:#331D17;" points="217.043,267.128 183.652,267.128 183.652,250.433 144.696,250.433 144.696,217.041 
	217.043,217.041 "/>
<polygon points="328.348,267.128 294.957,267.128 294.957,217.041 367.304,217.041 367.304,250.433 328.348,250.433 "/>
<path style="fill:#8F5240;" d="M239.304,311.65h-33.391c0,27.618,22.469,50.087,50.087,50.087l11.13-16.696L256,328.346
	C246.794,328.346,239.304,320.856,239.304,311.65z"/>
<path style="fill:#794334;" d="M272.696,311.65c0,9.206-7.49,16.696-16.696,16.696v33.391c27.618,0,50.087-22.469,50.087-50.087
	H272.696z"/>
<g>
</g>
<g>
</g>
<g>
</g>
<g>
</g>
<g>
</g>
<g>
</g>
<g>
</g>
<g>
</g>
<g>
</g>
<g>
</g>
<g>
</g>
<g>
</g>
<g>
</g>
<g>
</g>
<g>
</g>
</svg>
