<?xml version="1.0" encoding="iso-8859-1"?>
<!-- Generator: Adobe Illustrator 19.0.0, SVG Export Plug-In . SVG Version: 6.00 Build 0)  -->
<svg version="1.1" id="Layer_1" xmlns="http://www.w3.org/2000/svg" xmlns:xlink="http://www.w3.org/1999/xlink" x="0px" y="0px"
	 viewBox="0 0 512 512" style="enable-background:new 0 0 512 512;" xml:space="preserve">
<path d="M490.674,262.813C504.623,284.087,512,308.83,512,334.367c0,72.014-58.587,130.612-130.612,130.612H256l-62.694-210.006
	L256,47.02c57.365,0,110.801,28.411,142.952,76.006l0.115,0.178L490.674,262.813z"/>
<path style="fill:#5C3419;" d="M256,47.02V464.98H130.612C58.587,464.98,0,406.382,0,334.367c0-25.537,7.377-50.28,21.326-71.555
	l91.721-139.786C145.199,75.431,198.635,47.02,256,47.02z"/>
<path style="fill:#A26745;" d="M224.653,120.351L256,449.306c0,0,20.167-4.639,46.028-15.673
	c46.247-19.728,110.707-59.914,110.707-130.612v-99.077L224.653,120.351z"/>
<path style="fill:#C67934;" d="M203.755,92.473l-104.49,111.47v99.077c0,70.698,64.46,110.885,110.707,130.612
	C235.833,444.667,256,449.306,256,449.306V92.473H203.755z"/>
<path d="M372.924,130.038C346.603,91.136,302.905,67.918,256,67.918v83.78c0,28.735,23.51,52.245,52.245,52.245h104.49v-2.779
	L372.924,130.038z"/>
<path style="fill:#5C3419;" d="M203.755,77.939c-25.913,10.324-48.556,28.264-64.679,52.099l-39.811,71.126v2.779h52.245
	c28.735,0,52.245-23.51,52.245-52.245v-48.776h0.115c1.797,27.136,24.566,48.776,52.13,48.776v-83.78
	C237.829,67.918,220.139,71.408,203.755,77.939z"/>
<polygon style="fill:#331D17;" points="219.429,282.122 151.51,282.122 151.51,250.775 188.082,250.775 188.082,235.102 
	219.429,235.102 "/>
<polygon points="360.49,282.122 292.571,282.122 292.571,235.102 323.918,235.102 323.918,250.775 360.49,250.775 "/>
<path style="fill:#8F1711;" d="M240.327,313.469H208.98c0,25.927,21.093,47.02,47.02,47.02l10.449-15.673L256,329.143
	C247.358,329.143,240.327,322.112,240.327,313.469z"/>
<path style="fill:#691E17;" d="M271.673,313.469c0,8.642-7.031,15.673-15.673,15.673v31.347c25.927,0,47.02-21.093,47.02-47.02
	H271.673z"/>
<g>
</g>
<g>
</g>
<g>
</g>
<g>
</g>
<g>
</g>
<g>
</g>
<g>
</g>
<g>
</g>
<g>
</g>
<g>
</g>
<g>
</g>
<g>
</g>
<g>
</g>
<g>
</g>
<g>
</g>
</svg>
