<?xml version="1.0" encoding="iso-8859-1"?>
<!-- Generator: Adobe Illustrator 19.0.0, SVG Export Plug-In . SVG Version: 6.00 Build 0)  -->
<svg version="1.1" id="Layer_1" xmlns="http://www.w3.org/2000/svg" xmlns:xlink="http://www.w3.org/1999/xlink" x="0px" y="0px"
	 viewBox="0 0 512 512" style="enable-background:new 0 0 512 512;" xml:space="preserve">
<polygon style="fill:#CF6446;" points="367.304,512 89.043,512 89.043,334.47 133.565,278.261 367.304,278.261 "/>
<path style="fill:#C48776;" d="M89.043,166.957c-27.662,0-50.087,22.424-50.087,50.087s22.424,50.087,50.087,50.087
	c2.001,0,39.306-0.345,39.306-0.345v-99.829H89.043z"/>
<path style="fill:#B27361;" d="M422.957,166.957h-28.176v99.829c0,0,26.174,0.345,28.176,0.345
	c27.662,0,50.087-22.424,50.087-50.087S450.619,166.957,422.957,166.957z"/>
<path style="fill:#691E17;" d="M72.697,361.393c-33.755,0-61.217-27.462-61.217-61.217s27.462-61.217,61.217-61.217
	s61.217,27.462,61.217,61.217S106.453,361.393,72.697,361.393z M72.697,272.349c-15.343,0-27.826,12.483-27.826,27.826
	c0,15.343,12.483,27.826,27.826,27.826s27.826-12.483,27.826-27.826C100.523,284.832,88.041,272.349,72.697,272.349z"/>
<path d="M378.085,300.176c0-33.755,27.462-61.217,61.217-61.217s61.217,27.462,61.217,61.217s-27.462,61.217-61.217,61.217
	S378.085,333.932,378.085,300.176z M411.477,300.176c0,15.343,12.483,27.826,27.826,27.826c15.343,0,27.826-12.483,27.826-27.826
	c0-15.343-12.483-27.826-27.826-27.826C423.959,272.349,411.477,284.832,411.477,300.176z"/>
<path style="fill:#C48776;" d="M367.304,122.435l-55.652,292.051C280.999,428.344,256,434.087,256,434.087L222.609,54.784
	L367.304,122.435z"/>
<path style="fill:#D59C8B;" d="M256,54.784v379.303c0,0-166.957-38.389-166.957-155.826V166.957c0,0,81.308-77.88,111.304-112.173
	H256z"/>
<polygon style="fill:#691E17;" points="322.783,311.652 322.783,345.043 256,345.043 240.099,328.348 256,311.652 "/>
<rect x="200.348" y="311.652" style="fill:#8F1711;" width="55.652" height="33.391"/>
<polygon points="217.043,267.13 183.652,267.13 183.652,250.435 144.696,250.435 144.696,217.043 217.043,217.043 "/>
<path style="fill:#CF6446;" d="M200.348,9.517v78.225c-29.997,34.293-67.684,62.898-111.304,79.215
	C89.043,94.264,135.502,32.423,200.348,9.517z"/>
<path style="fill:#A34124;" d="M422.957,166.957V512h-55.652c-30.609,0-55.652-25.043-55.652-55.652v-41.862V233.739
	c0-30.609-25.043-55.652-55.652-55.652s-55.652-25.043-55.652-55.652V87.741V9.517C217.745,3.35,236.488,0,256,0
	C348.204,0,422.957,74.752,422.957,166.957z"/>
<g>
</g>
<g>
</g>
<g>
</g>
<g>
</g>
<g>
</g>
<g>
</g>
<g>
</g>
<g>
</g>
<g>
</g>
<g>
</g>
<g>
</g>
<g>
</g>
<g>
</g>
<g>
</g>
<g>
</g>
</svg>
