<?xml version="1.0" encoding="iso-8859-1"?>
<!-- Generator: Adobe Illustrator 19.0.0, SVG Export Plug-In . SVG Version: 6.00 Build 0)  -->
<svg version="1.1" id="Layer_1" xmlns="http://www.w3.org/2000/svg" xmlns:xlink="http://www.w3.org/1999/xlink" x="0px" y="0px"
	 viewBox="0 0 512 512" style="enable-background:new 0 0 512 512;" xml:space="preserve">
<path style="fill:#D59C8B;" d="M123.332,112.626H88.504C39.625,112.626,0,152.251,0,201.131v303.113h182.83v-93.66L123.332,112.626z
	"/>
<path style="fill:#FDCDBF;" d="M112.99,180.447c-26.824,0-48.569,21.745-48.569,48.569s21.745,48.569,48.569,48.569
	c1.941,0,38.115-0.335,38.115-0.335v-96.804H112.99z"/>
<path style="fill:#FFBEAB;" d="M436.786,180.447h-27.322v96.804c0,0,25.381,0.335,27.322,0.335
	c26.824,0,48.569-21.745,48.569-48.569S463.611,180.447,436.786,180.447z"/>
<path style="fill:#A15F4C;" d="M97.139,368.993c-32.733,0-59.363-26.63-59.363-59.363s26.63-59.363,59.363-59.363
	s59.363,26.63,59.363,59.363S129.872,368.993,97.139,368.993z M97.139,282.647c-14.878,0-26.983,12.105-26.983,26.983
	s12.105,26.983,26.983,26.983s26.983-12.105,26.983-26.983S112.017,282.647,97.139,282.647z"/>
<path style="fill:#8F5240;" d="M393.275,309.63c0-32.733,26.63-59.363,59.363-59.363S512,276.898,512,309.63
	s-26.63,59.363-59.363,59.363S393.275,342.364,393.275,309.63z M425.654,309.63c0,14.878,12.105,26.983,26.983,26.983
	s26.983-12.105,26.983-26.983s-12.105-26.983-26.983-26.983S425.654,294.752,425.654,309.63z"/>
<path style="fill:#FDCDBF;" d="M436.786,180.447v118.725c0,113.879-161.898,151.105-161.898,151.105V83.309L436.786,180.447z"/>
<path style="fill:#FFE0D6;" d="M274.888,83.309v366.969c0,0-161.898-37.226-161.898-151.105V180.447L220.922,50.929L274.888,83.309z
	"/>
<path style="fill:#D59C8B;" d="M296.475,180.447c-41.554,0-75.553-33.999-75.553-75.553l-21.586-32.38l21.586-55.542
	c16.881-5.969,35.046-9.217,53.966-9.217c89.411,0,161.898,72.487,161.898,161.898v10.793H296.475z"/>
<polygon style="fill:#DA0806;" points="312.664,320.759 312.664,353.139 274.888,353.139 264.095,336.949 274.888,320.759 "/>
<rect x="237.116" y="320.764" style="fill:#FD413C;" width="37.776" height="32.38"/>
<polygon style="fill:#B27361;" points="237.112,277.586 204.732,277.586 204.732,261.397 166.956,261.397 166.956,229.017 
	237.112,229.017 "/>
<polygon style="fill:#A15F4C;" points="345.044,277.586 312.664,277.586 312.664,229.017 382.82,229.017 382.82,261.397 
	345.044,261.397 "/>
<path style="fill:#E7B0A0;" d="M220.922,16.973v87.922c0,41.554-33.999,75.553-75.553,75.553h-32.38v-10.793
	C112.99,99.164,158.041,39.197,220.922,16.973z"/>
<g>
</g>
<g>
</g>
<g>
</g>
<g>
</g>
<g>
</g>
<g>
</g>
<g>
</g>
<g>
</g>
<g>
</g>
<g>
</g>
<g>
</g>
<g>
</g>
<g>
</g>
<g>
</g>
<g>
</g>
</svg>
