<?xml version="1.0" encoding="iso-8859-1"?>
<!-- Generator: Adobe Illustrator 19.0.0, SVG Export Plug-In . SVG Version: 6.00 Build 0)  -->
<svg version="1.1" id="Layer_1" xmlns="http://www.w3.org/2000/svg" xmlns:xlink="http://www.w3.org/1999/xlink" x="0px" y="0px"
	 viewBox="0 0 512 512" style="enable-background:new 0 0 512 512;" xml:space="preserve">
<path style="fill:#BF4E2E;" d="M422.957,267.13h-45.993v122.435h45.993c27.662,0,50.087-22.424,50.087-50.087v-22.261
	C473.043,289.555,450.619,267.13,422.957,267.13z"/>
<path style="fill:#CF6446;" d="M89.043,267.13c-27.662,0-50.087,22.424-50.087,50.087v22.261c0,27.662,22.424,50.087,50.087,50.087
	h34.863V267.13H89.043z"/>
<path style="fill:#FCAF60;" d="M72.697,483.833c-33.755,0-61.217-27.462-61.217-61.217s27.462-61.217,61.217-61.217
	s61.217,27.462,61.217,61.217S106.453,483.833,72.697,483.833z M72.697,394.79c-15.343,0-27.826,12.483-27.826,27.826
	c0,15.343,12.483,27.826,27.826,27.826s27.826-12.483,27.826-27.826C100.523,407.273,88.041,394.79,72.697,394.79z"/>
<path style="fill:#FC9C3A;" d="M378.085,422.616c0-33.755,27.462-61.217,61.217-61.217s61.217,27.462,61.217,61.217
	s-27.462,61.217-61.217,61.217S378.085,456.372,378.085,422.616z M411.477,422.616c0,15.343,12.483,27.826,27.826,27.826
	c15.343,0,27.826-12.483,27.826-27.826c0-15.343-12.483-27.826-27.826-27.826C423.959,394.79,411.477,407.273,411.477,422.616z"/>
<path style="fill:#4C4645;" d="M422.957,166.957V267.13H200.348L256,0C348.204,0,422.957,74.752,422.957,166.957z"/>
<path style="fill:#635C5A;" d="M89.043,166.957V267.13H256V0C163.795,0,89.043,74.752,89.043,166.957z"/>
<path style="fill:#CF6446;" d="M422.957,267.13v77.913C422.957,437.248,348.204,512,256,512l-33.391-390.088
	C283.648,140.956,374.55,218.991,422.957,267.13z"/>
<path style="fill:#CF6E53;" d="M256,133.042V512c-92.205,0-166.957-74.752-166.957-166.957V267.13
	c0-46.848,19.3-89.188,50.376-119.507L256,133.042z"/>
<path d="M256,100.174c92.205,0,166.957,74.752,166.957,166.957C374.55,218.991,317.039,185.478,256,166.433l-22.261-33.13
	L256,100.174z"/>
<path style="fill:#4C4645;" d="M256,100.174v66.259c-37.944-11.854-77.245-18.12-116.58-18.81
	C169.505,118.261,210.643,100.174,256,100.174z"/>
<rect x="228.174" y="289.391" style="fill:#A34124;" width="55.652" height="33.391"/>
<path style="fill:#FFE0D6;" d="M189.217,256.006l-22.261,50.087l22.261,50.087c27.618,0,50.087-22.469,50.087-50.087
	C239.304,278.475,216.835,256.006,189.217,256.006z"/>
<path style="fill:#FFFFFF;" d="M139.13,306.092c0,27.618,22.469,50.087,50.087,50.087V256.006
	C161.599,256.006,139.13,278.475,139.13,306.092z"/>
<path style="fill:#FFBEAB;" d="M322.783,256.006l-22.261,50.087l22.261,50.087c27.618,0,50.087-22.469,50.087-50.087
	C372.87,278.475,350.401,256.006,322.783,256.006z"/>
<path style="fill:#FFE0D6;" d="M272.696,306.092c0,27.618,22.469,50.087,50.087,50.087V256.006
	C295.165,256.006,272.696,278.475,272.696,306.092z"/>
<polygon style="fill:#691E17;" points="294.957,389.571 294.957,422.962 256,422.962 244.87,406.266 256,389.571 "/>
<rect x="217.043" y="389.565" style="fill:#A34124;" width="38.957" height="33.391"/>
<g>
</g>
<g>
</g>
<g>
</g>
<g>
</g>
<g>
</g>
<g>
</g>
<g>
</g>
<g>
</g>
<g>
</g>
<g>
</g>
<g>
</g>
<g>
</g>
<g>
</g>
<g>
</g>
<g>
</g>
</svg>
