<?xml version="1.0" encoding="iso-8859-1"?>
<!-- Generator: Adobe Illustrator 19.0.0, SVG Export Plug-In . SVG Version: 6.00 Build 0)  -->
<svg version="1.1" id="Layer_1" xmlns="http://www.w3.org/2000/svg" xmlns:xlink="http://www.w3.org/1999/xlink" x="0px" y="0px"
	 viewBox="0 0 512 512" style="enable-background:new 0 0 512 512;" xml:space="preserve">
<circle style="fill:#C67934;" cx="102.401" cy="102.399" r="102.399"/>
<circle style="fill:#91552D;" cx="409.599" cy="102.399" r="102.399"/>
<path style="fill:#F7AF99;" d="M89.047,289.393c-27.662,0-50.087,22.424-50.087,50.087c0,27.662,22.424,50.087,50.087,50.087
	c2.001,0,39.306-0.345,39.306-0.345v-99.828H89.047z"/>
<path style="fill:#FEE0C1;" d="M94.962,461.567c-27.618,0-50.087-22.469-50.087-50.087c0-27.618,22.469-50.087,50.087-50.087
	s50.087,22.469,50.087,50.087C145.048,439.098,122.581,461.567,94.962,461.567z M94.962,394.785c-9.206,0-16.696,7.49-16.696,16.695
	c0,9.206,7.49,16.696,16.696,16.696s16.696-7.49,16.696-16.696C111.657,402.275,104.169,394.785,94.962,394.785z"/>
<path style="fill:#FFBEAB;" d="M150.24,138.021l-0.023-0.052c-37.341,30.618-61.17,77.107-61.17,129.164v77.912
	C89.046,437.252,163.794,512,256.001,512l22.261-186.99l-22.261-186.99H150.24z"/>
<path style="fill:#ED9980;" d="M422.957,289.393h-39.306v99.828c0,0,37.304,0.345,39.306,0.345
	c27.662,0,50.087-22.424,50.087-50.087C473.044,311.818,450.62,289.393,422.957,289.393z"/>
<path style="fill:#FCC286;" d="M417.042,461.567c-27.618,0-50.087-22.469-50.087-50.087c0-27.618,22.469-50.087,50.087-50.087
	c27.618,0,50.087,22.469,50.087,50.087C467.128,439.098,444.66,461.567,417.042,461.567z M417.042,394.785
	c-9.206,0-16.696,7.49-16.696,16.695c0,9.206,7.49,16.696,16.696,16.696c9.206,0,16.695-7.49,16.695-16.696
	C433.737,402.275,426.249,394.785,417.042,394.785z"/>
<path style="fill:#F7AF99;" d="M361.779,137.962c-0.013,0.03-105.777,0.059-105.777,0.059V512
	c92.207,0,166.955-74.748,166.955-166.955v-77.912C422.957,215.072,399.125,168.58,361.779,137.962z"/>
<polygon style="fill:#91552D;" points="217.046,333.915 183.655,333.915 183.655,317.219 144.699,317.219 144.699,283.828 
	217.046,283.828 "/>
<polygon style="fill:#5B3227;" points="328.349,333.915 294.958,333.915 294.958,283.828 367.306,283.828 367.306,317.219 
	328.349,317.219 "/>
<path style="fill:#DA0806;" d="M239.307,378.436h-33.391c0,27.618,22.469,50.087,50.087,50.087l11.13-16.696l-11.13-16.695
	C246.796,395.131,239.307,387.642,239.307,378.436z"/>
<path style="fill:#B40F0C;" d="M272.698,378.436c0,9.206-7.49,16.695-16.695,16.695v33.391c27.618,0,50.087-22.469,50.087-50.087
	H272.698z"/>
<path style="fill:#91552D;" d="M150.217,137.968l0.023,0.052c0,27.662,22.449,50.087,50.11,50.087c4.469,0,8.797-0.593,12.92-1.692
	c8.805,14.366,24.647,23.952,42.732,23.952l22.261-55.095l-22.261-55.095C215.853,100.177,179.017,114.354,150.217,137.968z"/>
<path style="fill:#5B3227;" d="M256.002,100.177v110.19c18.085,0,33.926-9.587,42.732-23.952c4.123,1.099,8.451,1.692,12.92,1.692
	c27.662,0,50.111-22.453,50.111-50.115C332.981,114.351,296.148,100.177,256.002,100.177z"/>
<g>
</g>
<g>
</g>
<g>
</g>
<g>
</g>
<g>
</g>
<g>
</g>
<g>
</g>
<g>
</g>
<g>
</g>
<g>
</g>
<g>
</g>
<g>
</g>
<g>
</g>
<g>
</g>
<g>
</g>
</svg>
