<?xml version="1.0" encoding="iso-8859-1"?>
<!-- Generator: Adobe Illustrator 19.0.0, SVG Export Plug-In . SVG Version: 6.00 Build 0)  -->
<svg version="1.1" id="Layer_1" xmlns="http://www.w3.org/2000/svg" xmlns:xlink="http://www.w3.org/1999/xlink" x="0px" y="0px"
	 viewBox="0 0 512 512" style="enable-background:new 0 0 512 512;" xml:space="preserve">
<path style="fill:#FCAF60;" d="M69.837,178.06c-27.659,0-50.08,22.422-50.08,50.08s22.422,50.08,50.08,50.08
	c2.001,0,39.301-0.345,39.301-0.345V178.06H69.837z"/>
<path d="M75.751,350.214c-27.614,0-50.08-22.466-50.08-50.08c0-27.614,22.466-50.08,50.08-50.08s50.08,22.466,50.08,50.08
	S103.366,350.214,75.751,350.214z M75.751,283.44c-9.205,0-16.693,7.489-16.693,16.693s7.489,16.693,16.693,16.693
	s16.693-7.489,16.693-16.693S84.956,283.44,75.751,283.44z"/>
<path style="fill:#FCAF60;" d="M214.509,144.877l22.258,300.282c33.098,0,69.69-16.916,100.161-43.781l44.516-195.492
	L214.509,144.877z"/>
<path style="fill:#FCC286;" d="M236.767,76.601v368.559c-74.564,0-166.935-85.871-166.935-178.064v-89.032
	c0,0,81.297-67.175,111.29-101.463H236.767z"/>
<path style="fill:#44261D;" d="M142.838,28.924L204.99,61.14l-23.868,37.718c-29.993,34.288-67.664,62.89-111.29,79.205v-11.129
	C69.832,109.565,98.768,58.961,142.838,28.924z"/>
<path style="fill:#D97A5F;" d="M480.892,333.335L392.35,106.304C368.089,44.082,307.581,0,236.767,0
	c-34.834,0-67.175,10.673-93.929,28.924l38.284,69.935l62.322,113.861c14.69,26.843,51.75,48.812,82.354,48.812h11.129v250.402
	L443.343,512c30.215-30.204,48.901-71.938,48.901-118.034C492.244,372.576,488.215,352.132,480.892,333.335z"/>
<polygon points="197.82,267.092 164.433,267.092 164.433,250.399 125.482,250.399 125.482,217.012 197.82,217.012 "/>
<path style="fill:#D97A5F;" d="M220.078,311.608h-33.387c0,27.614,22.466,50.08,50.08,50.08l11.129-16.693l-11.129-16.693
	C227.567,328.302,220.078,320.813,220.078,311.608z"/>
<path style="fill:#CF6446;" d="M253.465,311.608c0,9.205-7.489,16.693-16.693,16.693v33.387c27.614,0,50.08-22.466,50.08-50.08
	H253.465z"/>
<g>
</g>
<g>
</g>
<g>
</g>
<g>
</g>
<g>
</g>
<g>
</g>
<g>
</g>
<g>
</g>
<g>
</g>
<g>
</g>
<g>
</g>
<g>
</g>
<g>
</g>
<g>
</g>
<g>
</g>
</svg>
