<?xml version="1.0" encoding="iso-8859-1"?>
<!-- Generator: Adobe Illustrator 19.0.0, SVG Export Plug-In . SVG Version: 6.00 Build 0)  -->
<svg version="1.1" id="Layer_1" xmlns="http://www.w3.org/2000/svg" xmlns:xlink="http://www.w3.org/1999/xlink" x="0px" y="0px"
	 viewBox="0 0 512 512" style="enable-background:new 0 0 512 512;" xml:space="preserve">
<polygon style="fill:#FF913C;" points="328.031,281.758 183.98,281.683 153.16,504.502 358.84,504.502 "/>
<path style="fill:#D77431;" d="M179.518,313.937c22.822,12.199,48.845,19.166,76.482,19.166s53.659-6.967,76.482-19.166
	l-4.451-32.179l-144.052-0.075L179.518,313.937z"/>
<path style="fill:#FF913C;" d="M315.989,67.433l56.356-56.356c7.666-7.666,20.775-2.237,20.775,8.605v150.59
	C393.12,121.429,354.443,91.723,315.989,67.433z"/>
<path style="fill:#FFAA50;" d="M393.12,170.273c0,75.729-61.391,137.12-137.12,137.12s-137.12-61.391-137.12-137.12
	S180.271,41.724,256,41.724S393.12,94.544,393.12,170.273z"/>
<path style="fill:#FF913C;" d="M196.01,170.273c0-65.998,37.895-114.566,88.359-125.966c-9.157-1.681-18.638-2.583-28.37-2.583
	c-25.233,0-48.794,5.974-69.103,16.596l-47.242-47.242c-7.666-7.666-20.775-2.237-20.775,8.605v150.59c0-3.091,0-3.074,0,0
	c0,75.729,61.391,137.12,137.12,137.12c9.731,0,19.213-1.047,28.37-2.975C233.905,291.346,196.01,236.271,196.01,170.273z"/>
<g>
	<circle style="fill:#FAEBC8;" cx="230.286" cy="230.266" r="25.71"/>
	<circle style="fill:#FAEBC8;" cx="281.708" cy="230.266" r="25.71"/>
</g>
<circle style="fill:#FF913C;" cx="255.997" cy="213.125" r="17.14"/>
<path style="fill:#D77431;" d="M256,478.793c-26.44,0-47.232-22.332-45.037-48.37l-15.667,74.08h121.408l-15.667-74.08
	C303.232,456.461,282.44,478.793,256,478.793z"/>
<path d="M400.618,170.275V19.673c0-7.981-4.765-15.112-12.138-18.166c-7.373-3.054-15.785-1.382-21.43,4.262l-43.292,43.293
	c-19.905-9.57-43.213-14.834-67.758-14.834s-47.853,5.264-67.758,14.834L144.95,5.769c-5.644-5.644-14.055-7.316-21.43-4.262
	s-12.138,10.185-12.138,18.166v150.602c0,50.232,25.75,94.559,64.737,120.491l-30.382,212.672c-0.585,4.101,2.264,7.9,6.364,8.485
	c0.36,0.052,0.717,0.076,1.07,0.076c3.672,0,6.881-2.7,7.416-6.44l29.511-206.576c19.775,10.166,42.18,15.908,65.902,15.908
	s46.128-5.743,65.902-15.908l29.511,206.576c0.535,3.741,3.743,6.44,7.416,6.44c0.353,0,0.71-0.025,1.07-0.076
	c4.101-0.586,6.95-4.385,6.364-8.485l-30.382-212.672C374.868,264.834,400.618,220.508,400.618,170.275z M256,299.892
	c-71.471,0-129.618-58.146-129.618-129.618V19.673c0-2.813,2.013-3.95,2.878-4.308c0.865-0.359,3.094-0.977,5.082,1.011
	l40.259,40.26c-10.577,6.746-19.825,14.875-27.298,24.215c-2.587,3.234-2.063,7.954,1.171,10.542
	c3.235,2.587,7.954,2.063,10.542-1.171c20.231-25.287,57.392-40.994,96.982-40.994c39.59,0,76.751,15.708,96.982,40.994
	c1.481,1.852,3.661,2.814,5.861,2.814c1.643,0,3.298-0.537,4.681-1.644c3.234-2.588,3.758-7.308,1.171-10.542
	c-7.472-9.34-16.72-17.468-27.298-24.215l40.259-40.259c1.989-1.988,4.217-1.37,5.082-1.011c0.866,0.358,2.878,1.496,2.878,4.308
	v150.602C385.617,241.746,327.471,299.892,256,299.892z"/>
<path d="M308.456,231.734c-3.906-1.377-8.189,0.676-9.565,4.582c-2.561,7.271-9.465,12.157-17.181,12.157
	c-7.945,0-14.699-5.123-17.181-12.232c9.395-3.478,16.111-12.526,16.111-23.117c0-13.586-11.053-24.64-24.64-24.64
	c-13.586,0-24.64,11.053-24.64,24.64c0,10.589,6.716,19.639,16.111,23.117c-2.481,7.109-9.236,12.232-17.181,12.232
	c-7.715,0-14.62-4.886-17.181-12.157c-1.376-3.907-5.66-5.959-9.565-4.582c-3.907,1.376-5.959,5.658-4.583,9.565
	c4.671,13.263,17.261,22.175,31.33,22.175c10.354,0,19.615-4.765,25.71-12.215c6.095,7.45,15.355,12.215,25.71,12.215
	c14.068,0,26.659-8.911,31.33-22.175C314.415,237.392,312.363,233.11,308.456,231.734z M256,203.485
	c5.315,0,9.639,4.324,9.639,9.639c0,5.315-4.324,9.639-9.639,9.639s-9.639-4.324-9.639-9.639
	C246.361,207.809,250.685,203.485,256,203.485z"/>
<path d="M205.327,411.337c-4.122-0.413-7.797,2.596-8.209,6.717l-8.57,85.698c-0.412,4.122,2.595,7.797,6.717,8.209
	c0.253,0.025,0.505,0.038,0.755,0.038c3.806,0,7.067-2.886,7.454-6.754l8.57-85.698C212.457,415.425,209.449,411.75,205.327,411.337
	z"/>
<path d="M314.882,418.054c-0.412-4.122-4.09-7.127-8.209-6.717c-4.122,0.413-7.129,4.088-6.717,8.209l8.57,85.698
	c0.387,3.868,3.647,6.754,7.454,6.754c0.25,0,0.501-0.012,0.755-0.038c4.122-0.412,7.129-4.087,6.717-8.209L314.882,418.054z"/>
<path d="M204.581,177.775c4.142,0,7.5-3.358,7.5-7.5v-8.569c0-4.143-3.358-7.5-7.5-7.5c-4.142,0-7.5,3.357-7.5,7.5v8.569
	C197.081,174.417,200.439,177.775,204.581,177.775z"/>
<path d="M307.419,154.205c-4.142,0-7.5,3.357-7.5,7.5v8.569c0,4.142,3.358,7.5,7.5,7.5s7.5-3.358,7.5-7.5v-8.569
	C314.919,157.563,311.561,154.205,307.419,154.205z"/>
<g>
</g>
<g>
</g>
<g>
</g>
<g>
</g>
<g>
</g>
<g>
</g>
<g>
</g>
<g>
</g>
<g>
</g>
<g>
</g>
<g>
</g>
<g>
</g>
<g>
</g>
<g>
</g>
<g>
</g>
</svg>
