<?xml version="1.0" encoding="iso-8859-1"?>
<!-- Generator: Adobe Illustrator 19.0.0, SVG Export Plug-In . SVG Version: 6.00 Build 0)  -->
<svg version="1.1" id="Capa_1" xmlns="http://www.w3.org/2000/svg" xmlns:xlink="http://www.w3.org/1999/xlink" x="0px" y="0px"
	 viewBox="0 0 512 512" style="enable-background:new 0 0 512 512;" xml:space="preserve">
<path style="fill:#F5A5C7;" d="M429.221,416.749c-0.103-4.837-0.188-9.675-0.188-14.513V173H84.467v229.235
	c0,4.838-0.085,9.676-0.188,14.513c-0.364,17.148,3.383,85.412,86.593,80.161h171.755
	C425.838,502.16,429.584,433.897,429.221,416.749z"/>
<path style="fill:#E593BB;" d="M342.707,496.994h-42.264c5.018-0.345,10.022-1.022,14.929-2.138
	c21.758-4.95,39.061-18.99,47.607-39.653c7.166-17.326,6.668-34.585,6.668-52.886v-271.37h59.468v271.37
	c0,4.841,0.08,9.682,0.187,14.51C429.662,433.978,425.914,502.248,342.707,496.994z"/>
<path style="fill:#F3D1BB;" d="M109.076,130.865v106.917H104.9c-16.076,0-29.108,13.032-29.108,29.108l0,0
	c0,16.076,13.032,29.108,29.108,29.108h4.281c2.391,56.757,49.153,102.04,106.498,102.04h20.973c0,4.98,0,8.933,0,8.943
	c0,9.677-0.123,9.396-9.364,10.697c-7.126,1.003-13.962,3.76-19.798,7.97c-11.549,8.33-18.537,21.96-18.537,36.201v42.653H324.55
	v-42.653c0-14.242-6.988-27.871-18.537-36.201c-5.836-4.209-12.672-6.967-19.798-7.97c-9.241-1.301-9.364-1.02-9.364-10.697
	c0-0.01,0-3.963,0-8.943h20.973c58.874,0,106.602-47.727,106.602-106.602V130.865H109.076z"/>
<path style="fill:#ECC19C;" d="M407.1,237.782h-2.673V130.865h-42.144v160.567c0,58.881-47.719,106.6-106.6,106.6h42.144
	c57.338,0,104.104-45.272,106.496-102.034h2.777c8.447,0,16.053-3.598,21.37-9.345c4.802-5.19,7.737-12.134,7.737-19.763l0,0
	C436.208,250.814,423.176,237.782,407.1,237.782z"/>
<g>
	<circle style="fill:#E8979F;" cx="172.75" cy="312.21" r="15.471"/>
	<circle style="fill:#E8979F;" cx="340.75" cy="312.21" r="15.471"/>
</g>
<path style="fill:#F5A5C7;" d="M311.237,7.498H202.263c-65.256,0-118.157,57.278-118.157,127.933v51.965
	c4.481,12.653,18.415,21.719,32.604,21.719c11.906,0,22.317-6.384,28.008-15.913c5.691,9.529,16.102,15.913,28.008,15.913
	c11.906,0,22.317-6.384,28.008-15.913c5.691,9.529,16.102,15.913,28.008,15.913c11.906,0,22.317-6.384,28.008-15.913
	c5.691,9.529,16.102,15.913,28.008,15.913s22.317-6.384,28.008-15.913c5.691,9.529,16.102,15.913,28.008,15.913
	s22.317-6.384,28.008-15.913c5.691,9.529,16.102,15.913,28.008,15.913c14.189,0,28.123-9.066,32.604-21.719v-51.965
	C429.394,64.776,376.493,7.498,311.237,7.498z"/>
<path style="fill:#E593BB;" d="M429.393,135.435v51.96c-4.481,12.656-18.418,21.725-32.608,21.725
	c-11.896,0-22.312-6.388-28.007-15.924c-5.681,9.536-3.147,6.335,1.147-5.801v-51.96c0-70.658-52.893-127.939-118.15-127.939h59.455
	C376.487,7.496,429.393,64.777,429.393,135.435z"/>
<path style="fill:#FFFFFF;" d="M229.154,320.063v1.265c0,15.241,12.355,27.596,27.596,27.596l0,0
	c15.241,0,27.596-12.355,27.596-27.596v-1.265H229.154z"/>
<rect x="224.44" y="467.93" style="fill:#33B4AE;" width="64.61" height="35.01"/>
<path d="M256.891,293.899c-9.118,0-17.306-5.427-20.858-13.825c-1.613-3.814,0.171-8.214,3.985-9.827
	c3.816-1.614,8.214,0.171,9.827,3.985c1.2,2.837,3.965,4.671,7.046,4.671c2.93,0,5.64-1.71,6.904-4.355
	c1.785-3.737,6.262-5.319,9.998-3.533c3.737,1.785,5.318,6.262,3.533,9.998C273.586,288.841,265.564,293.899,256.891,293.899z"/>
<path d="M256.75,356.422c-19.351,0-35.094-15.743-35.094-35.094v-1.265c0-4.141,3.357-7.498,7.498-7.498h55.191
	c4.141,0,7.498,3.357,7.498,7.498v1.265C291.844,340.679,276.101,356.422,256.75,356.422z M237.642,327.561
	c2.63,8.04,10.202,13.864,19.108,13.864c8.907,0,16.479-5.824,19.108-13.864H237.642z"/>
<path d="M205.627,272.84c-4.141,0-7.498-3.357-7.498-7.498v-32.475c0-4.141,3.357-7.498,7.498-7.498s7.498,3.357,7.498,7.498v32.475
	C213.125,269.483,209.768,272.84,205.627,272.84z"/>
<path d="M307.874,272.84c-4.141,0-7.498-3.357-7.498-7.498v-32.475c0-4.141,3.357-7.498,7.498-7.498s7.498,3.357,7.498,7.498v32.475
	C315.372,269.483,312.015,272.84,307.874,272.84z"/>
<g>
	<path style="fill:#F5A5C7;" d="M219.732,239.115h-28.21c-4.141,0-7.498-3.357-7.498-7.498s3.357-7.498,7.498-7.498h28.21
		c4.141,0,7.498,3.357,7.498,7.498C227.23,235.758,223.873,239.115,219.732,239.115z"/>
	<path style="fill:#F5A5C7;" d="M321.978,239.115h-28.21c-4.141,0-7.498-3.357-7.498-7.498s3.357-7.498,7.498-7.498h28.21
		c4.141,0,7.498,3.357,7.498,7.498C329.477,235.758,326.119,239.115,321.978,239.115z"/>
</g>
<path d="M436.617,411.399c-0.069-4.14-3.455-7.431-7.623-7.371c-4.141,0.07-7.441,3.483-7.371,7.623
	c0.03,1.753,0.064,3.505,0.102,5.257c0.707,33.339-15.069,51.113-19.922,55.767c-13.279,12.736-33.026,18.369-58.703,16.752
	c-0.157-0.01-0.314-0.015-0.472-0.015h-10.581V461.85c0-16.698-8.093-32.505-21.649-42.283c-6.825-4.923-14.826-8.143-23.139-9.313
	l-0.811-0.114c-0.692-0.097-1.422-0.199-2.082-0.299c-0.018-0.921-0.018-1.971-0.018-2.86v-1.445h13.475
	c58.929,0,107.565-44.905,113.492-102.294c3.534-0.413,6.978-1.336,10.221-2.729v56.353c0,4.141,3.357,7.498,7.498,7.498
	s7.498-3.357,7.498-7.498l0.111-68.372c4.575-6.244,7.064-13.771,7.064-21.604c0-8.022-2.601-15.445-6.994-21.483l0.179-109.975
	C436.892,60.754,380.523,0,311.237,0H202.264C132.977,0,76.608,60.754,76.608,135.431l0.146,108.082
	c-5.28,6.346-8.461,14.496-8.461,23.377c0,8.915,3.207,17.093,8.524,23.45l0.151,111.896c0,4.912-0.089,9.802-0.186,14.354
	c-0.271,12.783,1.577,44.892,24.535,66.908c16.391,15.72,39.872,22.753,69.789,20.91h10.347v0.094c0,4.141,3.357,7.498,7.498,7.498
	h135.597c4.141,0,7.498-3.357,7.498-7.498v-0.094h10.347c3.111,0.192,6.148,0.287,9.12,0.287c25.603,0,45.984-7.112,60.67-21.197
	c22.958-22.017,24.806-54.126,24.535-66.909C436.68,414.859,436.646,413.129,436.617,411.399z M297.822,390.539h-82.144
	c-54.646,0-99.103-44.458-99.103-99.103v-74.825c0.045,0,0.09,0.003,0.136,0.003c10.534,0,20.596-4.222,28.008-11.429
	c7.412,7.207,17.474,11.429,28.008,11.429s20.595-4.222,28.008-11.429c7.412,7.207,17.474,11.429,28.008,11.429
	s20.595-4.222,28.008-11.429c7.412,7.207,17.474,11.429,28.008,11.429s20.596-4.222,28.008-11.429
	c7.412,7.207,17.474,11.429,28.008,11.429s20.596-4.222,28.008-11.429c7.412,7.207,17.474,11.429,28.008,11.429
	c0.045,0,0.09-0.003,0.136-0.003v74.825C396.925,346.081,352.468,390.539,297.822,390.539z M101.578,230.441
	c-3.355,0.303-6.579,1.06-9.613,2.21V208.78c3.102,2.139,6.504,3.9,10.094,5.207C101.753,214.805,101.578,230.441,101.578,230.441z
	 M83.29,266.889c0-9.917,8.669-18.295,17.79-20.826v41.653C91.958,285.184,83.29,276.806,83.29,266.889z M421.535,233.255
	c-3.017-1.3-6.244-2.199-9.613-2.644c0,0-0.175-15.806-0.48-16.623c3.59-1.307,6.992-3.068,10.093-5.207L421.535,233.255
	L421.535,233.255z M412.874,246.063c9.122,2.532,15.836,10.91,15.836,20.827c0,5.458-2.04,10.668-5.743,14.67
	c-2.791,3.016-6.262,5.119-10.093,6.169V246.063z M91.605,135.431c0-66.408,49.641-120.435,110.659-120.435h108.973
	c61.017,0,110.659,54.027,110.659,120.435v50.568c-3.805,8.979-14.361,15.618-25.106,15.618c-8.922,0-16.986-4.583-21.57-12.259
	c-1.353-2.266-3.798-3.654-6.438-3.654c-2.639,0-5.084,1.388-6.438,3.654c-4.585,7.677-12.648,12.26-21.571,12.26
	c-8.922,0-16.985-4.583-21.57-12.26c-1.353-2.266-3.798-3.654-6.438-3.654s-5.084,1.387-6.438,3.654
	c-4.585,7.677-12.648,12.26-21.571,12.26c-8.922,0-16.985-4.583-21.57-12.26c-1.353-2.266-3.798-3.654-6.438-3.654
	s-5.084,1.387-6.438,3.654c-4.585,7.677-12.648,12.26-21.57,12.26s-16.986-4.583-21.571-12.26c-1.353-2.266-3.798-3.654-6.438-3.654
	s-5.084,1.387-6.438,3.654c-4.585,7.677-12.648,12.26-21.57,12.26s-16.986-4.583-21.57-12.259c-1.353-2.266-3.798-3.654-6.438-3.654
	c-2.639,0-5.084,1.388-6.438,3.654c-4.585,7.677-12.648,12.26-21.571,12.26c-10.744,0-21.301-6.639-25.106-15.618v-50.57H91.605z
	 M281.559,495.44h-49.617v-20.008h49.617V495.44z M317.05,497.003h-20.495v-29.07c0-4.141-3.357-7.498-7.498-7.498h-64.614
	c-4.141,0-7.498,3.357-7.498,7.498v29.07H196.45v-22.165c0-4.141-3.357-7.498-7.498-7.498s-7.498,3.357-7.498,7.498v14.572h-10.581
	c-0.158,0-0.315,0.005-0.472,0.015c-25.671,1.622-45.423-4.016-58.703-16.752c-4.852-4.654-20.629-22.427-19.922-55.767
	c0.098-4.635,0.189-9.62,0.189-14.672V301.128c3.222,1.221,6.659,1.995,10.238,2.257c5.993,57.319,54.596,102.15,113.475,102.15
	h13.475v1.445c0,0.888,0,1.939-0.018,2.86c-0.66,0.1-1.39,0.202-2.082,0.299l-0.811,0.114c-8.313,1.17-16.315,4.391-23.139,9.313
	c-3.359,2.423-4.118,7.109-1.695,10.468c2.423,3.359,7.109,4.118,10.468,1.695c4.856-3.503,10.547-5.795,16.457-6.626l0.797-0.112
	c5.178-0.724,9.268-1.296,12.211-4.891c2.62-3.201,2.797-6.952,2.808-12.006h25.203c0.012,5.054,0.188,8.805,2.808,12.006
	c2.943,3.596,7.033,4.167,12.211,4.891l0.797,0.112c5.91,0.832,11.6,3.123,16.457,6.626c9.659,6.967,15.426,18.227,15.426,30.12
	v35.154H317.05z"/>
<g>
</g>
<g>
</g>
<g>
</g>
<g>
</g>
<g>
</g>
<g>
</g>
<g>
</g>
<g>
</g>
<g>
</g>
<g>
</g>
<g>
</g>
<g>
</g>
<g>
</g>
<g>
</g>
<g>
</g>
</svg>
