<?xml version="1.0" encoding="iso-8859-1"?>
<!-- Generator: Adobe Illustrator 19.0.0, SVG Export Plug-In . SVG Version: 6.00 Build 0)  -->
<svg version="1.1" id="Layer_1" xmlns="http://www.w3.org/2000/svg" xmlns:xlink="http://www.w3.org/1999/xlink" x="0px" y="0px"
	 viewBox="0 0 512.002 512.002" style="enable-background:new 0 0 512.002 512.002;" xml:space="preserve">
<path style="fill:#FFAA50;" d="M478.795,93.19l-59.983,51.414c0,0-17.138-68.552-68.552-85.69l-25.707-34.276
	C324.553,24.638,418.812-18.206,478.795,93.19z"/>
<path style="fill:#FF913C;" d="M459.699,109.558l-40.887,35.046c0,0-17.138-68.552-68.552-85.69l-5.765-7.686
	C374.262,47.606,421.787,53.078,459.699,109.558z"/>
<path style="fill:#B4E66E;" d="M324.553,24.638c0,0,15.278-6.928,37.431-7.961c1.766-0.027,3.487-0.105,5.331-0.028
	c3.192,9.495,6.819,26.974,5.289,54.275c-6.621-4.988-13.985-9.224-22.343-12.01L324.553,24.638z"/>
<path style="fill:#FFAA50;" d="M33.208,93.19l59.983,51.414c0,0,17.138-68.552,68.552-85.69l25.707-34.276
	C187.45,24.638,93.191-18.206,33.208,93.19z"/>
<path style="fill:#FF913C;" d="M52.304,109.558l40.887,35.046c0,0,17.138-68.552,68.552-85.69l5.765-7.686
	C137.741,47.606,90.216,53.078,52.304,109.558z"/>
<path style="fill:#B4E66E;" d="M187.45,24.638c0,0-15.278-6.928-37.431-7.961c-1.766-0.027-3.487-0.105-5.33-0.028
	c-3.192,9.495-6.819,26.974-5.289,54.275c6.621-4.988,13.985-9.224,22.343-12.01L187.45,24.638z"/>
<path style="fill:#FAD7A5;" d="M163.552,332.217l32.467-16.233V504.5h-51.414V362.874
	C144.605,349.891,151.94,338.023,163.552,332.217z"/>
<path style="fill:#B4E66E;" d="M358.85,320.753l-68.573-30.477h-68.552l-66.759,29.67c-5.197,2.31-6.743,8.948-3.103,13.317
	l31.614,37.936c2.566,3.08,3.972,6.962,3.972,10.971v113.761c0,4.733,3.836,8.569,8.569,8.569h137.103V375.966L358.85,320.753z"/>
<path style="fill:#A0D755;" d="M315.843,301.639l-25.566-11.362h-68.552l-25.566,11.362c1.47,31.821,27.658,57.189,59.842,57.189
	S314.373,333.46,315.843,301.639z"/>
<path style="fill:#FAD7A5;" d="M256.002,333.121L256.002,333.121c-18.93,0-34.276-15.346-34.276-34.276v-59.983h68.552v59.983
	C290.277,317.775,274.932,333.121,256.002,333.121z"/>
<path style="fill:#F0C891;" d="M221.726,285.242c10.868,3.237,22.357,5.034,34.276,5.034s23.408-1.797,34.276-5.034v-46.38h-68.552
	V285.242z"/>
<path style="fill:#FFE1B4;" d="M358.829,136.035L358.829,136.035v-17.138H153.174v17.138l0,0c-9.465,0-17.138,7.673-17.138,17.138
	s7.673,17.138,17.138,17.138h8.569c0,52.058,42.201,94.259,94.259,94.259s94.259-42.201,94.259-94.259h8.569
	c9.465,0,17.138-7.673,17.138-17.138C375.967,143.708,368.294,136.035,358.829,136.035z"/>
<path style="fill:#FAD7A5;" d="M358.829,144.604v-25.707H153.174v17.138h0.917c-8.537,0-16.45,5.834-17.821,14.26
	c-1.746,10.737,6.495,20.016,16.903,20.016h8.569c0,52.058,42.201,94.259,94.259,94.259c8.924,0,17.525-1.323,25.707-3.641
	c-39.546-11.201-68.552-47.484-68.552-90.618v-17.138c0-4.732,3.836-8.569,17.138-8.569L358.829,144.604L358.829,144.604z"/>
<path style="fill:#FFAA50;" d="M264.571,7.5h-17.138c-52.058,0-94.259,42.201-94.259,94.259v17.138h205.655v-17.138
	C358.829,49.701,316.628,7.5,264.571,7.5z"/>
<g>
	<path style="fill:#FF913C;" d="M281.708,9.132C276.143,8.109,270.432,7.5,264.57,7.5h-17.138
		c-52.058,0-94.259,42.201-94.259,94.259v17.138h51.414v-17.138C204.588,55.563,237.846,17.202,281.708,9.132z"/>
	<polygon style="fill:#FF913C;" points="401.674,435.763 333.122,435.763 324.553,504.5 410.243,504.5 	"/>
</g>
<path style="fill:#D77431;" d="M327.898,477.668c11.827,6.16,25.242,9.694,39.5,9.694s27.672-3.534,39.5-9.694l-5.224-41.905
	h-68.552L327.898,477.668z"/>
<path style="fill:#FFAA50;" d="M415.282,334.938l-21.543,18.797l-1.025-0.393c-7.701-2.064-16.247-3.268-25.316-3.268
	c-9.223,0-17.918,1.231-25.717,3.361l-0.994,0.002l-21.173-18.499c-4.72-4.124-12.099-0.772-12.099,5.495v61.054
	c0,33.127,26.855,59.983,59.983,59.983s59.983-26.855,59.983-59.983v-61.054C427.381,334.166,420.002,330.814,415.282,334.938z"/>
<g>
	<path style="fill:#FF913C;" d="M341.691,405.772c0-23.748,11.193-44.436,27.796-55.562c-0.712-0.015-1.37-0.137-2.089-0.137
		c-9.223,0-17.918,1.231-25.717,3.361l-0.994,0.002l-21.173-18.499c-4.72-4.124-12.099-0.772-12.099,5.495v61.054
		c0,33.127,26.855,59.983,59.983,59.983c0.719,0,1.417-0.083,2.13-0.108C352.903,450.243,341.691,429.54,341.691,405.772z"/>
	<path style="fill:#FF913C;" d="M415.282,334.938l-21.543,18.797c3.601,0.991,7.085,2.095,10.217,3.48
		c5.602,2.476,10.405,6.565,13.748,11.698c6.107,9.376,9.677,20.548,9.677,32.575v-61.054
		C427.381,334.166,420.002,330.814,415.282,334.938z"/>
</g>
<path d="M213.157,145.672c-4.142,0-7.5,3.358-7.5,7.5v8.569c0,4.142,3.358,7.5,7.5,7.5s7.5-3.358,7.5-7.5v-8.569
	C220.657,149.03,217.299,145.672,213.157,145.672z"/>
<path d="M298.846,145.672c-4.142,0-7.5,3.358-7.5,7.5v8.569c0,4.142,3.358,7.5,7.5,7.5s7.5-3.358,7.5-7.5v-8.569
	C306.346,149.03,302.988,145.672,298.846,145.672z"/>
<path d="M276.946,198.792c-5.307,4.362-12.94,6.863-20.945,6.863s-15.638-2.501-20.945-6.863c-3.201-2.631-7.926-2.168-10.556,1.032
	s-2.168,7.926,1.032,10.556c8.062,6.626,18.882,10.275,30.469,10.275c11.587,0,22.408-3.649,30.469-10.275
	c3.2-2.63,3.662-7.356,1.032-10.556C284.872,196.624,280.146,196.161,276.946,198.792z"/>
<path d="M485.398,89.634C467.437,56.278,434.564,15.329,379.952,9.68c-31.087-3.216-54.971,6.591-58.158,7.978
	C305.478,6.521,285.772,0,264.57,0h-17.138c-21.202,0-40.907,6.521-57.224,17.658c-3.187-1.387-27.073-11.195-58.158-7.978
	C77.439,15.329,44.566,56.278,26.605,89.634c-1.672,3.105-0.955,6.955,1.723,9.25l59.982,51.414
	c1.377,1.181,3.113,1.803,4.878,1.803c0.762,0,1.529-0.116,2.275-0.353c2.475-0.786,4.368-2.801,5.002-5.319
	c0.145-0.576,13.401-51.61,49.447-73.741c-2.752,9.216-4.238,18.972-4.238,29.071v17.138v10.805
	c-9.929,3.18-17.138,12.5-17.138,23.471c0,13.585,11.052,24.638,24.638,24.638h1.342c2.78,38.011,26.536,70.285,59.709,85.28v22.312
	l-62.305,27.691c-4.645,2.064-7.97,6.087-9.124,11.037c-1.102,4.726-0.031,9.557,2.897,13.384
	c-5.512,7.237-8.589,16.185-8.589,25.36V504.5c0,4.142,3.358,7.5,7.5,7.5s7.5-3.358,7.5-7.5V362.873
	c0-4.696,1.263-9.297,3.569-13.323L177.716,376c1.44,1.729,2.234,3.92,2.234,6.17V504.5c0,4.142,3.358,7.5,7.5,7.5
	s7.5-3.358,7.5-7.5V382.17c0-5.752-2.028-11.354-5.71-15.773l-31.614-37.936c-0.226-0.271-0.3-0.583-0.22-0.927
	s0.284-0.591,0.607-0.734l56.326-25.034c1.506,21.676,19.61,38.854,41.662,38.854s40.156-17.178,41.662-38.854l58.14,25.84
	c0.99,0.44,2.024,0.648,3.042,0.648c2.874,0,5.616-1.661,6.858-4.456c1.682-3.785-0.022-8.218-3.808-9.9l-64.119-28.497V263.09
	c33.173-14.995,56.929-47.268,59.709-85.28h1.342c13.585,0,24.638-11.052,24.638-24.638c0-10.971-7.209-20.291-17.138-23.471
	v-10.805v-17.138c0-10.098-1.486-19.855-4.238-29.071c36.045,22.132,49.302,73.165,49.445,73.735
	c0.63,2.522,2.521,4.537,4.998,5.327c0.747,0.238,1.515,0.354,2.277,0.354c1.766,0,3.503-0.624,4.881-1.806l59.982-51.414
	C486.353,96.589,487.07,92.739,485.398,89.634z M135.04,64.634c-25.938,19.354-39.729,50.284-45.609,66.868L42.739,91.481
	C65.879,51.172,96.2,28.706,132.94,24.67c2.523-0.277,4.993-0.449,7.406-0.542C136.39,32.652,132.968,45.869,135.04,64.634z
	 M247.433,15h17.138c47.839,0,86.759,38.92,86.759,86.759v9.638H160.674v-9.638C160.674,53.92,199.594,15,247.433,15z
	 M149.433,55.869c-0.538-17.76,4.949-27.375,7.751-31.087c8.014,0.92,14.704,2.546,19.443,3.967
	c-7.049,6.838-13.113,14.684-17.959,23.303C155.463,53.154,152.389,54.437,149.433,55.869z M282.777,290.13c0,0.008,0,0.015,0,0.023
	v8.692c0,14.764-12.012,26.776-26.776,26.776s-26.776-12.011-26.776-26.776v-8.692c0-0.008,0-0.016,0-0.023v-21.636
	c8.535,2.33,17.512,3.575,26.776,3.575s18.241-1.246,26.776-3.575V290.13z M368.467,153.172c0,5.314-4.323,9.638-9.638,9.638h-8.569
	c-4.142,0-7.5,3.358-7.5,7.5c0,47.839-38.92,86.759-86.759,86.759s-86.759-38.92-86.759-86.759c0-4.142-3.358-7.5-7.5-7.5h-8.569
	c-5.314,0-9.638-4.323-9.638-9.638s4.323-9.638,9.638-9.638c4.142,0,7.5-3.358,7.5-7.5v-9.638h190.655v9.638
	c0,4.142,3.358,7.5,7.5,7.5C364.144,143.534,368.467,147.858,368.467,153.172z M362.57,55.869c-2.956-1.432-6.03-2.716-9.235-3.817
	c-4.85-8.627-10.92-16.479-17.977-23.321c4.725-1.425,11.408-3.053,19.446-3.969C357.601,28.46,363.109,38.078,362.57,55.869z
	 M422.572,131.502c-5.88-16.584-19.671-47.514-45.609-66.868c2.072-18.766-1.35-31.983-5.306-40.506
	c2.203,0.086,4.453,0.235,6.752,0.473c37.031,3.831,67.573,26.32,90.855,66.88L422.572,131.502z"/>
<path d="M426.203,327.146c-5.354-2.431-11.429-1.539-15.856,2.329l-18.404,16.08c-7.763-1.835-16.061-2.796-24.545-2.796
	s-16.782,0.961-24.545,2.796l-18.404-16.08c-4.427-3.868-10.503-4.761-15.856-2.329c-5.353,2.431-8.678,7.594-8.678,13.473v61.054
	c0,21.3,9.93,40.313,25.391,52.69l-8.151,48.905c-0.681,4.086,2.079,7.95,6.165,8.631c0.417,0.07,0.833,0.103,1.242,0.103
	c3.6,0,6.777-2.6,7.389-6.268l7.137-42.825c8.616,3.999,18.202,6.248,28.309,6.248s19.694-2.248,28.309-6.248l7.137,42.825
	c0.611,3.668,3.789,6.268,7.389,6.268c0.41,0,0.825-0.034,1.242-0.103c4.086-0.681,6.846-4.545,6.165-8.631l-8.151-48.905
	c15.461-12.377,25.391-31.39,25.391-52.69v-61.054C434.881,334.739,431.556,329.577,426.203,327.146z M419.881,401.672
	c0,28.939-23.544,52.483-52.483,52.483s-52.483-23.544-52.483-52.483l0.001-60.607l12.302,10.748
	c-1.586,2.033-2.086,4.826-1.062,7.394c1.535,3.847,5.898,5.722,9.745,4.187c9.24-3.687,20.132-5.635,31.497-5.635
	s22.256,1.949,31.497,5.635c0.912,0.364,1.852,0.536,2.777,0.536c2.979,0,5.797-1.787,6.968-4.723
	c1.025-2.567,0.524-5.36-1.061-7.394l12.303-10.748v60.607H419.881z"/>
<path d="M394.87,420.292c-3.908-1.375-8.19,0.676-9.566,4.583c-0.752,2.138-2.783,3.574-5.052,3.574
	c-2.952,0-5.354-2.401-5.354-5.354c0-4.142-3.358-7.5-7.5-7.5s-7.5,3.358-7.5,7.5c0,2.952-2.401,5.354-5.354,5.354
	c-2.269,0-4.3-1.436-5.052-3.574c-1.376-3.907-5.66-5.957-9.566-4.583c-3.907,1.376-5.958,5.659-4.583,9.566
	c2.863,8.129,10.58,13.59,19.201,13.59c4.872,0,9.346-1.724,12.854-4.589c3.507,2.865,7.982,4.589,12.854,4.589
	c8.621,0,16.337-5.461,19.201-13.59C400.828,425.951,398.776,421.668,394.87,420.292z"/>
<circle cx="341.421" cy="401.5" r="7.5"/>
<circle cx="393.421" cy="401.5" r="7.5"/>
<g>
</g>
<g>
</g>
<g>
</g>
<g>
</g>
<g>
</g>
<g>
</g>
<g>
</g>
<g>
</g>
<g>
</g>
<g>
</g>
<g>
</g>
<g>
</g>
<g>
</g>
<g>
</g>
<g>
</g>
</svg>
