<?xml version="1.0" encoding="iso-8859-1"?>
<!-- Generator: Adobe Illustrator 19.0.0, SVG Export Plug-In . SVG Version: 6.00 Build 0)  -->
<svg version="1.1" id="Capa_1" xmlns="http://www.w3.org/2000/svg" xmlns:xlink="http://www.w3.org/1999/xlink" x="0px" y="0px"
	 viewBox="0 0 511.999 511.999" style="enable-background:new 0 0 511.999 511.999;" xml:space="preserve">
<path style="fill:#F0D0B4;" d="M297.29,400.82h-82.576c-59.324,0-107.415-48.091-107.415-107.415V87.755h297.405v205.65
	C404.705,352.729,356.613,400.82,297.29,400.82z"/>
<path style="fill:#ECC19C;" d="M404.708,122.768v170.704c0,59.292-48.065,107.343-107.343,107.343h-42.438
	c59.292,0,107.343-48.051,107.343-107.343V122.768H404.708z"/>
<path style="fill:#F2B844;" d="M415.153,365.17c-36.26-28.202,0-62.834,0-62.834c24.64-19.7,15.673-43.646,9.698-68.633
	c-7.569-31.655-3.504-71.224-3.504-103.683c0-3.173-0.111-6.317-0.33-9.429c-0.926-13.185-3.787-25.782-8.263-37.47
	c-0.101-0.264-0.197-0.532-0.3-0.795c-0.036-0.092-0.075-0.183-0.111-0.275C395.102,38.223,354.959,7.495,308.185,7.495H203.819
	c-62.497,0-113.161,54.856-113.162,122.524c0,31.659-1.652,65.419-7.207,97.456c-4.338,25.017-8.493,56.811,14.083,74.861
	c0,0,36.26,34.632,0,62.834c0,0-42.514,35.742,7.618,73.652c2.325,1.759,5.562-0.521,4.669-3.296
	c-3.94-12.242-6.984-34.522,13.229-52.898c0,0,44.788-42.3,5.04-102.95c-10.556-16.107-9.745-39.978,1.937-55.883
	c14.602-19.883,46.313-20.245,67.14-32.306c37.921-21.96,56.15-58.368,58.836-101.179c-1.888,30.084,14.07,64.079,35.551,84.176
	c15.644,14.636,35.253,24.393,55.368,31.286c33.827,11.592,61.898,36.948,37.678,73.904c-39.75,60.651,5.039,102.952,5.039,102.952
	c20.213,18.375,17.169,40.656,13.229,52.898c-0.893,2.775,2.343,5.055,4.669,3.296C457.667,400.912,415.153,365.17,415.153,365.17z"
	/>
<path style="fill:#E59E2C;" d="M407.539,438.823c-2.325,1.759-5.562-0.521-4.669-3.296c3.939-12.241,6.982-34.519-13.23-52.893
	c0,0-44.788-42.303-5.036-102.951c19.298-29.451,5.385-51.529-18.17-65.147c-6.863-31.264-2.995-69.74-2.995-101.447
	c0-3.169-0.107-6.312-0.322-9.428c-0.927-13.188-3.787-25.785-8.273-37.469c-0.094-0.269-0.188-0.537-0.295-0.792
	c-0.04-0.094-0.081-0.188-0.107-0.282c-9.522-24.187-26.013-44.385-46.748-57.626h0.497c46.775,0,86.916,30.727,104.146,74.561
	c0.04,0.094,0.081,0.175,0.121,0.269c0.094,0.269,0.201,0.537,0.295,0.806c4.472,11.684,7.333,24.281,8.259,37.469
	c0.228,3.102,0.336,6.258,0.336,9.428c0,32.459-4.069,72.023,3.505,103.676c5.976,24.992,14.947,48.937-9.696,68.639
	c0,0-36.26,34.635,0,62.837C415.156,365.174,457.67,400.91,407.539,438.823z"/>
<path d="M97.972,85.927c3.813,1.613,8.21-0.168,9.824-3.98c17.218-40.674,54.91-66.956,96.023-66.956h104.366
	c42.356,0,80.502,27.4,97.185,69.812l0.384,1c4.311,11.253,6.93,23.135,7.786,35.314c0.207,2.946,0.312,5.942,0.312,8.904
	c0,7.79-0.344,18.932-0.647,28.763c-0.098,3.187-0.192,6.245-0.27,9.023c-0.116,4.138,3.145,7.586,7.283,7.701
	c0.072,0.002,0.142,0.003,0.213,0.003c4.042,0,7.375-3.22,7.488-7.286c0.077-2.765,0.171-5.808,0.269-8.98
	c0.306-9.938,0.653-21.203,0.653-29.225c0-3.311-0.117-6.66-0.349-9.954c-0.96-13.658-3.901-26.99-8.738-39.619l-0.438-1.141
	C400.366,31.13,356.744,0,308.185,0H203.819c-47.147,0-90.257,29.872-109.827,76.102C92.378,79.914,94.16,84.313,97.972,85.927z"/>
<circle style="fill:#FFFFFF;" cx="255.999" cy="341.6" r="19.646"/>
<path style="fill:#F3D1BB;" d="M323.772,504.505V461.87c0-14.236-6.985-27.859-18.529-36.186c-5.834-4.208-12.667-6.964-19.79-7.967
	c-9.237-1.3-9.36-1.02-9.36-10.693c0-0.026,0-6.382,0-6.382h-40.181c0,0,0,6.357,0,6.382c0,9.673-0.123,9.392-9.36,10.693
	c-7.123,1.003-13.956,3.759-19.79,7.967c-11.545,8.327-18.529,21.95-18.529,36.186v42.635H323.772z"/>
<path style="fill:#814F97;" d="M323.768,461.873v42.632H188.237v-42.632c0-14.241,6.975-27.862,18.518-36.186
	c3.728-2.688,7.865-4.787,12.222-6.206c2.468-0.8,5.007-1.399,7.575-1.769c2.209-0.31,3.897-0.53,5.177-0.809
	c7.675,13.517,18.387,32.73,22.546,40.201c0.763,1.37,2.732,1.37,3.493-0.001c4.138-7.45,14.643-26.347,22.508-40.2
	c1.279,0.28,2.968,0.5,5.177,0.809c2.568,0.37,5.107,0.969,7.575,1.769c4.357,1.419,8.494,3.518,12.222,6.206
	C316.792,434.011,323.768,447.632,323.768,461.873z"/>
<path d="M420.017,359.433c-0.073-0.061-0.146-0.121-0.222-0.179c-8.448-6.571-12.762-13.64-13.188-21.61
	c-0.783-14.648,11.914-28.018,13.584-29.709c25.79-20.872,19.341-46.58,13.646-69.272c-0.558-2.225-1.119-4.459-1.656-6.703
	c-0.868-3.63-1.612-7.553-2.213-11.661c-0.599-4.096-4.405-6.936-8.5-6.332c-4.096,0.599-6.931,4.404-6.332,8.5
	c0.665,4.548,1.494,8.915,2.466,12.978c0.549,2.298,1.124,4.587,1.696,6.866c6.11,24.346,8.954,39.988-8.785,54.171
	c-0.172,0.137-0.337,0.282-0.496,0.434c-0.798,0.762-19.525,18.92-18.383,41.424c0.628,12.382,6.953,23.357,18.803,32.626
	c1.09,0.968,15.122,13.816,14.025,30.147c-0.526,7.829-4.374,15.522-11.482,23c1.406-14.781-2.186-32.372-18.188-46.963
	c-0.635-0.616-10.047-9.935-15.449-25.682c-7.476-21.792-3.584-44.563,11.566-67.679c10.136-15.465,12.851-30.377,8.072-44.32
	c-5.959-17.384-23.57-31.868-49.589-40.784c-22.261-7.628-39.492-17.333-52.677-29.669c-21.189-19.823-34.838-51.994-33.191-78.233
	c0.259-4.131-2.88-7.691-7.011-7.95c-4.14-0.249-7.691,2.879-7.95,7.011c-2.695,42.937-21.752,75.843-55.112,95.162
	c-7.127,4.127-15.903,6.816-25.194,9.663c-16.556,5.073-33.675,10.319-44.231,24.692c-13.592,18.507-14.502,45.603-2.165,64.428
	c22.293,34.016,15.828,61.377,7.446,77.499c-0.439,0.59-0.78,1.231-1.024,1.901c-4.674,8.369-9.601,13.279-10.306,13.96
	c-16.007,14.592-19.596,32.182-18.189,46.963c-7.077-7.446-10.923-15.104-11.475-22.899c-1.166-16.456,12.916-29.272,14.017-30.246
	c11.849-9.268,18.176-20.245,18.804-32.627c1.142-22.503-17.586-40.661-18.383-41.424c-0.159-0.152-0.325-0.297-0.496-0.434
	C83.516,281.5,86.359,254.81,90.876,228.755c4.879-28.137,7.272-60.084,7.317-97.666c0.005-4.139-3.347-7.499-7.486-7.504
	c-0.003,0-0.006,0-0.009,0c-4.135,0-7.49,3.35-7.495,7.486c-0.043,36.72-2.365,67.835-7.096,95.123
	c-3.89,22.435-10.391,59.926,16.464,81.735c1.641,1.671,14.331,15.104,13.593,29.65c-0.406,7.996-4.721,15.086-13.191,21.674
	c-0.075,0.058-0.149,0.118-0.222,0.179c-0.861,0.724-21.059,18.004-19.401,42.683c1.206,17.937,13.428,34.391,36.327,48.905
	c2.901,1.837,6.672,1.457,9.164-0.906c2.492-2.364,3.051-6.13,1.368-9.124c-0.693-1.232-16.69-30.441,7.923-52.817
	c0.035-0.032,0.07-0.064,0.105-0.097c0.28-0.265,4.039-3.866,8.489-10.294c21.122,19.505,49.019,30.532,77.959,30.532h13.771
	c-0.002,0.53-0.006,1.068-0.016,1.568c-0.66,0.1-1.389,0.202-2.081,0.299l-0.811,0.114c-8.309,1.17-16.308,4.389-23.13,9.309
	c-13.55,9.774-21.64,25.574-21.64,42.265v42.635c0,4.139,3.356,7.495,7.495,7.495h135.539c4.139,0,7.495-3.356,7.495-7.495V461.87
	c0-16.691-8.089-32.491-21.64-42.265c-6.822-4.921-14.82-8.14-23.129-9.309l-0.811-0.114c-0.692-0.097-1.421-0.199-2.081-0.299
	c-0.01-0.5-0.014-1.038-0.016-1.568h13.771c29.451,0,57.055-10.931,78.383-30.906c4.563,6.665,8.462,10.398,8.748,10.668
	c0.034,0.033,0.069,0.065,0.104,0.097c24.613,22.376,8.616,51.585,7.937,52.794c-1.711,2.99-1.164,6.761,1.326,9.141
	c1.434,1.371,3.3,2.077,5.181,2.077c1.384,0,2.777-0.383,4.011-1.164c22.9-14.513,35.122-30.968,36.327-48.905
	C441.076,377.437,420.878,360.157,420.017,359.433z M284.308,425.12l0.141,0.02c5.907,0.831,11.595,3.122,16.45,6.624
	c9.655,6.964,15.419,18.219,15.419,30.107v35.14h-17.932v-16.729c0-4.139-3.356-7.495-7.495-7.495s-7.495,3.356-7.495,7.495v16.729
	h-54.704v-16.729c0-4.139-3.356-7.495-7.495-7.495s-7.495,3.356-7.495,7.495v16.729H195.77v-35.14
	c0-11.888,5.764-23.143,15.419-30.107c4.854-3.502,10.542-5.792,16.45-6.624l0.137-0.019l21.705,38.859
	c1.324,2.371,3.826,3.839,6.541,3.84c0.001,0,0.001,0,0.002,0c2.714,0,5.216-1.467,6.541-3.835L284.308,425.12z M270.59,418.936
	l-14.562,26.028l-14.536-26.023c1.781-2.897,1.939-6.278,1.953-10.625h25.195C268.654,412.66,268.812,416.04,270.59,418.936z
	 M297.401,393.325h-19.659c-0.519-0.114-1.056-0.178-1.609-0.178l-61.449,0.178c-26.331,0-51.673-10.495-70.307-28.955
	c1.153-2.506,2.248-5.185,3.227-8.041c6.226-18.149,8.989-46.892-13.206-80.759c-8.887-13.56-8.152-33.911,1.709-47.339
	c7.616-10.37,21.666-14.675,36.541-19.232c9.688-2.969,19.705-6.038,28.314-11.024c26.133-15.134,44.531-37.452,54.43-65.644
	c6.541,17.836,17.352,34.784,31.081,47.628c14.763,13.811,33.754,24.574,58.06,32.903c21.23,7.275,35.907,18.744,40.268,31.464
	c3.201,9.337,1.038,19.848-6.429,31.241c-22.196,33.867-19.434,62.611-13.208,80.761c0.919,2.678,1.938,5.2,3.012,7.57
	C349.3,382.884,324.234,393.325,297.401,393.325z"/>
<g>
	<circle style="fill:#E8979F;" cx="179.269" cy="315.15" r="15.565"/>
	<circle style="fill:#E8979F;" cx="332.739" cy="315.15" r="15.565"/>
</g>
<path d="M212.657,284.377c-4.139,0-7.495-3.356-7.495-7.495v-38.104c0-4.139,3.356-7.495,7.495-7.495s7.495,3.356,7.495,7.495
	v38.104C220.152,281.021,216.797,284.377,212.657,284.377z"/>
<path d="M299.428,284.377c-4.139,0-7.495-3.356-7.495-7.495v-38.104c0-4.139,3.356-7.495,7.495-7.495s7.495,3.356,7.495,7.495
	v38.104C306.923,281.021,303.567,284.377,299.428,284.377z"/>
<path d="M256.043,368.741c-14.966,0-27.141-12.175-27.141-27.141c0-14.965,12.175-27.14,27.141-27.14
	c14.965,0,27.14,12.175,27.14,27.14C283.183,356.566,271.008,368.741,256.043,368.741z M256.043,329.45
	c-6.7,0-12.151,5.451-12.151,12.15s5.451,12.151,12.151,12.151c6.7,0,12.15-5.451,12.15-12.151S262.743,329.45,256.043,329.45z"/>
<path d="M256.147,305.102c-9.528,0-18.083-5.67-21.794-14.445c-1.676-3.961,0.177-8.53,4.138-10.205s8.53,0.176,10.205,4.139
	c1.269,3,4.193,4.938,7.451,4.938c3.097,0,5.964-1.808,7.301-4.606c1.854-3.881,6.505-5.521,10.383-3.667
	c3.88,1.854,5.522,6.503,3.667,10.383C273.589,299.817,265.208,305.102,256.147,305.102z"/>
<g>
</g>
<g>
</g>
<g>
</g>
<g>
</g>
<g>
</g>
<g>
</g>
<g>
</g>
<g>
</g>
<g>
</g>
<g>
</g>
<g>
</g>
<g>
</g>
<g>
</g>
<g>
</g>
<g>
</g>
</svg>
