<?xml version="1.0" encoding="iso-8859-1"?>
<!-- Generator: Adobe Illustrator 19.0.0, SVG Export Plug-In . SVG Version: 6.00 Build 0)  -->
<svg version="1.1" id="Capa_1" xmlns="http://www.w3.org/2000/svg" xmlns:xlink="http://www.w3.org/1999/xlink" x="0px" y="0px"
	 viewBox="0 0 512.002 512.002" style="enable-background:new 0 0 512.002 512.002;" xml:space="preserve">
<path style="fill:#423D34;" d="M415.276,372.191V117.314H260.579h-8.656H97.226V372.19c0,20.953-6.395,41.294-18.171,58.375
	c-3.033,4.398,0.174,10.394,5.516,10.394h167.351h8.656H427.93c5.342,0,8.549-5.995,5.516-10.394
	C421.672,413.485,415.276,393.143,415.276,372.191z"/>
<path style="fill:#33302A;" d="M427.928,440.954h-32.661c5.345,0,8.545-5.985,5.519-10.385c-11.772-17.09-18.17-37.421-18.17-58.376
	V117.317h32.661v254.876c0,20.957,6.399,41.286,18.17,58.376C436.473,434.968,433.273,440.954,427.928,440.954z"/>
<path style="fill:#F3D1BB;" d="M108.64,80.99v151.917h-2.371c-16.09,0-29.134,13.043-29.134,29.134
	c0,16.09,13.043,29.134,29.134,29.134h2.371v0.437c0,58.849,47.707,106.556,106.556,106.556h20.938c0,4.84,0,8.713,0,8.722
	c0,9.685-0.124,9.405-9.372,10.707c-7.132,1.004-13.974,3.764-19.816,7.977c-11.56,8.338-18.554,21.978-18.554,36.233v42.69h135.715
	v-42.691c0-14.254-6.994-27.896-18.554-36.233c-5.841-4.213-12.682-6.973-19.816-7.977c-9.249-1.302-9.372-1.021-9.372-10.707
	c0-0.01,0-3.882,0-8.722h20.938c58.849,0,106.556-47.707,106.556-106.556V80.99H108.64z"/>
<path style="fill:#77E8D2;" d="M324.105,461.807v42.688H188.398v-42.688c0-14.258,6.988-27.898,18.546-36.232
	c3.733-2.692,7.872-4.789,12.239-6.213c2.465-0.806,5.008-1.401,7.583-1.769c3.772-0.532,6.025-0.79,7.371-1.581l1.73,0.383
	l4.358,2.465c9.852,5.587,21.895,5.626,31.786,0.11l4.624-2.575l1.73-0.383c1.346,0.79,3.6,1.049,7.371,1.581
	c2.575,0.368,5.117,0.963,7.583,1.769c4.366,1.424,8.506,3.522,12.239,6.213C317.117,433.909,324.105,447.55,324.105,461.807z"/>
<rect x="221.355" y="480.243" style="fill:#32B2AC;" width="69.785" height="22.69"/>
<path style="fill:#E8C0A8;" d="M405.732,237.544h-1.866V122.156H361.74v169.451c0,58.857-47.698,106.555-106.555,106.555h42.126
	c57.435,0,104.257-45.445,106.464-102.352h1.957c8.454,0,16.067-3.601,21.389-9.353c4.806-5.195,7.744-12.145,7.744-19.78l0,0
	C434.865,250.587,421.822,237.544,405.732,237.544z"/>
<g>
	<circle style="fill:#E8979F;" cx="170.051" cy="320.472" r="15.876"/>
	<circle style="fill:#E8979F;" cx="342.45" cy="320.472" r="15.876"/>
</g>
<path style="fill:#423D34;" d="M310.715,7.505H201.788c-65.229,0-118.107,57.253-118.107,127.879v89.188
	c0,2.981,2.599,5.301,5.561,4.971c137.301-15.308,163.294-76.385,167.009-135.607c3.716,59.221,29.708,120.299,167.009,135.607
	c2.963,0.33,5.561-1.991,5.561-4.971v-89.188C428.822,64.758,375.943,7.505,310.715,7.505z"/>
<path style="fill:#33302A;" d="M428.821,135.38v89.197c0,2.983-2.603,5.301-5.566,4.971c-14.448-1.611-27.671-3.737-39.758-6.303
	v-87.865C383.495,64.752,330.612,7.509,265.383,7.509h45.326C375.937,7.509,428.821,64.752,428.821,135.38z"/>
<g>
	<circle style="fill:#E4F4F1;" cx="199.317" cy="268.878" r="39.705"/>
	<circle style="fill:#E4F4F1;" cx="313.184" cy="268.878" r="39.705"/>
</g>
<path d="M256.251,370.547c-19.49,0-35.347-15.856-35.347-35.347v-1.276c0-4.145,3.36-7.505,7.505-7.505
	c4.146,0,7.505,3.36,7.505,7.505v1.276c0,11.215,9.123,20.338,20.338,20.338c11.215,0,20.338-9.123,20.338-20.338v-1.276
	c0-4.145,3.36-7.505,7.505-7.505s7.505,3.36,7.505,7.505v1.276C291.598,354.691,275.741,370.547,256.251,370.547z"/>
<path d="M427.533,401.915c-1.292-3.938-5.53-6.083-9.47-4.792c-3.938,1.292-6.083,5.532-4.791,9.47
	c3.12,9.511,7.512,18.539,13.067,26.862H323.193c-3.478-5.372-7.936-10.138-13.247-13.968c-6.832-4.927-14.84-8.15-23.159-9.322
	l-0.812-0.114c-0.693-0.097-1.424-0.199-2.084-0.299c-0.019-0.922-0.019-1.973-0.019-2.863v-1.218h13.433
	c53.083,0,97.802-36.453,110.465-85.638v32.695c0,4.145,3.36,7.505,7.505,7.505c4.146,0,7.505-3.361,7.505-7.505v-53.642
	c3.656-1.918,6.999-4.452,9.849-7.533l0.001-0.001c6.28-6.789,9.74-15.624,9.74-24.876c0-11.844-5.653-22.386-14.398-29.089
	c0.034,0.003,0.066,0.007,0.1,0.01c0.25,0.025,0.5,0.038,0.75,0.038c1.852,0,3.649-0.686,5.034-1.94
	c1.573-1.423,2.471-3.444,2.471-5.565v-94.747c0-26.881-7.292-52.856-21.087-75.115c-2.184-3.525-6.81-4.607-10.333-2.426
	c-3.523,2.184-4.608,6.809-2.426,10.332c12.324,19.884,18.836,43.124,18.836,67.209v86.386c-58.862-6.883-99.93-22.583-125.388-47.9
	c-19.751-19.642-29.978-45.19-32.187-80.401c-0.248-3.955-3.528-7.035-7.49-7.035c-3.963,0-7.242,3.081-7.49,7.035
	c-2.21,35.212-12.437,60.76-32.187,80.401c-25.458,25.317-66.526,41.018-125.388,47.9v-86.386
	c0-66.374,49.616-120.375,110.602-120.375h108.927c20.063,0,39.711,5.906,56.818,17.082c3.469,2.265,8.121,1.292,10.388-2.179
	c2.266-3.47,1.291-8.121-2.179-10.388C356.187,6.751,333.7,0,310.715,0H201.788C132.526,0,76.176,60.733,76.176,135.384v94.749
	c0,2.121,0.897,4.143,2.471,5.565c0.393,0.356,0.82,0.666,1.271,0.928c-6.361,6.593-10.286,15.552-10.286,25.415
	c0,14.248,8.182,26.611,20.09,32.664v77.487c0,19.417-5.825,38.129-16.845,54.116c-2.981,4.323-3.312,9.904-0.865,14.563
	c2.461,4.684,7.273,7.595,12.56,7.595h98.084c-1.148,4.313-1.768,8.792-1.769,13.341v42.69c0,4.145,3.36,7.505,7.505,7.505h135.716
	c4.146,0,7.505-3.361,7.505-7.505v-42.692c0-4.549-0.621-9.027-1.769-13.341h98.084c5.286,0,10.099-2.91,12.559-7.595
	c2.448-4.658,2.116-10.239-0.865-14.562C434.445,418.791,430.377,410.585,427.533,401.915z M411.51,245.833
	c9.13,2.534,15.851,10.919,15.851,20.844c0,5.461-2.042,10.676-5.748,14.683c-2.794,3.02-6.267,5.124-10.103,6.175V245.833z
	 M227.158,184.511c15.062-14.98,23.872-31.694,29.094-47.743c5.222,16.049,14.031,32.763,29.094,47.743
	c15.504,15.418,35.953,27.547,61.748,36.535h-36.295c-0.568,0-1.119,0.068-1.651,0.188c-22.56,1.898-40.704,19.514-43.42,41.834
	c-0.413-0.07-0.834-0.115-1.266-0.115h-17.7c-2.765-22.266-20.885-39.825-43.406-41.72c-0.532-0.12-1.083-0.188-1.651-0.188H165.41
	C191.204,212.058,211.654,199.929,227.158,184.511z M346.003,268.877c0,18.095-14.721,32.816-32.816,32.816
	c-18.095,0-32.816-14.721-32.816-32.816s14.721-32.816,32.816-32.816C331.282,236.061,346.003,250.782,346.003,268.877z
	 M232.131,268.877c0,18.095-14.721,32.816-32.816,32.816s-32.816-14.721-32.816-32.816s14.721-32.816,32.816-32.816
	C217.41,236.061,232.131,250.782,232.131,268.877z M116.145,236.056h48.433c-8.103,8.572-13.088,20.122-13.088,32.821
	c0,26.371,21.454,47.825,47.825,47.825c23.264,0,42.691-16.7,46.948-38.739h18.196c0.6,0,1.181-0.078,1.74-0.211
	c4.174,22.143,23.648,38.95,46.986,38.95c26.372,0,47.825-21.454,47.825-47.825c0-12.699-4.984-24.249-13.088-32.821h48.433v55.555
	c0,54.617-44.435,99.051-99.051,99.051h-82.109c-54.618,0-99.051-44.434-99.051-99.051v-55.555H116.145z M268.981,412.208
	c-11.095,4.255-20.541,1.74-25.44-0.303c0.076-1.213,0.094-2.506,0.097-3.902h25.225
	C268.867,409.515,268.887,410.909,268.981,412.208z M84.642,262.041c0-9.926,6.72-18.311,15.85-20.845v41.69
	C91.362,280.352,84.642,271.967,84.642,262.041z M86.165,433.454c12.153-18.197,18.567-39.343,18.567-61.264v-52.146
	c12.665,49.181,57.385,85.627,110.465,85.627h13.433v1.218c0,0.889,0,1.941-0.019,2.863c-0.66,0.1-1.391,0.202-2.084,0.299
	l-0.812,0.114c-8.319,1.171-16.328,4.394-23.159,9.322c-5.311,3.832-9.77,8.596-13.247,13.968H86.165V433.454z M228.864,495.426
	v-7.681h54.775v7.681H228.864z M316.604,496.991h-17.956V480.24c0-4.145-3.36-7.505-7.505-7.505h-69.785
	c-4.145,0-7.505,3.36-7.505,7.505v16.751h-17.956v-35.185c0-5.947,1.442-11.736,4.089-16.909c0.136-0.221,0.261-0.449,0.375-0.684
	c2.636-4.897,6.354-9.22,10.977-12.553c4.86-3.507,10.557-5.799,16.471-6.632l0.797-0.112c1.964-0.274,3.771-0.528,5.418-0.932
	c3.83,2.018,12.101,5.583,22.776,5.583c6.671,0,14.278-1.401,22.314-5.437c1.474,0.322,3.067,0.547,4.78,0.786l0.798,0.112
	c5.915,0.833,11.611,3.126,16.471,6.631c9.667,6.973,15.438,18.243,15.439,30.146v35.186H316.604z"/>
<g>
</g>
<g>
</g>
<g>
</g>
<g>
</g>
<g>
</g>
<g>
</g>
<g>
</g>
<g>
</g>
<g>
</g>
<g>
</g>
<g>
</g>
<g>
</g>
<g>
</g>
<g>
</g>
<g>
</g>
</svg>
