<?xml version="1.0" encoding="iso-8859-1"?>
<!-- Generator: Adobe Illustrator 19.0.0, SVG Export Plug-In . SVG Version: 6.00 Build 0)  -->
<svg version="1.1" id="Layer_1" xmlns="http://www.w3.org/2000/svg" xmlns:xlink="http://www.w3.org/1999/xlink" x="0px" y="0px"
	 viewBox="0 0 512.001 512.001" style="enable-background:new 0 0 512.001 512.001;" xml:space="preserve">
<path style="fill:#E6AF78;" d="M354.564,418.81v-18.388c0-9.737-5.501-18.638-14.21-22.992l-74.408-37.204
	c-8.709-4.354-14.21-13.256-14.21-22.992v-26.957h-85.69v26.956c0,9.737-5.501,18.639-14.21,22.993L77.429,377.43
	c-8.709,4.354-14.21,13.256-14.21,22.992v35.526c0,4.732,3.837,8.569,8.569,8.569V504.5h197.086L354.564,418.81z"/>
<path style="fill:#D29B6E;" d="M208.891,333.121c15.542,0,30.345-3.052,43.975-8.431c-0.724-2.385-1.13-4.888-1.13-7.457v-26.957
	h-85.69v26.956c0,2.57-0.406,5.072-1.13,7.457C178.546,330.068,193.35,333.121,208.891,333.121z"/>
<path style="fill:#00AAF0;" d="M268.874,504.5l85.69-85.69v-18.388c0-9.737-5.502-18.638-14.211-22.993l-58.806-29.404
	c-33.419,46.43-72.655,75.605-72.655,75.605s-39.235-29.175-72.654-75.605L77.43,377.429c-8.709,4.355-14.211,13.256-14.211,22.993
	v35.526c0,4.732,3.837,8.569,8.569,8.569h42.845V504.5H268.874z"/>
<path style="fill:#0096DC;" d="M63.219,400.422v35.526c0,4.733,3.836,8.569,8.569,8.569h42.845v-17.138l-44.457-44.457
	C65.809,387.604,63.219,393.8,63.219,400.422z"/>
<path style="fill:#B4F0FF;" d="M222.911,481.912L222.911,481.912c-30.118-30.118-30.118-78.948,0-109.065l94.259-94.259
	c30.117-30.117,78.948-30.117,109.065,0l0,0c30.117,30.117,30.117,78.948,0,109.065l-94.259,94.259
	C301.858,512.029,253.028,512.029,222.911,481.912z"/>
<circle style="fill:#F0C087;" cx="371.7" cy="333.12" r="42.845"/>
<path style="fill:#91E1F5;" d="M265.755,473.343c-30.117-30.117-30.117-78.948,0-109.065l94.259-94.259
	c5.613-5.612,11.876-10.172,18.546-13.692c-21.956-1.949-44.585,5.456-61.391,22.261l-94.259,94.259
	c-30.117,30.117-30.117,78.948,0,109.065c24.506,24.506,61.399,29.066,90.52,13.692C296.038,494.06,279.069,486.655,265.755,473.343
	z"/>
<path style="fill:#E6AF78;" d="M362.828,324.247c12.947-12.947,32.072-15.756,47.835-8.666c-2.073-4.609-4.881-8.971-8.666-12.756
	c-16.732-16.732-43.859-16.732-60.592,0c-16.732,16.732-16.732,43.859,0,60.592c3.786,3.786,8.147,6.593,12.756,8.666
	C347.074,356.32,349.882,337.194,362.828,324.247z"/>
<path style="fill:#785546;" d="M259.14,54.185c0.75-2.621,1.165-5.335,1.165-8.124c0-21.296-23.019-38.56-51.414-38.56
	s-51.414,17.264-51.414,38.56c0,2.654,0.359,5.245,1.04,7.749c-36.205,18.392-61.022,55.973-61.022,99.363v34.276
	c42.845-8.569,68.552-51.414,68.552-51.414c42.845,34.276,137.103,17.138,137.103,68.552c8.569-8.569,17.138-25.707,17.138-42.845
	v-5.423C320.288,112.55,295.686,73.336,259.14,54.185z"/>
<path style="fill:#553732;" d="M243.023,47.346c-9.109-3.021-18.709-4.97-28.747-5.443c-7.629-0.359-15.084,0.098-22.324,1.203
	c0.998-14.619,9.194-27.431,21.46-35.435c-1.492-0.098-2.995-0.172-4.521-0.172c-28.395,0-51.414,17.264-51.414,38.56
	c0,2.65,0.406,5.224,1.086,7.723c-36.231,18.384-61.069,55.98-61.069,99.389v34.276c42.845-8.569,68.552-51.414,68.552-51.414
	C166.467,136.371,157.478,67.483,243.023,47.346z"/>
<path style="fill:#F0C087;" d="M172.768,139.236c-3.813-1.729-8.284-0.628-10.667,2.814c-8.169,11.797-27.819,36.829-47.468,36.829
	c-9.465,0-17.138,7.673-17.138,17.138s7.673,17.138,17.138,17.138c0,58.54,53.366,104.617,114.103,92.233
	c43.273-8.823,74.539-48.291,74.413-92.455C302.986,155.17,238.923,169.234,172.768,139.236z"/>
<g>
	<path style="fill:#E6AF78;" d="M166.047,213.155v-74.064c-1.534,0.584-2.945,1.513-3.946,2.959
		c-8.169,11.797-27.819,36.829-47.468,36.829c-9.465,0-17.138,7.673-17.138,17.138s7.673,17.138,17.138,17.138
		c0,58.54,53.366,104.616,114.103,92.232c2.082-0.425,4.109-0.982,6.133-1.545C195.186,292.731,166.047,256.386,166.047,213.155z"/>
	<path style="fill:#E6AF78;" d="M366.697,415.635c-7.473-13.878-21.961-22.532-37.723-22.532h-15.779
		c-17.902,0-33.889,13.087-35.59,30.908c-1.951,20.443,14.072,37.644,34.114,37.644h12.286c3.01,0,5.799,1.579,7.348,4.16
		l23.21,38.684h59.983L366.697,415.635z"/>
</g>
<path style="fill:#D29B6E;" d="M323.178,435.948h-2.89c-9.465,0-17.138-7.673-17.138-17.138v-20.658
	c-17.138,3.52-24.48,14.695-25.546,25.859c-1.951,20.443,14.073,37.644,34.115,37.644h12.287c3.01,0,5.799,1.579,7.347,4.16
	l23.211,38.685h25.707l-35.293-56.469C340.28,440.514,332.041,435.948,323.178,435.948z"/>
<path d="M240.392,242.669c-2.63-3.2-7.357-3.662-10.556-1.032c-5.306,4.361-12.94,6.863-20.945,6.863
	c-8.004,0-15.638-2.501-20.945-6.863c-3.201-2.63-7.927-2.167-10.556,1.032c-2.63,3.2-2.168,7.926,1.032,10.556
	c8.062,6.626,18.882,10.275,30.469,10.275c11.587,0,22.408-3.649,30.469-10.275C242.561,250.595,243.023,245.869,240.392,242.669z"
	/>
<path d="M166.047,188.517c-4.142,0-7.5,3.358-7.5,7.5v8.569c0,4.142,3.358,7.5,7.5,7.5s7.5-3.358,7.5-7.5v-8.569
	C173.547,191.875,170.189,188.517,166.047,188.517z"/>
<path d="M251.736,212.086c4.142,0,7.5-3.358,7.5-7.5v-8.569c0-4.142-3.358-7.5-7.5-7.5s-7.5,3.358-7.5,7.5v8.569
	C244.236,208.729,247.594,212.086,251.736,212.086z"/>
<path d="M148.784,350.137l6.406-3.203c11.323-5.661,18.356-17.042,18.356-29.701v-8.684c11.297,4.168,23.308,6.334,35.533,6.334
	c7.015,0,14.103-0.708,21.155-2.146c22.576-4.603,43.116-17.258,57.836-35.634c14.626-18.258,22.645-41.054,22.579-64.19
	c-0.125-44.382-33.814-52.238-72.823-61.334c-18.989-4.428-40.512-9.446-61.96-19.172c-7.149-3.241-15.53-0.981-19.931,5.375
	c-14.568,21.038-30.008,33.599-41.302,33.599c-3.419,0-6.676,0.701-9.638,1.965v-20.172c0-57.289,46.608-103.896,103.897-103.896
	s103.896,46.608,103.896,103.896v17.138c0,4.142,3.357,7.5,7.5,7.5c4.142,0,7.5-3.358,7.5-7.5v-17.138
	c0-44.218-24.266-82.872-60.178-103.354c0.128-1.25,0.196-2.505,0.196-3.757C267.805,20.663,241.377,0,208.891,0
	c-32.485,0-58.914,20.663-58.914,46.061c0,1.253,0.064,2.51,0.193,3.759c-35.911,20.483-60.175,59.136-60.175,103.353v42.845
	c0,11.044,7.305,20.415,17.336,23.534c1.756,28.255,15.106,54.385,37.235,72.456c4.419,3.609,9.1,6.798,13.98,9.575v15.651
	c0,6.941-3.856,13.181-10.064,16.285l-74.407,37.203c-11.323,5.661-18.356,17.042-18.356,29.701v35.526
	c0,6.152,3.479,11.501,8.569,14.2V504.5c0,4.142,3.358,7.5,7.5,7.5s7.5-3.358,7.5-7.5v-52.483h27.845V504.5
	c0,4.142,3.358,7.5,7.5,7.5s7.5-3.358,7.5-7.5v-77.121c0-4.142-3.358-7.5-7.5-7.5s-7.5,3.358-7.5,7.5v9.638H71.788
	c-0.589,0-1.069-0.479-1.069-1.069v-35.526c0-6.941,3.856-13.181,10.064-16.285l54.573-27.286
	c11.193,20.015,33.141,40.793,34.119,41.714c1.448,1.363,3.295,2.039,5.139,2.039c1.996,0,3.987-0.792,5.463-2.36
	c2.839-3.016,2.695-7.763-0.321-10.602C179.536,387.436,158.933,367.94,148.784,350.137z M208.891,15
	c22.544,0,41.166,12.08,43.629,27.567c-13.514-5.349-28.234-8.291-43.629-8.291c-15.394,0-30.114,2.942-43.628,8.291
	C167.726,27.079,186.348,15,208.891,15z M154.054,280.389c-20.286-16.567-31.921-41.073-31.921-67.234c0-4.142-3.358-7.5-7.5-7.5
	c-5.314,0-9.638-4.324-9.638-9.638s4.324-9.638,9.638-9.638c22.53,0,43.274-25.099,53.634-40.059c0.193-0.279,0.489-0.39,0.795-0.39
	c0.208,0,0.42,0.051,0.609,0.137l0,0c22.796,10.337,45.084,15.534,64.749,20.12c41.29,9.628,61.142,15.638,61.229,46.768
	c0.056,19.724-6.793,39.175-19.286,54.77c-12.533,15.645-29.979,26.411-49.126,30.315
	C201.011,303.384,174.337,296.953,154.054,280.389z"/>
<path d="M431.537,273.285c-32.993-32.993-86.677-32.993-119.671,0l-94.259,94.259c-32.993,32.994-32.993,86.678,0,119.672
	c16.497,16.497,38.166,24.745,59.835,24.745c21.168,0,42.323-7.894,58.669-23.636l12.02,20.034c2.13,3.551,6.738,4.703,10.29,2.572
	s4.704-6.738,2.572-10.29l-23.21-38.685c-2.888-4.812-8.167-7.801-13.779-7.801h-12.286c-7.527,0-14.751-3.197-19.819-8.771
	c-5.136-5.649-7.562-12.987-6.83-20.66c1.29-13.525,13.643-24.121,28.122-24.121h15.78c13.022,0,24.946,7.123,31.12,18.588
	l47.85,88.864c1.355,2.516,3.939,3.946,6.61,3.946c1.201,0,2.418-0.289,3.549-0.898c3.647-1.964,5.012-6.512,3.048-10.159
	l-34.16-63.44l44.547-44.547C464.531,359.963,464.531,306.278,431.537,273.285z M270.138,423.299
	c-1.122,11.76,2.765,23.488,10.663,32.175c7.904,8.694,19.174,13.681,30.918,13.681h12.286c0.374,0,0.725,0.199,0.917,0.519
	l3.257,5.428l-1.506,1.507c-27.146,27.145-71.314,27.144-98.459,0c-27.145-27.145-27.145-71.313,0-98.458l22.265-22.265
	c7.599,7.542,22.515,21.744,40.466,35.748C279.529,398.292,271.42,409.867,270.138,423.299z M379.565,423.716L373.3,412.08
	c-8.793-16.332-25.779-26.477-44.327-26.477h-15.78c-1.681,0-3.341,0.107-4.979,0.293c-20.618-15.138-38.65-32.243-47.12-40.627
	l61.378-61.378c27.146-27.145,71.314-27.145,98.458,0c13.149,13.149,20.392,30.633,20.392,49.229s-7.242,36.08-20.392,49.229
	L379.565,423.716z"/>
<path d="M407.301,297.521c-19.629-19.63-51.569-19.63-71.198,0c-19.629,19.629-19.629,51.569,0,71.198
	c9.814,9.815,22.707,14.722,35.599,14.722s25.785-4.907,35.599-14.722C426.93,349.09,426.93,317.151,407.301,297.521z
	 M396.695,358.113c-13.781,13.781-36.204,13.781-49.985,0c-13.781-13.781-13.781-36.204,0-49.985
	c6.891-6.891,15.941-10.335,24.993-10.335s18.102,3.445,24.993,10.335C410.475,321.909,410.475,344.332,396.695,358.113z"/>
<circle cx="359.52" cy="321" r="7.5"/>
<circle cx="383.77" cy="345.17" r="7.5"/>
<g>
</g>
<g>
</g>
<g>
</g>
<g>
</g>
<g>
</g>
<g>
</g>
<g>
</g>
<g>
</g>
<g>
</g>
<g>
</g>
<g>
</g>
<g>
</g>
<g>
</g>
<g>
</g>
<g>
</g>
</svg>
