<?xml version="1.0" encoding="iso-8859-1"?>
<!-- Generator: Adobe Illustrator 19.0.0, SVG Export Plug-In . SVG Version: 6.00 Build 0)  -->
<svg version="1.1" id="Layer_1" xmlns="http://www.w3.org/2000/svg" xmlns:xlink="http://www.w3.org/1999/xlink" x="0px" y="0px"
	 viewBox="0 0 512 512" style="enable-background:new 0 0 512 512;" xml:space="preserve">
<g>
	<rect x="16.375" y="375.81" style="fill:#E6AF78;" width="53.25" height="115.37"/>
	<rect x="211.62" y="375.81" style="fill:#E6AF78;" width="53.25" height="115.37"/>
</g>
<path style="fill:#FF913C;" d="M254.131,281.712l-78.006-21.274h-71l-78.006,21.274C15.536,284.871,7.5,295.392,7.5,307.398v86.164
	h53.25v97.625H220.5v-97.625h53.25v-86.164C273.75,295.392,265.714,284.871,254.131,281.712z"/>
<path style="fill:#D77431;" d="M176.125,260.438h-71l-43.402,11.837c5.733,38.485,38.822,68.038,78.902,68.038
	s73.169-29.553,78.902-68.038L176.125,260.438z"/>
<path style="fill:#E6AF78;" d="M96.25,229.375v31.063c0,24.508,19.867,44.375,44.375,44.375S185,284.945,185,260.438v-31.063
	L96.25,229.375L96.25,229.375z"/>
<path style="fill:#D29B6E;" d="M96.25,260.438c0,0.001,0,0.003,0,0.004c13.664,5.7,28.647,8.871,44.375,8.871
	s30.711-3.172,44.375-8.871c0-0.001,0-0.003,0-0.004v-31.063H96.25V260.438z"/>
<path style="fill:#F0C087;" d="M220.5,127.313v-53.25H60.75v53.25c-9.803,0-17.75,7.947-17.75,17.75s7.947,17.75,17.75,17.75
	c0,44.114,35.761,79.875,79.875,79.875s79.875-35.761,79.875-79.875c9.803,0,17.75-7.947,17.75-17.75
	C238.25,135.259,230.303,127.313,220.5,127.313z"/>
<path style="fill:#E6AF78;" d="M105.125,162.813v-88.75H60.75v53.25c-9.803,0-17.75,7.947-17.75,17.75s7.947,17.75,17.75,17.75
	c0,44.114,35.761,79.875,79.875,79.875c7.708,0,15.136-1.151,22.188-3.188C129.506,229.876,105.125,199.219,105.125,162.813z"/>
<path style="fill:#785546;" d="M200.367,118.865c2.592,6.864,9.928,9.973,17.155,8.706c0.966-0.169,1.961-0.258,2.978-0.258
	c3.25,0,6.255,0.937,8.875,2.462V74.063c0-13.278-7.376-24.717-18.171-30.805C209.186,30.552,198.273,20.813,185,20.813h-71
	c-34.311,0-62.125,27.814-62.125,62.125v46.837c2.62-1.525,5.625-2.462,8.875-2.462c1.141,0,2.254,0.111,3.329,0.323
	c8.644,1.702,17.299-3.075,19.463-11.615l0,0l2.182-8.73c0.965-3.858,4.347-6.609,8.322-6.717
	c18.49-0.499,70.926-3.185,99.828-17.636l5.167,31.003C199.327,115.651,199.775,117.297,200.367,118.865z"/>
<path style="fill:#64463C;" d="M105.125,74.063c0-29.409,23.841-53.25,53.25-53.25H114c-34.31,0-62.125,27.814-62.125,62.125v46.837
	c2.62-1.525,5.625-2.462,8.875-2.462c1.141,0,2.253,0.111,3.329,0.323c8.644,1.701,17.299-3.076,19.463-11.615l2.182-8.73
	c0.964-3.858,4.346-6.609,8.322-6.717c2.913-0.079,6.704-0.216,11.078-0.441L105.125,74.063L105.125,74.063z"/>
<g>
	<path style="fill:#D77431;" d="M60.75,349.188l-33.721-67.443C15.496,284.935,7.5,295.424,7.5,307.398v86.165h53.25V349.188z"/>
	<path style="fill:#D77431;" d="M220.5,349.188l33.721-67.443c11.533,3.191,19.529,13.679,19.529,25.653v86.165H220.5V349.188z"/>
</g>
<path style="fill:#64463C;" d="M380.25,56.313L380.25,56.313L380.25,56.313L380.25,56.313L380.25,56.313
	c53.917,0,97.625,43.708,97.625,97.625l0,0c0,62.125,8.875,124.25,8.875,124.25s-44.375,26.625-106.5,35.5
	c-62.125-8.875-106.5-35.5-106.5-35.5s8.875-62.125,8.875-124.25l0,0C282.625,100.021,326.333,56.313,380.25,56.313L380.25,56.313
	L380.25,56.313L380.25,56.313L380.25,56.313z"/>
<path style="fill:#553732;" d="M344.75,145.063v-26.625c0-30.169,21.511-55.295,50.027-60.927
	c-4.752-0.711-9.576-1.198-14.526-1.198h-0.001c-53.917,0-97.625,43.708-97.625,97.625c0,62.125-8.875,124.25-8.875,124.25
	s44.375,26.625,106.5,35.5V180.563L344.75,145.063z"/>
<path style="fill:#B48764;" d="M487.763,342.493l-60.856-24.342c-6.739-2.696-11.158-9.222-11.158-16.48v-32.358h-71v32.358
	c0,7.258-4.419,13.785-11.158,16.48l-60.856,24.342C262.628,346.536,256,356.326,256,367.213v35.224
	c0,4.902,3.973,8.875,8.875,8.875l0,0v79.875h230.75v-79.875l0,0c4.902,0,8.875-3.973,8.875-8.875v-35.224
	C504.5,356.326,497.872,346.536,487.763,342.493z"/>
<path style="fill:#966D50;" d="M380.25,313.688c12.81,0,25.035-2.378,36.41-6.523c-0.572-1.749-0.91-3.589-0.91-5.494v-32.358h-71
	v32.358c0,1.906-0.338,3.745-0.91,5.494C355.215,311.309,367.44,313.688,380.25,313.688z"/>
<path style="fill:#C39772;" d="M460.125,207.188c0-58.759-63.516-38.124-107.944-65.753c-4.045-2.516-9.432-1.428-12.064,2.543
	c-6.855,10.343-20.886,27.358-39.174,27.705c-10.005,0.19-18.318,7.609-18.318,17.615v0.141c0,9.803,7.947,17.75,17.75,17.75
	c0,6.101,0.684,12.043,1.98,17.752c8.072,35.57,39.883,62.123,77.895,62.123s69.823-26.553,77.895-62.123
	C459.441,219.23,460.125,213.289,460.125,207.188z"/>
<path style="fill:#B48764;" d="M344.75,207.188v-66.554c-1.822,0.585-3.503,1.638-4.633,3.343
	c-6.856,10.344-20.886,27.358-39.174,27.706c-10.005,0.19-18.318,7.609-18.318,17.615v0.141c0,9.803,7.947,17.75,17.75,17.75
	c0,6.101,0.684,12.042,1.98,17.752c8.072,35.57,39.882,62.123,77.895,62.123c7.714,0,15.15-1.143,22.207-3.184
	C369.14,274.263,344.75,243.601,344.75,207.188z"/>
<path style="fill:#FF507D;" d="M487.763,342.493l-37.857-15.143c-6.373,32.67-35.121,57.338-69.656,57.338
	s-63.283-24.667-69.656-57.338l-37.857,15.143C262.628,346.536,256,356.326,256,367.213v35.224c0,4.901,3.973,8.875,8.875,8.875
	h35.5v79.875h159.75v-79.875h35.5c4.902,0,8.875-3.974,8.875-8.875v-35.224C504.5,356.326,497.872,346.536,487.763,342.493z"/>
<g>
	<path style="fill:#D23C69;" d="M300.375,393.563l-40.337-40.337c-2.553,4.123-4.038,8.922-4.038,13.988v35.224
		c0,4.902,3.973,8.875,8.875,8.875h35.5V393.563z"/>
	<path style="fill:#D23C69;" d="M460.125,393.563l40.337-40.337c2.553,4.123,4.038,8.922,4.038,13.988v35.224
		c0,4.902-3.973,8.875-8.875,8.875h-35.5V393.563z"/>
	<path style="fill:#D23C69;" d="M449.907,327.35c-6.374,32.67-35.121,57.338-69.657,57.338s-63.283-24.667-69.657-57.338
		l-24.963,9.985c10.587,42.468,48.873,73.977,94.62,73.977s84.033-31.509,94.62-73.977L449.907,327.35z"/>
</g>
<path d="M242.023,285.375c0.719,0.216,1.444,0.318,2.158,0.318c3.226,0,6.206-2.098,7.181-5.347c1.19-3.968-1.061-8.149-5.028-9.339
	l-53.833-16.15v-21.805c19.895-14.732,33.355-37.684,35.266-63.805c10.392-3.128,17.984-12.787,17.984-24.185
	c0-7.378-3.316-14.371-8.875-19.125V74.063c0-14.222-7.203-27.525-19.008-35.497C213.921,23.738,200.621,13.313,185,13.313h-71
	c-38.392,0-69.625,31.233-69.625,69.625v43c-5.559,4.754-8.875,11.746-8.875,19.125c0,11.398,7.592,21.057,17.984,24.185
	c1.911,26.121,15.37,49.073,35.266,63.805v21.805l-64.431,19.329C9.773,278.551,0,291.686,0,306.872v86.69
	c0,4.142,3.358,7.5,7.5,7.5h1.375v90.125c0,4.142,3.358,7.5,7.5,7.5s7.5-3.358,7.5-7.5v-90.125H53.25v90.125
	c0,4.142,3.358,7.5,7.5,7.5s7.5-3.358,7.5-7.5v-142c0-1.165-0.271-2.313-0.792-3.354l-17.75-35.5
	c-1.852-3.705-6.356-5.207-10.062-3.354c-3.705,1.852-5.207,6.357-3.354,10.062l16.958,33.917v35.104H16.375H15v-79.19
	c0-8.511,5.478-15.873,13.63-18.319l26.933-8.08c9.156,38.905,44.392,67.338,85.063,67.338c20.911,0,41.145-7.503,56.974-21.128
	c14.058-12.1,23.865-28.336,28.071-46.216L242.023,285.375z M68.25,162.813c0-4.142-3.358-7.5-7.5-7.5
	c-5.652,0-10.25-4.598-10.25-10.25c0-3.638,1.924-6.93,5.147-8.806c0.166-0.097,0.317-0.211,0.474-0.319
	c1.427-0.725,3.01-1.125,4.629-1.125h11.353c7.06,0,13.303-4.5,15.535-11.197l5.167-15.5c17.632-0.389,73.2-2.857,104.424-18.47
	c3.705-1.852,5.207-6.357,3.354-10.062c-1.852-3.705-6.356-5.207-10.062-3.354C157.03,92.975,88.067,93.188,87.374,93.188
	c-3.228,0.001-6.094,2.066-7.114,5.128l-6.852,20.557c-0.188,0.562-0.711,0.94-1.305,0.94H60.75c-0.459,0-0.917,0.02-1.375,0.045
	v-36.92c0-30.12,24.505-54.625,54.625-54.625h71c9.408,0,17.313,6.78,18.796,16.121c0.359,2.26,1.73,4.233,3.723,5.357
	c8.855,4.994,14.355,14.294,14.355,24.272v55.712c0,2.67,1.42,5.139,3.728,6.482c3.223,1.876,5.147,5.168,5.147,8.806
	c0,5.652-4.598,10.25-10.25,10.25c-4.142,0-7.5,3.358-7.5,7.5c0,39.908-32.467,72.375-72.375,72.375S68.25,202.72,68.25,162.813z
	 M140.625,250.188c13.171,0,25.664-2.94,36.875-8.182v18.432c0,20.333-16.542,36.875-36.875,36.875
	c-20.301,0-36.82-16.49-36.873-36.779c0-0.036-0.002-0.072-0.002-0.107v-18.421C114.961,247.247,127.454,250.188,140.625,250.188z
	 M187.813,315.315c-13.108,11.283-29.867,17.497-47.188,17.497c-34,0-63.401-23.987-70.649-56.662l19.715-5.914
	c4.595,23.933,25.681,42.076,50.934,42.076c25.254,0,46.339-18.143,50.934-42.077l19.714,5.915
	C207.912,291.303,199.696,305.088,187.813,315.315z"/>
<path d="M140.625,205.813c8.977,0,17.569-4.247,23.575-11.65c2.609-3.217,2.117-7.94-1.1-10.549c-3.217-2.61-7.94-2.117-10.549,1.1
	c-3.19,3.934-7.425,6.1-11.925,6.1s-8.735-2.166-11.925-6.1c-2.608-3.217-7.332-3.709-10.549-1.1
	c-3.217,2.609-3.709,7.332-1.1,10.549C123.056,201.566,131.648,205.813,140.625,205.813z"/>
<path d="M105.125,161.438c4.142,0,7.5-3.358,7.5-7.5v-8.875c0-4.142-3.358-7.5-7.5-7.5s-7.5,3.358-7.5,7.5v8.875
	C97.625,158.08,100.983,161.438,105.125,161.438z"/>
<path d="M176.125,161.438c4.142,0,7.5-3.358,7.5-7.5v-8.875c0-4.142-3.358-7.5-7.5-7.5s-7.5,3.358-7.5,7.5v8.875
	C168.625,158.08,171.983,161.438,176.125,161.438z"/>
<path d="M403.825,238.537c2.609-3.217,2.117-7.94-1.1-10.549c-3.217-2.61-7.94-2.117-10.549,1.1c-3.19,3.934-7.425,6.1-11.925,6.1
	s-8.735-2.166-11.925-6.1c-2.608-3.217-7.332-3.709-10.549-1.1s-3.709,7.332-1.1,10.549c6.005,7.404,14.598,11.65,23.575,11.65
	S397.819,245.941,403.825,238.537z"/>
<path d="M344.75,181.938c-4.142,0-7.5,3.358-7.5,7.5v8.875c0,4.142,3.358,7.5,7.5,7.5s7.5-3.358,7.5-7.5v-8.875
	C352.25,185.295,348.892,181.938,344.75,181.938z"/>
<path d="M415.75,205.813c4.142,0,7.5-3.358,7.5-7.5v-8.875c0-4.142-3.358-7.5-7.5-7.5s-7.5,3.358-7.5,7.5v8.875
	C408.25,202.455,411.608,205.813,415.75,205.813z"/>
<path d="M490.549,335.529l-60.856-24.343c-0.517-0.207-1.009-0.454-1.475-0.733c41.218-8.3,60.521-16.101,61.375-16.451
	c3.134-1.284,5.019-4.51,4.599-7.871c-0.088-0.706-8.817-71.242-8.817-132.195c0-57.966-47.159-105.125-105.125-105.125
	s-105.125,47.16-105.125,105.127c0,60.924-8.729,131.489-8.817,132.195c-0.42,3.361,1.464,6.586,4.599,7.871
	c0.854,0.35,20.157,8.15,61.375,16.451c-0.466,0.279-0.958,0.526-1.475,0.733l-60.855,24.342
	c-13.031,5.212-21.451,17.649-21.451,31.684v18.849H228v-35.104l16.958-33.917c1.853-3.705,0.351-8.21-3.354-10.062
	c-3.705-1.853-8.21-0.351-10.062,3.354l-17.75,35.5c-0.521,1.042-0.792,2.189-0.792,3.354v142c0,4.142,3.358,7.5,7.5,7.5
	s7.5-3.358,7.5-7.5v-90.125h20.5v10.254c0,1.99,0.791,3.898,2.198,5.305c1.406,1.406,3.313,2.195,5.302,2.195
	c0.001,0,0.002,0,0.004,0h1.371v72.371c0,4.142,3.358,7.5,7.5,7.5s7.5-3.358,7.5-7.5v-72.375h20.5v72.375c0,4.142,3.358,7.5,7.5,7.5
	s7.5-3.358,7.5-7.5v-97.625c0-4.142-3.358-7.5-7.5-7.5s-7.5,3.358-7.5,7.5v10.25H263.5v-36.6c0-7.866,4.719-14.836,12.022-17.757
	l29.917-11.967c10.279,32.414,40.433,54.698,74.811,54.698s64.532-22.285,74.811-54.698l29.917,11.967
	c7.303,2.921,12.022,9.892,12.022,17.757v36.6h-29.375v-10.25c0-4.142-3.358-7.5-7.5-7.5s-7.5,3.358-7.5,7.5v97.625
	c0,4.142,3.358,7.5,7.5,7.5s7.5-3.358,7.5-7.5v-72.375h20.5v72.375c0,4.142,3.358,7.5,7.5,7.5s7.5-3.358,7.5-7.5v-72.375h1.375
	c4.142,0,7.5-3.358,7.5-7.5v-44.1C512,353.178,503.58,340.742,490.549,335.529z M334.789,263.507
	c-12.629-10.208-21.55-24.494-25.121-40.227c-1.19-5.245-1.793-10.66-1.793-16.092c0-4.142-3.358-7.5-7.5-7.5
	c-5.652,0-10.25-4.598-10.25-10.25s4.598-10.25,10.25-10.25c22.743,0,39.239-20.594,46.688-32.116
	c17.491,11.261,37.496,15.233,55.398,18.788c32.963,6.544,50.164,11.354,50.164,41.329c0,5.433-0.604,10.847-1.793,16.092
	c-3.57,15.733-12.492,30.019-25.121,40.227c-12.995,10.504-28.715,16.056-45.461,16.056S347.784,274.01,334.789,263.507z
	 M380.25,63.813c49.695,0,90.125,40.43,90.125,90.125c0,51.49,6.124,109.623,8.231,128.098c-8.309,2.823-26.493,8.386-55.356,14.114
	v-12.912c4.164-2.35,8.147-5.039,11.89-8.065c15.239-12.317,26.006-29.568,30.319-48.573c1.437-6.333,2.166-12.864,2.166-19.412
	c0-43.685-31.643-49.967-62.243-56.042c-19.57-3.885-39.806-7.903-55.947-20.815c-1.765-1.413-4.077-1.949-6.286-1.466
	c-2.209,0.482-4.085,1.939-5.103,3.959c-0.042,0.083-4.244,8.355-11.351,16.41c-6.019,6.822-15.472,14.954-26.321,14.954
	c-3.692,0-7.199,0.803-10.363,2.234c0.073-4.188,0.113-8.357,0.113-12.484C290.125,104.242,330.555,63.813,380.25,63.813z
	 M288.122,211.491c1.571,0.876,3.235,1.604,4.988,2.132c0.32,4.378,0.965,8.722,1.931,12.977
	c4.313,19.005,15.081,36.256,30.319,48.573c3.743,3.026,7.726,5.715,11.89,8.065v12.912c-28.868-5.729-47.052-11.292-55.356-14.114
	C283.221,270.398,286.142,243.025,288.122,211.491z M380.25,377.188c-28.18,0-52.858-18.501-60.846-45.284l16.973-6.789
	c9.642-3.857,15.873-13.059,15.873-23.444v-11.745c8.97,3.034,18.432,4.638,28,4.638s19.03-1.604,28-4.638v11.745
	c0,10.385,6.23,19.587,15.872,23.444l16.974,6.79C433.108,358.686,408.431,377.188,380.25,377.188z"/>
<g>
</g>
<g>
</g>
<g>
</g>
<g>
</g>
<g>
</g>
<g>
</g>
<g>
</g>
<g>
</g>
<g>
</g>
<g>
</g>
<g>
</g>
<g>
</g>
<g>
</g>
<g>
</g>
<g>
</g>
</svg>
