<?xml version="1.0" encoding="iso-8859-1"?>
<!-- Generator: Adobe Illustrator 19.0.0, SVG Export Plug-In . SVG Version: 6.00 Build 0)  -->
<svg version="1.1" id="Layer_1" xmlns="http://www.w3.org/2000/svg" xmlns:xlink="http://www.w3.org/1999/xlink" x="0px" y="0px"
	 viewBox="0 0 512 512" style="enable-background:new 0 0 512 512;" xml:space="preserve">
<g>
	<path style="fill:#D5DCED;" d="M167.249,229.375c-14.705,0-26.625,11.92-26.625,26.625c0,4.398,1.168,8.484,3.056,12.14
		c-12.251,5.597-20.806,17.886-20.806,32.235c0,19.606,15.894,35.5,35.5,35.5h53.25v-106.5H167.249z"/>
	<path style="fill:#D5DCED;" d="M344.749,229.375c14.705,0,26.625,11.92,26.625,26.625c0,4.398-1.168,8.484-3.056,12.14
		c12.251,5.597,20.806,17.886,20.806,32.235c0,19.606-15.894,35.5-35.5,35.5h-53.25v-106.5H344.749z"/>
</g>
<path style="fill:#FF507D;" d="M372.532,327.579l-62.346-31.173c-6.014-3.007-9.812-9.153-9.812-15.876h-88.75
	c0,6.723-3.798,12.869-9.812,15.876l-62.346,31.173c-21.047,10.523-34.342,32.035-34.342,55.566V504.5h301.75V383.145
	C406.874,359.614,393.579,338.103,372.532,327.579z"/>
<path style="fill:#D7AF7D;" d="M255.999,335.875c27.579,0,52.219-12.581,68.497-32.314l-14.31-7.155
	c-6.014-3.007-9.812-9.153-9.812-15.876h-88.75c0,6.723-3.798,12.869-9.812,15.876l-14.31,7.155
	C203.78,323.294,228.42,335.875,255.999,335.875z"/>
<ellipse style="fill:#E4EAF8;" cx="255.999" cy="127.31" rx="124.25" ry="119.81"/>
<path style="fill:#D5DCED;" d="M211.624,118.438c0-47.758,29.05-88.868,70.976-108.116C274.022,8.515,265.139,7.5,255.999,7.5
	c-68.621,0-124.25,53.642-124.25,119.813c0,66.17,55.629,119.813,124.25,119.813c19.094,0,37.11-4.276,53.274-11.696
	C253.447,223.675,211.624,175.795,211.624,118.438z"/>
<path style="fill:#FFE1B4;" d="M206.537,118.759c-8.985,8.073-28.574,24.211-48.163,30.74c0,0,0,19.906,0,41.129
	c0,53.753,42.053,99.871,95.796,100.854c54.754,1.002,99.454-43.083,99.454-97.608c0-59.772-90.37-45.605-136.736-76.063
	C213.658,115.691,209.411,116.177,206.537,118.759z"/>
<path style="fill:#FAD098;" d="M211.624,193.875V116.54c-1.852,0.172-3.661,0.938-5.119,2.248c-9,8.082-28.566,24.191-48.131,30.711
	v41.138c0,49.698,35.786,93.736,85.08,100.061c13.755,1.765,26.984,0.542,39.26-2.945
	C241.71,276.181,211.624,238.582,211.624,193.875z"/>
<g>
	<path style="fill:#D23C69;" d="M160.832,397.708l-39.414-56.306c-10.241,11.249-16.293,26.001-16.293,41.743V504.5h62.125v-86.435
		C167.249,410.782,165.009,403.675,160.832,397.708z"/>
	<path style="fill:#D23C69;" d="M351.166,397.708l39.414-56.306c10.241,11.249,16.293,26.001,16.293,41.743V504.5h-62.124v-86.435
		C344.749,410.782,346.989,403.675,351.166,397.708z"/>
</g>
<path d="M146.624,366.875c-2.485-3.313-7.185-3.985-10.5-1.5c-3.313,2.485-3.985,7.187-1.5,10.5l21.3,28.4
	c2.467,3.289,3.825,7.364,3.825,11.475v88.75c0,4.142,3.358,7.5,7.5,7.5s7.5-3.358,7.5-7.5v-88.75
	c0-7.335-2.424-14.606-6.825-20.475L146.624,366.875z"/>
<path d="M386.821,327.652c6.244-7.622,9.803-17.275,9.803-27.277c0-14.341-7.259-27.649-18.964-35.563
	c0.808-2.891,1.214-5.836,1.214-8.812c0-14.386-9.136-27.046-22.163-31.953c2.134-7.109,3.534-14.532,4.112-22.181
	c17.382-19.359,26.926-44.157,26.926-70.116C387.749,59.103,328.646,0,255.999,0s-131.75,59.103-131.75,131.75
	c0,25.959,9.542,50.754,26.924,70.114c0.574,7.667,1.963,15.094,4.078,22.197c-13.007,4.916-22.126,17.567-22.126,31.94
	c0,2.976,0.407,5.921,1.214,8.812c-11.706,7.914-18.964,21.222-18.964,35.563c0,10.002,3.556,19.657,9.801,27.278
	c-17.244,13.002-27.551,33.308-27.551,55.492V504.5c0,4.142,3.358,7.5,7.5,7.5s7.5-3.358,7.5-7.5V383.146
	c0-20.824,11.57-39.545,30.196-48.858l10.133-5.066c25.165,31.601,62.521,49.654,103.046,49.654
	c40.548,0,77.888-18.046,103.051-49.652l10.128,5.064c18.625,9.313,30.196,28.034,30.196,48.858V504.5c0,4.142,3.358,7.5,7.5,7.5
	c4.142,0,7.5-3.358,7.5-7.5V383.146C414.374,360.961,404.066,340.654,386.821,327.652z M363.874,256c0,2.92-0.747,5.846-2.22,8.698
	c-0.941,1.823-1.095,3.952-0.425,5.892c0.67,1.939,2.106,3.52,3.973,4.372c9.976,4.558,16.422,14.533,16.422,25.414
	c0,7.385-2.82,14.258-7.849,19.441l-60.236-30.118c-2.159-1.08-3.809-2.836-4.758-4.94c18.537-10.808,33.487-27.121,42.589-46.685
	C358.711,240.797,363.874,247.905,363.874,256z M216.669,291.418c12.159,4.893,25.437,7.582,39.33,7.582
	c13.887,0,27.153-2.709,39.3-7.622c2.365,4.994,6.361,9.15,11.533,11.736l5.37,2.685c-15.058,14.445-35.069,22.576-56.203,22.576
	c-21.102,0-41.142-8.135-56.204-22.575l5.371-2.685C210.324,300.536,214.304,296.394,216.669,291.418z M139.249,131.75
	c0-64.376,52.374-116.75,116.75-116.75s116.75,52.374,116.75,116.75c0,16.806-4.672,33.048-13.386,47.145
	c-8.118-31.783-42.974-39.759-76.821-47.504c-23.438-5.363-47.674-10.909-66.757-23.631c-3.401-2.269-8.005-1.375-10.335,1.983
	c-0.131,0.189-13.487,19.124-43.741,35.673c-3.634,1.988-4.969,6.545-2.981,10.179s6.545,4.967,10.179,2.981
	c23.534-12.874,37.778-27.044,44.42-34.699c20.275,11.703,44.378,17.219,65.869,22.136c7.201,1.648,13.906,3.234,20.091,4.889
	c-13.563,0.428-25.154,8.801-30.256,20.615c-3.943-1.87-8.385-2.893-13.032-2.893c-4.647,0-9.088,1.023-13.032,2.893
	c-5.238-12.13-17.313-20.643-31.343-20.643c-18.816,0-34.125,15.309-34.125,34.125s15.309,34.125,34.125,34.125
	c17.878,0,32.579-13.823,34.002-31.341c2.476-2.594,6.283-4.159,10.373-4.159c4.09,0,7.897,1.565,10.373,4.159
	c1.423,17.518,16.124,31.341,34.002,31.341c18.816,0,34.125-15.309,34.125-34.125c0-10.583-4.843-20.056-12.428-26.32
	c15.409,7.116,24.053,17.151,24.053,35.195c0,49.696-40.43,90.126-90.125,90.126c-48.146,0-87.687-37.635-90.018-85.679
	c-0.1-2.056-1.037-3.958-2.558-5.286C147.83,176.266,139.249,154.525,139.249,131.75z M281.249,184.989
	c0.006-10.54,8.583-19.114,19.125-19.114c10.545,0,19.125,8.58,19.125,19.125s-8.58,19.125-19.125,19.125
	c-10.544,0-19.123-8.578-19.125-19.121C281.249,184.999,281.249,184.994,281.249,184.989z M230.749,185.004
	c-0.002,10.543-8.581,19.121-19.125,19.121c-10.545,0-19.125-8.58-19.125-19.125s8.58-19.125,19.125-19.125
	c10.542,0,19.118,8.574,19.125,19.114C230.749,184.994,230.749,184.999,230.749,185.004z M146.796,274.961
	c1.867-0.853,3.302-2.433,3.973-4.372c0.67-1.939,0.516-4.069-0.425-5.892c-1.473-2.852-2.22-5.778-2.22-8.698
	c0-8.069,5.13-15.157,12.434-17.901c9.093,19.654,24.063,35.952,42.622,46.728c-0.954,2.073-2.586,3.804-4.721,4.871l-60.235,30.118
	c-5.029-5.183-7.849-12.055-7.849-19.441C130.374,289.494,136.82,279.519,146.796,274.961z M255.999,363.875
	c-34.838,0-67.034-15.061-89.291-41.532l18.979-9.49c18.187,19.459,43.526,30.522,70.312,30.522
	c26.825,0,52.122-11.057,70.308-30.523l18.986,9.493C323.04,348.82,290.857,363.875,255.999,363.875z"/>
<path d="M375.874,365.375c-3.313-2.485-8.015-1.813-10.5,1.5l-21.3,28.4c-4.401,5.869-6.825,13.14-6.825,20.475v88.75
	c0,4.142,3.358,7.5,7.5,7.5c4.142,0,7.5-3.358,7.5-7.5v-88.75c0-4.111,1.358-8.186,3.825-11.475l21.3-28.4
	C379.859,372.562,379.187,367.86,375.874,365.375z"/>
<path d="M224.612,235.169c8.301,6.823,19.448,10.581,31.387,10.581c11.939,0,23.086-3.758,31.387-10.581
	c3.2-2.63,3.662-7.356,1.032-10.556c-2.63-3.2-7.356-3.662-10.556-1.032c-5.543,4.556-13.512,7.169-21.863,7.169
	c-8.351,0-16.32-2.613-21.863-7.169c-3.199-2.631-7.926-2.168-10.556,1.032S221.412,232.539,224.612,235.169z"/>
<path d="M211.624,168.625c-4.142,0-7.5,3.358-7.5,7.5V185c0,4.142,3.358,7.5,7.5,7.5s7.5-3.358,7.5-7.5v-8.875
	C219.124,171.983,215.766,168.625,211.624,168.625z"/>
<path d="M300.374,192.5c4.142,0,7.5-3.358,7.5-7.5v-8.875c0-4.142-3.358-7.5-7.5-7.5c-4.142,0-7.5,3.358-7.5,7.5V185
	C292.874,189.142,296.232,192.5,300.374,192.5z"/>
<g>
</g>
<g>
</g>
<g>
</g>
<g>
</g>
<g>
</g>
<g>
</g>
<g>
</g>
<g>
</g>
<g>
</g>
<g>
</g>
<g>
</g>
<g>
</g>
<g>
</g>
<g>
</g>
<g>
</g>
</svg>
