<?xml version="1.0" encoding="iso-8859-1"?>
<!-- Generator: Adobe Illustrator 19.0.0, SVG Export Plug-In . SVG Version: 6.00 Build 0)  -->
<svg version="1.1" id="Layer_1" xmlns="http://www.w3.org/2000/svg" xmlns:xlink="http://www.w3.org/1999/xlink" x="0px" y="0px"
	 viewBox="0 0 512.001 512.001" style="enable-background:new 0 0 512.001 512.001;" xml:space="preserve">
<rect x="196.021" y="435.95" style="fill:#91E1F5;" width="119.97" height="68.55"/>
<path style="fill:#FAD7A5;" d="M343.562,266.353l-51.677-22.968c-6.189-2.751-10.178-8.888-10.178-15.66v-23.138h-51.414v23.138
	c0,6.772-3.988,12.91-10.178,15.66l-51.677,22.968c-9.283,4.126-15.266,13.332-15.266,23.491v26.139
	c0,4.732,3.836,8.569,8.569,8.569h188.517c4.733,0,8.569-3.837,8.569-8.569v-26.139
	C358.828,279.685,352.846,270.479,343.562,266.353z"/>
<path style="fill:#B4E66E;" d="M343.562,266.353l-41.633-18.504c-8.06,12.197-24.505,33.5-45.928,42.427
	c-21.424-8.927-37.868-30.23-45.928-42.427l-41.633,18.504c-9.283,4.126-15.266,13.332-15.266,23.491v26.139
	c0,4.732,3.836,8.569,8.569,8.569h17.138c0,0,0,82.79,0,85.69c0,42.592,34.528,77.121,77.121,77.121
	c42.593,0,77.121-34.528,77.121-77.121c0-2.9,0-85.69,0-85.69h17.138c4.733,0,8.569-3.837,8.569-8.569v-26.139
	C358.828,279.685,352.846,270.479,343.562,266.353z"/>
<path style="fill:#A0D755;" d="M221.725,410.241c0-12.329,2.967-23.94,8.111-34.276H178.88c0,17.502,0,33.049,0,34.276
	c0,42.592,34.528,77.121,77.121,77.121c7.442,0,14.614-1.111,21.422-3.078C245.265,474.992,221.725,445.392,221.725,410.241z"/>
<path style="fill:#D59F63;" d="M293.596,51.592c3.241-4.221,5.249-8.973,5.249-14.1C298.846,20.928,279.664,7.5,256,7.5
	c-23.663,0-42.845,13.428-42.845,29.991c0,5.127,2.008,9.88,5.249,14.1c-18.464,10.336,1.04,118.719,3.32,118.719h74.978
	c20.113,0,36.418-16.305,36.418-36.418v-14.996C333.122,89.964,317.167,64.787,293.596,51.592z"/>
<g>
	<path style="fill:#FAD7A5;" d="M234.579,350.259c-6.986,0-13.131,3.395-17.041,8.569h-21.519v-34.276h-34.276v54.4
		c0,11.386,10.898,19.607,21.846,16.478l34.748-9.928c5.187,6.088,13.595,9.347,22.712,6.638
		c6.844-2.034,12.358-7.721,14.182-14.623C259.02,363.173,248.308,350.259,234.579,350.259z"/>
	<path style="fill:#FAD7A5;" d="M315.984,324.552v34.276h-21.519c-3.911-5.174-10.055-8.569-17.041-8.569
		c-13.729,0-24.442,12.915-20.652,27.259c1.824,6.903,7.338,12.589,14.182,14.623c9.117,2.709,17.525-0.55,22.712-6.638
		l34.748,9.928c10.948,3.128,21.846-5.092,21.846-16.478v-54.4h-34.276V324.552z"/>
</g>
<g>
	<path style="fill:#A0D755;" d="M196.018,324.552v-16.887c0-5.535-2.673-10.729-7.177-13.946l-29.23-20.879
		c-4.065,4.609-6.438,10.615-6.438,17.004v26.139c0,4.733,3.836,8.569,8.569,8.569h17.138H196.018z"/>
	<path style="fill:#A0D755;" d="M315.984,324.552v-16.887c0-5.535,2.673-10.729,7.177-13.946l29.23-20.879
		c4.065,4.609,6.438,10.615,6.438,17.004v26.139c0,4.733-3.836,8.569-8.569,8.569h-17.138H315.984z"/>
</g>
<path style="fill:#F0C891;" d="M256,238.862c9.518,0,18.594-1.806,27.01-4.959c-0.764-1.953-1.303-4.003-1.303-6.178v-23.138
	h-51.414v23.138c0,2.176-0.54,4.225-1.303,6.178C237.407,237.056,246.482,238.862,256,238.862z"/>
<path style="fill:#FFE1B4;" d="M273.138,118.897c-22.098-4.419-36.923-10.173-44.763-13.762c-3.745-1.714-8.112-0.354-10.474,3.02
	c-9.011,12.874-21.884,19.31-21.884,19.31v23.191c0,32.844,25.308,61.485,58.137,62.47c33.97,1.02,61.828-26.214,61.828-59.955
	v-8.569C315.984,136.034,315.984,127.466,273.138,118.897z"/>
<path style="fill:#FAD7A5;" d="M230.294,153.172V105.98c-0.644-0.282-1.332-0.576-1.902-0.837
	c-3.756-1.719-8.131-0.355-10.501,3.028c-5.934,8.471-13.539,14.153-18.04,17.045c-2.423,1.556-3.834,4.257-3.834,7.137v18.304
	c0,32.843,25.308,61.484,58.137,62.47c6.618,0.199,12.991-0.703,18.984-2.489C248.368,203.261,230.294,180.341,230.294,153.172z"/>
<path style="fill:#CD915A;" d="M223.697,101.759c6.225-27.356,26.965-49.172,53.727-56.904c-6.809-1.967-13.981-3.078-21.422-3.078
	c-5.676,0-11.192,0.655-16.521,1.818c-0.362-1.991-0.617-4.015-0.617-6.103c0-12.148,6.367-22.852,16.122-29.92
	c-23.182,0.387-41.829,13.6-41.829,29.92c0,5.139,1.923,9.927,5.209,14.124c-23.547,13.201-39.485,38.365-39.485,67.281v17.138
	c0,1.081,0.22,2.1,0.318,3.155C209.26,126.504,223.697,101.759,223.697,101.759z"/>
<path d="M230.294,137.104c-4.142,0-7.5,3.358-7.5,7.5v8.569c0,4.142,3.358,7.5,7.5,7.5s7.5-3.358,7.5-7.5v-8.569
	C237.794,140.461,234.436,137.104,230.294,137.104z"/>
<path d="M281.708,160.672c4.142,0,7.5-3.358,7.5-7.5v-8.569c0-4.142-3.358-7.5-7.5-7.5c-4.142,0-7.5,3.358-7.5,7.5v8.569
	C274.208,157.314,277.565,160.672,281.708,160.672z"/>
<path d="M265.451,173.583c-1.343,1.346-4.873,2.795-9.451,2.795c-4.578,0-8.108-1.449-9.451-2.795
	c-2.926-2.932-7.674-2.938-10.607-0.013c-2.933,2.926-2.938,7.674-0.013,10.607c4.499,4.509,12.001,7.202,20.071,7.202
	c8.07,0,15.572-2.692,20.071-7.202c2.925-2.933,2.919-7.681-0.013-10.607C273.125,170.645,268.377,170.65,265.451,173.583z"/>
<path d="M346.607,259.5l-51.677-22.968c-3.477-1.545-5.723-5.002-5.723-8.807v-15.73c18.095-10.145,31.093-28.346,33.711-50.009
	c4.875-40.336-22.74-45.755-49.447-50.995c-15.172-2.977-32.368-6.351-47.889-15.663c-3.431-2.059-7.878-1.061-10.099,2.271
	c-0.134,0.2-11.568,17.127-29.104,26.919v-5.622c0-38.389,31.231-69.621,69.621-69.621s69.621,31.232,69.621,69.621v8.569
	c0,4.142,3.358,7.5,7.5,7.5c4.142,0,7.5-3.358,7.5-7.5v-8.569c0-28.265-13.944-53.319-35.299-68.696
	c0.677-2.759,1.023-5.578,1.023-8.425C306.346,18.741,283.76,0,256,0s-50.345,18.741-50.345,41.776c0,2.844,0.35,5.663,1.027,8.422
	c-21.357,15.376-35.302,40.432-35.302,68.698v17.138c0,2.411,1.159,4.675,3.115,6.084c1.955,1.409,4.47,1.792,6.757,1.031
	c20.409-6.803,35.6-23.041,42.549-31.664c15.927,8.169,32.22,11.367,46.784,14.225c28.913,5.673,40.523,8.991,37.443,34.476
	c-3.133,25.922-25.5,45.469-52.027,45.469c-28.939,0-52.483-23.544-52.483-52.483c0-4.142-3.358-7.5-7.5-7.5s-7.5,3.358-7.5,7.5
	c0,25.143,13.832,47.103,34.276,58.712v15.84c0,3.805-2.247,7.262-5.723,8.807L165.394,259.5
	c-11.98,5.324-19.721,17.235-19.721,30.345v26.139c0,6.152,3.479,11.501,8.569,14.2v48.769c0,7.802,3.572,14.971,9.801,19.669
	c2.361,1.781,4.963,3.08,7.687,3.911c-0.232,2.56-0.35,5.135-0.35,7.708c0,19.132,6.39,36.796,17.138,50.986V504.5
	c0,4.142,3.358,7.5,7.5,7.5s7.5-3.358,7.5-7.5v-27.953c12.594,9.99,28.078,16.472,44.983,17.965v9.989c0,4.142,3.358,7.5,7.5,7.5
	c4.142,0,7.5-3.358,7.5-7.5v-9.989c16.905-1.493,32.389-7.975,44.983-17.965V504.5c0,4.142,3.358,7.5,7.5,7.5
	c4.142,0,7.5-3.358,7.5-7.5v-43.273c10.747-14.19,17.138-31.853,17.138-50.986c0-2.573-0.12-5.148-0.351-7.708
	c2.725-0.832,5.327-2.131,7.688-3.912c6.229-4.698,9.801-11.868,9.801-19.669v-48.769c5.09-2.699,8.569-8.049,8.569-14.2v-26.139
	C366.328,276.735,358.588,264.824,346.607,259.5z M220.656,41.776C220.656,27.012,236.512,15,256,15
	c19.489,0,35.345,12.012,35.345,26.776c0,0.086-0.011,0.172-0.012,0.259c-10.761-4.967-22.724-7.759-35.332-7.759
	c-12.609,0-24.572,2.792-35.333,7.759C220.667,41.948,220.656,41.863,220.656,41.776z M256,220.655c6.292,0,12.4-0.864,18.207-2.474
	v9.543c0,9.598,5.598,18.319,14.284,22.344c-5.668,8.716-17.398,24.415-32.49,31.961c-15.036-7.528-26.795-23.246-32.482-31.966
	c8.681-4.027,14.274-12.746,14.274-22.339v-9.585C243.59,219.766,249.691,220.655,256,220.655z M160.673,289.844
	c0-7.188,4.244-13.718,10.813-16.638l38.162-16.961c6.339,10.135,21.948,31.987,43.468,40.953c0.923,0.385,1.904,0.577,2.885,0.577
	c0.981,0,1.961-0.192,2.885-0.577c21.52-8.967,37.129-30.819,43.468-40.953l38.162,16.961c6.568,2.919,10.813,9.45,10.813,16.638
	v26.139c0,0.589-0.479,1.069-1.069,1.069h-26.776v-9.638c0-4.142-3.358-7.5-7.5-7.5c-4.142,0-7.5,3.358-7.5,7.5v43.914h-10.608
	c-5.41-5.487-12.677-8.569-20.453-8.569c-8.263,0-15.943,3.442-21.422,9.503c-5.479-6.062-13.16-9.503-21.422-9.503
	c-7.776,0-15.042,3.082-20.453,8.569h-10.608v-43.914c0-4.142-3.358-7.5-7.5-7.5s-7.5,3.358-7.5,7.5v9.638h-26.776
	c-0.589,0-1.069-0.479-1.069-1.069L160.673,289.844L160.673,289.844z M169.242,332.052h19.276v26.776c0,4.142,3.358,7.5,7.5,7.5
	h21.52c2.351,0,4.566-1.103,5.983-2.978c2.685-3.553,6.715-5.591,11.058-5.591c4.355,0,8.379,1.982,11.041,5.439
	c2.707,3.514,3.544,7.919,2.359,12.403c-1.159,4.388-4.718,8.058-9.067,9.35c-5.591,1.663-11.15,0.05-14.867-4.313
	c-1.906-2.237-4.942-3.155-7.77-2.348l-34.748,9.928c-2.933,0.838-6.015,0.265-8.452-1.573s-3.834-4.643-3.834-7.694v-46.899
	H169.242z M256,479.862c-38.389,0-69.621-31.232-69.621-69.621c0-2.656,0.168-5.31,0.467-7.941l29.355-8.388
	c7.411,6.196,17.352,8.279,26.983,5.418c4.982-1.481,9.39-4.328,12.816-8.081c3.426,3.753,7.834,6.6,12.816,8.081
	c9.63,2.86,19.572,0.778,26.982-5.418l29.357,8.388c0.298,2.63,0.465,5.285,0.465,7.941C325.622,448.63,294.39,479.862,256,479.862z
	 M338.925,386.646c-2.437,1.838-5.516,2.412-8.452,1.573l-34.748-9.928c-2.827-0.808-5.864,0.109-7.77,2.348
	c-3.716,4.362-9.275,5.975-14.866,4.313c-4.349-1.292-7.908-4.962-9.067-9.35c-1.185-4.484-0.347-8.889,2.359-12.403
	c2.662-3.457,6.686-5.439,11.041-5.439c4.342,0,8.373,2.038,11.058,5.591c1.417,1.875,3.632,2.978,5.983,2.978h21.52
	c4.142,0,7.5-3.358,7.5-7.5v-26.776h19.276v46.9C342.76,382.004,341.362,384.809,338.925,386.646z"/>
<g>
</g>
<g>
</g>
<g>
</g>
<g>
</g>
<g>
</g>
<g>
</g>
<g>
</g>
<g>
</g>
<g>
</g>
<g>
</g>
<g>
</g>
<g>
</g>
<g>
</g>
<g>
</g>
<g>
</g>
</svg>
