<?xml version="1.0" encoding="iso-8859-1"?>
<!-- Generator: Adobe Illustrator 19.0.0, SVG Export Plug-In . SVG Version: 6.00 Build 0)  -->
<svg version="1.1" id="Capa_1" xmlns="http://www.w3.org/2000/svg" xmlns:xlink="http://www.w3.org/1999/xlink" x="0px" y="0px"
	 viewBox="0 0 512.001 512.001" style="enable-background:new 0 0 512.001 512.001;" xml:space="preserve">
<path style="fill:#BF8540;" d="M76.859,144.227v249.951c0,54.607,44.268,98.876,98.876,98.876h160.537
	c54.607,0,98.876-44.268,98.876-98.876V144.227H76.859z"/>
<path style="fill:#A06D3F;" d="M435.148,144.224v249.952c0,54.61-44.272,98.884-98.87,98.884h-42.685
	c54.597,0,98.87-44.272,98.87-98.884V144.224H435.148z"/>
<path style="fill:#F3D1BB;" d="M108.302,153.626l-0.407,102.696h-1.724c-16.074,0-29.105,13.03-29.105,29.104l0,0
	c0,16.074,13.03,29.104,29.105,29.104h4.574c10.427,47.95,53.105,83.863,104.179,83.863h20.983c0,4.303,0,8.584,0,8.597
	c0,9.675-0.123,9.395-9.363,10.696c-7.125,1.003-13.961,3.76-19.796,7.969c-11.548,8.329-18.535,21.957-18.535,36.197v42.648
	h135.583v-42.648c0-14.24-6.987-27.868-18.535-36.197c-5.835-4.209-12.671-6.966-19.796-7.969c-9.24-1.301-9.363-1.021-9.363-10.696
	c0-0.013,0-4.295,0-8.597h20.983c58.885,0,106.622-47.737,106.622-106.622V153.626H108.302z"/>
<path style="fill:#E8C0A8;" d="M406.198,258.681h-1.585l-0.905-105.052h-42.152v138.14c0,58.892-47.727,106.62-106.62,106.62h42.152
	c51.901,0,95.141-37.088,104.662-86.216h4.449c7.762,0,14.751-3.306,19.636-8.586c4.413-4.769,7.109-11.15,7.109-18.16l0,0
	C432.944,270.655,420.969,258.681,406.198,258.681z"/>
<g>
	<circle style="fill:#E8979F;" cx="169.748" cy="320.649" r="15.886"/>
	<circle style="fill:#E8979F;" cx="342.258" cy="320.649" r="15.886"/>
</g>
<g>
	<path style="fill:#EA476E;" d="M323.791,461.856v42.647H188.215v-42.647c0-14.244,6.981-27.87,18.528-36.196
		c3.729-2.689,7.865-4.784,12.227-6.207c2.462-0.806,5.003-1.399,7.576-1.767c3.768-0.531,6.019-0.79,7.364-1.579l1.728,0.383
		l4.355,2.462c9.843,5.582,21.874,5.621,31.756,0.109l4.62-2.572l1.728-0.383c1.344,0.79,3.596,1.048,7.364,1.579
		c2.572,0.367,5.112,0.962,7.576,1.767c4.362,1.423,8.497,3.518,12.227,6.207C316.81,433.986,323.791,447.612,323.791,461.856z"/>
	<path style="fill:#EA476E;" d="M323.79,461.857v42.646H188.215v-42.646c0-14.245,6.978-27.87,18.524-36.197
		c3.728-2.689,7.868-4.788,12.226-6.207c2.469-0.8,5.008-1.399,7.578-1.77c3.768-0.529,6.018-0.79,7.367-1.579l1.73,0.39
		l4.349,2.459c9.847,5.578,21.883,5.618,31.76,0.11l4.618-2.569l1.73-0.39c0.12,0.07,0.26,0.14,0.399,0.21
		c1.369,0.63,3.549,0.89,6.968,1.369c2.569,0.369,5.108,0.97,7.578,1.77c4.359,1.419,8.497,3.519,12.226,6.207
		C316.813,433.986,323.79,447.612,323.79,461.857z"/>
</g>
<path style="fill:#BF8540;" d="M77.085,144.682c0,0,106.662,90.208,191.605,89.876c3.366-0.013,5.758-3.283,4.76-6.497
	l-6.105-19.648c0,0,91.027,58.33,167.575,49.689V144.682l0,0c0-75.765-61.419-137.184-137.184-137.184h-83.467
	C138.505,7.498,77.085,68.917,77.085,144.682L77.085,144.682z"/>
<path style="fill:#A06D3F;" d="M434.921,144.678V258.1c-14.393,1.627-29.306,0.881-44.019-1.4V144.678
	c0-37.884-15.353-72.179-40.178-97.002C325.9,22.851,291.592,7.498,253.722,7.498h44.019c37.87,0,72.178,15.353,97.002,40.178
	C419.568,72.499,434.921,106.795,434.921,144.678z"/>
<g>
	<circle style="fill:#EA476E;" cx="410.307" cy="304.765" r="18.002"/>
	<circle style="fill:#EA476E;" cx="101.699" cy="304.765" r="18.002"/>
</g>
<path d="M256.003,370.738c-15.901,0-28.836-12.935-28.836-28.836v-0.978c0-4.141,3.357-7.497,7.498-7.497s7.498,3.357,7.498,7.497
	v0.978c0,7.633,6.208,13.841,13.841,13.841s13.841-6.208,13.841-13.841v-0.978c0-4.141,3.357-7.497,7.497-7.497
	s7.498,3.357,7.498,7.497v0.978C284.839,357.803,271.903,370.738,256.003,370.738z"/>
<path d="M215.581,310.465c-4.141,0-7.498-3.357-7.498-7.498v-21.555c0-4.141,3.357-7.497,7.498-7.497
	c4.141,0,7.498,3.357,7.498,7.497v21.555C223.078,307.109,219.722,310.465,215.581,310.465z"/>
<path d="M296.424,310.465c-4.141,0-7.498-3.357-7.498-7.498v-21.555c0-4.141,3.357-7.497,7.498-7.497
	c4.141,0,7.497,3.357,7.497,7.497v21.555C303.922,307.109,300.565,310.465,296.424,310.465z"/>
<g>
	<path style="fill:#A06D3F;" d="M233.511,266.473h-30.089c-4.141,0-7.498-3.357-7.498-7.498c0-4.141,3.357-7.497,7.498-7.497h30.089
		c4.141,0,7.498,3.357,7.498,7.497C241.009,263.116,237.652,266.473,233.511,266.473z"/>
	<path style="fill:#A06D3F;" d="M308.584,266.473h-30.089c-4.141,0-7.498-3.357-7.498-7.498c0-4.141,3.357-7.497,7.498-7.497h30.089
		c4.141,0,7.497,3.357,7.497,7.497C316.081,263.116,312.724,266.473,308.584,266.473z"/>
</g>
<path d="M442.415,219.793v-11.528c0-4.141-3.357-7.498-7.497-7.498s-7.498,3.357-7.498,7.498v42.959
	c-71.59,4.315-155.173-48.574-156.033-49.126c-2.652-1.699-6.083-1.559-8.588,0.349s-3.55,5.18-2.616,8.189l5.092,16.388
	c-73.264-1.861-163.938-72.35-180.647-85.853c1.867-69.893,59.305-126.178,129.64-126.178h83.467
	c71.509,0,129.687,58.178,129.687,129.687v14.267c0,4.141,3.357,7.498,7.498,7.498s7.497-3.357,7.497-7.498v-14.267
	C442.415,64.904,377.512,0,297.734,0h-83.467C135.283,0,70.889,63.622,69.616,142.309c-0.162,0.614-0.257,1.254-0.257,1.919V394.18
	c0,7.953,0.883,15.887,2.624,23.578c0.788,3.482,3.88,5.844,7.305,5.844c0.548,0,1.105-0.061,1.662-0.186
	c4.039-0.914,6.572-4.929,5.657-8.968c-1.495-6.608-2.254-13.428-2.254-20.269v-70.737c4.553,4.231,10.647,6.825,17.338,6.825
	c1.91,0,3.769-0.218,5.56-0.618c7.425,21.04,21.16,39.842,39.075,53.334c19.898,14.987,43.618,22.908,68.594,22.908h13.486v1.1
	c0,0.889,0,1.939-0.018,2.859c-0.66,0.1-1.389,0.202-2.082,0.298l-0.811,0.114c-8.312,1.17-16.313,4.39-23.137,9.312
	c-13.555,9.777-21.647,25.582-21.647,42.279v23.703h-4.979c-25.063,0-48.442-9.946-65.832-28.004
	c-2.872-2.983-7.618-3.073-10.601-0.2c-2.983,2.872-3.073,7.619-0.2,10.601c20.243,21.021,47.457,32.599,76.633,32.599h4.979v3.95
	c0,4.141,3.357,7.498,7.498,7.498h135.584c4.141,0,7.497-3.357,7.497-7.498v-3.95h4.979c58.654,0,106.373-47.718,106.373-106.373
	V221.595C442.642,220.972,442.558,220.371,442.415,219.793z M412.108,267.107c7.365,2.382,12.79,9.096,13.287,17.121
	c-3.774-2.779-8.338-4.54-13.287-4.887V267.107z M410.309,294.265c5.791,0,10.503,4.712,10.503,10.504s-4.712,10.504-10.503,10.504
	c-5.792,0-10.504-4.712-10.504-10.504C399.806,298.977,404.517,294.265,410.309,294.265z M84.354,160.07
	c4.444,3.418,9.996,7.571,16.459,12.178c-0.002,0.071-0.011,0.14-0.011,0.211v76.762c-6.098,0.9-11.712,3.307-16.448,6.833V160.07z
	 M84.561,285.426c0-9.916,6.714-18.293,15.835-20.824v14.701c-6.069,0.305-11.586,2.743-15.815,6.579
	C84.577,285.729,84.561,285.579,84.561,285.426z M101.692,315.272c-5.791,0-10.503-4.712-10.503-10.504
	c0-5.792,4.712-10.504,10.503-10.504c5.792,0,10.504,4.712,10.504,10.504C112.196,310.561,107.484,315.272,101.692,315.272z
	 M155.348,371.005c-16.334-12.302-28.657-29.676-34.851-49.038c4.154-4.538,6.693-10.577,6.693-17.2
	c0-8.845-4.536-16.636-11.394-21.211V182.586c7.455,4.975,15.641,10.191,24.392,15.393c49.25,29.278,92.231,44.082,127.932,44.08
	c2.808,0,5.581-0.092,8.297-0.275c0.428-0.029,0.857-0.098,1.26-0.244c4.232-1.533,6.022-5.749,4.879-9.427l-2.35-7.562
	c9.825,5.348,23.401,12.213,39.327,18.865c27.96,11.679,53.907,18.933,77.578,21.737v17.804
	c-7.369,4.475-12.303,12.578-12.303,21.811c0,6.623,2.539,12.662,6.694,17.2c-6.195,19.362-18.518,36.736-34.852,49.038
	c-17.277,13.012-37.877,19.89-59.572,19.89H214.92C193.226,390.897,172.627,384.019,155.348,371.005z M268.718,412.305
	c-11.084,4.25-20.521,1.738-25.415-0.303c0.076-1.212,0.094-2.503,0.097-3.897h25.201
	C268.605,409.615,268.624,411.007,268.718,412.305z M316.294,497.005h-17.938V480.27c0-4.141-3.357-7.498-7.498-7.498
	s-7.497,3.357-7.497,7.498v16.735H228.64V480.27c0-4.141-3.357-7.498-7.498-7.498s-7.498,3.357-7.498,7.498v16.735h-17.938v-35.151
	c0-11.892,5.766-23.151,15.424-30.117c4.856-3.503,10.546-5.794,16.455-6.626l0.797-0.112c1.962-0.274,3.767-0.527,5.414-0.931
	c3.825,2.016,12.089,5.578,22.755,5.578c6.665,0,14.264-1.4,22.292-5.433c1.472,0.321,3.064,0.546,4.776,0.786l0.797,0.112
	c5.909,0.832,11.599,3.123,16.455,6.626c9.658,6.966,15.424,18.225,15.424,30.117v35.151H316.294z M427.647,394.18
	c0,50.386-40.992,91.378-91.378,91.378h-4.979v-23.703c0-16.697-8.092-32.502-21.647-42.279c-6.824-4.922-14.825-8.142-23.137-9.312
	l-0.811-0.114c-0.693-0.097-1.422-0.198-2.082-0.298c-0.018-0.921-0.018-1.971-0.018-2.859v-1.1h13.486
	c24.976,0,48.694-7.921,68.593-22.907c17.916-13.493,31.651-32.295,39.076-53.335c1.792,0.4,3.65,0.618,5.56,0.618
	c6.691,0,12.784-2.594,17.338-6.825L427.647,394.18L427.647,394.18z"/>
<g>
</g>
<g>
</g>
<g>
</g>
<g>
</g>
<g>
</g>
<g>
</g>
<g>
</g>
<g>
</g>
<g>
</g>
<g>
</g>
<g>
</g>
<g>
</g>
<g>
</g>
<g>
</g>
<g>
</g>
</svg>
