<?xml version="1.0" encoding="iso-8859-1"?>
<!-- Generator: Adobe Illustrator 19.0.0, SVG Export Plug-In . SVG Version: 6.00 Build 0)  -->
<svg version="1.1" id="Capa_1" xmlns="http://www.w3.org/2000/svg" xmlns:xlink="http://www.w3.org/1999/xlink" x="0px" y="0px"
	 viewBox="0 0 512 512" style="enable-background:new 0 0 512 512;" xml:space="preserve">
<g>
	<path style="fill:#F3D1BB;" d="M323.861,504.495v-42.69c0-14.254-6.993-27.895-18.554-36.233
		c-5.841-4.213-12.683-6.972-19.816-7.977c-9.249-1.302-9.372-1.022-9.372-10.707c0-0.026,0-20.309,0-20.309h-40.233
		c0,0,0,20.283,0,20.309c0,9.685-0.123,9.404-9.372,10.707c-7.133,1.005-13.974,3.763-19.816,7.977
		c-11.559,8.337-18.554,21.979-18.554,36.233v42.69L323.861,504.495L323.861,504.495z"/>
	<path style="fill:#F3D1BB;" d="M107.478,134.987v102.557h-2.71c-16.09,0-29.134,13.043-29.134,29.134l0,0
		c0,16.09,13.043,29.134,29.134,29.134h2.747c1.5,57.907,48.911,104.389,107.179,104.389h82.618
		c59.214,0,107.216-48.003,107.216-107.216V134.987H107.478z"/>
</g>
<path style="fill:#E8C0A8;" d="M407.232,237.544h-2.7V122.478h-42.387v170.501c0,59.221-47.994,107.215-107.215,107.215h42.387
	c58.261,0,105.677-46.472,107.177-104.384h2.737c8.454,0,16.067-3.601,21.389-9.353c4.807-5.195,7.744-12.145,7.744-19.781l0,0
	C436.365,250.587,423.321,237.544,407.232,237.544z"/>
<path style="fill:#603813;" d="M398.659,328.013c-14.502,42.01-54.41,72.182-101.347,72.182h-82.619
	c-46.936,0-86.844-30.172-101.347-72.182l0.074,0.032c3.734,1.599,7.546,2.998,11.405,4.263c9.712,3.183,19.701,5.555,29.801,7.104
	c13.609,2.087,27.488,2.656,41.195,1.245c15.851-1.631,31.412-5.988,45.587-13.315c2.535-1.311,5.023-2.712,7.459-4.2
	c1.818-1.111,3.385-2.644,5.331-3.545c2.276-1.056,3.041-0.27,5.001,1.035c3.627,2.415,7.386,4.632,11.254,6.638
	c7.298,3.785,14.984,6.807,22.893,9.051c14.358,4.074,29.368,5.56,44.26,4.997c12.271-0.463,24.486-2.288,36.402-5.236
	c7.308-1.808,14.546-4.013,21.552-6.781c1.015-0.401,2.018-0.826,3.022-1.255L398.659,328.013z"/>
<path style="fill:#459DE5;" d="M323.857,461.807v42.688H188.149v-42.688c0-14.258,6.988-27.898,18.546-36.231
	c3.732-2.692,7.872-4.789,12.239-6.213c2.465-0.805,5.008-1.401,7.583-1.768c3.771-0.532,6.026-0.79,7.372-1.581l1.729,0.383
	l4.359,2.465c9.852,5.588,21.895,5.627,31.786,0.109l4.625-2.575l1.729-0.383c1.346,0.791,3.599,1.049,7.372,1.581
	c2.575,0.368,5.118,0.963,7.583,1.768c4.367,1.424,8.506,3.521,12.239,6.213C316.869,433.91,323.857,447.55,323.857,461.807z"/>
<g>
	<circle style="fill:#E8979F;" cx="169.268" cy="297.5" r="15.974"/>
	<circle style="fill:#E8979F;" cx="342.739" cy="297.5" r="15.974"/>
</g>
<path style="fill:#603813;" d="M400.204,27.953c-2.137-4.454-5.399-8.572-10.363-12.23c-5.982-4.408-13.298-6.803-20.728-6.803
	c-10.134,0-19.256,4.313-25.647,11.197c-7.809-7.791-18.583-12.612-30.486-12.612c-8.457,0-16.34,2.442-23.002,6.644
	c-4.734,1.771-8.72,5.076-11.347,9.318c-3.325-9.298-12.186-15.962-22.626-15.962c-10.441,0-19.301,6.664-22.627,15.961
	c-2.628-4.242-6.612-7.547-11.347-9.318c-6.66-4.203-14.543-6.644-23.002-6.644c-11.904,0-22.677,4.821-30.487,12.613
	c-6.39-6.884-15.513-11.197-25.647-11.197c-15.381,0-34.985,12.978-34.991,29.775v222.364c0,0,46.824-56.152,48.517-108.462
	c0,0,37.012,11.289,96.514,12.032v0.04c1.036,0,2.048-0.012,3.072-0.018c1.024,0.006,2.035,0.018,3.072,0.018v-0.04
	c59.501-0.742,96.514-12.032,96.514-12.032c1.693,52.31,48.517,108.462,48.517,108.455c0-40.757,0-81.513,0-122.27
	c0-25.545,0-51.091,0-76.635C404.105,50.001,405.076,38.105,400.204,27.953z"/>
<path style="fill:#512C0E;" d="M404.105,62.152v198.902c0,0-29.949-35.916-42.806-77.055V62.152c0-12.156,0.977-24.046-3.897-34.196
	c-2.038-4.247-5.106-8.196-9.682-11.71c5.914-4.597,13.335-7.326,21.393-7.326c7.432,0,14.746,2.4,20.723,6.805
	c4.968,3.652,8.228,7.771,10.373,12.231C405.072,38.105,404.105,49.996,404.105,62.152z"/>
<path d="M256.554,429.566c-14.406,0-24.455-6.499-25.083-6.915c-3.454-2.29-4.398-6.947-2.107-10.402
	c2.281-3.441,6.913-4.39,10.363-2.133c0.745,0.475,16.215,10.07,34.629-0.597c3.585-2.077,8.178-0.856,10.256,2.732
	c2.078,3.586,0.855,8.178-2.731,10.256C272.735,427.805,264.054,429.566,256.554,429.566z"/>
<g>
	<path style="fill:#F2B844;" d="M262.169,406.83v12.091v10.231v12.091l23.853,4.808c13.906,2.803,26.894-7.829,26.894-22.014l0,0
		c0-14.185-12.989-24.817-26.894-22.014L262.169,406.83z"/>
	<path style="fill:#F2B844;" d="M249.837,406.83v12.091v10.231v12.091l-23.853,4.808c-13.906,2.803-26.894-7.829-26.894-22.014l0,0
		c0-14.185,12.989-24.817,26.894-22.014L249.837,406.83z"/>
</g>
<circle style="fill:#E59E2C;" cx="256.003" cy="424.031" r="17.885"/>
<path style="fill:#603813;" d="M316.647,217.083h-31.955c-4.146,0-7.505-3.36-7.505-7.505c0-4.145,3.359-7.505,7.505-7.505h31.955
	c4.146,0,7.505,3.36,7.505,7.505C324.152,213.723,320.793,217.083,316.647,217.083z"/>
<path d="M300.67,305.387c-4.146,0-7.505-3.36-7.505-7.505V273.87c0-4.145,3.359-7.505,7.505-7.505s7.505,3.36,7.505,7.505v24.012
	C308.175,302.027,304.815,305.387,300.67,305.387z"/>
<path d="M208.488,305.387c-4.145,0-7.505-3.36-7.505-7.505V273.87c0-4.145,3.36-7.505,7.505-7.505s7.505,3.36,7.505,7.505v24.012
	C215.993,302.027,212.634,305.387,208.488,305.387z"/>
<path style="fill:#603813;" d="M225.889,275.014h-31.955c-4.145,0-7.505-3.36-7.505-7.505c0-4.145,3.36-7.505,7.505-7.505h31.956
	c4.145,0,7.505,3.36,7.505,7.505C233.395,271.654,230.034,275.014,225.889,275.014z"/>
<path d="M412.356,230.405V62.147c0-1.711,0.02-3.417,0.039-5.113c0.124-10.84,0.253-22.05-4.679-32.328
	c-2.838-5.916-6.983-10.831-12.677-15.026c-7.234-5.33-16.176-8.266-25.179-8.266c-9.329,0-18.395,3.112-25.745,8.702
	C335.39,3.551,324.828,0,313.726,0c-9.33,0-18.432,2.56-26.372,7.409c-2.351,0.952-4.569,2.201-6.601,3.703
	C274.868,4.212,266.146,0,256.751,0c-9.396,0-18.118,4.212-24.002,11.111c-2.031-1.502-4.251-2.751-6.6-3.703
	C218.207,2.56,209.105,0,199.775,0c-11.102,0-21.665,3.551-30.388,10.116c-7.353-5.591-16.416-8.702-25.745-8.702
	c-19.646,0-42.489,16.283-42.496,37.279v191.525c-18.508,1.826-33.014,17.478-33.014,36.457c0,18.726,14.125,34.206,32.279,36.369
	c1.908,22.264,10.148,43.144,24.131,60.888c1.481,1.879,3.679,2.86,5.9,2.86c0.103,0,0.206-0.021,0.309-0.025
	c1.769,0.104,3.582-0.406,5.084-1.589c3.256-2.565,3.815-7.284,1.251-10.54c-3.414-4.334-6.446-8.912-9.078-13.701
	c8.492,2.533,19.725,5.235,32.657,6.764c36.138,4.274,69.235-2.706,96.088-20.197c26.854,17.491,59.955,24.468,96.088,20.197
	c12.94-1.53,24.18-4.236,32.667-6.766c-17.272,31.511-50.62,51.754-87.447,51.754h-82.129c-13.35-0.031-26.3-2.653-38.495-7.798
	c-1.059-0.447-2.16-0.623-3.237-0.577c-3.073-0.167-6.057,1.57-7.322,4.569c-1.612,3.818,0.177,8.22,3.996,9.832
	c8.765,3.699,17.866,6.265,27.203,7.681c-3.699,5.067-5.745,11.204-5.745,17.637c0,1.788,0.164,3.552,0.47,5.278
	c-7.278,9.141-11.413,20.581-11.413,32.492v42.69c0,4.145,3.36,7.505,7.505,7.505h135.715c4.146,0,7.505-3.36,7.505-7.505v-42.69
	c-0.001-11.916-4.129-23.368-11.411-32.511c0.304-1.72,0.466-3.478,0.466-5.259c0-6.395-2.025-12.495-5.685-17.544
	c52.179-7.641,93.057-50.541,97.598-103.654c8.015-1.305,15.471-5.255,21.047-11.282l0.001-0.001
	c6.28-6.789,9.739-15.624,9.739-24.876C443.87,248.215,430.141,232.907,412.356,230.405z M278.704,411.303l9.549-1.925
	c4.41-0.887,8.942,0.236,12.425,3.087c3.483,2.852,5.482,7.069,5.482,11.57s-1.998,8.719-5.482,11.57
	c-3.484,2.852-8.014,3.976-12.425,3.087l-9.549-1.925c2.181-3.746,3.437-8.094,3.437-12.732
	C282.141,419.397,280.884,415.049,278.704,411.303z M256.751,413.654c5.725,0,10.381,4.657,10.381,10.381
	c0,5.725-4.656,10.382-10.381,10.382s-10.382-4.657-10.382-10.382C246.369,418.311,251.026,413.654,256.751,413.654z
	 M212.823,412.465c2.702-2.211,6.033-3.384,9.45-3.384c0.989,0,1.984,0.098,2.975,0.297l9.548,1.925
	c-2.181,3.746-3.437,8.094-3.437,12.732s1.256,8.987,3.437,12.732l-9.548,1.925c-4.411,0.888-8.942-0.235-12.425-3.087
	c-3.483-2.852-5.481-7.069-5.481-11.57S209.34,415.316,212.823,412.465z M317.104,461.806v35.185h-18.703v-16.751
	c0-4.145-3.359-7.505-7.505-7.505c-4.146,0-7.505,3.36-7.505,7.505v16.751h-54.775v-16.751c0-4.145-3.36-7.505-7.505-7.505
	c-4.145,0-7.505,3.36-7.505,7.505v16.751h-17.208v-35.185c0-6.027,1.485-11.887,4.203-17.112c0.849,0.889,1.751,1.736,2.716,2.526
	c5.414,4.432,12.089,6.782,18.937,6.782c1.981,0,3.978-0.196,5.962-0.596l22.904-4.618c1.813,0.412,3.696,0.637,5.632,0.637
	c1.936,0,3.819-0.225,5.632-0.637l22.904,4.617c1.984,0.4,3.981,0.596,5.961,0.596c6.849,0,13.525-2.352,18.938-6.782
	c0.963-0.787,1.862-1.632,2.709-2.519C315.613,449.924,317.104,455.78,317.104,461.806z M98.99,287.522
	c-9.13-2.534-15.85-10.919-15.85-20.845c0-9.925,6.72-18.311,15.85-20.844V287.522z M394.172,322.069
	c-11.578,4.632-69.919,25.425-121.415-2.488c2.162-1.994,3.976-4.391,5.28-7.121c1.787-3.739,0.204-8.22-3.535-10.007
	c-3.736-1.786-8.219-0.205-10.006,3.535c-1.419,2.968-4.459,4.886-7.745,4.886c-3.455,0-6.557-2.056-7.903-5.239
	c-1.615-3.817-6.02-5.603-9.835-3.989c-3.817,1.615-5.604,6.018-3.989,9.835c1.334,3.153,3.302,5.896,5.71,8.125
	c-22.349,12.179-48.469,16.638-77.853,13.243c-21.416-2.474-38.08-8.585-43.626-10.812c-2.821-9.3-4.271-19.051-4.271-29.058
	v-27.812c2.537-3.124,13.022-16.384,23.784-34.965c14.267-24.634,22.717-47.492,25.187-68.098c3.955,0.929,9.165,2.049,15.531,3.204
	c4.078,0.744,7.984-1.966,8.724-6.045s-1.966-7.984-6.045-8.724c-14.541-2.638-22.733-5.102-22.809-5.125
	c-2.235-0.682-4.659-0.284-6.557,1.076c-1.899,1.359-3.057,3.525-3.133,5.86c-1.026,31.681-20.043,65.543-33.511,85.706V38.697
	c0.004-11.786,15.374-22.272,27.487-22.272c7.725,0,14.881,3.125,20.146,8.798c1.386,1.493,3.319,2.359,5.356,2.398
	c2.035,0.035,4.003-0.751,5.444-2.19c6.735-6.718,15.681-10.42,25.186-10.42c6.74,0,13.309,1.897,18.996,5.486
	c0.434,0.274,0.896,0.502,1.376,0.682c3.131,1.171,5.829,3.387,7.597,6.24c1.518,2.451,4.31,3.818,7.171,3.51
	c2.866-0.303,5.305-2.221,6.275-4.935c2.352-6.568,8.605-10.983,15.562-10.983c6.957,0,13.21,4.415,15.562,10.985
	c0.971,2.714,3.409,4.631,6.275,4.935c2.859,0.3,5.652-1.062,7.171-3.511c1.768-2.854,4.465-5.069,7.596-6.24
	c0.48-0.18,0.942-0.408,1.376-0.682c5.688-3.589,12.257-5.487,18.996-5.487c9.505,0,18.45,3.701,25.187,10.422
	c1.442,1.439,3.425,2.236,5.444,2.19c2.036-0.039,3.971-0.905,5.356-2.398c5.266-5.674,12.421-8.798,20.147-8.798
	c5.822,0,11.602,1.897,16.276,5.339c3.665,2.702,6.298,5.788,8.048,9.435c3.415,7.118,3.312,16.125,3.202,25.662
	c-0.02,1.753-0.04,3.516-0.04,5.285v175.958c-13.462-20.11-32.481-53.932-33.51-85.752c-0.075-2.334-1.233-4.501-3.133-5.86
	c-1.898-1.36-4.323-1.756-6.558-1.076c-0.359,0.11-36.655,10.985-94.417,11.705c-0.223,0.003-0.444,0.016-0.662,0.038
	c-0.433-0.002-0.863-0.005-1.293-0.009l-1.069-0.007l-0.976,0.007c-0.429,0.003-0.858,0.007-1.29,0.009
	c-0.219-0.022-0.441-0.035-0.666-0.038c-6.706-0.083-13.472-0.31-20.108-0.674c-4.136-0.235-7.678,2.943-7.904,7.083
	c-0.227,4.139,2.944,7.677,7.083,7.904c6.587,0.361,13.296,0.591,19.957,0.685c0.996,0.116,2.036,0.048,3.048,0.04l0.857-0.007
	l0.95,0.007c1.01,0.008,2.047,0.076,3.043-0.04c43.131-0.604,74.368-6.587,88.853-10.003c2.473,20.602,10.92,43.455,25.183,68.081
	c6.317,10.908,12.57,19.981,16.702,25.67c2.939,4.047,4.964,6.83,6.566,8.743c0,0,0.132,32.784,0.369,33.514
	C397.946,306.414,396.505,314.434,394.172,322.069z M423.112,281.361c-2.671,2.887-5.967,4.926-9.602,6.019l-0.5-41.548
	c9.13,2.534,15.851,10.919,15.851,20.845C428.861,272.139,426.82,277.353,423.112,281.361z"/>
<g>
</g>
<g>
</g>
<g>
</g>
<g>
</g>
<g>
</g>
<g>
</g>
<g>
</g>
<g>
</g>
<g>
</g>
<g>
</g>
<g>
</g>
<g>
</g>
<g>
</g>
<g>
</g>
<g>
</g>
</svg>
