<?xml version="1.0" encoding="iso-8859-1"?>
<!-- Generator: Adobe Illustrator 19.0.0, SVG Export Plug-In . SVG Version: 6.00 Build 0)  -->
<svg version="1.1" id="Capa_1" xmlns="http://www.w3.org/2000/svg" xmlns:xlink="http://www.w3.org/1999/xlink" x="0px" y="0px"
	 viewBox="0 0 512 512" style="enable-background:new 0 0 512 512;" xml:space="preserve">
<path style="fill:#634228;" d="M256.489,7.512h-0.974H210.26c-88.281,0-159.847,74.476-159.847,166.346l0,0
	c0,157.64,33.664,214.398,43.874,227.987c1.528,2.034,4.319,2.615,6.518,1.337c13.35-7.759,60.585-33.928,89.801-33.543
	l65.396,0.861l65.396-0.86c29.216-0.384,76.451,25.784,89.801,33.543c2.199,1.278,4.99,0.696,6.518-1.337
	c10.21-13.589,43.874-70.347,43.874-227.987l0,0c0-91.871-71.566-166.346-159.847-166.346h-45.255V7.512z"/>
<path style="fill:#512C0E;" d="M461.597,173.859c0,92.908-11.694,150.775-23.387,185.415c-7.808,23.129-15.616,35.903-19.943,41.839
	c-1.717,2.355-5.053,2.74-7.282,0.863c-10.633-8.955-22.395-16.18-34.879-21.492c2.659-5.814,5.479-12.83,8.313-21.209
	c11.694-34.64,23.387-92.507,23.387-185.415c0-45.933-17.895-87.522-46.815-117.618c-28.934-30.11-68.892-48.726-113.034-48.726
	h53.791c44.142,0,84.101,18.616,113.034,48.726C443.702,86.337,461.597,127.926,461.597,173.859z"/>
<path style="fill:#F3D1BB;" d="M108.024,122.449v114.825h-1.146c-16.105,0-29.162,13.056-29.162,29.162s13.056,29.162,29.162,29.162
	h1.194c1.641,57.466,48.737,103.549,106.601,103.549h21.196c0,4.163,0,7.629,0,7.639c0,9.695-0.124,9.414-9.381,10.717
	c-7.14,1.005-13.988,3.767-19.835,7.985c-11.571,8.346-18.572,22-18.572,36.268v42.732h135.848v-42.732
	c0-14.268-7.001-27.922-18.572-36.268c-5.847-4.217-12.695-6.979-19.835-7.985c-9.258-1.303-9.381-1.022-9.381-10.717
	c0-0.01,0-3.477,0-7.639h21.19c58.9,0,106.649-47.748,106.649-106.649V122.449H108.024z"/>
<path style="fill:#028FCB;" d="M323.925,461.758v42.73h-135.84v-42.73c0-14.272,6.995-27.925,18.564-36.267
	c3.736-2.695,7.88-4.794,12.251-6.219c2.467-0.807,5.013-1.402,7.59-1.77c3.775-0.533,6.031-0.791,7.379-1.582l1.731,0.384
	l4.363,2.467c9.862,5.593,21.917,5.632,31.818,0.11l4.629-2.577l1.731-0.384c1.347,0.791,3.603,1.05,7.379,1.582
	c2.577,0.368,5.123,0.963,7.59,1.77c4.371,1.426,8.514,3.525,12.251,6.219C316.931,433.833,323.925,447.486,323.925,461.758z"/>
<path style="fill:#ECC19C;" d="M406.634,237.274h-2.65V122.449h-42.231v169.872c0,59.003-47.817,106.82-106.82,106.82h42.231
	c57.893,0,105.033-46.058,106.765-103.543h2.705c8.462,0,16.083-3.605,21.41-9.362c4.811-5.2,7.752-12.157,7.752-19.8l0,0
	C435.795,250.331,422.739,237.274,406.634,237.274z"/>
<g>
	<circle style="fill:#E8979F;" cx="169.582" cy="347.78" r="15.915"/>
	<circle style="fill:#E8979F;" cx="342.422" cy="347.78" r="15.915"/>
</g>
<path style="fill:#634228;" d="M366.266,69.55c-11.722,0-22.713,3.103-32.224,8.51c-12.444-30.902-42.684-52.724-78.04-52.724
	s-65.596,21.822-78.04,52.724c-9.511-5.407-20.502-8.51-32.224-8.51c-36.073,0-65.316,29.243-65.316,65.316
	s29.243,65.316,65.316,65.316c22.346,0,42.062-11.228,53.839-28.344c14.923,13.507,34.712,21.736,56.425,21.736
	c21.713,0,41.502-8.23,56.426-21.736c11.776,17.116,31.492,28.344,53.839,28.344c36.073,0,65.316-29.243,65.316-65.316
	S402.339,69.55,366.266,69.55z"/>
<g>
	<circle style="fill:#AFE6EF;" cx="187.872" cy="271.8" r="67.06"/>
	<circle style="fill:#AFE6EF;" cx="323.922" cy="271.8" r="67.06"/>
</g>
<path style="fill:#F2B844;" d="M278.341,416.125v88.363h-44.672v-88.573l1.733,0.391l4.357,2.464
	c9.866,5.589,21.925,5.629,31.821,0.11l4.627-2.574l1.733-0.391C278.061,415.985,278.201,416.055,278.341,416.125z"/>
<path d="M158.078,279.054c-1.997,0-3.99-0.791-5.468-2.36c-2.845-3.02-2.705-7.773,0.315-10.619l33.849-31.897
	c3.018-2.844,7.772-2.706,10.619,0.315c2.845,3.02,2.705,7.773-0.315,10.619l-33.849,31.897
	C161.779,278.376,159.927,279.054,158.078,279.054z"/>
<path d="M163.085,311.414c-1.997,0-3.99-0.791-5.468-2.36c-2.845-3.02-2.705-7.774,0.315-10.619l57.684-54.356
	c3.019-2.845,7.772-2.707,10.619,0.315c2.845,3.02,2.705,7.774-0.315,10.619l-57.684,54.356
	C166.786,310.736,164.934,311.414,163.085,311.414z"/>
<path d="M297.741,279.054c-1.997,0-3.99-0.791-5.468-2.36c-2.845-3.02-2.705-7.773,0.315-10.619l33.85-31.897
	c3.018-2.844,7.773-2.706,10.619,0.315c2.845,3.02,2.705,7.773-0.315,10.619l-33.85,31.897
	C301.441,278.376,299.589,279.054,297.741,279.054z"/>
<path d="M302.748,311.414c-1.997,0-3.99-0.791-5.468-2.36c-2.845-3.02-2.705-7.774,0.315-10.619l57.684-54.356
	c3.018-2.845,7.773-2.707,10.619,0.315c2.845,3.02,2.705,7.774-0.315,10.619l-57.684,54.356
	C306.448,310.736,304.596,311.414,302.748,311.414z"/>
<path d="M259.799,357.493l-17.235-8.191c-3.748-1.78-8.229-0.186-10.009,3.56c-1.781,3.747-0.188,8.229,3.559,10.009l17.235,8.191
	c1.042,0.495,2.139,0.73,3.22,0.73c2.809,0,5.504-1.584,6.789-4.289C265.14,363.755,263.546,359.273,259.799,357.493z"/>
<path d="M301.744,0H210.26C117.978,0,42.901,77.993,42.901,173.859c0,57.26,4.422,107.146,13.142,148.271
	c0.861,4.06,4.851,6.653,8.907,5.791c4.058-0.861,6.651-4.849,5.791-8.907c-8.504-40.102-12.816-88.94-12.816-145.156
	c0-87.581,68.337-158.834,152.334-158.834h91.484c83.997,0,152.334,71.253,152.334,158.835c0,93.47-12.137,150.014-22.319,180.99
	c-6.874,20.913-13.794,33.271-18.049,39.63c-10.928-8.881-22.892-16.027-35.734-21.365c18.364-18.374,30.525-42.95,33.028-70.278
	c8.584-1.039,16.63-5.095,22.555-11.5c6.287-6.795,9.749-15.639,9.749-24.901c0-18.574-13.884-33.957-31.816-36.342v-38.149
	c2.563-2.042,5.021-4.255,7.333-6.665c2.872-2.994,2.774-7.749-0.22-10.622c-2.994-2.872-7.75-2.774-10.622,0.22
	c-11.007,11.473-25.823,17.792-41.717,17.792c-19.028,0-36.841-9.379-47.65-25.089c-1.228-1.784-3.166-2.952-5.317-3.203
	c-2.156-0.248-4.307,0.438-5.913,1.892c-14.102,12.764-32.351,19.793-51.384,19.793s-37.282-7.03-51.384-19.793
	c-1.606-1.455-3.759-2.147-5.913-1.892c-2.151,0.251-4.09,1.418-5.317,3.203c-10.809,15.71-28.623,25.089-47.65,25.089
	c-16.086,0-31.573-6.783-42.488-18.611c-2.813-3.047-7.566-3.237-10.616-0.426c-3.049,2.814-3.239,7.567-0.425,10.616
	c2.576,2.792,5.355,5.36,8.302,7.691v38.388c-17.196,3.024-30.307,18.059-30.307,36.109c0,18.214,13.349,33.364,30.776,36.194
	c2.46,27.411,14.637,52.063,33.047,70.484c-12.854,5.347-24.822,12.502-35.738,21.37c-3.12-4.657-7.67-12.532-12.569-24.624
	c-1.559-3.845-5.936-5.7-9.784-4.14c-3.845,1.558-5.699,5.939-4.141,9.784c10.125,24.981,19.149,34.225,20.145,35.197
	c1.457,1.421,3.35,2.136,5.248,2.136c1.803,0,3.608-0.646,5.042-1.945c13.161-11.921,28.207-20.874,44.726-26.634
	c18.998,14.068,42.487,22.401,67.889,22.401h13.511v0.127c0,0.89,0,1.943-0.019,2.865c-0.661,0.1-1.393,0.202-2.086,0.299
	l-0.812,0.113c-8.328,1.173-16.345,4.4-23.182,9.332c-13.58,9.795-21.688,25.63-21.689,42.361v42.732
	c0,4.149,3.363,7.512,7.512,7.512h45.588h44.672h45.588c4.149,0,7.512-3.363,7.512-7.512v-42.733
	c-0.001-16.729-8.11-32.564-21.689-42.36c-6.837-4.932-14.854-8.159-23.183-9.332l-0.811-0.113c-0.693-0.097-1.425-0.2-2.086-0.299
	c-0.019-0.922-0.019-1.975-0.019-2.865v-0.127h13.505c25.404,0,48.894-8.334,67.892-22.404
	c16.504,5.745,31.534,14.692,44.722,26.638c1.434,1.299,3.24,1.945,5.042,1.945c1.897,0,3.791-0.715,5.248-2.136
	c2.002-1.953,49.039-50.007,49.039-236.842C469.103,77.992,394.026,0,301.744,0z M412.417,245.571
	c9.139,2.536,15.866,10.93,15.866,20.865c0,5.468-2.043,10.687-5.754,14.698c-2.796,3.022-6.273,5.129-10.112,6.181V245.571z
	 M100.511,287.114c-8.837-2.727-15.283-10.957-15.283-20.678c0-9.72,6.445-17.949,15.283-20.677V287.114z M226.157,496.976h-30.564
	v-35.219c0.001-11.916,5.778-23.197,15.455-30.176c4.486-3.236,9.686-5.425,15.109-6.402V496.976z M285.853,425.179
	c5.424,0.978,10.624,3.166,15.109,6.402c9.677,6.979,15.454,18.26,15.455,30.175v35.22h-30.564V425.179z M366.266,207.693
	c10.624,0,20.856-2.261,30.201-6.523v48.586c-5.385-17.635-17.056-32.543-32.39-42.122
	C364.807,207.656,365.534,207.693,366.266,207.693z M200.761,182.563c15.853,11.996,35.183,18.523,55.241,18.523
	s39.388-6.527,55.241-18.522c4.649,5.36,10.027,9.946,15.912,13.696c-1.002-0.04-2.005-0.077-3.017-0.077
	c-29.958,0-55.903,17.513-68.135,42.838c-12.232-25.325-38.177-42.838-68.135-42.838c-1.013,0-2.017,0.037-3.02,0.077
	C190.733,192.509,196.112,187.923,200.761,182.563z M248.459,271.8c0,33.411-27.181,60.591-60.591,60.591
	s-60.591-27.181-60.591-60.591s27.181-60.592,60.591-60.592S248.459,238.389,248.459,271.8z M145.738,207.693
	c0.733,0,1.46-0.038,2.19-0.06c-15.16,9.471-26.745,24.149-32.21,41.524c-0.075-24.101-0.183-48.066-0.183-48.066
	C124.938,205.379,135.232,207.693,145.738,207.693z M270.829,496.976h-29.647v-69.237c9.499,3.698,20.19,3.641,29.647-0.187V496.976
	z M243.262,412.12c0.095-1.303,0.115-2.702,0.118-4.219h25.25c0.003,1.421,0.022,2.736,0.102,3.967l-0.811,0.451
	c-7.555,4.212-16.927,4.181-24.464-0.089L243.262,412.12z M297.158,391.634h-82.313c-52.84,0-96.169-41.483-99.142-93.592
	c0.029-0.084,0.05-1.323,0.063-3.457c9.69,30.593,38.344,52.83,72.1,52.83c29.948,0,55.884-17.501,68.122-42.812
	c2.079,4.302,4.571,8.433,7.482,12.339c2.478,3.326,7.185,4.014,10.512,1.535s4.014-7.186,1.535-10.512
	c-7.832-10.51-11.971-23.016-11.971-36.165c0-33.41,27.181-60.592,60.591-60.592c33.411,0,60.592,27.182,60.592,60.592
	c0,33.411-27.182,60.591-60.592,60.591c-2.842,0-5.698-0.198-8.484-0.589c-4.117-0.566-7.906,2.288-8.482,6.397
	c-0.575,4.109,2.289,7.906,6.397,8.483c3.475,0.487,7.032,0.734,10.57,0.734c34.003,0,62.829-22.563,72.31-53.501
	C395.595,347.943,351.387,391.634,297.158,391.634z"/>
<g>
</g>
<g>
</g>
<g>
</g>
<g>
</g>
<g>
</g>
<g>
</g>
<g>
</g>
<g>
</g>
<g>
</g>
<g>
</g>
<g>
</g>
<g>
</g>
<g>
</g>
<g>
</g>
<g>
</g>
</svg>
