<?xml version="1.0" encoding="iso-8859-1"?>
<!-- Generator: Adobe Illustrator 19.0.0, SVG Export Plug-In . SVG Version: 6.00 Build 0)  -->
<svg version="1.1" id="Capa_1" xmlns="http://www.w3.org/2000/svg" xmlns:xlink="http://www.w3.org/1999/xlink" x="0px" y="0px"
	 viewBox="0 0 511.999 511.999" style="enable-background:new 0 0 511.999 511.999;" xml:space="preserve">
<path style="fill:#FBB03B;" d="M422.975,404.879c-6.195-18.77-5.679-39.961-3.904-55.443c1.227-10.706,4.046-21.145,7.89-31.212
	c26.832-70.288-31.467-148.324-31.467-148.324H262.623h-13.11H116.642c0,0-58.299,78.036-31.467,148.324
	c3.843,10.067,6.662,20.506,7.89,31.212c1.775,15.482,2.291,36.674-3.904,55.443c0,0-0.079,0.118-0.226,0.344
	c-21.179,32.64,0.497,77.625,37.3,77.625h259.667c36.803,0,58.48-44.985,37.3-77.625
	C423.055,404.996,422.975,404.879,422.975,404.879z"/>
<path style="fill:#EF9D30;" d="M423.203,405.22c21.178,32.639-0.5,77.63-37.297,77.63H331.54c36.797,0,58.475-44.99,37.297-77.63
	c-0.146-0.219-0.232-0.341-0.232-0.341c-11.437-34.651,0-77.556,0-77.556c35.992-72.472-27.482-157.418-27.482-157.418h54.366
	c0,0,63.474,84.945,27.482,157.418c0,0-11.437,42.905,0,77.556C422.971,404.878,423.056,405,423.203,405.22z"/>
<path style="fill:#F0D0B4;" d="M297.093,398.033h-82.051c-58.947,0-106.732-47.786-106.732-106.732V92.333h295.516V291.3
	C403.826,350.247,356.04,398.033,297.093,398.033z"/>
<path style="fill:#ECC19C;" d="M403.829,130.708v160.659c0,58.915-47.759,106.661-106.661,106.661H255
	c58.915,0,106.661-47.746,106.661-106.661V130.708H403.829z"/>
<g>
	<circle style="fill:#E8979F;" cx="169.782" cy="320.26" r="15.892"/>
	<circle style="fill:#E8979F;" cx="342.352" cy="320.26" r="15.892"/>
</g>
<path style="fill:#FBB03B;" d="M414.208,362.898c-36.03-28.023,0-62.435,0-62.435c24.483-19.575,15.573-43.369,9.637-68.197
	c-7.521-31.453-3.482-70.772-3.482-103.024c0-3.152-0.111-6.277-0.328-9.369c-0.921-13.101-3.763-25.618-8.211-37.232
	c-0.101-0.263-0.196-0.529-0.298-0.79c-0.036-0.092-0.075-0.182-0.111-0.274C394.285,38.028,354.397,7.496,307.92,7.496H204.216
	c-62.1,0-112.442,54.507-112.443,121.745c0,31.458-1.641,65.003-7.161,96.837c-4.31,24.858-8.439,56.45,13.993,74.385
	c0,0,36.03,34.412,0,62.435c0,0-46.705,39.265,16.013,79.015c0,0-20.016-34.979,9.341-61.667c0,0,44.503-42.031,5.008-102.296
	c-10.489-16.004-9.683-39.724,1.924-55.528c14.509-19.756,46.019-20.116,66.714-32.101c37.68-21.821,55.793-57.997,58.463-100.536
	c-1.876,29.892,13.98,63.672,35.325,83.641c15.545,14.543,35.029,24.238,55.017,31.087c33.612,11.518,61.505,36.713,37.438,73.435
	c-39.497,60.266,5.007,102.298,5.007,102.298c29.357,26.689,9.341,61.667,9.341,61.667
	C460.913,402.164,414.208,362.898,414.208,362.898z"/>
<path style="fill:#EF9D30;" d="M398.198,441.914c0,0,20.016-34.975-9.341-61.664c0,0-44.503-42.034-5.004-102.297
	c23.072-35.215-1.628-59.836-33.347-71.953c-1.842-25.447,0.347-53.017,0.347-76.756c0-3.149-0.12-6.285-0.334-9.368
	c-0.921-13.104-3.763-25.621-8.207-37.231c-0.107-0.267-0.2-0.534-0.307-0.8c-0.027-0.093-0.067-0.174-0.107-0.267
	C324.764,38.022,284.878,7.491,238.4,7.491h69.524c46.478,0,86.364,30.532,103.485,74.087c0.04,0.093,0.08,0.173,0.12,0.267
	c0.094,0.267,0.2,0.534,0.294,0.8c4.444,11.61,7.286,24.127,8.207,37.231c0.227,3.082,0.334,6.218,0.334,9.368
	c0,17.8-1.079,35.581-1.085,53.382c-0.002,7.649-0.03,15.31,0.441,22.948c1.111,18.002,7.403,34.827,9.947,52.592
	c2.551,17.816-2.677,30.091-15.455,42.298c-0.007,0.007-36.026,34.418,0,62.438C414.211,362.903,460.916,402.161,398.198,441.914z"
	/>
<path style="fill:#F3D1BB;" d="M323.866,504.505V461.87c0-14.236-6.985-27.859-18.529-36.186c-5.834-4.208-12.666-6.964-19.79-7.967
	c-9.237-1.3-9.36-1.02-9.36-10.693c0-0.026,0-6.382,0-6.382h-40.181c0,0,0,6.356,0,6.382c0,9.673-0.123,9.392-9.36,10.693
	c-7.123,1.003-13.956,3.759-19.79,7.967c-11.545,8.327-18.529,21.95-18.529,36.186v42.635H323.866z"/>
<path style="fill:#CA3042;" d="M323.862,461.872v42.633H188.33v-42.633c0-14.239,6.979-27.861,18.522-36.185
	c3.728-2.688,7.862-4.783,12.223-6.205c2.462-0.805,5.002-1.399,7.573-1.766c3.767-0.531,6.018-0.789,7.362-1.579l1.727,0.383
	l4.353,2.462c9.839,5.58,21.867,5.619,31.746,0.109l4.619-2.571l1.727-0.383c1.344,0.789,3.595,1.047,7.362,1.579
	c2.571,0.367,5.111,0.961,7.573,1.766c4.361,1.422,8.495,3.517,12.223,6.205C316.883,434.01,323.862,447.632,323.862,461.872z"/>
<circle style="fill:#F5A5C7;" cx="256.092" cy="372.99" r="65.25"/>
<path d="M202.993,267.286c-4.102-0.123-7.264-3.702-7.264-7.806v-21.103c0-4.104,3.162-7.682,7.264-7.806
	c4.245-0.127,7.726,3.275,7.726,7.492v21.731C210.719,264.011,207.238,267.413,202.993,267.286z"/>
<path d="M300.449,265.198c-1.229-0.959-1.89-2.477-1.89-4.036v-24.465c0-1.559,0.661-3.077,1.89-4.036
	c6.214-4.848,13.1-0.528,13.1,5.403v21.731C313.55,265.725,306.663,270.046,300.449,265.198z"/>
<g>
	<path style="fill:#EF9D30;" d="M217.443,238.587h-29.804c-1.559,0-3.077-0.661-4.036-1.889c-4.85-6.214-0.528-13.101,5.402-13.101
		h29.804c1.559,0,3.077,0.661,4.036,1.889C227.695,231.7,223.373,238.587,217.443,238.587z"/>
	<path style="fill:#EF9D30;" d="M320.516,238.587h-29.804c-1.559,0-3.077-0.661-4.036-1.89c-4.848-6.214-0.528-13.1,5.403-13.1
		h29.804c1.559,0,3.077,0.661,4.036,1.89C330.767,231.7,326.446,238.587,320.516,238.587z"/>
</g>
<path d="M91.834,120.666c0.307,0.037,0.611,0.056,0.912,0.056c3.736,0,6.97-2.79,7.431-6.594
	c6.86-56.518,51.587-99.138,104.038-99.138h103.703c27.781,0,53.969,11.708,73.741,32.969c2.819,3.031,7.561,3.203,10.593,0.385
	c3.031-2.819,3.203-7.562,0.385-10.593C369.998,13.406,339.911,0,307.92,0H204.216C144.193,0,93.069,48.289,85.297,112.323
	C84.798,116.431,87.725,120.167,91.834,120.666z"/>
<path d="M438.34,399.613c1.057-15.735-6.815-28.436-12.831-35.723c0.154-4.449,0.482-8.614,0.88-12.316
	c1.071-9.956,3.628-20.292,7.604-30.721c10.042-26.339,9.077-55.462,2.033-82.41c-7.433-28.435-9.566-53.885-8.68-83.425
	c0.27-9.008,0.525-17.517,0.525-25.775c0-3.3-0.116-6.629-0.346-9.895c-0.796-11.344-2.981-22.518-6.493-33.214
	c-1.291-3.932-5.522-6.073-9.46-4.783c-3.933,1.292-6.074,5.527-4.783,9.46c3.127,9.521,5.072,19.476,5.782,29.588
	c0.205,2.918,0.309,5.894,0.309,8.844c0,8.034-0.252,16.434-0.518,25.326c-0.81,27.021-1.647,54.961,4.206,79.44
	c0.546,2.284,1.116,4.559,1.684,6.823c2.554,10.181,5.652,21.091,4.42,31.69c-0.762,6.556-3.987,12.256-8.021,17.353
	c-3.448,4.357-7.873,7.227-11.257,11.604c-7.619,9.853-13.275,22.067-12.632,34.761c0.625,12.314,6.914,23.23,18.694,32.448
	c1.185,1.05,15.072,13.743,13.919,30.02c-0.545,7.699-4.331,15.266-11.294,22.624c2.461-2.601-0.385-14.904-1.09-18.025
	c-1.551-6.866-4.487-13.362-8.573-19.091c-5.047-7.075-11.667-12.814-16.958-19.686c-5.709-7.415-7.848-16.35-9.468-25.454
	c-1.098-6.167-1.297-12.476-0.622-18.703c1.495-13.799,7.206-26.791,14.759-38.317c10.08-15.381,12.781-30.211,8.027-44.079
	c-5.927-17.287-23.436-31.69-49.304-40.554c-22.113-7.578-39.229-17.217-52.326-29.47c-21.042-19.686-34.596-51.632-32.965-77.698
	c0.26-4.131-2.88-7.69-7.011-7.95c-4.133-0.247-7.691,2.88-7.95,7.011c-2.677,42.647-21.604,75.332-54.738,94.519
	c-7.077,4.098-15.794,6.769-25.024,9.597c-16.458,5.043-33.476,10.258-43.975,24.552c-13.517,18.405-14.422,45.352-2.152,64.073
	c22.046,33.639,15.772,60.726,7.5,76.761c-0.451,0.604-0.8,1.261-1.046,1.949c-4.662,8.39-9.601,13.315-10.306,13.996
	c-15.864,14.465-19.464,31.897-18.101,46.567c-6.964-7.358-10.749-14.926-11.295-22.624c-1.157-16.326,12.817-29.046,13.911-30.014
	c11.785-9.218,18.077-20.136,18.702-32.453c0.563-11.094-3.729-21.843-9.847-30.911c-5.313-7.875-13.661-13.379-18.173-21.84
	c-2.83-5.307-4.288-11.228-4.941-17.177c-1.423-12.978,0.68-26.187,2.894-38.954c3.166-18.259,5.319-38.652,6.4-60.615
	c0.203-4.135-2.983-7.651-7.117-7.855c-4.141-0.18-7.651,2.984-7.854,7.118c-1.051,21.353-3.136,41.133-6.198,58.791
	c-1.09,6.284-2.385,13.757-3.087,21.734c-5.846,26.974-4.531,51.856,3.986,74.245c3.999,10.512,6.567,20.874,7.634,30.799
	c0.422,3.922,0.761,8.37,0.903,13.118c-5.915,7.398-13.196,19.75-12.177,34.919c0.281,4.183,1.172,8.283,2.653,12.297
	c-6.28,16.151-5.249,34.521,3.281,50.225c9.595,17.664,26.721,28.209,45.812,28.209h54.582v14.162c0,4.14,3.356,7.495,7.495,7.495
	h135.539c4.14,0,7.495-3.355,7.495-7.495v-14.162h54.555c19.091,0,36.217-10.546,45.812-28.209
	c8.372-15.41,9.508-33.386,3.617-49.311C437.037,408.519,438.038,404.113,438.34,399.613z M419.988,315.512
	c-4.424,11.603-7.28,23.17-8.492,34.38c-3.578-4.481-5.482-9.226-5.756-14.349c-0.692-12.958,8.252-26.201,18.271-33.7
	C423.294,306.469,421.655,311.139,419.988,315.512z M135.251,273.841c-8.82-13.458-8.09-33.656,1.697-46.983
	c7.558-10.29,21.511-14.566,36.284-19.093c9.628-2.95,19.585-6.001,28.144-10.958c25.938-15.02,44.212-37.164,54.061-65.128
	c6.506,17.684,17.235,34.483,30.849,47.22c14.675,13.729,33.551,24.427,57.707,32.704c21.082,7.225,35.655,18.61,39.984,31.235
	c3.175,9.263,1.028,19.693-6.384,31.001c-22.067,33.668-19.319,62.245-13.129,80.289c0.883,2.575,1.86,5.007,2.89,7.296
	c-11.164,11.171-24.8,19.438-39.624,24.252c0.728-4.122,1.13-8.356,1.13-12.684c0-40.115-32.635-72.749-72.749-72.749
	s-72.749,32.635-72.749,72.749c0,4.332,0.402,8.57,1.132,12.696c-14.642-4.742-28.126-12.843-39.22-23.795
	c1.108-2.426,2.16-5.013,3.104-7.766C154.568,336.085,157.316,307.509,135.251,273.841z M313.87,372.994
	c0,31.848-25.911,57.759-57.759,57.759s-57.759-25.911-57.759-57.759s25.911-57.759,57.759-57.759S313.87,341.145,313.87,372.994z
	 M93.703,306.798c7.452,7.313,13.952,17.897,13.405,28.683c-0.276,5.428-2.37,10.436-6.359,15.152
	c-0.023-0.219-0.044-0.444-0.068-0.66c-1.204-11.2-4.073-22.816-8.528-34.527c-1.739-4.571-3.706-9.728-4.21-14.599
	C89.724,303.015,91.702,304.835,93.703,306.798z M180.832,461.87v13.483H126.25c-13.508,0-25.71-7.616-32.64-20.374
	c-4.265-7.852-6.021-16.585-5.338-25.115c5.708,6.421,13.163,12.558,22.349,18.381c2.9,1.838,6.672,1.458,9.164-0.906
	c2.491-2.364,3.051-6.131,1.368-9.124c-0.688-1.223-16.564-30.215,7.863-52.423c0.035-0.032,0.07-0.064,0.105-0.097
	c0.281-0.265,4.068-3.893,8.533-10.368c14.712,13.533,32.72,22.927,52.06,27.339c2.937,6.547,6.821,12.579,11.464,17.934
	C188.418,430.428,180.832,445.724,180.832,461.87z M316.371,497.01h-17.933v-16.729c0-4.14-3.355-7.495-7.495-7.495
	c-4.14,0-7.495,3.355-7.495,7.495v16.729h-54.704v-16.729c0-4.14-3.356-7.495-7.495-7.495s-7.495,3.355-7.495,7.495v16.729h-17.932
	v-35.14c0-11.889,5.764-23.143,15.419-30.106c0.353-0.254,0.713-0.497,1.075-0.739c12.189,9.23,27.36,14.718,43.796,14.718
	c16.423,0,31.581-5.479,43.766-14.695c0.358,0.239,0.725,0.464,1.075,0.716c9.655,6.963,15.419,18.218,15.42,30.106v35.14H316.371z
	 M418.556,454.979c-6.93,12.758-19.132,20.374-32.64,20.374h-54.555v-13.484c-0.001-16.139-7.581-31.427-20.329-41.256
	c4.652-5.361,8.541-11.402,11.481-17.958c19.498-4.457,37.645-13.983,52.415-27.704c4.578,6.715,8.507,10.474,8.794,10.745
	c0.034,0.032,0.069,0.064,0.104,0.096c24.428,22.207,8.552,51.2,7.878,52.399c-1.711,2.989-1.163,6.76,1.326,9.141
	c1.435,1.371,3.301,2.077,5.181,2.077c1.385,0,2.776-0.383,4.01-1.164c8.854-5.612,16.095-11.517,21.719-17.686
	C424.478,438.867,422.706,447.34,418.556,454.979z"/>
<path style="fill:#FFFFFF;" d="M216.619,365.725c-1.763,0-3.534-0.619-4.96-1.879c-3.102-2.74-3.395-7.478-0.654-10.579
	l13.185-14.923c2.741-3.102,7.477-3.396,10.579-0.654c3.102,2.74,3.395,7.478,0.654,10.579l-13.185,14.923
	C220.757,364.869,218.693,365.725,216.619,365.725z"/>
<path d="M254.909,290.561c-9.527,0-18.083-5.67-21.794-14.445c-1.676-3.961,0.177-8.53,4.138-10.205s8.53,0.176,10.205,4.139
	c1.269,3,4.193,4.938,7.451,4.938c3.097,0,5.964-1.808,7.301-4.606c1.854-3.881,6.505-5.521,10.383-3.667
	c3.88,1.854,5.522,6.503,3.667,10.383C272.351,285.276,263.97,290.561,254.909,290.561z"/>
<g>
</g>
<g>
</g>
<g>
</g>
<g>
</g>
<g>
</g>
<g>
</g>
<g>
</g>
<g>
</g>
<g>
</g>
<g>
</g>
<g>
</g>
<g>
</g>
<g>
</g>
<g>
</g>
<g>
</g>
</svg>
