<?xml version="1.0" encoding="iso-8859-1"?>
<!-- Generator: Adobe Illustrator 19.0.0, SVG Export Plug-In . SVG Version: 6.00 Build 0)  -->
<svg version="1.1" id="Capa_1" xmlns="http://www.w3.org/2000/svg" xmlns:xlink="http://www.w3.org/1999/xlink" x="0px" y="0px"
	 viewBox="0 0 512 512" style="enable-background:new 0 0 512 512;" xml:space="preserve">
<path style="fill:#F3D1BB;" d="M107.334,131.224v106.583h-1.92c-16.074,0-29.105,13.031-29.105,29.105l0,0
	c0,16.074,13.031,29.105,29.105,29.105h1.958c1.522,58.043,49.05,104.628,107.46,104.628h82.835
	c59.37,0,107.499-48.129,107.499-107.499V131.224H107.334z"/>
<path style="fill:#ECC19C;" d="M406.586,237.807h-1.416V131.224h-42.499v161.918c0,59.377-48.12,107.497-107.497,107.497h42.499
	c58.402,0,105.934-46.575,107.458-104.622h1.455c8.446,0,16.052-3.597,21.368-9.344c4.802-5.19,7.737-12.133,7.737-19.761l0,0
	C435.691,250.838,422.66,237.807,406.586,237.807z"/>
<g>
	<circle style="fill:#E8979F;" cx="169.29" cy="322.269" r="16.02"/>
	<circle style="fill:#E8979F;" cx="343.21" cy="322.269" r="16.02"/>
</g>
<path style="fill:#921531;" d="M346.153,57.18c-45.007-14.166-77.433-38.876-87.311-47.008c-1.834-1.51-4.466-1.511-6.305-0.007
	c-9.737,7.96-41.379,31.841-86.288,45.956c-34.717,10.911-58.396,43.011-58.396,79.402v84.539h28.718
	c2.142,0,4.046-1.365,4.734-3.393l12.471-36.769c4.939-14.563,18.648-24.329,34.026-24.24l137.211,0.794
	c15.226,0.088,28.722,9.821,33.612,24.24l12.571,37.066c0.688,2.028,2.592,3.393,4.733,3.393h28.718v-84.539
	C404.647,100.184,380.902,68.118,346.153,57.18z"/>
<path style="fill:#7F0B2A;" d="M404.646,136.617v84.54h-28.721c-2.142,0-4.046-1.365-4.734-3.394l-9.29-27.404
	c-0.175-0.517-0.265-1.059-0.265-1.605v-52.138c0-36.473-23.805-68.509-58.583-79.47c-29.211-9.199-53.11-22.85-68.979-33.501
	c8.693-5.745,14.98-10.63,18.465-13.478c1.84-1.504,4.48-1.501,6.314,0.009c9.878,8.131,42.263,32.807,87.21,46.97
	C380.841,68.109,404.646,100.144,404.646,136.617z"/>
<path style="fill:#F3D1BB;" d="M324.042,504.502v-42.649c0-14.24-6.987-27.868-18.535-36.198
	c-5.836-4.209-12.671-6.966-19.796-7.969c-9.24-1.301-9.363-1.02-9.363-10.696c0-0.026,0-6.385,0-6.385h-40.194c0,0,0,6.359,0,6.385
	c0,9.676-0.123,9.395-9.363,10.696c-7.126,1.003-13.961,3.76-19.796,7.969c-11.548,8.33-18.535,21.957-18.535,36.198v42.649H324.042
	z"/>
<path style="fill:#32B2AC;" d="M324.038,461.854v42.647H188.462v-42.647c0-14.244,6.981-27.871,18.528-36.197
	c3.729-2.689,7.865-4.784,12.227-6.207c2.463-0.805,5.003-1.399,7.576-1.767c3.768-0.532,6.02-0.79,7.364-1.579l1.728,0.383
	l4.355,2.463c9.843,5.582,21.874,5.621,31.756,0.109l4.62-2.572l1.728-0.383c1.345,0.79,3.596,1.048,7.364,1.579
	c2.572,0.367,5.113,0.962,7.576,1.767c4.362,1.423,8.498,3.518,12.227,6.207C317.057,433.984,324.038,447.61,324.038,461.854z"/>
<path d="M256.25,361.219c-15.901,0-28.836-12.936-28.836-28.837v-0.977c0-4.141,3.357-7.498,7.498-7.498s7.498,3.356,7.498,7.498
	v0.977c0,7.632,6.209,13.842,13.841,13.842s13.841-6.21,13.841-13.842v-0.977c0-4.141,3.357-7.498,7.498-7.498
	s7.498,3.356,7.498,7.498v0.977C285.086,348.283,272.151,361.219,256.25,361.219z"/>
<path d="M206.331,300.945c-4.141,0-7.498-3.356-7.498-7.498v-21.554c0-4.141,3.357-7.498,7.498-7.498s7.498,3.356,7.498,7.498
	v21.554C213.829,297.589,210.472,300.945,206.331,300.945z"/>
<path d="M306.169,300.945c-4.141,0-7.498-3.356-7.498-7.498v-21.554c0-4.141,3.357-7.498,7.498-7.498s7.498,3.356,7.498,7.498
	v21.554C313.666,297.589,310.31,300.945,306.169,300.945z"/>
<g>
	<path style="fill:#921531;" d="M224.262,256.952h-30.09c-4.141,0-7.498-3.356-7.498-7.498s3.357-7.498,7.498-7.498h30.09
		c4.141,0,7.498,3.356,7.498,7.498S228.402,256.952,224.262,256.952z"/>
	<path style="fill:#921531;" d="M318.328,256.952h-30.09c-4.141,0-7.498-3.356-7.498-7.498s3.357-7.498,7.498-7.498h30.09
		c4.141,0,7.498,3.356,7.498,7.498S322.469,256.952,318.328,256.952z"/>
</g>
<path d="M412.664,230.824l-0.519-94.211c0-39.789-25.615-74.584-63.74-86.585c-52.1-16.398-87.339-47.786-87.685-48.096
	c-2.848-2.573-7.184-2.576-10.041-0.012C250.34,2.224,216.147,32.579,164,48.968c-38.068,11.965-63.645,46.748-63.645,86.555
	l-0.519,95.212c-17.545,2.694-31.025,17.891-31.025,36.178c0,18.439,13.707,33.728,31.464,36.235
	c5.085,58.743,54.517,104.996,114.557,104.996h13.822c-0.002,0.575-0.006,1.161-0.017,1.706c-0.66,0.1-1.39,0.202-2.083,0.299
	l-0.81,0.113c-8.313,1.171-16.314,4.391-23.136,9.313c-13.555,9.776-21.647,25.581-21.647,42.278v42.649
	c0,4.141,3.357,7.498,7.498,7.498h61.794c4.141,0,7.498-3.356,7.498-7.498c0-4.141-3.357-7.498-7.498-7.498h-54.296v-13.665h11.84
	c4.141,0,7.498-3.356,7.498-7.498c0-4.141-3.357-7.498-7.498-7.498h-11.84v-6.491c0-0.187,0.014-0.372,0.017-0.558h11.823
	c4.141,0,7.498-3.356,7.498-7.498c0-4.141-3.357-7.498-7.498-7.498h-8.393c2.649-5.727,6.733-10.781,11.978-14.563
	c4.856-3.503,10.546-5.794,16.455-6.627l0.795-0.111c1.963-0.274,3.768-0.527,5.415-0.931c3.826,2.016,12.09,5.578,22.755,5.578
	c6.664,0,14.263-1.4,22.291-5.433c1.473,0.321,3.065,0.546,4.778,0.786l0.795,0.111c5.91,0.833,11.6,3.124,16.456,6.627
	c5.244,3.782,9.328,8.835,11.977,14.563h-8.393c-4.141,0-7.498,3.356-7.498,7.498c0,4.141,3.357,7.498,7.498,7.498h11.823
	c0.003,0.186,0.017,0.372,0.017,0.558v6.491h-11.84c-4.141,0-7.498,3.356-7.498,7.498c0,4.141,3.357,7.498,7.498,7.498h11.84v13.665
	h-13.26c-4.141,0-7.498,3.356-7.498,7.498c0,4.141,3.357,7.498,7.498,7.498h20.758c4.141,0,7.498-3.356,7.498-7.498v-42.649
	c0-16.697-8.093-32.502-21.647-42.278c-6.823-4.922-14.824-8.143-23.137-9.313l-0.81-0.113c-0.693-0.097-1.423-0.199-2.083-0.299
	c-0.011-0.544-0.015-1.131-0.016-1.706c20.612,0,40.018-1.057,59.23-9.347c17.036-7.351,32.19-18.868,43.883-33.269
	c7.15-8.805,12.996-18.662,17.271-29.169c2.137-5.252,3.882-10.662,5.215-16.173c0.366-1.512,2.624-17.085,2.785-17.111
	c8.084-1.27,15.609-5.236,21.226-11.308c6.275-6.782,9.731-15.608,9.731-24.853C443.188,248.801,429.963,233.729,412.664,230.824z
	 M99.641,287.737c-9.121-2.531-15.835-10.909-15.835-20.825c0-9.916,6.714-18.293,15.835-20.824V287.737z M243.552,412
	c0.075-1.2,0.094-2.478,0.097-3.857h25.201c0.004,1.495,0.024,2.874,0.117,4.16C257.884,416.553,248.446,414.041,243.552,412z
	 M397.561,297.704c-2.391,53.034-46.28,95.444-99.893,95.444h-82.835c-55.141,0-100.001-44.86-100.001-100.001v-65.588h25.323
	c3.213,0,6.068-2.047,7.1-5.089l14.448-42.599c3.415-10.068,12.864-16.744,23.483-16.729l2.574,0.015c0.015,0,0.029,0,0.043,0
	c4.121,0,7.473-3.329,7.497-7.455c0.023-4.141-3.314-7.517-7.455-7.54l-2.573-0.015c-0.079,0-0.155-0.001-0.233-0.001
	c-17.003,0-32.07,10.789-37.537,26.908l-12.722,37.51h-19.43v-77.041c0-33.224,21.358-62.258,53.146-72.249
	c44.078-13.854,75.452-36.6,87.182-45.992c11.896,9.598,43.997,33.13,88.223,47.05c31.849,10.025,53.248,39.072,53.248,72.281
	v77.041H377.72l-12.813-37.777c-5.425-15.997-20.419-26.81-37.308-26.907l-86.308-0.531c-0.016,0-0.031,0-0.047,0
	c-4.119,0-7.471,3.327-7.497,7.452c-0.025,4.14,3.311,7.518,7.452,7.543l86.311,0.531c10.502,0.061,19.824,6.783,23.197,16.729
	l14.539,42.866c1.032,3.042,3.887,5.089,7.1,5.089h25.323C397.669,228.649,397.436,297.161,397.561,297.704z M422.451,281.581
	L422.451,281.581c-2.716,2.936-6.078,4.997-9.787,6.074v-41.469c8.963,2.633,15.529,10.923,15.529,20.726
	C428.193,272.369,426.154,277.58,422.451,281.581z"/>
<path d="M263.995,299.692h-9.923v-26.047c0-4.241-3.47-7.71-7.71-7.71c-4.241,0-7.71,3.47-7.71,7.71v34.045
	c0,4.011,3.105,7.327,7.029,7.676c0.273,0.029,0.55,0.045,0.83,0.045h17.484c4.323,0,7.859-3.537,7.859-7.859
	S268.317,299.692,263.995,299.692z"/>
<g>
</g>
<g>
</g>
<g>
</g>
<g>
</g>
<g>
</g>
<g>
</g>
<g>
</g>
<g>
</g>
<g>
</g>
<g>
</g>
<g>
</g>
<g>
</g>
<g>
</g>
<g>
</g>
<g>
</g>
</svg>
