<?xml version="1.0" encoding="iso-8859-1"?>
<!-- Generator: Adobe Illustrator 19.0.0, SVG Export Plug-In . SVG Version: 6.00 Build 0)  -->
<svg version="1.1" id="Capa_1" xmlns="http://www.w3.org/2000/svg" xmlns:xlink="http://www.w3.org/1999/xlink" x="0px" y="0px"
	 viewBox="0 0 512 512" style="enable-background:new 0 0 512 512;" xml:space="preserve">
<path style="fill:#028FCB;" d="M437.433,462.399l-2.239-3.574c-5.345-8.533-5.816-19.247-1.239-28.216l1.588-3.112
	c4.814-9.434,4.027-20.755-2.045-29.433l0,0c-6.523-9.321-6.909-21.62-0.983-31.333l5.604-9.186
	c3.396-5.566,4.791-12.125,3.954-18.592l-15.496-119.67H83.471l-13.546,119.67c-0.837,6.467,0.557,13.025,3.954,18.592l5.604,9.186
	c5.926,9.712,5.54,22.011-0.983,31.333l0,0c-6.073,8.678-6.859,19.999-2.045,29.433l1.588,3.112
	c4.577,8.969,4.106,19.683-1.239,28.216l-2.239,3.574c-6.372,10.173,0.941,23.383,12.945,23.383h336.979
	C436.493,485.782,443.806,472.572,437.433,462.399z"/>
<path style="fill:#007EAA;" d="M437.428,462.398c6.379,10.175-0.939,23.39-12.941,23.39h-52.493
	c12.001,0,19.307-13.214,12.941-23.39l-2.244-3.574c-5.335-8.531-5.818-19.241-1.239-28.216l1.591-3.105
	c4.814-9.445,4.031-20.768-2.048-29.443c-3.444-4.905-5.166-10.658-5.166-16.411c0-5.153,1.383-10.332,4.187-14.923l5.596-9.184
	c3.405-5.57,4.801-12.119,3.966-18.589l-15.497-119.674l54.247-1.946l13.743,121.62c0.835,6.47-0.561,13.019-3.953,18.589
	l-5.609,9.184c-2.792,4.592-4.187,9.758-4.187,14.911c0,5.766,1.735,11.505,5.179,16.423c6.066,8.675,6.862,19.998,2.048,29.443
	l-1.592,3.105c-4.579,8.975-4.109,19.685,1.239,28.216L437.428,462.398z"/>
<path style="fill:#F3D1BB;" d="M108.424,101v136.274h-2.554c-16.106,0-29.162,13.056-29.162,29.162s13.056,29.162,29.162,29.162
	h2.668c2.526,56.497,49.123,101.528,106.244,101.528h21.081c0,4.999,0,9.648,0,9.66c0,9.695-0.124,9.414-9.381,10.717
	c-7.139,1.005-13.988,3.767-19.835,7.985c-11.571,8.346-18.572,22-18.572,36.268v42.732h135.848v-42.732
	c0-14.268-7.001-27.922-18.572-36.268c-5.847-4.217-12.695-6.979-19.835-7.985c-9.258-1.303-9.381-1.022-9.381-10.717
	c0-0.012,0-4.661,0-9.66h21.081c58.74,0,106.358-47.618,106.358-106.358V101H108.424z"/>
<path style="fill:#F15A24;" d="M323.919,461.758v42.73h-135.84v-42.73c0-14.272,6.995-27.925,18.564-36.267
	c3.736-2.695,7.88-4.794,12.251-6.219c2.467-0.807,5.013-1.402,7.59-1.77c3.775-0.533,6.031-0.791,7.379-1.582l1.731,0.384
	l4.363,2.467c9.862,5.593,21.917,5.632,31.818,0.11l4.629-2.577l1.731-0.384c1.347,0.791,3.603,1.05,7.379,1.582
	c2.577,0.368,5.123,0.963,7.59,1.77c4.371,1.426,8.514,3.525,12.251,6.219C316.924,433.833,323.919,447.486,323.919,461.758z"/>
<path style="fill:#ECC19C;" d="M406.558,237.274h-2.98V130.132h-42.116v160.459c0,58.842-47.687,106.529-106.529,106.529h42.116
	c57.945,0,105.092-46.266,106.495-103.886h3.014c8.12,0,15.431-3.458,20.542-8.983c4.616-4.989,7.438-11.664,7.438-18.997l0,0
	C434.538,249.801,422.01,237.274,406.558,237.274z"/>
<path style="fill:#028FCB;" d="M310.449,7.512h-108.9c-65.213,0-118.078,57.239-118.078,127.847v94.726
	C225.6,215.824,252.235,153.921,255.999,93.924c3.764,59.998,30.399,121.9,172.528,136.162V135.36
	C428.527,64.752,375.662,7.512,310.449,7.512z"/>
<path style="fill:#007EAA;" d="M428.527,135.357v94.734c-16.633-1.666-31.693-3.998-45.314-6.89v-87.843
	c0-70.61-52.871-127.84-118.084-127.84h45.314C375.656,7.517,428.527,64.746,428.527,135.357z"/>
<circle style="fill:#FFFFFF;" cx="255.999" cy="339.91" r="20.777"/>
<g>
	<circle style="fill:#E8979F;" cx="169.819" cy="319.45" r="15.872"/>
	<circle style="fill:#E8979F;" cx="342.179" cy="319.45" r="15.872"/>
</g>
<g>
	<circle style="fill:#F15A24;" cx="418.929" cy="361.08" r="17.986"/>
	<circle style="fill:#F15A24;" cx="93.069" cy="361.08" r="17.986"/>
</g>
<circle cx="256.029" cy="458.21" r="5.776"/>
<path d="M284.288,339.912c0-15.599-12.69-28.289-28.289-28.289s-28.289,12.69-28.289,28.289s12.69,28.29,28.289,28.29
	S284.288,355.511,284.288,339.912z M242.734,339.912c0-7.314,5.951-13.265,13.265-13.265c7.314,0,13.265,5.95,13.265,13.265
	s-5.951,13.266-13.265,13.266C248.685,353.178,242.734,347.227,242.734,339.912z"/>
<path d="M217.627,273.42v-40.3c0-4.149-3.363-7.512-7.512-7.512s-7.512,3.363-7.512,7.512v40.3c0,4.149,3.363,7.512,7.512,7.512
	S217.627,277.569,217.627,273.42z"/>
<path d="M309.395,273.42v-40.3c0-4.149-3.363-7.512-7.512-7.512s-7.512,3.363-7.512,7.512v40.3c0,4.149,3.363,7.512,7.512,7.512
	S309.395,277.569,309.395,273.42z"/>
<path d="M441.561,454.837c-3.921-6.259-4.271-14.235-0.914-20.814l1.589-3.112c6.091-11.938,5.102-26.175-2.582-37.154
	c-2.85-4.073-4.099-8.915-3.746-13.675c5.092-4.554,8.344-11.117,8.507-18.431l0.118-0.193c4.272-7,6.044-15.335,4.991-23.469
	l-8.383-64.746c0.598-2.597,0.91-5.274,0.91-7.989c0-5.944-1.482-11.542-4.077-16.468l-1.935-113.426
	c0-32.133-10.628-63.283-29.925-87.712c-2.572-3.255-7.297-3.811-10.551-1.237c-3.256,2.571-3.81,7.295-1.238,10.551
	c17.212,21.788,26.691,49.63,26.691,78.398v86.354c-5.443-0.637-10.732-1.35-15.873-2.138c-0.269-0.057-0.542-0.101-0.82-0.129
	c-49.995-7.769-85.681-22.778-108.648-45.618c-19.744-19.635-29.968-45.176-32.177-80.376c-0.248-3.958-3.531-7.042-7.497-7.042
	c-3.966,0-7.249,3.083-7.497,7.042c-2.148,34.228-11.596,76.987-66.054,104.048c-3.716,1.847-5.231,6.355-3.384,10.071
	c1.846,3.714,6.355,5.228,10.07,3.385c39.714-19.735,58.15-47.52,66.855-74.214c5.222,16.045,14.031,32.762,29.091,47.739
	c24.312,24.177,60.8,40.258,110.982,48.829v57.285c0,54.598-44.419,99.018-99.018,99.018h-82.089
	c-54.599,0-99.018-44.419-99.018-99.018v-57.315c7.885-1.352,15.457-2.874,22.624-4.589c4.035-0.965,6.523-5.019,5.558-9.054
	s-5.016-6.525-9.054-5.558c-13.371,3.199-28.167,5.759-44.081,7.631V135.36c0-66.354,49.599-120.335,110.566-120.335h108.897
	c15.431,0,30.358,3.392,44.367,10.083c3.747,1.789,8.229,0.203,10.016-3.541c1.788-3.744,0.202-8.228-3.541-10.016
	C345.244,3.886,328.139,0,310.449,0h-108.9c-69.251,0-125.59,60.722-125.59,135.36l-1.85,112.779
	c-3.12,5.388-4.912,11.635-4.912,18.297c0,3.334,0.458,6.561,1.296,9.634l-8.018,61.92c-1.053,8.133,0.719,16.468,4.991,23.469
	l0.118,0.193c0.162,7.314,3.415,13.878,8.507,18.431c0.353,4.76-0.896,9.603-3.746,13.675c-7.683,10.98-8.673,25.217-2.581,37.155
	l1.588,3.111c3.357,6.579,3.007,14.555-0.914,20.814l-2.239,3.574c-4.464,7.127-4.698,15.775-0.625,23.133
	s11.526,11.75,19.936,11.75h93.054v11.193c0,4.149,3.363,7.512,7.512,7.512h135.848c4.149,0,7.512-3.363,7.512-7.512v-11.193h93.054
	c8.41,0,15.862-4.393,19.936-11.75c4.073-7.358,3.84-16.006-0.625-23.133L441.561,454.837z M412.412,245.639
	c8.442,2.524,14.614,10.363,14.614,19.615c0,5.17-1.932,10.105-5.439,13.896c-2.549,2.756-5.697,4.707-9.174,5.734v-39.245H412.412z
	 M418.93,350.605c5.775,0,10.474,4.698,10.474,10.473s-4.699,10.474-10.474,10.474s-10.473-4.699-10.473-10.474
	S413.156,350.605,418.93,350.605z M243.374,407.901h25.25c0.004,1.514,0.023,2.909,0.117,4.209
	c-11.105,4.258-20.562,1.741-25.465-0.304C243.353,410.592,243.371,409.298,243.374,407.901z M103.541,361.078
	c0,5.775-4.699,10.474-10.474,10.474s-10.474-4.699-10.474-10.474s4.699-10.473,10.474-10.473S103.541,355.303,103.541,361.078z
	 M100.087,287.302c-9.139-2.536-15.865-10.93-15.865-20.866c0-9.935,6.727-18.328,15.865-20.865V287.302z M77.375,339.918
	l5.791-44.725c0.776,0.614,1.567,1.208,2.391,1.759c0,0.013-0.002,0.026-0.002,0.039v39.721c-3.052,0.943-5.851,2.457-8.297,4.397
	C77.287,340.711,77.324,340.314,77.375,339.918z M180.563,461.756v16.515H87.509c-4.129,0-6.125-2.799-6.791-4.002
	c-0.666-1.204-1.979-4.381,0.213-7.881l2.239-3.574c6.71-10.712,7.309-24.36,1.564-35.619l-1.588-3.11
	c-3.559-6.977-2.981-15.296,1.509-21.713c3.378-4.828,5.445-10.289,6.2-15.896c0.73,0.063,1.467,0.102,2.213,0.102
	c14.059,0,25.498-11.438,25.498-25.498c0-11.445-7.581-21.152-17.986-24.367v-33.988c0.329,0.048,0.661,0.087,0.992,0.126
	c6.133,57.141,54.639,101.788,113.382,101.788h13.396v2.148c0,0.89,0,1.943-0.018,2.865c-0.661,0.1-1.393,0.202-2.087,0.299
	l-0.812,0.113c-8.329,1.173-16.345,4.4-23.182,9.332C188.671,429.19,180.563,445.026,180.563,461.756z M195.587,496.976v-35.22
	c0-11.916,5.777-23.196,15.454-30.175c0.294-0.212,0.601-0.406,0.902-0.61l-3.419,6.372c-1.137,2.119-1.189,4.654-0.141,6.818
	c1.049,2.163,3.071,3.693,5.439,4.113l15.834,2.81l-7.107,10.454c-1.617,2.379-1.732,5.473-0.294,7.964l15.847,27.474
	L195.587,496.976L195.587,496.976z M255.418,496.976l-17.82-30.894l10.975-16.143c1.43-2.104,1.697-4.787,0.708-7.131
	s-3.096-4.026-5.6-4.471l-17.044-3.024l5.994-11.17c0.38-0.076,0.755-0.157,1.12-0.247c3.833,2.02,12.113,5.589,22.8,5.589
	c6.677,0,14.291-1.402,22.335-5.443c0.159,0.035,0.32,0.069,0.481,0.101l5.994,11.17l-17.044,3.024
	c-2.504,0.444-4.612,2.127-5.6,4.471c-0.988,2.343-0.722,5.027,0.708,7.131l10.975,16.143l-17.82,30.894H255.418z M316.411,496.976
	h-42.515l15.847-27.474c1.437-2.491,1.323-5.585-0.294-7.964l-7.107-10.454l15.834-2.81c2.367-0.42,4.39-1.95,5.438-4.113
	c1.049-2.164,0.997-4.699-0.141-6.818l-3.42-6.372c0.301,0.204,0.608,0.397,0.903,0.61c9.677,6.979,15.454,18.259,15.454,30.175
	v35.22H316.411z M431.28,474.268c-0.667,1.203-2.662,4.002-6.791,4.002h-93.054v-16.515c0-16.729-8.108-32.565-21.689-42.361
	c-6.837-4.932-14.853-8.159-23.182-9.332l-0.811-0.113c-0.694-0.097-1.426-0.2-2.087-0.299c-0.018-0.922-0.018-1.975-0.018-2.865
	v-2.148h13.396c59.546,0,108.572-45.876,113.608-104.139c0.257-0.03,0.512-0.072,0.767-0.107v36.32
	c-10.404,3.214-17.986,12.921-17.986,24.367c0,14.06,11.438,25.498,25.498,25.498c0.751,0,1.492-0.039,2.227-0.103
	c0.748,5.609,2.808,11.07,6.187,15.898c4.49,6.416,5.068,14.735,1.509,21.711l-1.589,3.111c-5.745,11.26-5.146,24.907,1.564,35.619
	l2.239,3.574C433.259,469.887,431.946,473.064,431.28,474.268z M426.443,336.711v-42.074c0.725-0.489,1.426-1.015,2.116-1.558
	l6.065,46.838c0.051,0.395,0.082,0.79,0.11,1.186C432.289,339.166,429.492,337.653,426.443,336.711z"/>
<g>
</g>
<g>
</g>
<g>
</g>
<g>
</g>
<g>
</g>
<g>
</g>
<g>
</g>
<g>
</g>
<g>
</g>
<g>
</g>
<g>
</g>
<g>
</g>
<g>
</g>
<g>
</g>
<g>
</g>
</svg>
