<?xml version="1.0" encoding="iso-8859-1"?>
<!-- Generator: Adobe Illustrator 19.0.0, SVG Export Plug-In . SVG Version: 6.00 Build 0)  -->
<svg version="1.1" id="Capa_1" xmlns="http://www.w3.org/2000/svg" xmlns:xlink="http://www.w3.org/1999/xlink" x="0px" y="0px"
	 viewBox="0 0 512 512" style="enable-background:new 0 0 512 512;" xml:space="preserve">
<path style="fill:#F3D1BB;" d="M107.434,122.783v114.761h-2.476c-16.09,0-29.134,13.043-29.134,29.134l0,0
	c0,16.09,13.043,29.134,29.134,29.134h2.508c1.353,58.03,48.815,104.657,107.17,104.657h82.607
	c59.207,0,107.202-47.997,107.202-107.202V122.783H107.434z"/>
<path style="fill:#E8C0A8;" d="M407.284,235.665h-2.836V122.783h-42.381V293.26c0,59.214-47.988,107.201-107.201,107.201h42.381
	c59.137,0,107.096-47.886,107.198-107.013h2.838c8.384,0,15.934-3.571,21.213-9.276c4.767-5.152,7.68-12.044,7.68-19.616l0,0
	C436.176,248.6,423.241,235.665,407.284,235.665z"/>
<path style="fill:#8C6239;" d="M86.247,206.282v-73.964c0-23.331,18.914-42.245,42.245-42.245h2.102l0,0
	c0-23.331,18.914-42.245,42.245-42.245h108.052c10.478,0,20.899-1.915,30.57-5.944c12.992-5.411,27.448-15.566,31.2-34.379
	c0,0,29.808,22.218,29.57,60.439V86.05h11.153c23.331,0,42.245,18.914,42.245,42.245v77.987c0,10.922-8.855,19.777-19.777,19.777
	l0,0c-10.922,0-19.777-8.855-19.777-19.777V173.76c0-10.858-10.757-18.492-20.971-14.81c-14.754,5.318-37.039,7.614-66.041-5.707
	c-15.931-7.317-33.333-10.867-50.863-10.867h-73.349c-26.664,0-48.28,21.616-48.28,48.28v15.625
	c0,10.922-8.855,19.777-19.777,19.777h-0.77C95.102,226.059,86.247,217.205,86.247,206.282z"/>
<path style="fill:#7F522D;" d="M425.625,128.279v77.437c0,10.867-8.883,20.338-19.75,20.348c-5.48,0.005-10.423-2.208-14.008-5.794
	c-3.581-3.581-5.794-8.529-5.794-13.989v-32.524c0-10.596-10.261-18.133-20.239-15.048v-30.418
	c0-23.333-18.915-42.247-42.247-42.247h-4.453c-3.703,0-6.706-3.002-6.706-6.706v-11.4c0.054-9.227-1.636-17.515-4.252-24.772
	c1.006-0.362,1.998-0.751,2.978-1.154c13.063-5.378,27.723-15.545,31.504-34.509c0,0,29.815,22.223,29.573,60.433v18.106h11.159
	C406.717,86.045,425.625,104.954,425.625,128.279z"/>
<g>
	<path style="fill:#8C6239;" d="M251.471,306.15c1.875-10.055-8.002-18.015-17.498-14.211c-5.612,2.248-11.176,6.229-14.363,13.235
		c0,0-4.172,11.716-15.551,18.775c-2.346,1.455-1.569,5.063,1.159,5.49C219.576,331.686,246.603,332.257,251.471,306.15z"/>
	<path style="fill:#8C6239;" d="M260.406,306.15c-1.875-10.055,8.002-18.015,17.498-14.211c5.612,2.248,11.176,6.229,14.363,13.235
		c0,0,4.172,11.716,15.551,18.775c2.346,1.455,1.569,5.063-1.159,5.49C292.302,331.686,265.274,332.257,260.406,306.15z"/>
</g>
<g>
	<circle style="fill:#E8979F;" cx="168.147" cy="282.83" r="16.17"/>
	<circle style="fill:#E8979F;" cx="343.729" cy="282.83" r="16.17"/>
</g>
<path style="fill:#F3D1BB;" d="M323.796,504.495v-42.69c0-14.254-6.993-27.895-18.554-36.233
	c-5.841-4.213-12.683-6.972-19.816-7.977c-9.249-1.302-9.372-1.022-9.372-10.707c0-0.026,0-6.391,0-6.391h-40.233
	c0,0,0,6.365,0,6.391c0,9.685-0.123,9.404-9.372,10.707c-7.133,1.005-13.974,3.763-19.816,7.977
	c-11.559,8.337-18.554,21.979-18.554,36.233v42.69H323.796z"/>
<path style="fill:#423D34;" d="M323.792,461.807c0-14.258-6.988-27.898-18.546-36.231c-3.732-2.692-7.872-4.789-12.239-6.213
	c-2.466-0.806-5.008-1.401-7.583-1.768c-3.771-0.532-6.026-0.79-7.372-1.581l-1.729,0.383l-4.625,2.575
	c-9.891,5.517-21.935,5.477-31.786-0.109l-4.359-2.465l-1.729-0.383c-1.346,0.791-3.599,1.049-7.372,1.581
	c-2.575,0.368-5.118,0.963-7.583,1.768c-4.367,1.424-8.506,3.521-12.239,6.213c-11.558,8.334-18.546,23.632-18.546,37.89h32.961
	v41.029h69.785v-42.688L323.792,461.807L323.792,461.807z"/>
<path d="M247.483,342.243c-4.145,0-7.505,3.359-7.505,7.505c0,4.146,3.36,7.505,7.505,7.505h16.912c4.145,0,7.505-3.359,7.505-7.505
	c0-4.146-3.36-7.505-7.505-7.505H247.483z"/>
<g>
	<path style="fill:#7F522D;" d="M225.449,196.893h-30.567c-4.145,0-7.505,3.359-7.505,7.505s3.36,7.505,7.505,7.505h30.567
		c4.145,0,7.505-3.359,7.505-7.505S229.593,196.893,225.449,196.893z"/>
	<path style="fill:#7F522D;" d="M324.502,204.398c0-4.146-3.36-7.505-7.505-7.505H286.43c-4.145,0-7.505,3.359-7.505,7.505
		s3.36,7.505,7.505,7.505h30.567C321.142,211.902,324.502,208.543,324.502,204.398z"/>
</g>
<path d="M212.134,258.235c4.145,0,7.505-3.359,7.505-7.505v-23.359c0-4.146-3.36-7.505-7.505-7.505s-7.505,3.359-7.505,7.505v23.359
	C204.63,254.875,207.99,258.235,212.134,258.235z"/>
<path d="M292.239,227.371v23.359c0,4.146,3.36,7.505,7.505,7.505c4.145,0,7.505-3.359,7.505-7.505v-23.359
	c0-4.146-3.36-7.505-7.505-7.505C295.6,219.867,292.239,223.226,292.239,227.371z"/>
<path d="M212.78,302.067c-0.088,0.193-0.167,0.39-0.239,0.59c-0.048,0.134-5.147,13.522-18.531,17.703
	c-3.15,0.984-5.287,3.909-5.266,7.21c0.021,3.3,2.194,6.199,5.356,7.145c0.297,0.088,7.382,2.182,16.651,2.94
	c2.273,0.186,4.478,0.277,6.613,0.277c10.077,0,18.602-2.064,25.403-6.162c5.929-3.572,10.333-8.539,13.172-14.819
	c2.84,6.279,7.244,11.247,13.172,14.819c6.801,4.099,15.325,6.162,25.403,6.162c2.135,0,4.34-0.092,6.613-0.277
	c9.269-0.757,16.353-2.852,16.651-2.94c3.162-0.945,5.335-3.844,5.356-7.145c0.021-3.3-2.116-6.226-5.266-7.21
	c-13.391-4.186-18.496-17.611-18.531-17.703c-0.071-0.2-0.151-0.396-0.239-0.59c-3.537-7.776-9.9-13.687-18.403-17.094
	c-0.867-0.347-1.744-0.632-2.627-0.857c0.801-3.365-0.818-6.948-4.065-8.499c-3.743-1.79-8.221-0.205-10.007,3.535
	c-1.448,3.029-4.552,4.987-7.907,4.987c-3.527,0-6.694-2.1-8.069-5.349c-1.615-3.817-6.017-5.604-9.836-3.988
	c-3.631,1.536-5.417,5.594-4.194,9.273c-0.945,0.231-1.883,0.526-2.81,0.898C222.68,288.381,216.317,294.292,212.78,302.067z
	 M269.787,299.792c0.738-0.611,2.736-1.924,5.325-0.887c4.908,1.967,8.257,4.97,10.232,9.177c0.663,1.706,3.489,8.354,9.522,14.815
	c-6.367,0.057-13.003-0.958-18.037-4.002c-4.774-2.888-7.711-7.389-8.975-13.761C267.262,302.157,269.185,300.293,269.787,299.792z
	 M236.766,298.906c2.591-1.039,4.587,0.274,5.325,0.887c0.603,0.5,2.525,2.365,1.934,5.343c-1.265,6.372-4.201,10.873-8.975,13.761
	c-5.035,3.046-11.688,3.978-18.037,4.002c6.032-6.461,8.86-13.109,9.522-14.815C228.508,303.876,231.857,300.873,236.766,298.906z"
	/>
<path d="M419.081,230.132c8.374-4.663,14.055-13.604,14.055-23.85v-77.988c0-27.431-22.318-49.75-49.75-49.75h-3.648V67.992
	c0.258-41.54-31.249-65.504-32.59-66.504c-2.064-1.538-4.772-1.912-7.176-0.988c-2.404,0.923-4.166,3.013-4.669,5.538
	c-2.585,12.956-11.671,22.725-27.008,29.036c-8.466,3.483-17.738,5.25-27.56,5.25H210.41c-4.145,0-7.505,3.359-7.505,7.505
	s3.36,7.505,7.505,7.505h70.326c11.79,0,22.984-2.147,33.27-6.38c15.253-6.275,26.119-15.815,31.999-27.952
	c7.88,8.773,18.858,24.957,18.722,46.943V86.05c0,4.146,3.36,7.505,7.505,7.505h11.153c19.156,0,34.74,15.584,34.74,34.74v77.988
	c0,6.767-5.505,12.273-12.272,12.273s-12.273-5.506-12.273-12.273v-32.521c0-7.566-3.696-14.678-9.888-19.029
	c-6.162-4.329-14.062-5.391-21.133-2.842c-22.616,8.151-45.575,1.402-60.855-5.693c-15.952-7.409-34.111-11.325-52.512-11.325
	h-74.34c-30.76,0-55.786,25.025-55.786,55.785v15.625c0,6.767-5.505,12.273-12.272,12.273h-0.77
	c-6.767,0-12.272-5.506-12.272-12.273V132.32c0-19.156,15.585-34.741,34.74-34.741h2.102c4.145,0,7.505-3.359,7.505-7.505
	c0-14.705,9.311-27.874,23.168-32.768c3.908-1.381,5.958-5.668,4.577-9.576c-1.38-3.906-5.668-5.955-9.575-4.577
	c-17.528,6.191-29.977,21.625-32.646,39.653c-25.156,2.455-44.882,23.724-44.882,49.514v73.963c0,11.225,6.815,20.885,16.525,25.068
	c-15.513,4.261-26.947,18.48-26.947,35.326c0,18.643,14,34.068,32.036,36.339c0.421,5.275,1.13,10.714,2.016,15.172
	c0.709,3.57,3.845,6.042,7.353,6.042c0.485,0,0.978-0.047,1.471-0.145c4.066-0.81,6.705-4.76,5.898-8.825
	c-1.269-6.382-2.155-15.427-2.155-21.995v-60.943c11.078-3.472,19.137-13.832,19.137-26.04v-15.625
	c0-22.483,18.292-40.775,40.776-40.775h74.341c16.233,0,32.206,3.433,46.19,9.928c32.312,15.008,57.134,11.654,72.268,6.201
	c2.515-0.906,5.216-0.541,7.415,1.004c2.229,1.565,3.507,4.024,3.507,6.746v32.521c0,11.945,7.719,22.113,18.427,25.798
	c-0.035,0.296-0.059,0.595-0.059,0.901v60.283c0,54.973-44.723,99.697-99.697,99.697h-82.608c-28.762,0-56.127-12.429-75.078-34.099
	c-2.729-3.12-7.469-3.438-10.59-0.708c-3.12,2.729-3.438,7.47-0.708,10.59c21.801,24.929,53.284,39.227,86.376,39.227h13.681
	c-0.002,0.597-0.006,1.212-0.017,1.779c-0.66,0.1-1.392,0.202-2.084,0.299l-0.812,0.113c-8.32,1.172-16.329,4.396-23.159,9.322
	c-13.568,9.785-21.668,25.606-21.668,42.319v42.69c0,4.146,3.36,7.505,7.505,7.505h135.715c4.145,0,7.505-3.359,7.505-7.505v-42.69
	c0-16.713-8.1-32.534-21.668-42.319c-6.83-4.927-14.838-8.151-23.16-9.322l-0.811-0.113c-0.693-0.097-1.424-0.199-2.084-0.299
	c-0.011-0.567-0.015-1.182-0.017-1.779h13.681c60.762,0,110.63-47.49,114.461-107.301c8.488-1.047,16.44-5.066,22.301-11.4
	c6.24-6.744,9.676-15.521,9.676-24.714C443.681,248.615,433.375,235.045,419.081,230.132z M99.179,287.522
	c-9.13-2.534-15.85-10.919-15.85-20.845c0-9.925,6.72-18.311,15.85-20.844V287.522z M243.326,408.003h25.225
	c0.003,1.512,0.023,2.906,0.117,4.205c-11.094,4.254-20.541,1.739-25.44-0.303C243.305,410.691,243.323,409.398,243.326,408.003z
	 M213.542,496.99h-17.955v-26.02h17.955V496.99z M316.292,496.99h-17.955v-27.679h17.955V496.99z M283.586,424.915l0.796,0.111
	c5.916,0.834,11.611,3.127,16.471,6.633c7.602,5.482,12.779,13.627,14.651,22.642h-24.673c-4.145,0-7.505,3.359-7.505,7.505v35.183
	h-54.775v-33.524c0-4.146-3.36-7.505-7.505-7.505h-24.979c1.552-9.673,6.891-18.485,14.958-24.301
	c4.86-3.506,10.556-5.8,16.47-6.633l0.796-0.111c1.964-0.274,3.772-0.528,5.42-0.932c3.829,2.018,12.102,5.584,22.777,5.584
	c6.67,0,14.277-1.401,22.312-5.437C280.278,424.45,281.871,424.675,283.586,424.915z M422.988,279.076L422.988,279.076
	c-2.743,2.966-6.15,5.038-9.911,6.085v-41.196c8.988,2.532,15.595,10.805,15.595,20.591
	C428.671,269.958,426.653,275.115,422.988,279.076z"/>
<g>
</g>
<g>
</g>
<g>
</g>
<g>
</g>
<g>
</g>
<g>
</g>
<g>
</g>
<g>
</g>
<g>
</g>
<g>
</g>
<g>
</g>
<g>
</g>
<g>
</g>
<g>
</g>
<g>
</g>
</svg>
