<?xml version="1.0" encoding="iso-8859-1"?>
<!-- Generator: Adobe Illustrator 19.0.0, SVG Export Plug-In . SVG Version: 6.00 Build 0)  -->
<svg version="1.1" id="Layer_1" xmlns="http://www.w3.org/2000/svg" xmlns:xlink="http://www.w3.org/1999/xlink" x="0px" y="0px"
	 viewBox="0 0 512.001 512.001" style="enable-background:new 0 0 512.001 512.001;" xml:space="preserve">
<path style="fill:#785546;" d="M200.302,307.414c38.705-6.451,87.122-27.47,108.694-37.468c6.695-3.103,10.608-10.13,9.776-17.461
	c-2.45-21.585-7.049-70.435-7.073-133.1C311.676,57.85,261.837,7.499,200.302,7.5l0,0l0,0c-61.535,0-111.373,50.352-111.397,111.887
	c-0.024,62.664-4.623,111.513-7.073,133.098c-0.832,7.331,3.081,14.359,9.776,17.461
	C113.18,279.943,161.597,300.963,200.302,307.414z"/>
<path style="fill:#64463C;" d="M157.457,118.897V76.052c0-33.971,24.736-62.095,57.164-67.529
	c-4.699-0.605-9.455-1.022-14.319-1.022C138.78,7.5,88.906,57.374,88.906,118.897c0,62.969-4.627,112.056-7.081,133.66
	c-0.831,7.317,3.101,14.292,9.783,17.389c21.571,9.997,69.989,31.017,108.695,37.468v-162.81L157.457,118.897z"/>
<path style="fill:#E6AF78;" d="M331.764,343.153l-74.407-37.203c-8.709-4.355-14.21-13.256-14.21-22.993V256h-85.69v26.957
	c0,9.737-5.501,18.639-14.211,22.993L68.84,343.153c-8.709,4.355-14.211,13.256-14.211,22.993v35.526
	c0,4.732,3.836,8.569,8.569,8.569V504.5h282.776V366.146C345.975,356.409,340.473,347.508,331.764,343.153z"/>
<path style="fill:#D29B6E;" d="M198.066,298.824l2.236,0.02c15.529,0,30.332-3.062,43.965-8.458c-0.719-2.377-1.12-4.87-1.12-7.43
	V256h-85.69v26.956c0,2.458-0.356,4.861-1.019,7.154C169.402,295.405,183.395,298.556,198.066,298.824z"/>
<path style="fill:#B4E66E;" d="M336.501,345.521l-52.998-26.499c-9.086,37.57-42.839,65.512-83.201,65.512
	s-74.115-27.942-83.201-65.512l-52.998,26.499c-5.806,2.903-9.474,8.837-9.474,15.329v49.391h51.414V504.5h239.931V360.85
	C345.975,354.359,342.307,348.425,336.501,345.521z"/>
<g>
	<path style="fill:#A0D755;" d="M54.63,366.146v44.095h51.414v-10.039c0-4.545-1.806-8.904-5.02-12.118l-39.437-39.437
		C57.22,353.328,54.63,359.524,54.63,366.146z"/>
	<path style="fill:#A0D755;" d="M200.302,384.534c-40.362,0-74.114-27.942-83.2-65.512l-19.58,9.79
		c13.25,45.528,55.122,77.145,102.781,77.145c40.719,0,77.405-22.611,95.731-59.012c3.851-7.657,2.623-16.496-2.338-22.826
		l-10.193-5.097C274.417,356.592,240.664,384.534,200.302,384.534z"/>
</g>
<path style="fill:#F0C087;" d="M163.836,105.185c-3.601-1.817-7.53-0.689-10.527,2.01c-12.989,11.701-30.127,37.408-47.265,37.408
	v0.001c-9.465,0-17.138,7.673-17.138,17.138s7.673,17.138,17.138,17.138h0.152c1.601,50.539,41.503,93.312,92.341,94.242
	c52.866,0.967,96.024-41.597,96.024-94.242C294.561,121.003,222.762,134.926,163.836,105.185z"/>
<path style="fill:#E6AF78;" d="M157.457,178.879V104.83c-1.477,0.481-2.903,1.243-4.148,2.365
	c-12.989,11.701-30.127,37.408-47.265,37.408v0.001c-9.465,0-17.138,7.673-17.138,17.138s7.673,17.138,17.138,17.138h0.152
	c1.601,50.539,41.503,93.312,92.341,94.242c9.577,0.175,18.819-1.119,27.56-3.602C186.506,258.347,157.457,222.044,157.457,178.879z
	"/>
<polygon style="fill:#D7B48D;" points="388.819,384.534 303.13,384.534 285.992,504.5 405.957,504.5 "/>
<path style="fill:#C09B78;" d="M388.819,384.534h-85.69l-5.128,35.898c10.941,14.597,28.326,24.085,47.972,24.085
	c19.646,0,37.031-9.488,47.972-24.085L388.819,384.534z"/>
<path style="fill:#553732;" d="M311.699,256l-20.325-20.325c-3.109-3.109-8.033-3.374-11.448-0.606
	c-10.625,8.613-32.673,27.625-45.348,46.637c0,0,17.138,42.845,51.414,51.414L311.699,256z"/>
<path style="fill:#64463C;" d="M291.374,235.675c-1.947-1.947-4.593-2.64-7.146-2.31c-6.968,12.751-30.674,62.615,1.482,99.665
	c0.097,0.025,0.185,0.066,0.282,0.09L311.699,256L291.374,235.675z"/>
<path style="fill:#553732;" d="M380.25,256l20.325-20.325c3.109-3.109,8.033-3.374,11.448-0.606
	c10.625,8.613,32.673,27.625,45.348,46.637c0,0-17.138,42.845-51.414,51.414L380.25,256z"/>
<path style="fill:#64463C;" d="M400.575,235.675c1.947-1.947,4.593-2.64,7.146-2.31c6.968,12.751,30.674,62.615-1.482,99.665
	c-0.097,0.025-0.185,0.066-0.282,0.09L380.25,256L400.575,235.675z"/>
<path style="fill:#EBC9A0;" d="M345.975,401.672L345.975,401.672c-37.86,0-68.552-30.692-68.552-68.552v-25.707
	c0-37.86,30.692-68.552,68.552-68.552l0,0c37.86,0,68.552,30.692,68.552,68.552v25.707
	C414.526,370.981,383.835,401.672,345.975,401.672z"/>
<path style="fill:#D7B48D;" d="M311.699,333.121v-25.707c0-31.931,21.863-58.684,51.414-66.305
	c-5.487-1.415-11.209-2.247-17.138-2.247c-37.86,0-68.552,30.692-68.552,68.552v25.707c0,37.86,30.692,68.552,68.552,68.552
	c5.929,0,11.651-0.832,17.138-2.247C333.562,391.805,311.699,365.051,311.699,333.121z"/>
<circle style="fill:#F5DCB4;" cx="345.98" cy="384.53" r="34.28"/>
<g>
	<circle style="fill:#FAEBC8;" cx="320.27" cy="375.97" r="25.707"/>
	<circle style="fill:#FAEBC8;" cx="371.68" cy="375.97" r="25.707"/>
</g>
<circle style="fill:#553732;" cx="345.98" cy="358.83" r="17.14"/>
<path style="fill:#C09B78;" d="M370.869,461.651c-4.587,0-8.298,3.837-8.298,8.569v0.017c0,9.458-7.425,17.125-16.584,17.125l0,0
	c-9.159,0-16.584-7.667-16.584-17.125v-0.017c0-4.732-3.711-8.569-8.298-8.569s-8.298,3.837-8.298,8.569v34.279l0.001,0.001h16.571
	h0.023h33.169h0.001l0,0h16.594l0.001-0.001V470.22C379.167,465.488,375.456,461.651,370.869,461.651z"/>
<path d="M230.771,218.949c3.2-2.63,3.662-7.356,1.032-10.556s-7.357-3.662-10.556-1.032c-5.307,4.361-12.941,6.863-20.945,6.863
	s-15.638-2.501-20.945-6.863c-3.201-2.63-7.927-2.167-10.556,1.032c-2.63,3.2-2.168,7.926,1.032,10.556
	c8.062,6.626,18.882,10.275,30.469,10.275S222.71,225.575,230.771,218.949z"/>
<path d="M157.458,154.241c-4.142,0-7.5,3.358-7.5,7.5v8.569c0,4.142,3.358,7.5,7.5,7.5s7.5-3.358,7.5-7.5v-8.569
	C164.958,157.6,161.6,154.241,157.458,154.241z"/>
<path d="M243.147,177.811c4.142,0,7.5-3.358,7.5-7.5v-8.569c0-4.142-3.358-7.5-7.5-7.5s-7.5,3.358-7.5,7.5v8.569
	C235.647,174.452,239.005,177.811,243.147,177.811z"/>
<path d="M311.699,332.052c4.142,0,7.5-3.358,7.5-7.5v-8.569c0-4.142-3.358-7.5-7.5-7.5s-7.5,3.358-7.5,7.5v8.569
	C304.199,328.694,307.557,332.052,311.699,332.052z"/>
<path d="M380.25,332.052c4.142,0,7.5-3.358,7.5-7.5v-8.569c0-4.142-3.358-7.5-7.5-7.5s-7.5,3.358-7.5,7.5v8.569
	C372.75,328.694,376.108,332.052,380.25,332.052z"/>
<path d="M320.268,479.862c-4.142,0-7.5,3.357-7.5,7.5V504.5c0,4.142,3.358,7.5,7.5,7.5s7.5-3.358,7.5-7.5v-17.138
	C327.768,483.22,324.41,479.862,320.268,479.862z"/>
<path d="M371.682,479.862c-4.142,0-7.5,3.357-7.5,7.5V504.5c0,4.142,3.358,7.5,7.5,7.5s7.5-3.358,7.5-7.5v-17.138
	C379.182,483.22,375.824,479.862,371.682,479.862z"/>
<path d="M463.611,277.547c-17.647-26.472-51.712-52.173-53.154-53.254c-2.985-2.239-7.164-1.942-9.803,0.697l-16.622,16.622
	c-11.203-6.504-24.197-10.25-38.057-10.25c-7.475,0-14.694,1.102-21.523,3.121c-2.556-27.125-5.253-67.212-5.253-115.587
	C319.199,53.337,265.862,0,200.302,0S81.406,53.337,81.406,118.896c0,84.096-8.409,144.017-8.494,144.612
	c-0.456,3.195,1.184,6.325,4.071,7.769c1.383,0.691,33.247,16.529,66.725,25.408c-1.143,0.991-2.416,1.857-3.815,2.557
	l-74.407,37.204c-11.322,5.661-18.356,17.042-18.356,29.701v35.526c0,6.152,3.479,11.501,8.569,14.201V504.5
	c0,4.142,3.358,7.5,7.5,7.5s7.5-3.358,7.5-7.5v-86.759h27.845V504.5c0,4.142,3.358,7.5,7.5,7.5s7.5-3.358,7.5-7.5V393.104
	c0-4.142-3.358-7.5-7.5-7.5s-7.5,3.358-7.5,7.5v9.638H63.199c-0.589,0-1.069-0.479-1.069-1.069v-35.526
	c0-6.941,3.856-13.181,10.064-16.285l40.184-20.092c12.99,36.996,48.167,62.265,87.924,62.265c29.108,0,55.833-13.285,73.287-35.583
	c2.971,9.221,7.711,17.843,14.001,25.378c0.94,5.249,3.11,10.074,6.211,14.162l-15.235,107.455
	c-0.582,4.101,2.272,7.897,6.373,8.479c0.357,0.051,0.711,0.075,1.062,0.075c3.675,0,6.886-2.704,7.417-6.448l14.031-98.957
	c1.275,0.536,2.593,0.987,3.943,1.362c7.732,11.389,20.711,18.353,34.584,18.353c13.815,0,26.852-6.981,34.58-18.352
	c1.345-0.374,2.659-0.824,3.931-1.357l14.046,98.952c0.532,3.744,3.741,6.447,7.417,6.447c0.351,0,0.706-0.024,1.063-0.075
	c4.101-0.582,6.954-4.379,6.372-8.48l-15.25-107.434c3.108-4.091,5.284-8.923,6.226-14.179
	c10.316-12.354,16.41-27.606,17.479-43.629c25.792-12.588,41.789-51.94,42.497-53.711
	C465.252,282.199,464.981,279.602,463.611,277.547z M407.026,307.414v25.707c0,9.408-2.173,18.583-6.246,26.879
	c-1.783-3.251-4.104-6.221-6.917-8.747c-3.082-2.768-7.824-2.513-10.591,0.569s-2.513,7.824,0.569,10.591
	c3.843,3.452,6.047,8.391,6.047,13.552c0,10.039-8.167,18.207-18.207,18.207c-7.944,0-14.698-5.122-17.179-12.23
	c9.395-3.478,16.11-12.526,16.11-23.115c0-13.585-11.053-24.638-24.638-24.638s-24.638,11.053-24.638,24.638
	c0,10.589,6.715,19.637,16.109,23.115c-2.481,7.108-9.235,12.23-17.179,12.23c-10.039,0-18.207-8.167-18.207-18.207
	c0-5.173,2.213-10.12,6.071-13.573c3.086-2.762,3.349-7.504,0.586-10.59c-2.763-3.087-7.505-3.349-10.59-0.587
	c-2.832,2.535-5.168,5.517-6.96,8.785c-4.071-8.304-6.245-17.489-6.245-26.88v-25.707c0-33.664,27.388-61.052,61.052-61.052
	S407.026,273.75,407.026,307.414z M345.975,368.466c-5.314,0-9.638-4.324-9.638-9.638s4.323-9.638,9.638-9.638
	s9.638,4.324,9.638,9.638S351.289,368.466,345.975,368.466z M113.543,178.879c0-4.142-3.358-7.5-7.5-7.5
	c-5.314,0-9.638-4.324-9.638-9.638s4.323-9.638,9.638-9.638c0.613,0,1.224-0.075,1.819-0.224
	c28.11-7.028,45.454-29.273,52.579-40.38c22.977,10.521,45.404,15.75,65.39,20.41c41.353,9.643,61.23,15.667,61.23,46.969
	c0,47.839-38.92,86.758-86.759,86.758S113.543,226.718,113.543,178.879z M285.394,240.302l10.206,10.205
	c-15.733,13.943-25.676,34.281-25.676,56.907v12.978c-12.202-9.694-22.161-27.578-26.811-37.818
	C255.772,265.11,276,247.88,285.394,240.302z M200.302,15c57.289,0,103.896,46.607,103.896,103.896
	c0,51.729,3.05,94.111,5.76,121.553c-0.69,0.373-1.365,0.769-2.042,1.162l-16.622-16.622c-0.065-0.065-0.134-0.122-0.2-0.183
	c6.083-11.976,9.865-25.309,10.76-39.414c0.135-0.563,0.206-6.514,0.206-6.514c0-44.596-33.748-52.465-72.824-61.577
	c-21.012-4.9-44.828-10.453-68.426-22.252c-3.693-1.847-8.192-0.345-10.055,3.34c-0.157,0.31-15.864,30.803-45.746,38.734
	c-3.105,0.128-6.06,0.84-8.767,2.019c0.104-6.578,0.162-13.329,0.162-20.247C96.406,61.607,143.014,15,200.302,15z M94.782,183.638
	c1.263,0.652,2.583,1.208,3.96,1.637c2.188,35.118,22.272,65.461,51.215,82.008v15.524c-25.456-6.46-51.118-17.82-61.486-22.661
	C89.844,248.999,92.889,221.499,94.782,183.638z M200.302,377.034c-34.001,0-64.006-22.023-74.378-54.038l20.677-10.338
	c11.323-5.661,18.356-17.042,18.356-29.701v-8.654c11.015,4.093,22.922,6.335,35.345,6.335c9.983,0,19.633-1.448,28.755-4.14
	c-0.239,0.35-0.486,0.699-0.72,1.049c-1.37,2.055-1.641,4.652-0.723,6.945c0.692,1.731,15.991,39.369,40.767,52.822
	C254.494,361.907,228.755,377.034,200.302,377.034z M331.686,407.149c5.634-2.07,10.555-5.627,14.289-10.191
	c3.746,4.579,8.687,8.144,14.344,10.21c-4.203,2.669-9.135,4.142-14.344,4.142C340.84,411.311,335.903,409.812,331.686,407.149z
	 M422.026,320.403v-12.989c0-22.626-9.943-42.964-25.676-56.907l10.207-10.207c9.391,7.571,29.609,24.789,42.284,42.278
	C444.203,292.822,434.256,310.709,422.026,320.403z"/>
<g>
</g>
<g>
</g>
<g>
</g>
<g>
</g>
<g>
</g>
<g>
</g>
<g>
</g>
<g>
</g>
<g>
</g>
<g>
</g>
<g>
</g>
<g>
</g>
<g>
</g>
<g>
</g>
<g>
</g>
</svg>
