<?xml version="1.0" encoding="iso-8859-1"?>
<!-- Generator: Adobe Illustrator 19.0.0, SVG Export Plug-In . SVG Version: 6.00 Build 0)  -->
<svg version="1.1" id="Layer_1" xmlns="http://www.w3.org/2000/svg" xmlns:xlink="http://www.w3.org/1999/xlink" x="0px" y="0px"
	 viewBox="0 0 511.998 511.998" style="enable-background:new 0 0 511.998 511.998;" xml:space="preserve">
<rect x="78.5" y="53.55" style="fill:#FFDC64;" width="62.12" height="97.62"/>
<rect x="78.5" y="53.55" style="fill:#FFC850;" width="62.12" height="26.625"/>
<polygon style="fill:#FFDC64;" points="477.875,213.295 256,62.42 34.125,213.295 34.125,479.545 477.875,479.545 "/>
<polygon style="fill:#FFC850;" points="256,62.42 34.125,213.295 34.125,266.545 256,106.795 477.875,266.545 477.875,213.295 "/>
<polygon style="fill:#FF507D;" points="256,26.92 7.5,204.42 7.5,248.795 256,71.295 504.5,248.795 504.5,204.42 "/>
<path style="fill:#E6AF78;" d="M211.625,449.04v-40.495h-88.75v40.495c0,8.265-5.705,15.437-13.759,17.295l-57.241,13.209H167.25
	h115.375l-57.241-13.209C217.33,464.477,211.625,457.305,211.625,449.04z"/>
<path style="fill:#D29B6E;" d="M167.25,461.795c15.955,0,31.034-3.607,44.621-9.894c-0.153-0.935-0.246-1.888-0.246-2.861v-40.495
	h-88.75v40.495c0,0.972-0.093,1.926-0.246,2.861C136.216,458.188,151.295,461.795,167.25,461.795z"/>
<path style="fill:#F0C087;" d="M247.125,319.795v-53.25H87.375v53.25c-9.803,0-17.75,7.947-17.75,17.75s7.947,17.75,17.75,17.75
	c0,44.114,35.761,79.875,79.875,79.875s79.875-35.761,79.875-79.875c9.803,0,17.75-7.947,17.75-17.75
	C264.875,327.741,256.928,319.795,247.125,319.795z"/>
<path style="fill:#E6AF78;" d="M131.75,355.295v-88.75H87.375v53.25c-9.803,0-17.75,7.947-17.75,17.75s7.947,17.75,17.75,17.75
	c0,44.114,35.761,79.875,79.875,79.875c7.708,0,15.136-1.151,22.188-3.188C156.131,422.358,131.75,391.701,131.75,355.295z"/>
<path style="fill:#785546;" d="M227.065,311.537c2.511,6.495,9.548,10.162,16.348,8.662c1.194-0.264,2.436-0.404,3.713-0.404
	c3.25,0,6.255,0.937,8.875,2.462v-55.712c0-13.278-7.376-24.717-18.171-30.805c-2.017-12.705-12.931-22.445-26.204-22.445h-71
	c-34.311,0-62.125,27.814-62.125,62.125v46.837c2.62-1.525,5.625-2.462,8.875-2.462c1.242,0,2.449,0.131,3.612,0.381
	c8.541,1.833,17.034-3.206,19.18-11.674l0,0l2.182-8.73c0.965-3.858,4.347-6.609,8.322-6.717
	c18.49-0.499,70.925-3.185,99.828-17.636l5.167,31.002C225.964,308.202,226.437,309.912,227.065,311.537z"/>
<g>
	<path style="fill:#64463C;" d="M131.75,266.545c0-29.409,23.841-53.25,53.25-53.25h-44.375c-34.31,0-62.125,27.814-62.125,62.125
		v46.837c2.62-1.525,5.625-2.462,8.875-2.462c1.141,0,2.253,0.111,3.329,0.323c8.644,1.701,17.299-3.076,19.463-11.615l2.182-8.73
		c0.964-3.858,4.346-6.609,8.322-6.717c2.913-0.079,6.704-0.216,11.078-0.441v-26.07H131.75z"/>
	<path style="fill:#64463C;" d="M411.093,470.67c24.866-9.621,40.006-18.974,40.006-18.974s-8.875-73.142-8.875-137.41
		c0-55.776-43.709-100.991-97.625-100.991l0,0c-53.917,0-97.625,45.215-97.625,100.991c0,64.267-8.875,137.41-8.875,137.41
		s15.139,9.353,40.005,18.974H411.093z"/>
</g>
<path style="fill:#553732;" d="M344.598,470.67V341.829l-35.5-36.724v-27.543c0-31.21,21.51-57.202,50.026-63.029
	c-4.752-0.735-9.576-1.239-14.526-1.239l0,0c-53.917,0-97.625,45.215-97.625,100.991c0,64.267-8.875,137.41-8.875,137.41
	s15.139,9.353,40.005,18.974L344.598,470.67L344.598,470.67z"/>
<path style="fill:#B48764;" d="M394.519,464.648c-8.298-1.659-14.269-8.944-14.269-17.405V435.17h-71v12.073
	c0,8.461-5.972,15.746-14.269,17.405l-30.106,6.021v8.875h159.75v-8.875L394.519,464.648z"/>
<path style="fill:#966D50;" d="M344.75,470.67c12.76,0,24.941-2.36,36.28-6.475c-0.583-1.764-0.932-3.618-0.932-5.542v-32.358h-71
	v32.358c0,1.888-0.327,3.713-0.887,5.447C319.622,468.275,331.893,470.67,344.75,470.67z"/>
<path style="fill:#C39772;" d="M314.725,297.923c-2.719-2.051-6.582-1.042-7.968,2.07c-4.59,10.312-16.35,28.676-41.883,28.676
	v0.001c-9.803,0-17.75,7.947-17.75,17.75s7.947,17.75,17.75,17.75c0,44.114,35.761,79.875,79.875,79.875
	s79.875-35.761,79.875-79.875C424.625,305.064,352.326,326.291,314.725,297.923z"/>
<path style="fill:#B48764;" d="M309.25,364.17v-66.638c-1.037,0.524-1.968,1.284-2.492,2.462
	c-4.59,10.312-16.35,28.676-41.883,28.676v0.001c-9.803,0-17.75,7.947-17.75,17.75s7.947,17.75,17.75,17.75
	c0,44.114,35.761,79.875,79.875,79.875c7.708,0,15.136-1.151,22.188-3.188C333.631,431.233,309.25,400.576,309.25,364.17z"/>
<path d="M189.725,375.792c-3.217-2.608-7.94-2.117-10.549,1.101c-3.19,3.933-7.425,6.1-11.925,6.1s-8.735-2.167-11.925-6.1
	c-2.608-3.217-7.331-3.709-10.549-1.101c-3.217,2.609-3.709,7.333-1.1,10.549c6.005,7.404,14.598,11.651,23.575,11.651
	s17.569-4.247,23.575-11.651C193.434,383.125,192.941,378.402,189.725,375.792z"/>
<path d="M131.75,329.743c-4.142,0-7.5,3.357-7.5,7.5v8.875c0,4.142,3.358,7.5,7.5,7.5s7.5-3.358,7.5-7.5v-8.875
	C139.25,333.1,135.892,329.743,131.75,329.743z"/>
<path d="M202.75,329.743c-4.142,0-7.5,3.357-7.5,7.5v8.875c0,4.142,3.358,7.5,7.5,7.5s7.5-3.358,7.5-7.5v-8.875
	C210.25,333.1,206.892,329.743,202.75,329.743z"/>
<path d="M367.225,384.667c-3.217-2.609-7.94-2.117-10.549,1.101c-3.19,3.933-7.425,6.1-11.925,6.1s-8.735-2.167-11.925-6.1
	c-2.608-3.217-7.332-3.709-10.549-1.101c-3.217,2.609-3.709,7.333-1.1,10.549c6.005,7.404,14.598,11.651,23.575,11.651
	s17.569-4.247,23.575-11.651C370.934,392,370.441,387.277,367.225,384.667z"/>
<path d="M309.25,338.618c-4.142,0-7.5,3.357-7.5,7.5v8.875c0,4.142,3.358,7.5,7.5,7.5s7.5-3.358,7.5-7.5v-8.875
	C316.75,341.975,313.392,338.618,309.25,338.618z"/>
<path d="M380.25,338.618c-4.142,0-7.5,3.357-7.5,7.5v8.875c0,4.142,3.358,7.5,7.5,7.5s7.5-3.358,7.5-7.5v-8.875
	C387.75,341.975,384.392,338.618,380.25,338.618z"/>
<path d="M508.859,198.014l-248.5-177.5c-2.608-1.862-6.11-1.862-8.719,0l-103.516,73.94V60.743h1.375c4.142,0,7.5-3.358,7.5-7.5
	c0-4.143-3.358-7.5-7.5-7.5H69.625c-4.142,0-7.5,3.357-7.5,7.5c0,4.142,3.358,7.5,7.5,7.5H71v88.801l-67.859,48.47
	C1.17,199.422,0,201.695,0,204.118v44.375c0,2.809,1.57,5.383,4.068,6.668c2.498,1.286,5.504,1.067,7.791-0.566l14.766-10.547
	v232.141c0,5.228,2.406,10.017,6.6,13.137c2.878,2.141,6.266,3.25,9.727,3.25c1.583,0,3.182-0.232,4.753-0.704l64.675-19.403
	c10.763-3.229,17.994-12.948,17.994-24.185v-14.099c11.211,5.241,23.704,8.182,36.875,8.182c13.06,0,25.581-2.92,36.874-8.184v14.1
	c0,11.237,7.231,20.956,17.994,24.185c12.275,3.683,24.937,5.526,37.609,5.526c11.572,0,23.153-1.538,34.442-4.617l3.974-1.084
	c10.955-2.988,18.606-13.005,18.606-24.36v-1.33c8.97,3.035,18.432,4.638,28,4.638s19.03-1.603,28-4.638v1.331
	c0,11.355,7.651,21.372,18.606,24.36l73.335,20c1.442,0.393,2.903,0.587,4.351,0.587c3.537,0,6.995-1.155,9.897-3.371
	c4.09-3.124,6.436-7.867,6.436-13.013V244.048l14.766,10.547c1.296,0.926,2.824,1.397,4.36,1.397c1.173,0,2.35-0.275,3.431-0.832
	c2.498-1.286,4.068-3.859,4.068-6.668v-44.375C512,201.695,510.83,199.422,508.859,198.014z M86,60.743h47.125v44.426L86,138.829
	V60.743z M94.875,354.993c0-4.143-3.358-7.5-7.5-7.5c-5.652,0-10.25-4.599-10.25-10.25c0-5.652,4.598-10.25,10.25-10.25h11.353
	c7.06,0,13.303-4.5,15.535-11.197l5.167-15.5c17.632-0.389,73.2-2.857,104.424-18.47c3.705-1.853,5.207-6.357,3.354-10.063
	c-1.852-3.705-6.356-5.207-10.062-3.354c-33.491,16.746-102.454,16.958-103.147,16.958c-3.228,0.001-6.094,2.066-7.114,5.128
	l-6.852,20.557c-0.188,0.563-0.712,0.94-1.305,0.94H87.375c-0.461,0-0.919,0.014-1.375,0.039v-36.914
	c0-30.121,24.505-54.625,54.625-54.625h71c9.408,0,17.313,6.779,18.796,16.121c0.359,2.26,1.73,4.233,3.723,5.357
	c8.855,4.993,14.355,14.294,14.355,24.272v2.124c-5.701,12.938-8.875,27.229-8.875,42.251c0,20.93-1.03,42.999-2.386,62.981
	c-8.452,31.571-37.245,53.769-69.989,53.769C127.342,427.368,94.875,394.9,94.875,354.993z M219.124,448.284v-23.008
	c5.542-4.088,10.598-8.822,15.051-14.115c-1.786,18.873-3.33,31.356-3.366,31.651c-0.26,2.078,0.361,4.17,1.712,5.77
	c0.387,0.458,4.019,4.623,12.362,9.838c2.416,1.51,4.98,2.953,7.673,4.335c-8.813-0.548-17.578-2.088-26.128-4.653
	C222.059,456.791,219.124,452.846,219.124,448.284z M301.75,447.934c0,4.609-3.106,8.676-7.553,9.889l-3.974,1.084
	c-1.032,0.281-2.069,0.537-3.106,0.789c-24.135-6.407-36.403-14.975-40.974-18.802c1.17-10.059,4.362-39.012,6.479-72.723
	c1.571,0.876,3.235,1.604,4.988,2.131c0.32,4.379,0.965,8.723,1.931,12.977c4.313,19.005,15.08,36.256,30.319,48.573
	c3.743,3.026,7.726,5.715,11.89,8.065L301.75,447.934L301.75,447.934z M299.29,420.187c-12.629-10.208-21.55-24.495-25.121-40.229
	c-1.19-5.244-1.794-10.658-1.794-16.091c0-4.143-3.358-7.5-7.5-7.5c-5.652,0-10.25-4.599-10.25-10.25
	c0-5.652,4.598-10.25,10.25-10.25c22.743,0,39.239-20.594,46.688-32.117c17.491,11.262,37.496,15.234,55.398,18.788
	c32.963,6.544,50.164,11.354,50.164,41.329c0,5.433-0.604,10.847-1.794,16.092c-3.57,15.732-12.492,30.019-25.121,40.228
	c-12.995,10.503-28.714,16.056-45.46,16.056S312.284,430.69,299.29,420.187z M387.75,447.935v-8.018
	c4.164-2.35,8.147-5.039,11.89-8.065c15.239-12.317,26.006-29.568,30.319-48.573c1.438-6.332,2.166-12.863,2.166-19.411
	c0-43.685-31.643-49.967-62.243-56.042c-19.57-3.885-39.806-7.902-55.947-20.814c-1.766-1.413-4.077-1.948-6.286-1.467
	c-2.209,0.482-4.085,1.939-5.103,3.959c-0.042,0.083-4.244,8.355-11.351,16.41c-6.019,6.822-15.472,14.955-26.321,14.955
	c-3.692,0-7.199,0.803-10.363,2.233c0.073-4.188,0.113-8.357,0.113-12.484c0-49.695,40.43-90.125,90.125-90.125
	s90.125,40.43,90.125,90.125c0,53.719,6.666,114.665,8.481,130.269c-4.622,3.872-16.916,12.439-41.08,18.839l-6.974-1.902
	C390.856,456.611,387.75,452.544,387.75,447.935z M497,233.918l-41.412-29.58c-3.37-2.407-8.055-1.626-10.462,1.744
	c-2.408,3.371-1.627,8.055,1.744,10.462l23.506,16.79v243.163c0,0.562-0.294,0.905-0.541,1.093s-0.654,0.382-1.196,0.234
	l-40.454-11.033c20.505-8.641,28.372-17.708,28.795-18.209c1.351-1.6,1.972-3.692,1.712-5.77
	c-0.088-0.705-8.817-71.271-8.817-132.195c0-57.966-47.159-105.125-105.125-105.125c-34.9,0-65.877,17.1-85.008,43.356
	c-3.254-7.228-8.493-13.541-15.25-18.103c-3.945-14.829-17.246-25.253-32.867-25.253h-71c-38.392,0-69.625,31.233-69.625,69.625
	v42.928c-5.426,4.635-8.875,11.519-8.875,19.197c0,11.398,7.592,21.057,17.984,24.185c1.911,26.122,15.37,49.073,35.266,63.806
	v23.052c0,4.562-2.936,8.507-7.305,9.818l-64.675,19.403c-0.545,0.164-0.963-0.025-1.216-0.214
	c-0.253-0.188-0.554-0.532-0.554-1.103V233.334L256,80.209L420.235,197.52c3.371,2.407,8.055,1.626,10.462-1.744
	c2.408-3.37,1.627-8.055-1.744-10.462L260.359,64.889c-2.608-1.862-6.11-1.862-8.719,0L15,233.918v-25.941L256,35.834l241,172.143
	V233.918z"/>
<g>
</g>
<g>
</g>
<g>
</g>
<g>
</g>
<g>
</g>
<g>
</g>
<g>
</g>
<g>
</g>
<g>
</g>
<g>
</g>
<g>
</g>
<g>
</g>
<g>
</g>
<g>
</g>
<g>
</g>
</svg>
