<?xml version="1.0" encoding="iso-8859-1"?>
<!-- Generator: Adobe Illustrator 19.0.0, SVG Export Plug-In . SVG Version: 6.00 Build 0)  -->
<svg version="1.1" id="Capa_1" xmlns="http://www.w3.org/2000/svg" xmlns:xlink="http://www.w3.org/1999/xlink" x="0px" y="0px"
	 viewBox="0 0 512.001 512.001" style="enable-background:new 0 0 512.001 512.001;" xml:space="preserve">
<path style="fill:#F3D1BB;" d="M108.493,135.358v101.446h-2.818c-16.09,0-29.132,13.043-29.132,29.132l0,0
	c0,16.09,13.043,29.132,29.132,29.132h2.869c1.675,57.205,48.57,103.064,106.18,103.064h81.858
	c58.67,0,106.231-47.561,106.231-106.231V135.358H108.493z"/>
<path style="fill:#028FCB;" d="M255.491,6.99c0,0-146.913-12.72-146.913,158.203v85.288l0,0
	c76.076,0,138.636-57.827,146.147-131.922c0.066-0.655,0.613-1.156,1.272-1.156l0,0c0.659,0,1.206,0.5,1.272,1.156
	c7.51,74.095,70.071,131.922,146.147,131.922l0,0v-85.288C403.417-5.729,255.491,6.99,255.491,6.99z"/>
<path style="fill:#ECC19C;" d="M406.47,237.556h-3.308v-82.541h-41.997v137.634c0,58.677-47.552,106.229-106.229,106.229h41.997
	c57.603,0,104.501-45.85,106.178-103.059h3.359c8.454,0,16.066-3.601,21.388-9.353c4.807-5.195,7.744-12.144,7.744-19.78l0,0
	C435.602,250.598,422.56,237.556,406.47,237.556z"/>
<path style="fill:#7B5FC1;" d="M305.305,425.579c-3.732-2.692-7.872-4.789-12.238-6.213c-1.16-0.379-2.337-0.707-3.526-0.991V397.82
	h-67.083v20.555c-1.189,0.284-2.366,0.612-3.526,0.991c-4.367,1.424-8.506,3.521-12.238,6.213
	c-11.558,8.334-18.545,21.973-18.545,36.229v42.686H323.85v-42.686C323.85,447.551,316.862,433.912,305.305,425.579z"/>
<g>
	<circle style="fill:#E8979F;" cx="170.06" cy="321.43" r="15.827"/>
	<circle style="fill:#E8979F;" cx="341.942" cy="321.43" r="15.827"/>
</g>
<path style="fill:#047999;" d="M403.42,165.191v85.291c-15.055,0-29.581-2.264-43.26-6.475v-78.817
	c0-109.515-60.32-143.645-103.658-154.011V6.99C256.503,6.99,403.42-5.73,403.42,165.191z"/>
<circle style="fill:#028FCB;" cx="77.145" cy="72.543" r="61.871"/>
<path style="fill:#047999;" d="M139.019,72.549c0,34.17-27.696,61.867-61.867,61.867c-21.463,0-40.374-10.926-51.47-27.526
	c6.654,2.441,13.848,3.782,21.363,3.782c34.17,0,61.867-27.706,61.867-61.877c0-12.708-3.832-24.515-10.396-34.34
	C122.158,23.16,139.019,45.883,139.019,72.549z"/>
<circle style="fill:#028FCB;" cx="434.857" cy="72.543" r="61.871"/>
<path style="fill:#047999;" d="M496.718,72.549c0,34.17-27.696,61.867-61.867,61.867c-21.463,0-40.374-10.926-51.47-27.526
	c6.654,2.441,13.848,3.782,21.363,3.782c34.17,0,61.867-27.706,61.867-61.877c0-12.708-3.832-24.515-10.396-34.34
	C479.858,23.16,496.718,45.883,496.718,72.549z"/>
<path d="M261.445,320.119h-10.89c-4.144,0-7.504-3.359-7.504-7.504v-29.343c0-4.145,3.36-7.504,7.504-7.504
	c4.144,0,7.504,3.359,7.504,7.504v21.839h3.386c4.145,0,7.504,3.359,7.504,7.504C268.95,316.76,265.59,320.119,261.445,320.119z"/>
<g>
	<path style="fill:#028FCB;" d="M175.609,267.772c-3.016,0-5.859-1.831-7.006-4.815c-1.487-3.869,0.444-8.211,4.314-9.697
		l32.097-12.332c3.867-1.487,8.21,0.444,9.697,4.314c1.487,3.869-0.444,8.211-4.314,9.697L178.3,267.271
		C177.415,267.611,176.505,267.772,175.609,267.772z"/>
	<path style="fill:#028FCB;" d="M336.389,267.772c-0.895,0-1.805-0.161-2.69-0.501l-32.097-12.332
		c-3.868-1.486-5.799-5.827-4.314-9.697c1.485-3.867,5.823-5.801,9.697-4.314l32.097,12.332c3.868,1.486,5.799,5.827,4.314,9.697
		C342.249,265.941,339.405,267.772,336.389,267.772z"/>
</g>
<path d="M210.459,310.494c-4.144,0-7.504-3.359-7.504-7.504v-23.725c0-4.145,3.36-7.504,7.504-7.504
	c4.144,0,7.504,3.359,7.504,7.504v23.725C217.963,307.135,214.603,310.494,210.459,310.494z"/>
<path d="M301.54,310.494c-4.145,0-7.504-3.359-7.504-7.504v-23.725c0-4.145,3.359-7.504,7.504-7.504
	c4.145,0,7.504,3.359,7.504,7.504v23.725C309.044,307.135,305.685,310.494,301.54,310.494z"/>
<path d="M260.226,367.655h-9.974c-4.144,0-7.504-3.359-7.504-7.504c0-4.145,3.36-7.504,7.504-7.504h9.974
	c4.145,0,7.504,3.359,7.504,7.504C267.731,364.296,264.371,367.655,260.226,367.655z"/>
<path d="M434.851,3.17c-28.217,0-52.536,16.943-63.363,41.181c-2.397-2.604-4.9-5.108-7.514-7.505
	C319.338-4.092,260.04-0.076,256,0.254c-4.003-0.328-62.584-4.299-107.129,35.824c-2.923,2.633-5.692,5.41-8.347,8.297
	C129.7,20.124,105.374,3.17,77.148,3.17c-38.254,0-69.375,31.122-69.375,69.375s31.122,69.375,69.375,69.375
	c8.817,0,17.247-1.671,25.014-4.685c-0.828,7.628-1.321,15.546-1.469,23.758c-0.075,4.144,3.224,7.564,7.368,7.64
	c4.115,0.094,7.563-3.224,7.639-7.367c0.211-11.683,1.156-22.702,2.814-33.063c16.987-12.657,28.011-32.893,28.011-55.658
	c0-3.754-0.31-7.436-0.887-11.031c3.992-5.118,8.373-9.853,13.159-14.176c31.831-28.752,73.091-32.141,89.192-32.281v89.545
	c0,74.589-58.703,135.726-132.333,139.64v-31.589c0-4.145-3.36-7.504-7.504-7.504c-4.144,0-7.504,3.359-7.504,7.504v17.798
	c-17.66,2.61-31.258,17.864-31.258,36.237c0,18.779,14.204,34.295,32.432,36.389c5.277,57.808,53.989,103.251,113.136,103.311v6.414
	c-4.509,1.639-8.756,3.884-12.649,6.692c-13.563,9.78-21.66,25.599-21.66,42.317v42.686c0,4.145,3.36,7.504,7.504,7.504h135.701
	c4.145,0,7.504-3.359,7.504-7.504V461.81c0-16.718-8.098-32.537-21.66-42.317c0-0.001,0-0.001-0.001-0.001
	c-3.893-2.807-8.142-5.054-12.648-6.691v-6.414c59.128-0.06,107.828-45.473,113.132-103.254c8.823-0.905,17.12-5.008,23.191-11.57
	c6.28-6.788,9.739-15.622,9.739-24.875c0-18.544-13.853-33.904-31.752-36.3v-63.981c0-10.159-0.513-19.881-1.523-29.173
	c7.768,3.015,16.2,4.687,25.019,4.687c14.092,0,27.66-4.202,39.235-12.153c3.416-2.347,4.284-7.019,1.938-10.435
	c-2.345-3.416-7.019-4.282-10.435-1.938c-9.064,6.226-19.693,9.517-30.738,9.517c-29.978,0-54.366-24.388-54.366-54.366
	s24.388-54.366,54.366-54.366s54.366,24.388,54.366,54.366c0,1.913-0.1,3.835-0.295,5.714c-0.431,4.121,2.563,7.813,6.685,8.243
	c4.126,0.424,7.813-2.565,8.242-6.686c0.25-2.394,0.377-4.841,0.377-7.272C504.226,34.291,473.104,3.17,434.851,3.17z
	 M77.148,126.911c-29.978,0-54.366-24.388-54.366-54.366s24.389-54.366,54.366-54.366s54.366,24.388,54.366,54.366
	S107.126,126.911,77.148,126.911z M101.658,287.531c-9.129-2.534-17.263-10.918-17.263-20.844c0-9.925,8.134-18.31,17.263-20.843
	V287.531z M412.248,245.843c9.129,2.533,15.85,10.918,15.85,20.843c0,5.462-2.041,10.676-5.748,14.684
	c-2.793,3.02-6.267,5.124-10.102,6.175V245.843z M300.916,431.664c9.662,6.967,15.43,18.236,15.43,30.144v35.182h-17.954v-16.75
	c0-4.145-3.359-7.504-7.504-7.504c-4.145,0-7.504,3.359-7.504,7.504v16.75h-54.772v-16.75c0-4.145-3.36-7.504-7.504-7.504
	c-4.144,0-7.504,3.359-7.504,7.504v16.75h-17.948v-35.182c0-11.908,5.768-23.177,15.429-30.143
	c3.104-2.238,6.528-3.976,10.182-5.167c0.933-0.305,1.918-0.582,2.933-0.823c3.38-0.805,5.765-3.825,5.765-7.3v-11.987h52.073
	v11.987c0,3.475,2.385,6.495,5.765,7.3c1.015,0.241,2.001,0.519,2.94,0.826C294.388,427.69,297.811,429.427,300.916,431.664z
	 M395.656,292.652c0,54.437-44.289,98.726-98.726,98.726h-81.858c-54.437,0-98.725-44.289-98.725-98.726v-33.421
	c65.755-3.446,120.776-48.1,139.656-108.562c18.878,60.461,73.9,105.116,139.656,108.562v33.421H395.656z M393.475,128.194
	c1.899,11.872,2.871,24.604,2.871,38.212v77.835c-73.632-3.912-132.334-65.051-132.334-139.64V15.058
	c16.237,0.143,58.005,3.588,89.934,32.957c4.497,4.136,8.636,8.632,12.421,13.479c-0.579,3.601-0.891,7.29-0.891,11.053
	C365.476,95.303,376.494,115.536,393.475,128.194z"/>
<g>
</g>
<g>
</g>
<g>
</g>
<g>
</g>
<g>
</g>
<g>
</g>
<g>
</g>
<g>
</g>
<g>
</g>
<g>
</g>
<g>
</g>
<g>
</g>
<g>
</g>
<g>
</g>
<g>
</g>
</svg>
