<?xml version="1.0" encoding="iso-8859-1"?>
<!-- Generator: Adobe Illustrator 19.0.0, SVG Export Plug-In . SVG Version: 6.00 Build 0)  -->
<svg version="1.1" id="Capa_1" xmlns="http://www.w3.org/2000/svg" xmlns:xlink="http://www.w3.org/1999/xlink" x="0px" y="0px"
	 viewBox="0 0 512.001 512.001" style="enable-background:new 0 0 512.001 512.001;" xml:space="preserve">
<path style="fill:#F3D1BB;" d="M116.186,122.265l0.068,115.813l-2.279,0.001c-16.061,0.009-29.074,13.037-29.064,29.098l0,0
	c0.009,16.061,13.037,29.074,29.098,29.064l2.386-0.001c2.468,56.647,49.183,101.8,106.43,101.766l19.878-0.012
	c0.003,5.107,0.005,9.043,0.005,9.052c0.006,9.668-0.118,9.387-9.349,10.693c-7.12,1.007-13.947,3.766-19.776,7.974
	c-11.534,8.329-18.508,21.951-18.499,36.18l0.025,42.614l135.473-0.08l-0.025-42.614c-0.008-14.229-6.997-27.841-18.542-36.158
	c-5.834-4.202-12.664-6.953-19.785-7.951c-9.233-1.294-9.356-1.014-9.361-10.682c0-0.009-0.002-3.945-0.005-9.052l22.01-0.013
	c58.806-0.035,106.449-47.734,106.415-106.54l-0.1-169.329L116.186,122.265z"/>
<path style="fill:#ECC19C;" d="M413.277,237.904l-2.017,0.001l-0.068-115.813l-42.094,0.025l0.1,169.325
	c0.035,58.813-47.6,106.504-106.413,106.538l42.094-0.025c57.24-0.034,103.906-45.232,106.309-101.886l2.124-0.001
	c8.439-0.005,16.037-3.604,21.346-9.348c4.795-5.189,7.723-12.127,7.718-19.75l0,0C442.366,250.907,429.338,237.894,413.277,237.904
	z"/>
<path style="fill:#B5477C;" d="M411.244,215.037c0,0-35.942-35.502-32.023-59.482c0,0-212.76,54.64-321.409-28.488
	c-2.849-2.18-2.562-6.552,0.553-8.33c7.034-4.016,19.068-11.287,32.474-21.118c14.374-10.538,27.291-22.907,38.832-36.49
	c22.019-25.912,94.04-89.203,235.965-27.232c0,0,59.881-0.695,84.92,41.843c6.478,11.004,9.614,23.652,9.56,36.421
	C460.022,134.576,454.266,182.109,411.244,215.037z"/>
<path style="fill:#9E366C;" d="M411.244,215.037c0,0-11.569-11.422-20.863-25.697c21.638-38.67,16.126-78.524,16.126-78.524
	c-13.36-66.598-93.846-65.672-93.846-65.672c-49.194-21.472-89.987-27.908-123.196-26.063
	c39.128-15.303,96.686-19.893,176.166,14.816c0,0,59.884-0.699,84.924,41.839c6.478,11.003,9.614,23.65,9.561,36.419
	C460.025,134.569,454.273,182.111,411.244,215.037z"/>
<path style="fill:#ABC129;" d="M330.555,461.817c-0.008-14.232-6.992-27.844-18.535-36.157c-3.728-2.685-7.861-4.776-12.22-6.196
	c-2.461-0.803-5.001-1.395-7.57-1.761c-3.766-0.529-6.016-0.785-7.359-1.574l-1.726,0.384l-4.615,2.573
	c-9.87,5.513-21.893,5.481-31.73-0.091l-4.353-2.458l-1.727-0.382c-1.343,0.79-3.593,1.049-7.358,1.582
	c-2.57,0.369-5.108,0.964-7.568,1.77c-4.358,1.424-8.489,3.52-12.213,6.21c-11.532,8.326-18.499,23.601-18.491,37.833l32.903-0.019
	l0.024,40.956l69.661-0.041l-0.025-42.612L330.555,461.817z"/>
<path d="M459.045,161.589c7.1-19.842,8.576-38.213,8.565-50.132c-0.01-10.892-2.042-21.153-6.077-30.584l-0.029-0.067
	c-1.631-3.801-6.002-5.488-9.804-3.859c-3.801,1.629-5.532,6.103-3.905,9.905c3.199,7.477,4.825,15.759,4.833,24.618
	c0.02,22.257-5.392,63.083-40.718,93.388c-10.416-11.548-27.593-34.031-25.294-48.097c0.408-2.497-0.471-5.03-2.338-6.737
	c-1.866-1.707-4.468-2.354-6.919-1.727c-0.544,0.14-55.193,14.009-122.143,16.871c-39.165,1.675-74.725-0.703-105.697-7.068
	c-33.689-6.924-61.941-18.597-84.158-34.754c7.356-4.32,18.078-11.013,29.91-19.689c14.247-10.446,27.742-23.123,40.11-37.68
	c10.08-11.862,32.504-33.384,69.421-44.235c45.323-13.321,98.428-6.924,157.839,19.019c0.966,0.421,1.995,0.635,3.075,0.625
	c0.233,0.01,25.84-0.09,49.22,11.734c3.693,1.866,8.199,0.386,10.066-3.305c1.867-3.692,0.387-8.198-3.305-10.066
	c-23.379-11.822-47.87-13.183-54.465-13.33C305.066-0.455,249.004-6.867,200.577,7.368c-40.653,11.949-65.451,35.772-76.614,48.909
	c-11.613,13.666-24.247,25.542-37.553,35.3c-20.415,14.968-37.786,23.976-37.957,24.065c-2.227,1.147-3.733,3.33-4.015,5.818
	c-0.281,2.49,0.699,4.954,2.614,6.57c16.964,14.309,37.625,25.78,61.667,34.316l0.006,10.923c0.002,4.138,3.359,7.49,7.495,7.488
	c4.138-0.002,7.49-3.358,7.488-7.496l-0.004-6.092c7.326,2.116,14.922,3.992,22.797,5.61c32.173,6.612,68.964,9.086,109.353,7.361
	c52.936-2.264,97.478-11.026,116.04-15.163c3.366,21.793,24.432,45.386,31.859,53.126l0.043,73.322
	c0.032,54.581-44.347,99.011-98.927,99.043l-82.049,0.048c-54.58,0.032-99.011-44.346-99.043-98.927l-0.039-66.449
	c-0.002-4.138-3.359-7.49-7.496-7.488c-4.138,0.002-7.49,3.358-7.487,7.496l0.003,5.82c-17.704,2.549-31.35,17.817-31.339,36.214
	c0.011,18.608,13.992,33.995,31.995,36.256c5.976,57.296,54.571,102.096,113.415,102.062l12.386-0.007l0.001,1.561
	c0.001,0.888,0.001,1.937-0.016,2.857c-0.659,0.1-1.389,0.203-2.081,0.3l-0.81,0.114c-8.305,1.175-16.298,4.397-23.112,9.319
	c-13.538,9.777-21.615,25.573-21.605,42.256l0.025,42.614c0.002,4.138,3.359,7.49,7.495,7.488l135.473-0.08
	c4.138-0.002,7.49-3.358,7.488-7.495l-0.025-42.614c-0.01-16.683-8.105-32.471-21.654-42.231
	c-6.821-4.915-14.817-8.127-23.124-9.292l-0.809-0.113c-0.692-0.096-1.422-0.198-2.081-0.297c-0.019-0.92-0.019-1.97-0.02-2.857
	l-0.001-1.561l14.518-0.009c58.858-0.035,107.411-44.913,113.299-102.235c8.369-1.137,16.192-5.15,21.98-11.414
	c6.267-6.781,9.714-15.601,9.708-24.838c-0.011-18.307-13.541-33.505-31.123-36.144l-0.007-12.166
	C437.316,203.6,450.874,184.426,459.045,161.589z M108.237,287.973c-9.115-2.524-15.828-10.89-15.834-20.799
	c-0.006-9.907,6.698-18.282,15.81-20.817L108.237,287.973z M275.5,412.338c-11.072,4.253-20.504,1.748-25.394-0.289
	c0.075-1.211,0.093-2.501,0.095-3.895l25.18-0.015C275.385,409.651,275.405,411.042,275.5,412.338z M202.582,471.04l17.924-0.011
	l0.015,25.973l-17.924,0.011L202.582,471.04z M305.165,496.953l-0.016-27.629l17.923-0.011l0.016,27.629L305.165,496.953z
	 M307.638,431.736c7.592,5.469,12.765,13.594,14.638,22.594l-24.628,0.014c-4.138,0.002-7.49,3.358-7.488,7.495l0.021,35.121
	l-54.678,0.032l-0.02-33.465c-0.002-4.138-3.359-7.49-7.496-7.488l-24.934,0.015c1.544-9.656,6.869-18.456,14.917-24.267
	c4.85-3.503,10.534-5.796,16.437-6.631l0.795-0.112c1.961-0.275,3.765-0.529,5.411-0.934c3.824,2.012,12.083,5.567,22.741,5.56
	c6.659-0.004,14.251-1.407,22.27-5.442c1.472,0.32,3.063,0.544,4.775,0.782l0.794,0.111
	C297.096,425.954,302.783,428.239,307.638,431.736z M419.049,246.174c9.115,2.524,15.828,10.89,15.834,20.798
	c0.003,5.453-2.032,10.66-5.729,14.66c0,0,0,0,0,0.001c-2.787,3.015-6.253,5.118-10.08,6.17L419.049,246.174z"/>
<g>
	<circle style="fill:#E8979F;" cx="177.378" cy="316.709" r="15.918"/>
	<circle style="fill:#E8979F;" cx="350.227" cy="316.609" r="15.918"/>
</g>
<path d="M262.769,371.046c-16.422,0.01-29.789-13.342-29.799-29.764l-0.001-1.021c-0.002-4.138,3.35-7.493,7.488-7.496
	s7.493,3.349,7.495,7.488l0.001,1.021c0.005,8.159,6.648,14.795,14.807,14.79c8.16-0.005,14.795-6.648,14.79-14.807l-0.001-1.021
	c-0.002-4.138,3.35-7.493,7.488-7.496s7.493,3.349,7.495,7.488l0.001,1.021C292.543,357.669,279.19,371.036,262.769,371.046z"/>
<path d="M220.498,293.021c-4.138,0.002-7.494-3.349-7.496-7.488l-0.013-22.516c-0.002-4.138,3.35-7.494,7.488-7.496
	s7.493,3.349,7.495,7.488l0.013,22.516C227.988,289.664,224.636,293.019,220.498,293.021z"/>
<path d="M304.946,292.972c-4.138,0.002-7.493-3.349-7.496-7.488l-0.013-22.516c-0.002-4.138,3.35-7.493,7.487-7.495
	s7.493,3.349,7.496,7.488l0.013,22.516C312.435,289.614,309.084,292.969,304.946,292.972z"/>
<g>
	<path style="fill:#9E366C;" d="M239.187,222.629l-31.431,0.018c-4.138,0.002-7.493-3.349-7.495-7.488
		c-0.002-4.138,3.35-7.493,7.488-7.495l31.431-0.018c4.138-0.002,7.493,3.349,7.495,7.488
		C246.677,219.271,243.324,222.627,239.187,222.629z"/>
	<path style="fill:#9E366C;" d="M317.606,222.583l-31.431,0.018c-4.138,0.002-7.493-3.349-7.496-7.488
		c-0.002-4.138,3.35-7.493,7.488-7.495l31.431-0.018c4.138-0.002,7.493,3.349,7.495,7.488
		C325.096,219.225,321.744,222.581,317.606,222.583z"/>
</g>
<path d="M271.442,290.223h-9.922v-26.045c0-4.241-3.47-7.709-7.71-7.709c-4.241,0-7.71,3.47-7.71,7.709v34.043
	c0,4.011,3.105,7.327,7.029,7.676c0.273,0.029,0.55,0.045,0.83,0.045h17.483c4.323,0,7.858-3.537,7.858-7.858
	C279.301,293.76,275.765,290.223,271.442,290.223z"/>
<g>
</g>
<g>
</g>
<g>
</g>
<g>
</g>
<g>
</g>
<g>
</g>
<g>
</g>
<g>
</g>
<g>
</g>
<g>
</g>
<g>
</g>
<g>
</g>
<g>
</g>
<g>
</g>
<g>
</g>
</svg>
