<?xml version="1.0" encoding="iso-8859-1"?>
<!-- Generator: Adobe Illustrator 19.0.0, SVG Export Plug-In . SVG Version: 6.00 Build 0)  -->
<svg version="1.1" id="Layer_1" xmlns="http://www.w3.org/2000/svg" xmlns:xlink="http://www.w3.org/1999/xlink" x="0px" y="0px"
	 viewBox="0 0 512 512" style="enable-background:new 0 0 512 512;" xml:space="preserve">
<path style="fill:#FF507D;" d="M378.419,315.933l-64.143-25.657h-68.552l-64.143,25.657c-13.013,5.205-21.546,17.809-21.546,31.824
	v45.346c0,4.733,3.836,8.569,8.569,8.569h42.845V504.5h137.103V401.672h42.845c4.733,0,8.569-3.836,8.569-8.569v-45.346
	C399.966,333.742,391.432,321.138,378.419,315.933z"/>
<path style="fill:#D23C69;" d="M314.276,290.276h-68.552l-25.622,10.249C221,332.868,247.44,358.828,280,358.828
	s59-25.96,59.898-58.303L314.276,290.276z"/>
<g>
	<rect x="348.549" y="401.67" style="fill:#B48764;" width="42.845" height="102.83"/>
	<rect x="168.6" y="401.67" style="fill:#B48764;" width="42.845" height="102.83"/>
	<path style="fill:#B48764;" d="M280,333.121L280,333.121c-18.93,0-34.276-15.346-34.276-34.276v-59.983h68.552v59.983
		C314.276,317.775,298.93,333.121,280,333.121z"/>
</g>
<path style="fill:#966D50;" d="M245.724,285.242c10.868,3.237,22.357,5.034,34.276,5.034s23.408-1.797,34.276-5.034v-46.38h-68.552
	V285.242z"/>
<path style="fill:#C39772;" d="M382.828,136.034h-8.569V84.621H185.741v51.414h-8.569c-9.465,0-17.138,7.673-17.138,17.138
	s7.673,17.138,17.138,17.138h8.569c0,52.058,42.201,94.259,94.259,94.259s94.259-42.201,94.259-94.259h8.569
	c9.465,0,17.138-7.673,17.138-17.138C399.966,143.707,392.292,136.034,382.828,136.034z"/>
<path style="fill:#B48764;" d="M365.69,127.466V84.621H185.741v51.414h-7.652c-8.537,0-16.45,5.833-17.821,14.26
	c-1.747,10.737,6.495,20.016,16.903,20.016h8.569c0,52.058,42.201,94.259,94.259,94.259c8.924,0,17.525-1.323,25.707-3.641
	c-39.546-11.201-68.552-47.484-68.552-90.618v-34.276c0-4.733,3.836-8.569,8.569-8.569L365.69,127.466L365.69,127.466z"/>
<g>
	<path style="fill:#553732;" d="M211.448,93.19l-5.814,29.068c-1.602,8.011-8.636,13.777-16.805,13.777h-11.657V93.19H211.448"/>
	<path style="fill:#553732;" d="M348.552,93.19l5.814,29.068c1.602,8.011,8.636,13.777,16.805,13.777h11.657V93.19H348.552"/>
</g>
<g>
	<path style="fill:#D23C69;" d="M205.26,368.745l-36.996-43.162c-5.167,6.073-8.23,13.853-8.23,22.174v45.346
		c0,4.733,3.836,8.569,8.569,8.569h42.845v-16.197C211.448,379.339,209.253,373.404,205.26,368.745z"/>
	<path style="fill:#D23C69;" d="M354.74,368.745l36.996-43.162c5.167,6.073,8.23,13.853,8.23,22.174v45.346
		c0,4.733-3.836,8.569-8.569,8.569h-42.845v-16.197C348.552,379.339,350.747,373.404,354.74,368.745z"/>
</g>
<path style="fill:#FF507D;" d="M288.569,7.5h-17.138c-52.058,0-94.259,42.201-94.259,94.259l0,0h205.655l0,0
	C382.828,49.701,340.627,7.5,288.569,7.5z"/>
<path style="fill:#D23C69;" d="M309.991,10.039C303.098,8.435,295.95,7.5,288.569,7.5h-17.138
	c-52.058,0-94.259,42.201-94.259,94.259h59.983C237.155,57.082,268.272,19.751,309.991,10.039z"/>
<path d="M238.862,145.672c-4.142,0-7.5,3.358-7.5,7.5v8.569c0,4.142,3.358,7.5,7.5,7.5s7.5-3.358,7.5-7.5v-8.569
	C246.362,149.03,243.004,145.672,238.862,145.672z"/>
<path d="M324.552,169.241c4.142,0,7.5-3.358,7.5-7.5v-8.569c0-4.142-3.358-7.5-7.5-7.5c-4.142,0-7.5,3.358-7.5,7.5v8.569
	C317.052,165.884,320.41,169.241,324.552,169.241z"/>
<path d="M312.176,210.38c3.2-2.63,3.662-7.357,1.031-10.556c-2.63-3.2-7.356-3.662-10.557-1.031
	c-5.306,4.362-12.939,6.863-20.944,6.863s-15.639-2.501-20.944-6.863c-3.2-2.63-7.926-2.168-10.557,1.031
	c-2.63,3.2-2.168,7.926,1.031,10.556c8.061,6.626,18.882,10.275,30.47,10.275S304.115,217.006,312.176,210.38z"/>
<path d="M382.911,308.97l-59.429-23.772V263.09c33.173-14.995,56.929-47.268,59.709-85.28h1.343
	c13.585,0,24.638-11.052,24.638-24.638c0-10.971-7.209-20.291-17.138-23.471v-27.943C392.035,45.649,346.385,0,290.276,0h-17.138
	c-53.587,0-97.629,41.637-101.481,94.259h-61.329c-4.142,0-7.5,3.358-7.5,7.5s3.358,7.5,7.5,7.5h61.052v20.443
	c-9.93,3.18-17.138,12.5-17.138,23.471c0,13.585,11.053,24.638,24.638,24.638h1.342c2.78,38.011,26.536,70.285,59.709,85.28v22.108
	l-59.429,23.772c-15.953,6.381-26.261,21.606-26.261,38.788v45.346c0,6.152,3.479,11.501,8.569,14.201V504.5
	c0,4.142,3.358,7.5,7.5,7.5s7.5-3.358,7.5-7.5v-95.328h27.845V504.5c0,4.142,3.358,7.5,7.5,7.5s7.5-3.358,7.5-7.5V375.966
	c0-1.481-0.438-2.928-1.26-4.16l-17.138-25.707c-2.297-3.447-6.955-4.378-10.4-2.08c-3.447,2.298-4.378,6.954-2.08,10.4
	l15.878,23.818v15.936H170.31c-0.59,0-1.069-0.479-1.069-1.069v-45.346c0-11.012,6.607-20.771,16.832-24.861l53.938-21.575
	c1.287,21.886,19.493,39.299,41.696,39.299s40.409-17.413,41.696-39.299l53.938,21.575c10.225,4.09,16.831,13.848,16.831,24.861
	v45.346c0,0.589-0.479,1.069-1.069,1.069h-35.345v-15.936l15.878-23.818c2.298-3.447,1.367-8.103-2.08-10.401
	c-3.447-2.298-8.104-1.366-10.4,2.08l-17.138,25.707c-0.821,1.232-1.26,2.679-1.26,4.16V504.5c0,4.142,3.358,7.5,7.5,7.5
	c4.142,0,7.5-3.358,7.5-7.5v-95.328h27.845V504.5c0,4.142,3.358,7.5,7.5,7.5c4.142,0,7.5-3.358,7.5-7.5v-97.196
	c5.09-2.699,8.569-8.049,8.569-14.2v-45.346C409.172,330.576,398.864,315.351,382.911,308.97z M372.208,128.534
	c-4.431,0-8.275-3.002-9.351-7.3l-2.994-11.976h17.17v19.276H372.208z M273.138,15h17.138c45.313,0,82.624,34.917,86.438,79.259
	H186.701C190.514,49.917,227.825,15,273.138,15z M203.55,109.259l-2.994,11.976c-1.075,4.298-4.92,7.3-9.351,7.3h-4.826v-19.276
	H203.55z M194.948,170.31c0-4.142-3.358-7.5-7.5-7.5h-8.569c-5.314,0-9.638-4.323-9.638-9.638s4.324-9.638,9.638-9.638h12.326
	c11.327,0,21.156-7.674,23.902-18.662l3.904-15.614h125.392l3.903,15.614c2.748,10.988,12.577,18.662,23.902,18.662h12.326
	c5.314,0,9.638,4.323,9.638,9.638s-4.323,9.638-9.638,9.638h-8.569c-4.142,0-7.5,3.358-7.5,7.5
	c0,47.839-38.919,86.759-86.758,86.759S194.948,218.149,194.948,170.31z M281.707,325.621c-14.764,0-26.776-12.011-26.776-26.776
	v-8.418c0-0.008,0-0.016,0-0.023v-21.91c8.535,2.33,17.512,3.575,26.776,3.575c9.264,0,18.241-1.246,26.776-3.575v21.91
	c0,0.008,0,0.016,0,0.023v8.418C308.483,313.609,296.471,325.621,281.707,325.621z"/>
<g>
</g>
<g>
</g>
<g>
</g>
<g>
</g>
<g>
</g>
<g>
</g>
<g>
</g>
<g>
</g>
<g>
</g>
<g>
</g>
<g>
</g>
<g>
</g>
<g>
</g>
<g>
</g>
<g>
</g>
</svg>
