<?xml version="1.0" encoding="iso-8859-1"?>
<!-- Generator: Adobe Illustrator 19.0.0, SVG Export Plug-In . SVG Version: 6.00 Build 0)  -->
<svg version="1.1" id="Layer_1" xmlns="http://www.w3.org/2000/svg" xmlns:xlink="http://www.w3.org/1999/xlink" x="0px" y="0px"
	 viewBox="0 0 511.999 511.999" style="enable-background:new 0 0 511.999 511.999;" xml:space="preserve">
<path style="fill:#72CDED;" d="M322.279,281.558c35.241,6.862,61.845,37.913,61.845,75.164v146.881H128.074V356.722
	c0-37.251,26.605-68.303,61.845-75.164"/>
<path style="fill:#5FBAD3;" d="M222.487,281.558h-32.568c-35.241,6.862-61.845,37.913-61.845,75.164v146.881h32.568V356.722
	C160.642,319.471,187.246,288.42,222.487,281.558z"/>
<g>
	<polygon style="fill:#FD5D65;" points="234.986,334.659 256.099,363.678 277.212,334.659 263.062,300.335 234.986,308.196 	"/>
	<polygon style="fill:#FD5D65;" points="245.599,503.603 234.986,396.915 256.099,363.674 277.224,396.915 266.611,503.603 	"/>
</g>
<polygon style="fill:#5FBAD3;" points="316.08,287.173 306.085,353.605 277.954,333.626 256.099,318.106 234.245,333.626 
	206.113,353.605 196.118,287.173 "/>
<g>
	<path style="fill:#E0B394;" d="M137.711,188.845c-13.926-0.618-25.01-12.106-25.01-26.178c0-14.465,11.724-26.2,26.2-26.2
		c1.303,0,2.583,0.09,3.841,0.281"/>
	<path style="fill:#E0B394;" d="M374.468,188.845c13.926-0.618,25.021-12.106,25.021-26.178c0-14.465-11.736-26.2-26.211-26.2
		c-1.303,0-2.594,0.101-3.841,0.281"/>
</g>
<path style="fill:#F7CBA4;" d="M218.193,302.096l-46.099-33.493c-24.361-17.699-37.539-46.967-34.643-76.94l7.996-82.743
	c5.507-56.988,53.397-100.473,110.65-100.473l0,0c57.253,0,105.142,43.485,110.65,100.473l7.996,82.743
	c2.896,29.973-10.282,59.24-34.643,76.94l-46.099,33.493C271.397,318.517,240.794,318.517,218.193,302.096z"/>
<path style="fill:#E0B394;" d="M166.138,207.97c-0.775,13.106,3.493,25.998,11.938,36.049l48.181,59.206
	c2.516,2.999,5.368,5.514,8.456,7.524c-5.795-2.021-11.365-4.919-16.52-8.659l-46.1-33.489
	c-24.358-17.699-37.532-46.965-34.634-76.939l7.985-82.745c5.458-56.432,52.468-99.624,108.99-100.444
	c-34.814,0.842-74.236,33.657-76.291,68.606L166.138,207.97z"/>
<path style="fill:#CE7C19;" d="M368.088,122.863c-20.866-33.41-42.361-13.398-88.405-13.398c-30.816,0-57.611-15.094-71.964-25.077
	c-10.77,10.77-22.247,18.35-32.422,23.629c-17.081,8.861-30.524,11.242-30.85,11.298l0.999-10.388
	c5.391-55.837,51.468-98.703,107.182-100.421c0.606-0.011,1.213-0.022,1.808-0.034c0.55-0.022,1.101-0.022,1.662-0.022
	c28.626,0,54.916,10.871,74.726,28.862c19.81,18.002,33.163,43.124,35.914,71.616L368.088,122.863z"/>
<path style="fill:#AF6719;" d="M254.437,8.471c-34.814,0.842-74.243,33.657-76.299,68.606l-2.841,30.939
	c-17.081,8.861-30.524,11.242-30.85,11.298l0.999-10.388c5.391-55.837,51.468-98.703,107.182-100.421
	C253.236,8.493,253.842,8.482,254.437,8.471z"/>
<path d="M206.006,167.893c-4.653,0-8.423,3.771-8.423,8.423v13.472c0,4.652,3.77,8.423,8.423,8.423c4.653,0,8.423-3.771,8.423-8.423
	v-13.472C214.428,171.664,210.658,167.893,206.006,167.893z"/>
<path d="M280.781,137.792c-3.29,3.289-3.29,8.623-0.001,11.912c3.289,3.288,8.623,3.289,11.911,0c7.335-7.335,19.269-7.335,26.603,0
	c1.644,1.644,3.8,2.467,5.955,2.467s4.311-0.822,5.957-2.467c3.289-3.289,3.289-8.623-0.001-11.912
	C317.304,123.89,294.683,123.89,280.781,137.792z"/>
<path d="M231.219,137.792c-6.735-6.735-15.689-10.443-25.212-10.443c-9.524,0-18.478,3.708-25.213,10.443
	c-3.289,3.289-3.289,8.623,0.001,11.912c3.288,3.289,8.621,3.288,11.911,0c3.552-3.553,8.276-5.51,13.301-5.51
	c5.024,0,9.748,1.956,13.3,5.51c1.645,1.645,3.8,2.467,5.957,2.467c2.155,0,4.311-0.822,5.955-2.467
	C234.508,146.415,234.508,141.082,231.219,137.792z"/>
<path d="M305.993,167.893c-4.653,0-8.423,3.771-8.423,8.423v13.472c0,4.652,3.77,8.423,8.423,8.423c4.653,0,8.423-3.771,8.423-8.423
	v-13.472C314.416,171.664,310.646,167.893,305.993,167.893z"/>
<path d="M271.881,244.199c-4.242,4.243-9.883,6.579-15.882,6.579s-11.639-2.336-15.882-6.579c-3.289-3.288-8.621-3.289-11.912,0
	c-3.289,3.289-3.289,8.623,0,11.912c7.424,7.424,17.295,11.512,27.794,11.512c10.499,0,20.369-4.089,27.794-11.512
	c3.289-3.289,3.289-8.623,0-11.912C280.504,240.91,275.172,240.91,271.881,244.199z"/>
<path d="M247.578,219.552h16.845c4.653,0,8.423-3.771,8.423-8.423v-33.691c0-4.652-3.77-8.423-8.423-8.423s-8.423,3.771-8.423,8.423
	v25.268h-8.423c-4.653,0-8.423,3.771-8.423,8.423S242.925,219.552,247.578,219.552z"/>
<path d="M407.816,162.642c0-17.81-13.523-32.517-30.843-34.412l-1.946-20.14c-2.611-27.047-14.504-52.644-33.488-72.077
	c-3.252-3.328-8.583-3.39-11.911-0.139c-3.328,3.251-3.39,8.583-0.139,11.911c13.956,14.285,23.431,32.452,27.287,51.957
	c-12.735-6.926-26.699-4.682-42.056-2.202c-10.089,1.63-21.526,3.477-35.133,3.477c-28.948,0-54.499-14.767-67.154-23.568
	c-6.369-4.431-10.132-7.796-10.29-7.938c-3.444-3.124-8.77-2.868-11.894,0.574c-3.129,3.443-2.874,8.77,0.57,11.897
	c0.097,0.088,1.368,1.235,3.634,3.056c-14.958,12.657-30.462,19.459-40.504,22.879c2.831-24.783,14.481-47.595,32.98-64.393
	c18.945-17.203,43.477-26.678,69.074-26.678c18.578,0,36.793,5.02,52.673,14.517c3.991,2.386,9.164,1.088,11.551-2.905
	c2.388-3.992,1.087-9.164-2.905-11.551C298.829,5.846,277.627,0,256.004,0c-29.793,0-58.346,11.028-80.399,31.053
	c-22.053,20.025-35.774,47.384-38.638,77.041l-1.946,20.136c-17.317,1.892-30.838,16.601-30.838,34.412
	c0,15.582,10.221,28.781,24.457,33.116c-1.335,31.089,13.087,61.249,38.41,79.64l4.226,3.069
	c-30.778,13.101-51.721,43.661-51.721,78.229v146.881c0,4.652,3.77,8.423,8.423,8.423h256.051c4.653,0,8.423-3.771,8.423-8.423
	v-146.88c0-16.731-4.859-32.924-14.052-46.828c-2.565-3.88-7.79-4.946-11.672-2.381c-3.88,2.565-4.946,7.79-2.38,11.672
	c7.365,11.139,11.257,24.119,11.257,37.537v138.458h-34.258V357.584c0-4.652-3.77-8.423-8.423-8.423
	c-4.653,0-8.423,3.771-8.423,8.423v42.114h-15.492c-4.653,0-8.423,3.771-8.423,8.423s3.77,8.423,8.423,8.423h15.492v78.612h-48.686
	l9.691-97.432c0.186-1.875-0.261-3.76-1.272-5.351l-18.048-28.401l13.588-18.677l21.336,15.152c1.448,1.029,3.157,1.555,4.878,1.555
	c1.115,0,2.235-0.221,3.295-0.672c2.692-1.144,4.599-3.605,5.033-6.498l9.659-64.196l0.082-0.06
	c7.677,1.916,14.901,5.139,21.516,9.613c1.446,0.978,3.087,1.446,4.711,1.446c2.702,0,5.357-1.298,6.984-3.705
	c2.607-3.853,1.596-9.09-2.257-11.696c-4.539-3.07-9.313-5.656-14.282-7.771l4.224-3.068c25.316-18.394,39.734-48.555,38.397-79.641
	C397.593,191.42,407.816,178.222,407.816,162.642z M121.028,162.642c0-7.892,5.172-14.589,12.301-16.905l-3.137,32.466
	C124.711,175.171,121.028,169.341,121.028,162.642z M212.308,338.782l-5.152-34.25l5.994,4.354
	c7.642,5.553,16.069,9.437,24.811,11.677L212.308,338.782z M136.401,356.696c0-31.356,21.477-58.602,51.553-66.114l0.075,0.055
	l9.659,64.196c0.436,2.893,2.342,5.353,5.033,6.498c2.694,1.145,5.787,0.81,8.172-0.884l21.336-15.152l13.589,18.678l-18.039,28.402
	c-1.01,1.591-1.458,3.475-1.271,5.349l9.692,97.432h-48.708V357.586c0-4.652-3.77-8.423-8.423-8.423s-8.423,3.771-8.423,8.423
	v137.571H136.4v-138.46H136.401z M258.889,495.155h-5.759l-9.569-96.204l12.445-19.595l12.452,19.596L258.889,495.155z
	 M256.004,349.337l-10.038-13.796l10.038-7.129l10.038,7.129L256.004,349.337z M299.699,338.782l-25.656-18.22
	c8.742-2.242,17.171-6.124,24.813-11.675l5.995-4.355L299.699,338.782z M335.055,261.769l-46.099,33.489
	c-19.714,14.319-46.2,14.32-65.905,0l-46.101-33.49c-21.851-15.87-33.81-42.429-31.212-69.313l6.411-66.343
	c11.007-2.973,34.416-11.178,56.397-31.027c15.531,9.865,41.503,22.776,71.041,22.776c14.959,0,27.633-2.047,37.819-3.693
	c21.948-3.545,31.426-5.075,42.397,11.504l6.454,66.782C368.855,219.338,356.899,245.897,335.055,261.769z M381.802,178.202
	l-3.137-32.463c7.132,2.317,12.306,9.015,12.306,16.904C390.971,169.34,387.287,175.17,381.802,178.202z"/>
<g>
</g>
<g>
</g>
<g>
</g>
<g>
</g>
<g>
</g>
<g>
</g>
<g>
</g>
<g>
</g>
<g>
</g>
<g>
</g>
<g>
</g>
<g>
</g>
<g>
</g>
<g>
</g>
<g>
</g>
</svg>
