<?xml version="1.0" encoding="iso-8859-1"?>
<!-- Generator: Adobe Illustrator 19.0.0, SVG Export Plug-In . SVG Version: 6.00 Build 0)  -->
<svg version="1.1" id="Layer_1" xmlns="http://www.w3.org/2000/svg" xmlns:xlink="http://www.w3.org/1999/xlink" x="0px" y="0px"
	 viewBox="0 0 512.001 512.001" style="enable-background:new 0 0 512.001 512.001;" xml:space="preserve">
<path style="fill:#62DCD2;" d="M322.275,281.557c35.24,6.862,61.845,37.913,61.845,75.163V503.6H128.072V356.721
	c0-37.25,26.604-68.302,61.845-75.163"/>
<g>
	<path style="fill:#54CCC0;" d="M222.484,281.557h-32.567c-35.24,6.862-61.845,37.913-61.845,75.163V503.6h32.567V356.721
		C160.64,319.47,187.244,288.419,222.484,281.557z"/>
	<polygon style="fill:#54CCC0;" points="316.071,287.172 306.076,353.603 277.944,333.625 256.09,318.104 234.237,333.625 
		206.105,353.603 196.11,287.172 	"/>
</g>
<g>
	<rect x="333.019" y="416.56" style="fill:#F7CBA4;" width="51.103" height="87.034"/>
	<rect x="128.069" y="416.56" style="fill:#F7CBA4;" width="51.103" height="87.034"/>
</g>
<g>
	<rect x="128.069" y="416.56" style="fill:#E0B394;" width="32.567" height="87.034"/>
	<path style="fill:#E0B394;" d="M137.713,188.848c-13.925-0.618-25.01-12.106-25.01-26.178c0-14.464,11.724-26.2,26.2-26.2
		c1.303,0,2.583,0.09,3.841,0.281"/>
	<path style="fill:#E0B394;" d="M374.468,188.848c13.925-0.618,25.021-12.106,25.021-26.178c0-14.464-11.736-26.2-26.211-26.2
		c-1.303,0-2.594,0.101-3.841,0.281"/>
</g>
<path style="fill:#F7CBA4;" d="M218.193,302.098l-46.099-33.493c-24.36-17.699-37.539-46.967-34.643-76.939l7.996-82.742
	C150.955,51.937,198.844,8.453,256.096,8.453l0,0c57.253,0,105.141,43.484,110.649,100.472l7.996,82.742
	c2.896,29.972-10.282,59.239-34.643,76.939l-46.099,33.493C271.397,318.519,240.794,318.519,218.193,302.098z"/>
<path style="fill:#E0B394;" d="M166.139,207.973c-0.775,13.106,3.493,25.998,11.938,36.049l48.181,59.205
	c2.516,2.998,5.368,5.514,8.456,7.524c-5.795-2.021-11.365-4.919-16.52-8.658l-46.1-33.488
	c-24.358-17.699-37.531-46.965-34.634-76.938l7.985-82.744C150.903,52.491,197.913,9.3,254.434,8.48
	c-34.814,0.842-74.235,33.657-76.29,68.605L166.139,207.973z"/>
<path style="fill:#E6E6E6;" d="M363.637,265.021c-5.48,4.144-12.275,8.153-19.788,11.533
	c-30.456,13.678-72.783,17.047-87.753-21.966c-14.981,39.014-57.308,35.645-87.764,21.966c-7.513-3.38-14.307-7.389-19.788-11.533
	c26.458,0,34.96-32.129,67.089-45.359c14.723-6.064,25.481-3.785,32.815,0.46c3.201,1.853,5.795,4.425,7.67,7.434
	c2.021-3.212,4.851-5.952,8.355-7.85c7.311-3.975,17.833-5.907,32.085-0.045C328.678,232.891,337.19,265.021,363.637,265.021z"/>
<circle cx="282.102" cy="370.483" r="8.423"/>
<path d="M197.584,175.758v13.471c0,4.652,3.77,8.423,8.423,8.423c4.653,0,8.423-3.771,8.423-8.423v-13.472
	c0-4.652-3.77-8.423-8.423-8.423C201.353,167.334,197.584,171.106,197.584,175.758z"/>
<path d="M325.25,157.228c2.155,0,4.311-0.822,5.956-2.467c3.289-3.289,3.289-8.623-0.001-11.911
	c-13.902-13.902-36.522-13.902-50.423,0c-3.29,3.289-3.29,8.621-0.001,11.911c3.289,3.289,8.623,3.29,11.911,0
	c7.334-7.333,19.269-7.333,26.603,0C320.939,156.406,323.095,157.228,325.25,157.228z"/>
<path d="M225.264,157.228c2.155,0,4.311-0.822,5.955-2.467c3.29-3.289,3.29-8.621,0.001-11.911
	c-6.735-6.735-15.689-10.443-25.212-10.443c-9.524,0-18.478,3.709-25.213,10.443c-3.289,3.289-3.289,8.623,0.001,11.911
	c3.288,3.29,8.621,3.289,11.911,0c3.552-3.553,8.276-5.51,13.301-5.51c5.024,0,9.748,1.956,13.3,5.51
	C220.952,156.406,223.107,157.228,225.264,157.228z"/>
<path d="M297.571,175.758v13.471c0,4.652,3.77,8.423,8.423,8.423c4.653,0,8.423-3.771,8.423-8.423v-13.472
	c0-4.652-3.77-8.423-8.423-8.423C301.341,167.334,297.571,171.106,297.571,175.758z"/>
<path d="M407.816,162.645c0-17.808-13.52-32.512-30.836-34.41l-1.947-20.146c-2.864-29.652-16.588-57.009-38.647-77.031
	c-3.444-3.125-8.771-2.869-11.898,0.576c-3.126,3.444-2.868,8.771,0.576,11.897c18.951,17.2,30.743,40.703,33.203,66.177
	l7.996,82.745c2.057,21.262-4.711,41.96-18.642,57.796c-3.548-2.841-7.26-6.577-11.679-11.14
	c-9.303-9.607-19.847-20.497-36.272-27.262c-10.675-4.391-19.663-4.953-26.866-3.792v-25.376c0-4.652-3.77-8.423-8.423-8.423
	c-4.653,0-8.423,3.771-8.423,8.423v32.41c-1.076-0.834-2.206-1.598-3.385-2.281c-8.073-4.672-21.608-8.635-40.24-0.959
	c-16.427,6.764-26.974,17.655-36.277,27.262c-4.418,4.563-8.131,8.299-11.679,11.14c-13.932-15.837-20.701-36.536-18.643-57.798
	l7.996-82.742c2.465-25.473,14.257-48.977,33.203-66.183c18.95-17.208,43.478-26.684,69.067-26.684
	c14.883,0,29.248,3.12,42.695,9.273c4.233,1.937,9.23,0.076,11.164-4.154c1.935-4.23,0.075-9.228-4.154-11.163
	C290.041,3.634,273.318,0,255.998,0c-29.786,0-58.335,11.029-80.389,31.057c-22.053,20.026-35.776,47.382-38.645,77.032
	l-1.946,20.145c-17.314,1.895-30.832,16.6-30.832,34.411c0,15.576,10.213,28.769,24.44,33.11
	c-0.991,22.134,5.809,43.529,19.161,60.87c-3.34,0.266-6.239,2.474-7.32,5.69c-1.151,3.432,0.019,7.214,2.905,9.397
	c5.432,4.107,11.884,7.972,18.794,11.277c-15.011,8.615-27.17,21.707-34.688,37.829c-1.965,4.216-0.142,9.228,4.075,11.193
	c1.151,0.537,2.362,0.792,3.553,0.792c3.171,0,6.21-1.801,7.64-4.866c8.338-17.885,23.785-31.118,42.566-36.613
	c0.956,0.239,1.929,0.468,2.919,0.688l9.45,62.818c0.436,2.894,2.342,5.353,5.033,6.499c1.059,0.449,2.179,0.672,3.295,0.672
	c1.722,0,3.431-0.528,4.878-1.555l36.695-26.06v56.32c0,4.652,3.77,8.423,8.423,8.423c4.653,0,8.423-3.771,8.423-8.423v-56.31
	l36.678,26.048c2.385,1.695,5.478,2.029,8.172,0.885c2.692-1.145,4.599-3.605,5.033-6.499l9.45-62.818
	c1.006-0.223,1.994-0.457,2.966-0.701c28.883,8.486,48.879,35.068,48.879,65.385v51.414h-34.261v-50.53
	c0-4.652-3.77-8.423-8.423-8.423c-4.653,0-8.423,3.771-8.423,8.423v137.573H187.492v-78.402c0.002-0.073,0.011-0.144,0.011-0.217
	s-0.009-0.144-0.011-0.217v-58.736c0-4.652-3.77-8.423-8.423-8.423s-8.423,3.771-8.423,8.423v50.53h-34.243v-51.414
	c0-4.652-3.77-8.423-8.423-8.423s-8.423,3.771-8.423,8.423v59.771c0,0.022-0.003,0.044-0.003,0.065c0,0.021,0.003,0.044,0.003,0.065
	v86.978c0,4.652,3.77,8.423,8.423,8.423h256.048c4.653,0,8.423-3.771,8.423-8.423V356.699c0-30.98-16.754-58.83-42.624-73.706
	c6.91-3.304,13.364-7.17,18.797-11.278c2.886-2.183,4.056-5.967,2.905-9.397c-1.079-3.216-3.978-5.423-7.316-5.69
	c13.352-17.34,20.151-38.738,19.16-60.872C397.601,191.41,407.816,178.219,407.816,162.645z M121.03,162.645
	c0-7.888,5.169-14.586,12.295-16.903l-3.137,32.461C124.71,175.17,121.03,169.342,121.03,162.645z M136.403,424.957h34.243v70.197
	h-34.243V424.957z M341.344,495.155v-70.197h34.261v70.197H341.344z M188.159,250.829c8.557-8.838,17.407-17.977,30.589-23.405
	c9.868-4.064,18.41-4.077,25.386-0.038c1.947,1.128,3.542,2.675,4.743,4.6c1.534,2.463,4.228,3.962,7.13,3.969
	c0.007,0,0.012,0,0.019,0c2.894,0,5.587-1.487,7.129-3.937c1.307-2.076,3.117-3.781,5.251-4.937
	c6.864-3.732,15.227-3.616,24.852,0.344c13.176,5.428,22.026,14.567,30.582,23.404c5.935,6.129,11.98,12.373,19.205,16.739
	c-0.903,0.437-1.817,0.865-2.738,1.279c-20.52,9.217-41.29,11.204-55.558,5.319c-9.619-3.966-16.644-11.577-20.881-22.619
	c-1.249-3.256-4.375-5.405-7.862-5.405h-0.001c-3.486,0-6.613,2.148-7.863,5.404c-4.241,11.044-11.269,18.656-20.893,22.622
	c-14.27,5.885-35.039,3.895-55.552-5.317c-0.923-0.416-1.838-0.842-2.741-1.28C176.178,263.202,182.224,256.958,188.159,250.829z
	 M223.047,295.256l-2.502-1.818c4.41-0.734,8.816-1.923,13.121-3.698c9.11-3.755,16.58-9.613,22.335-17.492
	c5.751,7.878,13.218,13.734,22.323,17.49c4.311,1.778,8.72,2.961,13.134,3.696l-2.511,1.825
	C269.245,309.583,242.761,309.582,223.047,295.256z M207.146,304.524l5.999,4.358c7.642,5.554,16.067,9.439,24.805,11.682
	L212.3,338.78L207.146,304.524z M299.689,338.779l-25.646-18.213c8.742-2.243,17.169-6.128,24.807-11.683l5.991-4.352
	L299.689,338.779z M381.808,178.201l-3.137-32.457c7.128,2.318,12.298,9.014,12.298,16.901
	C390.97,169.341,387.289,175.168,381.808,178.201z"/>
<g>
</g>
<g>
</g>
<g>
</g>
<g>
</g>
<g>
</g>
<g>
</g>
<g>
</g>
<g>
</g>
<g>
</g>
<g>
</g>
<g>
</g>
<g>
</g>
<g>
</g>
<g>
</g>
<g>
</g>
</svg>
