<?xml version="1.0" encoding="iso-8859-1"?>
<!-- Generator: Adobe Illustrator 19.0.0, SVG Export Plug-In . SVG Version: 6.00 Build 0)  -->
<svg version="1.1" id="Layer_1" xmlns="http://www.w3.org/2000/svg" xmlns:xlink="http://www.w3.org/1999/xlink" x="0px" y="0px"
	 viewBox="0 0 512 512" style="enable-background:new 0 0 512 512;" xml:space="preserve">
<path style="fill:#D2B4EF;" d="M319.949,317c34.001,6.62,59.67,36.58,59.67,72.521v114.376H132.573V389.521
	c0-35.941,25.669-65.901,59.67-72.521H319.949z"/>
<path style="fill:#E0B394;" d="M204.54,325.937c0.78,27.804,23.556,50.103,51.555,50.103s50.775-22.299,51.555-50.103"/>
<path style="fill:#B99ED8;" d="M223.666,317h-31.423c-34.001,6.62-59.67,36.58-59.67,72.521v114.376h31.423V389.521
	C163.995,353.58,189.664,323.62,223.666,317z"/>
<path style="fill:#F7CBA4;" d="M219.521,336.82l-44.478-32.315c-23.504-17.077-36.219-45.316-33.425-74.234l7.715-79.833
	c5.314-54.984,51.519-96.94,106.759-96.94l0,0c55.24,0,101.445,41.956,106.759,96.94l7.715,79.833
	c2.794,28.919-9.921,57.157-33.425,74.234l-44.478,32.315C270.856,352.664,241.327,352.664,219.521,336.82z"/>
<path style="fill:#E0B394;" d="M169.297,246.004c-0.748,12.645,3.37,25.084,11.518,34.782l46.487,57.124
	c2.427,2.893,5.179,5.32,8.159,7.26c-5.591-1.95-10.965-4.746-15.939-8.354l-44.479-32.311
	c-23.502-17.077-36.212-45.314-33.416-74.233l7.704-79.835c5.266-54.448,50.623-96.121,105.157-96.912
	c-33.59,0.813-71.625,32.474-73.608,66.193L169.297,246.004z"/>
<g>
	<rect x="331.747" y="450.806" style="fill:#F7CBA4;" width="47.871" height="53.091"/>
	<rect x="132.571" y="450.806" style="fill:#F7CBA4;" width="47.86" height="53.091"/>
</g>
<rect x="132.571" y="450.806" style="fill:#E0B394;" width="31.423" height="53.091"/>
<path style="fill:#FC8A5E;" d="M401.829,153.886v135.822h-33.156h-15.95c13.328-16.491,19.937-37.772,17.846-59.432l-7.715-79.835
	h-58.37l-15.17-59.941l-18.42,59.941H149.332l-7.715,79.835c-2.08,21.66,4.518,42.941,17.846,59.432h-15.939h-33.167V153.886
	c0-80.485,65.251-145.736,145.736-145.736S401.829,73.401,401.829,153.886z"/>
<path style="fill:#ED7C58;" d="M276.408,9.568c-6.64-0.926-13.42-1.416-20.315-1.416c-80.485,0-145.736,65.251-145.736,145.736
	v135.822h33.167h7.463V153.887C150.987,80.297,205.54,19.454,276.408,9.568z"/>
<path d="M199.638,215.458v12.998c0,4.488,3.639,8.127,8.127,8.127c4.488,0,8.127-3.639,8.127-8.127v-12.998
	c0-4.488-3.639-8.127-8.127-8.127C203.277,207.332,199.638,210.97,199.638,215.458z"/>
<path d="M322.816,192.162c2.079,0,4.16-0.793,5.746-2.381c3.175-3.174,3.175-8.319,0.001-11.493
	c-6.498-6.498-15.137-10.076-24.327-10.076c-9.188,0-17.827,3.578-24.325,10.076c-3.174,3.174-3.174,8.319,0.001,11.493
	c3.173,3.174,8.318,3.173,11.492,0c3.427-3.428,7.985-5.316,12.832-5.316c4.849,0,9.406,1.888,12.833,5.316
	C318.656,191.369,320.735,192.163,322.816,192.162z"/>
<path d="M183.439,178.29c-3.174,3.174-3.174,8.318,0,11.492c3.174,3.174,8.319,3.174,11.492,0c7.078-7.077,18.591-7.076,25.667,0
	c1.586,1.587,3.667,2.381,5.746,2.381s4.16-0.793,5.746-2.381c3.174-3.174,3.174-8.318,0-11.492
	C218.678,164.877,196.852,164.878,183.439,178.29z"/>
<path d="M296.111,215.458v12.998c0,4.488,3.637,8.127,8.127,8.127s8.127-3.639,8.127-8.127v-12.998c0-4.488-3.637-8.127-8.127-8.127
	S296.111,210.97,296.111,215.458z"/>
<path d="M229.185,280.955c-3.174,3.174-3.174,8.319,0,11.493c7.162,7.163,16.686,11.107,26.816,11.107
	c10.13,0,19.653-3.945,26.816-11.107c3.174-3.174,3.174-8.319,0-11.493c-3.175-3.174-8.319-3.174-11.493,0
	c-4.092,4.094-9.535,6.347-15.323,6.347c-5.788,0-11.231-2.254-15.323-6.347C237.503,277.781,232.358,277.782,229.185,280.955z"/>
<path d="M247.874,257.175h16.253c4.489,0,8.127-3.639,8.127-8.127v-32.506c0-4.488-3.637-8.127-8.127-8.127
	s-8.127,3.639-8.127,8.127v24.38h-8.127c-4.488,0-8.127,3.639-8.127,8.127C239.747,253.536,243.386,257.175,247.874,257.175z"/>
<path d="M256.001,0c-24.588,0-48.085,5.629-69.842,16.731c-20.744,10.585-39.13,26.042-53.169,44.697
	c-2.699,3.587-1.98,8.681,1.607,11.379c3.588,2.699,8.681,1.98,11.379-1.607c26.279-34.919,66.382-54.947,110.025-54.947
	c75.878,0,137.609,61.731,137.609,137.609v127.695h-25.781c8.712-15.778,12.503-33.793,10.736-52.087l-7.715-79.835
	c-0.402-4.166-3.904-7.345-8.089-7.345h-52.042l-13.618-53.809c-0.894-3.532-4.031-6.039-7.674-6.13
	c-3.623-0.1-6.902,2.254-7.972,5.736L264.8,142.29h-41.401c-4.488,0-8.127,3.639-8.127,8.127c0,4.488,3.639,8.127,8.127,8.127
	h47.405c3.569,0,6.72-2.329,7.768-5.74l9.895-32.198l8.05,31.805c0.912,3.606,4.158,6.133,7.878,6.133h50.99l7.006,72.49
	c1.872,19.382-3.838,38.397-16.079,53.544c-4.074,5.043-8.796,9.529-14.036,13.333l-44.483,32.313
	c-19.007,13.823-44.562,13.823-63.583-0.002l-44.48-32.312c-5.239-3.804-9.961-8.29-14.036-13.333
	c-12.231-15.134-17.94-34.151-16.078-53.542l7.005-72.491h39.689c4.488,0,8.127-3.639,8.127-8.127c0-4.488-3.639-8.127-8.127-8.127
	h-47.068c-4.186,0-7.687,3.179-8.089,7.345l-7.716,79.841c-1.758,18.299,2.035,36.313,10.738,52.082h-25.783V153.862
	c0-20.903,4.564-40.973,13.566-59.654c1.948-4.043,0.25-8.9-3.792-10.848c-4.042-1.947-8.9-0.25-10.848,3.793
	c-10.075,20.9-15.18,43.345-15.18,66.709v135.822c0,4.488,3.639,8.127,8.127,8.127h45.35c4.357,4.932,9.236,9.383,14.561,13.249
	l4.073,2.959c-11.912,5.072-22.291,12.853-30.455,22.51c-0.317,0.321-0.615,0.665-0.881,1.042
	c-11.659,14.263-18.561,32.434-18.561,51.923v114.378c0,4.488,3.639,8.127,8.127,8.127h247.047c4.489,0,8.127-3.639,8.127-8.127
	v-53.073c0-0.008,0.001-0.014,0.001-0.021c0-0.007-0.001-0.014-0.001-0.021v-61.264c0-33.351-20.205-62.835-49.899-75.477
	l4.07-2.957c5.327-3.867,10.206-8.318,14.563-13.251h45.35c4.489,0,8.127-3.639,8.127-8.127V153.862
	C409.863,69.022,340.841,0,256.001,0z M256.006,356.854c13.206-0.001,26.409-3.748,38.004-11.215
	c-7.393,13.343-21.59,22.25-38.007,22.25c-16.416,0-30.611-8.906-38.005-22.247C229.598,353.109,242.798,356.855,256.006,356.854z
	 M151.86,352.748c22.075,14.98,20.393,51.674,20.373,52.058c-0.009,0.155-0.013,0.31-0.013,0.465v37.382h-31.612v-53.158
	C140.606,376.013,144.73,363.322,151.86,352.748z M140.606,458.907h31.612v36.84h-31.612V458.907z M339.789,495.747v-36.84h31.61
	v36.84H339.789z M371.4,389.495v53.158h-31.61v-37.382c0-0.145-0.004-0.306-0.013-0.451c-0.013-0.246-1.189-24.823,10.432-42.01
	c2.514-3.719,1.538-8.77-2.18-11.284c-3.719-2.514-8.77-1.538-11.284,2.18c-14.179,20.971-13.355,48.59-13.208,51.768v90.272
	h-59.407v-7.043c0-4.488-3.637-8.127-8.127-8.127c-4.488,0-8.127,3.639-8.127,8.127v7.043h-59.405V405.48
	c0.194-4.093,1.411-45.153-25.849-65.069c7.752-6.929,17.184-12.072,27.717-14.704l6.257,4.545
	c1.353,14.029,7.557,27.029,17.751,36.958c9.246,9.006,20.934,14.664,33.528,16.372v79.115c0,4.488,3.639,8.127,8.127,8.127
	c4.489,0,8.127-3.639,8.127-8.127v-79.115c12.595-1.709,24.282-7.366,33.528-16.372c10.196-9.932,16.399-22.933,17.752-36.963
	l6.254-4.543C350.679,332.955,371.4,359.243,371.4,389.495z"/>
<circle cx="279.705" cy="395.513" r="8.127"/>
<g>
</g>
<g>
</g>
<g>
</g>
<g>
</g>
<g>
</g>
<g>
</g>
<g>
</g>
<g>
</g>
<g>
</g>
<g>
</g>
<g>
</g>
<g>
</g>
<g>
</g>
<g>
</g>
<g>
</g>
</svg>
