<?xml version="1.0" encoding="iso-8859-1"?>
<!-- Generator: Adobe Illustrator 19.0.0, SVG Export Plug-In . SVG Version: 6.00 Build 0)  -->
<svg version="1.1" id="Capa_1" xmlns="http://www.w3.org/2000/svg" xmlns:xlink="http://www.w3.org/1999/xlink" x="0px" y="0px"
	 viewBox="0 0 512 512" style="enable-background:new 0 0 512 512;" xml:space="preserve">
<path style="fill:#8B6859;" d="M109.363,132.188v107.014h-2.438c-15.993,0-28.957,12.964-28.957,28.957s12.965,28.957,28.957,28.957
	h2.613c3.142,55.959,49.509,100.369,106.254,100.369h20.213c0,4.987,0,10.025,0,10.039c0,9.627-0.123,9.348-9.315,10.642
	c-7.089,0.998-13.89,3.741-19.696,7.929c-11.49,8.287-18.441,21.846-18.441,36.014v42.432h134.895v-42.432
	c0-14.168-6.952-27.727-18.441-36.014c-5.806-4.188-12.606-6.93-19.696-7.929c-9.193-1.294-9.315-1.015-9.315-10.642
	c0-0.013,0-5.052,0-10.039h20.213c58.779,0,106.429-47.65,106.429-106.429V132.188H109.363z"/>
<path style="fill:#875B4C;" d="M405.572,239.202h-2.931V132.188h-41.848v159.44c0,58.468-47.384,105.852-105.852,105.852h41.848
	c56.615,0,102.856-44.447,105.711-100.364h3.072c8.403,0,15.97-3.579,21.26-9.296c4.778-5.164,7.697-12.071,7.697-19.661l0,0
	C434.529,252.166,421.564,239.202,405.572,239.202z"/>
<g>
	<circle style="fill:#EA7F7F;" cx="170.37" cy="320.31" r="15.771"/>
	<circle style="fill:#EA7F7F;" cx="341.63" cy="320.31" r="15.771"/>
</g>
<path style="fill:#423E3C;" d="M440.252,94.587c0-13.749-5.758-26.149-14.989-34.933c-1.536-1.461-1.986-3.775-1.04-5.672
	c1.427-2.863,2.276-6.062,2.377-9.454c0.377-12.788-10.41-23.75-23.202-23.58c-3.301,0.044-6.43,0.792-9.25,2.095
	c-1.897,0.877-4.158,0.389-5.584-1.139C380.275,13.02,368.47,7.46,355.36,7.46c-11.002,0-21.085,3.916-28.944,10.424
	c-1.957,1.621-4.784,1.528-6.635-0.213c-4.96-4.666-11.625-7.532-18.975-7.532c-7.367,0-14.048,2.879-19.015,7.563
	c-1.885,1.778-4.889,1.778-6.775,0c-4.967-4.684-11.648-7.563-19.015-7.563c-7.367,0-14.049,2.879-19.015,7.563
	c-1.885,1.778-4.889,1.778-6.775,0c-4.967-4.684-11.648-7.563-19.015-7.563c-7.35,0-14.015,2.866-18.975,7.532
	c-1.851,1.741-4.678,1.834-6.635,0.213C177.725,11.376,167.642,7.46,156.64,7.46c-13.11,0-24.915,5.56-33.205,14.444
	c-1.426,1.528-3.687,2.016-5.584,1.139c-2.82-1.304-5.949-2.052-9.25-2.095C95.809,20.778,85.022,31.74,85.4,44.528
	c0.1,3.393,0.949,6.591,2.377,9.454c0.946,1.897,0.496,4.21-1.04,5.672c-9.231,8.784-14.989,21.184-14.989,34.933
	c0,21.71,14.35,40.058,34.079,46.104c2.081,0.638,3.536,2.511,3.536,4.687v55.673c0,0,19.124-10.653,32.623-31.501
	c1.964-3.034,6.348-3.027,8.353-0.019c8.643,12.967,23.394,21.512,40.146,21.512c16.799,0,31.584-8.593,40.217-21.62
	c1.586-2.394,4.873-3.004,7.139-1.24c5.015,3.902,11.312,6.231,18.159,6.231s13.144-2.328,18.159-6.231
	c2.266-1.764,5.553-1.153,7.139,1.24c8.633,13.027,23.419,21.62,40.217,21.62c16.752,0,31.503-8.545,40.146-21.512
	c2.005-3.007,6.388-3.014,8.353,0.019c13.499,20.848,32.623,31.501,32.623,31.501v-55.673c0-2.177,1.455-4.05,3.536-4.687
	C425.902,134.645,440.252,116.297,440.252,94.587z"/>
<path style="fill:#302D2C;" d="M440.257,94.59c0,21.71-14.35,40.06-34.08,46.1c-2.08,0.64-3.54,2.51-3.54,4.69v55.67
	c0,0-19.12-10.65-32.62-31.5c-1.97-3.03-6.35-3.03-8.36-0.02c-0.57,0.86-1.17,1.69-1.79,2.51v-26.66c0-2.18,1.46-4.05,3.54-4.69
	c19.73-6.04,34.08-24.39,34.08-46.1c0-13.75-5.76-26.15-14.99-34.94c-1.53-1.46-1.98-3.77-1.04-5.67c1.43-2.86,2.28-6.06,2.38-9.45
	c0.38-12.79-10.41-23.75-23.2-23.58c-3.31,0.04-6.43,0.79-9.25,2.09c-1.9,0.88-4.16,0.39-5.59-1.14c-3.39-3.64-7.39-6.72-11.81-9.09
	c6.37-3.41,13.64-5.35,21.37-5.35c13.11,0,24.92,5.56,33.21,14.44c1.42,1.53,3.68,2.02,5.58,1.14c2.82-1.3,5.95-2.05,9.25-2.09
	c12.79-0.17,23.58,10.79,23.2,23.58c-0.1,3.39-0.95,6.59-2.37,9.45c-0.95,1.9-0.5,4.21,1.04,5.67
	C434.497,68.44,440.257,80.84,440.257,94.59z"/>
<circle style="fill:#FFFFFF;" cx="256" cy="339" r="20.792"/>
<path style="fill:#F2B844;" d="M323.444,462.11v42.43H188.556v-42.43c0-14.172,6.946-27.729,18.434-36.013
	c3.71-2.676,7.825-4.76,12.165-6.176c2.45-0.801,4.978-1.392,7.537-1.758c3.749-0.529,5.989-0.786,7.327-1.571l1.719,0.381
	l4.332,2.45c9.793,5.554,21.763,5.592,31.595,0.109l4.597-2.559l1.719-0.381c1.338,0.786,3.578,1.042,7.327,1.571
	c2.559,0.366,5.087,0.957,7.537,1.758c4.34,1.416,8.455,3.5,12.165,6.176C316.498,434.381,323.444,447.938,323.444,462.11z"/>
<path d="M213.234,293.438c-4.12,0-7.459-3.339-7.459-7.459v-22.805c0-4.12,3.339-7.459,7.459-7.459s7.459,3.339,7.459,7.459v22.805
	C220.694,290.099,217.355,293.438,213.234,293.438z"/>
<path d="M298.766,293.438c-4.12,0-7.459-3.339-7.459-7.459v-22.805c0-4.12,3.339-7.459,7.459-7.459s7.459,3.339,7.459,7.459v22.805
	C306.225,290.099,302.886,293.438,298.766,293.438z"/>
<path d="M288.926,238.709c-2.998,0-5.826-1.82-6.965-4.786c-1.477-3.846,0.442-8.162,4.287-9.639l32.361-12.434
	c3.848-1.479,8.162,0.443,9.639,4.287c1.477,3.846-0.442,8.162-4.287,9.639L291.6,238.21
	C290.719,238.549,289.814,238.709,288.926,238.709z"/>
<path d="M223.075,238.709c-0.889,0-1.794-0.16-2.674-0.498l-32.361-12.434c-3.845-1.477-5.765-5.793-4.287-9.639
	c1.476-3.844,5.79-5.767,9.639-4.287l32.361,12.434c3.845,1.477,5.765,5.793,4.287,9.639
	C228.9,236.889,226.073,238.709,223.075,238.709z"/>
<path d="M256,367.25c-15.577,0-28.251-12.673-28.251-28.251s12.673-28.252,28.251-28.252s28.251,12.673,28.251,28.252
	C284.251,354.576,271.577,367.25,256,367.25z M256,325.666c-7.352,0-13.332,5.981-13.332,13.333c0,7.352,5.98,13.332,13.332,13.332
	s13.332-5.98,13.332-13.332S263.352,325.666,256,325.666z"/>
<path d="M267.915,462.599h-23.829c-4.12,0-7.459,3.339-7.459,7.459s3.339,7.459,7.459,7.459h23.829c4.12,0,7.459-3.339,7.459-7.459
	S272.035,462.599,267.915,462.599z"/>
<path d="M410.097,232.033v-30.982v-5.174V147.26c22.575-7.715,37.615-28.656,37.615-52.673c0-14.779-5.665-28.574-15.996-39.051
	c4.394-10.376,2.678-22.034-4.839-32.296c-0.71-0.964-1.75-1.999-2.717-2.7c-9.906-7.188-21.239-8.971-31.388-5.016
	C382.891,5.637,369.358,0,355.359,0c-11.578,0-22.879,3.832-32.055,10.831c-6.317-5.271-14.228-8.152-22.499-8.152
	c-8.229,0-16.097,2.848-22.403,8.066C272.099,5.527,264.23,2.679,256,2.679c-8.23,0-16.099,2.849-22.403,8.066
	c-6.304-5.217-14.173-8.066-22.403-8.066c-8.271,0-16.181,2.88-22.499,8.152C179.519,3.832,168.218,0,156.641,0
	c-4.007,0-8.001,0.452-11.873,1.341c-4.015,0.924-6.521,4.926-5.599,8.942c0.924,4.015,4.928,6.523,8.942,5.598
	c2.777-0.639,5.647-0.962,8.53-0.962c8.813,0,17.403,3.094,24.186,8.71c4.833,4.003,11.929,3.777,16.504-0.525
	c3.774-3.551,8.699-5.506,13.864-5.506c5.18,0,10.116,1.964,13.897,5.53c4.769,4.497,12.242,4.501,17.011,0
	c3.781-3.566,8.716-5.53,13.897-5.53c5.18,0,10.116,1.964,13.896,5.528c4.769,4.501,12.242,4.504,17.011,0.003
	c3.782-3.567,8.718-5.531,13.898-5.531c5.165,0,10.09,1.955,13.864,5.506c4.573,4.304,11.671,4.53,16.503,0.525
	c6.783-5.617,15.374-8.71,24.187-8.71c10.631,0,20.486,4.288,27.751,12.075c3.655,3.914,9.349,5.049,14.167,2.82
	c5.52-2.551,11.828-1.635,17.802,2.574c4.392,6.172,5.27,12.644,2.467,18.267c-2.38,4.773-1.322,10.696,2.574,14.404
	c8.171,7.775,12.671,18.263,12.671,29.529c0,18.03-11.576,33.692-28.806,38.972c-5.268,1.615-8.809,6.366-8.809,11.82v41.178
	c-5.838-4.872-12.991-11.931-18.902-21.061c-2.285-3.529-6.152-5.652-10.345-5.68c-0.028,0-0.055,0-0.084,0
	c-4.182,0-8.063,2.08-10.392,5.577c-7.594,11.391-20.281,18.191-33.94,18.191c-13.703,0-26.413-6.834-33.999-18.28
	c-1.917-2.893-4.977-4.874-8.396-5.433c-3.378-0.553-6.854,0.332-9.544,2.425c-3.915,3.048-8.61,4.658-13.578,4.658
	c-4.967,0-9.662-1.61-13.578-4.657c-2.69-2.094-6.169-2.98-9.544-2.426c-3.419,0.56-6.479,2.54-8.395,5.431
	c-7.587,11.448-20.296,18.281-33.999,18.281c-13.659,0-26.347-6.8-33.94-18.19c-2.331-3.498-6.21-5.578-10.393-5.578
	c-0.027,0-0.055,0-0.083,0c-4.193,0.028-8.06,2.151-10.345,5.68c-5.912,9.131-13.065,16.19-18.902,21.062v-41.179
	c0-5.454-3.54-10.204-8.81-11.82c-17.229-5.28-28.805-20.942-28.805-38.972c0-11.267,4.501-21.755,12.673-29.531
	c3.951-3.76,4.98-9.557,2.561-14.422c-1.056-2.129-1.592-4.411-1.592-6.784c0-5.657,3.089-10.857,8.062-13.572
	c3.616-1.974,4.948-6.505,2.974-10.121c-1.973-3.617-6.505-4.951-10.121-2.974c-9.767,5.331-15.834,15.548-15.834,26.667
	c0,4.056,0.791,7.978,2.354,11.686C69.954,66.013,64.288,79.808,64.288,94.587c0,24.018,15.038,44.96,37.615,52.673v46.844v6.948
	v31.045c-17.711,2.455-31.395,17.686-31.395,36.062c0,18.622,14.052,34.015,32.108,36.154
	c6.325,56.534,54.405,100.633,112.599,100.633h13.33v2.579c0,0.884,0,1.929-0.018,2.845c-0.657,0.099-1.383,0.201-2.072,0.297
	l-0.806,0.113c-8.27,1.165-16.23,4.369-23.019,9.266c-13.484,9.726-21.536,25.45-21.537,42.063v42.432
	c0,4.12,3.339,7.459,7.459,7.459h134.896c4.12,0,7.459-3.339,7.459-7.459v-42.433c-0.001-16.612-8.053-32.336-21.537-42.062
	c-6.789-4.897-14.75-8.102-23.021-9.266l-0.805-0.113c-0.689-0.096-1.415-0.198-2.072-0.297c-0.019-0.916-0.019-1.961-0.019-2.845
	v-2.579h13.33c24.987,0,48.684-7.974,68.525-23.062c3.28-2.493,3.917-7.173,1.423-10.452c-2.491-3.28-7.172-3.918-10.452-1.423
	c-17.225,13.096-37.797,20.018-59.496,20.018h-81.568c-54.255,0-98.394-44.14-98.394-98.395v-86.443
	c6.253-4.145,18.96-13.676,29.405-28.585c10.516,13.777,26.806,21.899,44.259,21.899c17.859,0,34.481-8.495,44.967-22.848
	c6.089,4.077,13.138,6.219,20.548,6.219c7.41,0,14.459-2.142,20.548-6.219c10.484,14.354,27.107,22.848,44.967,22.848
	c17.453,0,33.741-8.123,44.258-21.899c10.445,14.911,23.152,24.441,29.405,28.585v86.442c0,14.428-3.05,28.329-9.065,41.313
	c-1.731,3.739-0.105,8.172,3.634,9.904c1.015,0.47,2.081,0.693,3.131,0.693c2.816,0,5.512-1.603,6.774-4.326
	c5.141-11.099,8.398-22.774,9.74-34.843c8.72-0.927,16.914-4.998,22.918-11.488c6.242-6.748,9.681-15.529,9.681-24.726
	C441.989,249.611,428.048,234.27,410.097,232.033z M101.181,288.878c-9.075-2.519-15.754-10.853-15.754-20.719
	c0-9.865,6.679-18.2,15.754-20.719V288.878z M268.653,412.811c-11.026,4.229-20.417,1.728-25.286-0.302
	c0.076-1.205,0.094-2.49,0.097-3.877h25.073C268.54,410.134,268.56,411.52,268.653,412.811z M300.642,432.145
	c9.609,6.93,15.345,18.132,15.346,29.963v34.973H196.012v-34.972c0.001-11.832,5.737-23.034,15.346-29.964
	c4.831-3.485,10.493-5.766,16.371-6.593l0.792-0.111c1.953-0.273,3.749-0.525,5.388-0.926c3.806,2.006,12.028,5.55,22.64,5.55
	c6.63,0,14.191-1.393,22.179-5.405c1.465,0.32,3.048,0.543,4.753,0.781l0.791,0.111C290.149,426.379,295.811,428.66,300.642,432.145
	z M421.356,282.754c-2.776,3.001-6.229,5.094-10.041,6.138V247.44c9.075,2.519,15.755,10.853,15.755,20.719
	C427.07,273.588,425.041,278.771,421.356,282.754z"/>
<g>
</g>
<g>
</g>
<g>
</g>
<g>
</g>
<g>
</g>
<g>
</g>
<g>
</g>
<g>
</g>
<g>
</g>
<g>
</g>
<g>
</g>
<g>
</g>
<g>
</g>
<g>
</g>
<g>
</g>
</svg>
