<?xml version="1.0" encoding="iso-8859-1"?>
<!-- Generator: Adobe Illustrator 19.0.0, SVG Export Plug-In . SVG Version: 6.00 Build 0)  -->
<svg version="1.1" id="Capa_1" xmlns="http://www.w3.org/2000/svg" xmlns:xlink="http://www.w3.org/1999/xlink" x="0px" y="0px"
	 viewBox="0 0 512.001 512.001" style="enable-background:new 0 0 512.001 512.001;" xml:space="preserve">
<path style="fill:#8B6859;" d="M108.075,131.071v106.873h-2.836c-16.066,0-29.091,13.024-29.091,29.091s13.024,29.091,29.091,29.091
	h2.93c2.257,57.03,49.195,102.573,106.778,102.573h20.967c0,4.719,0,8.335,0,8.344c0,9.671-0.123,9.391-9.358,10.691
	c-7.122,1.003-13.954,3.758-19.786,7.965c-11.543,8.325-18.526,21.947-18.526,36.18v42.628h135.517v-42.628
	c0-14.233-6.984-27.854-18.526-36.18c-5.833-4.207-12.664-6.963-19.786-7.965c-9.235-1.3-9.358-1.02-9.358-10.691
	c0-0.009,0-3.625,0-8.344h20.967c59.023,0,106.871-47.848,106.871-106.871V131.071H108.075z"/>
<path style="fill:#875B4C;" d="M406.262,237.944h-2.333V131.071h-42.216v160.841c0,58.982-47.8,106.782-106.782,106.782h42.216
	c57.557,0,104.478-45.541,106.691-102.568h2.423c8.442,0,16.044-3.596,21.358-9.339c4.8-5.188,7.733-12.127,7.733-19.751l0,0
	C435.352,250.968,422.328,237.944,406.262,237.944z"/>
<g>
	<circle style="fill:#EA7F7F;" cx="169.62" cy="320.84" r="15.91"/>
	<circle style="fill:#EA7F7F;" cx="342.38" cy="320.84" r="15.91"/>
</g>
<path style="fill:#423E3C;" d="M449.302,96.335c-2.386-49.79-43.64-88.842-93.487-88.842h-91.882h-15.864h-91.882
	c-49.847,0-91.101,39.052-93.487,88.842c-2.276,47.499,7.183,107.368,51.832,162.321c0,0,1.892-1.442,4.924-4.267
	c29.844-27.807,41.585-70.007,30.928-109.38l0,0c-1.901-7.025,3.389-13.938,10.667-13.938h87.017h15.864h87.017
	c7.278,0,12.569,6.913,10.667,13.938l0,0c-10.657,39.374,1.085,81.574,30.928,109.38c3.032,2.825,4.924,4.267,4.924,4.267
	C442.118,203.703,451.578,143.834,449.302,96.335z"/>
<path style="fill:#302D2C;" d="M397.463,258.652c0,0-1.884-1.443-4.916-4.262c-10.14-9.445-18.195-20.56-23.98-32.664
	c23.579-43.859,28.923-88.386,27.16-125.391c-2.391-49.791-43.645-88.84-93.489-88.84h53.571c49.857,0,91.111,39.05,93.489,88.84
	C451.582,143.828,442.123,203.705,397.463,258.652z"/>
<g>
	<circle style="fill:#444884;" cx="197.99" cy="280.02" r="40.454"/>
	<circle style="fill:#444884;" cx="314.01" cy="280.02" r="40.454"/>
</g>
<path style="fill:#F5A5C7;" d="M323.755,461.88v42.626h-135.51V461.88c0-14.237,6.978-27.857,18.519-36.179
	c3.727-2.688,7.861-4.782,12.221-6.204c2.461-0.805,5.001-1.399,7.572-1.766c3.766-0.531,6.017-0.789,7.361-1.578l1.727,0.383
	l4.352,2.461c9.838,5.579,21.863,5.618,31.74,0.109l4.618-2.571l1.727-0.383c1.344,0.789,3.594,1.047,7.361,1.578
	c2.571,0.367,5.11,0.961,7.572,1.766c4.36,1.422,8.494,3.516,12.221,6.204C316.777,434.023,323.755,447.643,323.755,461.88z"/>
<path d="M456.786,95.977C454.207,42.158,409.855,0,355.815,0H241.678c-4.139,0-7.494,3.355-7.494,7.494s3.355,7.494,7.494,7.494
	h114.136c46.03,0,83.806,35.889,86.001,81.707c2.737,57.108-12.512,107.902-45.339,151.099
	c-13.209-12.708-22.734-28.78-27.593-46.586c-1.09-3.995-5.219-6.347-9.201-5.257c-3.993,1.089-6.347,5.208-5.257,9.201
	c2.517,9.226,6.129,18.047,10.73,26.291h-53.582c-0.57,0-1.123,0.069-1.657,0.19c-22.924,1.923-41.362,19.827-44.115,42.508h-19.605
	c-2.753-22.681-21.191-40.585-44.115-42.508c-0.534-0.121-1.087-0.19-1.657-0.19h-53.542c14.769-26.4,18.956-58.009,10.733-88.392
	c-0.399-1.474,0.21-2.569,0.609-3.09c0.399-0.521,1.296-1.396,2.825-1.396h189.898c1.529,0,2.427,0.874,2.825,1.396
	c0.399,0.521,1.009,1.616,0.61,3.09c-0.462,1.703-0.889,3.436-1.272,5.152c-0.902,4.039,1.642,8.044,5.682,8.947
	c4.039,0.893,8.044-1.643,8.947-5.682c0.334-1.499,0.707-3.013,1.11-4.501c1.521-5.618,0.364-11.492-3.174-16.115
	c-3.538-4.623-8.906-7.274-14.727-7.274H161.051c-5.822,0-11.19,2.651-14.728,7.275c-3.538,4.622-4.694,10.496-3.174,16.114
	c9.871,36.469-0.712,74.945-27.627,100.827c-32.826-43.197-48.076-93.99-45.339-151.099c2.196-45.817,39.972-81.707,86.002-81.707
	h34.571c4.139,0,7.494-3.355,7.494-7.494S194.896,0,190.757,0h-34.571C102.145,0,57.793,42.158,55.214,95.977
	c-1.344,28.047,1.543,55.205,8.58,80.716c5.61,20.337,13.9,39.677,24.727,57.82c-11.785,6.082-19.867,18.371-19.867,32.522
	c0,18.792,14.244,34.313,32.5,36.351c5.772,57.647,54.562,102.807,113.704,102.807h13.561v0.85c0,0.888,0,1.938-0.018,2.858
	c-0.66,0.1-1.39,0.202-2.082,0.299l-0.81,0.113c-8.309,1.17-16.305,4.389-23.125,9.309c-13.548,9.771-21.636,25.569-21.636,42.257
	v42.628c0,4.139,3.355,7.494,7.494,7.494h135.517c4.139,0,7.494-3.355,7.494-7.494v-42.629c-0.001-16.688-8.09-32.485-21.636-42.256
	c-6.821-4.92-14.818-8.139-23.127-9.309l-0.809-0.113c-0.692-0.097-1.422-0.199-2.081-0.299c-0.018-0.92-0.018-1.97-0.018-2.858
	v-0.85h13.561c59.165,0,107.97-45.196,113.71-102.876c8.477-1.081,16.412-5.11,22.269-11.442c6.271-6.779,9.725-15.6,9.725-24.84
	c0-13.998-7.908-26.175-19.487-32.323c10.885-18.2,19.216-37.607,24.847-58.019C455.244,151.18,458.131,124.024,456.786,95.977z
	 M99.469,287.849c-9.117-2.53-15.827-10.903-15.827-20.815c0-8.86,5.37-16.478,13.02-19.804c0.919,1.341,1.858,2.673,2.807,4
	V287.849z M213.665,497.012h-17.929v-35.134c0-11.887,5.763-23.139,15.417-30.101c0.813-0.586,1.656-1.125,2.513-1.642
	L213.665,497.012L213.665,497.012z M298.335,430.135c0.856,0.517,1.7,1.056,2.513,1.642c9.653,6.962,15.416,18.216,15.417,30.101
	v35.134h-17.93V430.135z M268.711,412.354c-11.077,4.247-20.511,1.736-25.403-0.303c0.076-1.211,0.094-2.502,0.097-3.896h25.188
	C268.598,409.665,268.618,411.056,268.711,412.354z M283.348,497.012h-54.695v-72.006c1.861-0.26,3.581-0.509,5.154-0.894
	c3.824,2.015,12.084,5.575,22.744,5.575c6.66,0,14.256-1.399,22.28-5.43c1.397,0.305,2.903,0.523,4.517,0.749V497.012z
	 M314.009,246.435c18.52,0,33.588,15.068,33.588,33.588c0,18.52-15.068,33.587-33.588,33.587c-18.52,0-33.587-15.067-33.587-33.587
	S295.489,246.435,314.009,246.435z M197.991,246.435c18.52,0,33.587,15.068,33.587,33.588c0,18.52-15.067,33.587-33.587,33.587
	s-33.588-15.067-33.588-33.587C164.404,261.503,179.471,246.435,197.991,246.435z M396.432,291.915
	c0,54.748-44.542,99.29-99.289,99.29h-82.284c-54.748,0-99.289-44.542-99.289-99.29c0,0,0-25.58,0-25.845
	c0.003,0.483,8.404-5.647,8.995-6.198c4.5-4.193,8.603-8.696,12.323-13.442h26.067c-8.375,8.732-13.538,20.567-13.538,33.593
	c0,26.784,21.791,48.574,48.575,48.574c23.672,0,43.431-17.024,47.707-39.47h20.605c4.276,22.445,24.035,39.47,47.706,39.47
	c26.785,0,48.575-21.791,48.575-48.574c0-13.026-5.163-24.861-13.538-33.593h26.085c3.735,4.776,7.837,9.279,12.313,13.449
	c0.447,0.417,8.988,7.333,8.988,6.189v25.847H396.432z M427.859,267.034c0,5.454-2.038,10.661-5.74,14.663
	c-2.789,3.015-6.258,5.117-10.088,6.166v-35.93c1.084-1.504,2.152-3.016,3.198-4.54
	C422.673,250.806,427.859,258.324,427.859,267.034z"/>
<g>
</g>
<g>
</g>
<g>
</g>
<g>
</g>
<g>
</g>
<g>
</g>
<g>
</g>
<g>
</g>
<g>
</g>
<g>
</g>
<g>
</g>
<g>
</g>
<g>
</g>
<g>
</g>
<g>
</g>
</svg>
