<?xml version="1.0" encoding="iso-8859-1"?>
<!-- Generator: Adobe Illustrator 19.0.0, SVG Export Plug-In . SVG Version: 6.00 Build 0)  -->
<svg version="1.1" id="Capa_1" xmlns="http://www.w3.org/2000/svg" xmlns:xlink="http://www.w3.org/1999/xlink" x="0px" y="0px"
	 viewBox="0 0 512.001 512.001" style="enable-background:new 0 0 512.001 512.001;" xml:space="preserve">
<path style="fill:#ED7149;" d="M442.415,354.096c-16.619-16.776-19.96-52.074-19.96-52.074V113.242H310.92h-20.05h-69.74h-20.042
	H89.544v188.78c0,0-3.341,35.297-19.96,52.074c-1.642,1.657-0.78,4.481,1.493,5.004c12.238,2.812,41.221,7.311,53.201-9.463
	c0,0,0.091,35.08-22.15,47.577c-2.327,1.307-1.979,4.747,0.58,5.507c19.685,5.848,71.832,18.177,102.228-4.358h102.132
	c30.395,22.534,82.542,10.207,102.228,4.358c2.558-0.76,2.906-4.2,0.58-5.507c-22.241-12.496-22.15-47.577-22.15-47.577
	c11.981,16.775,40.963,12.275,53.201,9.463C443.196,358.577,444.057,355.753,442.415,354.096z"/>
<path style="fill:#F3D1BB;" d="M107.771,131.344v106.065h-1.821c-16.098,0-29.148,13.05-29.148,29.148l0,0
	c0,16.098,13.05,29.148,29.148,29.148h1.872c1.683,57.626,48.921,103.826,106.955,103.826h21.102c0,3.848,0,7.296,0,7.308
	c0,9.69-0.123,9.409-9.377,10.712c-7.136,1.004-13.981,3.765-19.825,7.981c-11.565,8.342-18.563,21.99-18.563,36.251v42.711h135.782
	v-42.711c0-14.261-6.997-27.909-18.563-36.251c-5.844-4.215-12.689-6.976-19.825-7.981c-9.253-1.302-9.377-1.022-9.377-10.712
	c0-0.011,0-3.46,0-7.308h21.102c59.098,0,107.006-47.908,107.006-107.006V131.344H107.771z"/>
<path style="fill:#ECC19C;" d="M406.56,237.408h-2.318V131.344h-42.304V292.52c0,59.105-47.899,107.005-107.004,107.005h42.304
	c58.027,0,105.269-46.189,106.953-103.82h2.369c8.459,0,16.075-3.603,21.399-9.358c4.809-5.198,7.748-12.151,7.748-19.79l0,0
	C435.707,250.458,422.657,237.408,406.56,237.408z"/>
<g>
	<circle style="fill:#E8979F;" cx="169.442" cy="321.504" r="15.943"/>
	<circle style="fill:#E8979F;" cx="342.568" cy="321.504" r="15.943"/>
</g>
<path style="fill:#ABC129;" d="M323.891,461.782v42.709H188.117v-42.709c0-14.265,6.992-27.912,18.555-36.249
	c3.734-2.693,7.876-4.791,12.245-6.216c2.466-0.806,5.011-1.402,7.587-1.769c3.773-0.533,6.029-0.791,7.375-1.582l1.73,0.383
	l4.361,2.466c9.857,5.59,21.906,5.629,31.802,0.109l4.627-2.576l1.73-0.383c1.347,0.791,3.601,1.049,7.375,1.582
	c2.576,0.368,5.121,0.963,7.587,1.769c4.369,1.425,8.511,3.523,12.245,6.216C316.901,433.871,323.891,447.517,323.891,461.782z"/>
<g>
	<path style="fill:#CC2F42;" d="M233.429,416.192v88.3h-20.884v-82.533c2.052-1.051,4.185-1.932,6.367-2.643
		c2.473-0.801,5.016-1.402,7.589-1.772C229.885,417.063,232.048,416.812,233.429,416.192z"/>
	<path style="fill:#CC2F42;" d="M299.464,421.958v82.533H278.58v-88.3c1.382,0.621,3.544,0.871,6.928,1.352
		c2.573,0.37,5.116,0.971,7.589,1.772C295.279,420.026,297.411,420.907,299.464,421.958z"/>
</g>
<path style="fill:#ED7149;" d="M258.172,7.508h-4.334h-56.694c-59.425,0-107.599,48.173-107.599,107.599v132.482
	c0,1.902,1.748,3.319,3.614,2.947c23.03-4.595,33.222-26.585,33.222-26.585v15.837c0,1.879,1.713,3.331,3.554,2.952
	c45.228-9.283,48.542-76.936,48.542-76.936v35.466c0,1.966,1.865,3.428,3.761,2.908c40.084-10.986,66.333-58.149,73.767-73.098
	c7.434,14.949,33.683,62.111,73.767,73.098c1.896,0.52,3.761-0.942,3.761-2.908v-35.466c0,0,3.314,67.652,48.542,76.936
	c1.841,0.377,3.554-1.073,3.554-2.952v-15.837c0,0,10.193,21.99,33.222,26.585c1.866,0.372,3.614-1.044,3.614-2.947V115.107
	c-0.001-59.425-48.174-107.599-107.6-107.599H258.172z"/>
<path style="fill:#D86344;" d="M422.462,115.103v135.988c-25.583-2.851-36.829-27.136-36.829-27.136v19.385
	c-9.116-1.191-16.654-4.672-22.866-9.532V115.103c0-59.426-48.167-107.594-107.594-107.594h59.694
	C374.294,7.509,422.462,55.677,422.462,115.103z"/>
<path d="M281.174,381.279c-2.808,0-5.501-1.582-6.787-4.287c-1.78-3.745-0.187-8.225,3.558-10.004l18.095-8.601
	c3.746-1.781,8.224-0.188,10.005,3.558c1.78,3.745,0.187,8.225-3.558,10.004l-18.095,8.601
	C283.352,381.044,282.254,381.279,281.174,381.279z"/>
<path style="fill:#ED7149;" d="M317.077,240.998h-32.181c-4.147,0-7.508-3.361-7.508-7.508c0-4.148,3.362-7.508,7.508-7.508h32.181
	c4.147,0,7.508,3.361,7.508,7.508C324.585,237.637,321.223,240.998,317.077,240.998z"/>
<path d="M300.987,297.551c-4.147,0-7.508-3.361-7.508-7.508v-24.181c0-4.148,3.362-7.509,7.508-7.509
	c4.147,0,7.509,3.361,7.509,7.509v24.181C308.495,294.19,305.133,297.551,300.987,297.551z"/>
<path d="M208.155,297.551c-4.147,0-7.508-3.361-7.508-7.508v-24.181c0-4.148,3.362-7.509,7.508-7.509
	c4.147,0,7.508,3.361,7.508,7.509v24.181C215.663,294.19,212.301,297.551,208.155,297.551z"/>
<path style="fill:#ED7149;" d="M225.677,266.964h-32.181c-4.147,0-7.508-3.361-7.508-7.509c0-4.148,3.362-7.508,7.508-7.508h32.181
	c4.147,0,7.508,3.361,7.508,7.508C233.186,263.603,229.824,266.964,225.677,266.964z"/>
<path d="M264.761,336.666h-17.512c-4.147,0-7.508-3.361-7.508-7.508v-47.182c0-4.148,3.362-7.508,7.508-7.508
	s7.508,3.361,7.508,7.508v39.674h10.003c4.147,0,7.508,3.361,7.508,7.508S268.907,336.666,264.761,336.666z"/>
<path d="M450.931,351.56c-16.495-11.955-20.112-36.701-20.812-56.932c1.177-0.985,2.299-2.045,3.351-3.183
	c6.284-6.792,9.745-15.631,9.745-24.889c0-11.312-5.164-21.425-13.243-28.155V115.108C429.973,51.637,378.336,0,314.866,0H197.143
	C133.672,0,82.036,51.637,82.036,115.108V238.81c-7.795,6.727-12.742,16.666-12.742,27.745c0,11.025,4.897,20.924,12.625,27.647
	c-0.617,20.059-4.17,45.268-20.85,57.357c-2.3,1.667-3.462,4.49-3.002,7.293c0.46,2.804,2.462,5.109,5.175,5.954
	c1.538,0.48,30.012,9.142,51.281,1.067c-2.696,10.729-8.625,23.458-21.659,27.089c-3.142,0.875-5.359,3.678-5.487,6.937
	c-0.128,3.259,1.86,6.228,4.923,7.348c1.974,0.722,32.434,11.653,64.829,11.653c17.059,0,34.643-3.049,48.897-12.199
	c2.889,0.219,5.808,0.335,8.752,0.335h13.593c0,0.844-0.001,1.804-0.018,2.658c-0.001,0.048-7.842,1.413-8.457,1.544
	c-3.923,0.84-7.191,2.2-10.775,4.039c-0.08,0.041-0.151,0.095-0.23,0.139c-2.293,1.181-4.51,2.512-6.606,4.025
	c-13.574,9.79-21.679,25.619-21.679,42.34v42.711c0,4.148,3.362,7.509,7.508,7.509h135.782c4.147,0,7.508-3.361,7.508-7.509v-42.711
	c0-16.721-8.104-32.55-21.678-42.34c-4.884-3.522-9.503-5.325-15.155-6.982c-0.76-0.222-10.913-2.917-10.912-2.763
	c-0.017-0.854-0.018-1.814-0.018-2.658h13.593c2.947,0,5.869-0.116,8.761-0.336c8.546,5.481,18.87,9.17,30.798,10.939
	c4.103,0.614,7.921-2.224,8.529-6.326c0.608-4.102-2.224-7.92-6.326-8.529c-2.29-0.339-4.493-0.767-6.624-1.266
	c19.605-6.336,36.912-17.828,50.321-32.868c0.424,1.768,0.921,3.591,1.504,5.44c3.153,9.997,7.925,18.022,14.111,23.852
	c-2.842,0.716-5.973,1.444-9.318,2.132c-4.062,0.836-6.677,4.805-5.841,8.867c0.836,4.063,4.806,6.68,8.868,5.841
	c16.005-3.293,27.218-7.365,27.687-7.536c3.062-1.12,5.052-4.09,4.923-7.348c-0.128-3.259-2.347-6.062-5.487-6.937
	c-13.035-3.631-18.963-16.361-21.66-27.088c21.269,8.072,49.744-0.588,51.282-1.068c2.712-0.846,4.714-3.15,5.174-5.954
	C454.393,356.05,453.231,353.226,450.931,351.56z M225.921,496.983h-5.867v-4.175c0-4.148-3.362-7.508-7.508-7.508
	s-7.508,3.361-7.508,7.508v4.175h-9.415V461.78c0-9.165,3.431-17.946,9.415-24.689v1.155c0,4.148,3.362,7.508,7.508,7.508
	s7.508-3.361,7.508-7.508v-11.368c0.238-0.087,0.474-0.18,0.713-0.262c0.125-0.043,0.249-0.088,0.375-0.129
	c0.138-0.046,0.278-0.082,0.416-0.125c0.642-0.201,1.284-0.392,1.928-0.56c0.151-0.039,0.304-0.071,0.456-0.108
	c0.577-0.142,1.153-0.273,1.729-0.386c0.082-0.016,0.166-0.027,0.248-0.043L225.921,496.983L225.921,496.983z M306.972,437.091
	c5.984,6.744,9.415,15.524,9.415,24.689v35.203h-9.415V437.091z M286.089,425.264c0.083,0.016,0.168,0.027,0.251,0.043
	c0.566,0.112,1.131,0.24,1.696,0.379c0.163,0.04,0.328,0.074,0.492,0.116c0.628,0.163,1.253,0.349,1.876,0.544
	c0.153,0.048,0.308,0.088,0.461,0.138c0.126,0.042,0.251,0.087,0.377,0.13c0.24,0.082,0.476,0.176,0.714,0.262v70.104h-5.867
	L286.089,425.264L286.089,425.264z M268.741,412.159c-11.1,4.256-20.551,1.74-25.453-0.304c0.076-1.213,0.094-2.507,0.097-3.903
	h25.238C268.627,409.465,268.647,410.859,268.741,412.159z M271.072,496.983h-30.134v-70.018c4.163,1.384,9.491,2.561,15.619,2.561
	c4.469,0,9.36-0.634,14.516-2.26v69.717H271.072z M422.465,258.605c1.327,0,2.625-0.357,3.766-1.019
	c1.254,2.735,1.967,5.768,1.967,8.97c0,5.465-2.042,10.683-5.75,14.691v0.001c-2.795,3.02-6.27,5.126-10.106,6.178v-30.81
	c2.893,0.897,5.984,1.574,9.289,1.943C421.909,258.589,422.188,258.605,422.465,258.605z M97.053,115.108
	c0-55.19,44.9-100.091,100.09-100.091h117.723c55.189,0,100.09,44.901,100.09,100.091V241.65
	c-15.14-5.639-22.187-20.164-22.514-20.857c-1.249-2.694-3.935-4.352-6.81-4.352c-0.536,0-1.078,0.058-1.619,0.177
	c-3.442,0.759-5.892,3.809-5.892,7.332v9.872c-33.813-12.39-37.058-67.792-37.088-68.387c-0.2-4.07-3.606-7.193-7.684-7.139
	c-4.074,0.1-7.324,3.432-7.324,7.506v29.26c-13.225-5.035-26.135-14.896-38.489-29.419c-12.48-14.671-20.9-30.047-24.809-37.907
	c-1.268-2.552-3.873-4.165-6.723-4.165c-2.849,0-5.454,1.613-6.723,4.165c-3.908,7.861-12.329,23.236-24.809,37.907
	c-12.354,14.523-25.264,24.384-38.489,29.419v-29.26c0-4.075-3.251-7.406-7.324-7.506c-4.048-0.077-7.483,3.068-7.684,7.139
	c-0.029,0.603-3.16,56.011-37.088,68.392v-9.878c0-3.524-2.451-6.573-5.892-7.332c-3.441-0.761-6.947,0.979-8.429,4.175
	c-0.081,0.176-7.172,15.104-22.514,20.848V115.108H97.053z M86.172,257.794c1.289,0.65,2.748,0.929,4.208,0.765
	c3.498-0.391,6.753-1.126,9.789-2.104v30.957c-9.134-2.535-15.858-10.924-15.858-20.856
	C84.31,263.436,84.976,260.472,86.172,257.794z M80.079,353.243c4.967-6.925,9.055-15.89,12.216-26.813
	c3.648-12.607,4.683-23.252,4.725-23.699c0.019-0.208,0.027-0.417,0.029-0.627c1.206,0.302,2.433,0.551,3.683,0.73
	c1.481,16.515,6.484,32.028,14.248,45.787C106.575,355.346,91.639,355.052,80.079,353.243z M113.71,397.929
	c6.178-5.828,10.946-13.849,14.096-23.838c0.584-1.852,1.08-3.677,1.506-5.447c13.422,15.057,30.749,26.558,50.379,32.892
	C157.238,406.827,130.469,402.14,113.71,397.929z M396.73,292.523c0,54.863-44.634,99.498-99.498,99.498h-82.455
	c-54.863,0-99.498-44.634-99.498-99.498v-43.946c1.376-1.032,2.672-2.098,3.88-3.182c0.392,1.374,1.172,2.621,2.268,3.583
	c1.625,1.426,3.783,2.084,5.929,1.801c20.806-2.728,37.116-16.197,47.505-39.107c1.565,0.86,3.401,1.142,5.173,0.765
	c19.714-4.182,38.515-16.651,55.877-37.063c8.476-9.964,15.21-20.204,20.093-28.545c4.883,8.341,11.617,18.581,20.093,28.545
	c17.364,20.412,36.164,32.881,55.877,37.063c1.775,0.375,3.608,0.095,5.173-0.765c10.388,22.91,26.699,36.379,47.505,39.107
	c2.144,0.286,4.304-0.375,5.929-1.801c1.095-0.962,1.876-2.21,2.268-3.583c1.208,1.083,2.505,2.149,3.88,3.182v43.946H396.73z
	 M397.027,348.626c7.756-13.744,12.757-29.239,14.245-45.733c1.242-0.162,2.471-0.395,3.685-0.682
	c0.004,0.174,0.008,0.347,0.024,0.521c0.042,0.447,1.078,11.092,4.725,23.699c3.16,10.923,7.248,19.887,12.215,26.812
	C420.363,355.055,405.433,355.345,397.027,348.626z"/>
<g>
</g>
<g>
</g>
<g>
</g>
<g>
</g>
<g>
</g>
<g>
</g>
<g>
</g>
<g>
</g>
<g>
</g>
<g>
</g>
<g>
</g>
<g>
</g>
<g>
</g>
<g>
</g>
<g>
</g>
</svg>
