<?xml version="1.0" encoding="iso-8859-1"?>
<!-- Generator: Adobe Illustrator 19.0.0, SVG Export Plug-In . SVG Version: 6.00 Build 0)  -->
<svg version="1.1" id="Capa_1" xmlns="http://www.w3.org/2000/svg" xmlns:xlink="http://www.w3.org/1999/xlink" x="0px" y="0px"
	 viewBox="0 0 512.001 512.001" style="enable-background:new 0 0 512.001 512.001;" xml:space="preserve">
<g>
	<path style="fill:#603813;" d="M124.706,297.439c6.759-8.827,10.783-19.858,10.783-31.834c0-19.753-10.93-36.948-27.067-45.884
		c13.942-9.421,23.108-25.374,23.108-43.467c0-28.952-23.471-52.423-52.423-52.423c-28.953,0-52.423,23.471-52.423,52.423
		c0,19.753,10.93,36.948,27.068,45.885c-13.942,9.421-23.108,25.373-23.108,43.466c0,24.346,16.598,44.811,39.094,50.708
		c-6.759,8.827-10.783,19.858-10.783,31.834c0,28.952,23.471,52.423,52.423,52.423s52.423-23.471,52.423-52.423
		C163.8,323.801,147.202,303.337,124.706,297.439z"/>
	<path style="fill:#603813;" d="M387.295,297.439c-6.759-8.827-10.783-19.858-10.783-31.834c0-19.753,10.93-36.948,27.067-45.884
		c-13.942-9.421-23.108-25.374-23.108-43.467c0-28.952,23.471-52.423,52.423-52.423c28.953,0,52.423,23.471,52.423,52.423
		c0,19.753-10.93,36.948-27.068,45.885c13.942,9.421,23.108,25.373,23.108,43.466c0,24.346-16.598,44.811-39.094,50.708
		c6.759,8.827,10.783,19.858,10.783,31.834c0,28.952-23.471,52.423-52.423,52.423c-28.952,0-52.423-23.471-52.423-52.423
		C348.2,323.801,364.799,303.337,387.295,297.439z"/>
</g>
<path style="fill:#4F2B0E;" d="M481.358,265.608c0,24.346-16.592,44.802-39.099,50.703c7.248,9.461,11.349,21.462,10.72,34.437
	c-1.274,26.294-22.345,47.866-48.607,49.69c-9.643,0.67-18.772-1.263-26.763-5.175c17.413-8.521,29.414-26.423,29.414-47.117
	c0-9.1-2.323-17.658-6.406-25.116c-1.896-3.463-0.45-7.759,3.171-9.333c18.562-8.069,31.55-26.558,31.55-48.089
	c0-15.084-6.368-28.67-16.561-38.231c-2.907-2.727-2.635-7.454,0.496-9.92c12.192-9.601,20.021-24.481,20.021-41.201
	c0-20.694-12.001-38.596-29.414-47.117c8.012-3.922,17.167-5.855,26.838-5.17c26.128,1.851,47.113,23.241,48.517,49.397
	c1.125,20.96-10.07,39.399-26.981,48.778C472.189,231.565,481.358,247.509,481.358,265.608z"/>
<path style="fill:#E3BB94;" d="M109.493,129.669v108.051h-2.377c-16.079,0-29.115,13.035-29.115,29.115l0,0
	c0,16.08,13.035,29.115,29.115,29.115h2.612c3.593,55.157,49.46,98.783,105.525,98.783h81.496c58.41,0,105.76-47.351,105.76-105.76
	V129.669H109.493z"/>
<path style="fill:#D6AA85;" d="M405.384,237.721h-2.873V129.669h-41.812v159.3c0,58.417-47.342,105.758-105.758,105.758h41.812
	c56.058,0,101.928-43.618,105.523-98.778h3.108c8.449,0,16.057-3.599,21.375-9.347c4.803-5.192,7.739-12.137,7.739-19.768l0,0
	C434.499,250.756,421.464,237.721,405.384,237.721z"/>
<g>
	<circle style="fill:#E8979F;" cx="170.44" cy="317.618" r="15.757"/>
	<circle style="fill:#E8979F;" cx="341.559" cy="317.618" r="15.757"/>
</g>
<path style="fill:#603813;" d="M372.678,54.285c-12.404,0-24.035,3.284-34.099,9.005C325.412,30.591,293.413,7.5,256,7.5
	c-37.412,0-69.412,23.092-82.58,55.791c-10.064-5.721-21.694-9.005-34.098-9.005c-38.172,0-69.115,30.944-69.115,69.116
	s30.944,69.116,69.115,69.116c23.646,0,44.509-11.882,56.97-29.993c15.792,14.292,36.732,23.001,59.708,23.001
	c22.976,0,43.916-8.708,59.708-23.001c12.461,18.111,33.324,29.993,56.97,29.993c38.171,0,69.115-30.944,69.115-69.116
	S410.849,54.285,372.678,54.285z"/>
<path style="fill:#4F2B0E;" d="M441.629,118.536c2.786,40.719-29.726,74.561-69.984,73.976c-0.002-0.004-0.001-0.002-0.003-0.006
	c11.186-12.888,17.689-29.966,16.819-48.593c-1.651-35.375-30.391-64.099-65.767-65.731c-11.239-0.518-21.906,1.657-31.431,5.926
	c-3.243,1.454-7.067,0.141-8.638-3.047c-14.519-29.455-44.819-49.741-79.882-49.741c-2.593,0-5.16,0.106-7.688,0.331
	C210.973,16.687,232.408,7.505,256,7.505c37.419,0,69.412,23.089,82.577,55.784c11.626-6.6,25.333-9.954,39.899-8.759
	C412.246,57.298,439.316,84.732,441.629,118.536z"/>
<path style="fill:#FFFFFF;" d="M227.985,324.697v1.284c0,15.472,12.543,28.015,28.015,28.015l0,0
	c15.472,0,28.015-12.543,28.015-28.015v-1.284L227.985,324.697L227.985,324.697z"/>
<path style="fill:#B5477C;" d="M305.277,425.632c-3.73-2.69-7.867-4.786-12.231-6.209c-1.159-0.379-2.336-0.707-3.524-0.99v-23.699
	h-67.043v23.699c-1.188,0.284-2.365,0.612-3.524,0.99c-4.364,1.423-8.501,3.519-12.231,6.209
	c-11.551,8.329-18.534,21.96-18.534,36.208V504.5h135.62v-42.661C323.811,447.59,316.827,433.959,305.277,425.632z"/>
<path d="M256.144,298.023c8.761,0,16.864-5.109,20.644-13.018c1.786-3.737,0.205-8.215-3.532-10.001
	c-3.737-1.787-8.215-0.205-10.001,3.532c-1.303,2.726-4.094,4.486-7.11,4.486c-3.173,0-6.021-1.888-7.256-4.81
	c-1.613-3.815-6.018-5.596-9.829-3.987c-3.815,1.613-5.601,6.014-3.987,9.829C238.66,292.541,246.931,298.023,256.144,298.023z"/>
<path d="M225.919,234.908c0-4.143-3.357-7.5-7.5-7.5H189.78c-4.143,0-7.5,3.357-7.5,7.5s3.357,7.5,7.5,7.5h6.819v25.469
	c0,4.143,3.357,7.5,7.5,7.5c4.143,0,7.5-3.357,7.5-7.5v-25.469h6.819C222.562,242.408,225.919,239.051,225.919,234.908z"/>
<path d="M322.22,227.408h-28.639c-4.143,0-7.5,3.357-7.5,7.5s3.357,7.5,7.5,7.5h6.819v25.469c0,4.143,3.357,7.5,7.5,7.5
	s7.5-3.357,7.5-7.5v-25.469h6.819c4.143,0,7.5-3.357,7.5-7.5S326.363,227.408,322.22,227.408z"/>
<path d="M492.818,176.255c0-27.416-18.516-50.566-43.694-57.661c-1.04-16.532-7.403-32.352-18.214-44.985
	c-2.692-3.146-7.428-3.517-10.574-0.821c-3.147,2.693-3.516,7.428-0.822,10.574c9.53,11.138,14.779,25.355,14.779,40.037
	c0,33.976-27.641,61.616-61.615,61.616c-20.282,0-39.27-9.998-50.792-26.744c-1.226-1.781-3.161-2.947-5.309-3.198
	c-2.15-0.25-4.3,0.438-5.902,1.889c-15.008,13.582-34.425,21.062-54.676,21.062s-39.668-7.479-54.676-21.062
	c-1.603-1.451-3.757-2.146-5.902-1.889c-2.147,0.251-4.083,1.417-5.309,3.198c-11.521,16.746-30.51,26.744-50.792,26.744
	c-11.61,0-22.917-3.244-32.697-9.381c-3.506-2.201-8.138-1.143-10.339,2.366c-2.202,3.509-1.143,8.138,2.366,10.339
	c1.097,0.688,2.214,1.337,3.341,1.967c0,0.009-0.001,0.017-0.001,0.025v40.255c-17.772,2.5-31.491,17.798-31.491,36.248
	c0,18.76,14.184,34.262,32.39,36.364c3.796,30.148,19.481,56.646,42.205,74.627c-8.48,9.631-20.711,15.245-33.719,15.245
	c-24.771,0-44.923-20.152-44.923-44.923c0-9.95,3.194-19.382,9.237-27.274c1.526-1.993,1.954-4.618,1.139-6.993
	c-0.814-2.375-2.764-4.185-5.191-4.821c-19.723-5.17-33.496-23.039-33.496-43.453c0-14.945,7.404-28.872,19.807-37.253
	c2.162-1.46,3.409-3.939,3.293-6.546c-0.115-2.606-1.576-4.965-3.858-6.229c-14.312-7.925-23.201-22.992-23.201-39.323
	c0-19.271,12.202-35.735,29.282-42.1c0.187,1.329,0.401,2.653,0.656,3.966c0.697,3.582,3.837,6.069,7.354,6.068
	c0.475,0,0.957-0.045,1.44-0.139c4.066-0.792,6.721-4.729,5.93-8.795c-0.756-3.881-1.139-7.869-1.139-11.856
	c0-33.975,27.641-61.615,61.615-61.615c10.647,0,21.157,2.775,30.392,8.025c1.882,1.069,4.135,1.273,6.176,0.563
	c2.044-0.713,3.68-2.273,4.488-4.28C192.876,35.055,222.56,15,256,15s63.124,20.055,75.623,51.093
	c0.809,2.007,2.444,3.567,4.487,4.28c2.042,0.711,4.294,0.508,6.177-0.563c9.234-5.25,19.744-8.025,30.392-8.025
	c1.726,0,3.467,0.072,5.175,0.214c4.102,0.354,7.752-2.724,8.097-6.852c0.344-4.127-2.725-7.752-6.853-8.096
	c-2.119-0.177-4.279-0.267-6.419-0.267c-10.498,0-20.89,2.17-30.471,6.325C325.894,20.598,292.875,0,256,0
	s-69.894,20.598-86.208,53.11c-9.581-4.155-19.973-6.325-30.471-6.325c-40.631,0-73.959,31.796-76.449,71.81
	c-25.176,7.097-43.69,30.246-43.69,57.661c0,18.17,8.247,35.166,22.056,46.437c-11.477,11.183-18.096,26.592-18.096,42.915
	c0,23.822,14.066,45.047,35.208,54.604c-4.534,8.556-6.896,18.055-6.896,27.938c0,33.042,26.881,59.923,59.923,59.923
	c17.958,0,34.808-8.015,46.143-21.694c16.844,10.022,36.49,15.803,57.46,15.854v10.63c-4.509,1.64-8.755,3.885-12.642,6.688
	c-13.555,9.773-21.647,25.584-21.647,42.292v42.661c0,4.143,3.357,7.5,7.5,7.5h135.62c4.143,0,7.5-3.357,7.5-7.5V461.84
	c0-16.708-8.093-32.519-21.647-42.292c-3.889-2.804-8.136-5.05-12.642-6.688v-10.63c20.973-0.05,40.622-5.833,57.467-15.857
	c11.33,13.637,28.343,21.698,46.136,21.698c33.042,0,59.923-26.881,59.923-59.923c0-9.883-2.362-19.382-6.896-27.938
	c21.142-9.558,35.208-30.782,35.208-54.604c0-16.323-6.619-31.732-18.096-42.915C484.571,211.421,492.818,194.425,492.818,176.255z
	 M101.341,287.666c-9.124-2.532-15.84-10.912-15.84-20.832c0-9.919,6.716-18.299,15.84-20.831V287.666z M300.89,431.714
	L300.89,431.714c9.656,6.963,15.421,18.224,15.421,30.125V497h-17.94v-16.74c0-4.143-3.357-7.5-7.5-7.5s-7.5,3.357-7.5,7.5V497
	h-54.74v-16.74c0-4.143-3.357-7.5-7.5-7.5s-7.5,3.357-7.5,7.5V497h-17.94v-35.161c0-11.901,5.765-23.162,15.421-30.125
	c3.1-2.235,6.521-3.973,10.177-5.165c0.921-0.301,1.908-0.578,2.936-0.824c3.375-0.807,5.756-3.823,5.756-7.294v-13.043h52.043
	v13.043c0,3.471,2.381,6.487,5.756,7.294c1.027,0.246,2.015,0.523,2.941,0.826C294.369,427.741,297.791,429.478,300.89,431.714z
	 M296.749,387.233h-81.496c-54.182,0-98.26-44.079-98.26-98.26v-92.281c7.192,2.188,14.708,3.324,22.33,3.324
	c22.479,0,43.677-9.872,58.16-26.757c16.761,12.798,37.251,19.765,58.519,19.765s41.758-6.967,58.519-19.765
	c14.483,16.885,35.681,26.757,58.16,26.757c7.766,0,15.261-1.17,22.33-3.329v92.286
	C395.008,343.154,350.929,387.233,296.749,387.233z M473.858,265.605c0,20.414-13.773,38.283-33.496,43.453
	c-2.428,0.637-4.377,2.446-5.191,4.821c-0.815,2.375-0.388,5,1.139,6.993c6.043,7.893,9.237,17.324,9.237,27.274
	c0,24.771-20.152,44.923-44.923,44.923c-13.094,0-25.178-5.523-33.712-15.251c22.706-17.969,38.381-44.443,42.19-74.563
	c8.813-0.907,17.1-5.007,23.164-11.562c6.276-6.784,9.733-15.613,9.733-24.86c0-18.622-13.978-34.03-31.991-36.312
	c0,0,0.381-39.012,0-39.911c20.748-11.386,35.077-32.101,38.515-56.458c17.086,6.361,29.294,22.826,29.294,42.101
	c0,16.331-8.89,31.398-23.201,39.323c-2.282,1.265-3.743,3.623-3.858,6.229c-0.116,2.606,1.132,5.086,3.293,6.546
	C466.454,236.734,473.858,250.661,473.858,265.605z M411.159,287.68v-41.677c9.124,2.532,15.841,10.912,15.841,20.831
	c0,5.459-2.04,10.67-5.745,14.675C418.463,284.526,414.992,286.63,411.159,287.68z"/>
<path d="M284.016,317.197h-56.031c-4.143,0-7.5,3.357-7.5,7.5v1.284c0,19.583,15.933,35.516,35.516,35.516
	c19.583,0,35.516-15.933,35.516-35.516v-1.284C291.516,320.555,288.159,317.197,284.016,317.197z M256,346.497
	c-9.146,0-16.914-6.017-19.554-14.3h39.107C272.915,340.48,265.147,346.497,256,346.497z"/>
<g>
</g>
<g>
</g>
<g>
</g>
<g>
</g>
<g>
</g>
<g>
</g>
<g>
</g>
<g>
</g>
<g>
</g>
<g>
</g>
<g>
</g>
<g>
</g>
<g>
</g>
<g>
</g>
<g>
</g>
</svg>
