<?xml version="1.0" encoding="iso-8859-1"?>
<!-- Generator: Adobe Illustrator 19.0.0, SVG Export Plug-In . SVG Version: 6.00 Build 0)  -->
<svg version="1.1" id="Capa_1" xmlns="http://www.w3.org/2000/svg" xmlns:xlink="http://www.w3.org/1999/xlink" x="0px" y="0px"
	 viewBox="0 0 511.995 511.995" style="enable-background:new 0 0 511.995 511.995;" xml:space="preserve">
<path style="fill:#F3D1BB;" d="M108.299,132.171v105.906h-3.239c-16.059,0-29.077,13.018-29.077,29.076l0,0
	c0,16.059,13.018,29.077,29.077,29.077h3.275c1.478,57.973,48.936,104.514,107.265,104.514h82.294
	c59.26,0,107.301-48.04,107.301-107.301V132.171H108.299z"/>
<path style="fill:#ECC19C;" d="M406.935,238.076h-1.737V132.171h-42.365v161.408c0,59.19-47.969,107.159-107.159,107.159h42.365
	c58.291,0,105.718-46.544,107.125-104.509h1.771c8.438,0,16.036-3.594,21.348-9.335c4.797-5.185,7.729-12.121,7.729-19.742l0,0
	C436.012,251.094,422.994,238.076,406.935,238.076z"/>
<g>
	<circle style="fill:#E8979F;" cx="170.058" cy="300.539" r="15.966"/>
	<circle style="fill:#E8979F;" cx="343.438" cy="300.539" r="15.966"/>
</g>
<path style="fill:#32B2AC;" d="M383.868,65.164c13.317-12.36,9.232-38.74,6.617-50.321c-0.738-3.268-3.793-5.481-7.129-5.162
	c-66.089,6.313-90.097,31.727-100.084,47.006c-1.976,3.024-6.686,1.376-6.381-2.223l2.505-29.606
	c0.354-4.183-3.219-7.64-7.391-7.171c-76.103,8.562-81.816,50.81-85.407,50.81h-41.185c-30.642,0-54.106,29.064-49.544,61.368
	l12.338,87.361l27.18-54.197c2.925-5.833,8.625-9.475,14.83-9.475h106.359h0.342h106.36c6.204,0,11.904,3.642,14.829,9.475
	l27.18,54.197l12.338-87.361c5.745-36.542-20.83-53.407-32.82-59.065C382.608,69.763,382.087,66.817,383.868,65.164z"/>
<path style="fill:#249B8F;" d="M417.625,129.87l-12.34,87.352l-27.18-54.188c-2.247-4.494-6.143-7.686-10.665-8.909l2.859-20.266
	c5.744-36.542-20.811-53.403-32.806-59.068c-2.207-1.037-2.726-3.989-0.944-5.638c14.029-13.032,8.75-41.608,6.21-52.047
	c11.374-3.308,24.781-5.912,40.602-7.424c3.341-0.319,6.398,1.902,7.136,5.176c2.613,11.587,6.688,37.946-6.622,50.306
	c-1.782,1.649-1.264,4.601,0.944,5.638C396.815,76.466,423.37,93.328,417.625,129.87z"/>
<path style="fill:#32B2AC;" d="M398.986,328.772c-14.46,41.887-54.251,71.971-101.05,71.971h-82.378
	c-46.799,0-86.59-30.084-101.05-71.971l0.074,0.032c13.208,5.654,27.408,9.276,41.587,11.41
	c29.666,4.465,60.762,1.411,87.495-12.884c3.449-1.844,6.35-4.67,9.985-6.184c4.57-1.904,6.726,0.657,10.588,2.998
	c7.161,4.34,14.777,7.917,22.682,10.678c14.326,5.004,29.503,7.281,44.654,7.329c21.075,0.067,42.446-3.872,62.185-11.273
	c1.735-0.651,3.45-1.344,5.153-2.074L398.986,328.772z"/>
<g>
	<circle style="fill:#E4F4F1;" cx="201.348" cy="262.829" r="38.635"/>
	<circle style="fill:#E4F4F1;" cx="312.148" cy="262.829" r="38.635"/>
</g>
<path style="fill:#F3D1BB;" d="M324.472,504.509v-42.607c0-14.226-6.98-27.841-18.517-36.162c-5.83-4.205-12.658-6.959-19.777-7.961
	c-9.231-1.3-9.354-1.019-9.354-10.686c0-0.026,0-6.378,0-6.378H236.67c0,0,0,6.352,0,6.378c0,9.666-0.123,9.386-9.354,10.686
	c-7.119,1.002-13.947,3.756-19.777,7.961c-11.537,8.321-18.517,21.936-18.517,36.162v42.607H324.472z"/>
<path style="fill:#F2B844;" d="M324.469,461.904v42.605H189.025v-42.605c0-14.23,6.974-27.843,18.51-36.161
	c3.725-2.687,7.857-4.78,12.215-6.201c2.46-0.804,4.999-1.398,7.568-1.765c3.764-0.531,6.014-0.789,7.357-1.578l1.726,0.383
	l4.35,2.46c9.833,5.576,21.853,5.615,31.725,0.109l4.616-2.57l1.726-0.383c1.343,0.789,3.593,1.047,7.357,1.578
	c2.57,0.367,5.108,0.961,7.568,1.765c4.358,1.421,8.49,3.515,12.215,6.201C317.494,434.06,324.469,447.674,324.469,461.904z"/>
<path d="M268.326,469.884c0,4.137,3.353,7.49,7.49,7.49h23.928c4.137,0,7.49-3.353,7.49-7.49s-3.353-7.49-7.49-7.49h-23.928
	C271.679,462.394,268.326,465.747,268.326,469.884z"/>
<path d="M412.684,231.042v-9.173c0.81-1.02,11.733-75.589,11.733-75.589c0.579-4.096-2.272-7.885-6.369-8.464
	c-4.084-0.577-7.885,2.272-8.463,6.37l-6.813,48.235l-16.707-33.312c-4.239-8.456-12.546-13.708-21.679-13.708H149.108
	c-9.132,0-17.439,5.252-21.68,13.707l-16.706,33.312l-9.111-64.511c-2-14.162,2.07-28.29,11.166-38.762
	c8.238-9.485,19.417-14.707,31.476-14.707h41.613c5.231,0,7.386-4.184,9.287-7.874c5.17-10.038,18.857-36.613,76.934-43.407
	l-2.452,28.983c-0.425,5.035,2.618,9.703,7.399,11.35c4.843,1.663,9.979-0.09,12.782-4.376
	c16.117-24.659,48.043-39.485,94.898-44.072c1.832,8.39,6.085,33.113-4.622,43.049c-2.653,2.462-3.904,6.075-3.348,9.664
	c0.562,3.627,2.877,6.728,6.196,8.295c5.759,2.717,16.436,8.893,23.234,19.731c2.199,3.504,6.822,4.56,10.325,2.365
	c3.504-2.198,4.563-6.821,2.365-10.325c-7.165-11.421-17.383-18.73-24.848-22.906c11.477-15.332,8.326-39.822,5.165-53.828
	c-1.572-6.965-8.116-11.708-15.221-11.023c-45.061,4.303-78.033,17.733-98.267,39.984l1.401-16.562
	c0.36-4.252-1.19-8.399-4.25-11.378c-3.068-2.984-7.267-4.422-11.519-3.943c-66.319,7.461-83.625,40.159-89.363,51.292h-37.709
	c-16.225,0-31.82,7.24-42.786,19.864c-11.943,13.749-17.298,32.221-14.691,50.681c0,0,13.223,90.847,14.032,91.866v8.972
	c-18.167,2.114-32.316,17.587-32.316,36.311c0,18.875,14.374,34.453,32.75,36.368c2.653,30.666,16.585,58.462,40.531,78.27
	c3.188,2.637,7.907,2.192,10.546-0.996c2.029-2.452,2.226-5.808,0.761-8.429c-0.444-1.007-1.109-1.935-2.005-2.695
	c-9.527-8.07-17.321-17.722-23.142-28.401c8.461,2.493,19.518,5.118,32.212,6.62c36.334,4.298,69.609-2.724,96.601-20.317
	c26.992,17.593,60.268,24.61,96.601,20.317c12.68-1.5,23.727-4.121,32.181-6.61c-1.63,0.48-5.4,8.799-6.608,10.474
	c-2.528,3.505-5.282,6.846-8.24,9.996c-5.918,6.304-12.651,11.839-19.984,16.421c-15.742,9.836-33.903,15.059-52.418,15.059h-21.32
	c-0.046-0.001-0.09-0.007-0.135-0.007h-40.154c-0.046,0-0.09,0.006-0.135,0.007c-9.977,0-20.367,0.487-30.116-0.389
	c-2.808-0.252-5.6-0.616-8.355-1.101c-0.162-0.028-0.322-0.042-0.483-0.06c-0.625-0.111-1.25-0.222-1.872-0.345
	c-4.057-0.798-7.996,1.842-8.796,5.901c-0.8,4.058,1.842,7.996,5.901,8.796c4.036,0.795,8.134,1.366,12.259,1.726
	c0.244,0.022,0.488,0.042,0.733,0.062c1.346,0.113,23.37,0.732,23.371,0.411c-0.002,0.578-0.006,1.168-0.017,1.715
	c-0.659,0.1-1.389,0.202-2.08,0.298l-0.809,0.113c-8.304,1.169-16.297,4.387-23.114,9.304c-13.54,9.767-21.625,25.555-21.626,42.237
	v42.607c0,4.137,3.353,7.49,7.49,7.49h135.452c4.137,0,7.49-3.353,7.49-7.49v-42.608c-0.001-16.68-8.086-32.469-21.626-42.236
	c-6.817-4.917-14.811-8.135-23.115-9.304l-0.809-0.113c-0.691-0.097-1.421-0.199-2.08-0.298c-0.011-0.547-0.015-1.138-0.017-1.715
	h13.718c39.862,0,77.93-21.205,98.717-55.314c9.376-15.385,14.003-31.695,15.516-49.601c8.192-1.216,15.832-5.195,21.515-11.338
	c6.268-6.775,9.721-15.593,9.721-24.828C443.503,248.946,430.125,233.808,412.684,231.042z M99.293,287.957
	c-9.112-2.529-15.819-10.898-15.819-20.805c0-9.906,6.707-18.275,15.819-20.804V287.957z M244.159,408.234h25.176
	c0.004,1.498,0.024,2.88,0.117,4.168c-11.071,4.246-20.501,1.735-25.39-0.304C244.137,410.896,244.155,409.615,244.159,408.234z
	 M284.34,425.084l0.794,0.111c5.903,0.831,11.588,3.121,16.439,6.62c9.648,6.959,15.408,18.207,15.409,30.086v35.117H196.511
	v-35.116c0.001-11.881,5.761-23.129,15.41-30.087c4.851-3.499,10.536-5.789,16.438-6.62l0.795-0.111
	c1.961-0.274,3.765-0.527,5.41-0.93c3.822,2.014,12.077,5.572,22.733,5.572c6.657,0,14.25-1.398,22.27-5.427
	C281.039,424.62,282.629,424.845,284.34,425.084z M397.704,293.583c0,10.183-1.538,20.013-4.389,29.274
	c-6.821,2.613-22.505,7.937-42.18,10.211c-29.594,3.417-55.9-1.084-78.401-13.373c2.2-2.012,4.044-4.438,5.366-7.206
	c1.784-3.732,0.204-8.204-3.529-9.987c-3.729-1.784-8.203-0.205-9.987,3.529c-1.436,3.003-4.512,4.943-7.836,4.943
	c-3.496,0-6.635-2.08-7.997-5.301c-1.611-3.81-6.005-5.59-9.816-3.98c-3.809,1.611-5.592,6.006-3.98,9.816
	c1.348,3.187,3.341,5.957,5.781,8.202c-22.495,12.279-48.788,16.775-78.375,13.357c-19.684-2.275-35.372-7.602-42.186-10.213
	c-2.878-9.377-4.384-19.229-4.384-29.272v-62.501h51.318c-7.74,8.341-12.485,19.499-12.485,31.748
	c0,25.764,20.96,46.724,46.724,46.724c22.675,0,41.621-16.238,45.84-37.695h19.12c4.219,21.457,23.165,37.695,45.84,37.695
	c25.764,0,46.724-20.96,46.724-46.724c0-12.25-4.745-23.407-12.485-31.748h51.318v62.501H397.704z M169.603,262.83
	c0-17.503,14.24-31.744,31.744-31.744s31.744,14.24,31.744,31.744s-14.24,31.744-31.744,31.744S169.603,280.334,169.603,262.83z
	 M280.403,262.83c0-17.503,14.24-31.744,31.744-31.744s31.744,14.24,31.744,31.744s-14.24,31.744-31.744,31.744
	S280.403,280.334,280.403,262.83z M397.797,216.101h-87.976c-0.563,0-1.109,0.067-1.637,0.185
	c-21.94,1.853-39.603,18.924-42.372,40.593H247.68c-2.769-21.669-20.432-38.74-42.372-40.593c-0.528-0.118-1.074-0.185-1.637-0.185
	h-87.882v-0.37l25.029-49.908c1.683-3.357,4.86-5.442,8.289-5.442h215.279c3.429,0,6.604,2.085,8.288,5.442l25.145,50.138
	C397.811,216.007,397.805,216.055,397.797,216.101z M422.785,281.808c-2.787,3.014-6.255,5.114-10.083,6.163v-41.622
	c9.112,2.529,15.82,10.898,15.82,20.804C428.522,272.605,426.485,277.809,422.785,281.808z"/>
<g>
</g>
<g>
</g>
<g>
</g>
<g>
</g>
<g>
</g>
<g>
</g>
<g>
</g>
<g>
</g>
<g>
</g>
<g>
</g>
<g>
</g>
<g>
</g>
<g>
</g>
<g>
</g>
<g>
</g>
</svg>
