<?xml version="1.0" encoding="iso-8859-1"?>
<!-- Generator: Adobe Illustrator 19.0.0, SVG Export Plug-In . SVG Version: 6.00 Build 0)  -->
<svg version="1.1" id="Capa_1" xmlns="http://www.w3.org/2000/svg" xmlns:xlink="http://www.w3.org/1999/xlink" x="0px" y="0px"
	 viewBox="0 0 512 512" style="enable-background:new 0 0 512 512;" xml:space="preserve">
<path style="fill:#423D34;" d="M454.753,127.642C445.151,58.797,386.352,7.517,316.838,7.517h-121.67
	c-69.515,0-128.313,51.28-137.915,120.124c-10.933,78.405-21.329,177.17-15.254,238.072c5.549,55.622,48.784,97.671,100.085,97.671
	h227.839c51.301,0,94.536-42.049,100.085-97.671C476.082,304.811,465.686,206.047,454.753,127.642z"/>
<path style="fill:#33302A;" d="M470.01,365.71c-5.55,55.63-48.79,97.68-100.09,97.68h-52.29c51.3,0,94.53-42.05,100.08-97.68
	c6.08-60.9-4.32-159.66-15.25-238.07C392.86,58.8,334.06,7.52,264.54,7.52h52.3c69.51,0,128.31,51.28,137.91,120.12
	C465.69,206.05,476.08,304.81,470.01,365.71z"/>
<path style="fill:#E3BB94;" d="M107.22,130.265v106.823h-1.455c-16.117,0-29.182,13.065-29.182,29.182l0,0
	c0,16.116,13.065,29.181,29.182,29.181h1.515c1.801,57.738,49.167,103.993,107.343,103.993h21.231c0,4.175,0,7.262,0,7.27
	c0,9.701-0.124,9.42-9.388,10.724c-7.144,1.006-13.997,3.77-19.848,7.99c-11.579,8.351-18.584,22.015-18.584,36.293v42.761h135.94
	v-42.761c0-14.278-7.006-27.942-18.584-36.293c-5.851-4.22-12.704-6.984-19.848-7.99c-9.264-1.304-9.388-1.023-9.388-10.724
	c0-0.008,0-3.096,0-7.27h21.231c59.317,0,107.402-48.086,107.402-107.402V130.265H107.22z"/>
<path style="fill:#D6AA85;" d="M406.731,237.088h-1.942V130.265h-42.46v161.773c0,59.324-48.077,107.401-107.401,107.401h42.46
	c58.168,0,105.538-46.245,107.341-103.988h2.001c8.468,0,16.094-3.607,21.425-9.368c4.815-5.204,7.757-12.165,7.757-19.813l0,0
	C435.912,250.153,422.847,237.088,406.731,237.088z"/>
<g>
	<circle style="fill:#E8979F;" cx="169.12" cy="321.13" r="16"/>
	<circle style="fill:#E8979F;" cx="342.89" cy="321.13" r="16"/>
</g>
<path style="fill:#423D34;" d="M99.342,128.275c0,0,92.462,70.379,166.653,70.826c3.45,0.021,5.885-3.379,4.759-6.64l-4.821-13.962
	c0,0,79.704,45.967,146.73,39.157v-89.38l0,0c0-59.706-53.779-108.107-120.119-108.107H219.46
	C153.121,20.168,99.342,68.569,99.342,128.275L99.342,128.275z"/>
<path style="fill:#8FBA1E;" d="M278.354,416.06v88.423h-44.703V415.85l1.734,0.391l4.36,2.466c9.873,5.593,21.94,5.633,31.843,0.11
	l4.631-2.576l1.734-0.391C278.074,415.92,278.214,415.99,278.354,416.06z"/>
<path d="M278.481,351.773h-44.956c-4.152,0-7.517-3.365-7.517-7.517s3.365-7.517,7.517-7.517h44.956
	c4.152,0,7.517,3.365,7.517,7.517S282.633,351.773,278.481,351.773z"/>
<g>
	<path style="fill:#423D34;" d="M176.962,254.248c-3.022,0-5.871-1.834-7.019-4.823c-1.489-3.876,0.445-8.225,4.32-9.714
		l31.558-12.125c3.879-1.492,8.225,0.446,9.714,4.32c1.489,3.876-0.445,8.225-4.32,9.714l-31.558,12.125
		C178.77,254.087,177.858,254.248,176.962,254.248z"/>
	<path style="fill:#423D34;" d="M335.042,254.248c-0.896,0-1.808-0.162-2.694-0.502l-31.559-12.125
		c-3.876-1.489-5.81-5.838-4.321-9.713c1.489-3.876,5.837-5.813,9.713-4.321l31.559,12.125c3.876,1.489,5.81,5.838,4.321,9.713
		C340.913,252.414,338.063,254.248,335.042,254.248z"/>
</g>
<path d="M211.226,296.253c-4.152,0-7.517-3.365-7.517-7.517v-23.327c0-4.152,3.365-7.517,7.517-7.517s7.517,3.365,7.517,7.517
	v23.327C218.744,292.888,215.378,296.253,211.226,296.253z"/>
<path d="M300.778,296.253c-4.152,0-7.517-3.365-7.517-7.517v-23.327c0-4.152,3.365-7.517,7.517-7.517s7.517,3.365,7.517,7.517
	v23.327C308.295,292.888,304.93,296.253,300.778,296.253z"/>
<path d="M462.194,126.603c-4.895-35.099-22.296-67.242-48.996-90.508C386.484,12.818,352.263,0,316.835,0h-121.67
	c-15.865,0-31.492,2.532-46.449,7.525c-3.938,1.314-6.065,5.573-4.75,9.511s5.57,6.065,9.511,4.75
	c13.419-4.48,27.445-6.752,41.688-6.752h121.67c31.797,0,62.51,11.505,86.486,32.396c23.968,20.885,39.589,49.74,43.984,81.25
	c10.316,73.978,21.33,175.024,15.219,236.288c-1.791,17.953-7.914,35.089-17.707,49.555c-2.328,3.438-1.427,8.111,2.011,10.439
	c1.291,0.874,2.756,1.293,4.207,1.293c2.411,0,4.779-1.158,6.232-3.304c11.188-16.526,18.178-36.06,20.216-56.491
	C483.743,303.717,472.624,201.394,462.194,126.603z"/>
<path d="M412.3,229.993v-1.814c0-0.243-0.014-0.483-0.036-0.72c1.126-0.09,2.25-0.189,3.37-0.307
	c4.129-0.436,7.123-4.135,6.687-8.265c-0.436-4.128-4.125-7.112-8.265-6.687c-33.792,3.563-71.327-7.542-96.866-17.485
	c-28.054-10.925-48.195-22.896-48.392-23.015c-2.698-1.616-6.114-1.381-8.566,0.586c-2.451,1.968-3.42,5.253-2.427,8.236
	l3.955,11.893c-71.732-2.535-161.424-72.685-162.364-73.427c-3.257-2.573-7.986-2.014-10.557,1.24
	c-2.573,3.258-2.019,7.984,1.238,10.557c0.38,0.301,3.944,3.102,9.99,7.468c-0.236,0.729-0.366,1.505-0.366,2.313v89.514
	c-17.36,2.899-30.636,18.018-30.636,36.189c0,18.34,13.523,33.582,31.121,36.276c5.323,58.461,54.609,104.416,114.435,104.416
	h13.713c0,0.836-0.002,1.779-0.018,2.62c-0.662,0.1-1.394,0.203-2.088,0.3l-0.812,0.114c-8.334,1.174-16.356,4.403-23.198,9.338
	c-11.993,8.651-19.711,22.01-21.362,36.536H142.08c-47.623,0-87.434-39.079-92.604-90.9c-6.111-61.257,4.903-162.306,15.219-236.288
	c4.505-32.302,20.713-61.66,45.637-82.667c3.175-2.675,3.579-7.417,0.903-10.592c-2.674-3.174-7.418-3.58-10.592-0.904
	c-27.766,23.4-45.82,56.104-50.838,92.085C39.376,201.399,28.257,303.725,34.516,366.46c5.94,59.542,52.182,104.443,107.564,104.443
	h38.433v33.58c0,4.152,3.365,7.517,7.517,7.517h45.618h44.702h45.619c4.152,0,7.517-3.365,7.517-7.517v-33.58h38.432
	c15.343,0,30.193-3.421,44.137-10.169c3.737-1.808,5.301-6.303,3.492-10.041c-1.808-3.736-6.302-5.302-10.041-3.492
	c-11.887,5.751-24.533,8.667-37.589,8.667h-38.773c-1.651-14.526-9.37-27.885-21.363-36.535c-6.841-4.935-14.862-8.165-23.199-9.339
	l-0.811-0.114c-0.694-0.097-1.426-0.2-2.088-0.3c-0.017-0.841-0.018-1.784-0.018-2.62h13.713c59.807,0,109.081-45.925,114.43-104.36
	c8.323-1.173,16.095-5.182,21.861-11.415c6.291-6.8,9.756-15.649,9.756-24.918C443.427,247.927,429.901,232.686,412.3,229.993z
	 M99.7,287.061c-9.003-2.63-15.602-10.95-15.602-20.791c0-9.841,6.599-18.161,15.602-20.79V287.061z M268.735,411.8l-0.811,0.451
	c-7.56,4.215-16.938,4.184-24.481-0.089l-0.194-0.11c0.095-1.304,0.115-2.703,0.118-4.222h25.267
	C268.636,409.252,268.655,410.568,268.735,411.8z M195.547,461.722c0-11.923,5.781-23.212,15.464-30.195
	c4.489-3.238,9.693-5.429,15.12-6.407v71.846h-30.584V461.722z M241.166,496.966v-69.284c9.505,3.701,20.204,3.643,29.668-0.187
	v69.471H241.166z M300.989,431.526c9.683,6.984,15.464,18.271,15.464,30.195v35.244h-30.585V425.12
	C291.296,426.099,296.5,428.288,300.989,431.526z M397.265,228.179v63.863c0,55.076-44.809,99.884-99.885,99.884h-82.76
	c-53.427,0-97.189-42.164-99.763-94.964c0.1-0.488-0.122-148.521-0.122-148.521c9.89,6.618,22.263,14.416,36.233,22.174
	c47.376,26.311,88.3,38.664,121.617,36.704c2.334-0.137,4.471-1.353,5.783-3.288c1.312-1.935,1.647-4.371,0.909-6.589l-1.215-3.653
	c24.737,12.465,72.651,33.189,119.219,34.094C397.276,227.983,397.265,228.08,397.265,228.179z M422.634,280.978
	c-2.797,3.024-6.277,5.133-10.119,6.185V245.39c9.145,2.538,15.877,10.937,15.877,20.879
	C428.392,271.741,426.347,276.964,422.634,280.978z"/>
<path d="M265.601,305.272h-9.923v-26.047c0-4.241-3.47-7.71-7.71-7.71c-4.241,0-7.71,3.47-7.71,7.71v34.045
	c0,4.011,3.105,7.327,7.029,7.676c0.273,0.029,0.55,0.045,0.83,0.045h17.484c4.323,0,7.859-3.537,7.859-7.859
	S269.924,305.272,265.601,305.272z"/>
<g>
</g>
<g>
</g>
<g>
</g>
<g>
</g>
<g>
</g>
<g>
</g>
<g>
</g>
<g>
</g>
<g>
</g>
<g>
</g>
<g>
</g>
<g>
</g>
<g>
</g>
<g>
</g>
<g>
</g>
</svg>
