<?xml version="1.0" encoding="iso-8859-1"?>
<!-- Generator: Adobe Illustrator 19.0.0, SVG Export Plug-In . SVG Version: 6.00 Build 0)  -->
<svg version="1.1" id="Capa_1" xmlns="http://www.w3.org/2000/svg" xmlns:xlink="http://www.w3.org/1999/xlink" x="0px" y="0px"
	 viewBox="0 0 511.998 511.998" style="enable-background:new 0 0 511.998 511.998;" xml:space="preserve">
<path style="fill:#F3D1BB;" d="M108.804,129.81v107.735h-3.786c-16.09,0-29.134,13.043-29.134,29.134s13.043,29.134,29.134,29.134
	h3.956c3.087,55.916,49.4,100.306,106.088,100.306h20.822c0,5.78,0,10.762,0,10.773c0,9.685-0.123,9.404-9.372,10.707
	c-7.133,1.005-13.974,3.763-19.816,7.977c-11.559,8.338-18.554,21.979-18.554,36.233v42.69h135.714v-42.69
	c0-14.254-6.993-27.895-18.554-36.233c-5.841-4.213-12.683-6.972-19.816-7.977c-9.249-1.302-9.372-1.022-9.372-10.707
	c0-0.011,0-4.993,0-10.773h20.822c58.683,0,106.257-47.572,106.257-106.256V129.81H108.804z"/>
<path style="fill:#77E8D2;" d="M323.852,461.808v42.687H188.146v-42.687c0-14.259,6.984-27.898,18.542-36.233
	c3.732-2.692,7.875-4.793,12.238-6.214c2.472-0.801,5.013-1.401,7.585-1.771c2.211-0.31,3.902-0.53,5.183-0.811
	c9.726,17.131,23.485,41.967,24.285,43.398v0.08c0,0,0.01-0.02,0.02-0.04c0.01,0.02,0.02,0.04,0.02,0.04v-0.08
	c0.801-1.431,14.559-26.267,24.285-43.398c1.281,0.28,2.972,0.5,5.183,0.811c2.572,0.37,5.113,0.971,7.585,1.771
	c4.363,1.421,8.505,3.522,12.238,6.214C316.868,433.91,323.852,447.549,323.852,461.808z"/>
<path style="fill:#ECC19C;" d="M405.479,237.544h-2.281V129.81H361.19v160.047c0,58.69-47.564,106.255-106.255,106.255h42.008
	c56.679,0,102.997-44.381,106.086-100.301h2.451c8.454,0,16.067-3.601,21.389-9.353c4.806-5.195,7.744-12.145,7.744-19.781l0,0
	C434.613,250.587,421.569,237.544,405.479,237.544z"/>
<g>
	<circle style="fill:#E8979F;" cx="170.037" cy="287.093" r="15.831"/>
	<circle style="fill:#E8979F;" cx="341.957" cy="287.093" r="15.831"/>
</g>
<path style="fill:#B5477C;" d="M450.625,121.067c-7.784-5.874-15.766-7.702-22.856-6.723c-0.944,0.13-1.81-0.51-1.984-1.447
	c-0.003-0.014-0.005-0.029-0.008-0.043c-0.221-1.187,0.783-2.268,1.978-2.095c1.195,0.173,2.415,0.268,3.658,0.268
	c20.717,0,35.874-23.81,19.598-45.559c-0.109-0.146-0.243-0.28-0.389-0.39c-10.103-7.626-20.586-8.444-28.967-5.106
	c-1.42,0.565-2.864-0.878-2.298-2.298c3.339-8.382,2.52-18.866-5.107-28.967c-0.111-0.147-0.247-0.282-0.395-0.393
	c-15.153-11.306-31.148-7.428-39.57,2.886c-0.562,0.688-1.547,0.834-2.303,0.366C348.624,17.111,315.846,7.505,269.962,7.505
	h-12.343h-3.24h-12.343c-45.885,0-78.663,9.606-102.02,24.059c-0.756,0.468-1.741,0.323-2.303-0.366
	c-8.421-10.314-24.417-14.191-39.568-2.887c-0.148,0.11-0.284,0.246-0.395,0.393C90.12,38.806,89.302,49.29,92.64,57.673
	c0.565,1.42-0.878,2.864-2.298,2.298c-8.382-3.339-18.867-2.52-28.97,5.108c-0.146,0.11-0.279,0.244-0.389,0.39
	c-16.272,21.748-1.117,45.556,19.6,45.556c1.244,0,2.464-0.095,3.658-0.268c1.195-0.174,2.2,0.909,1.978,2.095
	c-0.003,0.014-0.005,0.029-0.008,0.043c-0.174,0.937-1.041,1.577-1.984,1.447c-7.104-0.98-15.105,0.857-22.884,6.759
	c-0.144,0.11-0.277,0.243-0.385,0.388c-16.232,21.739-1.082,45.523,19.624,45.523c2.788,0,5.465-0.45,7.987-1.252
	c0.317-0.101,0.649-0.111,0.972-0.026c32.49,8.593,89.865-12.966,91.699-13.661c0.032-0.012,0.06-0.024,0.091-0.038
	c10.169-4.617,21.039-8.233,32.235-9.094c7.463-0.574,15.088,0.161,22.106,2.865c5.006,1.929,9.617,4.838,13.479,8.565
	c1.334,1.288,2.579,2.669,3.717,4.132c0.824,1.058,2.587,4.638,4.182,2.954c0.758-0.802,1.281-1.899,1.948-2.788
	c0.882-1.174,1.863-2.282,2.884-3.337c3.579-3.7,7.876-6.679,12.584-8.76c6.573-2.905,13.805-4,20.958-3.792
	c10.621,0.308,21.042,3.304,30.81,7.334c1.488,0.613,2.964,1.255,4.43,1.92c0.031,0.014,0.059,0.026,0.091,0.038
	c1.834,0.694,59.21,22.254,91.699,13.661c0.322-0.085,0.654-0.074,0.972,0.026c2.522,0.802,5.199,1.252,7.987,1.252
	c20.717,0,35.874-23.809,19.598-45.558C450.904,121.311,450.77,121.177,450.625,121.067z"/>
<path style="fill:#9E366C;" d="M452.967,124.298c12.983,20.949-1.741,42.72-21.548,42.72c-2.799,0-5.468-0.458-7.998-1.253
	c-0.317-0.1-0.649-0.109-0.971-0.025c-6.793,1.797-14.678,2.276-22.916,1.908c-1.004-0.045-1.765-0.919-1.689-1.92
	c0.049-0.654,0.074-1.316,0.074-1.98c0-5.652-1.758-10.397-5.336-14.719c-3.084-3.725-10.062-4.761-10.937-10.119
	c-0.9-5.511,5.565-9.398,8.768-12.684c5.098-5.232,7.822-12.447,7.476-19.743c-0.664-14.011-12.567-25.262-26.594-25.18
	c-3.377,0.02-6.605,0.677-9.573,1.855c-1.438,0.57-2.898-0.849-2.325-2.285c3.298-8.285,2.503-18.649-4.759-28.646
	c-0.11-0.151-0.245-0.29-0.393-0.404c-15.183-11.688-31.431-7.829-39.917,2.575c-0.562,0.689-1.549,0.835-2.305,0.366
	c-23.354-14.452-56.14-24.054-102.018-24.054h-27.93c-37.739,0-66.625,6.504-88.683,16.863c-1.246,0.584-2.646-0.415-2.537-1.787
	c0.89-11.213,8.83-20.93,19.953-23.565c10.797-2.557,20.822,1.536,26.907,8.98c0.564,0.69,1.549,0.838,2.307,0.369
	c23.354-14.453,56.127-24.055,102.02-24.055h27.916c45.892,0,78.666,9.603,102.019,24.055c0.757,0.468,1.742,0.323,2.305-0.365
	c8.445-10.335,24.486-14.212,39.642-2.809c0.147,0.11,0.282,0.245,0.392,0.392c7.571,10.072,8.367,20.538,5.041,28.89
	c-0.571,1.435,0.889,2.855,2.323,2.285c3.011-1.195,6.296-1.854,9.737-1.854c14.609,0,26.454,11.845,26.454,26.467
	c0,14.609-11.845,26.454-26.454,26.454c-1.247,0-2.468-0.096-3.659-0.269c-1.198-0.174-2.204,0.911-1.98,2.1
	c0.003,0.014,0.005,0.029,0.008,0.043c0.176,0.936,1.042,1.575,1.984,1.445c7.962-1.092,17.116,1.273,24.945,9.624
	C452.809,124.07,452.895,124.182,452.967,124.298z"/>
<path d="M203.905,258.27c-4.145,0-7.505-3.359-7.505-7.505v-33.092c0-4.146,3.36-7.505,7.505-7.505s7.505,3.359,7.505,7.505v33.092
	C211.41,254.911,208.05,258.27,203.905,258.27z"/>
<path d="M308.094,258.27c-4.146,0-7.505-3.359-7.505-7.505v-33.092c0-4.146,3.359-7.505,7.505-7.505
	c4.146,0,7.505,3.359,7.505,7.505v33.092C315.599,254.911,312.239,258.27,308.094,258.27z"/>
<g>
	<path style="fill:#B5477C;" d="M218.277,225.178h-28.745c-4.145,0-7.505-3.359-7.505-7.505s3.36-7.505,7.505-7.505h28.745
		c4.145,0,7.505,3.359,7.505,7.505S222.422,225.178,218.277,225.178z"/>
	<path style="fill:#B5477C;" d="M322.466,225.178H293.72c-4.146,0-7.505-3.359-7.505-7.505s3.359-7.505,7.505-7.505h28.746
		c4.146,0,7.505,3.359,7.505,7.505S326.611,225.178,322.466,225.178z"/>
</g>
<path d="M264.342,307.457h-16.687c-4.145,0-7.505-3.359-7.505-7.505v-44.959c0-4.146,3.36-7.505,7.505-7.505
	s7.505,3.359,7.505,7.505v37.454h9.182c4.146,0,7.505,3.359,7.505,7.505C271.847,304.098,268.488,307.457,264.342,307.457z"/>
<path d="M260.756,370.601h-9.514c-4.145,0-7.505-3.359-7.505-7.505c0-4.146,3.36-7.505,7.505-7.505h9.514
	c4.146,0,7.505,3.359,7.505,7.505C268.261,367.242,264.902,370.601,260.756,370.601z"/>
<path d="M450.617,112.573c1.953-1.336,3.773-2.879,5.422-4.613c6.475-6.815,9.776-15.752,9.294-25.165
	c-0.911-17.813-16.099-32.192-33.928-32.192c-0.099,0-0.199,0-0.298,0.001c-0.834,0.008-1.663,0.045-2.489,0.112
	c0.169-2.071,0.146-4.171-0.067-6.291c-1.59-15.757-14.157-28.48-29.88-30.253c-9.875-1.116-19.554,2.072-26.745,8.631
	C345.439,7.669,311.164,0,269.961,0h-27.925c-41.214,0-75.477,7.668-101.973,22.808c-7.168-6.505-16.901-9.743-26.735-8.637
	c-15.723,1.772-28.29,14.496-29.881,30.252c-0.214,2.12-0.236,4.221-0.068,6.291c-0.825-0.067-1.655-0.104-2.489-0.112
	c-0.1-0.001-0.196-0.001-0.296-0.001c-17.829,0-33.022,14.383-33.931,32.196c-0.48,9.413,2.821,18.35,9.296,25.163
	c1.647,1.733,3.467,3.276,5.42,4.612c-8.451,5.822-14.176,15.367-14.718,26.252c-0.469,9.405,2.837,18.333,9.311,25.137
	c6.477,6.808,15.217,10.558,24.611,10.558c2.905,0,5.8-0.379,8.634-1.131c3.688,0.863,7.723,1.422,12.081,1.692v55.146
	c-18.463,1.869-32.92,17.502-32.92,36.45c0,19.214,14.87,35.01,33.704,36.51c6.62,56.471,54.757,100.434,112.976,100.434h13.317
	v3.268c0,0.89,0,1.94-0.018,2.862c-0.66,0.1-1.392,0.202-2.084,0.299l-0.812,0.113c-8.32,1.172-16.329,4.396-23.159,9.322
	c-13.568,9.785-21.668,25.606-21.668,42.319v42.69c0,4.146,3.36,7.505,7.505,7.505h135.714c4.146,0,7.505-3.359,7.505-7.505v-42.689
	c-0.001-16.713-8.102-32.533-21.668-42.318c-6.83-4.927-14.839-8.151-23.161-9.322l-0.811-0.113
	c-0.692-0.097-1.424-0.199-2.084-0.299c-0.019-0.922-0.019-1.973-0.019-2.862v-3.268h13.318
	c58.274,0,106.446-44.045,112.994-100.591c8.543-1.055,16.547-5.1,22.445-11.477c6.28-6.788,9.739-15.623,9.739-24.876
	c0-18.43-13.681-33.717-31.418-36.259v-55.342c1.717-0.104,3.41-0.251,5.066-0.455c4.113-0.506,7.037-4.252,6.53-8.365
	c-0.506-4.114-4.244-7.045-8.365-6.53c-30.373,3.741-76.909-13.32-80.347-14.603c-23.217-10.504-43.332-12.651-59.784-6.381
	c-3.734,1.423-6.959,3.173-9.765,5.06V15.01h5.928c40.481,0,73.477,7.717,98.066,22.934c3.951,2.451,9.137,1.6,12.061-1.984
	c4.105-5.036,10.427-7.606,16.902-6.872c8.75,0.986,15.742,8.07,16.629,16.845c0.313,3.109-0.102,6.126-1.232,8.966
	c-1.369,3.436-0.557,7.353,2.068,9.978c2.625,2.626,6.539,3.439,9.977,2.069c2.167-0.864,4.458-1.312,6.809-1.332
	c0.056-0.001,0.111-0.001,0.167-0.001c9.95,0,18.429,8.018,18.936,17.949c0.27,5.265-1.572,10.258-5.185,14.061
	c-3.616,3.805-8.497,5.901-13.744,5.901c-0.838,0-1.707-0.064-2.578-0.19c-2.941-0.431-5.933,0.598-7.997,2.747
	c-2.066,2.15-2.981,5.179-2.447,8.109c0.005,0.029,0.01,0.06,0.016,0.089c0.915,4.887,5.471,8.18,10.377,7.503
	c0.994-0.138,2.012-0.189,3.027-0.177c9.726,0.198,18.039,8.251,18.533,17.946c0.023,0.487,0.031,0.973,0.021,1.44
	c-0.093,4.145,3.191,7.578,7.335,7.671c4.167,0.089,7.579-3.191,7.671-7.335c0.019-0.829,0.007-1.678-0.036-2.531
	C464.782,127.921,459.06,118.389,450.617,112.573z M99.239,287.522c-9.13-2.534-15.85-10.919-15.85-20.845
	c0-9.925,6.72-18.311,15.85-20.844V287.522z M270.565,418.816l-14.581,26.061L241.43,418.82c1.808-2.941,1.946-6.376,1.957-10.817
	h25.225C268.622,412.442,268.759,415.876,270.565,418.816z M284.301,425.007l0.14,0.02c5.915,0.833,11.611,3.127,16.471,6.633
	c9.667,6.972,15.439,18.242,15.44,30.145v35.185h-17.955V480.24c0-4.146-3.359-7.505-7.505-7.505c-4.146,0-7.505,3.359-7.505,7.505
	v16.751h-54.775V480.24c0-4.146-3.36-7.505-7.505-7.505s-7.505,3.359-7.505,7.505v16.751h-17.955v-35.185
	c0-11.904,5.772-23.173,15.439-30.145c4.86-3.506,10.556-5.8,16.47-6.633l0.137-0.019l21.734,38.909
	c1.326,2.374,3.831,3.844,6.549,3.845c0.001,0,0.001,0,0.002,0c2.717,0,5.222-1.469,6.549-3.84L284.301,425.007z M411.257,245.833
	c9.13,2.534,15.851,10.919,15.851,20.844c0,5.462-2.041,10.677-5.749,14.684c-2.793,3.02-6.267,5.124-10.102,6.175V245.833z
	 M279.142,152.765c12.627-4.809,28.933-2.748,48.465,6.126c0.141,0.064,0.284,0.124,0.429,0.179
	c1.748,0.667,36.012,13.606,67.654,15.854v114.936c0,54.452-44.299,98.751-98.751,98.751h-81.878
	c-54.452,0-98.751-44.299-98.751-98.751V174.93c10.6-0.751,22.606-2.786,35.986-6.134c4.021-1.006,6.465-5.08,5.459-9.102
	s-5.082-6.467-9.102-5.458c-24.907,6.23-44.827,7.659-57.601,4.134c-1.448-0.4-2.981-0.357-4.403,0.125
	c-1.988,0.673-4.029,1.015-6.065,1.015c-5.242,0-10.121-2.093-13.737-5.894c-3.612-3.796-5.457-8.784-5.194-14.044
	c0.484-9.705,8.795-17.766,18.521-17.969c1.027-0.013,2.044,0.039,3.04,0.177c4.903,0.678,9.466-2.618,10.377-7.511
	c0.003-0.016,0.006-0.03,0.007-0.04c0.549-2.942-0.362-5.988-2.439-8.149c-2.065-2.149-5.057-3.175-7.992-2.75
	c-0.878,0.127-1.747,0.191-2.584,0.191c-5.247,0-10.127-2.096-13.744-5.901c-3.613-3.801-5.455-8.795-5.186-14.06
	c0.506-9.932,8.985-17.95,18.937-17.95c0.055,0,0.11,0,0.166,0.001c2.351,0.021,4.643,0.469,6.809,1.332
	c3.436,1.37,7.353,0.558,9.977-2.067c2.627-2.626,3.439-6.541,2.071-9.978c-1.132-2.842-1.547-5.858-1.233-8.966
	c0.887-8.776,7.88-15.86,16.631-16.846c6.92-0.786,13.488,2.111,17.566,7.739c2.329,3.215,6.76,4.059,10.109,1.926
	c24.73-15.754,58.156-23.741,99.347-23.741h6.986v129.515c-9.987-7.174-25.982-12.775-50.103-6.708
	c-4.02,1.012-6.458,5.089-5.447,9.109c1.011,4.021,5.088,6.456,9.109,5.447c9.606-2.415,20.077-3.266,29.574,0.085
	c4.104,1.448,7.926,3.703,11.139,6.642c4.976,4.552,4.572,12.435,12.913,12.727c0.048,0.002,0.096-0.004,0.144-0.003
	c7.652,0.105,7.675-8.371,12.336-12.633C271.727,156.411,275.293,154.231,279.142,152.765z"/>
<g>
</g>
<g>
</g>
<g>
</g>
<g>
</g>
<g>
</g>
<g>
</g>
<g>
</g>
<g>
</g>
<g>
</g>
<g>
</g>
<g>
</g>
<g>
</g>
<g>
</g>
<g>
</g>
<g>
</g>
</svg>
