<?xml version="1.0" encoding="iso-8859-1"?>
<!-- Generator: Adobe Illustrator 19.0.0, SVG Export Plug-In . SVG Version: 6.00 Build 0)  -->
<svg version="1.1" id="Capa_1" xmlns="http://www.w3.org/2000/svg" xmlns:xlink="http://www.w3.org/1999/xlink" x="0px" y="0px"
	 viewBox="0 0 512.001 512.001" style="enable-background:new 0 0 512.001 512.001;" xml:space="preserve">
<path style="fill:#F0D0B4;" d="M107.896,131.189v106.355h-3.127c-16.09,0-29.134,13.043-29.134,29.134l0,0
	c0,16.09,13.043,29.134,29.134,29.134h3.162c1.467,58.067,48.999,104.688,107.419,104.688h82.801
	c59.346,0,107.454-48.109,107.454-107.454V131.189H107.896z"/>
<path style="fill:#ECC19C;" d="M407.232,237.544h-1.623V131.189h-42.481V293.04c0,59.353-48.101,107.452-107.452,107.452h42.481
	c58.413,0,105.948-46.611,107.417-104.683h1.658c8.454,0,16.067-3.601,21.389-9.353c4.807-5.195,7.744-12.145,7.744-19.781l0,0
	C436.365,250.587,423.322,237.544,407.232,237.544z"/>
<g>
	<circle style="fill:#E8979F;" cx="169.829" cy="322.155" r="16.009"/>
	<circle style="fill:#E8979F;" cx="343.679" cy="322.155" r="16.009"/>
</g>
<path style="fill:#F2B844;" d="M98.282,246.038c14.506-10.728,43.724-36.78,43.376-72.39l54.601,38.899h23.668l-23.668-38.899
	c0,0,44.568,25.943,102.969,38.899h36.815l-18.801-38.899c0,0,57.735,55.538,100.089,62.481c3.062,0.502,5.852-1.832,5.852-4.936
	V92.227c0-46.791-37.931-84.722-84.722-84.722H175.041c-46.791,0-84.722,37.931-84.722,84.722v149.776
	C90.319,246.104,94.986,248.475,98.282,246.038z"/>
<path style="fill:#E59E2C;" d="M423.18,92.23v138.961c0,3.096-2.78,5.439-5.836,4.939c-17.131-2.802-36.781-13.564-54.108-25.384
	V92.23c0-46.797-37.924-84.72-84.72-84.72h59.944C385.25,7.51,423.18,45.44,423.18,92.23z"/>
<path style="fill:#F5A5C7;" d="M256.751,379.471L256.751,379.471c-7.397,0-13.394-5.996-13.394-13.393v-38.15h26.786v38.15
	C270.145,373.475,264.148,379.471,256.751,379.471z"/>
<path style="fill:#ABC129;" d="M304.821,427.556c-3.639-2.625-7.675-4.669-11.932-6.058c-1.13-0.369-2.278-0.689-3.437-0.967v-20.04
	H224.05v20.04c-1.159,0.277-2.307,0.596-3.437,0.967c-4.257,1.389-8.292,3.433-11.932,6.058
	c-11.268,8.125-18.081,21.422-18.081,35.322v41.617h132.301v-41.617C322.902,448.979,316.089,435.681,304.821,427.556z"/>
<path d="M225.034,251.174c0-4.146-3.36-7.505-7.505-7.505h-29.069c-4.145,0-7.505,3.359-7.505,7.505s3.36,7.505,7.505,7.505h7.029
	v21.835c0,4.146,3.36,7.505,7.505,7.505s7.505-3.359,7.505-7.505v-21.835h7.029C221.674,258.679,225.034,255.319,225.034,251.174z"
	/>
<path d="M322.891,243.669h-29.069c-4.145,0-7.505,3.359-7.505,7.505s3.36,7.505,7.505,7.505h6.782v21.835
	c0,4.146,3.36,7.505,7.505,7.505c4.145,0,7.505-3.359,7.505-7.505v-21.835h7.277c4.145,0,7.505-3.359,7.505-7.505
	S327.036,243.669,322.891,243.669z"/>
<path d="M256.897,307.278c8.852,0,17.039-5.162,20.857-13.152c1.788-3.739,0.205-8.22-3.534-10.007
	c-3.741-1.79-8.22-0.205-10.007,3.534c-1.34,2.804-4.212,4.615-7.316,4.615c-3.263,0-6.193-1.942-7.465-4.948
	c-1.615-3.816-6.019-5.604-9.835-3.988c-3.817,1.614-5.604,6.018-3.989,9.835C239.233,301.739,247.589,307.278,256.897,307.278z"/>
<path d="M290.114,320.423h-19.971h-26.786h-19.971c-4.145,0-7.505,3.359-7.505,7.505c0,4.146,3.36,7.505,7.505,7.505h12.466v30.646
	c0,11.523,9.375,20.898,20.897,20.898c11.522,0,20.897-9.375,20.897-20.898v-30.646h12.466c4.145,0,7.505-3.359,7.505-7.505
	C297.618,323.782,294.26,320.423,290.114,320.423z M262.639,366.078c0,3.247-2.642,5.889-5.888,5.889
	c-3.246,0-5.888-2.642-5.888-5.889v-30.646h11.777v30.646H262.639z"/>
<path d="M430.499,238.426c0.122-0.538,0.19-1.091,0.19-1.652V92.228C430.689,41.373,389.316,0,338.462,0H223.389
	c-4.145,0-7.505,3.359-7.505,7.505s3.36,7.505,7.505,7.505h115.073c42.578,0,77.217,34.64,77.217,77.218v135.95
	c-15.116-3.271-34.564-13.423-56.886-29.762c-20.534-15.031-36.192-30.028-36.348-30.177c-2.621-2.519-6.668-2.8-9.609-0.664
	c-2.941,2.134-3.931,6.068-2.349,9.34l13.595,28.127h-5.497c-4.145,0-7.505,3.359-7.505,7.505s3.36,7.505,7.505,7.505h17.459
	c2.584,0,4.984-1.328,6.358-3.517c1.373-2.188,1.523-4.928,0.399-7.254l-3.15-6.517c16.309,12.786,37.727,27.529,58.35,35.572
	v57.476c0,0.229,0.014,0.455,0.034,0.679c-1.823,53.522-45.925,96.503-99.884,96.503h-8.602c-0.033,0-0.064-0.005-0.097-0.005
	H224.05c-0.033,0-0.064,0.004-0.097,0.005h-8.602c-55.112,0-99.95-44.838-99.95-99.95V241.58c2.032-1.884,4.113-3.921,6.194-6.105
	c14.316-15.026,23.268-31.441,26.358-48.131l43.952,31.311c1.272,0.906,2.794,1.393,4.355,1.393h23.668
	c2.712,0,5.213-1.463,6.542-3.827c1.329-2.363,1.279-5.261-0.131-7.578l-10.525-17.297c13.047,5.918,30.401,13.265,48.763,19.569
	c3.923,1.343,8.189-0.741,9.535-4.661c1.346-3.921-0.741-8.19-4.661-9.535c-36.183-12.422-69.407-29.564-69.738-29.736
	c-2.988-1.547-6.642-0.918-8.939,1.542s-2.676,6.148-0.927,9.023l16.729,27.493h-7.917l-52.646-37.505
	c-2.298-1.639-5.322-1.848-7.825-0.541c-2.503,1.306-4.062,3.904-4.034,6.727c0.285,29.141-22.151,51.781-36.331,63.161V92.228
	c0-40.751,31.826-74.605,72.455-77.073c4.138-0.251,7.288-3.809,7.036-7.946c-0.251-4.138-3.824-7.267-7.946-7.035
	c-48.535,2.949-86.555,43.384-86.555,92.056v145.149c-8.907,6.688-14.682,17.329-14.682,29.3c0,18.874,14.346,34.456,32.706,36.424
	c5.112,58.696,54.515,104.902,114.514,104.902h1.195v6.963c-4.369,1.601-8.484,3.783-12.255,6.503
	c-3.502,2.526-6.68,5.507-9.446,8.862c-2.637,3.198-2.182,7.928,1.017,10.566c3.197,2.636,7.927,2.181,10.565-1.017
	c1.949-2.365,4.186-4.463,6.646-6.237c3.007-2.169,6.328-3.854,9.873-5.011c0.897-0.293,1.857-0.563,2.854-0.802
	c3.376-0.809,5.757-3.826,5.757-7.299v-12.529h50.392v12.529c0,3.472,2.381,6.49,5.757,7.299c0.997,0.238,1.956,0.508,2.858,0.803
	c3.541,1.156,6.861,2.841,9.87,5.011c9.37,6.756,14.965,17.685,14.965,29.235v34.112h-16.248v-16.751
	c0-4.146-3.36-7.505-7.505-7.505c-4.145,0-7.505,3.359-7.505,7.505v16.751h-54.775v-16.751c0-4.146-3.36-7.505-7.505-7.505
	s-7.505,3.359-7.505,7.505v16.751h-16.248v-8.843c0-4.146-3.36-7.505-7.505-7.505s-7.505,3.359-7.505,7.505v16.347
	c0,4.146,3.36,7.505,7.505,7.505h132.301c4.145,0,7.505-3.359,7.505-7.505V462.88c0-16.36-7.923-31.84-21.195-41.409
	c-3.771-2.721-7.887-4.903-12.255-6.503v-6.963h1.195c60.068,0,109.516-46.311,114.532-105.104
	c8.166-1.238,15.777-5.217,21.446-11.345c6.281-6.788,9.74-15.623,9.74-24.877C443.87,255.309,438.651,245.15,430.499,238.426z
	 M83.14,266.677c0-3.444,0.819-6.695,2.258-9.586c0.368,0.321,0.759,0.62,1.193,0.868c1.155,0.66,2.441,0.991,3.727,0.991
	c1.315,0,2.63-0.345,3.803-1.035c0.2-0.118,2.016-1.196,4.869-3.159v32.767C89.861,284.988,83.14,276.603,83.14,266.677z
	 M423.113,281.36C423.113,281.36,423.112,281.36,423.113,281.36c-2.769,2.993-6.207,5.084-10.002,6.145v-41.64
	c9.078,2.568,15.75,10.924,15.75,20.812C428.861,272.139,426.819,277.355,423.113,281.36z"/>
<g>
</g>
<g>
</g>
<g>
</g>
<g>
</g>
<g>
</g>
<g>
</g>
<g>
</g>
<g>
</g>
<g>
</g>
<g>
</g>
<g>
</g>
<g>
</g>
<g>
</g>
<g>
</g>
<g>
</g>
</svg>
