<?xml version="1.0" encoding="iso-8859-1"?>
<!-- Generator: Adobe Illustrator 19.0.0, SVG Export Plug-In . SVG Version: 6.00 Build 0)  -->
<svg version="1.1" id="Capa_1" xmlns="http://www.w3.org/2000/svg" xmlns:xlink="http://www.w3.org/1999/xlink" x="0px" y="0px"
	 viewBox="0 0 512 512" style="enable-background:new 0 0 512 512;" xml:space="preserve">
<path style="fill:#603813;" d="M424.166,164.647l-166.16,0.001h-4.012H89.5c0,0,19.368,200.555-9.778,265.157
	c-2.02,4.477,1.167,9.552,6.079,9.552h168.194h4.012h168.194c4.912,0,8.099-5.075,6.079-9.552
	C403.133,365.202,424.166,164.647,424.166,164.647z"/>
<path style="fill:#512C0E;" d="M426.202,439.358h-42.474c-37.77-50.951-7.275-274.711-7.275-274.711h47.712
	c0,0-21.033,200.558,8.115,265.158C434.301,434.282,431.115,439.358,426.202,439.358z"/>
<path style="fill:#F3D1BB;" d="M107.383,131.09v95.679h-2.236c-16.076,0-29.109,13.032-29.109,29.109s13.032,29.109,29.109,29.109
	h2.236v7.683c0,59.263,48.042,107.306,107.306,107.306h27.839c0,4.078,0,6.995,0,7.003c0,9.677-0.123,9.396-9.364,10.698
	c-7.127,1.003-13.963,3.761-19.799,7.97c-11.55,8.331-18.538,21.96-18.538,36.203v42.654h135.602V461.85
	c0-14.242-6.988-27.872-18.538-36.203c-5.836-4.209-12.672-6.967-19.799-7.97c-9.241-1.301-9.364-1.02-9.364-10.698
	c0-0.008,0-2.926,0-7.003h14.59c59.263,0,107.306-48.042,107.306-107.306V131.09H107.383z"/>
<path style="fill:#ECC19C;" d="M406.359,226.769h-1.732V131.09h-42.414v161.596c0,59.259-48.024,107.283-107.283,107.283h42.414
	c59.245,0,107.283-48.024,107.283-107.283v-7.7h1.732c8.447,0,16.054-3.598,21.371-9.345c4.803-5.191,7.738-12.134,7.738-19.764
	C435.468,239.801,422.435,226.769,406.359,226.769z"/>
<path style="fill:#603813;" d="M425.689,49.641c-3.731-6.276-8.324-12.349-13.765-18.619C398.743,15.833,378.405,7.62,358.521,7.62
	c-0.023,0-4.872,0-4.872,0c-5.303,0-10.606,0-15.909,0c-41.157,0-82.314,0-123.471,0c-49.337,0-96.884-4.688-125.134,43.969
	C82.902,62.325,78.146,73.94,74.968,85.937c-7.237,27.322-3.009,60.482,3.488,87.482c1.255,5.214,16.208,54.276,26.557,52.014
	c37.22-8.138,59.356-42.171,69.383-62.127c-5.888,21.282,10.802,25.503,10.802,25.503c24.965,6.04,69.732-24.159,69.732-24.159
	c2.089,24.159,16.415,24.159,16.415,24.159c48.702-2.013,76.13-57.719,76.13-57.719s8.327,82.648,59.52,94.342
	c12.961,2.961,29.654-81.831,31.324-91.374c1.673-9.546,2.628-19.243,2.489-28.941C440.53,85.622,435.686,66.456,425.689,49.641z"/>
<path style="fill:#512C0E;" d="M438.316,134.058c-1.664,9.543-18.361,94.331-31.327,91.378
	c-16.737-3.825-28.884-15.221-37.649-28.844c7.677-24.616,13.972-56.856,14.966-62.534c1.678-9.543,2.631-19.247,2.483-28.938
	c-0.268-19.502-5.114-38.669-15.113-55.474c-3.731-6.281-8.322-12.348-13.771-18.63c-13.181-15.18-33.516-23.395-53.394-23.395
	h49.138c0,0,4.845,0,4.872,0c19.878,0,40.226,8.215,53.407,23.395c5.436,6.282,10.026,12.348,13.758,18.63
	c10,16.805,14.845,35.971,15.127,55.474C440.947,114.81,439.994,124.515,438.316,134.058z"/>
<path style="fill:#32B2AC;" d="M330.425,461.85c0-14.246-6.982-27.874-18.531-36.201c-3.73-2.69-7.866-4.785-12.229-6.208
	c-2.463-0.805-5.004-1.4-7.577-1.767c-3.769-0.532-6.02-0.79-7.365-1.579l-1.728,0.383l-4.621,2.572
	c-9.883,5.512-21.916,5.473-31.76-0.109l-4.355-2.463l-1.728-0.383c-1.345,0.79-3.597,1.048-7.365,1.579
	c-2.572,0.367-5.114,0.962-7.577,1.767c-4.363,1.423-8.499,3.518-12.229,6.208c-11.548,8.327-18.531,23.613-18.531,37.859h32.934
	v40.995h69.727V461.85H330.425z"/>
<path d="M445.679,135.353c1.862-10.622,2.737-20.831,2.601-30.343c-0.306-21.451-5.898-41.922-16.172-59.202
	c-3.733-6.278-8.491-12.722-14.547-19.701C403.44,9.835,381.359,0.121,358.495,0.121H214.242c-3.987,0-7.963-0.031-11.918-0.062
	c-45.011-0.348-91.559-0.708-119.7,47.764c-6.52,11.23-11.544,23.408-14.931,36.193c-2.363,8.92-3.703,18.91-3.984,29.693
	c-0.107,4.14,3.161,7.583,7.301,7.691c4.125,0.109,7.583-3.16,7.691-7.3c0.25-9.62,1.424-18.449,3.489-26.243
	c3.045-11.495,7.554-22.43,13.403-32.503c23.768-40.938,62.165-40.637,106.615-40.297c3.993,0.03,8.008,0.062,12.034,0.062h144.253
	c18.58,0,36.426,7.783,47.739,20.817c5.464,6.298,9.711,12.034,12.983,17.537c8.934,15.026,13.798,32.922,14.067,51.753
	c0.123,8.574-0.677,17.839-2.377,27.541c-0.685,3.912-4.591,24.101-9.851,44.339c-7.551,29.052-12.573,37.911-14.533,40.479
	c-43.456-12.208-51.536-86.49-51.613-87.246c-0.335-3.329-2.836-6.033-6.129-6.628c-3.291-0.591-6.581,1.065-8.059,4.068
	c-0.254,0.515-25.8,51.406-69.293,53.52c-2.927-0.402-7.944-4.443-9.054-17.292c-0.229-2.648-1.841-4.976-4.239-6.121
	c-2.398-1.146-5.222-0.936-7.425,0.55c-0.107,0.072-10.882,7.309-24.527,13.786c-16.868,8.007-30.776,11.316-39.106,9.335
	c-2.817-0.845-8.84-4.109-5.481-16.251c1.029-3.718-0.931-7.61-4.531-8.997c-3.597-1.383-7.664,0.185-9.396,3.631
	c-9.145,18.201-29.329,49.611-62.586,57.774c-1.497-1.556-5.336-6.638-11.293-21.948c-4.397-11.299-7.638-22.307-8.07-24.099
	c-0.551-2.293-1.076-4.594-1.561-6.836c-0.875-4.047-4.868-6.617-8.913-5.745c-4.048,0.876-6.62,4.866-5.745,8.914
	c0.509,2.354,1.06,4.767,1.638,7.173c0.829,3.447,5.088,17.403,10.223,29.904c2.637,6.42,5.447,12.589,8.603,17.491
	c-12.64,5.775-21.45,18.528-21.45,33.309c0,12.933,6.747,24.312,16.9,30.826c1.214,53.43-2.179,117.038-12.547,140.021
	c-2.012,4.459-1.635,9.564,1.009,13.657c2.619,4.055,7.07,6.476,11.905,6.476h21.576c4.141,0,7.499-3.357,7.499-7.499
	s-3.357-7.499-7.499-7.499H86.988c10.253-24.063,13.714-78.66,13.652-125.813c6.639,57.021,55.228,101.425,114.002,101.425h20.362
	c0,0.769-0.003,1.608-0.018,2.364c-0.66,0.1-1.39,0.202-2.083,0.299l-0.81,0.113c-8.314,1.171-16.316,4.392-23.14,9.315
	c-4.753,3.428-8.816,7.609-12.112,12.297H160.33c-4.141,0-7.499,3.357-7.499,7.499s3.357,7.499,7.499,7.499h29.196
	c-1.452,4.813-2.223,9.858-2.223,14.989v42.655c0,4.142,3.357,7.499,7.499,7.499h135.602c4.141,0,7.499-3.357,7.499-7.499v-42.655
	c0-5.131-0.771-10.176-2.223-14.989h90.495c4.836,0,9.286-2.421,11.905-6.476c2.644-4.093,3.02-9.198,1.009-13.657
	c-10.42-23.096-13.78-86.469-12.537-140.352c2.417-1.599,4.66-3.482,6.656-5.639c6.276-6.783,9.732-15.61,9.732-24.856
	c0-14.918-8.974-27.771-21.804-33.469c3.853-6.886,8.532-18.943,14.265-40.885C440.922,160.397,444.913,139.729,445.679,135.353z
	 M99.347,276.705c-9.122-2.532-15.837-10.91-15.837-20.828c0-9.917,6.714-18.295,15.837-20.827V276.705z M114.855,292.69v-62.199
	c25.103-8.246,43.033-27.175,54.808-44.417c5.009,7.624,12.767,9.776,13.744,10.023c2.83,0.684,5.827,0.993,8.94,0.993
	c19.734-0.002,43.939-12.43,57.244-20.272c5.992,19.233,20.987,19.489,21.727,19.489c0.103,0,0.206-0.002,0.31-0.007
	c34.636-1.431,58.954-26.808,71.852-44.641c1.681,7.29,4.102,15.96,7.529,24.899c10.597,27.645,26.423,46.006,46.089,53.659v62.471
	c0,55.022-44.764,99.786-99.786,99.786h-82.67C159.619,392.477,114.855,347.713,114.855,292.69z M275.321,412.292
	c-11.085,4.25-20.524,1.738-25.419-0.303c0.076-1.212,0.094-2.504,0.097-3.898h25.204
	C275.207,409.602,275.227,410.994,275.321,412.292z M217.726,431.728c4.857-3.503,10.547-5.795,16.457-6.628l0.796-0.111
	c1.963-0.274,3.769-0.527,5.416-0.931c3.826,2.016,12.091,5.579,22.758,5.579c6.665,0,14.265-1.4,22.294-5.433
	c1.473,0.321,3.065,0.546,4.779,0.786l0.795,0.111c5.91,0.833,11.601,3.124,16.458,6.628c7.596,5.478,12.769,13.615,14.639,22.624
	h-24.652c-4.141,0-7.499,3.357-7.499,7.499v35.154h-54.73V463.51c0-4.142-3.357-7.499-7.499-7.499H202.78
	C204.331,446.345,209.666,437.54,217.726,431.728z M202.299,471.006h17.94v25.998h-17.94V471.006z M304.964,497.004v-27.656h17.94
	v27.656H304.964z M328.942,431.861c-0.188,0-0.373,0.015-0.558,0.028c-3.3-4.7-7.37-8.891-12.132-12.326
	c-6.824-4.923-14.826-8.144-23.141-9.315l-0.81-0.113c-0.693-0.097-1.423-0.199-2.083-0.299c-0.015-0.756-0.017-1.594-0.018-2.364
	h7.112c58.776,0,107.366-44.408,114.002-101.432c-0.076,47.446,3.377,101.719,13.651,125.82h-96.023V431.861z M427.943,255.877
	c0,5.458-2.04,10.669-5.743,14.671c0,0,0,0,0,0.001c-2.791,3.016-6.261,5.119-10.093,6.17V235.05
	C421.228,237.582,427.943,245.96,427.943,255.877z"/>
<g>
	<circle style="fill:#E8979F;" cx="168.12" cy="309.661" r="15.987"/>
	<circle style="fill:#E8979F;" cx="341.73" cy="309.661" r="15.987"/>
</g>
<path d="M285.528,357.893c-4.142,0-7.5-3.357-7.5-7.5v-1.099c0-9.085-7.391-16.476-16.476-16.476s-16.476,7.391-16.476,16.476v1.099
	c0,4.143-3.358,7.5-7.5,7.5s-7.5-3.357-7.5-7.5v-1.099c0-17.355,14.12-31.476,31.476-31.476s31.476,14.12,31.476,31.476v1.099
	C293.028,354.535,289.67,357.893,285.528,357.893z"/>
<path d="M214.49,270.862c-4.142,0-7.5-3.357-7.5-7.5v-21.561c0-4.143,3.358-7.5,7.5-7.5s7.5,3.357,7.5,7.5v21.561
	C221.99,267.504,218.632,270.862,214.49,270.862z"/>
<path d="M295.361,270.862c-4.142,0-7.5-3.357-7.5-7.5v-21.561c0-4.143,3.358-7.5,7.5-7.5s7.5,3.357,7.5,7.5v21.561
	C302.861,267.504,299.503,270.862,295.361,270.862z"/>
<g>
	<path style="fill:#512C0E;" d="M286.056,244.866c-3.014,0-5.856-1.83-7.002-4.812c-1.486-3.867,0.444-8.206,4.311-9.691
		l30.598-11.757c3.864-1.486,8.205,0.445,9.691,4.311c1.486,3.867-0.444,8.206-4.311,9.691l-30.598,11.757
		C287.86,244.705,286.95,244.866,286.056,244.866z"/>
	<path style="fill:#512C0E;" d="M223.795,244.866c-0.895,0-1.804-0.161-2.688-0.501l-30.598-11.757
		c-3.867-1.485-5.797-5.824-4.311-9.691c1.485-3.866,5.825-5.794,9.691-4.311l30.598,11.757c3.867,1.485,5.797,5.824,4.311,9.691
		C229.652,243.036,226.809,244.866,223.795,244.866z"/>
</g>
<path d="M271.915,302.079h-17.458c-4.142,0-7.5-3.357-7.5-7.5v-33.478c0-4.143,3.358-7.5,7.5-7.5s7.5,3.357,7.5,7.5v25.979h9.958
	c4.142,0,7.5,3.357,7.5,7.5S276.057,302.079,271.915,302.079z"/>
<g>
</g>
<g>
</g>
<g>
</g>
<g>
</g>
<g>
</g>
<g>
</g>
<g>
</g>
<g>
</g>
<g>
</g>
<g>
</g>
<g>
</g>
<g>
</g>
<g>
</g>
<g>
</g>
<g>
</g>
</svg>
