<?xml version="1.0" encoding="iso-8859-1"?>
<!-- Generator: Adobe Illustrator 19.0.0, SVG Export Plug-In . SVG Version: 6.00 Build 0)  -->
<svg version="1.1" id="Capa_1" xmlns="http://www.w3.org/2000/svg" xmlns:xlink="http://www.w3.org/1999/xlink" x="0px" y="0px"
	 viewBox="0 0 511.997 511.997" style="enable-background:new 0 0 511.997 511.997;" xml:space="preserve">
<path style="fill:#F0D0B4;" d="M297.532,400.588h-82.63c-59.259,0-107.298-48.039-107.298-107.298V122.703h297.227V293.29
	C404.83,352.549,356.791,400.588,297.532,400.588z"/>
<path style="fill:#BF8540;" d="M351.065,371.727c-9.137,6.161-12.773,17.285-13.669,27.794c-1.051,12.317,2.625,24.349,9.465,34.545
	c4.742,7.07,12.601,11.554,17.014,18.825c4.747,7.821,2.953,17.957,13.185,7.657c16.578-16.688,18.286-38.892,15.516-60.813
	C390.07,379.907,372.07,357.567,351.065,371.727z"/>
<path d="M374.752,459.516h0.011H374.752z"/>
<path style="fill:#ECC19C;" d="M406.576,237.765h-1.743V122.703h-42.412v170.601c0,59.256-48.022,107.279-107.278,107.279h42.412
	c58.347,0,105.822-46.581,107.245-104.598h1.776c8.447,0,16.054-3.598,21.372-9.345c4.803-5.191,7.738-12.135,7.738-19.764
	C435.686,250.798,422.653,237.765,406.576,237.765z"/>
<g>
	<circle style="fill:#E8979F;" cx="169.431" cy="322.37" r="15.984"/>
	<circle style="fill:#E8979F;" cx="343.001" cy="322.37" r="15.984"/>
</g>
<path style="fill:#BF8540;" d="M294.104,7.499c-34.168,0-71.771,0-105.877,0c-60.328,0-109.554,52.761-110.713,113.078
	c-0.625,32.537-1.281,65.074-1.19,97.596c0.15,53.335,1.704,108.928,42.191,149.085c0.047,0.047,0.094,0.093,0.141,0.139
	c2.976,2.908,7.791-0.44,6.209-4.289c-5.455-13.269-9.279-29.14-9.279-29.14C89.963,194.432,223.016,175.76,223.334,175.716
	c21.753-3.028,44.222,0.302,65.086-8.204c15.259-6.223,31.503-15.911,38.138-31.476c1.651,20.554,16.817,38.332,30.839,52.232
	c19.676,19.504,47.433,41.158,47.434,71.628c0-0.175,0-137.037,0.003-137.191l0,0C404.834,61.546,355.261,7.499,294.104,7.499z"/>
<path style="fill:#A06D3F;" d="M372.407,42.163c-20.038-21.152-47.714-34.668-78.301-34.668h-44.211
	c30.588,0,58.263,13.515,78.301,34.668c20.039,21.166,32.44,49.969,32.44,80.543c-0.013,0.081-0.013,34.413-0.013,68.718
	c19.34,18.683,44.211,39.62,44.211,68.463V122.706C404.834,92.132,392.446,63.329,372.407,42.163z"/>
<path style="fill:#F3D1BB;" d="M324.019,504.501v-42.655c0-14.243-6.988-27.873-18.538-36.204c-5.836-4.21-12.673-6.967-19.799-7.97
	c-9.241-1.301-9.365-1.02-9.365-10.698c0-0.026,0-6.386,0-6.386h-40.2c0,0,0,6.36,0,6.386c0,9.677-0.123,9.397-9.365,10.698
	c-7.127,1.003-13.963,3.761-19.799,7.97c-11.55,8.331-18.538,21.961-18.538,36.204v42.655H324.019z"/>
<path style="fill:#F5A5C7;" d="M324.016,461.848v42.654H188.418v-42.654c0-14.246,6.982-27.875,18.531-36.202
	c3.73-2.69,7.866-4.785,12.229-6.208c2.463-0.805,5.004-1.4,7.577-1.767c3.769-0.532,6.021-0.79,7.365-1.579l1.728,0.383
	l4.355,2.463c9.844,5.583,21.878,5.622,31.761,0.109l4.621-2.572l1.728-0.383c1.345,0.79,3.597,1.048,7.365,1.579
	c2.573,0.367,5.114,0.962,7.577,1.767c4.363,1.423,8.499,3.519,12.229,6.208C317.033,433.973,324.016,447.601,324.016,461.848z"/>
<rect x="226.631" y="460.3" style="fill:#FFFFFF;" width="59.17" height="44.2"/>
<path d="M268.744,361.851H243.69c-4.142,0-7.499-3.357-7.499-7.499s3.357-7.499,7.499-7.499h25.054c4.142,0,7.499,3.357,7.499,7.499
	S272.886,361.851,268.744,361.851z"/>
<path style="fill:#BF8540;" d="M316.667,216.863h-31.854c-4.142,0-7.499-3.357-7.499-7.499s3.357-7.499,7.499-7.499h31.854
	c4.142,0,7.499,3.357,7.499,7.499S320.809,216.863,316.667,216.863z"/>
<path d="M300.74,304.884c-4.142,0-7.499-3.357-7.499-7.499V273.45c0-4.142,3.357-7.499,7.499-7.499s7.499,3.357,7.499,7.499v23.935
	C308.239,301.527,304.882,304.884,300.74,304.884z"/>
<path d="M208.854,304.884c-4.142,0-7.499-3.357-7.499-7.499V273.45c0-4.142,3.357-7.499,7.499-7.499s7.499,3.357,7.499,7.499v23.935
	C216.352,301.527,212.996,304.884,208.854,304.884z"/>
<path style="fill:#BF8540;" d="M226.199,274.608h-31.854c-4.142,0-7.499-3.357-7.499-7.499s3.357-7.499,7.499-7.499h31.854
	c4.142,0,7.499,3.357,7.499,7.499S230.341,274.608,226.199,274.608z"/>
<path d="M412.329,230.721c0-39.908,0.001-106.754,0.003-107.984c0-0.012,0-0.023,0-0.035C412.332,56.191,358.19,0,294.104,0
	L188.227,0.001c-1.975,0-3.972,0.054-5.937,0.159c-4.136,0.223-7.308,3.755-7.086,7.89c0.223,4.136,3.76,7.3,7.89,7.086
	c1.698-0.092,3.424-0.138,5.132-0.138l105.877-0.001c55.956,0,103.23,49.323,103.23,107.705h0.001
	c-0.002,1.043-0.003,10.237-0.004,96.378c-7.685-10.339-17.313-19.512-26.376-28.149c-2.909-2.772-5.656-5.391-8.28-7.991
	c-12.56-12.45-27.164-29.101-28.644-47.507c-0.276-3.44-2.864-6.246-6.27-6.801c-3.402-0.557-6.75,1.287-8.103,4.461
	c-4.649,10.906-16.112,20.149-34.07,27.472c-12.348,5.034-25.572,5.52-39.573,6.033c-7.738,0.284-15.74,0.578-23.704,1.687
	c-2.46,0.338-60.634,8.829-94.486,55.626c-21.207,29.319-27.807,66.802-19.617,111.41c0.025,0.135,0.054,0.268,0.086,0.402
	c0.471,1.96,1.576,6.372,3.199,11.832c-10.364-14.361-17.57-31.353-21.869-51.468c-5.226-24.453-5.727-50.819-5.803-77.937
	c-0.087-31.135,0.523-62.848,1.113-93.515l0.076-3.916c0.708-36.843,20.663-71.728,52.079-91.041
	c3.528-2.169,4.63-6.788,2.461-10.316c-2.171-3.529-6.789-4.63-10.316-2.462C93.51,38.862,70.818,78.532,70.013,120.43l-0.075,3.915
	c-0.592,30.75-1.203,62.546-1.116,93.846c0.138,49.296,0.31,110.648,44.409,154.388c3.057,3.032,6.507,5.283,9.551,7.27
	c2.325,1.517,4.52,2.951,6.248,4.521c0.001,0.001,0.002,0.002,0.003,0.003c1.436,1.305,3.242,1.95,5.042,1.95
	c2.039,0,4.071-0.827,5.551-2.455c0.707-0.777,1.218-1.663,1.54-2.597c20.332,17.039,46.286,26.812,73.714,26.812h13.734
	c-0.002,0.587-0.006,1.19-0.017,1.747c-0.66,0.1-1.39,0.202-2.083,0.299l-0.81,0.113c-8.313,1.171-16.316,4.392-23.141,9.315
	c-13.555,9.778-21.65,25.585-21.651,42.285v42.656c0,4.142,3.357,7.499,7.499,7.499h38.218h59.17h38.218
	c4.142,0,7.499-3.357,7.499-7.499v-42.657c-0.001-16.699-8.095-32.506-21.651-42.284c-6.825-4.923-14.827-8.144-23.142-9.315
	l-0.809-0.113c-0.692-0.097-1.423-0.199-2.083-0.299c-0.011-0.557-0.015-1.159-0.017-1.747h13.734
	c10.987,0,21.815-1.612,32.177-4.658c-0.07,12.053,3.653,24.003,10.906,34.814c2.744,4.09,6.087,7.22,9.32,10.247
	c2.952,2.764,5.741,5.375,7.511,8.292c0.903,1.489,1.543,3.338,2.163,5.126c1.311,3.786,3.108,8.972,8.772,10.265
	c0.742,0.169,1.468,0.248,2.178,0.248c4.574,0,8.499-3.262,11.803-6.587c20.759-20.899,20.007-48.269,17.635-67.039
	c-1.508-11.935-7.467-23.314-15.487-30.616c1.807-2.093,3.551-4.248,5.211-6.482c2.469-3.324,1.777-8.021-1.548-10.491
	c-3.325-2.469-8.022-1.777-10.491,1.548c-19.046,25.634-48.259,40.336-80.148,40.336h-21.234h-40.2h-21.234
	c-36.616,0-70.234-20.006-87.735-52.212c-1.595-2.934-3.032-5.954-4.323-9.034c-7.192-39.991-1.465-73.292,17.035-98.975
	c29.938-41.562,83.972-49.649,84.509-49.725c7.22-1.006,14.496-1.272,22.198-1.555c14.689-0.539,29.878-1.097,44.684-7.133
	c13.719-5.595,24.434-12.41,32.046-20.362c6.264,15.637,18.187,28.959,28.819,39.498c2.729,2.705,5.528,5.373,8.493,8.198
	c17.212,16.401,36.72,34.99,36.722,58.102v33.417c0,4.922-0.361,9.868-1.075,14.703c-0.604,4.097,2.227,7.909,6.324,8.513
	c0.371,0.055,0.74,0.081,1.104,0.081c3.657,0,6.859-2.679,7.409-6.405c0.347-2.352,0.605-4.73,0.806-7.115
	c8.207-1.215,15.861-5.199,21.553-11.352c6.276-6.782,9.732-15.61,9.732-24.857C443.186,248.646,429.792,233.49,412.329,230.721z
	 M344.868,400.159c0.068-0.801,0.161-1.634,0.275-2.485c10.474-4.783,20.23-11.116,28.882-18.819
	c5.563,4.8,10.032,13.276,11.112,21.82c3.052,24.16-0.875,41.218-12.353,53.507c-0.634-1.637-1.423-3.41-2.499-5.182
	c-2.838-4.676-6.686-8.279-10.081-11.457c-2.739-2.565-5.326-4.987-7.115-7.654C346.845,420.582,344.003,410.302,344.868,400.159z
	 M278.303,497.002h-44.172v-29.208h44.172V497.002z M283.841,424.985l0.795,0.111c5.91,0.832,11.602,3.125,16.458,6.628
	c9.66,6.967,15.426,18.227,15.427,30.121v35.157H293.3v-36.707c0-4.142-3.357-7.499-7.499-7.499h-59.17
	c-4.142,0-7.499,3.357-7.499,7.499v36.707h-23.221v-35.156c0.001-11.895,5.768-23.155,15.427-30.122
	c4.857-3.503,10.548-5.796,16.457-6.628l0.796-0.111c1.963-0.274,3.769-0.527,5.416-0.931c3.826,2.016,12.091,5.579,22.759,5.579
	c6.665,0,14.266-1.4,22.296-5.433C280.536,424.521,282.128,424.746,283.841,424.985z M268.819,408.087
	c0.003,1.511,0.023,2.904,0.117,4.202c-11.084,4.251-20.524,1.738-25.419-0.304c0.076-1.212,0.094-2.504,0.097-3.898H268.819z
	 M422.443,281.545L422.443,281.545c-2.791,3.017-6.261,5.119-10.092,6.17v-41.666c9.121,2.532,15.834,10.91,15.834,20.826
	C428.186,272.333,426.147,277.543,422.443,281.545z"/>
<path d="M265.079,311.176h-9.923v-26.047c0-4.241-3.47-7.71-7.71-7.71c-4.241,0-7.71,3.47-7.71,7.71v34.045
	c0,4.011,3.105,7.327,7.029,7.676c0.273,0.029,0.55,0.045,0.83,0.045h17.484c4.323,0,7.859-3.537,7.859-7.859
	C272.939,314.713,269.402,311.176,265.079,311.176z"/>
<g>
</g>
<g>
</g>
<g>
</g>
<g>
</g>
<g>
</g>
<g>
</g>
<g>
</g>
<g>
</g>
<g>
</g>
<g>
</g>
<g>
</g>
<g>
</g>
<g>
</g>
<g>
</g>
<g>
</g>
</svg>
