<?xml version="1.0" encoding="iso-8859-1"?>
<!-- Generator: Adobe Illustrator 19.0.0, SVG Export Plug-In . SVG Version: 6.00 Build 0)  -->
<svg version="1.1" id="Capa_1" xmlns="http://www.w3.org/2000/svg" xmlns:xlink="http://www.w3.org/1999/xlink" x="0px" y="0px"
	 viewBox="0 0 511.999 511.999" style="enable-background:new 0 0 511.999 511.999;" xml:space="preserve">
<path style="fill:#F3D1BB;" d="M109.701,129.794v107.537h-2.549c-16.103,0-29.156,13.053-29.156,29.156l0,0
	c0,16.103,13.053,29.156,29.156,29.156h2.744c3.275,55.381,49.219,99.285,105.422,99.285h20.798c0,6.179,0,11.869,0,11.881
	c0,9.693-0.124,9.412-9.379,10.715c-7.138,1.005-13.985,3.766-19.831,7.983c-11.569,8.344-18.568,21.995-18.568,36.261v42.723
	h135.82v-42.723c0-14.265-7-27.917-18.568-36.261c-5.846-4.216-12.692-6.978-19.831-7.983c-9.256-1.303-9.379-1.022-9.379-10.715
	c0-0.012,0-5.702,0-11.881h20.798c58.331,0,105.616-47.286,105.616-105.616V129.795L109.701,129.794L109.701,129.794z"/>
<path style="fill:#423D34;" d="M324.154,461.768v42.721H188.342v-42.721c0-14.269,6.994-27.919,18.56-36.259
	c3.735-2.694,7.878-4.793,12.248-6.218c2.466-0.807,5.012-1.402,7.588-1.77c3.774-0.533,6.03-0.791,7.377-1.582l1.731,0.384
	l4.362,2.466c9.86,5.592,21.912,5.631,31.811,0.11l4.628-2.576l1.731-0.384c1.347,0.791,3.602,1.05,7.377,1.582
	c2.576,0.368,5.122,0.963,7.588,1.77c4.37,1.426,8.512,3.524,12.248,6.218C317.161,433.849,324.154,447.499,324.154,461.768z"/>
<path style="fill:#ECC19C;" d="M404.846,237.331h-2.049V129.794h-41.822v159.342c0,58.432-47.354,105.786-105.786,105.786h41.822
	c56.233,0,102.219-43.88,105.581-99.279h2.254c8.46,0,16.08-3.604,21.406-9.36c4.81-5.199,7.75-12.153,7.75-19.796l0,0
	C434.001,250.384,420.948,237.331,404.846,237.331z"/>
<path style="fill:#CA3042;" d="M339.68,385.965c-13.049,5.772-27.489,8.965-42.671,8.965h-81.522
	c-15.193,0-29.643-3.204-42.692-8.975c3.458-21.495,11.894-37.164,22.109-48.57c32.305-36.04,89.267-36.018,122.019-0.382
	C327.426,348.449,336.115,364.215,339.68,385.965z"/>
<g>
	<circle style="fill:#E8979F;" cx="170.673" cy="286.439" r="15.762"/>
	<circle style="fill:#E8979F;" cx="341.828" cy="286.439" r="15.762"/>
</g>
<path style="fill:#CA3042;" d="M152.744,44.609c1.769-2.909,3.006-6.172,3.376-10.018c0.822-8.547-3.294-16.365,2.892-24.121
	c5.205-6.526,13.189-0.532,18.716,1.776c7.253,3.029,14.488,4.43,22.521,5.275c18.087,1.902,36.346,0.921,54.434,2.864
	c62.763,6.745,147.53,27.721,147.53,106c0,0.057,0,129.609,0,129.609l-30.806-19.285c-1.46-0.914-2.346-2.514-2.346-4.237v-70.563
	c0-3.63-2.942-6.573-6.573-6.573H150.006c-3.63,0-6.573,2.942-6.573,6.573v70.563c0,1.723-0.887,3.323-2.347,4.237l-30.805,19.285
	V126.386c0-23.823,9.313-47.061,25.767-64.289C141.645,56.238,148.629,51.378,152.744,44.609z"/>
<path style="fill:#B0142F;" d="M402.212,126.383c0,0.06,0,129.614,0,129.614l-30.803-19.289c-1.46-0.914-2.346-2.514-2.346-4.237
	v-70.562c0-1.054-0.251-2.047-0.692-2.929v-32.596c0-78.277-87.061-76.34-149.828-83.082c-12.372-1.332-25.879-3.493-37.488-8.022
	c-6.728-2.624-26.667-16.331-21.019-25.625c3.54-5.825,13.525,0.855,17.691,2.595c7.253,3.029,14.487,4.424,22.523,5.267
	c18.089,1.907,36.349,0.923,54.428,2.869C317.445,27.129,402.212,48.107,402.212,126.383z"/>
<path style="fill:#FFFFFF;" d="M226.312,342.714v1.372c0,16.534,13.403,29.936,29.936,29.936l0,0
	c16.534,0,29.936-13.403,29.936-29.936v-1.372H226.312z"/>
<path d="M274.142,272.137c-3.741-1.791-8.225-0.205-10.014,3.538c-1.416,2.962-4.45,4.876-7.729,4.876
	c-3.448,0-6.545-2.053-7.888-5.229c-1.616-3.821-6.022-5.607-9.843-3.991c-3.82,1.616-5.608,6.022-3.991,9.843
	c3.698,8.747,12.225,14.398,21.722,14.398c9.032,0,17.387-5.268,21.282-13.421C279.468,278.409,277.884,273.925,274.142,272.137z"/>
<path d="M210.188,214.6c-4.148,0-7.51,3.362-7.51,7.51v40.453c0,4.148,3.362,7.51,7.51,7.51c4.148,0,7.51-3.362,7.51-7.51v-40.453
	C217.7,217.963,214.337,214.6,210.188,214.6z"/>
<path d="M302.307,214.6c-4.148,0-7.51,3.362-7.51,7.51v40.453c0,4.148,3.362,7.51,7.51,7.51s7.51-3.362,7.51-7.51v-40.453
	C309.817,217.963,306.455,214.6,302.307,214.6z"/>
<path d="M256.248,381.531c20.649,0,37.446-16.798,37.446-37.446v-1.372c0-4.148-3.362-7.51-7.51-7.51h-59.871
	c-4.148,0-7.51,3.362-7.51,7.51v1.372C218.801,364.734,235.6,381.531,256.248,381.531z M277.819,350.224
	c-2.676,9.391-11.334,16.287-21.572,16.287c-10.238,0-18.895-6.896-21.571-16.287H277.819z"/>
<path d="M409.724,230.154V126.386c0-37.705-18.214-66.78-54.137-86.416c-24.968-13.647-57.712-22.496-100.101-27.051
	c-9.41-1.011-18.869-1.256-28.017-1.494c-8.725-0.226-17.748-0.46-26.433-1.373c-8.5-0.894-14.605-2.311-20.412-4.736
	c-0.77-0.321-1.735-0.802-2.756-1.312c-5.412-2.695-16.678-8.308-24.725,1.783c-6.057,7.593-5.328,15.217-4.743,21.342
	c0.229,2.398,0.446,4.665,0.245,6.745c-0.235,2.448-0.972,4.62-2.318,6.835c-2.182,3.59-5.705,6.802-9.433,10.202
	c-2.079,1.897-4.229,3.858-6.276,6c-17.697,18.529-27.846,43.852-27.846,69.475V230.09c-18.159,2.173-32.286,17.66-32.286,36.395
	c0,18.824,14.261,34.374,32.545,36.429c4.886,40.124,30.827,73.839,66.406,89.732c0.109,0.055,0.207,0.125,0.32,0.175
	c7.382,3.268,15.117,5.737,23.029,7.344c11.809,2.398,23.791,2.358,35.82,2.295v4.346c0,0.89,0,1.943-0.019,2.864
	c-0.661,0.1-1.393,0.203-2.086,0.299l-0.812,0.113c-8.326,1.173-16.342,4.399-23.177,9.33
	c-13.577,9.793-21.683,25.625-21.684,42.352v42.723c0,4.148,3.362,7.51,7.51,7.51h135.821c4.148,0,7.51-3.362,7.51-7.51v-42.724
	c-0.001-16.726-8.108-32.557-21.684-42.351c-6.836-4.931-14.851-8.157-23.178-9.33l-0.811-0.113c-0.694-0.097-1.425-0.2-2.086-0.299
	c-0.019-0.922-0.019-1.975-0.019-2.864v-4.385c20.114-0.12,39.816-1.181,58.828-9.589c0.118-0.052,0.22-0.125,0.333-0.182
	c35.604-15.902,61.557-49.65,66.421-89.806c8.485-1.088,16.428-5.124,22.292-11.464c6.286-6.794,9.747-15.636,9.747-24.896
	C441.513,247.922,427.643,232.548,409.724,230.154z M101.369,287.347c-9.137-2.535-15.863-10.928-15.863-20.862
	c0-9.933,6.726-18.324,15.863-20.861V287.347z M235.106,496.978h-39.258v-35.212c0.001-11.914,5.777-23.192,15.452-30.17
	c3.097-2.234,6.537-3.972,10.153-5.158l-2.519,13.333c-0.542,2.863,0.623,5.782,2.986,7.486l13.185,9.509v40.211H235.106z
	 M262.369,452.925v44.054h-12.242v-44.054c0-2.413-1.16-4.68-3.117-6.092l-12.429-8.965l2.37-12.545
	c4.432,1.937,11.378,4.18,19.85,4.18c5.694,0,12.07-1.02,18.813-3.825l2.303,12.191l-12.429,8.965
	C263.529,448.246,262.369,450.511,262.369,452.925z M243.528,411.826c0.076-1.214,0.094-2.507,0.097-3.904h25.245
	c0.003,1.514,0.023,2.908,0.117,4.208C257.886,416.388,248.431,413.871,243.528,411.826z M290.575,447.259
	c2.364-1.705,3.528-4.623,2.986-7.486l-2.519-13.333c3.616,1.187,7.056,2.923,10.153,5.158c9.675,6.978,15.451,18.256,15.452,30.169
	v35.213h-39.258v-40.211L290.575,447.259z M395.284,289.139c0,36.757-20.287,68.86-50.247,85.714
	c-4.192-16.721-11.756-31.134-22.582-42.933c-25.363-27.598-65.772-36.64-100.555-22.496c-3.842,1.562-5.691,5.944-4.128,9.786
	c1.562,3.842,5.94,5.695,9.786,4.128c29.001-11.792,62.694-4.26,83.832,18.743c9.692,10.561,16.321,23.733,19.75,39.22
	c0.203,0.916-14.399,4.012-15.802,4.399c-5.821,1.606-12.108,1.702-18.115,1.715c-0.072,0-0.143,0.003-0.214,0.003
	c-5.267,0-87.217,0.807-100.888-1.922c-0.219-0.044-0.439-0.087-0.658-0.133c-4.855-1.009-9.578-2.379-14.144-4.077
	c2.118-9.724,5.489-18.571,10.055-26.363c2.098-3.579,0.896-8.18-2.682-10.277c-3.579-2.097-8.18-0.896-10.277,2.682
	c-4.847,8.27-8.53,17.487-11.008,27.494c-29.931-16.863-50.193-48.949-50.193-85.683v-27.07c0-0.5-0.051-0.988-0.145-1.461
	l30.351-19c2.194-1.373,3.525-3.779,3.525-6.367v-72.393h135.24c4.148,0,7.51-3.362,7.51-7.51s-3.362-7.51-7.51-7.51H150.006
	c-7.765,0-14.083,6.318-14.083,14.083v69.172l-18.13,11.35V126.387c0-21.797,8.634-43.34,23.688-59.102
	c1.687-1.767,3.556-3.469,5.534-5.274c4.349-3.965,8.845-8.066,12.148-13.499c2.529-4.163,3.98-8.48,4.434-13.199
	c0.337-3.513,0.028-6.753-0.246-9.611c-0.497-5.202-0.639-7.822,1.534-10.546c0.044-0.056,0.082-0.099,0.127-0.132
	c1.283,0,4.43,1.568,6.157,2.428c1.197,0.597,2.435,1.213,3.665,1.727c7.135,2.979,14.73,4.772,24.631,5.814
	c9.275,0.975,18.598,1.217,27.616,1.451c8.847,0.229,17.997,0.467,26.8,1.412c40.388,4.34,71.3,12.615,94.501,25.298
	c31.169,17.037,46.32,40.993,46.32,73.235v116.046l-18.13-11.35v-69.172c0-7.765-6.318-14.083-14.083-14.083h-23.792
	c-4.148,0-7.51,3.362-7.51,7.51c0,4.148,3.362,7.51,7.51,7.51h22.854v72.393c0,2.587,1.332,4.993,3.525,6.367l30.206,18.91
	L395.284,289.139L395.284,289.139z M420.738,281.181c-2.795,3.021-6.272,5.128-10.11,6.18v-41.735
	c9.137,2.535,15.864,10.928,15.864,20.861C426.492,271.952,424.448,277.17,420.738,281.181z"/>
<g>
</g>
<g>
</g>
<g>
</g>
<g>
</g>
<g>
</g>
<g>
</g>
<g>
</g>
<g>
</g>
<g>
</g>
<g>
</g>
<g>
</g>
<g>
</g>
<g>
</g>
<g>
</g>
<g>
</g>
</svg>
