<?xml version="1.0" encoding="iso-8859-1"?>
<!-- Generator: Adobe Illustrator 19.0.0, SVG Export Plug-In . SVG Version: 6.00 Build 0)  -->
<svg version="1.1" id="Capa_1" xmlns="http://www.w3.org/2000/svg" xmlns:xlink="http://www.w3.org/1999/xlink" x="0px" y="0px"
	 viewBox="0 0 512 512" style="enable-background:new 0 0 512 512;" xml:space="preserve">
<path style="fill:#F3D1BB;" d="M108.634,130.642v106.766h-1.659c-16.098,0-29.148,13.05-29.148,29.148l0,0
	c0,16.098,13.05,29.148,29.148,29.148h1.768c2.455,56.529,49.054,101.606,106.188,101.606h20.971c0,4.664,0,9.513,0,9.528
	c0,9.69-0.123,9.409-9.377,10.712c-7.136,1.005-13.981,3.766-19.825,7.981c-11.565,8.341-18.563,21.99-18.563,36.251v42.711H323.92
	v-42.711c0-14.261-6.997-27.909-18.563-36.251c-5.844-4.216-12.689-6.976-19.825-7.981c-9.253-1.303-9.376-1.022-9.376-10.712
	c0-0.013,0-4.864,0-9.528h20.971c58.706,0,106.297-47.591,106.297-106.297V130.642H108.634z"/>
<path style="fill:#ECC19C;" d="M406.583,237.408h-3.158V130.642h-42.064v160.264c0,58.77-47.629,106.399-106.399,106.399h42.064
	c57.149,0,103.777-45.059,106.286-101.601h3.27c8.458,0,16.076-3.603,21.399-9.357c4.809-5.198,7.748-12.151,7.748-19.79l0,0
	C435.73,250.458,422.681,237.408,406.583,237.408z"/>
<g>
	<circle style="fill:#E8979F;" cx="169.957" cy="319.731" r="15.853"/>
	<circle style="fill:#E8979F;" cx="342.104" cy="319.731" r="15.853"/>
</g>
<path style="fill:#ED7149;" d="M445.774,206.826C467.058,103.654,385.697,7.508,279.117,7.508H260.42h-8.784h-18.697
	c-106.58,0-187.94,96.145-166.657,199.317c5.768,27.959,18.688,53.753,42.693,73.236c0,0,3.758-53.42,21.667-90.168h120.993h8.784
	h120.993c17.91,36.748,21.667,90.168,21.667,90.168C427.086,260.578,440.006,234.786,445.774,206.826z"/>
<path style="fill:#D86344;" d="M445.77,206.822c-5.764,27.967-18.689,53.752-42.69,73.24c0,0-3.754-53.419-21.671-90.171h-1.384
	c9.305-92.928-62.843-175.991-158.14-182.034c3.648-0.226,7.334-0.346,11.049-0.346h46.19
	C385.695,7.51,467.054,103.659,445.77,206.822z"/>
<path style="fill:#32B2AC;" d="M323.916,461.782v42.709H188.141v-42.709c0-14.265,6.991-27.911,18.555-36.25
	c3.735-2.693,7.876-4.792,12.245-6.216c2.466-0.806,5.011-1.401,7.586-1.769c3.774-0.532,6.029-0.791,7.375-1.581l1.73,0.384
	l4.361,2.466c9.857,5.59,21.906,5.629,31.802,0.11l4.627-2.575l1.73-0.384c1.346,0.791,3.602,1.049,7.375,1.581
	c2.575,0.368,5.121,0.963,7.586,1.769c4.369,1.425,8.51,3.524,12.245,6.216C316.924,433.87,323.916,447.517,323.916,461.782z"/>
<path d="M264.767,327.879h-17.478c-4.147,0-7.508-3.362-7.508-7.508v-33.517c0-4.148,3.362-7.508,7.508-7.508
	c4.147,0,7.508,3.362,7.508,7.508v26.009h9.969c4.148,0,7.508,3.362,7.508,7.508C272.274,324.517,268.914,327.879,264.767,327.879z"
	/>
<path d="M195.889,273.909c-4.147,0-7.508-3.362-7.508-7.508v-23.008c0-4.148,3.362-7.508,7.508-7.508
	c4.147,0,7.508,3.362,7.508,7.508v23.008C203.397,270.548,200.036,273.909,195.889,273.909z"/>
<path d="M304.762,273.909c-4.148,0-7.508-3.362-7.508-7.508v-23.008c0-4.148,3.362-7.508,7.508-7.508
	c4.148,0,7.508,3.362,7.508,7.508v23.008C312.272,270.548,308.91,273.909,304.762,273.909z"/>
<g>
	<path style="fill:#ED7149;" d="M210.943,243.52h-30.108c-4.147,0-7.508-3.362-7.508-7.508c0-4.148,3.362-7.508,7.508-7.508h30.108
		c4.147,0,7.508,3.362,7.508,7.508C218.452,240.159,215.09,243.52,210.943,243.52z"/>
	<path style="fill:#ED7149;" d="M320.073,243.52h-30.108c-4.148,0-7.508-3.362-7.508-7.508c0-4.148,3.362-7.508,7.508-7.508h30.108
		c4.148,0,7.508,3.362,7.508,7.508C327.582,240.159,324.221,243.52,320.073,243.52z"/>
</g>
<path d="M224.957,371.208c-1.08,0-2.176-0.235-3.218-0.728l-18.061-8.583c-3.746-1.78-5.339-6.259-3.559-10.005
	c1.78-3.746,6.258-5.337,10.005-3.56l18.061,8.583c3.746,1.78,5.339,6.259,3.559,10.005
	C230.459,369.626,227.764,371.208,224.957,371.208z"/>
<path d="M417.801,65.652C383.807,23.93,333.259,0,279.117,0h-46.179c-38.503,0-75.133,11.94-105.93,34.531
	c-3.344,2.453-4.066,7.152-1.613,10.496c2.453,3.346,7.152,4.066,10.496,1.614c28.203-20.687,61.762-31.623,97.049-31.623h46.179
	c49.607,0,95.912,21.913,127.041,60.12c29.978,36.795,41.738,84.24,32.261,130.172c-4.887,23.687-14.769,43.492-29.448,59.065
	c-2.452-18.962-8.244-51.99-20.808-77.77c-1.258-2.581-3.879-4.219-6.75-4.219H130.643c-2.871,0-5.492,1.637-6.749,4.219
	c-12.565,25.78-18.357,58.808-20.809,77.77c-14.678-15.576-24.562-35.38-29.448-59.065c-8.794-42.63,0.35-85.82,25.75-121.613
	c2.399-3.383,1.603-8.069-1.778-10.469c-3.381-2.4-8.068-1.604-10.469,1.777c-27.837,39.229-37.856,86.583-28.211,133.339
	c3.18,15.413,8.29,29.379,15.273,41.83c-2.479,4.933-3.885,10.495-3.885,16.383c0,18.438,13.685,33.732,31.43,36.278
	c5.98,57.226,54.503,101.985,113.286,101.985h13.359v2.019c0,0.89,0,1.941-0.018,2.863c-0.661,0.1-1.392,0.202-2.086,0.299
	l-0.811,0.113c-8.324,1.172-16.338,4.398-23.171,9.327c-13.574,9.791-21.678,25.619-21.678,42.34v42.712
	c0,4.148,3.362,7.508,7.508,7.508h135.782c4.147,0,7.508-3.362,7.508-7.508v-33.207c0-4.147-3.362-7.508-7.508-7.508
	c-4.148,0-7.508,3.362-7.508,7.508v25.699h-17.965v-16.759c0-4.148-3.362-7.508-7.508-7.508s-7.508,3.362-7.508,7.508v16.759
	h-54.802v-16.759c0-4.148-3.362-7.508-7.508-7.508c-4.147,0-7.508,3.362-7.508,7.508v16.759h-17.964v-35.203
	c0-11.91,5.774-23.185,15.446-30.16c4.863-3.508,10.562-5.803,16.479-6.636l0.796-0.111c1.965-0.275,3.774-0.528,5.423-0.932
	c3.832,2.019,12.107,5.586,22.789,5.586c6.673,0,14.284-1.401,22.324-5.441c1.475,0.322,3.069,0.547,4.785,0.787l0.796,0.111
	c5.918,0.833,11.617,3.128,16.48,6.636c3.364,2.425,8.058,1.667,10.483-1.697c2.425-3.364,1.666-8.056-1.697-10.483
	c-6.834-4.93-14.846-8.154-23.172-9.327l-0.81-0.113c-0.693-0.097-1.424-0.199-2.085-0.299c-0.019-0.922-0.019-1.974-0.019-2.863
	v-2.019h13.36c58.718,0,107.197-44.661,113.264-101.797c8.829-0.904,17.134-5.009,23.209-11.577
	c6.283-6.792,9.745-15.632,9.745-24.889c0-6.451-1.684-12.511-4.625-17.78c6.586-12.101,11.451-25.59,14.513-40.432
	C463.52,157.97,450.644,105.962,417.801,65.652z M101.125,287.389c-9.037-2.541-15.693-10.817-15.782-20.635
	c4.728,5.949,9.979,11.46,15.782,16.491V287.389z M243.312,411.855c0.076-1.213,0.094-2.507,0.098-3.904h25.237
	c0.003,1.513,0.023,2.908,0.117,4.208C257.665,416.415,248.213,413.899,243.312,411.855z M297.023,389.801h-81.989
	c-53.363,0-96.982-42.487-98.824-95.408v-7.447c0.325-12.064,2.059-24.118,4.14-36.043c1.55-8.885,3.431-17.72,5.77-26.432
	c0.766-2.853,6.738-27.069,9.313-27.069c0.027,0,241.18,0,241.189,0c1.229,0,4.99,12.812,5.488,14.304
	c1.701,5.094,3.192,10.258,4.527,15.459c2.403,9.359,4.305,18.848,5.842,28.387c1.893,11.756,3.435,23.597,3.435,35.358
	C395.914,345.438,351.551,389.801,297.023,389.801z M422.471,281.247c-2.794,3.021-6.27,5.127-10.108,6.178v-5.419
	c5.827-5.207,11.085-10.908,15.791-17.07c0.04,0.535,0.068,1.073,0.068,1.618C428.223,272.021,426.181,277.237,422.471,281.247z"/>
<g>
	<circle style="fill:#FFFFFF;" cx="256.031" cy="449.212" r="7.157"/>
	<circle style="fill:#FFFFFF;" cx="256.031" cy="468.635" r="7.157"/>
</g>
<g>
</g>
<g>
</g>
<g>
</g>
<g>
</g>
<g>
</g>
<g>
</g>
<g>
</g>
<g>
</g>
<g>
</g>
<g>
</g>
<g>
</g>
<g>
</g>
<g>
</g>
<g>
</g>
<g>
</g>
</svg>
