<?xml version="1.0" encoding="iso-8859-1"?>
<!-- Generator: Adobe Illustrator 19.0.0, SVG Export Plug-In . SVG Version: 6.00 Build 0)  -->
<svg version="1.1" id="Capa_1" xmlns="http://www.w3.org/2000/svg" xmlns:xlink="http://www.w3.org/1999/xlink" x="0px" y="0px"
	 viewBox="0 0 511.999 511.999" style="enable-background:new 0 0 511.999 511.999;" xml:space="preserve">
<path style="fill:#33302A;" d="M304.918,78.563h-97.829v-43.94c0-14.977,12.141-27.118,27.118-27.118H277.8
	c14.977,0,27.118,12.141,27.118,27.118V78.563z"/>
<rect x="207.09" y="43.03" style="fill:#C1272D;" width="97.83" height="35.529"/>
<path style="fill:#F3D1BB;" d="M107.512,130.711v106.83h-2.696c-16.09,0-29.133,13.043-29.133,29.133s13.043,29.133,29.133,29.133
	h2.771c1.998,57.324,49.09,103.184,106.901,103.184h21.195c0,4.36,0,7.886,0,7.896c0,9.685-0.123,9.405-9.372,10.707
	c-7.133,1.004-13.974,3.764-19.815,7.977c-11.56,8.338-18.554,21.979-18.554,36.233v42.69h135.715v-42.69
	c0-14.254-6.994-27.895-18.553-36.233c-5.841-4.213-12.683-6.973-19.816-7.977c-9.249-1.302-9.372-1.021-9.372-10.707
	c0-0.01,0-3.536,0-7.896h21.195c59.081,0,106.975-47.894,106.975-106.975V130.711H107.512z"/>
<path style="fill:#ECC19C;" d="M406.732,237.542h-2.192v-106.83h-42.319v161.233c0,59.126-47.917,107.042-107.042,107.042h42.319
	c57.819,0,104.931-45.844,106.966-103.179h2.269c8.454,0,16.067-3.601,21.389-9.353c4.807-5.195,7.744-12.145,7.744-19.78
	C435.866,250.585,422.822,237.542,406.732,237.542z"/>
<g>
	<circle style="fill:#E8979F;" cx="169.66" cy="320.94" r="15.949"/>
	<circle style="fill:#E8979F;" cx="342.85" cy="320.94" r="15.949"/>
</g>
<circle style="fill:#FFFFFF;" cx="256.25" cy="343.68" r="21.05"/>
<path style="fill:#423D34;" d="M404.537,204.384v-65.931c0-33.076-26.814-59.89-59.89-59.89H167.854
	c-33.076,0-59.89,26.814-59.89,59.89C107.964,138.453,256.048,224.115,404.537,204.384z"/>
<path style="fill:#33302A;" d="M404.54,138.452v65.929c-22.613,3.012-45.225,3.562-67.303,2.345
	c35.053,1.933,24.984-44.826,24.984-68.273c0-33.078-26.811-59.889-59.889-59.889h42.319
	C377.729,78.563,404.54,105.374,404.54,138.452z"/>
<rect x="223.67" y="467.89" style="fill:#CA3042;" width="64.67" height="35.03"/>
<path d="M256.25,372.231c-15.744,0-28.552-12.808-28.552-28.552s12.808-28.552,28.552-28.552s28.552,12.808,28.552,28.552
	C284.802,359.423,271.994,372.231,256.25,372.231z M256.25,330.138c-7.467,0-13.542,6.075-13.542,13.542s6.075,13.542,13.542,13.542
	c7.467,0,13.542-6.075,13.542-13.542S263.718,330.138,256.25,330.138z"/>
<path d="M226.119,291.072H195.91c-4.145,0-7.505-3.36-7.505-7.505c0-4.145,3.36-7.505,7.505-7.505h30.209
	c4.145,0,7.505,3.36,7.505,7.505C233.624,287.713,230.264,291.072,226.119,291.072z"/>
<path d="M316.593,291.072h-30.208c-4.145,0-7.505-3.36-7.505-7.505c0-4.145,3.36-7.505,7.505-7.505h30.208
	c4.145,0,7.505,3.36,7.505,7.505C324.098,287.713,320.738,291.072,316.593,291.072z"/>
<g>
	<path style="fill:#423D34;" d="M174.203,256.636c-3.016,0-5.86-1.831-7.007-4.815c-1.487-3.87,0.445-8.211,4.314-9.698
		l32.758-12.587c3.869-1.486,8.21,0.446,9.697,4.313c1.487,3.87-0.445,8.211-4.314,9.698l-32.758,12.587
		C176.008,256.475,175.098,256.636,174.203,256.636z"/>
	<path style="fill:#423D34;" d="M338.298,256.636c-0.895,0-1.805-0.161-2.69-0.501l-32.758-12.587
		c-3.869-1.486-5.801-5.828-4.314-9.698c1.487-3.869,5.83-5.798,9.697-4.313l32.758,12.587c3.869,1.486,5.801,5.828,4.314,9.698
		C344.159,254.805,341.314,256.636,338.298,256.636z"/>
</g>
<path d="M412.042,230.427v-26.043v-1.801v-64.13c0-37.162-30.233-67.394-67.395-67.394H312.67V43.034v-8.393
	C312.67,15.539,297.13,0,278.029,0h-43.557c-19.101,0-34.641,15.539-34.641,34.641v8.393v28.025c0,0-31.968,0-31.978,0
	c-25.546,0-54.331,17.093-63.393,41.564c-6.051,16.339-4.001,35.33-4.001,52.479c0,21.753,0,43.507,0,65.26
	c-17.937,2.363-31.83,17.741-31.83,36.312c0,18.758,14.172,34.26,32.37,36.382c5.605,57.969,54.594,103.44,114.009,103.44h13.621
	v0.391c0,0.889,0,1.941-0.018,2.862c-0.661,0.1-1.391,0.202-2.085,0.299l-0.811,0.113c-8.321,1.172-16.329,4.396-23.159,9.323
	c-13.568,9.786-21.668,25.606-21.668,42.319v42.691c0,4.145,3.36,7.505,7.505,7.505h135.715c4.145,0,7.505-3.36,7.505-7.505v-42.691
	c0-16.713-8.1-32.534-21.668-42.319c-6.83-4.927-14.839-8.151-23.16-9.323l-0.811-0.113c-0.693-0.097-1.424-0.199-2.085-0.299
	c-0.018-0.922-0.018-1.973-0.018-2.862v-0.391h13.621c59.439,0,108.443-45.509,114.015-103.511
	c8.422-1.116,16.298-5.138,22.122-11.434c6.281-6.789,9.741-15.623,9.741-24.877C443.371,248.276,429.736,233.007,412.042,230.427z
	 M231.42,495.425v-20.026h49.661v20.026H231.42z M283.897,424.915l0.795,0.111c5.915,0.834,11.611,3.127,16.472,6.633
	c9.667,6.972,15.439,18.241,15.439,30.145v35.186H296.09v-29.096c0-4.145-3.36-7.505-7.505-7.505h-64.671
	c-4.145,0-7.505,3.359-7.505,7.505v29.096h-20.513v-35.186c0-11.904,5.771-23.173,15.439-30.145
	c4.861-3.506,10.556-5.8,16.471-6.633l0.796-0.111c5.183-0.724,9.277-1.297,12.223-4.895c2.623-3.205,2.8-6.958,2.811-12.018h25.225
	c0.012,5.059,0.188,8.812,2.811,12.018C274.62,423.618,278.714,424.19,283.897,424.915z M214.841,50.538h15.893
	c4.145,0,7.505-3.36,7.505-7.505s-3.36-7.505-7.505-7.505h-15.893V34.64c0-10.824,8.806-19.631,19.631-19.631h43.557
	c10.824,0,19.631,8.807,19.631,19.631v0.888h-13.391c-4.145,0-7.505,3.36-7.505,7.505s3.36,7.505,7.505,7.505h13.391v20.52h-82.819
	V50.538z M99.489,287.52c-9.13-2.534-15.85-10.919-15.85-20.845c0-9.925,6.72-18.311,15.85-20.844V287.52z M297.493,391.488h-82.485
	c-54.886,0-99.539-44.653-99.539-99.539V150.938c24.617,12.592,86.849,41.812,160.353,56.549c4.064,0.815,8.019-1.819,8.833-5.883
	c0.815-4.064-1.819-8.019-5.883-8.834c-78.952-15.83-146.354-49.8-163.123-58.69c2.229-26.847,24.791-48.011,52.204-48.011h39.482
	h97.829h39.482c28.885,0,52.385,23.5,52.385,52.384v59.288c-21.198,2.369-43.578,2.719-66.628,1.043
	c-4.128-0.305-7.729,2.806-8.03,6.941c-0.301,4.134,2.807,7.729,6.94,8.03c9.9,0.72,19.686,1.08,29.322,1.08
	c13.11,0,25.936-0.678,38.395-2.007v79.122C397.032,346.835,352.379,391.488,297.493,391.488z M422.613,281.358L422.613,281.358
	c-2.794,3.02-6.267,5.124-10.102,6.176V245.83c9.13,2.534,15.85,10.919,15.85,20.844
	C428.361,272.137,426.319,277.353,422.613,281.358z"/>
<g>
</g>
<g>
</g>
<g>
</g>
<g>
</g>
<g>
</g>
<g>
</g>
<g>
</g>
<g>
</g>
<g>
</g>
<g>
</g>
<g>
</g>
<g>
</g>
<g>
</g>
<g>
</g>
<g>
</g>
</svg>
