<?xml version="1.0" encoding="iso-8859-1"?>
<!-- Generator: Adobe Illustrator 19.0.0, SVG Export Plug-In . SVG Version: 6.00 Build 0)  -->
<svg version="1.1" id="Capa_1" xmlns="http://www.w3.org/2000/svg" xmlns:xlink="http://www.w3.org/1999/xlink" x="0px" y="0px"
	 viewBox="0 0 511.998 511.998" style="enable-background:new 0 0 511.998 511.998;" xml:space="preserve">
<path style="fill:#921531;" d="M379.098,372.786c0,12.709,19.134,21.128,32.565,25.471c4.22,1.365,7.998-3.064,5.981-7.013
	c-24.538-48.028-11.276-158.519-11.276-158.519l-0.784-79.121H258.171h-5.596H105.161l-0.784,79.121
	c0,0,13.262,110.491-11.276,158.519c-2.018,3.949,1.761,8.378,5.981,7.013c13.431-4.344,32.565-12.763,32.565-25.471
	c0,0,8.396,44.049-14.196,71.158c-2.859,3.431-0.076,8.596,4.368,8.146c18.465-1.869,50.959-12.678,57.505-64.72v60.068
	c0,2.761,2.239,5,5,5h68.25h5.596h68.25c2.761,0,5-2.239,5-5V387.37c6.546,52.041,39.04,62.851,57.505,64.72
	c4.444,0.45,7.227-4.715,4.368-8.146C370.702,416.835,379.098,372.786,379.098,372.786z"/>
<path style="fill:#F3D1BB;" d="M107.653,130.253v103.266h-1.658c-16.106,0-29.162,13.056-29.162,29.162l0,0
	c0,16.106,13.056,29.162,29.162,29.162h1.67c0.521,58.446,48.054,105.667,106.623,105.667h20.949c0,5.147,0,9.267,0,9.277
	c0,9.695-0.124,9.414-9.381,10.717c-7.139,1.005-13.988,3.767-19.835,7.985c-11.571,8.346-18.572,22-18.572,36.268v42.732h135.848
	v-42.732c0-14.268-7.001-27.923-18.572-36.268c-5.847-4.217-12.695-6.98-19.835-7.985c-9.258-1.303-9.381-1.022-9.381-10.717
	c0-0.01,0-4.13,0-9.277h20.949c58.893,0,106.635-47.742,106.635-106.635V130.253H107.653z"/>
<path style="fill:#32B2AC;" d="M323.294,461.758v42.73H187.452v-42.73c0-14.272,6.995-27.925,18.564-36.267
	c3.736-2.695,7.88-4.794,12.251-6.219c2.467-0.807,5.013-1.402,7.59-1.77c3.775-0.533,6.031-0.791,7.379-1.582l1.731,0.384
	l4.363,2.467c9.862,5.593,21.917,5.632,31.818,0.11l4.629-2.577l1.731-0.384c1.347,0.791,3.603,1.05,7.379,1.582
	c2.577,0.368,5.123,0.963,7.59,1.77c4.371,1.426,8.514,3.525,12.251,6.219C316.298,433.833,323.294,447.486,323.294,461.758z"/>
<path style="fill:#E8C0A8;" d="M406.001,237.274h-2.906V130.253h-42.157V290.87c0,58.9-47.734,106.633-106.633,106.633h42.157
	c57.302,0,104.049-45.201,106.523-101.906h3.015c8.462,0,16.083-3.605,21.41-9.362c4.811-5.2,7.752-12.156,7.752-19.8l0,0
	C435.164,250.33,422.108,237.274,406.001,237.274z"/>
<path style="fill:#921531;" d="M309.876,7.512H200.869c-65.277,0-118.194,57.296-118.194,127.973v89.258
	c0,2.981,2.599,5.302,5.562,4.972c137.405-15.319,163.417-76.441,167.136-135.707c3.718,59.265,29.731,120.388,167.136,135.707
	c2.963,0.33,5.562-1.991,5.562-4.972v-89.258C428.07,64.808,375.154,7.512,309.876,7.512z"/>
<path style="fill:#7F0B2A;" d="M428.07,135.482v89.266c0,2.983-2.603,5.302-5.567,4.972c-14.46-1.612-27.693-3.74-39.791-6.308
	v-87.93c0-70.68-52.923-127.965-118.2-127.965h45.359C375.147,7.517,428.07,64.802,428.07,135.482z"/>
<g>
	<circle style="fill:#ADE4ED;" cx="189.378" cy="251.79" r="65.968"/>
	<circle style="fill:#ADE4ED;" cx="321.368" cy="251.79" r="65.968"/>
</g>
<path d="M298.496,477.262h-23.999c-4.142,0-7.5-3.357-7.5-7.5s3.358-7.5,7.5-7.5h23.999c4.142,0,7.5,3.357,7.5,7.5
	S302.639,477.262,298.496,477.262z"/>
<path d="M255.373,359.66c-10.441,0-18.937-8.495-18.937-18.937v-0.524c0-4.143,3.358-7.5,7.5-7.5s7.5,3.357,7.5,7.5v0.524
	c0,2.171,1.766,3.937,3.936,3.937c2.17,0,3.937-1.766,3.937-3.937v-0.524c0-4.143,3.358-7.5,7.5-7.5s7.5,3.357,7.5,7.5v0.524
	C274.31,351.165,265.815,359.66,255.373,359.66z"/>
<path d="M159.049,259.037c-1.995,0-3.984-0.79-5.46-2.356c-2.841-3.015-2.7-7.762,0.315-10.602l33.296-31.375
	c3.015-2.842,7.761-2.701,10.602,0.314s2.7,7.762-0.315,10.602l-33.296,31.375C162.742,258.36,160.894,259.037,159.049,259.037z"/>
<path d="M163.975,290.868c-1.995,0-3.984-0.79-5.46-2.356c-2.841-3.015-2.7-7.762,0.315-10.602l56.741-53.468
	c3.016-2.841,7.762-2.7,10.602,0.314c2.841,3.015,2.7,7.762-0.315,10.602l-56.741,53.468
	C167.668,290.191,165.82,290.868,163.975,290.868z"/>
<path d="M296.428,259.037c-1.995,0-3.984-0.79-5.46-2.356c-2.841-3.015-2.7-7.762,0.315-10.602l33.296-31.375
	c3.015-2.842,7.761-2.701,10.602,0.314s2.7,7.762-0.315,10.602l-33.296,31.375C300.121,258.36,298.273,259.037,296.428,259.037z"/>
<path d="M301.354,290.868c-1.995,0-3.984-0.79-5.46-2.356c-2.841-3.015-2.7-7.762,0.315-10.602l56.741-53.468
	c3.015-2.841,7.762-2.7,10.602,0.314c2.841,3.015,2.7,7.762-0.315,10.602l-56.741,53.468
	C305.048,290.191,303.199,290.868,301.354,290.868z"/>
<path d="M432.926,291.337c6.288-6.795,9.75-15.639,9.75-24.902c0-11.592-5.412-21.937-13.835-28.662
	c1.576-0.163,3.075-0.819,4.269-1.899c1.574-1.424,2.472-3.448,2.472-5.57v-94.818C435.583,60.779,379.19,0,309.876,0H200.869
	c-27.121,0-52.946,9.159-74.683,26.487c-3.245,2.585-3.778,7.312-1.192,10.556c2.586,3.245,7.313,3.779,10.557,1.191
	c19.049-15.184,41.636-23.21,65.319-23.21h109.007c61.03,0,110.681,54.039,110.681,120.461v86.447
	c-11.451-1.339-22.22-3.016-32.339-5.028c-3.011-5.674-6.756-10.99-11.215-15.793c-2.823-3.04-7.576-3.218-10.617-0.394
	c-3.041,2.823-3.217,7.576-0.394,10.616c10.24,11.03,15.879,25.398,15.879,40.457c0,32.796-26.682,59.478-59.478,59.478
	s-59.478-26.682-59.478-59.478s26.681-59.477,59.478-59.477c1.23,0,2.461,0.037,3.66,0.111c4.133,0.224,7.703-2.899,7.956-7.041
	c0.253-4.141-2.899-7.703-7.04-7.956c-1.502-0.091-3.042-0.138-4.575-0.138c-7.123,0-14.007,1.026-20.535,2.901
	c-2.371-1.996-4.632-4.06-6.778-6.193c-19.765-19.656-30-45.223-32.211-80.459c-0.248-3.959-3.531-7.042-7.497-7.042
	c-3.966,0-7.249,3.083-7.497,7.042c-2.211,35.237-12.446,60.803-32.211,80.459c-2.146,2.134-4.408,4.197-6.781,6.193
	c-6.527-1.875-13.41-2.9-20.532-2.9c-28.478,0-53.264,16.067-65.798,39.606c-10.128,2.016-20.903,3.697-32.366,5.037v-86.447
	c0-20.52,4.824-40.777,13.949-58.582c1.892-3.693,0.433-8.219-3.259-10.112c-3.693-1.89-8.219-0.432-10.112,3.259
	c-10.208,19.916-15.603,42.543-15.603,65.435v94.818c0,2.123,0.898,4.146,2.472,5.57c0.609,0.551,1.298,0.989,2.035,1.31
	c-6.399,6.605-10.349,15.596-10.349,25.496c0,18.33,13.518,33.562,31.108,36.252c0.001,0.019,0.003,0.038,0.005,0.058
	c-0.001,1.116,0.002,2.228-0.008,3.356c-0.412,47.039-7.3,79.732-19.92,94.546c-2.081,2.442-2.381,5.937-0.746,8.699
	c1.635,2.76,4.843,4.176,7.986,3.529c0.493-0.103,12.215-2.557,24.114-7.583c5.391-2.276,9.99-4.732,13.792-7.36
	c-0.28,16.378-4.153,38.909-21.268,51.952c-2.406,1.833-3.477,4.932-2.718,7.86c0.759,2.929,3.201,5.116,6.195,5.549
	c1.102,0.156,27.249,3.711,49.666-13.364c5.496-4.186,10.261-9.206,14.287-15.041v21.304c0,4.149,3.363,7.512,7.512,7.512h0.666
	c-0.021,0.601-0.055,1.201-0.055,1.805v42.732c0,4.149,3.363,7.512,7.512,7.512h135.848c4.149,0,7.512-3.363,7.512-7.512v-42.732
	c0-0.604-0.034-1.203-0.055-1.805h0.666c4.149,0,7.512-3.363,7.512-7.512v-21.304c4.026,5.835,8.791,10.854,14.287,15.041
	c15.596,11.88,32.998,13.775,42.515,13.775c4.162,0,6.816-0.363,7.152-0.411c2.994-0.433,5.436-2.62,6.195-5.549
	c0.76-2.929-0.312-6.027-2.718-7.86c-17.044-12.99-20.929-35.529-21.232-51.927c3.795,2.618,8.382,5.065,13.755,7.334
	c11.899,5.026,23.62,7.48,24.114,7.583c3.138,0.645,6.351-0.768,7.986-3.529c1.635-2.761,1.335-6.256-0.746-8.699
	c-12.574-14.76-19.458-47.28-19.914-94.051C418.927,301.812,426.991,297.753,432.926,291.337z M226.259,184.65
	c15.072-14.989,23.887-31.714,29.114-47.773c5.227,16.058,14.042,32.784,29.114,47.773c0.646,0.643,1.324,1.265,1.989,1.895
	c-13.441,7.429-24.357,18.885-31.103,32.735c-6.743-13.844-17.652-25.295-31.084-32.725
	C224.953,185.926,225.613,185.293,226.259,184.65z M188.351,192.314c32.796,0,59.478,26.681,59.478,59.477
	s-26.681,59.478-59.478,59.478s-59.478-26.682-59.478-59.478S155.555,192.314,188.351,192.314z M115.236,291.842v-25.78
	c6.678,34.275,36.916,60.231,73.116,60.231c29.431,0,54.925-17.157,67.021-41.991c12.096,24.835,37.59,41.991,67.021,41.991
	c36.338,0,66.665-26.157,73.187-60.627c-0.037,4.496-0.077,8.993-0.119,13.489c-0.184,19.823-1.289,38.063-10.44,56.208
	c-8.328,16.512-21.3,30.557-37.084,40.189c-15.45,9.428-33.383,14.444-51.479,14.444c-0.004,0-82.17,0-82.17,0
	c-52.033,0-94.817-40.304-98.805-91.331c0-0.109,0.001-0.219,0.002-0.328c-0.01-0.003-0.019-0.006-0.029-0.009
	c-0.14-1.872-0.234-3.758-0.268-5.657C115.218,292.399,115.236,292.123,115.236,291.842z M268.116,412.11
	c-11.105,4.258-20.561,1.741-25.465-0.304c0.076-1.214,0.094-2.508,0.098-3.905h25.25
	C268.001,409.415,268.022,410.81,268.116,412.11z M100.14,283.523c-9.102-2.56-15.795-10.933-15.795-20.842
	c0-9.91,6.693-18.283,15.795-20.843V283.523z M124.371,372.959c-5.555,7.766-13.276,12.892-22.123,16.269
	c5.459-12.942,8.826-28.92,10.798-45.688c3.006,5.757,6.533,11.17,10.409,16.375c4.311,5.789,5.346,6.823,0.969,12.97
	C124.406,372.91,124.389,372.935,124.371,372.959z M148.57,434.11c-7.106,5.456-14.845,8.216-21.513,9.573
	c15.653-23.131,14.292-53.535,12.836-66.312c8.997,7.75,19.211,14.119,30.313,18.786C166.553,413.108,159.31,425.864,148.57,434.11z
	 M186.837,435.885v-34.201c8.796,2.18,17.99,3.338,27.451,3.338h13.437v1.765c0,0.89,0,1.943-0.018,2.865
	c-0.661,0.1-1.393,0.203-2.087,0.299l-0.812,0.113c-8.329,1.173-16.345,4.4-23.182,9.332
	C195.496,423.816,190.495,429.475,186.837,435.885z M315.785,496.976H194.961v-35.22c0-11.916,5.777-23.196,15.454-30.175
	c4.865-3.51,10.566-5.805,16.487-6.64l0.797-0.112c1.967-0.275,3.776-0.529,5.426-0.933c3.833,2.02,12.113,5.589,22.8,5.589
	c6.677,0,14.291-1.402,22.334-5.443c1.476,0.322,3.071,0.547,4.787,0.787l0.796,0.112c5.921,0.834,11.622,3.13,16.488,6.64
	c9.677,6.979,15.454,18.259,15.454,30.175L315.785,496.976L315.785,496.976z M309.121,419.395
	c-6.837-4.932-14.853-8.159-23.182-9.332l-0.811-0.113c-0.694-0.097-1.426-0.2-2.087-0.299c-0.018-0.922-0.018-1.975-0.018-2.865
	v-1.765h13.437c9.461,0,18.654-1.163,27.451-3.343v34.206C320.251,429.475,315.25,423.816,309.121,419.395z M362.324,434.224
	c-10.82-8.242-18.112-21.034-21.781-38.06c11.102-4.666,21.314-11.041,30.311-18.79c-1.457,12.788-2.816,43.227,12.872,66.362
	C377.125,442.394,369.449,439.652,362.324,434.224z M404.733,387.698c-7.497-3.167-15.513-7.765-18.72-16.034
	c-4.141-10.677,6.916-18.983,11.691-28.126c1.97,16.753,5.329,32.719,10.779,45.656
	C407.243,388.726,405.988,388.229,404.733,387.698z M421.897,281.133L421.897,281.133c-2.797,3.022-6.273,5.129-10.112,6.182
	v-41.744c9.139,2.536,15.865,10.93,15.865,20.865C427.652,271.904,425.608,277.124,421.897,281.133z"/>
<g>
</g>
<g>
</g>
<g>
</g>
<g>
</g>
<g>
</g>
<g>
</g>
<g>
</g>
<g>
</g>
<g>
</g>
<g>
</g>
<g>
</g>
<g>
</g>
<g>
</g>
<g>
</g>
<g>
</g>
</svg>
