<?xml version="1.0" encoding="iso-8859-1"?>
<!-- Generator: Adobe Illustrator 19.0.0, SVG Export Plug-In . SVG Version: 6.00 Build 0)  -->
<svg version="1.1" id="Capa_1" xmlns="http://www.w3.org/2000/svg" xmlns:xlink="http://www.w3.org/1999/xlink" x="0px" y="0px"
	 viewBox="0 0 512.001 512.001" style="enable-background:new 0 0 512.001 512.001;" xml:space="preserve">
<path style="fill:#32B2AC;" d="M454.977,170.282C444.632,77.58,366.163,7.521,272.885,7.521h-5.147h-23.474h-5.147
	c-93.278,0-171.747,70.059-182.092,162.761c-2.5,22.404-3.392,47.54-2,75.654v211.141c0,19.033,15.43,34.463,34.463,34.463h333.026
	c19.033,0,34.463-15.43,34.463-34.463V245.936C458.369,217.822,457.477,192.686,454.977,170.282z"/>
<path style="fill:#F3D1BB;" d="M107.581,142.354v94.593h-3.893c-16.125,0-29.196,13.072-29.196,29.196l0,0
	c0,16.125,13.072,29.196,29.196,29.196h3.973c2.076,57.213,49.104,102.96,106.824,102.96h82.377
	c59.042,0,106.904-47.863,106.904-106.904V142.354H107.581z"/>
<g>
	<circle style="fill:#E8979F;" cx="169.191" cy="320.35" r="15.928"/>
	<circle style="fill:#E8979F;" cx="342.161" cy="320.35" r="15.928"/>
</g>
<path style="fill:#F3D1BB;" d="M324.006,504.479v-42.783c0-14.285-7.009-27.956-18.594-36.312
	c-5.854-4.222-12.71-6.988-19.858-7.994c-9.269-1.305-9.393-1.023-9.393-10.73c0-0.026,0-6.405,0-6.405h-40.32c0,0,0,6.379,0,6.405
	c0,9.706-0.124,9.425-9.393,10.73c-7.148,1.006-14.005,3.772-19.858,7.994c-11.585,8.356-18.594,22.026-18.594,36.312v42.783
	H324.006z"/>
<path style="fill:#CA3042;" d="M324.002,461.698v42.781H188v-42.781c0-14.289,7.003-27.958,18.586-36.31
	c3.741-2.698,7.889-4.8,12.266-6.227c2.47-0.808,5.019-1.404,7.599-1.772c3.78-0.533,6.039-0.792,7.387-1.584l1.733,0.384
	l4.368,2.47c9.874,5.599,21.943,5.639,31.856,0.11l4.635-2.58l1.733-0.384c1.349,0.792,3.607,1.051,7.387,1.584
	c2.58,0.369,5.129,0.965,7.599,1.772c4.376,1.427,8.525,3.529,12.265,6.227C316.999,433.74,324.002,447.409,324.002,461.698z"/>
<path style="fill:#ECC19C;" d="M405.806,236.947h-2.036v-94.593h-42.264v149.038c0,59.049-47.854,106.903-106.903,106.903h42.263
	c57.713,0,104.745-45.737,106.823-102.955h2.116c8.473,0,16.102-3.609,21.436-9.373c4.817-5.206,7.761-12.171,7.761-19.823l0,0
	C435.002,250.019,421.931,236.947,405.806,236.947z"/>
<path style="fill:#32B2AC;" d="M302.541,33.093h-93.734c-56.13,0-101.633,49.268-101.633,110.042v81.533
	c122.334-12.276,145.26-65.557,148.5-117.199c3.24,51.642,26.166,104.923,148.5,117.199v-81.533
	C404.174,82.361,358.671,33.093,302.541,33.093z"/>
<path style="fill:#249B8F;" d="M456.978,245.94v211.14c0,19.03-15.43,34.46-34.46,34.46h-48.45c19.04,0,34.47-15.43,34.47-34.46
	V245.94c1.39-28.12,0.5-53.25-2-75.66c-10.08-90.26-84.73-159.05-174.76-162.62c2.43-0.09,4.88-0.14,7.34-0.14h33.77
	c93.28,0,171.74,70.06,182.09,162.76C457.478,192.69,458.368,217.82,456.978,245.94z"/>
<path d="M265.6,317.949h-17.462c-4.244,0-7.685-3.441-7.685-7.685v-33.485c0-4.244,3.441-7.685,7.685-7.685s7.685,3.441,7.685,7.685
	v25.8h9.776c4.244,0,7.685,3.441,7.685,7.685C273.285,314.508,269.844,317.949,265.6,317.949z"/>
<path d="M247.176,361.388c-2.813,0-5.511-1.585-6.798-4.294c-1.783-3.752-0.187-8.238,3.565-10.022l17.659-8.393
	c3.751-1.781,8.238-0.187,10.021,3.565c1.783,3.751,0.188,8.238-3.564,10.021l-17.66,8.393
	C249.357,361.153,248.258,361.388,247.176,361.388z"/>
<path d="M213.812,283.892c-4.154,0-7.521-3.367-7.521-7.521v-22.497c0-4.154,3.367-7.521,7.521-7.521
	c4.154,0,7.521,3.367,7.521,7.521v22.497C221.333,280.524,217.965,283.892,213.812,283.892z"/>
<path d="M298.19,283.892c-4.154,0-7.521-3.367-7.521-7.521v-22.497c0-4.154,3.367-7.521,7.521-7.521s7.521,3.367,7.521,7.521v22.497
	C305.712,280.524,302.345,283.892,298.19,283.892z"/>
<g>
	<path style="fill:#32B2AC;" d="M288.483,256.769c-3.023,0-5.874-1.835-7.023-4.826c-1.49-3.878,0.446-8.228,4.323-9.718
		l31.926-12.267c3.88-1.492,8.229,0.447,9.719,4.323c1.49,3.878-0.446,8.228-4.323,9.718l-31.926,12.267
		C290.291,256.607,289.379,256.769,288.483,256.769z"/>
	<path style="fill:#32B2AC;" d="M223.52,256.769c-0.897,0-1.809-0.162-2.696-0.502L188.898,244c-3.878-1.49-5.813-5.841-4.323-9.718
		s5.842-5.812,9.718-4.323l31.926,12.267c3.878,1.49,5.813,5.841,4.323,9.718C229.393,254.934,226.542,256.769,223.52,256.769z"/>
</g>
<path d="M462.452,169.449c-1.631-14.614-4.939-29.002-9.832-42.765c-1.392-3.914-5.691-5.959-9.606-4.567
	c-3.913,1.392-5.958,5.692-4.566,9.606c4.506,12.674,7.552,25.927,9.055,39.393c2.597,23.268,3.257,48.316,1.963,74.447
	c-0.006,0.124-0.009,0.248-0.009,0.372v211.142c0,14.856-12.086,26.942-26.942,26.942h-90.987v-22.324
	c-0.001-16.749-8.119-32.604-21.715-42.411c-6.846-4.938-14.873-8.168-23.21-9.342l-0.814-0.114c-0.694-0.097-1.427-0.199-2.088-0.3
	c-0.019-0.923-0.019-1.977-0.019-2.868v-0.839h13.181c59.344,0,108.276-45.412,113.884-103.309
	c8.382-1.147,16.214-5.167,22.016-11.438l0.001-0.001c6.294-6.804,9.761-15.658,9.761-24.93c0-18.394-13.597-33.669-31.267-36.311
	c-0.05-0.62-0.174-1.217-0.365-1.786c0.402-0.8,0.671-1.684,0.765-2.627c0.414-4.133-2.6-7.82-6.733-8.235
	c-54.216-5.441-91.622-19.076-114.358-41.687c-16.801-16.708-25.503-38.474-27.387-68.5c-0.248-3.963-3.535-7.05-7.506-7.05
	s-7.258,3.087-7.506,7.05c-1.186,18.9-4.826,33.743-11.455,46.711c-1.891,3.698-0.425,8.23,3.274,10.12
	c3.699,1.891,8.229,0.425,10.12-3.274c2.103-4.114,3.951-8.426,5.553-12.963c4.636,13.033,12.113,26.451,24.301,38.571
	c24.223,24.09,62.317,38.901,116.285,45.202v60.03c0,54.8-44.583,99.383-99.383,99.383h-82.377c-54.8,0-99.383-44.583-99.383-99.383
	v-60.04c37.945-4.584,71.925-14.93,96.295-29.397c3.572-2.12,4.748-6.735,2.628-10.307c-2.121-3.572-6.734-4.75-10.307-2.628
	c-13.929,8.268-45.09,22.922-97.296,28.161c-4.133,0.415-7.147,4.101-6.732,8.235c0.058,0.583,0.189,1.14,0.37,1.672v2.515
	c-18.549,1.828-33.09,17.515-33.09,36.537c0,19.212,14.835,35.014,33.65,36.579c5.706,57.797,54.593,103.098,113.865,103.098h13.834
	v0.839c0,0.891,0,1.945-0.018,2.868c-0.662,0.1-1.394,0.203-2.088,0.3l-0.813,0.114c-8.338,1.174-16.364,4.404-23.21,9.342
	c-13.597,9.808-21.715,25.663-21.715,42.412v22.323H89.488c-14.856,0-26.942-12.086-26.942-26.942V245.936
	c0-0.124-0.003-0.248-0.009-0.372c-1.294-26.129-0.634-51.177,1.963-74.448C74.429,82.14,149.498,15.042,239.117,15.042h33.768
	c27.613,0,55.154,6.588,79.647,19.052c23.841,12.133,44.935,29.857,61,51.257c2.494,3.321,7.208,3.994,10.531,1.499
	c3.322-2.494,3.993-7.209,1.499-10.531c-17.437-23.226-40.331-42.463-66.208-55.632C332.758,7.154,302.857,0,272.885,0h-33.768
	C141.826,0,60.33,72.847,49.55,169.449c-2.68,24.012-3.368,49.809-2.047,76.674v210.956c0,23.15,18.834,41.984,41.984,41.984h90.987
	v5.417c0,4.154,3.367,7.521,7.521,7.521h136.01c4.154,0,7.521-3.367,7.521-7.521v-5.417h90.987c23.15,0,41.984-18.834,41.984-41.984
	V246.122C465.82,219.256,465.132,193.459,462.452,169.449z M411.596,245.254c9.15,2.539,15.885,10.943,15.885,20.89
	c0,5.473-2.046,10.699-5.76,14.715c-2.8,3.026-6.281,5.136-10.125,6.189V245.254z M97.897,287.033
	c-9.15-2.539-15.884-10.943-15.884-20.89s6.735-18.35,15.884-20.89V287.033z M268.758,411.991
	c-11.118,4.263-20.586,1.743-25.495-0.304c0.076-1.215,0.094-2.511,0.098-3.91h25.28
	C268.644,409.292,268.664,410.689,268.758,411.991z M316.485,496.958H298.49V480.17c0-4.154-3.367-7.521-7.521-7.521
	s-7.521,3.367-7.521,7.521v16.787h-54.894V480.17c0-4.154-3.367-7.521-7.521-7.521s-7.521,3.367-7.521,7.521v16.787h-17.994v-35.262
	c0-11.929,5.784-23.224,15.473-30.212c4.871-3.514,10.579-5.812,16.507-6.647l0.799-0.112c1.968-0.275,3.779-0.529,5.43-0.934
	c3.837,2.022,12.127,5.595,22.827,5.595c6.685,0,14.309-1.404,22.362-5.449c1.477,0.322,3.073,0.548,4.791,0.788l0.799,0.112
	c5.928,0.834,11.636,3.133,16.507,6.646c9.688,6.988,15.472,18.283,15.473,30.212L316.485,496.958L316.485,496.958z"/>
<g>
</g>
<g>
</g>
<g>
</g>
<g>
</g>
<g>
</g>
<g>
</g>
<g>
</g>
<g>
</g>
<g>
</g>
<g>
</g>
<g>
</g>
<g>
</g>
<g>
</g>
<g>
</g>
<g>
</g>
</svg>
