<?xml version="1.0" encoding="iso-8859-1"?>
<!-- Generator: Adobe Illustrator 19.0.0, SVG Export Plug-In . SVG Version: 6.00 Build 0)  -->
<svg version="1.1" id="Capa_1" xmlns="http://www.w3.org/2000/svg" xmlns:xlink="http://www.w3.org/1999/xlink" x="0px" y="0px"
	 viewBox="0 0 512.002 512.002" style="enable-background:new 0 0 512.002 512.002;" xml:space="preserve">
<path style="fill:#423D34;" d="M419.955,398.064c4.148-4.578,6.676-10.652,6.676-17.316c0-13.926-11.037-25.268-24.84-25.773
	v-65.716H109.15v65.716c-13.803,0.504-24.84,11.847-24.84,25.773c0,6.665,2.528,12.738,6.676,17.316
	c-8.375,5.977-13.841,15.767-13.841,26.84c0,18.204,14.757,32.961,32.961,32.961c5.745,0,11.145-1.473,15.847-4.056
	c1.42,16.895,15.573,30.167,32.835,30.167c8.611,0,16.448-3.305,22.319-8.712c6.292,5.424,14.478,8.712,23.437,8.712
	c9.952,0,18.957-4.049,25.462-10.587c6.505,6.538,15.511,10.587,25.462,10.587c9.952,0,18.957-4.049,25.462-10.587
	c6.505,6.538,15.511,10.587,25.462,10.587c8.959,0,17.145-3.288,23.437-8.712c5.871,5.407,13.708,8.712,22.319,8.712
	c17.262,0,31.415-13.272,32.835-30.167c4.703,2.584,10.103,4.056,15.847,4.056c18.204,0,32.961-14.757,32.961-32.961
	C433.796,413.832,428.33,404.041,419.955,398.064z"/>
<path style="fill:#33302A;" d="M433.801,424.907c0,18.206-14.759,32.954-32.965,32.954c-1.149,0-2.298-0.062-3.415-0.176
	c-1.777-7.797-5.918-14.696-11.634-19.905c-1.85-1.686-2.141-4.498-0.762-6.588c3.146-4.768,4.975-10.48,4.975-16.615
	c0-14.808-10.668-27.123-24.741-29.696c-2.499-0.457-4.353-2.566-4.353-5.107V289.26h40.882v65.712
	c13.807,0.507,24.84,11.851,24.84,25.771c0,6.665-2.525,12.741-6.676,17.316C428.326,404.041,433.801,413.832,433.801,424.907z"/>
<path style="fill:#F3D1BB;" d="M108.782,125.039v114.103h-1.408c-15.996,0-28.964,12.967-28.964,28.964l0,0
	c0,15.996,12.967,28.964,28.964,28.964h1.498c2.199,56.846,48.969,102.257,106.354,102.257h20.247c0,4.535,0,8.165,0,8.175
	c0,9.629-0.123,9.35-9.318,10.644c-7.091,0.998-13.893,3.742-19.7,7.93c-11.492,8.289-18.445,21.851-18.445,36.022v42.441h134.924
	v-42.441c0-14.171-6.953-27.733-18.445-36.022c-5.807-4.189-12.609-6.932-19.7-7.93c-9.195-1.295-9.318-1.015-9.318-10.644
	c0-0.01,0-3.64,0-8.175h20.247c58.787,0,106.443-47.656,106.443-106.443V125.039H108.782z"/>
<path style="fill:#F2B844;" d="M322.93,462.099v42.44H188.012v-42.44c0-14.175,6.947-27.735,18.438-36.021
	c3.711-2.676,7.827-4.761,12.168-6.177c2.451-0.801,4.979-1.393,7.539-1.758c3.75-0.529,5.99-0.786,7.329-1.572l1.719,0.381
	l4.333,2.451c9.795,5.555,21.768,5.594,31.602,0.109l4.598-2.56l1.719-0.381c1.338,0.786,3.579,1.042,7.329,1.572
	c2.56,0.366,5.088,0.957,7.539,1.758c4.341,1.416,8.457,3.501,12.168,6.177C315.982,434.364,322.93,447.924,322.93,462.099z"/>
<path style="fill:#ECC19C;" d="M404.081,239.142h-1.917V125.039h-41.863v168.393c0,58.489-47.401,105.89-105.889,105.89h41.863
	c57.258,0,103.902-45.449,105.821-102.252h1.986c8.405,0,15.974-3.58,21.265-9.299c4.779-5.165,7.699-12.074,7.699-19.665
	C433.045,252.109,420.077,239.142,404.081,239.142z"/>
<g>
	<circle style="fill:#E8979F;" cx="169.812" cy="322.12" r="15.777"/>
	<circle style="fill:#E8979F;" cx="341.132" cy="322.12" r="15.777"/>
</g>
<path style="fill:#423D34;" d="M108.776,119.934c0-3.514,0.187-6.866,0.509-10.384c1.697-18.527,8.056-36.51,18.383-51.986
	c10.096-15.129,23.86-27.735,39.828-36.445c16.436-8.965,35.035-13.659,53.753-13.659c0.004,0,68.427,0,68.432,0
	c18.732,0,37.346,4.701,53.792,13.68c15.978,8.723,29.747,21.347,39.839,36.497c10.324,15.498,16.671,33.505,18.346,52.052
	c0.156,1.731,0.257,3.464,0.349,5.2c0.199,3.746,0.147,7.513,0.147,11.322c0,3.935-0.302,155.011,0,155.431
	c-38.78-53.925-146.689-70.604-146.689-70.604c-55.636-10.597-72.813-38.858-72.816-38.863c0.996,1.638-0.094,5.38-0.433,6.999
	c-4.755,22.706-19.231,40.917-37.616,54.372c-12.838,9.395-31.989,27.235-35.824,43.469V119.934z"/>
<path style="fill:#33302A;" d="M402.15,126.214c0,3.935-0.291,155.012,0,155.423c-10.32-14.347-25.528-26.045-42.287-35.504
	c-0.013-45.042,0.133-117.216,0.133-119.919c0-3.815,0.053-7.578-0.146-11.327c-0.093-1.735-0.199-3.471-0.358-5.193
	c-1.669-18.547-8.015-36.564-18.348-52.051c-10.082-15.155-23.859-27.781-39.836-36.498c-16.44-8.982-35.054-13.685-53.786-13.685
	h42.154c18.732,0,37.345,4.703,53.799,13.685c15.977,8.717,29.741,21.342,39.836,36.498c10.32,15.487,16.666,33.504,18.348,52.051
	c0.159,1.722,0.252,3.458,0.344,5.193C402.204,118.636,402.15,122.399,402.15,126.214z"/>
<path d="M255.471,372.325c-10.424,0-18.905-8.481-18.905-18.905v-0.525c0-4.121,3.34-7.461,7.461-7.461s7.461,3.34,7.461,7.461
	v0.525c0,2.196,1.787,3.983,3.983,3.983c2.196,0,3.983-1.787,3.983-3.983v-0.525c0-4.121,3.34-7.461,7.461-7.461
	s7.461,3.34,7.461,7.461v0.525C274.376,363.844,265.895,372.325,255.471,372.325z"/>
<path d="M263.947,332.289h-16.953c-4.121,0-7.461-3.34-7.461-7.461v-32.509c0-4.121,3.34-7.461,7.461-7.461s7.461,3.34,7.461,7.461
	v25.048h9.492c4.121,0,7.461,3.34,7.461,7.461S268.068,332.289,263.947,332.289z"/>
<path d="M210.538,312.687c-4.121,0-7.461-3.341-7.461-7.461v-23.41c0-4.121,3.34-7.461,7.461-7.461s7.461,3.34,7.461,7.461v23.41
	C217.999,309.346,214.659,312.687,210.538,312.687z"/>
<path d="M300.404,312.687c-4.121,0-7.461-3.341-7.461-7.461v-23.41c0-4.121,3.34-7.461,7.461-7.461s7.461,3.34,7.461,7.461v23.41
	C307.865,309.346,304.525,312.687,300.404,312.687z"/>
<g>
	<path style="fill:#423D34;" d="M226.808,249.579h-31.153c-4.121,0-7.461-3.34-7.461-7.461s3.34-7.461,7.461-7.461h31.153
		c4.121,0,7.461,3.34,7.461,7.461S230.929,249.579,226.808,249.579z"/>
	<path style="fill:#423D34;" d="M315.287,283.076h-31.153c-4.121,0-7.461-3.34-7.461-7.461s3.34-7.461,7.461-7.461h31.153
		c4.121,0,7.461,3.34,7.461,7.461S319.408,283.076,315.287,283.076z"/>
</g>
<path d="M429.931,396.863c2.713-4.892,4.161-10.423,4.161-16.115c0-15.494-10.453-28.478-24.84-32.188v-44.372
	c8.223-1.187,15.898-5.163,21.597-11.324c6.251-6.756,9.694-15.549,9.694-24.759c0-18.223-13.437-33.367-30.923-36.043v-97.667
	c-0.006,0.004-0.013,0.006-0.019,0.01c0.008-4.743,0.013-7.687,0.013-8.194l0.003-1.933c0.007-3.182,0.015-6.473-0.161-9.785
	c-0.107-2.022-0.211-3.726-0.369-5.476c-1.788-19.786-8.554-38.983-19.568-55.517c-10.767-16.163-25.454-29.618-42.473-38.909
	C329.562,5.046,309.725,0,289.681,0h-68.432c-20.028,0-39.851,5.038-57.326,14.57c-17.008,9.277-31.691,22.713-42.462,38.854
	c-11.017,16.51-17.796,35.683-19.606,55.447c-0.369,4.025-0.54,7.541-0.54,11.064v112.26c-17.21,2.895-30.366,17.891-30.366,35.911
	c0,18.151,13.346,33.24,30.74,35.978v44.477c-14.387,3.71-24.84,16.694-24.84,32.188c0,5.691,1.448,11.221,4.159,16.112
	c-4.79,4.97-8.266,11.11-10.019,17.827c-1.04,3.987,1.349,8.062,5.336,9.103c3.99,1.041,8.063-1.35,9.103-5.336
	c1.5-5.751,5.013-10.835,9.891-14.316c1.734-1.237,2.856-3.156,3.084-5.273s-0.459-4.232-1.889-5.81
	c-3.059-3.376-4.744-7.747-4.744-12.306c0-9.909,7.753-17.955,17.651-18.317c4.012-0.147,7.189-3.442,7.189-7.456v-4.739
	c19.646,33.786,56.244,56.551,98.062,56.551h13.338v0.714c0,0.884,0,1.929-0.018,2.846c-0.657,0.1-1.383,0.201-2.072,0.297
	l-0.807,0.113c-8.272,1.164-16.234,4.369-23.025,9.267c-13.489,9.73-21.541,25.458-21.541,42.074v5.747
	c-1.624,0.12-3.215,0.753-4.493,1.931c-4.719,4.346-10.851,6.739-17.265,6.739c-13.144,0-24.301-10.248-25.4-23.33
	c-0.211-2.517-1.682-4.756-3.908-5.95c-2.227-1.194-4.906-1.181-7.119,0.036c-3.732,2.05-7.969,3.134-12.254,3.134
	c-1.856,0-3.704-0.199-5.495-0.592c-4.021-0.88-8.003,1.666-8.886,5.691c-0.882,4.025,1.665,8.003,5.69,8.886
	c6.252,1.37,12.903,1.223,19.099-0.425c5.465,15.987,20.756,27.473,38.274,27.473c7.787,0,15.301-2.244,21.758-6.38v19.481
	c0,4.121,3.34,7.461,7.461,7.461h134.924c4.121,0,7.461-3.341,7.461-7.461V485.06c6.457,4.136,13.971,6.38,21.758,6.38
	c17.517,0,32.808-11.487,38.274-27.473c3.383,0.9,6.887,1.363,10.409,1.363c22.289,0,40.422-18.133,40.422-40.422
	C441.257,414.384,437.121,404.334,429.931,396.863z M409.864,247.433c9.035,2.531,15.68,10.84,15.68,20.672
	c0,5.421-2.026,10.596-5.704,14.571l0,0c-2.76,2.983-6.189,5.067-9.976,6.115L409.864,247.433L409.864,247.433z M101.321,288.729
	c-8.917-2.622-15.45-10.87-15.45-20.624c0-9.752,6.53-17.998,15.444-20.622v29.533c0,0.042,0.005,0.083,0.006,0.126V288.729z
	 M116.381,298.644c0.109-0.508,0.17-21.719,0.17-21.719c3.945-12.267,18.856-27.405,32.455-37.357
	c19.216-14.063,32.383-31.567,38.462-51c11.206,9.935,31.862,23.183,66.6,29.8c0.084,0.016,0.17,0.031,0.254,0.044
	c0.191,0.03,19.368,3.046,43.935,10.407c3.949,1.182,8.106-1.059,9.289-5.006c1.182-3.948-1.058-8.106-5.006-9.289
	c-24.786-7.426-43.849-10.529-45.799-10.837c-50.887-9.728-67.474-35.005-67.747-35.431c-2.148-3.479-6.701-4.583-10.205-2.466
	c-3.039,1.836-4.301,5.495-3.228,8.73c-0.088,0.666-0.325,1.688-0.439,2.181c-0.082,0.356-0.156,0.676-0.212,0.945
	c-5.003,23.887-21.642,40.31-34.719,49.881c-3.236,2.368-14.112,10.655-23.642,21.607l-0.308-110.753
	c-0.002,0.002-0.004,0.003-0.006,0.004v-18.45c0-3.058,0.152-6.141,0.478-9.703c1.584-17.297,7.517-34.076,17.159-48.525
	c9.436-14.141,22.298-25.911,37.195-34.036c15.289-8.34,32.641-12.748,50.18-12.748h68.432c17.553,0,34.917,4.415,50.217,12.767
	c14.906,8.138,27.772,19.925,37.204,34.085c9.639,14.469,15.56,31.27,17.125,48.586c0.137,1.521,0.232,3.069,0.33,4.924
	c0.154,2.9,0.147,5.843,0.139,8.96l-0.003,1.967c0,0.509-0.005,3.479-0.013,8.267c-0.028,16.124-0.09,52.824-0.113,85.538
	c-0.011,15.822-0.013,30.711,0.003,41.893c-11.135-10.427-25.453-19.956-42.789-28.456c-3.701-1.814-8.17-0.286-9.984,3.414
	s-0.286,8.17,3.414,9.984c22.302,10.936,38.926,23.475,49.487,37.289v9.294c0,2.239-0.082,4.46-0.23,6.662
	c-0.046,0.005-0.092,0.008-0.138,0.013v1.792c-4.309,50.325-46.64,89.963-98.062,89.963H214.67
	C162.146,391.865,119.099,350.506,116.381,298.644z M228.243,425.386c1.853-0.259,3.565-0.507,5.131-0.89
	c3.807,2.006,12.03,5.551,22.644,5.551c6.632,0,14.195-1.393,22.184-5.406c1.391,0.303,2.891,0.521,4.497,0.746v71.692h-54.456
	V425.386z M242.835,412.487c0.076-1.206,0.094-2.491,0.097-3.878h25.078c0.003,1.503,0.023,2.889,0.117,4.18
	C257.098,417.017,247.705,414.517,242.835,412.487z M195.47,462.098c0-11.834,5.738-23.039,15.349-29.971
	c0.809-0.584,1.649-1.12,2.502-1.635v66.586H195.47V462.098z M315.472,497.078h-17.851v-66.586c0.853,0.515,1.693,1.051,2.502,1.635
	c9.612,6.932,15.349,18.136,15.349,29.971V497.078z M400.835,450.405c-4.285,0-8.522-1.084-12.254-3.134
	c-2.213-1.217-4.892-1.229-7.119-0.036c-2.226,1.194-3.697,3.433-3.908,5.95c-1.099,13.082-12.256,23.33-25.4,23.33
	c-6.414,0-12.546-2.393-17.265-6.739c-1.278-1.177-2.869-1.808-4.493-1.929v-5.749c0-16.615-8.053-32.344-21.542-42.074
	c-6.791-4.898-14.753-8.103-23.024-9.267l-0.807-0.113c-0.689-0.096-1.415-0.198-2.072-0.297c-0.018-0.916-0.018-1.961-0.018-2.846
	v-0.714h13.338c41.818,0,78.416-22.765,98.062-56.551v4.739c0,4.015,3.177,7.31,7.189,7.456c9.898,0.362,17.651,8.407,17.651,18.317
	c0,4.559-1.685,8.93-4.744,12.306c-1.43,1.578-2.117,3.693-1.889,5.81s1.35,4.036,3.084,5.273
	c6.709,4.787,10.714,12.551,10.714,20.767C426.335,438.965,414.896,450.405,400.835,450.405z"/>
<g>
</g>
<g>
</g>
<g>
</g>
<g>
</g>
<g>
</g>
<g>
</g>
<g>
</g>
<g>
</g>
<g>
</g>
<g>
</g>
<g>
</g>
<g>
</g>
<g>
</g>
<g>
</g>
<g>
</g>
</svg>
