<?xml version="1.0" encoding="iso-8859-1"?>
<!-- Generator: Adobe Illustrator 19.0.0, SVG Export Plug-In . SVG Version: 6.00 Build 0)  -->
<svg version="1.1" id="Capa_1" xmlns="http://www.w3.org/2000/svg" xmlns:xlink="http://www.w3.org/1999/xlink" x="0px" y="0px"
	 viewBox="0 0 512 512" style="enable-background:new 0 0 512 512;" xml:space="preserve">
<path style="fill:#F3D1BB;" d="M107.202,122.367v115.444h-4.031c-16.074,0-29.105,13.031-29.105,29.105l0,0
	c0,16.074,13.031,29.105,29.105,29.105h4.069c1.501,58.016,49.001,104.586,107.38,104.586h82.772
	c59.325,0,107.417-48.092,107.417-107.417V122.367H107.202z"/>
<path style="fill:#E8C0A8;" d="M407.339,237.811h-2.528V122.367h-42.466v170.819c0,59.332-48.083,107.415-107.415,107.415h42.466
	c58.371,0,105.875-46.56,107.378-104.58h2.565c8.446,0,16.052-3.598,21.368-9.344c4.802-5.19,7.737-12.133,7.737-19.761l0,0
	C436.444,250.841,423.413,237.811,407.339,237.811z"/>
<g>
	<circle style="fill:#E8979F;" cx="169.112" cy="283.75" r="16"/>
	<circle style="fill:#E8979F;" cx="342.902" cy="283.75" r="16"/>
</g>
<path style="fill:#028FCB;" d="M282.877,9.215h-53.752c-67.392,0-122.023,54.632-122.023,122.023V287.44
	c0,0,25.755-32.364,33.757-101.794c1.801-15.629,15.135-27.371,30.868-27.371h168.55c15.732,0,29.066,11.742,30.868,27.371
	c8.001,69.43,33.757,101.794,33.757,101.794V131.238C404.9,63.847,350.269,9.215,282.877,9.215z"/>
<path style="fill:#007EAA;" d="M404.902,131.239v156.204c0,0-25.753-32.364-33.758-101.791c-0.796-6.89-3.836-13.036-8.323-17.735
	v-36.678c0-67.396-54.639-122.022-122.022-122.022h42.081C350.263,9.217,404.902,63.843,404.902,131.239z"/>
<path style="fill:#F3D1BB;" d="M323.796,504.503v-42.648c0-14.24-6.987-27.868-18.535-36.198
	c-5.835-4.209-12.671-6.966-19.796-7.969c-9.24-1.301-9.363-1.02-9.363-10.696c0-0.026,0-6.384,0-6.384h-40.194c0,0,0,6.359,0,6.384
	c0,9.676-0.123,9.395-9.363,10.696c-7.126,1.003-13.961,3.76-19.796,7.969c-11.548,8.33-18.535,21.957-18.535,36.198v42.648H323.796
	z"/>
<path style="fill:#ED633E;" d="M323.793,461.856v42.647H188.217v-42.647c0-14.244,6.981-27.87,18.528-36.196
	c3.729-2.689,7.865-4.784,12.227-6.207c2.463-0.805,5.003-1.399,7.575-1.767c3.768-0.532,6.02-0.79,7.364-1.579l1.728,0.383
	l4.355,2.463c9.843,5.582,21.874,5.621,31.756,0.109l4.62-2.572l1.728-0.383c1.345,0.79,3.596,1.048,7.364,1.579
	c2.572,0.367,5.113,0.962,7.576,1.767c4.362,1.423,8.498,3.518,12.227,6.207C316.811,433.986,323.793,447.612,323.793,461.856z"/>
<path d="M264.985,363.374h-17.961c-4.141,0-7.497-3.357-7.497-7.497c0-4.141,3.356-7.497,7.497-7.497h17.961
	c4.141,0,7.497,3.357,7.497,7.497C272.483,360.017,269.127,363.374,264.985,363.374z"/>
<path d="M256.005,299.971c-9.503,0-18.034-5.655-21.735-14.407c-1.613-3.814,0.172-8.213,3.986-9.825
	c3.811-1.613,8.212,0.171,9.826,3.985c1.349,3.19,4.458,5.252,7.923,5.252c3.295,0,6.343-1.923,7.765-4.899
	c1.786-3.737,6.262-5.316,9.998-3.532c3.736,1.786,5.317,6.262,3.531,9.998C273.4,294.7,265.042,299.971,256.005,299.971z"/>
<path d="M212.645,259.47c-4.141,0-7.497-3.357-7.497-7.497v-23.121c0-4.141,3.356-7.497,7.497-7.497s7.497,3.357,7.497,7.497v23.121
	C220.142,256.113,216.786,259.47,212.645,259.47z"/>
<path d="M299.365,259.47c-4.141,0-7.497-3.357-7.497-7.497v-23.121c0-4.141,3.356-7.497,7.497-7.497
	c4.141,0,7.497,3.357,7.497,7.497v23.121C306.863,256.113,303.507,259.47,299.365,259.47z"/>
<g>
	<path style="fill:#028FCB;" d="M225.824,213.608h-30.257c-4.141,0-7.497-3.357-7.497-7.497c0-4.141,3.356-7.497,7.497-7.497h30.257
		c4.141,0,7.497,3.357,7.497,7.497C233.321,210.252,229.965,213.608,225.824,213.608z"/>
	<path style="fill:#028FCB;" d="M316.444,213.608h-30.257c-4.141,0-7.497-3.357-7.497-7.497c0-4.141,3.356-7.497,7.497-7.497h30.257
		c4.141,0,7.497,3.357,7.497,7.497C323.941,210.252,320.585,213.608,316.444,213.608z"/>
</g>
<path d="M414.545,230.896v-99.868C414.545,58.779,355.767,0,283.518,0h-54.414c-32.929,0-64.408,12.263-88.637,34.53
	c-3.049,2.802-3.249,7.545-0.447,10.594c2.802,3.047,7.544,3.249,10.594,0.447c21.454-19.716,49.329-30.575,78.49-30.575h54.414
	c63.98,0,116.032,52.052,116.032,116.032l-0.687,127.509c-7.014-16.405-14.784-40.693-18.54-73.288
	c-2.256-19.582-18.892-34.348-38.697-34.348H234.458c-4.141,0-7.498,3.357-7.498,7.497s3.356,7.497,7.498,7.497h107.168
	c12.184,0,22.416,9.058,23.8,21.07c6.671,57.882,25.188,91.088,32.631,102.432v3.792c0,55.096-44.823,99.92-99.919,99.92h-82.773
	c-55.096,0-99.919-44.824-99.919-99.92v-5.158c7.933-12.502,25.329-45.355,31.749-101.066c1.384-12.012,11.616-21.07,23.8-21.07
	h7.782c4.141,0,7.498-3.357,7.498-7.497s-3.356-7.497-7.498-7.497h-7.782c-19.804,0-36.44,14.767-38.696,34.348
	c-3.867,33.557-11.99,58.331-19.16,74.737l-0.068-128.959c0-15.752,3.099-31.021,9.209-45.384c1.622-3.81-0.153-8.213-3.964-9.834
	c-3.813-1.623-8.214,0.155-9.835,3.964c-6.905,16.229-10.406,33.474-10.406,51.254v99.758
	c-17.415,2.806-30.761,17.936-30.761,36.131c0,19.168,14.814,34.932,33.594,36.468c5.177,58.606,54.529,104.72,114.456,104.72
	h13.791c-0.002,0.588-0.006,1.19-0.017,1.747c-0.659,0.1-1.389,0.202-2.081,0.299l-0.811,0.114
	c-8.311,1.17-16.312,4.39-23.137,9.313c-13.553,9.777-21.646,25.581-21.647,42.278v42.648c0,4.141,3.356,7.497,7.497,7.497h135.583
	c4.141,0,7.497-3.357,7.497-7.497v-42.649c-0.001-16.697-8.094-32.501-21.647-42.278c-6.825-4.922-14.826-8.142-23.137-9.312
	l-0.811-0.114c-0.692-0.097-1.422-0.199-2.081-0.299c-0.011-0.557-0.015-1.159-0.017-1.747h13.791
	c59.982,0,109.37-46.198,114.47-104.881c8.507-1.068,16.472-5.103,22.349-11.454l0.001-0.001c6.274-6.783,9.73-15.609,9.73-24.852
	C444.689,248.938,431.656,233.957,414.545,230.896z M82.31,266.915c0-9.89,6.681-18.248,15.766-20.802v41.605
	C88.991,285.163,82.31,276.806,82.31,266.915z M278.38,437.998l-12.406,8.947c-1.955,1.41-3.113,3.673-3.113,6.083v43.977h-12.217
	v-43.977c0-2.41-1.158-4.673-3.113-6.083l-12.406-8.947l2.366-12.523c4.425,1.933,11.357,4.171,19.812,4.171
	c5.685,0,12.049-1.017,18.779-3.818L278.38,437.998z M244.054,412.002c0.076-1.212,0.094-2.504,0.097-3.898h25.201
	c0.003,1.511,0.023,2.903,0.117,4.201C258.385,416.555,248.948,414.043,244.054,412.002z M196.458,461.855
	c0.001-11.893,5.767-23.151,15.425-30.117c3.091-2.23,6.522-3.963,10.131-5.147l-2.514,13.31c-0.54,2.859,0.623,5.773,2.983,7.475
	l13.161,9.492v40.138h-6.252V480.27c0-4.141-3.356-7.497-7.498-7.497s-7.498,3.357-7.498,7.497v16.735h-17.938L196.458,461.855
	L196.458,461.855z M317.046,461.854v35.151h-17.938V480.27c0-4.141-3.356-7.497-7.498-7.497s-7.498,3.357-7.498,7.497v16.735h-6.252
	v-40.138l13.161-9.492c2.36-1.702,3.523-4.616,2.983-7.475l-2.514-13.31c3.609,1.184,7.04,2.917,10.131,5.147
	C311.279,438.703,317.045,449.962,317.046,461.854z M423.951,281.585c-2.622,2.834-5.848,4.849-9.406,5.955v-41.227
	c8.765,2.755,15.148,10.94,15.148,20.603C429.694,272.372,427.654,277.582,423.951,281.585z"/>
<g>
</g>
<g>
</g>
<g>
</g>
<g>
</g>
<g>
</g>
<g>
</g>
<g>
</g>
<g>
</g>
<g>
</g>
<g>
</g>
<g>
</g>
<g>
</g>
<g>
</g>
<g>
</g>
<g>
</g>
</svg>
