<?xml version="1.0" encoding="iso-8859-1"?>
<!-- Generator: Adobe Illustrator 19.0.0, SVG Export Plug-In . SVG Version: 6.00 Build 0)  -->
<svg version="1.1" id="Capa_1" xmlns="http://www.w3.org/2000/svg" xmlns:xlink="http://www.w3.org/1999/xlink" x="0px" y="0px"
	 viewBox="0 0 512 512" style="enable-background:new 0 0 512 512;" xml:space="preserve">
<path style="fill:#921531;" d="M496.438,275.627c-43.004-11.019-51.358-45.994-51.358-45.994
	c24.732,4.109,39.902-6.455,48.518-16.708c5.334-6.347,1.591-16.123-6.595-17.433c-26.561-4.25-42.864-19.176-42.864-19.176v-34.412
	c0-73.529-59.607-133.135-133.135-133.135H200.996C127.467,8.77,67.86,68.376,67.86,141.905v34.412c0,0-16.302,14.926-42.864,19.176
	c-8.186,1.31-11.929,11.085-6.595,17.433c8.616,10.253,23.786,20.817,48.518,16.708c0,0-8.354,34.975-51.358,45.994
	c-8.839,2.265-11.029,13.86-3.592,19.147c20.12,14.305,55.443,31.112,99.636,17.733c0,0-3.972,21.567-30.547,36.764
	c-7.931,4.535-7.061,16.28,1.514,19.433c22.71,8.351,58.001,14.8,84.042-10.614h178.772c26.041,25.414,61.332,18.964,84.042,10.614
	c8.575-3.153,9.445-14.898,1.514-19.433c-26.575-15.196-30.547-36.764-30.547-36.764c44.193,13.379,79.516-3.428,99.636-17.733
	C507.467,289.487,505.277,277.892,496.438,275.627z"/>
<path style="fill:#F3D1BB;" d="M108.011,123.049v114.588h-2.225c-16.008,0-28.985,12.977-28.985,28.985l0,0
	c0,16.008,12.977,28.985,28.985,28.985h2.258c1.417,57.767,48.688,104.16,106.796,104.16h82.32c59,0,106.829-47.829,106.829-106.83
	V123.049H108.011z"/>
<path style="fill:#921531;" d="M56.559,317.506c2.597-0.586,5.224-1.27,7.881-2.051c0,0-0.17,0.889-0.662,2.432
	C61.332,317.848,58.925,317.711,56.559,317.506z"/>
<path style="fill:#7F0B2A;" d="M499.888,295.2c-16.054,11.114-41.503,23.732-73.31,22.648c19.393-4.19,35.256-12.745,46.547-20.568
	c7.821-5.411,5.525-17.296-3.78-19.62c-31.902-7.961-45.682-28.129-51.034-39.331c-1.593-3.334,0.988-7.158,4.758-6.96
	c21.491,1.131,35.161-8.541,43.288-17.961c5.615-6.504,1.674-16.524-6.939-17.862c-22.53-3.512-38.048-14.133-43.216-18.118
	c-1.198-0.924-1.887-2.33-1.887-3.818v-32.98c0-64.34-43.027-117.754-104.565-132.13C384.614,9.574,444,67.322,444,140.5
	l0.14,35.728c0,0,14.927,14.991,42.312,19.259c8.443,1.309,12.304,11.133,6.808,17.501c-8.884,10.303-22.679,20.767-48.179,16.646
	c0,0,5.919,34.617,51.107,46.337C505.279,278.328,507.559,289.887,499.888,295.2z"/>
<path style="fill:#E8C0A8;" d="M405.715,237.638h-1.722V123.049h-42.234v169.885c0,59.007-47.821,106.828-106.828,106.828h42.234
	c58.1,0,105.375-46.383,106.794-104.155h1.756c8.411,0,15.986-3.583,21.28-9.305c4.782-5.169,7.705-12.083,7.705-19.68l0,0
	C434.7,250.615,421.723,237.638,405.715,237.638z"/>
<g>
	<circle style="fill:#E8979F;" cx="169.58" cy="296.96" r="15.917"/>
	<circle style="fill:#E8979F;" cx="342.42" cy="296.96" r="15.917"/>
</g>
<path style="fill:#921531;" d="M108.011,123.049c0,0,58.443,58.136,115.245,59.473l0.002-21.384c0,0,46.172,28.067,92.337,29.403
	l-5.806-28.067c0,0,49.738,42.769,94.204,28.067v-67.492c0-29.896-24.235-54.131-54.131-54.131h-187.72
	C132.246,68.918,108.011,93.153,108.011,123.049L108.011,123.049z"/>
<path style="fill:#F3D1BB;" d="M323.512,503.23v-42.473c0-14.182-6.958-27.753-18.459-36.048
	c-5.811-4.192-12.618-6.937-19.715-7.936c-9.202-1.295-9.324-1.016-9.324-10.652c0-0.026,0-6.358,0-6.358h-40.028
	c0,0,0,6.332,0,6.358c0,9.636-0.123,9.357-9.324,10.652c-7.096,0.999-13.903,3.745-19.715,7.936
	c-11.501,8.295-18.459,21.867-18.459,36.048v42.473H323.512z"/>
<path style="fill:#F5A5C7;" d="M323.508,460.759v42.471H188.492v-42.471c0-14.185,6.952-27.755,18.452-36.047
	c3.714-2.678,7.832-4.765,12.177-6.182c2.452-0.802,4.983-1.394,7.544-1.759c3.753-0.529,5.995-0.786,7.334-1.573l1.721,0.382
	l4.337,2.452c9.802,5.559,21.784,5.598,31.625,0.109l4.601-2.561l1.721-0.382c1.339,0.786,3.581,1.043,7.334,1.573
	c2.561,0.366,5.092,0.958,7.544,1.759c4.344,1.417,8.463,3.504,12.177,6.182C316.556,433.004,323.508,446.574,323.508,460.759z"/>
<path style="fill:#FFFFFF;" d="M292.885,418.529c-2.459-0.796-4.988-1.394-7.546-1.762c-1.115-0.149-2.101-0.289-2.957-0.418v37.7
	h-52.764v-37.7c-0.856,0.129-1.842,0.269-2.957,0.418c-2.559,0.368-5.087,0.966-7.546,1.762c-2.389,0.776-4.699,1.762-6.919,2.937
	v20.369v7.168v54.227h87.608v-54.227v-7.168v-20.369C297.584,420.291,295.274,419.306,292.885,418.529z"/>
<path d="M279.444,360.9h-46.888c-4.124,0-7.467-3.343-7.467-7.467c0-4.124,3.342-7.467,7.467-7.467h46.888
	c4.124,0,7.467,3.343,7.467,7.467C286.91,357.557,283.568,360.9,279.444,360.9z"/>
<path d="M264.809,321.322h-17.618c-4.124,0-7.467-3.343-7.467-7.467v-33.789c0-4.124,3.342-7.467,7.467-7.467
	c4.124,0,7.467,3.343,7.467,7.467v26.322h10.152c4.124,0,7.467,3.343,7.467,7.467C272.276,317.979,268.933,321.322,264.809,321.322z
	"/>
<path d="M199.923,274.345c-4.124,0-7.467-3.343-7.467-7.467v-23.194c0-4.124,3.342-7.467,7.467-7.467
	c4.124,0,7.467,3.343,7.467,7.467v23.194C207.39,271.002,204.047,274.345,199.923,274.345z"/>
<path d="M309.68,274.345c-4.124,0-7.467-3.343-7.467-7.467v-23.194c0-4.124,3.342-7.467,7.467-7.467s7.467,3.343,7.467,7.467v23.194
	C317.146,271.002,313.804,274.345,309.68,274.345z"/>
<g>
	<path style="fill:#921531;" d="M215.1,243.71h-30.353c-4.124,0-7.467-3.343-7.467-7.467s3.342-7.467,7.467-7.467H215.1
		c4.124,0,7.467,3.343,7.467,7.467S219.224,243.71,215.1,243.71z"/>
	<path style="fill:#921531;" d="M325.115,243.71h-30.353c-4.124,0-7.467-3.343-7.467-7.467s3.342-7.467,7.467-7.467h30.353
		c4.124,0,7.467,3.343,7.467,7.467C332.581,240.367,329.239,243.71,325.115,243.71z"/>
</g>
<path d="M511.684,282.729c-1.312-7.062-6.443-12.554-13.392-14.335c-24.19-6.198-36.107-20.532-41.636-30.379
	c21.034-0.275,34.607-10.704,42.66-20.287c4.236-5.042,5.387-11.752,3.077-17.949c-2.328-6.25-7.641-10.609-14.21-11.659
	c-18.304-2.928-31.415-11.495-36.577-15.369v-30.845c0-77.528-63.074-140.602-140.602-140.602H200.995
	c-77.528,0-140.601,63.074-140.601,140.602v30.864c-5.124,3.876-18.121,12.397-36.577,15.35c-6.569,1.05-11.881,5.409-14.21,11.659
	c-2.31,6.198-1.159,12.908,3.077,17.949c8.048,9.577,21.606,19.998,42.616,20.287c-5.564,9.85-17.515,24.21-41.592,30.38
	c-6.949,1.781-12.081,7.273-13.392,14.335c-1.308,7.04,1.5,13.987,7.327,18.13c16.849,11.981,41.317,24.065,71.456,24.064
	c6.287,0,12.825-0.526,19.587-1.689c-3.953,6.051-10.541,13.383-21.334,19.556c-6.251,3.574-9.761,10.249-9.161,17.419
	c0.595,7.104,5.118,13.045,11.805,15.503c14.187,5.217,27.717,7.803,40.251,7.803c7.539,0,14.709-0.953,21.453-2.818
	c19.835,16.558,45.342,26.537,73.14,26.537h13.678c-0.002,0.583-0.006,1.18-0.017,1.732c-0.001,0-0.001,0-0.002,0
	c-0.82,0.124-1.764,0.258-2.9,0.41c-0.9,0.129-1.801,0.293-2.703,0.472c-0.309,0.061-0.617,0.129-0.925,0.195
	c-0.589,0.128-1.176,0.267-1.764,0.416c-0.347,0.088-0.694,0.171-1.039,0.266c-0.79,0.217-1.578,0.449-2.361,0.703
	c-0.055,0.018-0.109,0.039-0.164,0.057c-0.194,0.064-0.385,0.136-0.578,0.202c-0.702,0.241-1.401,0.498-2.097,0.772
	c-0.256,0.1-0.511,0.201-0.764,0.305c-0.717,0.295-1.429,0.606-2.136,0.935c-0.317,0.147-0.629,0.3-0.943,0.453
	c-0.476,0.233-0.952,0.465-1.421,0.713c-0.044,0.023-0.082,0.054-0.125,0.078c-2.077,1.103-4.089,2.331-6,3.709
	c-13.497,9.736-21.557,25.476-21.558,42.104v42.473c0,4.124,3.343,7.467,7.467,7.467h23.708h87.608h23.708
	c4.124,0,7.467-3.343,7.467-7.467v-42.473c-0.001-16.628-8.061-32.367-21.558-42.104c-1.912-1.379-3.924-2.607-6.001-3.71
	c-0.043-0.024-0.08-0.054-0.123-0.077c-0.464-0.245-0.935-0.475-1.406-0.706c-0.322-0.157-0.643-0.315-0.968-0.465
	c-0.703-0.327-1.411-0.636-2.125-0.93c-0.255-0.105-0.511-0.206-0.768-0.307c-0.694-0.273-1.391-0.529-2.092-0.77
	c-0.195-0.067-0.387-0.139-0.583-0.204c-0.055-0.018-0.108-0.039-0.163-0.057c-0.002,0-0.005-0.001-0.008-0.002
	c-0.78-0.253-1.565-0.484-2.353-0.7c-0.354-0.097-0.711-0.182-1.067-0.272c-0.562-0.142-1.126-0.276-1.693-0.399
	c-0.339-0.073-0.677-0.147-1.017-0.214c-0.904-0.179-1.811-0.342-2.724-0.473c-1.068-0.143-2.012-0.277-2.831-0.401
	c-0.001,0-0.001,0-0.002,0c-0.011-0.553-0.015-1.15-0.017-1.732h13.678c27.798,0,53.307-9.98,73.142-26.539
	c17.966,4.955,38.985,3.371,61.704-4.983c6.685-2.458,11.208-8.399,11.803-15.503c0.601-7.17-2.909-13.845-9.16-17.419
	c-10.928-6.248-17.519-13.569-21.442-19.594c5.443,0.93,10.891,1.473,16.3,1.624c0.071,0.002,0.142,0.003,0.212,0.003
	c4.027,0,7.347-3.208,7.46-7.259c0.115-4.122-3.133-7.557-7.256-7.671c-6.418-0.179-12.909-1.01-19.382-2.451
	c0.201-1.579,0.362-3.169,0.497-4.767c8.164-1.213,15.775-5.179,21.439-11.3l0.001-0.001c6.248-6.755,9.69-15.545,9.69-24.75
	c0-18.146-13.33-33.234-30.711-35.996V190.59c0-0.017,0.004-0.033,0.004-0.05v-67.492c0-4.124-3.342-7.467-7.466-7.467
	s-7.467,3.343-7.467,7.467v9.82c-0.001,0.001-0.003,0.002-0.004,0.004v51.984c-38.645,8.492-81.424-27.666-81.866-28.044
	c-2.423-2.083-5.902-2.395-8.658-0.772c-2.753,1.622-4.17,4.816-3.522,7.946l3.812,18.429
	c-40.326-4.361-78.743-27.409-79.154-27.658c-2.306-1.401-5.187-1.45-7.537-0.128c-2.352,1.322-3.807,3.81-3.807,6.507
	l-0.001,13.377c-9.16-1.069-18.923-3.654-29.125-7.717c-3.833-1.527-8.174,0.343-9.7,4.174c-1.525,3.831,0.343,8.173,4.174,9.699
	c14.749,5.874,28.859,9.008,41.94,9.316c2.025,0.05,3.955-0.718,5.393-2.123c1.439-1.405,2.25-3.33,2.25-5.341l0.001-8.793
	c16.962,8.64,50.515,23.286,84.655,24.275c2.272,0.053,4.469-0.916,5.936-2.666c1.468-1.75,2.054-4.074,1.592-6.31l-1.91-9.234
	c14.907,9.496,38.424,21.307,63.204,21.304c4.083,0,8.202-0.336,12.323-1.041v92.881c0,54.789-44.574,99.363-99.363,99.363H276.11
	c-0.032,0-0.064-0.005-0.096-0.005h-40.028c-0.032,0-0.064,0.004-0.096,0.005h-21.05c-54.789,0-99.363-44.574-99.363-99.363v-153.15
	c4.399,3.701,9.801,8.028,16.013,12.579c1.33,0.975,2.875,1.444,4.406,1.444c2.298,0,4.566-1.058,6.03-3.055
	c2.437-3.327,1.715-7.999-1.612-10.436c-16.267-11.916-26.934-22.461-27.04-22.566c-2.922-2.905-7.648-2.893-10.557,0.03
	c-0.487,0.49-0.885,1.034-1.209,1.608c0-0.001-0.001-0.002-0.002-0.002c-0.005,0.01-0.009,0.02-0.014,0.03
	c-0.294,0.528-0.521,1.082-0.677,1.653c-0.016,0.059-0.028,0.12-0.043,0.18c-0.055,0.223-0.1,0.448-0.134,0.674
	c-0.013,0.084-0.026,0.167-0.036,0.251c-0.032,0.273-0.052,0.547-0.054,0.822c0,0.017-0.003,0.034-0.003,0.051v107.504
	c-17.624,2.55-31.21,17.75-31.21,36.069c0,18.466,13.805,33.758,31.635,36.123c0.134,1.571,0.293,3.136,0.49,4.689
	c-36.705,8.189-66.32-5.348-85.164-18.746c-1.458-1.037-1.439-2.471-1.297-3.233c0.116-0.624,0.583-2.126,2.416-2.596
	c24.344-6.237,38.432-19.719,45.961-29.93c8.27-11.213,10.706-21.145,10.806-21.562c0.581-2.434-0.095-4.997-1.801-6.827
	c-1.706-1.831-4.213-2.684-6.685-2.273c-17.281,2.872-31.276-1.887-41.578-14.147c-1.015-1.207-0.759-2.478-0.517-3.128
	c0.204-0.549,0.864-1.854,2.575-2.128c28.445-4.551,45.993-20.37,46.726-21.042c1.545-1.415,2.425-3.412,2.425-5.507v-34.411
	c0-69.294,56.375-125.669,125.668-125.669h110.009c69.294,0,125.669,56.375,125.669,125.669v34.411c0,2.095,0.88,4.093,2.425,5.507
	c0.733,0.671,18.28,16.491,46.726,21.042c1.711,0.274,2.371,1.579,2.575,2.128c0.242,0.65,0.498,1.921-0.517,3.129
	c-10.3,12.259-24.293,17.018-41.578,14.146c-2.469-0.41-4.979,0.444-6.685,2.273c-1.706,1.83-2.383,4.393-1.801,6.827
	c0.1,0.417,2.536,10.348,10.806,21.562c7.53,10.211,21.617,23.693,45.961,29.93c1.833,0.47,2.3,1.972,2.416,2.596
	c0.142,0.762,0.161,2.196-1.297,3.233c-5.569,3.959-11.418,7.442-17.384,10.354c-3.706,1.808-5.244,6.278-3.436,9.984
	c1.808,3.707,6.279,5.245,9.985,3.436c6.699-3.268,13.256-7.172,19.488-11.604C510.184,296.716,512.991,289.77,511.684,282.729z
	 M427.236,355.753c1.688,0.965,1.745,2.566,1.692,3.21c-0.064,0.759-0.418,2.124-2.076,2.734
	c-12.708,4.672-28.371,8.327-43.708,6.457c8.503-9.708,15.394-20.862,20.246-33.042C408.522,341.944,416.1,349.385,427.236,355.753z
	 M411.463,245.884c9.083,2.52,15.77,10.863,15.77,20.739c0,5.434-2.031,10.622-5.719,14.608c-2.78,3.004-6.236,5.098-10.052,6.144
	v-41.491H411.463z M274.915,425.021v21.562h-37.831v-21.936c4.417,1.897,11.215,4.036,19.463,4.036
	C262.114,428.683,268.336,427.705,274.915,425.021z M195.954,460.758c0.001-8.813,3.185-17.274,8.775-23.887v58.892h-8.775V460.758z
	 M219.663,495.764v-69.497c0.305-0.117,0.611-0.229,0.919-0.338c0.259-0.092,0.518-0.191,0.777-0.276
	c0.262-0.086,0.529-0.158,0.793-0.239v28.635c0,4.124,3.343,7.467,7.467,7.467h52.764c4.124,0,7.467-3.343,7.467-7.467v-28.635
	c0.262,0.08,0.527,0.151,0.787,0.237c0.267,0.087,0.532,0.189,0.798,0.283c0.303,0.107,0.604,0.217,0.904,0.333v69.497
	L219.663,495.764L219.663,495.764z M316.046,460.758v35.006h-8.775v-58.892C312.861,443.484,316.045,451.945,316.046,460.758z
	 M268.665,411.413c-11.038,4.233-20.437,1.731-25.31-0.302c0.076-1.205,0.094-2.49,0.097-3.877h25.097
	C268.552,408.737,268.572,410.122,268.665,411.413z M100.037,287.361c-9.083-2.521-15.769-10.863-15.769-20.739
	c0-9.875,6.686-18.218,15.769-20.738V287.361z M128.844,368.139c-15.333,1.873-30.99-1.772-43.696-6.443
	c-1.659-0.61-2.012-1.975-2.077-2.734c-0.053-0.643,0.004-2.244,1.693-3.21c11.136-6.368,18.715-13.808,23.846-20.64
	C113.461,347.286,120.347,358.434,128.844,368.139z"/>
<g>
</g>
<g>
</g>
<g>
</g>
<g>
</g>
<g>
</g>
<g>
</g>
<g>
</g>
<g>
</g>
<g>
</g>
<g>
</g>
<g>
</g>
<g>
</g>
<g>
</g>
<g>
</g>
<g>
</g>
</svg>
