<?xml version="1.0" encoding="iso-8859-1"?>
<!-- Generator: Adobe Illustrator 19.0.0, SVG Export Plug-In . SVG Version: 6.00 Build 0)  -->
<svg version="1.1" id="Capa_1" xmlns="http://www.w3.org/2000/svg" xmlns:xlink="http://www.w3.org/1999/xlink" x="0px" y="0px"
	 viewBox="0 0 511.999 511.999" style="enable-background:new 0 0 511.999 511.999;" xml:space="preserve">
<path style="fill:#8B6859;" d="M107.643,122.7V237.72h-2.276c-16.079,0-29.115,13.035-29.115,29.115l0,0
	c0,16.079,13.035,29.115,29.115,29.115h2.31c1.425,58.025,48.909,104.626,107.277,104.626h21.193c0,3.649,0,6.373,0,6.381
	c0,9.679-0.123,9.398-9.366,10.7c-7.128,1.003-13.966,3.761-19.803,7.972c-11.552,8.333-18.541,21.964-18.541,36.21V504.5h135.628
	v-42.662c0-14.245-6.989-27.877-18.541-36.21c-5.837-4.21-12.675-6.968-19.803-7.972c-9.243-1.301-9.366-1.02-9.366-10.7
	c0-0.009,0-2.733,0-6.381h21.193c59.267,0,107.311-48.045,107.311-107.311V122.7H107.643z"/>
<path style="fill:#875B4C;" d="M406.635,237.72h-1.773V122.7h-42.41v170.595c0,59.255-48.021,107.274-107.274,107.274h42.411
	c58.353,0,105.832-46.593,107.241-104.621h1.806c8.449,0,16.057-3.599,21.375-9.347c4.804-5.192,7.74-12.137,7.74-19.768l0,0
	C435.75,250.756,422.715,237.72,406.635,237.72z"/>
<g>
	<circle style="fill:#CE6B55;" cx="169.467" cy="294.977" r="15.983"/>
	<circle style="fill:#CE6B55;" cx="343.034" cy="294.977" r="15.983"/>
</g>
<path style="fill:#423E3C;" d="M89.211,31.255l18.97,162.756c0,0,27.67-13.237,33.847-42.274h228.444
	c6.177,29.038,33.847,42.274,33.847,42.274l18.97-162.756c1.474-12.65-8.413-23.756-21.148-23.756H110.358
	C97.623,7.499,87.737,18.606,89.211,31.255z"/>
<path style="fill:#302D2C;" d="M423.29,31.259l-18.964,162.758c0,0-27.674-13.246-33.848-42.276h-7.14L377.389,31.26
	c1.477-12.656-8.415-23.755-21.152-23.755h45.9C414.875,7.504,424.766,18.603,423.29,31.259z"/>
<path style="fill:#423E3C;" d="M324.409,392.601l0.335,4.494c-11.725,3.691-23.158,3.475-35.831,3.475h-65.326
	c-12.672,0-25.033,1.516-35.826-3.472l0.339-4.497c-0.339-33.817,6.741-53.147,18.821-66.621
	c25.98-28.988,71.784-28.971,98.114-0.309C317.401,339.137,324.745,358.534,324.409,392.601z"/>
<g>
	<circle style="fill:#F2B844;" cx="200.987" cy="226.045" r="55.238"/>
	<circle style="fill:#F2B844;" cx="311.514" cy="226.045" r="55.238"/>
</g>
<path style="fill:#32B2AC;" d="M324.061,461.839v42.661h-135.62v-42.661c0-14.249,6.983-27.879,18.534-36.208
	c3.73-2.69,7.868-4.786,12.231-6.209c2.464-0.805,5.005-1.399,7.577-1.768c3.769-0.532,6.022-0.79,7.366-1.58l1.729,0.383
	l4.356,2.464c9.846,5.584,21.881,5.623,31.767,0.109l4.622-2.573l1.729-0.383c1.345,0.79,3.597,1.048,7.366,1.58
	c2.573,0.367,5.115,0.962,7.578,1.768c4.363,1.423,8.501,3.519,12.231,6.209C317.078,433.96,324.061,447.591,324.061,461.839z"/>
<path d="M175.594,233.334c-1.995,0-3.984-0.79-5.46-2.357c-2.841-3.015-2.7-7.762,0.315-10.602l27.881-26.273
	c3.015-2.841,7.761-2.7,10.602,0.315c2.841,3.015,2.7,7.762-0.315,10.601l-27.881,26.273
	C179.287,232.658,177.439,233.334,175.594,233.334z"/>
<path d="M179.718,259.988c-1.995,0-3.984-0.79-5.46-2.357c-2.841-3.015-2.7-7.762,0.315-10.602l47.513-44.771
	c3.015-2.841,7.762-2.7,10.602,0.315c2.841,3.015,2.7,7.762-0.315,10.602l-47.513,44.771
	C183.412,259.311,181.563,259.988,179.718,259.988z"/>
<path d="M290.629,233.334c-1.994,0-3.983-0.79-5.459-2.357c-2.841-3.015-2.7-7.762,0.314-10.602l27.88-26.273
	c3.013-2.839,7.761-2.7,10.602,0.315c2.841,3.015,2.7,7.762-0.314,10.601l-27.88,26.273
	C294.323,232.658,292.475,233.334,290.629,233.334z"/>
<path d="M294.753,259.988c-1.994,0-3.983-0.79-5.459-2.357c-2.841-3.015-2.7-7.762,0.314-10.602l47.513-44.771
	c3.014-2.839,7.76-2.701,10.602,0.315c2.841,3.015,2.7,7.762-0.314,10.602l-47.513,44.771
	C298.448,259.311,296.599,259.988,294.753,259.988z"/>
<path d="M285.676,346.067h-58.85c-4.142,0-7.499,3.358-7.499,7.499c0,4.142,3.358,7.5,7.499,7.5h58.85c4.142,0,7.5-3.358,7.5-7.5
	C293.177,349.425,289.819,346.067,285.676,346.067z"/>
<path d="M412.359,230.671v-17.764c0.001-0.051,0-0.103,0-0.154V189.82L430.74,32.125c0.951-8.154-1.635-16.346-7.091-22.477
	C418.19,3.516,410.352,0,402.144,0h-64.226c-4.142,0-7.5,3.358-7.5,7.499s3.357,7.499,7.5,7.499h64.226
	c3.989,0,7.648,1.642,10.3,4.622c2.652,2.98,3.859,6.803,3.397,10.767L398.27,181.135c-7.506-5.917-17.316-16.168-20.462-30.959
	c-0.736-3.463-3.795-5.939-7.335-5.939H142.029c-3.541,0-6.599,2.476-7.335,5.939c-3.147,14.794-12.958,25.046-20.462,30.96
	L96.661,30.388c-0.462-3.963,0.744-7.787,3.397-10.767c2.653-2.98,6.311-4.622,10.301-4.622h175.318c4.142,0,7.5-3.358,7.5-7.499
	S289.819,0,285.676,0H110.358c-8.209,0-16.046,3.516-21.505,9.647c-5.458,6.131-8.043,14.324-7.092,22.476l18.381,157.7v23.031
	c0,0.004,0,0.008,0,0.012v17.732c-17.723,2.544-31.39,17.821-31.39,36.236c0,18.562,13.888,33.931,31.816,36.29
	c5.002,58.704,54.374,104.951,114.351,104.951h13.727c-0.002,0.586-0.006,1.186-0.017,1.742c-0.66,0.1-1.389,0.202-2.082,0.299
	l-0.811,0.114c-8.315,1.17-16.317,4.392-23.145,9.315c-13.559,9.78-21.654,25.59-21.654,42.293V504.5
	c0,4.142,3.358,7.499,7.499,7.499h135.628c4.142,0,7.499-3.358,7.499-7.499v-42.662c0-16.703-8.095-32.513-21.654-42.293
	c-6.826-4.923-14.829-8.144-23.145-9.315l-0.811-0.114c-0.692-0.097-1.422-0.199-2.082-0.299c-0.011-0.555-0.015-1.155-0.017-1.742
	h13.727c60.002,0,109.391-46.283,114.358-105.024c8.215-1.212,15.876-5.198,21.575-11.356l0,0
	c6.277-6.784,9.734-15.613,9.734-24.861C443.25,248.593,429.839,233.427,412.359,230.671z M99.593,287.666
	c-9.124-2.532-15.84-10.912-15.84-20.832c0-9.919,6.716-18.299,15.84-20.832V287.666z M283.878,424.971l0.797,0.112
	c5.912,0.832,11.605,3.124,16.46,6.628c5.246,3.783,9.332,8.839,11.982,14.568h-8.396c-4.142,0-7.499,3.358-7.499,7.499
	c0,4.141,3.357,7.5,7.499,7.5h11.827c0.003,0.187,0.017,0.372,0.017,0.559v6.492h-11.844c-4.142,0-7.499,3.358-7.499,7.499
	s3.357,7.499,7.499,7.499h11.844v13.67H195.938v-13.67h11.844c4.142,0,7.499-3.358,7.499-7.499s-3.358-7.499-7.499-7.499h-11.844
	v-6.492c0-0.187,0.014-0.372,0.017-0.559h11.827c4.142,0,7.499-3.358,7.499-7.5c0-4.141-3.358-7.499-7.499-7.499h-8.396
	c2.65-5.729,6.735-10.785,11.981-14.568c4.858-3.503,10.55-5.795,16.46-6.628l0.797-0.112c1.963-0.274,3.768-0.528,5.415-0.931
	c3.826,2.017,12.093,5.58,22.762,5.58c6.666,0,14.268-1.4,22.299-5.434C280.574,424.507,282.164,424.731,283.878,424.971z
	 M243.549,411.969c0.076-1.21,0.094-2.501,0.097-3.894h25.209c0.003,1.509,0.023,2.9,0.117,4.196
	C257.885,416.523,248.444,414.011,243.549,411.969z M397.359,293.299c0,42.855-27.16,79.483-65.169,93.584
	c0.382-14.261-1.405-27.231-5.334-38.631c-1.349-3.915-5.616-5.998-9.534-4.647c-3.916,1.349-5.997,5.618-4.648,9.534
	c3.454,10.023,4.958,21.648,4.482,34.608c-8.975,3.534-18.455,5.322-28.242,5.322h-12.551c-0.003,0-0.006,0-0.01,0h-40.207
	c-0.003,0-0.006,0-0.01,0h-12.549c-9.789,0-19.267-1.788-28.235-5.322c-0.896-23.975,4.866-43.055,17.155-56.763
	c17.299-19.3,45.849-24.785,69.433-13.337c3.73,1.811,8.214,0.254,10.022-3.472c1.809-3.726,0.255-8.214-3.471-10.022
	c-29.575-14.357-65.412-7.438-87.154,16.82c-14.724,16.423-21.776,38.58-21.015,65.914c-38.016-14.098-65.182-50.729-65.182-93.589
	v-70.642l21.464,6.168c1.46,33.781,29.39,60.817,63.524,60.817c11.278,0,21.871-2.964,31.065-8.135
	c6.089,6.716,14.799,10.738,24.217,10.738c9.598,0,18.625-4.3,24.765-11.388c9.451,5.573,20.452,8.784,32.195,8.784
	c34.134,0,62.063-27.035,63.524-60.816l21.464-6.168v70.643H397.359z M268.22,271.752c-3.302,3.435-7.92,5.494-12.807,5.494
	c-4.544,0-8.782-1.73-11.987-4.676c5.14-4.787,9.489-10.406,12.825-16.649C259.4,261.811,263.454,267.146,268.22,271.752z
	 M263.777,226.047c0-26.795,21.799-48.594,48.594-48.594s48.594,21.799,48.594,48.594s-21.799,48.595-48.594,48.595
	S263.777,252.842,263.777,226.047z M200.13,274.642c-26.795,0-48.594-21.799-48.594-48.595c0-26.795,21.799-48.594,48.594-48.594
	s48.595,21.799,48.595,48.594C248.725,252.842,226.926,274.642,200.13,274.642z M397.359,207.05l-22.632,6.504
	c-5.821-29.104-31.564-51.102-62.356-51.102c-24.274,0-45.407,13.676-56.121,33.722c-10.714-20.047-31.847-33.722-56.121-33.722
	c-30.79,0-56.534,21.997-62.355,51.101l-22.632-6.504v-8.317c7.796-4.649,25.58-17.314,32.649-39.496H364.71
	c7.069,22.182,24.853,34.848,32.649,39.496V207.05z M422.505,281.509L422.505,281.509c-2.792,3.017-6.262,5.121-10.095,6.171
	v-41.677c9.123,2.533,15.84,10.913,15.84,20.832C428.25,272.294,426.21,277.506,422.505,281.509z"/>
<g>
</g>
<g>
</g>
<g>
</g>
<g>
</g>
<g>
</g>
<g>
</g>
<g>
</g>
<g>
</g>
<g>
</g>
<g>
</g>
<g>
</g>
<g>
</g>
<g>
</g>
<g>
</g>
<g>
</g>
</svg>
