<?xml version="1.0" encoding="iso-8859-1"?>
<!-- Generator: Adobe Illustrator 19.0.0, SVG Export Plug-In . SVG Version: 6.00 Build 0)  -->
<svg version="1.1" id="Capa_1" xmlns="http://www.w3.org/2000/svg" xmlns:xlink="http://www.w3.org/1999/xlink" x="0px" y="0px"
	 viewBox="0 0 512.001 512.001" style="enable-background:new 0 0 512.001 512.001;" xml:space="preserve">
<g>
	<path style="fill:#C4C7CE;" d="M373.155,383.406c0,0,36.819,59.102,77.798-5.67c0,0,77.991-103.107-50.232-103.107l-43.53,78.635
		L373.155,383.406z"/>
	<path style="fill:#C4C7CE;" d="M138.79,383.406c0,0-36.819,59.102-77.798-5.67c0,0-77.991-103.107,50.232-103.107l43.53,78.635
		L138.79,383.406z"/>
</g>
<path style="fill:#F3D1BB;" d="M109.604,124.827v112.648h-1.649c-16.094,0-29.141,13.047-29.141,29.141s13.047,29.141,29.141,29.141
	h1.69c1.537,57.013,48.234,102.76,105.619,102.76h20.588c0,4.551,0,8.337,0,8.347c0,9.688-0.124,9.407-9.375,10.709
	c-7.134,1.004-13.978,3.765-19.82,7.979c-11.562,8.34-18.558,21.984-18.558,36.242v42.701h135.749v-42.701
	c0-14.258-6.996-27.902-18.558-36.242c-5.843-4.214-12.686-6.974-19.82-7.979c-9.251-1.302-9.375-1.022-9.375-10.709
	c0-0.01,0-3.797,0-8.347h20.588c58.354,0,105.66-47.305,105.66-105.66v-168.03H109.604z"/>
<path style="fill:#E8C0A8;" d="M404.489,237.475h-2.145V124.827h-41.771v168.025c0,58.361-47.297,105.658-105.658,105.658h41.771
	c57.377,0,104.078-45.736,105.617-102.754h2.186c8.456,0,16.071-3.602,21.394-9.355c4.808-5.196,7.746-12.148,7.746-19.785l0,0
	C433.63,250.521,420.583,237.475,404.489,237.475z"/>
<g>
	<circle style="fill:#E8979F;" cx="170.501" cy="321.48" r="15.742"/>
	<circle style="fill:#E8979F;" cx="341.451" cy="321.48" r="15.742"/>
</g>
<path style="fill:#C4C7CE;" d="M109.598,119.734c0-3.506,0.187-6.851,0.508-10.361c1.693-18.487,8.038-36.431,18.343-51.872
	c10.074-15.096,23.808-27.674,39.741-36.365c16.401-8.946,34.959-13.629,53.635-13.629c0.004,0,68.277,0,68.282,0
	c18.692,0,37.264,4.691,53.674,13.65c15.943,8.704,29.682,21.301,39.752,36.417c10.302,15.464,16.635,33.432,18.306,51.938
	c0.156,1.727,0.257,3.456,0.349,5.189c0.198,3.738,0.147,7.497,0.147,11.297c0,3.926-0.301,154.672,0,155.091
	c-38.695-53.807-146.369-70.45-146.369-70.45c-55.514-10.574-72.654-38.773-72.657-38.778c0.993,1.635-0.094,5.368-0.432,6.984
	c-4.745,22.656-19.189,40.828-37.534,54.253c-12.81,9.375-31.92,27.176-35.745,43.374L109.598,119.734L109.598,119.734z"/>
<path style="fill:#A9B0BF;" d="M402.331,125.995c0,3.926-0.291,154.674,0,155.097c-10.231-14.223-25.287-25.856-41.89-35.255
	c-0.013-44.627,0.132-120.093,0.132-122.856c0-3.794,0.053-7.561-0.145-11.302c-0.093-1.732-0.185-3.45-0.344-5.182
	c-1.679-18.506-8.011-36.471-18.308-51.937c-10.073-15.122-23.807-27.72-39.749-36.418c-8.777-4.785-18.163-8.354-27.852-10.641
	h15.929c18.691,0,37.264,4.693,53.681,13.655c15.942,8.698,29.676,21.296,39.749,36.418c10.298,15.466,16.629,33.43,18.308,51.937
	c0.159,1.732,0.251,3.45,0.344,5.195C402.384,118.434,402.331,122.202,402.331,125.995z"/>
<path style="fill:#EA476E;" d="M278.292,416.195v88.298h-44.64v-88.509l1.732,0.39l4.354,2.462
	c9.859,5.585,21.909,5.625,31.798,0.11l4.624-2.572l1.732-0.39C278.012,416.055,278.152,416.125,278.292,416.195z"/>
<path d="M264.686,335.429h-17.428c-4.146,0-7.507-3.361-7.507-7.507v-33.42c0-4.146,3.36-7.507,7.507-7.507
	c4.146,0,7.507,3.361,7.507,7.507v25.913h9.921c4.146,0,7.507,3.361,7.507,7.507C272.193,332.069,268.833,335.429,264.686,335.429z"
	/>
<path d="M212.95,299.437c-4.146,0-7.507-3.361-7.507-7.507v-22.94c0-4.146,3.36-7.507,7.507-7.507c4.146,0,7.507,3.361,7.507,7.507
	v22.941C220.457,296.076,217.096,299.437,212.95,299.437z"/>
<path d="M298.995,299.437c-4.146,0-7.507-3.361-7.507-7.507v-22.94c0-4.146,3.36-7.507,7.507-7.507s7.507,3.361,7.507,7.507v22.941
	C306.502,296.076,303.141,299.437,298.995,299.437z"/>
<g>
	<path style="fill:#A9B0BF;" d="M232.034,252.613h-32.027c-4.146,0-7.507-3.361-7.507-7.507c0-4.146,3.36-7.507,7.507-7.507h32.027
		c4.146,0,7.507,3.361,7.507,7.507C239.541,249.252,236.18,252.613,232.034,252.613z"/>
	<path style="fill:#A9B0BF;" d="M311.937,252.613h-32.026c-4.146,0-7.507-3.361-7.507-7.507c0-4.146,3.36-7.507,7.507-7.507h32.027
		c4.146,0,7.507,3.361,7.507,7.507C319.444,249.252,316.084,252.613,311.937,252.613z"/>
</g>
<path d="M263.914,373.844c-1.08,0-2.177-0.234-3.218-0.729l-18.008-8.559c-3.745-1.78-5.337-6.258-3.557-10.002
	c1.779-3.745,6.257-5.338,10.002-3.558l18.008,8.559c3.745,1.78,5.337,6.258,3.557,10.002
	C269.414,372.262,266.721,373.844,263.914,373.844z"/>
<path d="M473.384,291.375c-6.882-9.17-17.802-15.75-32.595-19.724c0.229-1.658,0.347-3.339,0.347-5.035
	c0-18.434-13.684-33.726-31.427-36.269c0.01-21.96,0.045-52.893,0.118-96.076c0.008-4.791,0.013-7.764,0.013-8.273l0.003-1.938
	c0.008-3.173,0.016-6.454-0.16-9.757c-0.107-2.018-0.21-3.72-0.369-5.467c-1.784-19.753-8.539-38.918-19.535-55.424
	c-10.749-16.136-25.411-29.568-42.402-38.845C329.923,5.038,310.118,0,290.107,0h-68.282c-19.995,0-39.784,5.03-57.229,14.545
	c-16.98,9.261-31.638,22.674-42.391,38.788c-10.999,16.483-17.767,35.624-19.574,55.354c-0.369,4.019-0.54,7.529-0.54,11.046
	v110.709c-17.43,2.815-30.784,17.961-30.784,36.173c0,1.66,0.115,3.293,0.329,4.894c-18.304,4.815-30.715,13.581-37.021,26.256
	c-16.613,33.397,16.961,79.89,20.194,84.236c14.16,22.281,29.864,33.576,46.686,33.576c0.044,0,0.087,0,0.131,0
	c25.727-0.089,42.82-27.054,43.536-28.202c0.092-0.149,0.18-0.301,0.262-0.456l1.915-3.615
	c18.93,14.254,42.455,22.718,67.925,22.718h13.081v0.841c0,0.889,0,1.941-0.019,2.863c-0.66,0.1-1.391,0.202-2.084,0.299
	l-0.812,0.114c-8.321,1.171-16.332,4.396-23.165,9.324c-13.57,9.789-21.673,25.613-21.674,42.33v42.701
	c0,4.146,3.36,7.507,7.507,7.507h45.555h44.639h45.555c4.146,0,7.507-3.361,7.507-7.507V488.81c0-4.146-3.36-7.507-7.507-7.507
	s-7.507,3.361-7.507,7.507v8.178h-30.542v-71.744c5.42,0.977,10.616,3.163,15.098,6.396c3.345,2.412,6.255,5.371,8.651,8.795
	c2.376,3.397,7.056,4.223,10.454,1.846c3.398-2.377,4.224-7.058,1.846-10.454c-3.362-4.805-7.457-8.964-12.168-12.364
	c-6.833-4.928-14.844-8.152-23.165-9.324l-0.812-0.114c-0.693-0.097-1.424-0.199-2.084-0.299c-0.019-0.922-0.019-1.973-0.019-2.863
	v-0.841h13.081c25.469,0,48.995-8.463,67.925-22.718l1.915,3.615c0.082,0.155,0.17,0.307,0.262,0.456
	c0.691,1.109,17.212,27.177,42.198,28.173c0.501,0.02,1,0.03,1.499,0.03c14.762,0,28.705-8.736,41.464-25.987
	c2.465-3.333,1.761-8.034-1.572-10.499c-3.334-2.464-8.035-1.762-10.5,1.572c-10.036,13.571-20.226,20.268-30.243,19.885
	c-16.175-0.607-28.68-18.945-29.991-20.938l-3.381-6.383c18.484-18.306,30.712-42.92,33.137-70.31
	c8.375-1.14,16.202-5.154,21.999-11.419l0.001-0.001c1.646-1.78,3.094-3.703,4.341-5.735c11.983,3.008,20.581,7.882,25.642,14.624
	c6.243,8.319,7.236,20.006,2.951,34.737c-1.158,3.981,1.13,8.146,5.111,9.305c3.982,1.157,8.147-1.131,9.304-5.112
	C484.42,319.805,482.617,303.675,473.384,291.375z M226.146,496.987h-30.542v-35.193c0.001-11.907,5.774-23.18,15.443-30.154
	c4.483-3.233,9.678-5.42,15.098-6.397v71.744H226.146z M268.69,411.941l-0.81,0.451c-7.55,4.209-16.914,4.178-24.447-0.089
	l-0.194-0.11c0.094-1.302,0.114-2.699,0.118-4.216h25.231C268.592,409.396,268.61,410.71,268.69,411.941z M270.785,496.987h-29.626
	V427.8c9.492,3.695,20.175,3.637,29.626-0.187V496.987z M102.092,245.792l0.006,41.648c-9.092-2.561-15.777-10.925-15.777-20.825
	C86.321,256.718,93.003,248.354,102.092,245.792z M132.309,379.605c-1.324,1.998-14.323,20.902-30.735,20.959
	c-0.024,0-0.05,0-0.074,0c-11.401,0-22.894-9.03-34.163-26.842c-0.109-0.173-0.23-0.347-0.353-0.511
	c-0.084-0.11-8.407-11.218-14.774-25.644c-5.494-12.447-10.672-30.034-4.142-43.133c4.469-8.966,14.048-15.244,28.574-18.806
	c5.545,9.096,14.938,15.602,25.904,17.231c2.413,27.413,14.645,52.048,33.142,70.368L132.309,379.605z M394.834,292.856
	c0,54.122-44.031,98.153-98.153,98.153h-81.418c-53.033,0-96.372-42.28-98.093-94.903c0.005-0.117,0.018-0.232,0.018-0.35v-18.63
	c3.562-12.35,18.758-27.848,32.589-37.969c19.155-14.019,32.29-31.464,38.373-50.829c11.206,9.913,31.813,23.096,66.413,29.687
	c0.086,0.016,0.172,0.031,0.258,0.044c1.033,0.159,102.396,16.34,140.014,65.533L394.834,292.856L394.834,292.856z M394.831,124.025
	l-0.003,1.973c0,0.507-0.005,3.471-0.013,8.248c-0.027,16.088-0.09,52.707-0.112,85.351c-0.011,15.704-0.013,30.487,0.003,41.624
	c-17.915-16.784-43.923-31.079-77.631-42.635c-31.196-10.695-57.457-14.97-59.825-15.344c-50.744-9.701-67.282-34.901-67.554-35.326
	c-2.16-3.499-6.741-4.61-10.266-2.481c-3.054,1.843-4.325,5.519-3.254,8.771c-0.088,0.662-0.322,1.67-0.434,2.158
	c-0.082,0.355-0.156,0.674-0.212,0.943c-4.988,23.815-21.58,40.191-34.621,49.735c-3.244,2.374-14.178,10.702-23.721,21.705v-11.271
	c0-0.36-0.034-0.712-0.083-1.058V119.734c0-3.049,0.151-6.124,0.477-9.677c1.58-17.248,7.497-33.981,17.111-48.39
	c9.41-14.102,22.237-25.839,37.093-33.942c15.246-8.316,32.549-12.712,50.04-12.712h68.282c17.505,0,34.821,4.403,50.078,12.732
	c14.865,8.116,27.695,19.869,37.1,33.99c9.613,14.429,15.519,31.183,17.078,48.453c0.138,1.516,0.231,3.06,0.329,4.91
	C394.846,117.986,394.839,120.919,394.831,124.025z M420.374,281.302c-2.795,3.02-6.269,5.126-10.106,6.177v-41.714
	c9.132,2.534,15.855,10.922,15.855,20.85C426.124,272.078,424.082,277.294,420.374,281.302z"/>
<g>
</g>
<g>
</g>
<g>
</g>
<g>
</g>
<g>
</g>
<g>
</g>
<g>
</g>
<g>
</g>
<g>
</g>
<g>
</g>
<g>
</g>
<g>
</g>
<g>
</g>
<g>
</g>
<g>
</g>
</svg>
