<?xml version="1.0" encoding="iso-8859-1"?>
<!-- Generator: Adobe Illustrator 19.0.0, SVG Export Plug-In . SVG Version: 6.00 Build 0)  -->
<svg version="1.1" id="Capa_1" xmlns="http://www.w3.org/2000/svg" xmlns:xlink="http://www.w3.org/1999/xlink" x="0px" y="0px"
	 viewBox="0 0 512.002 512.002" style="enable-background:new 0 0 512.002 512.002;" xml:space="preserve">
<path style="fill:#8B6859;" d="M107.079,122.406v115.405h-2.034c-16.074,0-29.104,13.031-29.104,29.104l0,0
	c0,16.074,13.031,29.104,29.104,29.104h2.073c1.523,58.036,49.046,104.616,107.449,104.616h82.619
	c59.365,0,107.488-48.125,107.488-107.488V122.406H107.079z"/>
<path style="fill:#875B4C;" d="M407.207,237.811h-2.531V122.406h-42.465v170.813c0,59.329-48.082,107.411-107.411,107.411h42.465
	c58.38,0,105.89-46.576,107.375-104.61h2.567c8.446,0,16.052-3.597,21.367-9.343c4.802-5.19,7.737-12.132,7.737-19.761l0,0
	C436.312,250.842,423.282,237.811,407.207,237.811z"/>
<g>
	<circle style="fill:#CE6B55;" cx="168.978" cy="322.321" r="16.004"/>
	<circle style="fill:#CE6B55;" cx="342.768" cy="322.321" r="16.004"/>
</g>
<path style="fill:#423E3C;" d="M282.264,7.503h-53.657c-67.273,0-121.809,54.536-121.809,121.808v155.928
	c0,0,25.71-32.307,33.698-101.615c1.798-15.601,15.109-27.323,30.814-27.323h168.253c15.704,0,29.015,11.722,30.814,27.323
	c7.987,69.308,33.697,101.615,33.697,101.615V129.312C404.072,62.038,349.536,7.503,282.264,7.503z"/>
<path style="fill:#302D2C;" d="M404.074,129.312v155.93c0,0-25.708-32.307-33.699-101.612c-1.033-8.931-5.831-16.591-12.694-21.507
	v-32.81c0-67.277-54.543-121.807-121.82-121.807h46.406C349.53,7.505,404.074,62.034,404.074,129.312z"/>
<g>
	<path style="fill:#423E3C;" d="M251.473,332.085c1.848-9.909-7.886-17.753-17.242-14.004c-5.529,2.216-11.013,6.138-14.154,13.042
		c0,0-4.087,11.479-15.227,18.44c-2.341,1.462-1.571,5.065,1.156,5.488C220.183,357.251,246.69,357.744,251.473,332.085z"/>
	<path style="fill:#423E3C;" d="M260.277,332.085c-1.848-9.909,7.886-17.753,17.242-14.004c5.529,2.216,11.013,6.138,14.154,13.042
		c0,0,4.087,11.479,15.227,18.44c2.341,1.462,1.571,5.065-1.156,5.488C291.569,357.251,265.062,357.744,260.277,332.085z"/>
</g>
<path style="fill:#8B6859;" d="M323.665,504.497V461.85c0-14.24-6.986-27.868-18.535-36.197c-5.835-4.208-12.67-6.965-19.796-7.969
	c-9.239-1.3-9.363-1.02-9.363-10.696c0-0.026,0-6.384,0-6.384h-40.193c0,0,0,6.358,0,6.384c0,9.675-0.123,9.395-9.363,10.696
	c-7.125,1.003-13.961,3.76-19.796,7.969c-11.548,8.33-18.535,21.957-18.535,36.197v42.648H323.665z"/>
<path style="fill:#CA3042;" d="M323.662,461.852v42.646H188.09v-42.646c0-14.244,6.981-27.87,18.527-36.196
	c3.729-2.689,7.865-4.785,12.227-6.207c2.463-0.805,5.004-1.399,7.576-1.767c3.768-0.531,6.019-0.789,7.365-1.58l1.728,0.383
	l4.354,2.463c9.842,5.582,21.874,5.621,31.755,0.109l4.621-2.572l1.728-0.383c1.344,0.789,3.596,1.047,7.365,1.58
	c2.572,0.367,5.113,0.961,7.576,1.767c4.362,1.422,8.498,3.518,12.226,6.207C316.681,433.982,323.662,447.608,323.662,461.852z"/>
<path style="fill:#009F98;" d="M278.168,416.309v88.188h-44.584v-88.399l1.73,0.39l4.349,2.459
	c9.846,5.578,21.883,5.618,31.759,0.11l4.619-2.569l1.73-0.39C277.889,416.169,278.028,416.239,278.168,416.309z"/>
<path d="M212.711,284.977c-4.143,0-7.503-3.359-7.503-7.503v-23.017c0-4.143,3.359-7.503,7.503-7.503s7.503,3.359,7.503,7.503
	v23.017C220.214,281.617,216.854,284.977,212.711,284.977z"/>
<path d="M299.041,284.977c-4.143,0-7.503-3.359-7.503-7.503v-23.017c0-4.143,3.359-7.503,7.503-7.503
	c4.143,0,7.503,3.359,7.503,7.503v23.017C306.543,281.617,303.185,284.977,299.041,284.977z"/>
<path d="M225.831,226.334h-30.121c-4.143,0-7.503-3.359-7.503-7.503s3.359-7.503,7.503-7.503h30.121
	c4.143,0,7.503,3.359,7.503,7.503S229.974,226.334,225.831,226.334z"/>
<path d="M316.043,226.334h-30.121c-4.143,0-7.503-3.359-7.503-7.503s3.359-7.503,7.503-7.503h30.121
	c4.143,0,7.503,3.359,7.503,7.503S320.186,226.334,316.043,226.334z"/>
<path d="M316.932,345.986c-13.143-4.106-18.157-17.289-18.191-17.378c-0.071-0.2-0.151-0.396-0.238-0.59
	c-3.497-7.689-9.788-13.533-18.192-16.9c-0.872-0.349-1.756-0.635-2.644-0.859c0.723-3.323-0.889-6.827-4.091-8.358
	c-3.74-1.788-8.218-0.205-10.004,3.534c-1.409,2.949-4.43,4.855-7.695,4.855c-3.433,0-6.515-2.043-7.854-5.206
	c-1.615-3.816-6.018-5.603-9.832-3.986c-3.605,1.525-5.393,5.537-4.22,9.193c-0.849,0.219-1.695,0.493-2.53,0.827
	c-8.404,3.367-14.694,9.211-18.192,16.9c-0.075,0.165-0.161,0.377-0.224,0.547c-0.049,0.133-5.064,13.315-18.206,17.421
	c-3.149,0.983-5.286,3.909-5.265,7.208c0.021,3.299,2.194,6.197,5.355,7.141c0.293,0.087,7.285,2.154,16.43,2.901
	c2.243,0.183,4.419,0.274,6.524,0.274c9.95,0,18.369-2.04,25.089-6.088c5.791-3.489,10.113-8.321,12.923-14.423
	c2.81,6.102,7.133,10.935,12.924,14.423c6.719,4.048,15.136,6.088,25.088,6.088c2.106,0,4.284-0.091,6.525-0.274
	c9.145-0.747,16.137-2.814,16.43-2.901c3.161-0.944,5.334-3.842,5.355-7.141C322.218,349.894,320.081,346.97,316.932,345.986z
	 M244.03,331.064c-1.24,6.248-4.116,10.66-8.794,13.489c-4.88,2.951-11.297,3.923-17.475,3.929
	c5.837-6.318,8.585-12.771,9.237-14.45c1.934-4.118,5.215-7.059,10.023-8.986c2.499-1.002,4.428,0.266,5.14,0.857
	C242.744,326.387,244.601,328.188,244.03,331.064z M276.544,344.57c-4.694-2.828-7.58-7.246-8.822-13.506
	c-0.57-2.876,1.286-4.678,1.869-5.161c0.712-0.591,2.64-1.859,5.14-0.857c4.809,1.927,8.09,4.868,10.023,8.986
	c0.653,1.68,3.406,8.147,9.26,14.474C287.855,348.499,281.449,347.525,276.544,344.57z"/>
<path d="M411.448,230.579v-49.302c0-4.143-3.359-7.503-7.503-7.503s-7.503,3.359-7.503,7.503v74.949
	c-6.427-14.76-14.811-39.359-18.741-73.461c-2.232-19.364-18.682-33.967-38.266-33.967H171.182
	c-19.584,0-36.034,14.602-38.266,33.967c-3.93,34.102-12.314,58.7-18.741,73.46V129.311c0-63.028,51.278-114.306,114.307-114.306
	h53.657c63.029,0,114.307,51.278,114.307,114.307c0,4.143,3.359,7.503,7.503,7.503s7.503-3.359,7.503-7.503
	C411.448,58.009,353.44,0,282.137,0H228.48C157.178,0,99.169,58.009,99.169,129.312v101.452
	c-17.463,2.767-30.858,17.922-30.858,36.152c0,18.476,13.763,33.791,31.573,36.253c5.059,58.725,54.466,104.97,114.48,104.97h13.79
	c-0.002,0.576-0.006,1.164-0.017,1.71c-0.66,0.1-1.389,0.202-2.082,0.299l-0.81,0.114c-8.312,1.17-16.313,4.391-23.137,9.312
	c-5.723,4.128-10.487,9.322-14.159,15.437c-2.131,3.55-0.981,8.156,2.569,10.288c3.552,2.133,8.157,0.981,10.288-2.569
	c2.619-4.362,6.009-8.062,10.076-10.994c4.476-3.228,9.662-5.412,15.074-6.387v71.654h-30.498v-5.501
	c0-4.14-3.357-7.498-7.498-7.498s-7.498,3.357-7.498,7.498v12.998c0,4.14,3.357,7.498,7.498,7.498h45.395
	c0.035,0,0.068,0.005,0.103,0.005h44.584c0.035,0,0.068-0.005,0.103-0.005h45.395c4.14,0,7.498-3.357,7.498-7.498v-42.648
	c0-16.696-8.092-32.501-21.646-42.278c-6.823-4.922-14.824-8.142-23.136-9.312l-0.81-0.114c-0.692-0.097-1.421-0.199-2.082-0.299
	c-0.011-0.545-0.015-1.134-0.016-1.71h13.79c59.994,0,109.389-46.214,114.476-104.911c8.506-1.068,16.471-5.105,22.347-11.456
	c6.275-6.783,9.732-15.61,9.732-24.856C443.688,248.209,429.581,232.744,411.448,230.579z M99.14,287.732
	c-9.114-2.534-15.823-10.907-15.823-20.817c0-9.91,6.709-18.283,15.823-20.817V287.732z M240.96,427.908
	c9.48,3.689,20.144,3.628,29.579-0.187v69.274H240.96L240.96,427.908L240.96,427.908z M300.618,431.734
	c9.658,6.965,15.423,18.224,15.423,30.116v35.15h-30.498v-71.654C290.955,426.322,296.142,428.505,300.618,431.734z M268.45,412.054
	l-0.811,0.451c-7.539,4.205-16.892,4.171-24.41-0.087l-0.197-0.111c0.093-1.288,0.114-2.67,0.117-4.168h25.201
	C268.353,409.54,268.371,410.838,268.45,412.054z M397.044,293.222c0,55.091-44.819,99.911-99.911,99.911h-20.767
	c-0.173-0.012-0.345-0.026-0.521-0.026h-40.193c-0.176,0-0.348,0.014-0.521,0.026h-20.767c-55.09,0-99.91-44.819-99.91-99.911
	v-5.941c6.33-9.173,26.4-42.338,33.368-102.8c1.358-11.789,11.401-20.679,23.36-20.679h168.253c11.959,0,22.002,8.89,23.36,20.679
	c7.333,63.626,29.18,97.035,34.249,104.052V293.222z M422.942,281.581c-2.788,3.014-6.255,5.115-10.082,6.165v-41.648
	c9.114,2.534,15.823,10.907,15.823,20.817C428.683,272.371,426.644,277.579,422.942,281.581z"/>
<g>
</g>
<g>
</g>
<g>
</g>
<g>
</g>
<g>
</g>
<g>
</g>
<g>
</g>
<g>
</g>
<g>
</g>
<g>
</g>
<g>
</g>
<g>
</g>
<g>
</g>
<g>
</g>
<g>
</g>
</svg>
