<?xml version="1.0" encoding="iso-8859-1"?>
<!-- Generator: Adobe Illustrator 19.0.0, SVG Export Plug-In . SVG Version: 6.00 Build 0)  -->
<svg version="1.1" id="Capa_1" xmlns="http://www.w3.org/2000/svg" xmlns:xlink="http://www.w3.org/1999/xlink" x="0px" y="0px"
	 viewBox="0 0 511.999 511.999" style="enable-background:new 0 0 511.999 511.999;" xml:space="preserve">
<path style="fill:#B5477C;" d="M448.424,388.447c4.853-5.355,7.81-12.461,7.81-20.257c0-16.291-12.911-29.56-29.058-30.149V194.489
	H84.835v143.552c-16.147,0.59-29.058,13.859-29.058,30.149c0,7.797,2.957,14.902,7.81,20.257
	c-9.797,6.991-16.191,18.445-16.191,31.399c0,21.296,17.263,38.56,38.56,38.56c6.72,0,13.037-1.722,18.539-4.745
	c1.661,19.764,18.218,35.29,38.412,35.29c10.073,0,19.241-3.866,26.11-10.192c7.361,6.346,16.937,10.192,27.418,10.192
	c11.642,0,22.176-4.736,29.787-12.385c7.61,7.648,18.145,12.385,29.787,12.385c11.642,0,22.176-4.736,29.787-12.385
	c7.61,7.648,18.145,12.385,29.787,12.385c10.481,0,20.057-3.845,27.418-10.192c6.868,6.325,16.036,10.192,26.11,10.192
	c20.194,0,36.75-15.526,38.412-35.29c5.501,3.023,11.819,4.745,18.539,4.745c21.296,0,38.56-17.263,38.56-38.56
	C464.616,406.892,458.222,395.439,448.424,388.447z"/>
<path style="fill:#E3BB94;" d="M108.097,121.684v115.86h-2.072c-16.09,0-29.134,13.043-29.134,29.134l0,0
	c0,16.09,13.043,29.134,29.134,29.134h2.167c2.273,56.959,49.159,102.44,106.676,102.44h21.021c0,4.609,0,8.628,0,8.638
	c0,9.685-0.123,9.404-9.372,10.707c-7.133,1.005-13.974,3.763-19.816,7.977c-11.559,8.338-18.554,21.979-18.554,36.233v42.69
	h135.715v-42.69c0-14.254-6.994-27.895-18.554-36.233c-5.841-4.213-12.683-6.972-19.816-7.977
	c-9.249-1.302-9.372-1.022-9.372-10.707c0-0.011,0-4.03,0-8.638h21.02c58.968,0,106.771-47.804,106.771-106.771V121.684H108.097z"/>
<path style="fill:#9E366C;" d="M464.475,423.19c-1.564,18.471-16.44,33.417-34.905,35.058c-8.028,0.713-15.606-1.045-22.045-4.586
	c-1.67,19.757-18.22,35.292-38.418,35.292c-10.071,0-19.235-3.873-26.115-10.191c-1.122,0.962-2.297,1.87-3.526,2.712
	c6.794-4.966,11.893-12.131,14.275-20.437c1.005-3.503,4.785-5.517,8.26-4.418c4.716,1.491,9.828,2.1,15.138,1.628
	c18.464-1.641,33.34-16.588,34.905-35.058c1.032-12.187-3.63-23.324-11.607-31.043c-2.254-2.181-2.635-5.62-1.006-8.3
	c2.776-4.565,4.38-9.925,4.38-15.661c0-14.514-10.264-26.641-23.93-29.521c-3.028-0.637-5.136-3.402-5.136-6.496V194.493h52.429
	v143.544c16.149,0.587,29.067,13.866,29.067,30.149c0,7.801-2.966,14.908-7.814,20.264
	C459.055,396.033,465.685,408.889,464.475,423.19z"/>
<g>
	<circle style="fill:#E8979F;" cx="169.631" cy="320.405" r="15.908"/>
	<circle style="fill:#E8979F;" cx="342.382" cy="320.405" r="15.908"/>
</g>
<path style="fill:#F2B844;" d="M323.86,461.807v42.688H188.152v-42.688c0-14.258,6.988-27.898,18.546-36.231
	c3.732-2.692,7.872-4.789,12.239-6.213c2.465-0.805,5.008-1.401,7.583-1.768c3.771-0.532,6.026-0.79,7.372-1.581l1.729,0.383
	l4.359,2.465c9.852,5.588,21.895,5.627,31.786,0.109l4.625-2.575l1.729-0.383c1.346,0.791,3.599,1.049,7.372,1.581
	c2.575,0.368,5.118,0.963,7.583,1.768c4.367,1.424,8.506,3.521,12.239,6.213C316.872,433.91,323.86,447.55,323.86,461.807z"/>
<path style="fill:#35A6DE;" d="M278.321,416.219v88.276h-44.629v-88.487l1.731,0.39l4.353,2.462
	c9.856,5.584,21.904,5.624,31.79,0.11l4.623-2.572l1.731-0.39C278.041,416.079,278.181,416.149,278.321,416.219z"/>
<path style="fill:#D6AA85;" d="M406.488,237.544h-2.57v-115.86h-42.211v169.792c0,58.976-47.795,106.77-106.769,106.77h42.211
	c57.51,0,104.4-45.472,106.675-102.435h2.664c8.454,0,16.067-3.601,21.389-9.353c4.807-5.195,7.744-12.145,7.744-19.781l0,0
	C435.62,250.587,422.577,237.544,406.488,237.544z"/>
<path d="M427.877,286.457h0.01H427.877z"/>
<path style="fill:#B5477C;" d="M243.479,7.505c-88.81,0-160.805,71.995-160.805,160.805v51.454c0,22.563,17.69,41.637,40.246,42.255
	c23.401,0.641,42.573-18.138,42.573-41.393c0-2.933-0.309-5.794-0.89-8.554c2.761,0.58,5.622,0.89,8.554,0.89
	c22.87,0,41.409-18.54,41.409-41.409c0-3.301-0.397-6.507-1.128-9.584c3.077,0.729,6.284,1.127,9.584,1.127
	c13.462,0,25.418-6.427,32.981-16.376c7.563,9.949,19.519,16.376,32.981,16.376c3.301,0,6.507-0.397,9.584-1.127
	c-0.729,3.077-1.128,6.284-1.128,9.584c0,22.87,18.54,41.409,41.409,41.409c2.934,0,5.794-0.309,8.554-0.89
	c-0.885,4.213-1.141,8.659-0.627,13.239c2.241,19.996,18.996,35.705,39.094,36.675c23.803,1.15,43.463-17.809,43.463-41.359v-52.315
	C429.338,79.5,357.343,7.505,268.534,7.505H243.479z"/>
<path style="fill:#9E366C;" d="M429.338,168.311v52.309c0,23.55-19.663,42.518-43.467,41.369
	c-9.364-0.454-18.007-4.115-24.779-9.898c8.87-7.601,14.48-18.888,14.48-31.471v-52.309c0-83.982-64.358-152.908-146.443-160.161
	c4.729-0.427,9.511-0.641,14.346-0.641h25.059C357.339,7.51,429.338,79.495,429.338,168.311z"/>
<path d="M264.426,349.226h-16.839c-4.146,0-7.505-3.36-7.505-7.505c0-4.145,3.359-7.505,7.505-7.505h16.839
	c4.146,0,7.505,3.36,7.505,7.505C271.931,345.866,268.571,349.226,264.426,349.226z"/>
<path d="M256.007,306.361c-9.071,0-17.216-5.398-20.749-13.754c-1.615-3.817,0.171-8.22,3.988-9.835
	c3.816-1.614,8.221,0.17,9.835,3.989c1.18,2.789,3.898,4.591,6.926,4.591c2.88,0,5.544-1.681,6.785-4.282
	c1.788-3.74,6.269-5.324,10.007-3.536c3.739,1.787,5.322,6.267,3.536,10.006C272.613,301.328,264.635,306.361,256.007,306.361z"/>
<path d="M215.545,273.956c-4.146,0-7.505-3.36-7.505-7.505v-21.576c0-4.145,3.359-7.505,7.505-7.505c4.146,0,7.505,3.36,7.505,7.505
	v21.576C223.049,270.596,219.69,273.956,215.545,273.956z"/>
<path d="M296.467,273.956c-4.146,0-7.505-3.36-7.505-7.505v-21.576c0-4.145,3.359-7.505,7.505-7.505s7.505,3.36,7.505,7.505v21.576
	C303.972,270.596,300.613,273.956,296.467,273.956z"/>
<g>
	<path style="fill:#B5477C;" d="M324.778,225.98c-1.486-3.868-5.827-5.802-9.697-4.314l-30.619,11.765
		c-3.868,1.487-5.8,5.828-4.314,9.697c1.147,2.984,3.991,4.815,7.007,4.815c0.895,0,1.805-0.161,2.69-0.501l30.619-11.765
		C324.334,234.192,326.265,229.85,324.778,225.98z"/>
	<path style="fill:#B5477C;" d="M227.549,233.431l-30.619-11.765c-3.872-1.488-8.212,0.445-9.697,4.314
		c-1.486,3.869,0.444,8.21,4.314,9.697l30.619,11.765c0.886,0.34,1.796,0.501,2.69,0.501c3.017,0,5.861-1.831,7.007-4.815
		C233.349,239.259,231.419,234.918,227.549,233.431z"/>
</g>
<path d="M105.967,84.573c3.433,2.322,8.099,1.42,10.42-2.014c28.596-42.297,76.108-67.549,127.092-67.549h25.055
	c74.248,0,137.692,52.943,150.856,125.886c0.654,3.628,3.815,6.173,7.377,6.173c0.442,0,0.892-0.04,1.342-0.121
	c4.079-0.736,6.788-4.64,6.053-8.719C419.707,58.134,350.051,0,268.534,0h-25.055c-55.975,0-108.135,27.721-139.527,74.151
	C101.631,77.586,102.532,82.251,105.967,84.573z"/>
<path d="M458.571,387.239c3.363-5.734,5.165-12.291,5.165-19.05c0-17.883-12.287-32.813-29.058-36.693v-41.428
	c5.457-6.568,8.443-14.798,8.443-23.391c0-10.05-4.081-19.155-10.657-25.78c2.858-6.272,4.374-13.138,4.374-20.273v-27.664
	c0-4.145-3.359-7.505-7.505-7.505c-4.146,0-7.505,3.36-7.505,7.505v27.664c0,9.367-3.735,18.087-10.521,24.551
	c-6.778,6.46-15.68,9.766-25.076,9.314c-16.411-0.793-30.167-13.697-31.997-30.016c-0.408-3.639-0.235-7.294,0.513-10.861
	c0.521-2.481-0.246-5.057-2.038-6.849c-1.793-1.792-4.368-2.558-6.85-2.036c-2.301,0.483-4.66,0.729-7.01,0.729
	c-18.696,0-33.906-15.21-33.906-33.905c0-2.623,0.312-5.264,0.926-7.852c0.601-2.534-0.154-5.197-1.995-7.038
	c-1.841-1.841-4.503-2.595-7.038-1.996c-2.589,0.613-5.23,0.925-7.853,0.925c-10.684,0-20.527-4.889-27.006-13.414
	c-1.419-1.867-3.629-2.963-5.975-2.963c-2.345,0-4.556,1.097-5.975,2.963c-6.481,8.524-16.323,13.414-27.006,13.414
	c-2.623,0-5.264-0.311-7.853-0.925c-2.533-0.598-5.195,0.155-7.038,1.995c-1.841,1.84-2.597,4.504-1.996,7.038
	c0.613,2.59,0.925,5.232,0.925,7.854c0,18.695-15.21,33.905-33.905,33.905c-2.35,0-4.709-0.245-7.011-0.729
	c-2.48-0.518-5.058,0.245-6.851,2.038c-1.792,1.793-2.559,4.37-2.037,6.85c0.484,2.303,0.729,4.662,0.729,7.01
	c0,9.233-3.645,17.863-10.265,24.304c-6.615,6.436-15.323,9.839-24.599,9.588c-18.167-0.498-32.947-16.088-32.947-34.753v-51.454
	c0-13.42,1.734-26.735,5.155-39.578c1.067-4.005-1.314-8.117-5.319-9.184c-4-1.067-8.116,1.314-9.184,5.319
	c-3.757,14.103-5.662,28.718-5.662,43.442v51.454c0,7.567,1.713,14.779,4.761,21.25c-6.509,6.615-10.544,15.672-10.544,25.664
	c0,8.589,2.975,16.491,7.943,22.742v42.078c-16.771,3.88-29.058,18.81-29.058,36.693c0,6.758,1.802,13.316,5.164,19.049
	c-8.584,8.577-13.546,20.309-13.546,32.607c0,25.4,20.663,46.064,46.063,46.064c4.4,0,8.777-0.634,12.975-1.864
	c5.89,18.789,23.614,32.409,43.975,32.409c9.457,0,18.574-2.879,26.241-8.205c3.582,2.368,7.453,4.238,11.497,5.6v10.647
	c0,4.145,3.359,7.505,7.505,7.505h45.544h44.629h45.544c4.146,0,7.505-3.36,7.505-7.505v-10.648
	c4.045-1.361,7.915-3.231,11.497-5.599c7.667,5.326,16.783,8.205,26.241,8.205c20.361,0,38.084-13.62,43.975-32.409
	c4.198,1.23,8.574,1.864,12.975,1.864c25.4,0,46.063-20.664,46.063-46.064C472.118,407.549,467.156,395.816,458.571,387.239z
	 M412.262,263.082c3.359-1.936,6.514-4.29,9.402-7.04c0.755-0.719,1.475-1.466,2.177-2.223c2.677,3.596,4.272,8.04,4.272,12.859
	c0,5.461-2.041,10.676-5.748,14.683c-2.794,3.02-6.268,5.124-10.103,6.175L412.262,263.082L412.262,263.082z M115.599,268.781
	c2.32,0.42,4.695,0.672,7.112,0.738c13.344,0.356,25.932-4.547,35.477-13.834c9.549-9.29,14.807-21.742,14.807-35.061v-0.161
	c0.054,0,0.106,0,0.16,0c26.971,0,48.914-21.943,48.914-48.914c0-0.32-0.003-0.641-0.01-0.962
	c12.735,0.255,24.776-4.353,33.944-12.768c9.167,8.415,21.204,13.015,33.943,12.768c-0.007,0.321-0.01,0.641-0.01,0.962
	c0,26.971,21.943,48.914,48.915,48.914c0.054,0,0.107,0,0.161,0c-0.007,1.892,0.096,3.789,0.309,5.682
	c2.642,23.561,22.498,42.192,46.188,43.336c0.82,0.04,1.636,0.059,2.45,0.059c2.863,0,5.684-0.256,8.447-0.735v22.675
	c0,54.736-44.53,99.266-99.266,99.266h-82.276c-54.736,0-99.266-44.53-99.266-99.266v-22.699H115.599z M268.717,411.966l-0.81,0.45
	c-7.55,4.211-16.911,4.177-24.441-0.088l-0.194-0.11c0.094-1.302,0.114-2.699,0.118-4.215h25.225
	C268.619,409.422,268.638,410.735,268.717,411.966z M88.628,253.865c3.388,3.647,7.301,6.787,11.616,9.275v24.382
	c-9.13-2.534-15.85-10.919-15.85-20.845C84.394,261.88,85.973,257.452,88.628,253.865z M180.64,461.806v15.785
	c-2.394-1.234-4.66-2.734-6.728-4.517c-2.888-2.491-7.182-2.419-9.985,0.163c-5.747,5.292-13.213,8.207-21.025,8.207
	c-16.007,0-29.594-12.481-30.933-28.413c-0.213-2.532-1.692-4.784-3.932-5.985c-2.239-1.202-4.935-1.189-7.161,0.036
	c-4.547,2.498-9.707,3.817-14.926,3.817c-17.123,0-31.054-13.931-31.054-31.055c0-10.006,4.877-19.46,13.045-25.289
	c1.744-1.245,2.873-3.175,3.103-5.304c0.23-2.129-0.462-4.256-1.9-5.844c-3.782-4.175-5.866-9.579-5.866-15.218
	c0-12.254,9.587-22.202,21.827-22.649c4.036-0.147,7.232-3.461,7.232-7.5v-37.398c2.792,1.128,5.749,1.93,8.829,2.34
	c5.787,57.631,54.57,102.773,113.7,102.773h13.517v1.134c0,0.89,0,1.94-0.019,2.862c-0.659,0.1-1.391,0.202-2.083,0.299
	l-0.813,0.114c-8.318,1.171-16.327,4.395-23.16,9.322C188.743,429.272,180.641,445.092,180.64,461.806z M195.65,461.806
	c0.001-11.904,5.773-23.174,15.44-30.146c4.482-3.233,9.676-5.418,15.095-6.395v71.726H195.65V461.806z M241.194,496.99v-69.169
	c9.492,3.694,20.171,3.635,29.619-0.187v69.356L241.194,496.99L241.194,496.99z M316.356,496.99h-30.535v-71.726
	c5.418,0.977,10.613,3.162,15.095,6.394c9.667,6.973,15.439,18.243,15.44,30.146L316.356,496.99L316.356,496.99z M426.054,450.9
	c-5.218,0-10.379-1.32-14.926-3.817c-2.227-1.224-4.922-1.238-7.161-0.036c-2.238,1.201-3.718,3.453-3.932,5.985
	c-1.339,15.933-14.927,28.414-30.933,28.414c-7.812,0-15.279-2.915-21.025-8.207c-1.435-1.321-3.259-1.984-5.085-1.984
	c-1.743,0-3.489,0.605-4.899,1.821c-2.069,1.784-4.333,3.294-6.728,4.528v-15.798c-0.001-16.713-8.102-32.533-21.668-42.319
	c-6.831-4.927-14.84-8.15-23.16-9.321l-0.813-0.114c-0.692-0.097-1.424-0.199-2.083-0.299c-0.019-0.922-0.019-1.973-0.019-2.862
	v-1.134h13.517c59.109,0,107.88-45.111,113.695-102.713c3.037-0.366,6.003-1.118,8.834-2.209v37.207c0,4.039,3.195,7.353,7.232,7.5
	c12.239,0.447,21.827,10.396,21.827,22.649c0,5.639-2.083,11.044-5.867,15.218c-1.439,1.587-2.13,3.713-1.9,5.844
	c0.229,2.129,1.358,4.061,3.103,5.304c8.169,5.83,13.046,15.284,13.046,25.289C457.108,436.969,443.177,450.9,426.054,450.9z"/>
<g>
</g>
<g>
</g>
<g>
</g>
<g>
</g>
<g>
</g>
<g>
</g>
<g>
</g>
<g>
</g>
<g>
</g>
<g>
</g>
<g>
</g>
<g>
</g>
<g>
</g>
<g>
</g>
<g>
</g>
</svg>
