<?xml version="1.0" encoding="iso-8859-1"?>
<!-- Generator: Adobe Illustrator 19.0.0, SVG Export Plug-In . SVG Version: 6.00 Build 0)  -->
<svg version="1.1" id="Capa_1" xmlns="http://www.w3.org/2000/svg" xmlns:xlink="http://www.w3.org/1999/xlink" x="0px" y="0px"
	 viewBox="0 0 512.004 512.004" style="enable-background:new 0 0 512.004 512.004;" xml:space="preserve">
<path style="fill:#F3D1BB;" d="M105.035,122.092v115.422h-2.376c-16.091,0-29.136,13.045-29.136,29.136l0,0
	c0,16.091,13.045,29.136,29.136,29.136h2.467c2.222,56.891,49.036,102.334,106.472,102.334h82.114
	c58.853,0,106.563-47.71,106.563-106.563V122.092H105.035z"/>
<path style="fill:#E8C0A8;" d="M402.15,237.514h-1.872V122.092h-42.129v169.461c0,58.86-47.701,106.562-106.562,106.562h42.129
	c57.429,0,104.247-45.432,106.47-102.328h1.963c8.455,0,16.069-3.601,21.391-9.354c4.807-5.195,7.745-12.146,7.745-19.782
	C431.286,250.559,418.242,237.514,402.15,237.514z"/>
<path style="fill:#F3D1BB;" d="M320.519,504.492v-42.694c0-14.256-6.995-27.898-18.555-36.237
	c-5.842-4.214-12.684-6.973-19.817-7.978c-9.25-1.302-9.373-1.021-9.373-10.708c0-0.026,0-6.391,0-6.391h-40.237
	c0,0,0,6.365,0,6.391c0,9.686-0.123,9.405-9.373,10.708c-7.133,1.004-13.976,3.764-19.817,7.978
	c-11.561,8.339-18.555,21.981-18.555,36.237v42.694H320.519z"/>
<path style="fill:#7B5FC1;" d="M320.516,461.8v42.693H184.795V461.8c0-14.259,6.989-27.9,18.548-36.235
	c3.733-2.692,7.873-4.79,12.24-6.214c2.465-0.806,5.009-1.401,7.584-1.769c3.772-0.532,6.026-0.79,7.372-1.581l1.73,0.383
	l4.359,2.465c9.853,5.588,21.898,5.627,31.79,0.11l4.625-2.575l1.73-0.383c1.346,0.79,3.6,1.049,7.372,1.581
	c2.575,0.368,5.118,0.963,7.584,1.769c4.367,1.424,8.507,3.522,12.24,6.214C313.527,433.9,320.516,447.541,320.516,461.8z"/>
<g>
	<circle style="fill:#E8979F;" cx="166.452" cy="320.418" r="15.877"/>
	<circle style="fill:#E8979F;" cx="338.862" cy="320.418" r="15.877"/>
</g>
<path style="fill:#32B2AC;" d="M105.035,258.367c0,0,46.722-27.106,58.785-87.073c2.097-10.426,13.087-16.474,23.009-12.645
	c30.675,11.838,91.642,31.106,152.671,25.798c8.384-0.729,16.037,4.694,18.159,12.838c4.639,17.807,16.059,47.152,42.62,61.082
	V137.549c0,0,22.207-7.837,35.976-32.039c2.832-4.978-1.621-10.923-7.229-9.76c-9.967,2.067-23.729,2.883-34.905-4.043
	c0,0,29.918-15.238,43.251-35.243c2.909-4.365-0.192-10.227-5.436-10.331c-35.477-0.703-153.758-5.124-238.727-32.915
	c0,0-88.175-33.048-88.175,59.9v185.249H105.035z"/>
<path style="fill:#249B8F;" d="M436.256,105.508c-13.769,24.204-35.977,32.035-35.977,32.035v120.826
	c-26.557-13.932-37.969-43.262-42.622-61.073c-0.013-0.067-0.027-0.12-0.053-0.187V122.7c0-24.426,9.749-48.013,27.565-64.724
	c3.932-3.688,7.904-8.033,11.631-13.117c15.015,0.76,27.167,1.107,35.139,1.266c5.245,0.104,8.346,5.964,5.437,10.331
	C424.044,76.47,394.12,91.707,394.12,91.707c11.178,6.923,24.941,6.107,34.909,4.04C434.635,94.586,439.087,100.531,436.256,105.508
	z"/>
<g>
	<circle style="fill:#FFFFFF;" cx="252.652" cy="449.238" r="7.154"/>
	<circle style="fill:#FFFFFF;" cx="252.652" cy="468.648" r="7.154"/>
</g>
<circle style="fill:#F5A5C7;" cx="252.652" cy="369.808" r="72.965"/>
<path style="fill:#FFFFFF;" d="M208.497,360.809c-1.766,0-3.539-0.62-4.967-1.881c-3.106-2.745-3.4-7.488-0.655-10.594
	l14.743-16.686c2.745-3.107,7.488-3.4,10.594-0.655c3.106,2.745,3.4,7.488,0.655,10.594l-14.743,16.686
	C212.641,359.952,210.574,360.809,208.497,360.809z"/>
<path d="M223.243,265.872h-29.486c-4.145,0-7.506-3.36-7.506-7.506c0-4.145,3.36-7.506,7.506-7.506h29.486
	c4.145,0,7.506,3.36,7.506,7.506C230.748,262.512,227.388,265.872,223.243,265.872z"/>
<path d="M311.554,265.872h-29.486c-4.145,0-7.506-3.36-7.506-7.506c0-4.145,3.36-7.506,7.506-7.506h29.486
	c4.145,0,7.506,3.36,7.506,7.506C319.059,262.512,315.699,265.872,311.554,265.872z"/>
<g>
	<path style="fill:#32B2AC;" d="M172.568,232.259c-3.016,0-5.861-1.831-7.008-4.816c-1.487-3.869,0.445-8.211,4.314-9.698
		l31.975-12.286c3.868-1.488,8.211,0.445,9.698,4.314c1.487,3.869-0.445,8.211-4.314,9.698l-31.975,12.286
		C174.374,232.098,173.463,232.259,172.568,232.259z"/>
	<path style="fill:#32B2AC;" d="M332.74,232.259c-0.895,0-1.805-0.161-2.69-0.501l-31.975-12.286
		c-3.87-1.487-5.801-5.829-4.314-9.698c1.488-3.87,5.83-5.799,9.698-4.314l31.975,12.286c3.87,1.487,5.801,5.829,4.314,9.698
		C338.6,230.428,335.756,232.259,332.74,232.259z"/>
</g>
<path d="M427.502,88.401c-4.39,0.911-9.756,1.585-15.187,1.197c10.204-6.772,23.312-16.98,31.303-28.971
	c2.859-4.291,3.15-9.802,0.757-14.38c-2.402-4.596-7.111-7.515-12.29-7.617c-34.203-0.678-152.294-5.026-236.407-32.5
	c-3.367-1.233-43.992-15.474-72.397,4.213C106.194,22.187,97.53,43.308,97.53,73.119v83.261v73.997
	c-17.784,2.503-31.512,17.812-31.512,36.275c0,18.657,14.02,34.091,32.076,36.347c1.112,11.216,3.868,22.127,8.234,32.562
	c1.204,2.878,3.992,4.61,6.927,4.61c0.966,0,1.948-0.188,2.894-0.583c3.824-1.6,5.627-5.997,4.027-9.821
	c-5.066-12.107-7.635-24.962-7.635-38.207v-29.095c11.845-8.069,47.941-36.519,58.638-89.686c0.564-2.802,2.326-5.199,4.836-6.577
	c2.503-1.373,5.459-1.573,8.116-0.548c27.766,10.715,79.386,27.205,134.049,27.204c7.282,0,14.626-0.293,21.966-0.931
	c4.728-0.416,9.05,2.641,10.253,7.259c4.458,17.108,15.806,47.349,42.372,63.531v28.843c0,41.033-25.086,76.305-60.722,91.321
	c0.698-4.255,1.077-8.616,1.077-13.065c0-19.114-6.818-37.641-19.2-52.169c-2.69-3.155-7.427-3.533-10.581-0.844
	c-3.155,2.689-3.533,7.426-0.844,10.581c10.069,11.814,15.614,26.884,15.614,42.433c0,36.094-29.365,65.459-65.459,65.459
	s-65.459-29.365-65.459-65.459s29.365-65.459,65.459-65.459c3.322,0,6.658,0.251,9.916,0.745c4.097,0.621,7.925-2.196,8.546-6.295
	c0.622-4.098-2.196-7.925-6.295-8.546c-4-0.607-8.094-0.915-12.167-0.915c-44.371,0-80.47,36.099-80.47,80.47
	c0,4.475,0.384,8.86,1.09,13.139c-8.27-3.473-16.094-8.098-23.309-13.839c-3.244-2.582-7.966-2.044-10.546,1.199
	c-2.581,3.244-2.044,7.965,1.199,10.547c11.422,9.09,24.166,15.761,37.753,19.877c3.627,8.68,8.731,16.593,14.998,23.425
	c-10.167,9.769-16.085,23.372-16.085,37.639v42.694c0,4.145,3.36,7.506,7.506,7.506H320.52c4.145,0,7.505-3.36,7.505-7.506v-42.7
	c0-14.267-5.918-27.87-16.085-37.639c6.287-6.853,11.401-14.793,15.03-23.505c43.227-13.203,75.622-51.427,80.228-97.726
	c8.32-1.166,16.091-5.17,21.853-11.398c6.282-6.79,9.742-15.625,9.742-24.88c0-18.289-13.469-33.49-31.008-36.208v-88.011
	c8.034-3.981,23.961-13.817,34.994-33.21c2.771-4.87,2.441-10.714-0.86-15.251C438.58,89.382,433.058,87.248,427.502,88.401z
	 M96.88,287.497c-9.131-2.534-15.852-10.92-15.852-20.847c0-9.926,6.721-18.312,15.852-20.846V287.497z M313.014,496.987h-17.957
	v-16.753c0-4.145-3.36-7.506-7.506-7.506s-7.505,3.36-7.505,7.506v16.753h-54.781v-16.753c0-4.145-3.36-7.506-7.505-7.506
	s-7.506,3.36-7.506,7.506v16.753h-17.957v-35.189c0-10.517,4.51-20.534,12.227-27.536c13.432,10.057,30.099,16.02,48.132,16.02
	s34.699-5.963,48.132-16.02c7.717,7.002,12.227,17.019,12.227,27.536L313.014,496.987L313.014,496.987z M407.929,245.804
	c9.131,2.534,15.852,10.92,15.852,20.847c0,5.463-2.042,10.678-5.748,14.685c-2.794,3.019-6.268,5.124-10.103,6.176v-41.708H407.929
	z M397.781,130.471c-3.001,1.059-5.008,3.895-5.008,7.078v18.762c0,0.023-0.003,0.045-0.003,0.068v87.796
	c-9.801-8.426-21.187-23.222-27.846-48.777c-2.871-11.016-12.723-18.523-23.901-18.523c-0.721,0-1.448,0.031-2.178,0.095
	c-59.428,5.165-119.057-13.647-149.31-25.323c-6.793-2.622-14.353-2.113-20.743,1.394c-6.397,3.511-10.891,9.626-12.329,16.775
	c-7.607,37.809-30.105,61.973-43.922,73.683v-87.12V73.117c0-24.568,6.476-41.528,19.249-50.408
	c22.519-15.659,58.437-2.593,58.786-2.463c0.1,0.037,0.2,0.072,0.301,0.106c84.853,27.753,202.698,32.463,239.351,33.253
	c-12.5,17.486-39.24,31.275-39.512,31.414c-2.415,1.23-3.979,3.666-4.093,6.374c-0.113,2.708,1.242,5.266,3.546,6.694
	c12.671,7.853,27.663,7.38,38.591,5.363C416.597,123.468,397.945,130.411,397.781,130.471z"/>
<g>
</g>
<g>
</g>
<g>
</g>
<g>
</g>
<g>
</g>
<g>
</g>
<g>
</g>
<g>
</g>
<g>
</g>
<g>
</g>
<g>
</g>
<g>
</g>
<g>
</g>
<g>
</g>
<g>
</g>
</svg>
