<?xml version="1.0" encoding="iso-8859-1"?>
<!-- Generator: Adobe Illustrator 19.0.0, SVG Export Plug-In . SVG Version: 6.00 Build 0)  -->
<svg version="1.1" id="Capa_1" xmlns="http://www.w3.org/2000/svg" xmlns:xlink="http://www.w3.org/1999/xlink" x="0px" y="0px"
	 viewBox="0 0 512 512" style="enable-background:new 0 0 512 512;" xml:space="preserve">
<path style="fill:#F3D1BB;" d="M109.841,157.583v80.925h-2.114c-16.121,0-29.19,13.069-29.19,29.19s13.069,29.19,29.19,29.19h2.147
	c1.382,57.067,48.074,102.904,105.474,102.904h20.338c-0.002,3.765-0.004,8.357-0.004,8.372c-0.01,9.704-0.134,9.423-9.402,10.718
	c-7.148,0.999-14.006,3.756-19.863,7.971c-11.591,8.342-18.613,22.002-18.629,36.284l-0.046,42.774l135.981,0.145l0.046-42.774
	c0.015-14.282-6.978-27.957-18.551-36.324c-5.848-4.228-12.7-7-19.846-8.014c-9.266-1.315-9.389-1.033-9.379-10.738
	c0-0.015,0.002-4.642,0.004-8.415h20.65c58.27,0,105.507-47.237,105.507-105.507V157.583H109.841z"/>
<g>
	<path style="fill:#CA3042;" d="M108.989,288.445c0,0-22.174,32.827,6.141,92.916c0,0,32.963,33.811,127.364,12.733
		C242.493,394.094,127.044,404.771,108.989,288.445z"/>
	<path style="fill:#CA3042;" d="M101.644,389.582c0,0-20.519-2.598-37.988,15.568c-10.733,11.161-16.402,26.258-16.415,41.742
		c-0.005,6.664-0.553,15.366-2.674,23.915c-1.745,7.032,4.689,13.459,11.735,11.772c22.751-5.45,59.591-23.504,55.001-83.315
		L101.644,389.582z"/>
</g>
<path style="fill:#F2B844;" d="M100.231,408.937l-11.75-11.775c-7.473-7.489-7.46-19.731,0.029-27.204l0,0
	c7.489-7.473,19.731-7.46,27.204,0.029l11.75,11.775c7.473,7.489,7.46,19.731-0.029,27.204l0,0
	C119.946,416.439,107.704,416.426,100.231,408.937z"/>
<g>
	<path style="fill:#CA3042;" d="M402.941,288.758c0,0,22.104,32.874-6.339,92.902c0,0-33.035,33.74-127.39,12.462
		C269.212,394.123,384.638,405.045,402.941,288.758z"/>
	<path style="fill:#CA3042;" d="M410.07,389.91c0,0,20.524-2.554,37.955,15.648c10.709,11.183,16.346,26.292,16.326,41.777
		c-0.009,6.664,0.52,15.367,2.623,23.92c1.73,7.036-4.718,13.449-11.76,11.747c-22.74-5.498-59.541-23.631-54.824-83.432
		L410.07,389.91z"/>
</g>
<path style="fill:#F2B844;" d="M411.442,409.269l11.775-11.75c7.489-7.473,7.502-19.715,0.029-27.204l0,0
	c-7.473-7.489-19.715-7.502-27.204-0.029l-11.775,11.75c-7.489,7.473-7.502,19.715-0.029,27.204l0,0
	C391.712,416.729,403.953,416.742,411.442,409.269z"/>
<path style="fill:#E8C0A8;" d="M404.79,238.667l-2.611-0.003l0.086-80.922l-41.711-0.044l-0.146,136.696
	c-0.062,58.277-47.341,105.455-105.617,105.393l41.711,0.044c57.392,0.061,104.137-45.716,105.582-102.786l2.644,0.003
	c8.471,0.009,16.103-3.591,21.441-9.349c4.822-5.2,7.772-12.16,7.78-19.811l0,0C433.966,251.767,420.911,238.684,404.79,238.667z"/>
<g>
	<circle style="fill:#E8979F;" cx="170.578" cy="322.77" r="15.719"/>
	<circle style="fill:#E8979F;" cx="341.278" cy="322.96" r="15.719"/>
</g>
<path style="fill:#CA3042;" d="M402.3,121.244c0.004-3.501-0.179-6.841-0.497-10.347c-1.671-18.462-7.988-36.386-18.261-51.817
	c-10.043-15.085-23.744-27.659-39.645-36.355c-16.367-8.95-34.893-13.646-53.543-13.666c-0.004,0-68.178-0.073-68.183-0.073
	c-18.664-0.02-37.215,4.644-53.611,13.573c-15.929,8.675-29.661,21.238-39.733,36.322c-10.303,15.431-16.646,33.366-18.335,51.843
	c-0.158,1.725-0.26,3.451-0.354,5.181c-0.202,3.732-0.155,7.486-0.159,11.281c-0.004,3.92,0.136,154.449-0.165,154.866
	c38.696-53.688,146.232-70.192,146.232-70.192c55.445-10.5,72.59-38.64,72.593-38.645c-0.994,1.631,0.088,5.36,0.424,6.974
	c4.714,22.628,19.118,40.789,37.422,54.215c12.781,9.375,31.844,27.17,35.647,43.349L402.3,121.244z"/>
<path style="fill:#B0142F;" d="M402.303,121.245l-0.167,156.509c-3.811-16.174-22.865-33.974-35.646-43.346
	c-3.838-2.815-7.504-5.842-10.946-9.066l0.111-104.146c0.004-3.498-0.178-6.838-0.504-10.349
	c-1.67-18.455-7.987-36.387-18.253-51.815c-10.042-15.085-23.743-27.666-39.653-36.355C280.888,13.723,262.361,9.03,243.71,9.01
	c19.984,0.021,46.648,0.05,46.648,0.05c18.651,0.02,37.179,4.712,53.537,13.666c15.91,8.689,29.611,21.27,39.653,36.355
	c10.266,15.428,16.583,33.36,18.253,51.815C402.126,114.407,402.307,117.747,402.303,121.245z"/>
<circle style="fill:#FFFFFF;" cx="255.888" cy="359.52" r="12.483"/>
<path style="fill:#8FBA1E;" d="M323.766,463.285l-0.046,42.772l-135.974-0.145l0.046-42.772
	c0.015-14.286,7.031-27.945,18.621-36.283c3.743-2.693,7.893-4.79,12.27-6.212c2.471-0.805,5.02-1.398,7.6-1.764
	c3.78-0.529,6.038-0.785,7.388-1.576l1.732,0.386l4.365,2.474c9.866,5.609,21.932,5.661,31.849,0.144l4.637-2.575l1.733-0.382
	c1.348,0.793,3.606,1.054,7.384,1.592c2.579,0.371,5.127,0.97,7.596,1.78c4.373,1.432,8.519,3.537,12.256,6.239
	C316.794,435.325,323.781,448.999,323.766,463.285z"/>
<path style="fill:#FFFFFF;" d="M292.971,420.722c-2.476-0.805-5.021-1.409-7.598-1.783c-1.123-0.152-2.115-0.293-2.977-0.424
	l-0.04,37.967l-53.138-0.057l0.04-37.967c-0.862,0.129-1.855,0.269-2.978,0.418c-2.577,0.368-5.124,0.967-7.602,1.767
	c-2.407,0.779-4.734,1.769-6.971,2.95l-0.022,20.513l-0.008,7.219l-0.058,54.612l88.229,0.094l0.058-54.612l0.008-7.219
	l0.022-20.513C297.701,422.502,295.376,421.507,292.971,420.722z"/>
<path d="M264.526,322.497l-17.195-0.018c-4.153-0.004-7.516-3.375-7.512-7.528l0.035-32.976c0.004-4.153,3.375-7.516,7.528-7.512
	s7.516,3.375,7.512,7.528l-0.027,25.456l9.676,0.01c4.153,0.004,7.516,3.375,7.512,7.528S268.679,322.502,264.526,322.497z"/>
<path d="M213.506,296.39c-4.153-0.004-7.516-3.375-7.512-7.528l0.024-22.636c0.004-4.153,3.375-7.516,7.528-7.512
	s7.516,3.375,7.512,7.528l-0.024,22.636C221.029,293.032,217.659,296.395,213.506,296.39z"/>
<path d="M298.407,296.481c-4.153-0.004-7.516-3.375-7.512-7.528l0.024-22.636c0.004-4.153,3.375-7.516,7.528-7.512
	s7.516,3.375,7.512,7.528l-0.024,22.636C305.93,293.122,302.56,296.485,298.407,296.481z"/>
<g>
	<path style="fill:#CA3042;" d="M226.453,254.424l-29.622-0.032c-4.153-0.004-7.516-3.375-7.512-7.528s3.375-7.516,7.528-7.512
		l29.622,0.032c4.153,0.004,7.516,3.375,7.512,7.528S230.606,254.428,226.453,254.424z"/>
	<path style="fill:#CA3042;" d="M315.172,254.518l-29.622-0.032c-4.153-0.004-7.516-3.375-7.512-7.528s3.375-7.516,7.528-7.512
		l29.622,0.032c4.153,0.004,7.516,3.375,7.512,7.528C322.695,251.16,319.324,254.523,315.172,254.518z"/>
</g>
<path d="M255.868,379.525c-11.03-0.012-19.993-8.994-19.981-20.024s8.994-19.993,20.024-19.981
	c11.03,0.012,19.993,8.994,19.981,20.024C275.88,370.573,266.898,379.537,255.868,379.525z M255.895,354.559
	c-2.737-0.003-4.966,2.221-4.969,4.958s2.221,4.966,4.958,4.969s4.966-2.221,4.969-4.958
	C260.856,356.79,258.632,354.562,255.895,354.559z"/>
<path d="M474.502,467.723c-1.591-6.442-2.431-14.088-2.429-22.112c0.004-17.875-6.553-34.555-18.465-46.968
	c-5.697-5.937-11.695-9.938-17.376-12.635c0.173-1.24,0.265-2.499,0.265-3.774c0-7.162-2.775-13.881-7.814-18.919
	c-4.071-4.071-9.241-6.663-14.853-7.508c6.69-23.989,5.389-42.437,2.475-54.78c5.838-1.937,11.171-5.319,15.416-9.907
	c6.294-6.802,9.76-15.654,9.76-24.926c0-18.578-13.875-33.966-31.805-36.373V119.585c0-3.513-0.171-7.018-0.539-11.032
	c-1.805-19.706-8.565-38.824-19.549-55.285c-10.739-16.094-25.379-29.491-42.338-38.74C329.825,5.023,310.059,0,290.09,0h-68.183
	c-19.986,0-39.765,5.031-57.2,14.55c-6.643,3.627-12.99,7.928-18.864,12.783c-3.201,2.646-3.652,7.385-1.006,10.587
	c2.646,3.2,7.385,3.652,10.587,1.006c5.138-4.246,10.686-8.007,16.491-11.176c15.231-8.316,32.519-12.711,49.994-12.711h68.183
	c17.461,0,34.736,4.388,49.957,12.691c14.831,8.089,27.636,19.806,37.029,33.885c9.599,14.385,15.506,31.09,17.083,48.309
	c0.325,3.547,0.476,6.616,0.476,9.66V248.44c-9.54-11.012-20.489-19.35-23.734-21.723c-13.018-9.527-29.581-25.874-34.56-49.65
	c-0.056-0.269-0.129-0.587-0.211-0.94c-0.113-0.485-0.345-1.487-0.434-2.147c1.071-3.256-0.202-6.934-3.259-8.781
	c-3.532-2.133-8.12-1.021-10.285,2.485c-0.281,0.439-16.797,25.583-67.44,35.264c-2.413,0.38-29.505,4.791-61.346,15.876
	c-3.922,1.365-5.995,5.652-4.629,9.574c1.365,3.922,5.653,5.994,9.574,4.629c31.3-10.897,58.566-15.196,58.835-15.238
	c0.087-0.014,0.173-0.028,0.258-0.045c34.528-6.577,55.102-19.727,66.3-29.625c6.079,19.33,19.195,36.74,38.315,50.733
	c13.924,10.19,29.23,25.836,32.615,38.213v15.716c0,54.03-43.957,97.987-97.987,97.987h-81.3c-54.03,0-97.987-43.957-97.987-97.987
	v-9.586c7.886-10.293,19.235-19.936,33.779-28.686c3.559-2.141,4.708-6.761,2.567-10.32c-2.141-3.558-6.762-4.707-10.32-2.567
	c-9.95,5.986-18.608,12.416-25.904,19.227c0.016-11.119,0.014-25.874,0.003-41.548c-0.023-32.596-0.085-69.163-0.112-85.228
	c-0.008-4.77-0.013-7.729-0.013-8.236l-0.003-1.952c-0.007-3.107-0.014-6.042,0.139-8.929c0.08-1.495,0.177-3.229,0.328-4.904
	c1.025-11.347,3.901-22.414,8.549-32.894c1.684-3.796-0.029-8.239-3.825-9.922c-3.797-1.684-8.239,0.029-9.922,3.825
	c-5.316,11.987-8.606,24.649-9.779,37.638c-0.174,1.931-0.281,3.83-0.368,5.459c-0.175,3.304-0.167,6.587-0.16,9.762l0.003,1.917
	c0,0.508,0.005,3.477,0.013,8.261c0.073,43.009,0.108,73.852,0.118,95.769c-17.751,2.566-31.435,17.875-31.435,36.326
	c0,16.033,10.336,29.688,24.691,34.678c-2.945,12.343-4.3,30.842,2.428,54.94c-5.601,0.85-10.759,3.439-14.823,7.502
	c-5.038,5.038-7.814,11.758-7.814,18.919c0,1.274,0.092,2.533,0.265,3.773c-5.681,2.696-11.678,6.698-17.376,12.636
	c-11.912,12.413-18.469,29.093-18.465,46.968c0.002,8.023-0.838,15.67-2.429,22.112c-1.447,5.859,0.245,11.928,4.525,16.235
	c3.311,3.33,7.682,5.124,12.211,5.124c1.351,0,2.716-0.16,4.071-0.486c11.796-2.839,28.58-9.234,41.549-23.58
	c10.625-11.752,16.9-26.742,18.832-44.693c5.215-0.921,10.209-3.386,14.23-7.406c3.437-3.437,5.734-7.587,6.906-11.976
	c11.374,3.48,26.309,6.159,45.418,6.159c7.091,0,14.758-0.369,23.019-1.201c0.433-0.044,0.852-0.126,1.258-0.238
	c1.932,0.099,3.877,0.149,5.834,0.149h12.975v0.874c0,0.89,0,1.943-0.018,2.866c-0.826,0.125-1.776,0.259-2.925,0.413
	c-2.213,0.319-4.334,0.77-6.478,1.359c-6.082,1.672-11.61,4.309-16.704,7.983c-13.594,9.806-21.71,25.657-21.71,42.403v42.774
	c0,4.153,3.367,7.52,7.52,7.52h23.876h88.229h23.876c4.153,0,7.52-3.367,7.52-7.52v-42.774c0-16.746-8.116-32.597-21.711-42.403
	c-4.923-3.551-10.837-6.373-16.705-7.983c-0.795-0.218-9.406-1.974-9.401-1.773c-0.018-0.923-0.018-1.975-0.018-2.864v-0.874h12.975
	c1.962,0,3.913-0.051,5.851-0.15c0.401,0.11,0.813,0.196,1.241,0.239c8.266,0.833,15.925,1.201,23.019,1.201
	c19.107-0.001,34.043-2.681,45.417-6.16c1.172,4.39,3.469,8.54,6.907,11.978c4.012,4.011,8.991,6.474,14.194,7.4
	c1.935,17.959,8.238,32.941,18.868,44.699c12.97,14.346,29.754,20.741,41.549,23.58c1.355,0.326,2.72,0.486,4.071,0.486
	c4.529,0,8.901-1.794,12.211-5.124C474.257,479.652,475.949,473.583,474.502,467.723z M86.057,266.194
	c0-9.945,6.733-18.346,15.881-20.885v41.771C92.79,284.541,86.057,276.14,86.057,266.194z M54.783,473.974
	c-1.041,0.253-1.761-0.28-2.097-0.619c-0.327-0.328-0.837-1.029-0.591-2.026c1.905-7.714,2.87-16.369,2.867-25.722
	c-0.003-13.973,5.067-26.954,14.276-36.551c3.827-3.988,8.091-7.111,12.735-9.355c0.429,0.496,0.871,0.984,1.339,1.452
	l11.762,11.763c2.56,2.56,5.515,4.488,8.67,5.791C99.816,455.002,75.889,468.895,54.783,473.974z M122.279,402.282
	c-4.568,4.569-12.002,4.569-16.57,0l-11.762-11.763c-2.198-2.198-3.409-5.14-3.409-8.284c0-3.144,1.211-6.087,3.409-8.285
	c4.569-4.568,12.001-4.568,16.569,0l11.762,11.762C126.847,390.281,126.847,397.714,122.279,402.282z M139.118,384.82
	c-1.293-3.557-3.357-6.894-6.205-9.742l-11.762-11.762c-1.932-1.932-4.113-3.528-6.469-4.765
	c-3.648-10.875-5.467-20.469-6.13-28.759c8.744,25.159,26.139,46.304,48.611,59.854C150.02,388.337,144.031,386.623,139.118,384.82z
	 M204.364,496.961h-8.837v-35.254c0-8.876,3.207-17.396,8.837-24.056V496.961z M307.632,437.651c5.63,6.66,8.837,15.18,8.837,24.056
	v35.254h-8.837V437.651z M256.55,429.405c5.606,0,11.872-0.985,18.498-3.688v21.715h-38.099v-22.091
	C241.397,427.25,248.243,429.405,256.55,429.405z M243.263,411.708c0.076-1.215,0.094-2.511,0.098-3.909h25.275
	c0.003,1.515,0.023,2.911,0.117,4.213C257.637,416.274,248.171,413.754,243.263,411.708z M290.087,454.95v-28.838
	c0.263,0.08,0.529,0.152,0.79,0.238c0.272,0.089,0.542,0.192,0.813,0.288c0.302,0.107,0.604,0.217,0.903,0.332v69.99h-73.19v-69.99
	c0.304-0.117,0.609-0.228,0.916-0.337c0.265-0.094,0.529-0.195,0.794-0.282c0.263-0.087,0.531-0.159,0.796-0.24v28.838
	c0,4.153,3.367,7.52,7.52,7.52h53.138C286.72,462.47,290.087,459.103,290.087,454.95z M410.559,245.309
	c9.148,2.539,15.881,10.941,15.881,20.886c0,5.473-2.045,10.698-5.759,14.712c-2.595,2.805-5.78,4.81-9.292,5.928
	c-0.299-0.615-0.576-1.16-0.83-1.633L410.559,245.309L410.559,245.309z M379.082,375.078c-2.844,2.844-4.907,6.177-6.2,9.729
	c-4.915,1.804-10.896,3.523-18.041,4.834c22.433-13.529,39.805-34.627,48.561-59.732c-0.67,8.272-2.492,17.839-6.118,28.656
	c-2.345,1.235-4.516,2.827-6.44,4.751L379.082,375.078z M389.717,402.282c-4.569-4.569-4.569-12.001,0-16.57l11.762-11.762
	c2.284-2.284,5.284-3.426,8.285-3.426c3,0,6,1.142,8.285,3.426c2.198,2.198,3.409,5.14,3.409,8.284c0,3.144-1.211,6.087-3.409,8.285
	l-11.762,11.762C401.719,406.851,394.286,406.851,389.717,402.282z M459.31,473.356c-0.336,0.339-1.057,0.872-2.097,0.619
	c-21.106-5.079-45.035-18.972-48.966-55.265c3.156-1.304,6.113-3.232,8.674-5.793l11.762-11.762
	c0.463-0.463,0.901-0.945,1.325-1.436c4.648,2.24,8.92,5.348,12.749,9.338c9.209,9.597,14.28,22.578,14.276,36.551
	c-0.003,9.353,0.962,18.008,2.867,25.722C460.147,472.327,459.637,473.027,459.31,473.356z"/>
<g>
</g>
<g>
</g>
<g>
</g>
<g>
</g>
<g>
</g>
<g>
</g>
<g>
</g>
<g>
</g>
<g>
</g>
<g>
</g>
<g>
</g>
<g>
</g>
<g>
</g>
<g>
</g>
<g>
</g>
</svg>
