<?xml version="1.0" encoding="iso-8859-1"?>
<!-- Generator: Adobe Illustrator 19.0.0, SVG Export Plug-In . SVG Version: 6.00 Build 0)  -->
<svg version="1.1" id="Capa_1" xmlns="http://www.w3.org/2000/svg" xmlns:xlink="http://www.w3.org/1999/xlink" x="0px" y="0px"
	 viewBox="0 0 512.003 512.003" style="enable-background:new 0 0 512.003 512.003;" xml:space="preserve">
<path style="fill:#8C6239;" d="M461.555,262.251c11.367-13.212,18.252-30.39,18.252-49.187c0-41.688-33.795-75.483-75.483-75.483
	c-4.684,0-292.494,0-297.178,0c-41.688,0-75.483,33.795-75.483,75.483c0,18.796,6.886,35.974,18.252,49.187
	c-19.994,15.119-32.919,39.092-32.919,66.091c0,45.738,37.078,82.815,82.815,82.815c3.51,0,6.961-0.244,10.356-0.667
	c9.145,31.394,38.113,54.342,72.46,54.342c35.174,0,64.73-24.06,73.107-56.619c8.377,32.56,37.931,56.619,73.107,56.619
	c34.346,0,63.315-22.947,72.46-54.342c3.395,0.424,6.846,0.667,10.356,0.667c45.738,0,82.815-37.078,82.815-82.815
	C494.473,301.343,481.548,277.369,461.555,262.251z"/>
<path style="fill:#7F522D;" d="M494.466,328.336c0,45.739-37.07,82.823-82.81,82.823c-3.505,0-6.956-0.241-10.354-0.669
	c-9.151,31.398-38.114,54.342-72.456,54.342c-20.281,0-38.69-8-52.254-21.017c28.34-3.625,51.757-22.975,61.256-49.025
	c1.001-2.746,3.761-4.398,6.678-4.206c1.726,0.114,3.465,0.174,5.218,0.174c45.739,0,82.81-37.071,82.81-82.81
	c0-24.741-10.854-46.943-28.051-62.126c-2.568-2.267-2.984-6.116-0.972-8.888c9.024-12.43,14.362-27.72,14.362-44.264
	c0-21.726-9.177-41.311-23.893-55.091h9.06c41.502,0,76.729,33.945,76.747,75.447c0.008,18.808-6.883,35.998-18.248,49.223
	C481.543,277.366,494.466,301.339,494.466,328.336z"/>
<path style="fill:#F3D1BB;" d="M107.604,153.831v83.89h-2.753c-16.079,0-29.114,13.035-29.114,29.115l0,0
	c0,16.079,13.035,29.115,29.114,29.115h2.819c1.884,57.404,49.005,103.363,106.867,103.363h21.096c0,4.261,0,7.635,0,7.645
	c0,9.679-0.123,9.398-9.366,10.699c-7.128,1.003-13.966,3.761-19.802,7.972c-11.552,8.333-18.541,21.964-18.541,36.21v42.662
	h135.627v-42.662c0-14.245-6.989-27.877-18.541-36.21c-5.837-4.21-12.675-6.968-19.802-7.972c-9.243-1.301-9.366-1.02-9.366-10.699
	c0-0.01,0-3.383,0-7.645h21.096c59.057,0,106.932-47.876,106.932-106.932v-138.55H107.604z"/>
<path style="fill:#33B4AE;" d="M323.546,461.84v42.661h-135.62V461.84c0-14.249,6.983-27.879,18.534-36.208
	c3.73-2.69,7.868-4.786,12.231-6.209c2.464-0.805,5.005-1.399,7.577-1.768c3.769-0.532,6.022-0.79,7.366-1.58l1.729,0.383
	l4.356,2.464c9.846,5.584,21.881,5.623,31.766,0.109l4.621-2.573l1.729-0.383c1.345,0.79,3.597,1.048,7.366,1.58
	c2.573,0.367,5.115,0.962,7.578,1.768c4.363,1.423,8.501,3.519,12.231,6.209C316.562,433.961,323.546,447.591,323.546,461.84z"/>
<path style="fill:#E8C0A8;" d="M406.12,237.721h-2.25v-83.887h-42.275v138.543c0,59.064-47.867,106.931-106.931,106.931h42.275
	c57.855,0,104.979-45.949,106.865-103.358h2.315c8.449,0,16.057-3.599,21.375-9.347c4.804-5.192,7.739-12.137,7.739-19.767l0,0
	C435.234,250.756,422.2,237.721,406.12,237.721z"/>
<path style="fill:#8C6239;" d="M373.707,54.804c-12.541,0-24.301,3.32-34.476,9.105c-13.314-33.062-45.668-56.409-83.494-56.409
	s-70.181,23.348-83.494,56.409c-10.175-5.785-21.934-9.105-34.476-9.105c-38.595,0-69.881,31.287-69.881,69.881
	s31.286,69.881,69.881,69.881c23.908,0,45.003-12.013,57.602-30.325c15.966,14.451,37.138,23.256,60.369,23.256
	c23.231,0,44.402-8.805,60.37-23.256c12.599,18.312,33.694,30.325,57.602,30.325c38.595,0,69.881-31.287,69.881-69.881
	S412.301,54.804,373.707,54.804z"/>
<path style="fill:#7F522D;" d="M443.58,123.456c0.6,35.007-24.537,64.249-57.756,70.056c12.222-13.519,19.244-31.824,17.879-51.777
	c-2.398-35.038-31.088-63.13-66.165-64.884c-11.448-0.572-22.323,1.641-32.036,5.988c-3.297,1.475-7.153,0.105-8.751-3.135
	c-14.679-29.757-45.312-50.246-80.733-50.246c-7.665,0-15.091,0.963-22.194,2.756c16.119-15.318,37.912-24.709,61.912-24.709
	c37.833,0,70.181,23.345,83.492,56.402c11.107-6.305,24.092-9.68,37.912-9.014C413.654,56.651,442.954,86.906,443.58,123.456z"/>
<g>
	<circle style="fill:#FBB03B;" cx="184.84" cy="277.01" r="70.866"/>
	<circle style="fill:#FBB03B;" cx="326.637" cy="277.01" r="70.866"/>
</g>
<path d="M153.841,287.874c-1.994,0-3.983-0.79-5.459-2.357c-2.841-3.015-2.7-7.762,0.314-10.602l34.309-32.331
	c3.014-2.839,7.76-2.701,10.601,0.315c2.841,3.015,2.7,7.762-0.314,10.602l-34.309,32.331
	C157.535,287.198,155.687,287.874,153.841,287.874z"/>
<path d="M158.917,320.674c-1.994,0-3.983-0.79-5.459-2.357c-2.841-3.015-2.7-7.762,0.314-10.602l58.467-55.095
	c3.013-2.839,7.76-2.7,10.601,0.315c2.841,3.015,2.7,7.762-0.314,10.602l-58.467,55.095
	C162.612,319.997,160.763,320.674,158.917,320.674z"/>
<path d="M304.634,287.874c-1.994,0-3.983-0.79-5.459-2.357c-2.841-3.015-2.7-7.762,0.314-10.602l34.309-32.331
	c3.013-2.839,7.759-2.701,10.601,0.315c2.841,3.015,2.7,7.762-0.314,10.602l-34.309,32.331
	C308.329,287.198,306.48,287.874,304.634,287.874z"/>
<path d="M309.71,320.674c-1.994,0-3.983-0.79-5.459-2.357c-2.841-3.015-2.7-7.762,0.314-10.602l58.467-55.095
	c3.013-2.839,7.761-2.7,10.601,0.315c2.841,3.015,2.7,7.762-0.314,10.602l-58.467,55.095
	C313.404,319.997,311.556,320.674,309.71,320.674z"/>
<path d="M472.227,261.109c9.941-13.984,15.343-30.777,15.343-48.045c0-28.628-14.567-54.839-38.44-70.012
	c1.44-5.891,2.221-12.038,2.221-18.367c0-42.668-34.712-77.381-77.381-77.381c-10.628,0-21.15,2.203-30.847,6.419
	C326.656,20.838,293.279,0,256,0c-37.278,0-70.655,20.838-87.123,53.723c-9.696-4.216-20.218-6.419-30.846-6.419
	c-4.142,0-7.5,3.358-7.5,7.5s3.357,7.499,7.5,7.499c10.781,0,21.42,2.81,30.768,8.126c1.882,1.069,4.134,1.274,6.176,0.562
	c2.044-0.712,3.679-2.273,4.488-4.28C192.113,35.298,222.156,15,256.001,15s63.888,20.298,76.538,51.711
	c0.808,2.008,2.445,3.568,4.487,4.28c2.042,0.712,4.295,0.508,6.177-0.562c9.349-5.316,19.991-8.126,30.769-8.126
	c34.397,0,62.381,27.984,62.381,62.381s-27.984,62.381-62.381,62.381c-20.535,0-39.758-10.122-51.423-27.076
	c-1.225-1.782-3.161-2.947-5.309-3.198c-2.151-0.252-4.299,0.437-5.903,1.889c-15.187,13.745-34.839,21.316-55.337,21.316
	c-20.496,0-40.148-7.57-55.336-21.316c-1.604-1.451-3.754-2.145-5.903-1.889c-2.148,0.25-4.083,1.416-5.309,3.198
	c-11.665,16.955-30.888,27.077-51.423,27.077c-34.397,0-62.381-27.984-62.381-62.381c0-17.256,7.246-33.899,19.88-45.663
	c3.031-2.823,3.2-7.568,0.378-10.599c-2.822-3.031-7.566-3.202-10.6-0.378c-15.671,14.592-24.658,35.236-24.658,56.64
	c0,6.325,0.78,12.469,2.219,18.358c-23.853,15.18-38.439,41.483-38.439,70.021c0,17.268,5.403,34.061,15.344,48.045
	c-19.163,17.127-30.01,41.232-30.01,67.233c0,3.402,0.191,6.83,0.568,10.188c0.431,3.832,3.677,6.663,7.444,6.663
	c0.279,0,0.561-0.016,0.845-0.047c4.116-0.462,7.078-4.173,6.616-8.29c-0.314-2.804-0.474-5.669-0.474-8.514
	c0-23.811,10.913-45.72,29.941-60.109c1.653-1.249,2.714-3.125,2.935-5.185c0.22-2.059-0.422-4.117-1.773-5.688
	c-10.599-12.322-16.437-28.053-16.437-44.295c0-22.204,10.783-42.754,28.608-55.421c6.914,14.624,18.278,26.744,32.332,34.612
	v38.283c-17.953,2.337-31.866,17.717-31.866,36.297c0,18.756,14.18,34.256,32.382,36.362
	c5.468,58.043,54.468,103.615,113.918,103.615h13.595v0.145c0,0.888,0,1.94-0.019,2.86c-0.659,0.1-1.389,0.202-2.082,0.299
	l-0.811,0.114c-8.314,1.17-16.317,4.391-23.145,9.316c-12.319,8.886-20.106,22.754-21.43,37.743
	c-29.222-0.864-55.068-20.72-63.275-48.898c-1.031-3.536-4.486-5.802-8.13-5.345c-3.29,0.411-6.374,0.61-9.428,0.61
	c-20.994,0-40.482-8.427-54.874-23.728c-2.838-3.017-7.584-3.162-10.601-0.325c-3.017,2.838-3.162,7.584-0.324,10.601
	c17.006,18.081,40.989,28.45,65.799,28.45c1.677,0,3.389-0.052,5.126-0.156c11.771,31.301,41.809,52.878,75.483,53.787v32.214
	c0,4.142,3.357,7.5,7.5,7.5h135.628c4.142,0,7.5-3.358,7.5-7.5v-32.214c33.673-0.908,63.712-22.484,75.483-53.786
	c1.737,0.103,3.448,0.155,5.126,0.155c49.8,0,90.315-40.515,90.315-90.315C502.238,302.342,491.391,278.237,472.227,261.109z
	 M99.341,287.667c-9.124-2.532-15.84-10.912-15.84-20.832c0-9.919,6.716-18.299,15.84-20.831V287.667z M115.368,198.673
	c7.17,2.202,14.779,3.393,22.661,3.393c22.729,0,44.161-9.994,58.791-27.083c16.943,12.957,37.667,20.014,59.178,20.014
	s42.237-7.056,59.179-20.014c14.63,17.09,36.063,27.083,58.793,27.083c7.884,0,15.491-1.191,22.661-3.393v38.361
	c-13.796-23.594-39.386-39.489-68.633-39.489c-31.821,0-59.319,18.809-71.999,45.887c-12.679-27.078-40.176-45.887-71.998-45.887
	c-29.248,0-54.838,15.894-68.634,39.488L115.368,198.673L115.368,198.673z M392.463,277.009c0,35.546-28.918,64.464-64.464,64.464
	s-64.465-28.918-64.465-64.464c0-35.547,28.918-64.465,64.465-64.465C363.544,212.544,392.463,241.463,392.463,277.009z
	 M184.002,212.544c35.546,0,64.464,28.918,64.464,64.465c0,35.546-28.918,64.464-64.464,64.464
	c-35.547,0-64.465-28.918-64.465-64.464C119.537,241.463,148.455,212.544,184.002,212.544z M214.801,391.812
	c-43.276,0-80.176-27.792-93.807-66.463c14.54,18.906,37.368,31.124,63.009,31.124c22.001,0,41.939-8.991,56.341-23.488v21.973
	c0,4.142,3.357,7.499,7.499,7.499h16.313c4.142,0,7.5-3.358,7.5-7.499s-3.357-7.499-7.5-7.499h-8.814v-35.493
	c0.225-0.457,0.441-0.917,0.657-1.379c12.679,27.078,40.176,45.887,71.998,45.887c25.639,0,48.468-12.218,63.008-31.124
	c-13.631,38.671-50.531,66.463-93.808,66.463h-82.398V391.812z M268.722,412.272c-11.088,4.251-20.528,1.739-25.423-0.303
	c0.076-1.212,0.094-2.505,0.097-3.899h25.209C268.608,409.582,268.628,410.974,268.722,412.272z M316.314,497.001H298.37v-16.74
	c0-4.142-3.357-7.5-7.5-7.5c-4.142,0-7.5,3.358-7.5,7.5v16.74h-54.74v-16.74c0-4.142-3.357-7.5-7.5-7.5c-4.142,0-7.5,3.358-7.5,7.5
	v16.74h-17.944v-35.162c0.001-11.897,5.769-23.159,15.43-30.127c4.858-3.504,10.549-5.796,16.46-6.628l0.797-0.112
	c1.963-0.274,3.768-0.527,5.415-0.931c3.826,2.017,12.093,5.58,22.761,5.58c6.667,0,14.269-1.4,22.299-5.434
	c1.472,0.321,3.064,0.546,4.778,0.785l0.797,0.112c5.911,0.832,11.604,3.124,16.461,6.627c9.661,6.969,15.428,18.231,15.429,30.127
	L316.314,497.001L316.314,497.001z M411.921,403.657c-3.055,0-6.138-0.2-9.427-0.61c-3.644-0.457-7.098,1.809-8.129,5.345
	c-8.209,28.178-34.055,48.034-63.276,48.898c-1.324-14.989-9.112-28.857-21.43-37.743c-6.827-4.924-14.831-8.145-23.145-9.316
	l-0.811-0.114c-0.692-0.097-1.422-0.199-2.082-0.299c-0.019-0.921-0.019-1.972-0.019-2.86v-0.145h13.595
	c59.474,0,108.489-45.609,113.924-103.686c8.429-1.108,16.312-5.131,22.141-11.43l0.001-0.001c6.276-6.785,9.733-15.614,9.733-24.86
	c0-18.407-13.655-33.679-31.367-36.233v-38.347c14.055-7.869,25.42-19.992,32.334-34.618c17.84,12.655,28.604,33.15,28.604,55.426
	c0,16.242-5.838,31.973-16.437,44.295c-1.35,1.57-1.992,3.629-1.772,5.688c0.22,2.06,1.281,3.936,2.934,5.186
	c19.028,14.39,29.942,36.298,29.942,60.109C487.238,369.871,453.451,403.657,411.921,403.657z M412.158,287.681v-41.677
	c9.124,2.532,15.841,10.913,15.841,20.832c0,5.458-2.04,10.669-5.744,14.674C419.463,284.527,415.992,286.63,412.158,287.681z"/>
<g>
</g>
<g>
</g>
<g>
</g>
<g>
</g>
<g>
</g>
<g>
</g>
<g>
</g>
<g>
</g>
<g>
</g>
<g>
</g>
<g>
</g>
<g>
</g>
<g>
</g>
<g>
</g>
<g>
</g>
</svg>
