<?xml version="1.0" encoding="iso-8859-1"?>
<!-- Generator: Adobe Illustrator 19.0.0, SVG Export Plug-In . SVG Version: 6.00 Build 0)  -->
<svg version="1.1" id="Capa_1" xmlns="http://www.w3.org/2000/svg" xmlns:xlink="http://www.w3.org/1999/xlink" x="0px" y="0px"
	 viewBox="0 0 512 512" style="enable-background:new 0 0 512 512;" xml:space="preserve">
<path style="fill:#F5A5C7;" d="M451.073,294.93c-1.625-0.706-2.311-2.66-1.524-4.248c2.655-5.354,4.148-11.387,4.148-17.768
	c0-13.571-6.756-25.557-17.082-32.799c-1.505-1.055-1.808-3.18-0.619-4.581c9.469-11.154,12.942-27.554,5.41-44.237
	c-5.419-12.004-20.895-21.706-34.066-21.706H104.663c-13.17,0-28.646,9.701-34.066,21.705c-7.533,16.684-4.06,33.085,5.409,44.238
	c1.189,1.402,0.886,3.526-0.619,4.581c-10.327,7.242-17.082,19.228-17.082,32.799c0,6.381,1.493,12.414,4.148,17.768
	c0.787,1.588,0.101,3.541-1.524,4.248c-15.605,6.779-26.521,22.318-26.521,40.417c0,24.333,19.726,44.059,44.059,44.059h0.052
	c2.242-0.001,3.748,2.251,2.937,4.34c-1.928,4.972-2.989,10.375-2.989,16.028c0,22.515,16.756,41.104,38.476,44.008h278.117
	c21.72-2.904,38.476-21.493,38.476-44.008c0-5.653-1.061-11.057-2.989-16.028c-0.81-2.089,0.696-4.341,2.937-4.34h0.052
	c24.334,0,44.059-19.726,44.059-44.059C477.595,317.248,466.678,301.708,451.073,294.93z"/>
<path style="fill:#E593BB;" d="M447.894,293.695c3.676-6.064,5.81-13.175,5.81-20.782c0-14.865-8.117-27.839-20.151-34.748
	c7.379-7.258,11.954-17.361,11.954-28.523c0-22.123-17.937-40.047-40.047-40.047h-53.813c22.11,0,40.047,17.924,40.047,40.047
	c0,9.875-3.581,18.92-9.516,25.901c-1.173,1.38-0.901,3.502,0.583,4.54c10.352,7.241,17.13,19.245,17.13,32.829
	c0,6.355-1.48,12.363-4.118,17.705c-0.815,1.65-0.113,3.614,1.574,4.351c15.559,6.8,26.439,22.316,26.439,40.384
	c0,24.324-19.722,44.059-44.059,44.059c-0.017,0-0.035,0-0.052,0c-2.242-0.003-3.765,2.197-2.952,4.286
	c1.936,4.984,3.004,10.404,3.004,16.08c0,22.513-16.757,41.094-38.478,44.005v0.402h53.813v-0.402
	c21.721-2.911,38.478-21.493,38.478-44.005c0-7.472-1.852-14.502-5.112-20.674c1.677,0.188,3.381,0.308,5.112,0.308
	c24.324,0,44.059-19.735,44.059-44.059C477.598,316.047,465.174,299.652,447.894,293.695z"/>
<path style="fill:#F3D1BB;" d="M107.447,122.882v114.928h-1.278c-16.074,0-29.105,13.031-29.105,29.105
	c0,16.074,13.031,29.105,29.105,29.105h1.311c1.381,58.024,48.848,104.638,107.205,104.638h21.222c0,0.522,0,6.308,0,6.333
	c0,9.676-0.123,9.396-9.363,10.696c-7.125,1.003-13.961,3.76-19.796,7.969c-11.548,8.329-18.535,21.958-18.535,36.198v42.648
	h135.583v-42.648c0-14.24-6.987-27.868-18.535-36.198c-5.836-4.209-12.67-6.966-19.796-7.969c-9.239-1.3-9.363-1.02-9.363-10.696
	c0-0.025,0-5.812,0-6.333h21.219c59.225,0,107.238-48.012,107.238-107.238V122.882H107.447z"/>
<path style="fill:#E8C0A8;" d="M407.197,240.17h-2.638V123.551h-42.395v170.534c0,59.233-48.003,107.237-107.237,107.237h42.395
	c59.219,0,107.236-48.003,107.236-107.237v-0.423h2.638c7.762,0,14.751-3.306,19.636-8.587c4.413-4.769,7.109-11.15,7.109-18.16l0,0
	C433.943,252.144,421.969,240.17,407.197,240.17z"/>
<path style="fill:#F5A5C7;" d="M310.814,7.498H201.189c-65.645,0-118.862,57.619-118.862,128.696v51.355
	c0,0.608,0.099,1.215,0.321,1.781c4.823,12.277,18.528,20.988,32.477,20.988c9.718,0,18.446-4.228,24.451-10.943
	c1.99-2.226,5.459-2.226,7.448,0c6.005,6.716,14.733,10.943,24.451,10.943c9.718,0,18.446-4.228,24.451-10.943
	c1.99-2.226,5.459-2.226,7.448,0c6.005,6.716,14.733,10.943,24.451,10.943s18.446-4.228,24.451-10.943
	c1.99-2.226,5.459-2.226,7.448,0c6.005,6.716,14.733,10.943,24.451,10.943c9.718,0,18.446-4.228,24.451-10.943
	c1.99-2.226,5.459-2.226,7.448,0c6.005,6.716,14.733,10.943,24.451,10.943c9.718,0,18.446-4.228,24.451-10.943
	c1.99-2.226,5.459-2.226,7.448,0c6.005,6.716,14.733,10.943,24.451,10.943c13.949,0,27.653-8.711,32.477-20.988
	c0.222-0.566,0.321-1.172,0.321-1.781v-51.354C429.676,65.117,376.459,7.498,310.814,7.498z"/>
<path style="fill:#E593BB;" d="M429.675,136.189v52.283c-4.508,12.732-18.528,21.842-32.802,21.842
	c-10.706,0-20.218-5.138-26.202-13.081c2.173-2.643,3.89-5.581,5.018-8.761v-52.283C375.688,65.123,322.466,7.5,256.82,7.5h53.987
	C376.452,7.501,429.675,65.123,429.675,136.189z"/>
<g>
	<circle style="fill:#E8979F;" cx="169.252" cy="323.137" r="15.977"/>
	<circle style="fill:#E8979F;" cx="342.759" cy="323.137" r="15.977"/>
</g>
<path style="fill:#8FBA1E;" d="M323.79,461.855v42.646H188.216v-42.646c0-14.244,6.981-27.871,18.528-36.196
	c3.729-2.689,7.865-4.784,12.227-6.207c2.463-0.805,5.004-1.4,7.576-1.767c3.768-0.532,6.02-0.79,7.364-1.579l1.728,0.383
	l4.355,2.463c9.842,5.582,21.874,5.621,31.756,0.109l4.62-2.572l1.728-0.383c1.345,0.79,3.596,1.047,7.364,1.579
	c2.572,0.367,5.113,0.961,7.576,1.767c4.362,1.423,8.498,3.518,12.227,6.207C316.81,433.985,323.79,447.612,323.79,461.855z"/>
<path style="fill:#FFFFFF;" d="M278.296,416.311v88.19h-44.585v-88.4l1.729,0.389l4.349,2.459c9.846,5.578,21.883,5.618,31.759,0.11
	l4.618-2.569l1.73-0.389C278.016,416.172,278.156,416.242,278.296,416.311z"/>
<path d="M261.327,329.401h-10.65c-4.141,0-7.498-3.357-7.498-7.498v-28.696c0-4.141,3.357-7.498,7.498-7.498
	s7.498,3.357,7.498,7.498v21.198h3.153c4.141,0,7.498,3.357,7.498,7.498C268.824,326.044,265.467,329.401,261.327,329.401z"/>
<g>
	<path style="fill:#E593BB;" d="M177.387,254.301c-3.013,0-5.855-1.829-7-4.81c-1.486-3.865,0.445-8.202,4.31-9.688l31.388-12.061
		c3.863-1.487,8.202,0.445,9.688,4.31c1.486,3.865-0.445,8.202-4.31,9.688L180.075,253.8
		C179.191,254.139,178.281,254.301,177.387,254.301z"/>
	<path style="fill:#E593BB;" d="M334.615,254.301c-0.893,0-1.803-0.161-2.688-0.501l-31.388-12.061
		c-3.865-1.486-5.794-5.823-4.309-9.688c1.484-3.864,5.818-5.797,9.688-4.31l31.388,12.061c3.865,1.486,5.794,5.823,4.309,9.688
		C340.47,252.471,337.629,254.301,334.615,254.301z"/>
</g>
<path d="M211.467,296.079c-4.141,0-7.498-3.357-7.498-7.497V265.38c0-4.141,3.357-7.498,7.498-7.498s7.497,3.357,7.497,7.498v23.201
	C218.964,292.722,215.608,296.079,211.467,296.079z"/>
<path d="M300.536,296.079c-4.142,0-7.498-3.357-7.498-7.497V265.38c0-4.141,3.356-7.498,7.498-7.498
	c4.141,0,7.498,3.357,7.498,7.498v23.201C308.034,292.722,304.677,296.079,300.536,296.079z"/>
<path d="M237.506,374.445c-1.078,0-2.174-0.234-3.213-0.728l-17.363-8.251c-3.74-1.777-5.331-6.25-3.553-9.989
	c1.778-3.739,6.25-5.333,9.989-3.553l17.363,8.251c3.74,1.777,5.331,6.25,3.553,9.989
	C242.999,372.865,240.309,374.445,237.506,374.445z"/>
<path d="M461.322,291.917c-1.838-1.176-2.687-3.441-2.069-5.534c1.282-4.348,1.942-8.882,1.942-13.468
	c0-12.666-5.101-24.682-13.817-33.482c-1.563-1.579-1.891-4.023-0.774-5.942c4.172-7.164,6.393-15.33,6.393-23.851
	c0-12.699-4.946-24.639-13.925-33.619c-0.572-0.572-1.217-1.022-1.901-1.371v-38.456C437.171,61.096,380.487,0,310.812,0H201.187
	c-14.173,0-28.111,2.516-41.395,7.476c-1.366,0.511-2.464,1.602-2.93,2.983c-2.539,7.526,3.881,12.594,9.483,10.586
	c11.206-4.015,22.928-6.051,34.843-6.051h109.624c61.406,0,111.364,54.37,111.364,121.2v49.785c0,0.72-0.137,1.441-0.453,2.087
	c-4.167,8.544-14.42,14.753-24.848,14.753c-8.991,0-17.118-4.618-21.738-12.355c-2.181-3.652-7.203-5.024-11.296-1.975
	c-0.553,0.411-0.991,0.957-1.334,1.555c-4.573,7.99-12.831,12.775-21.984,12.775c-8.991,0-17.117-4.619-21.739-12.356
	c-2.179-3.65-7.193-5.02-11.287-1.982c-0.556,0.412-0.996,0.96-1.34,1.56c-4.573,7.991-12.832,12.779-21.985,12.779
	c-8.991,0-17.117-4.618-21.738-12.355c-2.178-3.648-7.186-5.019-11.281-1.988c-0.558,0.412-0.999,0.961-1.344,1.564
	c-4.574,7.992-12.833,12.781-21.987,12.781c-8.991,0-17.117-4.618-21.739-12.355c-2.18-3.651-7.195-5.021-11.288-1.982
	c-0.555,0.411-0.995,0.959-1.339,1.559c-4.574,7.991-12.832,12.779-21.986,12.779c-8.991,0-17.117-4.618-21.739-12.355
	c-2.18-3.651-7.195-5.021-11.288-1.982c-0.555,0.411-0.995,0.959-1.339,1.559c-4.574,7.991-12.832,12.779-21.986,12.779
	c-10.428,0-20.681-6.209-24.848-14.753c-0.315-0.647-0.453-1.368-0.453-2.087v-49.786c0-33.977,12.639-65.566,35.555-88.775
	c1.058-1.071,1.636-2.556,1.445-4.049c-1.019-7.946-9.059-9.668-13.204-5.371c-25.014,25.922-38.79,60.795-38.79,98.194v38.033
	c-10.098,9.017-15.825,21.719-15.825,35.411c0,8.52,2.222,16.687,6.393,23.851c1.117,1.92,0.79,4.363-0.774,5.942
	c-8.715,8.801-13.816,20.816-13.816,33.482c0,4.586,0.66,9.121,1.941,13.469c0.617,2.093-0.231,4.358-2.069,5.534
	c-14.575,9.327-23.769,25.587-23.769,43.429c0,24.748,17.53,45.481,40.824,50.433c2.624,0.558,4.334,3.059,3.904,5.707
	c-0.444,2.736-0.67,5.509-0.67,8.286c0,24.838,17.791,46.197,41.872,50.928c0.387,0.076,68.9,0.985,68.9,0.985
	c-0.666,3.323-1.028,6.724-1.028,10.168v42.648c0,4.141,3.357,7.498,7.497,7.498h45.499h44.585h45.5
	c4.142,0,7.497-3.357,7.497-7.498v-42.648c0-3.444-0.363-6.845-1.029-10.167c0,0,68.51-0.909,68.897-0.985
	c24.079-4.729,41.872-26.09,41.872-50.928c0-2.778-0.226-5.551-0.67-8.287c-0.429-2.648,1.28-5.15,3.904-5.707
	c23.294-4.952,40.824-25.684,40.824-50.432C485.09,317.504,475.895,301.244,461.322,291.917z M434.762,195.463
	c2.115,4.365,3.24,9.183,3.24,14.177c0,8.782-3.45,17.016-9.714,23.186c-1.487,1.464-2.279,3.472-2.226,5.535
	c-4.133-2.739-8.89-4.608-14.011-5.339v-16.983c0-0.341-0.031-0.676-0.075-1.005C421.78,211.368,430.137,204.322,434.762,195.463z
	 M426.444,266.916c0,4.863-1.817,9.502-5.116,13.067c0,0,0,0.001-0.001,0.001c-2.297,2.484-5.112,4.272-8.22,5.267v-36.655
	C420.839,251.096,426.444,258.363,426.444,266.916z M77.232,195.453c4.613,8.842,12.943,15.878,22.716,19.554v15.846
	c-5.176,0.89-9.979,2.876-14.173,5.7c-0.17-0.8-0.467-1.606-0.912-2.396c-0.213-0.378-0.506-0.708-0.819-1.008
	c-6.474-6.204-10.046-14.574-10.046-23.51C73.998,204.621,75.127,199.8,77.232,195.453z M99.947,246.234v41.361
	c-8.89-2.679-15.388-10.929-15.388-20.68C84.559,257.164,91.057,248.913,99.947,246.234z M187.237,436.692h-67.09
	c-0.416,0-0.834-0.035-1.235-0.144c-0.316-0.086-0.643-0.152-0.976-0.196c-18.228-2.438-31.972-18.163-31.972-36.578
	c0-6.058,1.427-11.836,4.241-17.176c2.06-3.909,0.412-9.119-4.665-10.832c-0.71-0.239-1.477-0.282-2.22-0.186
	c-1.715,0.222-3.295,0.328-4.854,0.328c-20.16,0-36.561-16.402-36.561-36.561c0-15.595,9.905-29.485,24.648-34.565
	c3.643-1.255,5.989-5.199,4.706-9.532c-0.115-0.387-0.306-0.749-0.521-1.091c-3.228-5.155-4.936-11.129-4.936-17.243
	c0-6.897,2.225-13.503,6.134-18.954c-1.531,4.03-2.372,8.396-2.372,12.956c0,18.205,13.361,33.343,30.791,36.136
	c4.909,58.775,54.306,105.104,114.328,105.104h13.723c-0.002,0.571-0.006,1.154-0.016,1.695c-0.66,0.1-1.39,0.202-2.081,0.298
	l-0.811,0.114c-8.312,1.17-16.313,4.39-23.137,9.313C196.033,424.138,190.917,430.025,187.237,436.692z M268.602,408.155
	c0.004,1.398,0.023,2.693,0.101,3.907l-0.809,0.451c-7.541,4.205-16.895,4.173-24.416-0.088l-0.194-0.11
	c0.093-1.285,0.114-2.665,0.117-4.16L268.602,408.155L268.602,408.155z M195.708,461.854c0-11.892,5.766-23.151,15.424-30.117
	c4.477-3.23,9.666-5.413,15.08-6.388v71.656h-30.504v-35.151H195.708z M241.207,497.005v-69.102
	c9.483,3.692,20.15,3.632,29.59-0.186v69.289L241.207,497.005L241.207,497.005z M316.296,497.005h-30.505v-71.656
	c5.413,0.975,10.603,3.159,15.08,6.388c9.658,6.966,15.424,18.226,15.425,30.117V497.005z M433.534,371.908
	c-1.374,0-2.762-0.083-4.246-0.254c-4.399-0.507-8.642,2.915-8.416,8.261c0.032,0.751,0.271,1.481,0.633,2.139
	c3.006,5.488,4.531,11.454,4.531,17.719c0,18.415-13.746,34.14-31.971,36.578c-0.333,0.044-0.659,0.11-0.976,0.196
	c-0.401,0.109-0.82,0.144-1.236,0.144h-67.088c-3.679-6.667-8.796-12.553-15.121-17.116c-6.825-4.923-14.826-8.142-23.137-9.313
	l-0.811-0.114c-0.692-0.097-1.423-0.198-2.081-0.298c-0.011-0.541-0.015-1.124-0.017-1.695h13.72c9.585,0,19.113-1.185,28.318-3.523
	c4.014-1.019,6.441-5.099,5.422-9.112s-5.101-6.442-9.112-5.421c-8,2.031-16.286,3.061-24.628,3.061h-82.634
	c-53.389,0-97.111-42.166-99.623-94.944c0.212-0.695-0.117-80.405-0.117-80.405c0.061,0,0.121,0.004,0.182,0.004
	c9.183,0,18.01-3.193,25.05-8.768c1.837-1.456,4.412-1.456,6.25,0c7.04,5.575,15.866,8.768,25.05,8.768
	c9.183,0,18.009-3.193,25.05-8.768c1.837-1.456,4.412-1.456,6.25,0c7.04,5.575,15.866,8.768,25.05,8.768
	c9.183,0,18.009-3.193,25.05-8.768c1.837-1.456,4.412-1.456,6.25,0c7.04,5.575,15.866,8.768,25.049,8.768
	c9.184,0,18.01-3.193,25.05-8.768c1.837-1.456,4.412-1.456,6.25,0c7.041,5.575,15.866,8.769,25.05,8.769
	c9.184,0,18.01-3.193,25.05-8.768c1.837-1.456,4.412-1.456,6.25,0c7.04,5.574,15.866,8.768,25.05,8.768
	c0.061,0,0.121-0.003,0.182-0.004v75.608c0,28.826-12.47,56.235-34.215,75.198c-3.121,2.722-3.444,7.457-0.723,10.578
	c1.482,1.7,3.562,2.57,5.653,2.57c1.748,0,3.504-0.608,4.926-1.847c23.138-20.179,37.137-48.676,39.104-79.085
	c7.817-1.069,15.121-4.818,20.531-10.667c5.871-6.344,9.104-14.602,9.104-23.252c0-5.909-1.505-11.471-4.151-16.327
	c5.623,5.969,8.91,13.933,8.91,22.325c0,5.972-1.63,11.81-4.714,16.883c-1.996,3.284-1.294,7.801,2.439,10.325
	c0.34,0.23,0.727,0.391,1.117,0.521c14.968,4.963,25.055,18.966,25.055,34.703C470.095,355.506,453.694,371.908,433.534,371.908z"/>
<g>
</g>
<g>
</g>
<g>
</g>
<g>
</g>
<g>
</g>
<g>
</g>
<g>
</g>
<g>
</g>
<g>
</g>
<g>
</g>
<g>
</g>
<g>
</g>
<g>
</g>
<g>
</g>
<g>
</g>
</svg>
