<?xml version="1.0" encoding="iso-8859-1"?>
<!-- Generator: Adobe Illustrator 19.0.0, SVG Export Plug-In . SVG Version: 6.00 Build 0)  -->
<svg version="1.1" id="Capa_1" xmlns="http://www.w3.org/2000/svg" xmlns:xlink="http://www.w3.org/1999/xlink" x="0px" y="0px"
	 viewBox="0 0 512.002 512.002" style="enable-background:new 0 0 512.002 512.002;" xml:space="preserve">
<path style="fill:#8B6859;" d="M107.873,123.202v114.87h-1.566c-16.059,0-29.077,13.018-29.077,29.077s13.018,29.077,29.077,29.077
	h1.614c1.649,57.69,48.929,103.952,107.018,103.952h20.983c0,3.932,0,6.905,0,6.914c0,9.667-0.123,9.386-9.354,10.686
	c-7.119,1.002-13.947,3.757-19.777,7.962c-11.537,8.322-18.518,21.936-18.518,36.163v42.608h135.454v-42.608
	c0-14.227-6.98-27.841-18.518-36.163c-5.83-4.205-12.659-6.959-19.777-7.962c-9.231-1.3-9.354-1.019-9.354-10.686
	c0-0.009,0-2.982,0-6.914h20.983c59.131,0,107.067-47.935,107.067-107.067V123.202H107.873z"/>
<path style="fill:#E04B1A;" d="M323.723,461.904c0-14.23-6.975-27.844-18.51-36.162c-3.726-2.687-7.857-4.78-12.215-6.201
	c-2.46-0.804-4.999-1.398-7.568-1.765c-3.765-0.531-6.014-0.789-7.357-1.578l-1.726,0.383l-4.616,2.57
	c-9.872,5.506-21.892,5.467-31.726-0.109l-4.35-2.46l-1.726-0.383c-1.343,0.789-3.593,1.047-7.357,1.578
	c-2.57,0.367-5.108,0.961-7.568,1.765c-4.358,1.421-8.49,3.515-12.215,6.201c-11.536,8.318-18.51,23.587-18.51,37.817h32.898v40.951
	h69.651v-42.606h32.895V461.904z"/>
<path style="fill:#875B4C;" d="M406.192,238.072h-2.061v-114.87h-42.273v170.043c0,59.062-47.865,106.927-106.927,106.927h42.273
	c58.052,0,105.305-46.263,106.884-103.946h2.104c8.438,0,16.036-3.594,21.348-9.335c4.797-5.185,7.729-12.121,7.729-19.742l0,0
	C435.269,251.09,422.25,238.072,406.192,238.072z"/>
<g>
	<circle style="fill:#CE6B55;" cx="169.5" cy="322.21" r="15.931"/>
	<circle style="fill:#CE6B55;" cx="342.5" cy="322.21" r="15.931"/>
</g>
<g>
	<path style="fill:#423E3C;" d="M256,23.536c0,0-81.68-50.187-140.167,26.886c-13.085,17.243-21.959,37.287-26.678,58.412
		c-4.295,19.227-9.933,38.371-17.972,56.386c-2.221,4.977-16.243,24.23-14.542,28.71c6.686,17.602,64.726-8.441,73.081-13.565
		c18.477-11.332,31.458-29.736,51.536-38.857c25.566-11.614,48.929-12.608,74.741,1.089V23.536H256z"/>
	<path style="fill:#423E3C;" d="M256,23.536c0,0,81.68-50.187,140.167,26.886c13.085,17.243,21.959,37.287,26.678,58.412
		c4.295,19.227,9.933,38.371,17.972,56.386c2.221,4.977,16.243,24.23,14.542,28.71c-6.686,17.602-64.726-8.441-73.081-13.565
		c-18.477-11.332-31.458-29.736-51.536-38.857c-25.566-11.614-48.929-12.608-74.741,1.089L256,23.536L256,23.536z"/>
</g>
<path style="fill:#302D2C;" d="M455.353,193.925c-3.585,9.445-21.953,6.328-39.504,0.615c-2.02-3.237-3.719-5.966-4.375-7.438
	c-8.04-18.02-13.685-37.163-17.979-56.387c-4.709-21.123-13.592-41.176-26.675-58.42C330.433,24.35,285.083,25.661,256,33.487
	v-9.953c0,0,81.684-50.179,140.171,26.889c13.083,17.244,21.953,37.283,26.675,58.407c4.294,19.237,9.926,38.38,17.966,56.387
	C443.033,170.193,457.066,189.456,455.353,193.925z"/>
<g>
	<circle style="fill:#E4F4F1;" cx="198.9" cy="270.67" r="39.823"/>
	<circle style="fill:#E4F4F1;" cx="313.1" cy="270.67" r="39.823"/>
</g>
<path d="M256.508,427.638c-13.158,0-22.346-5.943-22.92-6.323c-3.448-2.286-4.39-6.934-2.104-10.382
	c2.276-3.432,6.895-4.381,10.338-2.132c0.668,0.423,14.175,8.754,30.245-0.553c3.578-2.074,8.161-0.853,10.236,2.726
	c2.074,3.58,0.853,8.162-2.726,10.236C271.252,426.034,263.344,427.638,256.508,427.638z"/>
<g>
	<path style="fill:#F2B844;" d="M261.527,406.497v10.837v9.17v10.837l21.381,4.31c12.464,2.513,24.107-7.017,24.107-19.732l0,0
		c0-12.715-11.643-22.245-24.107-19.732L261.527,406.497z"/>
	<path style="fill:#F2B844;" d="M250.473,406.497v10.837v9.17v10.837l-21.381,4.31c-12.464,2.513-24.107-7.017-24.107-19.732l0,0
		c0-12.715,11.643-22.245,24.107-19.732L250.473,406.497z"/>
</g>
<circle style="fill:#E59E2C;" cx="256" cy="421.92" r="16.03"/>
<path d="M256,365.807c-12.562,0-22.781-10.219-22.781-22.781v-0.7c0-4.137,3.353-7.49,7.49-7.49s7.49,3.353,7.49,7.49v0.7
	c0,4.301,3.499,7.801,7.8,7.801c4.301,0,7.8-3.499,7.8-7.801v-0.7c0-4.137,3.353-7.49,7.49-7.49s7.49,3.353,7.49,7.49v0.7
	C278.781,355.588,268.562,365.807,256,365.807z"/>
<path d="M451.767,169.049c-1.706-2.731-3.638-5.826-4.11-6.882c-7.038-15.771-12.763-33.75-17.503-54.966
	c-3.55-15.899-9.269-30.886-16.998-44.541c-2.037-3.599-6.606-4.867-10.208-2.829c-3.6,2.037-4.867,6.608-2.829,10.209
	c7.001,12.369,12.186,25.97,15.416,40.427c4.959,22.203,10.993,41.112,18.443,57.805c0.852,1.913,2.408,4.429,5.083,8.712
	c2.356,3.773,6.892,11.036,8.457,14.812c-0.096,0.037-0.172,0.063-0.211,0.077c-7.329,2.495-24.836-2.488-39.594-8.116
	c-0.551-0.301-1.146-0.527-1.769-0.682c-8.667-3.385-16.173-6.901-19.751-9.096c-7.444-4.565-13.982-10.416-20.904-16.611
	c-9.362-8.38-19.043-17.044-31.451-22.68c-24.985-11.349-47.622-12.618-70.349-3.771V27.969
	c13.232-6.777,60.872-27.246,103.369,3.669c3.345,2.432,8.031,1.695,10.464-1.651c2.433-3.345,1.694-8.031-1.651-10.464
	C351.728,2.107,322.722-3.814,291.793,2.402C275.125,5.751,262.165,11.745,256,14.97c-7.525-3.941-25.177-12.011-47.369-14.342
	c-27.208-2.855-66.444,2.674-98.764,45.267c-13.472,17.754-22.9,38.38-28.021,61.307c-4.74,21.219-10.465,39.199-17.502,54.967
	c-0.472,1.055-2.405,4.151-4.11,6.882c-9.104,14.575-12.856,21.584-10.594,27.54c1.17,3.081,3.864,7.197,10.051,9.308
	c2.667,0.909,5.793,1.31,9.236,1.31c9.207-0.001,20.648-2.872,31.457-6.533v30.394c-17.355,2.84-30.643,17.934-30.643,36.08
	c0,18.302,13.516,33.505,31.09,36.157c4.737,54.135,47.33,97.578,101.081,103.634c-2.852,4.409-4.416,9.581-4.416,14.98
	c0,0.576,0.022,1.149,0.057,1.72c-10.593,9.792-16.768,23.686-16.768,38.263v42.608c0,4.137,3.353,7.49,7.49,7.49h135.454
	c4.137,0,7.49-3.353,7.49-7.49v-42.608c0-14.576-6.175-28.472-16.769-38.262c0.035-0.571,0.057-1.144,0.057-1.72
	c0-5.399-1.564-10.571-4.416-14.98c53.733-6.053,96.314-49.468,101.076-103.576c8.327-1.152,16.107-5.153,21.872-11.385
	c6.269-6.775,9.722-15.593,9.722-24.829c0-18.32-13.543-33.533-31.141-36.162v-30.007c10.6,3.576,21.932,6.408,31.133,6.407
	c3.49-0.001,6.676-0.408,9.394-1.335c6.288-2.146,9.026-6.33,10.216-9.461C464.623,190.635,460.87,183.625,451.767,169.049z
	 M100.383,287.903c-9.03-2.583-15.662-10.906-15.662-20.755s6.632-18.171,15.662-20.754V287.903z M276.85,411.049l7.538-1.52
	c3.734-0.751,7.56,0.199,10.503,2.609c2.944,2.41,4.634,5.975,4.634,9.78s-1.689,7.371-4.634,9.781
	c-2.944,2.409-6.775,3.365-10.502,2.608l-7.539-1.519c1.703-3.254,2.672-6.95,2.672-10.87
	C279.522,417.999,278.553,414.303,276.85,411.049z M264.542,421.919c0,4.711-3.832,8.543-8.542,8.543
	c-4.71,0-8.542-3.832-8.542-8.543c0-4.71,3.832-8.542,8.542-8.542C260.71,413.377,264.542,417.209,264.542,421.919z M235.15,432.789
	l-7.539,1.52c-3.732,0.753-7.559-0.199-10.503-2.609c-2.944-2.411-4.634-5.976-4.634-9.781s1.689-7.369,4.634-9.78
	c2.284-1.87,5.1-2.862,7.989-2.862c0.836,0,1.677,0.084,2.514,0.252l7.538,1.52c-1.703,3.254-2.672,6.95-2.672,10.87
	C232.478,425.839,233.447,429.535,235.15,432.789z M213.684,497.019h-17.92V471.05h17.92V497.019z M316.237,497.019h-17.921v-27.626
	h17.921V497.019z M315.451,454.413h-24.626c-4.137,0-7.49,3.353-7.49,7.49v35.116h-54.67v-33.46c0-4.137-3.353-7.49-7.49-7.49
	h-24.94c0.991-6.161,3.536-11.962,7.338-16.868c1.193,1.483,2.542,2.859,4.048,4.091c4.992,4.086,11.143,6.252,17.456,6.252
	c1.827,0,3.667-0.181,5.497-0.55l20.369-4.106c1.631,0.359,3.322,0.554,5.059,0.554c1.737,0,3.429-0.195,5.059-0.554l20.369,4.105
	c1.83,0.37,3.669,0.551,5.497,0.551c6.312,0,12.464-2.167,17.455-6.252c1.511-1.236,2.864-2.616,4.059-4.105
	C311.896,443.653,314.299,448.866,315.451,454.413z M396.637,293.249c0,54.831-44.609,99.438-99.439,99.438h-82.396
	c-53.505,0-97.267-42.478-99.353-95.481c0.042-0.321,0.071-0.647,0.071-0.98v-58.155c0-0.12-0.012-0.237-0.018-0.355h48.639
	c-8.156,8.597-13.176,20.197-13.176,32.955c0,26.429,21.502,47.93,47.93,47.93c23.325,0,42.802-16.751,47.057-38.853h20.093
	c4.255,22.102,23.732,38.853,47.057,38.853c26.429,0,47.929-21.501,47.929-47.93c0-12.758-5.02-24.358-13.175-32.955h48.779v55.533
	H396.637z M165.947,270.671c0-18.169,14.781-32.95,32.95-32.95s32.95,14.781,32.95,32.95c0,18.168-14.781,32.949-32.95,32.949
	S165.947,288.839,165.947,270.671z M280.154,270.671c0-18.169,14.781-32.95,32.95-32.95c18.168,0,32.949,14.781,32.949,32.95
	c0,18.168-14.781,32.949-32.949,32.949C294.935,303.62,280.154,288.839,280.154,270.671z M396.637,222.736h-85.93
	c-0.568,0-1.118,0.069-1.65,0.188c-22.582,1.899-40.75,19.514-43.507,41.843h-19.098c-2.758-22.329-20.926-39.945-43.509-41.843
	c-0.531-0.12-1.082-0.188-1.65-0.188h-85.929v-26.832c0-0.294-0.021-0.583-0.054-0.868c10.453-4.331,18.468-8.408,20.219-9.481
	c3.527-2.163,4.632-6.775,2.469-10.301c-2.164-3.526-6.776-4.633-10.301-2.469c-3.201,1.963-17.969,9.104-33.848,14.314
	c-19.633,6.442-27.027,5.377-29.323,4.594c1.605-3.805,6.078-10.966,8.414-14.706c2.675-4.284,4.231-6.801,5.083-8.712
	c7.449-16.691,13.482-35.601,18.442-57.806c4.649-20.811,13.173-39.489,25.335-55.516c22.443-29.575,50.959-42.851,84.747-39.477
	c19.363,1.937,35.178,9.026,41.962,12.5v102.945c-22.724-8.847-45.365-7.575-70.349,3.771c-3.294,1.496-6.496,3.245-9.786,5.344
	c-3.488,2.226-4.511,6.856-2.286,10.344c2.226,3.488,6.857,4.508,10.344,2.286c2.689-1.716,5.281-3.134,7.924-4.335
	c24.766-11.248,45.779-10.974,68.132,0.887c0.086,0.046,0.178,0.077,0.265,0.119c0.147,0.071,0.295,0.139,0.445,0.2
	c0.147,0.059,0.296,0.111,0.446,0.161c0.156,0.052,0.312,0.1,0.47,0.142c0.152,0.04,0.304,0.072,0.458,0.102
	c0.159,0.031,0.318,0.059,0.479,0.079c0.156,0.02,0.313,0.033,0.47,0.043c0.16,0.01,0.318,0.018,0.478,0.018
	c0.159,0,0.317-0.007,0.475-0.018c0.158-0.01,0.316-0.023,0.473-0.043c0.159-0.02,0.317-0.048,0.475-0.079
	c0.155-0.03,0.309-0.062,0.463-0.102c0.156-0.041,0.311-0.089,0.465-0.14c0.152-0.05,0.302-0.103,0.451-0.163
	c0.15-0.06,0.296-0.128,0.442-0.199c0.088-0.042,0.18-0.074,0.267-0.12c22.354-11.861,43.365-12.136,68.133-0.887
	c10.32,4.688,18.74,12.224,27.656,20.203c7.112,6.366,14.466,12.948,23.062,18.22c1.614,0.99,8.778,4.624,18.275,8.572
	L396.637,222.736L396.637,222.736z M411.959,246.344c9.111,2.53,15.819,10.898,15.819,20.804c0,5.452-2.037,10.657-5.737,14.655
	c0,0,0,0-0.001,0.001c-2.787,3.013-6.254,5.114-10.082,6.163v-41.623H411.959z"/>
<g>
</g>
<g>
</g>
<g>
</g>
<g>
</g>
<g>
</g>
<g>
</g>
<g>
</g>
<g>
</g>
<g>
</g>
<g>
</g>
<g>
</g>
<g>
</g>
<g>
</g>
<g>
</g>
<g>
</g>
</svg>
